<svg width="59" height="59" viewBox="0 0 59 59" fill="none" xmlns="http://www.w3.org/2000/svg">
<path d="M12.8302 39.0175C13.0114 39.0174 13.1852 38.9436 13.3134 38.8121C13.4415 38.6806 13.5135 38.5022 13.5135 38.3163V38.0654C13.666 38.0368 13.8159 37.9951 13.9615 37.9407C14.9711 37.5552 15.4728 36.6235 15.1532 35.7224C14.7973 34.7336 13.8368 34.4895 13.0651 34.2933C12.585 34.1711 12.0883 34.0451 11.9124 33.7855C11.8651 33.7256 11.8377 33.6516 11.8344 33.5745C11.8311 33.4974 11.852 33.4212 11.8941 33.3572C12.0866 33.0936 12.6384 32.971 13.2062 33.0659C13.3508 33.0917 13.49 33.1426 13.6179 33.2165C13.6963 33.2615 13.7825 33.2903 13.8717 33.3011C13.9608 33.3119 14.0512 33.3045 14.1376 33.2794C14.224 33.2544 14.3047 33.212 14.3752 33.1549C14.4457 33.0978 14.5045 33.027 14.5482 32.9465C14.592 32.866 14.6199 32.7775 14.6303 32.686C14.6406 32.5945 14.6334 32.5017 14.6088 32.4131C14.5842 32.3244 14.5429 32.2417 14.4871 32.1694C14.4314 32.0972 14.3623 32.037 14.2838 31.9922C14.0432 31.855 13.7833 31.7567 13.5135 31.7008V31.3043C13.5135 31.1183 13.4415 30.94 13.3134 30.8085C13.1852 30.677 13.0114 30.6031 12.8302 30.6031C12.649 30.6031 12.4752 30.677 12.3471 30.8085C12.219 30.94 12.147 31.1183 12.147 31.3043V31.7055C11.6167 31.7952 11.1376 32.0834 10.8022 32.5143C10.5868 32.8143 10.4697 33.1766 10.4678 33.5492C10.4659 33.9218 10.5792 34.2854 10.7915 34.5877C11.2605 35.2793 12.0446 35.4786 12.7365 35.6546C13.377 35.8176 13.7734 35.936 13.8701 36.2052C13.9292 36.3715 13.6803 36.5516 13.4858 36.6259C13.2557 36.7038 13.0126 36.733 12.7712 36.7117C12.5297 36.6904 12.295 36.619 12.0813 36.502C12.0022 36.4583 11.9155 36.4311 11.8261 36.4219C11.7368 36.4126 11.6465 36.4215 11.5605 36.4481C11.4745 36.4747 11.3945 36.5184 11.325 36.5768C11.2555 36.6351 11.1978 36.7069 11.1554 36.7882C11.1129 36.8694 11.0865 36.9584 11.0776 37.0501C11.0687 37.1418 11.0775 37.2344 11.1035 37.3226C11.1295 37.4108 11.1722 37.4929 11.2292 37.5642C11.2861 37.6355 11.3562 37.6945 11.4354 37.738C11.6606 37.8607 11.8995 37.9546 12.147 38.0176V38.3163C12.147 38.5022 12.219 38.6806 12.3471 38.8121C12.4752 38.9436 12.649 39.0174 12.8302 39.0175ZM23.7623 30.6031C23.9435 30.6031 24.1173 30.5292 24.2455 30.3977C24.3736 30.2662 24.4456 30.0879 24.4456 29.9019V29.6511C24.5981 29.6225 24.748 29.5808 24.8936 29.5263C25.9032 29.1408 26.4049 28.2092 26.0853 27.3081C25.7294 26.3193 24.7689 26.0751 23.9972 25.879C23.5171 25.7567 23.0204 25.6307 22.8445 25.3712C22.7972 25.3113 22.7698 25.2373 22.7665 25.1602C22.7632 25.0831 22.7841 25.0069 22.8262 24.9429C23.0187 24.6792 23.5702 24.5564 24.1383 24.6515C24.2829 24.6774 24.4221 24.7283 24.55 24.8022C24.6284 24.8472 24.7146 24.8759 24.8038 24.8867C24.8929 24.8975 24.9833 24.8902 25.0697 24.8651C25.1561 24.84 25.2369 24.7977 25.3073 24.7406C25.3778 24.6835 25.4366 24.6126 25.4803 24.5322C25.5241 24.4517 25.552 24.3632 25.5624 24.2717C25.5728 24.1801 25.5655 24.0874 25.5409 23.9988C25.5163 23.9101 25.475 23.8273 25.4192 23.7551C25.3635 23.6829 25.2944 23.6226 25.2159 23.5778C24.9753 23.4406 24.7154 23.3423 24.4456 23.2864V22.89C24.4456 22.704 24.3736 22.5257 24.2455 22.3942C24.1173 22.2627 23.9436 22.1888 23.7623 22.1888C23.5811 22.1888 23.4073 22.2627 23.2792 22.3942C23.1511 22.5257 23.0791 22.704 23.0791 22.89V23.2912C22.5488 23.3809 22.0697 23.669 21.7343 24.1C21.5189 24.3999 21.4018 24.7623 21.3999 25.1349C21.398 25.5075 21.5113 25.8711 21.7236 26.1734C22.1926 26.865 22.9767 27.0643 23.6686 27.2403C24.3091 27.4032 24.7055 27.5217 24.8022 27.7908C24.8613 27.9572 24.6124 28.1373 24.4179 28.2116C24.1878 28.2895 23.9447 28.3187 23.7033 28.2974C23.4618 28.2761 23.2271 28.2047 23.0134 28.0877C22.8537 28.0002 22.6667 27.9813 22.4935 28.0352C22.3203 28.089 22.175 28.2112 22.0894 28.3749C22.0039 28.5386 21.9851 28.7304 22.0372 28.9083C22.0894 29.0862 22.2081 29.2355 22.3675 29.3237C22.5927 29.4463 22.8316 29.5402 23.0791 29.6033V29.9019C23.0791 30.0879 23.1511 30.2662 23.2792 30.3977C23.4073 30.5292 23.5811 30.6031 23.7623 30.6031ZM34.6007 17.4235C35.2412 17.5865 35.6376 17.705 35.7343 17.9741C35.7934 18.1405 35.5445 18.3206 35.35 18.3949C35.1199 18.4728 34.8768 18.5021 34.6353 18.4807C34.3939 18.4594 34.1592 18.3881 33.9454 18.2709C33.7858 18.1835 33.5988 18.1646 33.4256 18.2184C33.2524 18.2723 33.107 18.3945 33.0215 18.5582C32.936 18.7218 32.9172 18.9137 32.9693 19.0916C33.0215 19.2694 33.1402 19.4188 33.2996 19.5069C33.5248 19.6296 33.7637 19.7235 34.0112 19.7866V20.0852C34.0112 20.2712 34.0832 20.4495 34.2113 20.581C34.3394 20.7125 34.5132 20.7864 34.6944 20.7864C34.8756 20.7864 35.0494 20.7125 35.1776 20.581C35.3057 20.4495 35.3777 20.2712 35.3777 20.0852V19.8344C35.5302 19.8058 35.6801 19.764 35.8257 19.7096C36.8353 19.3241 37.337 18.3925 37.0174 17.4913C36.6615 16.5025 35.701 16.2584 34.9293 16.0622C34.4492 15.94 33.9525 15.814 33.7766 15.5545C33.7293 15.4945 33.7019 15.4206 33.6986 15.3434C33.6953 15.2663 33.7162 15.1902 33.7583 15.1262C33.9508 14.8625 34.5023 14.7393 35.0704 14.8348C35.215 14.8607 35.3542 14.9116 35.4821 14.9855C35.5605 15.0305 35.6467 15.0592 35.7359 15.07C35.825 15.0808 35.9154 15.0735 36.0018 15.0484C36.0882 15.0233 36.169 14.981 36.2394 14.9239C36.3099 14.8667 36.3687 14.7959 36.4124 14.7155C36.4562 14.635 36.4841 14.5465 36.4945 14.4549C36.5049 14.3634 36.4976 14.2707 36.473 14.182C36.4485 14.0934 36.4071 14.0106 36.3513 13.9384C36.2956 13.8661 36.2265 13.8059 36.148 13.7611C35.9074 13.6239 35.6475 13.5256 35.3777 13.4697V13.0733C35.3777 12.8873 35.3057 12.7089 35.1776 12.5774C35.0494 12.4459 34.8756 12.3721 34.6944 12.3721C34.5132 12.3721 34.3394 12.4459 34.2113 12.5774C34.0832 12.7089 34.0112 12.8873 34.0112 13.0733V13.4746C33.481 13.5644 33.0019 13.8525 32.6664 14.2832C32.451 14.5832 32.3339 14.9456 32.332 15.3182C32.3301 15.6908 32.4434 16.0544 32.6557 16.3567C33.1247 17.0483 33.9088 17.2476 34.6007 17.4235Z" fill="#1E83E6"/>
<path d="M7.3608 30.4522C7.53707 30.4525 7.70689 30.3846 7.83606 30.2622L28.4182 10.8296L28.3252 11.2098C28.2813 11.3931 28.3104 11.5866 28.406 11.7481C28.5016 11.9095 28.656 12.0258 28.8355 12.0715C29.0149 12.1172 29.2048 12.0885 29.3636 11.9919C29.5224 11.8952 29.6372 11.7383 29.6829 11.5555L30.4308 8.49997C30.4606 8.37838 30.4584 8.25095 30.4246 8.13048C30.3907 8.01001 30.3264 7.90075 30.238 7.81368C30.1496 7.72662 30.0404 7.66482 29.9212 7.63449C29.8019 7.60417 29.677 7.60639 29.5589 7.64094L26.5734 8.51496C26.485 8.5407 26.4024 8.58399 26.3303 8.64233C26.2583 8.70068 26.1982 8.77294 26.1535 8.85499C26.1089 8.93704 26.0805 9.02726 26.0701 9.12049C26.0597 9.21372 26.0674 9.30813 26.0927 9.39833C26.1181 9.48853 26.1607 9.57274 26.218 9.64614C26.2753 9.71955 26.3462 9.78071 26.4267 9.82612C26.5072 9.87154 26.5957 9.90032 26.6872 9.91082C26.7786 9.92132 26.8711 9.91333 26.9595 9.88732L27.5345 9.71895L6.88555 29.2147C6.7823 29.3122 6.71026 29.4391 6.67882 29.579C6.64739 29.7189 6.65802 29.8652 6.70934 29.9988C6.76065 30.1324 6.85026 30.2471 6.96648 30.328C7.08269 30.4089 7.22011 30.4522 7.3608 30.4522Z" fill="#2D4356"/>
<path d="M0.47581 53.2915C0.738593 53.2915 0.951621 53.0784 0.951621 52.8157C0.951621 52.5529 0.738593 52.3398 0.47581 52.3398C0.213028 52.3398 0 52.5529 0 52.8157C0 53.0784 0.213028 53.2915 0.47581 53.2915Z" fill="#2D4356"/>
<path d="M3.5352 52.3398H3.12736C3.05525 52.3398 2.98609 52.39 2.9351 52.4792C2.88411 52.5684 2.85547 52.6895 2.85547 52.8157C2.85547 52.9418 2.88411 53.0629 2.9351 53.1521C2.98609 53.2413 3.05525 53.2915 3.12736 53.2915H3.5352C3.60731 53.2915 3.67646 53.2413 3.72745 53.1521C3.77844 53.0629 3.80709 52.9418 3.80709 52.8157C3.80709 52.6895 3.77844 52.5684 3.72745 52.4792C3.67646 52.39 3.60731 52.3398 3.5352 52.3398Z" fill="#2D4356"/>
<path d="M41.2366 55.1943H38.3818C38.209 55.2097 38.0478 55.2965 37.9302 55.4376C37.8126 55.5787 37.7473 55.7636 37.7473 55.9556C37.7473 56.1476 37.8126 56.3326 37.9302 56.4737C38.0478 56.6147 38.209 56.7016 38.3818 56.7169H41.2366C41.4094 56.7016 41.5706 56.6147 41.6882 56.4737C41.8058 56.3326 41.871 56.1476 41.871 55.9556C41.871 55.7636 41.8058 55.5787 41.6882 55.4376C41.5706 55.2965 41.4094 55.2097 41.2366 55.1943ZM20.6182 55.1943H17.7633C17.5905 55.2097 17.4293 55.2965 17.3118 55.4376C17.1942 55.5787 17.1289 55.7636 17.1289 55.9556C17.1289 56.1476 17.1942 56.3326 17.3118 56.4737C17.4293 56.6147 17.5905 56.7016 17.7633 56.7169H20.6182C20.791 56.7016 20.9522 56.6147 21.0698 56.4737C21.1873 56.3326 21.2526 56.1476 21.2526 55.9556C21.2526 55.7636 21.1873 55.5787 21.0698 55.4376C20.9522 55.2965 20.791 55.2097 20.6182 55.1943ZM36.3728 55.1943H22.6272C22.4449 55.1943 22.2701 55.2745 22.1412 55.4173C22.0123 55.5601 21.9399 55.7537 21.9399 55.9556C21.9399 56.1575 22.0123 56.3512 22.1412 56.494C22.2701 56.6367 22.4449 56.7169 22.6272 56.7169H28.1048V57.4782H25.3763C25.194 57.4782 25.0192 57.5584 24.8903 57.7012C24.7614 57.844 24.689 58.0376 24.689 58.2395C24.689 58.4414 24.7614 58.6351 24.8903 58.7778C25.0192 58.9206 25.194 59.0008 25.3763 59.0008H33.9673C34.1496 59.0008 34.3244 58.9206 34.4533 58.7778C34.5822 58.6351 34.6546 58.4414 34.6546 58.2395C34.6546 58.0376 34.5822 57.844 34.4533 57.7012C34.3244 57.5584 34.1496 57.4782 33.9673 57.4782H30.8952V56.7169H36.3728C36.5551 56.7169 36.7299 56.6367 36.8588 56.494C36.9877 56.3512 37.0601 56.1575 37.0601 55.9556C37.0601 55.7537 36.9877 55.5601 36.8588 55.4173C36.7299 55.2745 36.5551 55.1943 36.3728 55.1943Z" fill="#1E83E6"/>
<path d="M0.47581 53.2915C0.738593 53.2915 0.951621 53.0784 0.951621 52.8157C0.951621 52.5529 0.738593 52.3398 0.47581 52.3398C0.213028 52.3398 0 52.5529 0 52.8157C0 53.0784 0.213028 53.2915 0.47581 53.2915Z" fill="#2D4356"/>
<path d="M3.5352 52.3398H3.12736C3.05525 52.3398 2.98609 52.39 2.9351 52.4792C2.88411 52.5684 2.85547 52.6895 2.85547 52.8157C2.85547 52.9418 2.88411 53.0629 2.9351 53.1521C2.98609 53.2413 3.05525 53.2915 3.12736 53.2915H3.5352C3.60731 53.2915 3.67646 53.2413 3.72745 53.1521C3.77844 53.0629 3.80709 52.9418 3.80709 52.8157C3.80709 52.6895 3.77844 52.5684 3.72745 52.4792C3.67646 52.39 3.60731 52.3398 3.5352 52.3398Z" fill="#2D4356"/>
<path d="M41.2366 55.1943H38.3818C38.209 55.2097 38.0478 55.2965 37.9302 55.4376C37.8126 55.5787 37.7473 55.7636 37.7473 55.9556C37.7473 56.1476 37.8126 56.3326 37.9302 56.4737C38.0478 56.6147 38.209 56.7016 38.3818 56.7169H41.2366C41.4094 56.7016 41.5706 56.6147 41.6882 56.4737C41.8058 56.3326 41.871 56.1476 41.871 55.9556C41.871 55.7636 41.8058 55.5787 41.6882 55.4376C41.5706 55.2965 41.4094 55.2097 41.2366 55.1943ZM20.6182 55.1943H17.7633C17.5905 55.2097 17.4293 55.2965 17.3118 55.4376C17.1942 55.5787 17.1289 55.7636 17.1289 55.9556C17.1289 56.1476 17.1942 56.3326 17.3118 56.4737C17.4293 56.6147 17.5905 56.7016 17.7633 56.7169H20.6182C20.791 56.7016 20.9522 56.6147 21.0698 56.4737C21.1873 56.3326 21.2526 56.1476 21.2526 55.9556C21.2526 55.7636 21.1873 55.5787 21.0698 55.4376C20.9522 55.2965 20.791 55.2097 20.6182 55.1943ZM36.3728 55.1943H22.6272C22.4449 55.1943 22.2701 55.2745 22.1412 55.4173C22.0123 55.5601 21.9399 55.7537 21.9399 55.9556C21.9399 56.1575 22.0123 56.3512 22.1412 56.494C22.2701 56.6367 22.4449 56.7169 22.6272 56.7169H28.1048V57.4782H25.3763C25.194 57.4782 25.0192 57.5584 24.8903 57.7012C24.7614 57.844 24.689 58.0376 24.689 58.2395C24.689 58.4414 24.7614 58.6351 24.8903 58.7778C25.0192 58.9206 25.194 59.0008 25.3763 59.0008H33.9673C34.1496 59.0008 34.3244 58.9206 34.4533 58.7778C34.5822 58.6351 34.6546 58.4414 34.6546 58.2395C34.6546 58.0376 34.5822 57.844 34.4533 57.7012C34.3244 57.5584 34.1496 57.4782 33.9673 57.4782H30.8952V56.7169H36.3728C36.5551 56.7169 36.7299 56.6367 36.8588 56.494C36.9877 56.3512 37.0601 56.1575 37.0601 55.9556C37.0601 55.7537 36.9877 55.5601 36.8588 55.4173C36.7299 55.2745 36.5551 55.1943 36.3728 55.1943Z" fill="#1E83E6"/>
<path d="M55.8741 52.3398H55.4662C55.3941 52.3398 55.325 52.39 55.274 52.4792C55.223 52.5684 55.1943 52.6895 55.1943 52.8157C55.1943 52.9418 55.223 53.0629 55.274 53.1521C55.325 53.2413 55.3941 53.2915 55.4662 53.2915H55.8741C55.9462 53.2915 56.0153 53.2413 56.0663 53.1521C56.1173 53.0629 56.146 52.9418 56.146 52.8157C56.146 52.6895 56.1173 52.5684 56.0663 52.4792C56.0153 52.39 55.9462 52.3398 55.8741 52.3398Z" fill="#2D4356"/>
<path d="M58.5246 53.2915C58.7874 53.2915 59.0004 53.0784 59.0004 52.8157C59.0004 52.5529 58.7874 52.3398 58.5246 52.3398C58.2619 52.3398 58.0488 52.5529 58.0488 52.8157C58.0488 53.0784 58.2619 53.2915 58.5246 53.2915Z" fill="#2D4356"/>
<path d="M53.5524 51.8756H49.6934V15.2943H51.858C51.9956 15.2943 52.1303 15.2555 52.246 15.1824C52.3618 15.1094 52.4538 15.0053 52.5109 14.8824C52.5681 14.7596 52.5881 14.6232 52.5685 14.4895C52.5489 14.3558 52.4906 14.2304 52.4005 14.1283L47.376 8.43412C47.3066 8.36101 47.2226 8.30271 47.1293 8.26284C47.036 8.22298 46.9353 8.20241 46.8335 8.20241C46.7317 8.20241 46.631 8.22298 46.5376 8.26284C46.4443 8.30271 46.3603 8.36101 46.2909 8.43412L41.2664 14.1283C41.1763 14.2304 41.118 14.3558 41.0984 14.4895C41.0789 14.6232 41.0989 14.7596 41.156 14.8824C41.2132 15.0053 41.3051 15.1094 41.4209 15.1824C41.5367 15.2555 41.6714 15.2943 41.809 15.2943H43.9623V51.8756H38.2201V28.6278L40.3699 28.6385H40.3734C40.5112 28.6385 40.6461 28.5995 40.762 28.5262C40.8778 28.453 40.9698 28.3485 41.0268 28.2254C41.0838 28.1022 41.1035 27.9655 41.0835 27.8317C41.0636 27.6978 41.0048 27.5724 40.9142 27.4705L35.8897 21.8193C35.8203 21.7468 35.7365 21.689 35.6435 21.6495C35.5505 21.61 35.4503 21.5897 35.3489 21.5897C35.2476 21.5897 35.1473 21.61 35.0543 21.6495C34.9613 21.689 34.8775 21.7468 34.8081 21.8193L29.7836 27.4705C29.693 27.5724 29.6342 27.6978 29.6143 27.8317C29.5943 27.9655 29.614 28.1022 29.671 28.2254C29.7281 28.3485 29.82 28.453 29.9359 28.5262C30.0517 28.5995 30.1866 28.6385 30.3244 28.6385H30.3279L32.4778 28.6278V51.8756H26.7355V38.4921L28.8853 38.5028H28.8888C29.0267 38.5027 29.1616 38.4638 29.2774 38.3905C29.3933 38.3172 29.4852 38.2128 29.5422 38.0896C29.5992 37.9665 29.6189 37.8298 29.599 37.696C29.579 37.5621 29.5202 37.4367 29.4296 37.3348L24.4051 31.6836C24.3358 31.6111 24.252 31.5533 24.159 31.5138C24.066 31.4743 23.9657 31.454 23.8643 31.454C23.763 31.454 23.6627 31.4743 23.5697 31.5138C23.4767 31.5533 23.3929 31.6111 23.3236 31.6836L18.2991 37.3348C18.2085 37.4367 18.1497 37.5621 18.1297 37.696C18.1098 37.8298 18.1295 37.9665 18.1865 38.0896C18.2435 38.2128 18.3354 38.3172 18.4513 38.3905C18.5671 38.4638 18.702 38.5027 18.8398 38.5028H18.8434L20.9932 38.4921V51.8756H15.2509V46.9472L17.4008 46.9579H17.4043C17.5421 46.9579 17.677 46.9189 17.7928 46.8456C17.9087 46.7724 18.0006 46.6679 18.0577 46.5447C18.1147 46.4216 18.1344 46.2849 18.1144 46.1511C18.0945 46.0172 18.0357 45.8918 17.9451 45.7899L12.9206 40.1387C12.8512 40.0662 12.7674 40.0084 12.6744 39.9689C12.5814 39.9294 12.4811 39.9091 12.3798 39.9091C12.2784 39.9091 12.1782 39.9294 12.0852 39.9689C11.9922 40.0084 11.9084 40.0662 11.839 40.1387L6.8145 45.7899C6.7239 45.8918 6.66511 46.0172 6.64515 46.1511C6.62519 46.2849 6.64489 46.4216 6.70192 46.5447C6.75894 46.6679 6.85087 46.7724 6.96672 46.8456C7.08258 46.9189 7.21747 46.9578 7.35529 46.9579H7.35879L9.50864 46.9472V51.8756H5.66084C5.55873 51.8625 5.45494 51.8709 5.35642 51.9003C5.25789 51.9298 5.16689 51.9795 5.0895 52.0462C5.01211 52.1129 4.9501 52.195 4.90762 52.2871C4.86514 52.3792 4.84317 52.4791 4.84317 52.5802C4.84317 52.6813 4.86514 52.7812 4.90762 52.8733C4.9501 52.9654 5.01211 53.0475 5.0895 53.1142C5.16689 53.1809 5.25789 53.2306 5.35642 53.26C5.45494 53.2894 5.55873 53.2979 5.66084 53.2848H53.5524C53.6545 53.2979 53.7583 53.2894 53.8568 53.26C53.9554 53.2306 54.0464 53.1809 54.1238 53.1142C54.2011 53.0475 54.2632 52.9654 54.3056 52.8733C54.3481 52.7812 54.3701 52.6813 54.3701 52.5802C54.3701 52.4791 54.3481 52.3792 54.3056 52.2871C54.2632 52.195 54.2011 52.1129 54.1238 52.0462C54.0464 51.9795 53.9554 51.9298 53.8568 51.9003C53.7583 51.8709 53.6545 51.8625 53.5524 51.8756ZM10.9442 51.8756V46.2389C10.9442 46.052 10.8685 45.8728 10.7339 45.7407C10.5993 45.6086 10.4168 45.5343 10.2264 45.5343H10.2229L8.94156 45.5408L12.3798 41.6738L15.818 45.5408L14.5366 45.5343C14.442 45.533 14.3481 45.5505 14.2605 45.5857C14.1729 45.6209 14.0935 45.6732 14.027 45.7393C13.96 45.8048 13.9067 45.8826 13.8704 45.9683C13.834 46.0541 13.8153 46.146 13.8154 46.2389V51.8756H10.9442ZM22.4288 51.8756V37.7837C22.4268 37.5969 22.35 37.4183 22.2151 37.2865C22.0802 37.1547 21.8978 37.0802 21.7075 37.0792L20.4261 37.0857L23.8643 33.2187L27.3026 37.0857C27.3026 37.0857 26.0212 37.0792 26.0177 37.0792C25.8279 37.081 25.6464 37.1558 25.5122 37.2875C25.378 37.4193 25.3018 37.5974 25.2999 37.7837V51.8756H22.4288ZM33.9133 51.8756V27.9195C33.9111 27.7327 33.8343 27.5542 33.6994 27.4225C33.5645 27.2907 33.3823 27.2162 33.192 27.2149L31.9107 27.2214L35.3489 23.3544L38.7871 27.2214C38.7871 27.2214 37.5058 27.2149 37.5023 27.2149C37.3125 27.2167 37.131 27.2915 36.9968 27.4233C36.8626 27.555 36.7863 27.7332 36.7845 27.9195V51.8756H33.9133ZM45.3979 51.8756V14.5897C45.3979 14.4028 45.3223 14.2236 45.1877 14.0915C45.0531 13.9593 44.8705 13.8851 44.6801 13.8851H43.3802L46.8335 9.97163L50.2868 13.8851H48.9756C48.7852 13.8851 48.6027 13.9593 48.4681 14.0915C48.3335 14.2236 48.2578 14.4028 48.2578 14.5897V51.8756H45.3979ZM16.8659 4.93214C17.0789 4.93214 17.2871 4.87016 17.4641 4.75403C17.6412 4.63789 17.7792 4.47283 17.8607 4.27971C17.9422 4.08659 17.9635 3.87408 17.9219 3.66907C17.8804 3.46405 17.7778 3.27573 17.6273 3.12792C17.4767 2.98011 17.2848 2.87946 17.076 2.83868C16.8671 2.7979 16.6507 2.81883 16.4539 2.89882C16.2572 2.97881 16.089 3.11428 15.9707 3.28808C15.8524 3.46188 15.7893 3.66622 15.7893 3.87526C15.7896 4.15546 15.9031 4.4241 16.105 4.62223C16.3068 4.82037 16.5805 4.93182 16.8659 4.93214ZM16.8659 3.34681C16.9724 3.34681 17.0765 3.3778 17.165 3.43587C17.2536 3.49394 17.3226 3.57647 17.3633 3.67303C17.404 3.76959 17.4147 3.87584 17.3939 3.97835C17.3732 4.08086 17.3219 4.17502 17.2466 4.24892C17.1713 4.32283 17.0754 4.37316 16.971 4.39355C16.8665 4.41394 16.7583 4.40347 16.6599 4.36347C16.5616 4.32348 16.4775 4.25575 16.4183 4.16884C16.3592 4.08194 16.3276 3.97977 16.3276 3.87526C16.3277 3.73515 16.3845 3.60082 16.4854 3.50174C16.5864 3.40267 16.7232 3.34695 16.8659 3.34681ZM57.3311 0C57.1891 0 57.0503 0.0413236 56.9323 0.118745C56.8143 0.196167 56.7223 0.306209 56.6679 0.434956C56.6136 0.563704 56.5994 0.705374 56.6271 0.842051C56.6548 0.978729 56.7231 1.10427 56.8235 1.20281C56.9239 1.30135 57.0518 1.36846 57.191 1.39565C57.3303 1.42283 57.4746 1.40888 57.6058 1.35555C57.7369 1.30222 57.849 1.21191 57.9279 1.09604C58.0068 0.980173 58.0489 0.843947 58.0489 0.704592C58.0486 0.517788 57.973 0.338696 57.8384 0.206606C57.7038 0.0745157 57.5214 0.000213524 57.3311 0ZM57.3311 1.05689C57.2601 1.05689 57.1907 1.03623 57.1317 0.997515C57.0727 0.958805 57.0267 0.903784 56.9995 0.83941C56.9723 0.775036 56.9652 0.704201 56.9791 0.635863C56.9929 0.567524 57.0271 0.504751 57.0773 0.455481C57.1275 0.406212 57.1914 0.372659 57.2611 0.359065C57.3307 0.345472 57.4028 0.352448 57.4684 0.379113C57.534 0.405777 57.5901 0.450932 57.6295 0.508867C57.6689 0.566802 57.69 0.634914 57.69 0.704592C57.6899 0.797998 57.652 0.887552 57.5848 0.9536C57.5175 1.01965 57.4262 1.05679 57.3311 1.05689ZM0.717786 13.0518C0.575821 13.0518 0.437045 13.0931 0.319005 13.1705C0.200966 13.2479 0.108966 13.358 0.0546385 13.4867C0.000311003 13.6155 -0.0139035 13.7571 0.0137924 13.8938C0.0414883 14.0305 0.109851 14.156 0.210235 14.2546C0.310619 14.3531 0.438516 14.4202 0.577753 14.4474C0.716989 14.4746 0.861312 14.4606 0.99247 14.4073C1.12363 14.354 1.23573 14.2637 1.3146 14.1478C1.39347 14.0319 1.43557 13.8957 1.43557 13.7564C1.43535 13.5696 1.35966 13.3905 1.2251 13.2584C1.09053 13.1263 0.908087 13.052 0.717786 13.0518ZM0.717786 14.1087C0.646803 14.1087 0.577415 14.088 0.518396 14.0493C0.459376 14.0106 0.413376 13.9555 0.386212 13.8912C0.359048 13.8268 0.351941 13.756 0.365789 13.6876C0.379637 13.6193 0.413818 13.5565 0.46401 13.5072C0.514202 13.458 0.578151 13.4244 0.647769 13.4108C0.717387 13.3972 0.789549 13.4042 0.855128 13.4309C0.920707 13.4575 0.976758 13.5027 1.01619 13.5606C1.05563 13.6186 1.07668 13.6867 1.07668 13.7564C1.07658 13.8498 1.03874 13.9393 0.971456 14.0054C0.904171 14.0714 0.812941 14.1086 0.717786 14.1087ZM48.6279 5.28444C48.486 5.28444 48.3472 5.32576 48.2292 5.40319C48.1111 5.48061 48.0191 5.59065 47.9648 5.7194C47.9105 5.84814 47.8962 5.98981 47.9239 6.12649C47.9516 6.26317 48.02 6.38872 48.1204 6.48725C48.2208 6.58579 48.3487 6.6529 48.4879 6.68009C48.6271 6.70727 48.7715 6.69332 48.9026 6.63999C49.0338 6.58666 49.1459 6.49635 49.2248 6.38048C49.3036 6.26461 49.3457 6.12839 49.3457 5.98903C49.3455 5.80223 49.2698 5.62314 49.1352 5.49105C49.0007 5.35896 48.8182 5.28465 48.6279 5.28444ZM48.6279 6.34133C48.557 6.34133 48.4876 6.32067 48.4285 6.28196C48.3695 6.24325 48.3235 6.18822 48.2964 6.12385C48.2692 6.05948 48.2621 5.98864 48.2759 5.9203C48.2898 5.85196 48.324 5.78919 48.3742 5.73992C48.4244 5.69065 48.4883 5.6571 48.5579 5.64351C48.6275 5.62991 48.6997 5.63689 48.7653 5.66355C48.8309 5.69022 48.8869 5.73537 48.9263 5.79331C48.9658 5.85124 48.9868 5.91935 48.9868 5.98903C48.9867 6.08244 48.9489 6.17199 48.8816 6.23804C48.8143 6.30409 48.7231 6.34124 48.6279 6.34133ZM4.33662 1.54343C4.33662 1.40407 4.29452 1.26785 4.21565 1.15198C4.13678 1.03611 4.02468 0.945797 3.89352 0.892468C3.76236 0.839139 3.61804 0.825186 3.4788 0.852373C3.33957 0.87956 3.21167 0.946666 3.11129 1.0452C3.0109 1.14374 2.94254 1.26929 2.91484 1.40597C2.88715 1.54264 2.90136 1.68431 2.95569 1.81306C3.01002 1.94181 3.10202 2.05185 3.22006 2.12927C3.3381 2.20669 3.47687 2.24802 3.61884 2.24802C3.80914 2.24781 3.99158 2.1735 4.12615 2.04141C4.26071 1.90932 4.3364 1.73023 4.33662 1.54343ZM3.25994 1.54343C3.25994 1.47375 3.28099 1.40564 3.32043 1.3477C3.35986 1.28977 3.41592 1.24461 3.48149 1.21795C3.54707 1.19128 3.61923 1.18431 3.68885 1.1979C3.75847 1.21149 3.82242 1.24505 3.87261 1.29432C3.9228 1.34359 3.95699 1.40636 3.97083 1.4747C3.98468 1.54304 3.97757 1.61387 3.95041 1.67824C3.92325 1.74262 3.87725 1.79764 3.81823 1.83635C3.75921 1.87506 3.68982 1.89572 3.61884 1.89572C3.52368 1.89563 3.43245 1.85848 3.36517 1.79243C3.29788 1.72639 3.26004 1.63683 3.25994 1.54343Z" fill="#2D4356"/>
<path d="M29.0949 4.67137L29.3496 3.99154L29.1887 3.80664L29.0252 4.5678H29.0197L28.8537 3.8122L28.6899 4.00232L28.9421 4.66581V4.67693L28.5479 4.57336V4.94316L28.9447 4.83994V4.85071L28.6899 5.51421L28.8427 5.70988L29.0172 4.94316H29.0225L29.1834 5.70467L29.3523 5.50864L29.0949 4.85627V4.84515L29.4995 4.94316V4.57336L29.0949 4.68215V4.67137Z" fill="#1E83E6"/>
<path d="M12.7689 18.1726L12.5143 18.836L12.6672 19.0321L12.8415 18.2649H12.8465L13.0075 19.0267L13.1764 18.8311L12.9191 18.178V18.1671L13.3237 18.2649V17.8955L12.9191 18.0042V17.9933L13.1738 17.3136L13.0128 17.1289L12.8495 17.8901H12.8442L12.6779 17.1337L12.5143 17.3245L12.7662 17.9879V17.9987L12.3721 17.8955V18.2649L12.7689 18.1617V18.1726Z" fill="#1E83E6"/>
<path d="M58.0492 14.0767V13.5218L56.8353 13.685V13.6685L57.5991 12.649L57.1166 12.3721L56.6262 13.5138H56.61L56.1117 12.38L55.6208 12.6655L56.3768 13.6605V13.677L55.1943 13.5218V14.0767L56.3847 13.9215V13.938L55.6208 14.933L56.0787 15.2269L56.6021 14.0767H56.6178L57.1004 15.2184L57.607 14.925L56.8353 13.9459V13.9295L58.0492 14.0767Z" fill="#1E83E6"/>
<path d="M38.7543 1.81688L39.5186 1.13701L39.0356 0.952148L38.5453 1.71336H38.5289L38.0307 0.957489L37.5392 1.14769L38.2956 1.81154V1.82223L37.1133 1.7187V2.08884L38.3035 1.98531V1.9964L37.5392 2.65944L37.9979 2.85539L38.521 2.08884H38.5368L39.0198 2.85005L39.5265 2.6541L38.7543 2.00175V1.99065L39.9681 2.08884V1.7187L38.7543 1.82757V1.81688Z" fill="#1E83E6"/>
</svg>
