<svg width="63" height="60" viewBox="0 0 63 60" fill="none" xmlns="http://www.w3.org/2000/svg">
<path d="M11.4843 22.4731C11.9617 22.4731 12.4284 22.3315 12.8253 22.0663C13.2223 21.8011 13.5316 21.4241 13.7143 20.9831C13.897 20.5421 13.9449 20.0567 13.8518 19.5885C13.7587 19.1203 13.5288 18.6902 13.1913 18.3526C12.8537 18.015 12.4237 17.7851 11.9555 17.6919C11.4873 17.5988 11.002 17.6465 10.5609 17.8291C10.1198 18.0118 9.74282 18.3211 9.47755 18.718C9.21227 19.1149 9.07064 19.5815 9.07056 20.0589C9.07048 20.3759 9.13286 20.6898 9.25413 20.9828C9.3754 21.2757 9.55319 21.5418 9.77734 21.766C10.0015 21.9902 10.2676 22.168 10.5605 22.2893C10.8534 22.4107 11.1673 22.4731 11.4843 22.4731ZM11.4843 19.0248C11.689 19.0248 11.889 19.0855 12.0591 19.1992C12.2292 19.3129 12.3618 19.4745 12.4401 19.6635C12.5184 19.8526 12.5389 20.0606 12.4989 20.2613C12.459 20.4619 12.3604 20.6463 12.2157 20.7909C12.071 20.9356 11.8866 21.0341 11.6859 21.0739C11.4852 21.1138 11.2772 21.0933 11.0882 21.0149C10.8992 20.9365 10.7376 20.8039 10.624 20.6337C10.5104 20.4636 10.4498 20.2635 10.4499 20.0589C10.4502 19.7847 10.5593 19.5218 10.7533 19.3279C10.9472 19.1341 11.2101 19.0251 11.4843 19.0248Z" fill="#1E83E6"/>
<path d="M18.7257 14.5424C18.9303 14.5424 19.1303 14.4817 19.3004 14.3681C19.4705 14.2544 19.6031 14.0928 19.6814 13.9038C19.7597 13.7148 19.7802 13.5068 19.7403 13.3061C19.7003 13.1054 19.6018 12.9211 19.4571 12.7764C19.3125 12.6318 19.1281 12.5332 18.9275 12.4933C18.7268 12.4534 18.5188 12.4739 18.3298 12.5522C18.1408 12.6305 17.9792 12.7631 17.8655 12.9332C17.7519 13.1033 17.6912 13.3033 17.6912 13.5079C17.6915 13.7822 17.8006 14.0451 17.9945 14.2391C18.1884 14.433 18.4514 14.5421 18.7257 14.5424ZM18.7257 12.9907C18.828 12.9907 18.928 13.021 19.013 13.0778C19.0981 13.1347 19.1644 13.2155 19.2035 13.31C19.2427 13.4045 19.2529 13.5085 19.233 13.6088C19.213 13.7092 19.1637 13.8013 19.0914 13.8737C19.0191 13.946 18.9269 13.9953 18.8266 14.0152C18.7262 14.0352 18.6222 14.0249 18.5277 13.9858C18.4332 13.9466 18.3524 13.8803 18.2956 13.7953C18.2388 13.7102 18.2084 13.6102 18.2084 13.5079C18.2086 13.3708 18.2631 13.2393 18.3601 13.1423C18.457 13.0454 18.5885 12.9908 18.7257 12.9907ZM47.6626 9.45621C47.5262 9.45621 47.3928 9.49666 47.2794 9.57244C47.166 9.64822 47.0776 9.75593 47.0254 9.88195C46.9732 10.008 46.9595 10.1466 46.9862 10.2804C47.0128 10.4142 47.0784 10.5371 47.1749 10.6335C47.2713 10.73 47.3942 10.7957 47.528 10.8223C47.6618 10.8489 47.8005 10.8352 47.9265 10.783C48.0525 10.7308 48.1602 10.6424 48.236 10.529C48.3118 10.4156 48.3522 10.2823 48.3522 10.1459C48.352 9.96302 48.2793 9.78773 48.15 9.65844C48.0207 9.52915 47.8454 9.45642 47.6626 9.45621ZM47.6626 10.4907C47.5944 10.4907 47.5277 10.4705 47.471 10.4326C47.4143 10.3947 47.3701 10.3408 47.344 10.2778C47.3179 10.2148 47.3111 10.1455 47.3244 10.0786C47.3377 10.0117 47.3705 9.95026 47.4187 9.90204C47.467 9.85381 47.5284 9.82097 47.5953 9.80767C47.6622 9.79436 47.7315 9.80119 47.7945 9.82729C47.8575 9.85339 47.9114 9.89758 47.9493 9.95429C47.9872 10.011 48.0074 10.0777 48.0074 10.1459C48.0073 10.2373 47.9709 10.3249 47.9063 10.3896C47.8416 10.4542 47.754 10.4906 47.6626 10.4907ZM36.6428 3.74912C36.5064 3.74912 36.3731 3.78956 36.2596 3.86534C36.1462 3.94112 36.0578 4.04883 36.0056 4.17485C35.9534 4.30087 35.9398 4.43953 35.9664 4.57331C35.993 4.70709 36.0587 4.82997 36.1551 4.92642C36.2516 5.02287 36.3745 5.08856 36.5083 5.11517C36.642 5.14178 36.7807 5.12812 36.9067 5.07592C37.0327 5.02372 37.1404 4.93533 37.2162 4.82192C37.292 4.7085 37.3324 4.57517 37.3324 4.43877C37.3322 4.25592 37.2595 4.08063 37.1302 3.95134C37.0009 3.82205 36.8256 3.74933 36.6428 3.74912ZM36.6428 4.78359C36.5746 4.78359 36.5079 4.76337 36.4512 4.72548C36.3945 4.68759 36.3503 4.63374 36.3242 4.57073C36.2981 4.50772 36.2913 4.43839 36.3046 4.3715C36.3179 4.30461 36.3507 4.24316 36.399 4.19494C36.4472 4.14671 36.5086 4.11387 36.5755 4.10057C36.6424 4.08726 36.7117 4.09409 36.7748 4.12019C36.8378 4.14629 36.8916 4.19049 36.9295 4.24719C36.9674 4.3039 36.9876 4.37057 36.9876 4.43877C36.9875 4.53019 36.9512 4.61785 36.8865 4.6825C36.8219 4.74714 36.7342 4.7835 36.6428 4.78359ZM53.3133 0C53.1769 0 53.0436 0.0404474 52.9301 0.116227C52.8167 0.192007 52.7283 0.299716 52.6761 0.425733C52.6239 0.55175 52.6103 0.690416 52.6369 0.824196C52.6635 0.957975 52.7292 1.08086 52.8256 1.17731C52.9221 1.27376 53.045 1.33944 53.1787 1.36605C53.3125 1.39266 53.4512 1.379 53.5772 1.32681C53.7032 1.27461 53.8109 1.18621 53.8867 1.0728C53.9625 0.959388 54.0029 0.826051 54.0029 0.689651C54.0027 0.506808 53.93 0.331514 53.8007 0.202225C53.6714 0.0729356 53.4961 0.000208996 53.3133 0ZM53.3133 1.03448C53.2451 1.03448 53.1784 1.01425 53.1217 0.976363C53.065 0.938473 53.0208 0.884619 52.9947 0.82161C52.9686 0.758602 52.9618 0.689269 52.9751 0.622379C52.9884 0.555489 53.0212 0.494047 53.0695 0.445823C53.1177 0.397598 53.1791 0.364757 53.246 0.351451C53.3129 0.338146 53.3822 0.344975 53.4453 0.371074C53.5083 0.397173 53.5621 0.44137 53.6 0.498076C53.6379 0.554783 53.6581 0.621451 53.6581 0.689651C53.658 0.781077 53.6217 0.868731 53.557 0.933379C53.4924 0.998026 53.4047 1.03439 53.3133 1.03448ZM1.3793 19.3699C1.3793 19.2335 1.33886 19.1002 1.26308 18.9868C1.1873 18.8734 1.07959 18.785 0.95357 18.7328C0.827553 18.6806 0.688887 18.6669 0.555107 18.6936C0.421328 18.7202 0.298444 18.7858 0.201995 18.8823C0.105545 18.9787 0.0398621 19.1016 0.0132518 19.2354C-0.0133586 19.3692 0.000298813 19.5079 0.0524969 19.6339C0.104695 19.7599 0.193089 19.8676 0.306502 19.9434C0.419914 20.0192 0.553252 20.0596 0.689652 20.0596C0.872494 20.0594 1.04779 19.9867 1.17708 19.8574C1.30637 19.7281 1.37909 19.5528 1.3793 19.3699ZM0.344826 19.3699C0.344826 19.3018 0.36505 19.2351 0.40294 19.1784C0.44083 19.1217 0.494684 19.0775 0.557692 19.0514C0.620701 19.0253 0.690034 19.0184 0.756924 19.0317C0.823813 19.0451 0.885256 19.0779 0.93348 19.1261C0.981705 19.1743 1.01455 19.2358 1.02785 19.3027C1.04116 19.3696 1.03433 19.4389 1.00823 19.5019C0.98213 19.5649 0.937933 19.6188 0.881226 19.6567C0.82452 19.6946 0.757852 19.7148 0.689652 19.7148C0.598226 19.7147 0.510572 19.6783 0.445924 19.6137C0.381276 19.549 0.344917 19.4614 0.344826 19.3699Z" fill="#2D4356"/>
<path d="M1.79048 6.11086L2.30324 5.43638L1.97945 5.25293L1.65014 6.0081H1.63945L1.30497 5.25845L0.975658 5.44707L1.4829 6.10568V6.11637L0.689453 6.01361V6.38051L1.48807 6.2781V6.28879L0.975658 6.94706L1.2829 7.14154L1.63393 6.38051H1.64462L1.96841 7.13602L2.30841 6.94189L1.79048 6.2943V6.28327L2.60496 6.38051V6.01361L1.79048 6.12155V6.11086Z" fill="#1E83E6"/>
<path d="M23.4616 1.43249L23.1664 1.81145L23.3437 1.92317L23.5457 1.48524H23.5519L23.7382 1.92007L23.934 1.80835L23.6357 1.43524V1.42904L24.1047 1.48524V1.27387L23.6357 1.33593V1.32973L23.9309 0.941454L23.7447 0.835938L23.5551 1.27076H23.5488L23.3564 0.838696L23.1664 0.947661L23.4588 1.32662V1.33283L23.002 1.27387V1.48524L23.4616 1.42628V1.43249Z" fill="#1E83E6"/>
<path d="M55.1921 21.2738V20.9142L54.3931 21.0197V21.0093L54.8962 20.348L54.5786 20.168L54.2559 20.9087H54.2448L53.9169 20.1731L53.5938 20.3583L54.0914 21.0042V21.0145L53.3135 20.9142V21.2738L54.0966 21.1735V21.1838L53.5938 21.8293L53.8955 22.02L54.2397 21.2738H54.25L54.5676 22.0149L54.901 21.8242L54.3931 21.189V21.1787L55.1921 21.2738Z" fill="#1E83E6"/>
<path d="M31.7104 7.56145L32.1442 6.99111L31.8704 6.83594L31.5918 7.4749H31.5825L31.2997 6.84042L31.0211 7.00007L31.4504 7.55697V7.56628L30.7791 7.47938V7.78973L31.4549 7.70317V7.71214L31.0211 8.26903L31.2811 8.43352L31.578 7.78973H31.587L31.8611 8.42903L32.1487 8.26455L31.7104 7.71662V7.70766L32.3997 7.78973V7.47938L31.7104 7.57076V7.56145Z" fill="#1E83E6"/>
<path d="M4.82759 55.1723C5.20847 55.1723 5.51724 54.8635 5.51724 54.4826C5.51724 54.1017 5.20847 53.793 4.82759 53.793C4.44671 53.793 4.13794 54.1017 4.13794 54.4826C4.13794 54.8635 4.44671 55.1723 4.82759 55.1723Z" fill="#2D4356"/>
<path d="M7.93092 53.793H6.89644C6.71353 53.793 6.53812 53.8656 6.40878 53.995C6.27945 54.1243 6.20679 54.2997 6.20679 54.4826C6.20679 54.6655 6.27945 54.8409 6.40878 54.9703C6.53812 55.0996 6.71353 55.1723 6.89644 55.1723H7.93092C8.11382 55.1723 8.28924 55.0996 8.41857 54.9703C8.54791 54.8409 8.62057 54.6655 8.62057 54.4826C8.62057 54.2997 8.54791 54.1243 8.41857 53.995C8.28924 53.8656 8.11382 53.793 7.93092 53.793Z" fill="#2D4356"/>
<path d="M44.8803 56.5518H42.0156C41.8422 56.5656 41.6804 56.6443 41.5625 56.7721C41.4445 56.8999 41.379 57.0675 41.379 57.2414C41.379 57.4153 41.4445 57.5829 41.5625 57.7107C41.6804 57.8385 41.8422 57.9172 42.0156 57.9311H44.8803C45.0537 57.9172 45.2155 57.8385 45.3334 57.7107C45.4514 57.5829 45.5169 57.4153 45.5169 57.2414C45.5169 57.0675 45.4514 56.8999 45.3334 56.7721C45.2155 56.6443 45.0537 56.5656 44.8803 56.5518ZM24.1908 56.5518H21.3261C21.1527 56.5656 20.9909 56.6443 20.8729 56.7721C20.755 56.8999 20.6895 57.0675 20.6895 57.2414C20.6895 57.4153 20.755 57.5829 20.8729 57.7107C20.9909 57.8385 21.1527 57.9172 21.3261 57.9311H24.1908C24.3641 57.9172 24.5259 57.8385 24.6439 57.7107C24.7619 57.5829 24.8274 57.4153 24.8274 57.2414C24.8274 57.0675 24.7619 56.8999 24.6439 56.7721C24.5259 56.6443 24.3641 56.5656 24.1908 56.5518ZM39.9997 56.5518H26.2067C26.0238 56.5518 25.8484 56.6244 25.719 56.7538C25.5897 56.8831 25.517 57.0585 25.517 57.2414C25.517 57.4243 25.5897 57.5997 25.719 57.7291C25.8484 57.8584 26.0238 57.9311 26.2067 57.9311H31.7032V58.6207H28.9653C28.7824 58.6207 28.607 58.6934 28.4776 58.8227C28.3483 58.952 28.2756 59.1275 28.2756 59.3104C28.2756 59.4933 28.3483 59.6687 28.4776 59.798C28.607 59.9274 28.7824 60 28.9653 60H37.5859C37.7688 60 37.9442 59.9274 38.0736 59.798C38.2029 59.6687 38.2756 59.4933 38.2756 59.3104C38.2756 59.1275 38.2029 58.952 38.0736 58.8227C37.9442 58.6934 37.7688 58.6207 37.5859 58.6207H34.5032V57.9311H39.9997C40.1826 57.9311 40.358 57.8584 40.4874 57.7291C40.6167 57.5997 40.6894 57.4243 40.6894 57.2414C40.6894 57.0585 40.6167 56.8831 40.4874 56.7538C40.358 56.6244 40.1826 56.5518 39.9997 56.5518Z" fill="#1E83E6"/>
<path d="M59.3101 53.793H58.2756C58.0927 53.793 57.9173 53.8656 57.7879 53.995C57.6586 54.1243 57.5859 54.2997 57.5859 54.4826C57.5859 54.6655 57.6586 54.8409 57.7879 54.9703C57.9173 55.0996 58.0927 55.1723 58.2756 55.1723H59.3101C59.493 55.1723 59.6684 55.0996 59.7977 54.9703C59.9271 54.8409 59.9997 54.6655 59.9997 54.4826C59.9997 54.2997 59.9271 54.1243 59.7977 53.995C59.6684 53.8656 59.493 53.793 59.3101 53.793Z" fill="#2D4356"/>
<path d="M61.3791 55.1723C61.76 55.1723 62.0688 54.8635 62.0688 54.4826C62.0688 54.1017 61.76 53.793 61.3791 53.793C60.9982 53.793 60.6895 54.1017 60.6895 54.4826C60.6895 54.8635 60.9982 55.1723 61.3791 55.1723Z" fill="#2D4356"/>
<path d="M35.4408 49.4462L33.1329 49.4892L23.9303 55.5897C23.8988 55.6123 23.8553 55.5897 23.8553 55.5511V49.4219H19.3601C16.1064 49.4219 13.4697 46.7847 13.4697 43.5315V26.8172C13.4697 23.564 16.1064 20.9268 19.3601 20.9268H23.8668H39.8725H44.323C47.5762 20.9268 50.2134 23.564 50.2134 26.8172V43.5315C50.2134 46.7847 47.5762 49.4219 44.323 49.4219L41.9163 49.4462H35.4408Z" stroke="#2D4356" stroke-width="1.4" stroke-miterlimit="10"/>
<path d="M25.0769 33.164C26.9452 33.164 28.4597 31.6495 28.4597 29.7812C28.4597 27.913 26.9452 26.3984 25.0769 26.3984C23.2086 26.3984 21.6941 27.913 21.6941 29.7812C21.6941 31.6495 23.2086 33.164 25.0769 33.164Z" stroke="#2D4356" stroke-miterlimit="10"/>
<path d="M38.6435 33.164C40.5118 33.164 42.0263 31.6495 42.0263 29.7812C42.0263 27.913 40.5118 26.3984 38.6435 26.3984C36.7753 26.3984 35.2607 27.913 35.2607 29.7812C35.2607 31.6495 36.7753 33.164 38.6435 33.164Z" stroke="#2D4356" stroke-miterlimit="10"/>
<path d="M50.3276 40.0515V30.6035H52.8908C53.9602 30.6035 54.8271 31.4704 54.8271 32.5398V38.1158C54.8271 39.1851 53.9602 40.0521 52.8908 40.0521H50.3276V40.0515ZM8.85547 38.1158V32.5398C8.85547 31.4704 9.7224 30.6035 10.7917 30.6035H13.355V40.0521H10.7917C9.7224 40.0515 8.85547 39.1846 8.85547 38.1158ZM39.0028 38.5013C38.5302 41.8935 35.4441 44.5125 31.7056 44.5125C27.9682 44.5125 24.881 41.8935 24.4084 38.5013H39.0028Z" stroke="#2D4356" stroke-width="1.4" stroke-miterlimit="10"/>
<path d="M31.7057 15.6258C32.9831 15.6258 34.0187 14.5903 34.0187 13.3129C34.0187 12.0355 32.9831 11 31.7057 11C30.4284 11 29.3928 12.0355 29.3928 13.3129C29.3928 14.5903 30.4284 15.6258 31.7057 15.6258Z" stroke="#2D4356" stroke-miterlimit="10"/>
<path d="M31.7058 18.5312V15.626" stroke="#2D4356" stroke-miterlimit="10"/>
</svg>
