<svg width="59" height="59" viewBox="0 0 59 59" fill="none" xmlns="http://www.w3.org/2000/svg">
<path d="M43.5464 18.7419C43.7548 18.7419 43.9585 18.6801 44.1318 18.5643C44.305 18.4486 44.4401 18.284 44.5198 18.0915C44.5996 17.899 44.6204 17.6872 44.5798 17.4828C44.5391 17.2784 44.4388 17.0907 44.2914 16.9433C44.1441 16.796 43.9564 16.6957 43.752 16.655C43.5476 16.6144 43.3358 16.6352 43.1433 16.715C42.9507 16.7947 42.7862 16.9297 42.6704 17.103C42.5547 17.2763 42.4929 17.48 42.4929 17.6883C42.4932 17.9677 42.6043 18.2355 42.8018 18.433C42.9993 18.6305 43.2671 18.7416 43.5464 18.7419ZM43.5464 17.1616C43.6506 17.1616 43.7525 17.1924 43.8391 17.2503C43.9257 17.3082 43.9933 17.3905 44.0331 17.4867C44.073 17.583 44.0834 17.6889 44.0631 17.7911C44.0428 17.8933 43.9926 17.9872 43.9189 18.0608C43.8453 18.1345 43.7514 18.1847 43.6492 18.205C43.547 18.2253 43.4411 18.2149 43.3449 18.175C43.2486 18.1352 43.1663 18.0676 43.1084 17.981C43.0506 17.8944 43.0197 17.7925 43.0197 17.6883C43.0198 17.5487 43.0753 17.4148 43.1741 17.316C43.2729 17.2172 43.4068 17.1617 43.5464 17.1616ZM52.9782 24.8051C52.8393 24.8051 52.7035 24.8463 52.588 24.9235C52.4725 25.0007 52.3825 25.1104 52.3293 25.2387C52.2761 25.3671 52.2622 25.5083 52.2893 25.6446C52.3164 25.7808 52.3833 25.906 52.4816 26.0042C52.5798 26.1024 52.7049 26.1693 52.8412 26.1964C52.9774 26.2235 53.1187 26.2096 53.247 26.1564C53.3754 26.1033 53.485 26.0133 53.5622 25.8978C53.6394 25.7822 53.6806 25.6464 53.6806 25.5075C53.6804 25.3213 53.6063 25.1428 53.4746 25.0111C53.343 24.8794 53.1644 24.8054 52.9782 24.8051ZM52.9782 25.8587C52.9088 25.8587 52.8409 25.8381 52.7831 25.7995C52.7254 25.7609 52.6803 25.7061 52.6538 25.6419C52.6272 25.5777 52.6202 25.5071 52.6338 25.439C52.6473 25.3709 52.6808 25.3083 52.7299 25.2592C52.779 25.2101 52.8416 25.1766 52.9097 25.1631C52.9778 25.1495 53.0484 25.1565 53.1126 25.1831C53.1768 25.2097 53.2316 25.2547 53.2702 25.3124C53.3088 25.3702 53.3294 25.4381 53.3294 25.5075C53.3293 25.6006 53.2923 25.6899 53.2264 25.7558C53.1606 25.8216 53.0713 25.8586 52.9782 25.8587ZM25.2846 2.58715C25.1457 2.58715 25.0099 2.62834 24.8944 2.70552C24.7789 2.7827 24.6888 2.89239 24.6357 3.02074C24.5825 3.14908 24.5686 3.29031 24.5957 3.42656C24.6228 3.5628 24.6897 3.68796 24.7879 3.78619C24.8862 3.88442 25.0113 3.95131 25.1476 3.97841C25.2838 4.00551 25.425 3.9916 25.5534 3.93844C25.6817 3.88528 25.7914 3.79526 25.8686 3.67975C25.9458 3.56424 25.987 3.42845 25.987 3.28953C25.9868 3.10331 25.9127 2.92478 25.781 2.7931C25.6493 2.66143 25.4708 2.58736 25.2846 2.58715ZM25.2846 3.64072C25.2151 3.64072 25.1472 3.62012 25.0895 3.58153C25.0317 3.54294 24.9867 3.48809 24.9601 3.42392C24.9336 3.35975 24.9266 3.28914 24.9402 3.22101C24.9537 3.15289 24.9872 3.09031 25.0363 3.0412C25.0854 2.99208 25.148 2.95864 25.2161 2.94508C25.2842 2.93153 25.3548 2.93849 25.419 2.96507C25.4832 2.99165 25.538 3.03666 25.5766 3.09442C25.6152 3.15217 25.6358 3.22007 25.6358 3.28953C25.6357 3.38264 25.5987 3.47191 25.5328 3.53775C25.467 3.60359 25.3777 3.64062 25.2846 3.64072ZM52.627 1.88477C52.4881 1.88477 52.3523 1.92596 52.2368 2.00314C52.1213 2.08032 52.0313 2.19001 51.9781 2.31836C51.9249 2.4467 51.911 2.58793 51.9381 2.72417C51.9652 2.86042 52.0321 2.98557 52.1304 3.0838C52.2286 3.18203 52.3538 3.24893 52.49 3.27603C52.6262 3.30313 52.7675 3.28922 52.8958 3.23606C53.0242 3.1829 53.1339 3.09287 53.211 2.97737C53.2882 2.86186 53.3294 2.72606 53.3294 2.58715C53.3292 2.40093 53.2551 2.2224 53.1235 2.09072C52.9918 1.95905 52.8132 1.88498 52.627 1.88477ZM52.627 2.93834C52.5576 2.93834 52.4897 2.91774 52.4319 2.87915C52.3742 2.84056 52.3292 2.78571 52.3026 2.72154C52.276 2.65737 52.269 2.58676 52.2826 2.51863C52.2961 2.45051 52.3296 2.38793 52.3787 2.33882C52.4278 2.2897 52.4904 2.25625 52.5585 2.2427C52.6266 2.22915 52.6973 2.23611 52.7614 2.26269C52.8256 2.28927 52.8804 2.33428 52.919 2.39204C52.9576 2.44979 52.9782 2.51769 52.9782 2.58715C52.9781 2.68026 52.9411 2.76953 52.8753 2.83537C52.8094 2.90121 52.7201 2.93824 52.627 2.93834ZM4.03757 18.3907C4.03757 18.2518 3.99638 18.116 3.9192 18.0005C3.84202 17.885 3.73233 17.795 3.60398 17.7418C3.47564 17.6886 3.33441 17.6747 3.19817 17.7018C3.06192 17.7289 2.93677 17.7958 2.83854 17.8941C2.74031 17.9923 2.67341 18.1174 2.64631 18.2537C2.61921 18.3899 2.63312 18.5312 2.68628 18.6595C2.73944 18.7878 2.82947 18.8975 2.94497 18.9747C3.06048 19.0519 3.19628 19.0931 3.33519 19.0931C3.52141 19.0929 3.69994 19.0188 3.83162 18.8871C3.96329 18.7555 4.03736 18.5769 4.03757 18.3907ZM2.984 18.3907C2.984 18.3213 3.0046 18.2534 3.04319 18.1956C3.08178 18.1379 3.13663 18.0928 3.2008 18.0663C3.26497 18.0397 3.33558 18.0327 3.40371 18.0463C3.47183 18.0598 3.53441 18.0933 3.58352 18.1424C3.63264 18.1915 3.66609 18.2541 3.67964 18.3222C3.69319 18.3903 3.68623 18.4609 3.65965 18.5251C3.63307 18.5893 3.58806 18.6441 3.53031 18.6827C3.47255 18.7213 3.40465 18.7419 3.33519 18.7419C3.24208 18.7418 3.15281 18.7048 3.08697 18.6389C3.02113 18.5731 2.9841 18.4838 2.984 18.3907Z" fill="#2D4356"/>
<path d="M5.17018 6.01243L5.6924 5.32551L5.36263 5.13867L5.0276 5.90778H5.01636L4.6757 5.14429L4.34032 5.33639L4.85692 6.00717V6.01805L4.04883 5.9134V6.28706L4.86254 6.18276V6.19365L4.34032 6.86407L4.65358 7.06214L5.01074 6.28706H5.02163L5.35139 7.05652L5.69767 6.8588L5.17018 6.19927V6.18803L5.99969 6.28706V5.9134L5.17018 6.02332V6.01243Z" fill="#1E83E6"/>
<path d="M18.2908 12.5372L17.9901 12.9232L18.1706 13.0373L18.3764 12.591H18.3824L18.5724 13.0338L18.7719 12.92L18.4681 12.5404V12.5341L18.9457 12.591V12.3757L18.4681 12.4389V12.4329L18.7687 12.0372L18.5791 11.9297L18.3859 12.3725H18.3796L18.1833 11.9328L17.9901 12.0435L18.2876 12.4298V12.4361L17.8223 12.3757V12.591L18.2908 12.5309V12.5372Z" fill="#1E83E6"/>
<path d="M57.2541 12.0784V11.7121L56.4404 11.8196V11.8091L56.9524 11.1355L56.629 10.9521L56.3003 11.7065H56.2894L55.9554 10.9574L55.6263 11.146L56.1331 11.8038V11.8143L55.3408 11.7121V12.0784L56.1384 11.9762V11.9871L55.6263 12.6442L55.9336 12.8384L56.2841 12.0784H56.2947L56.6181 12.8331L56.9577 12.6389L56.4404 11.9924V11.9815L57.2541 12.0784Z" fill="#1E83E6"/>
<path d="M40.5247 6.81996L40.9665 6.23909L40.6877 6.08105L40.4039 6.73181H40.3948L40.1065 6.08562L39.8227 6.24822L40.2599 6.81539V6.82488L39.5762 6.73638V7.05245L40.2645 6.9643V6.97343L39.8227 7.5406L40.0875 7.70812L40.3902 7.05245H40.3994L40.6782 7.70355L40.9711 7.53604L40.5247 6.978V6.96886L41.2268 7.05245V6.73638L40.5247 6.82944V6.81996Z" fill="#1E83E6"/>
<path d="M0.702381 52.1977C1.0903 52.1977 1.40476 51.8833 1.40476 51.4953C1.40476 51.1074 1.0903 50.793 0.702381 50.793C0.314467 50.793 0 51.1074 0 51.4953C0 51.8833 0.314467 52.1977 0.702381 52.1977Z" fill="#2D4356"/>
<path d="M3.86337 50.7939H2.8098C2.62352 50.7939 2.44487 50.8679 2.31314 50.9997C2.18142 51.1314 2.10742 51.31 2.10742 51.4963C2.10742 51.6826 2.18142 51.8613 2.31314 51.993C2.44487 52.1247 2.62352 52.1987 2.8098 52.1987H3.86337C4.04966 52.1987 4.22831 52.1247 4.36003 51.993C4.49175 51.8613 4.56576 51.6826 4.56576 51.4963C4.56576 51.31 4.49175 51.1314 4.36003 50.9997C4.22831 50.8679 4.04966 50.7939 3.86337 50.7939ZM56.1908 50.7939H55.1372C54.9509 50.7939 54.7722 50.8679 54.6405 50.9997C54.5088 51.1314 54.4348 51.31 54.4348 51.4963C54.4348 51.6826 54.5088 51.8613 54.6405 51.993C54.7722 52.1247 54.9509 52.1987 55.1372 52.1987H56.1908C56.377 52.1987 56.5557 52.1247 56.6874 51.993C56.8191 51.8613 56.8931 51.6826 56.8931 51.4963C56.8931 51.31 56.8191 51.1314 56.6874 50.9997C56.5557 50.8679 56.377 50.7939 56.1908 50.7939Z" fill="#2D4356"/>
<path d="M58.2971 52.1977C58.685 52.1977 58.9995 51.8833 58.9995 51.4953C58.9995 51.1074 58.685 50.793 58.2971 50.793C57.9092 50.793 57.5947 51.1074 57.5947 51.4953C57.5947 51.8833 57.9092 52.1977 58.2971 52.1977Z" fill="#2D4356"/>
<path d="M41.4948 53.6025H38.5772C38.4006 53.6167 38.2359 53.6968 38.1157 53.827C37.9956 53.9571 37.9288 54.1278 37.9288 54.3049C37.9288 54.4821 37.9956 54.6527 38.1157 54.7829C38.2359 54.913 38.4006 54.9932 38.5772 55.0073H41.4948C41.6714 54.9932 41.8361 54.913 41.9563 54.7829C42.0764 54.6527 42.1432 54.4821 42.1432 54.3049C42.1432 54.1278 42.0764 53.9571 41.9563 53.827C41.8361 53.6968 41.6714 53.6167 41.4948 53.6025ZM20.4234 53.6025H17.5058C17.3292 53.6167 17.1644 53.6968 17.0443 53.827C16.9241 53.9571 16.8574 54.1278 16.8574 54.3049C16.8574 54.4821 16.9241 54.6527 17.0443 54.7829C17.1644 54.913 17.3292 54.9932 17.5058 55.0073H20.4234C20.5999 54.9932 20.7647 54.913 20.8849 54.7829C21.005 54.6527 21.0717 54.4821 21.0717 54.3049C21.0717 54.1278 21.005 53.9571 20.8849 53.827C20.7647 53.6968 20.5999 53.6167 20.4234 53.6025ZM36.5241 53.6025H22.4765C22.2902 53.6025 22.1115 53.6765 21.9798 53.8083C21.8481 53.94 21.7741 54.1186 21.7741 54.3049C21.7741 54.4912 21.8481 54.6699 21.9798 54.8016C22.1115 54.9333 22.2902 55.0073 22.4765 55.0073H28.0745V55.7097H25.286C25.0997 55.7097 24.9211 55.7837 24.7893 55.9154C24.6576 56.0471 24.5836 56.2258 24.5836 56.4121C24.5836 56.5983 24.6576 56.777 24.7893 56.9087C24.9211 57.0404 25.0997 57.1144 25.286 57.1144H34.0658C34.252 57.1144 34.4307 57.0404 34.5624 56.9087C34.6941 56.777 34.7681 56.5983 34.7681 56.4121C34.7681 56.2258 34.6941 56.0471 34.5624 55.9154C34.4307 55.7837 34.252 55.7097 34.0658 55.7097H30.9261V55.0073H36.5241C36.7104 55.0073 36.889 54.9333 37.0208 54.8016C37.1525 54.6699 37.2265 54.4912 37.2265 54.3049C37.2265 54.1186 37.1525 53.94 37.0208 53.8083C36.889 53.6765 36.7104 53.6025 36.5241 53.6025Z" fill="#1E83E6"/>
<path d="M37.5783 38.9199H21.4235C20.8661 38.9186 20.331 39.1387 19.9358 39.5319C19.5407 39.9251 19.3179 40.4591 19.3164 41.0165V43.812C19.3185 44.3693 19.5414 44.9029 19.9365 45.296C20.3315 45.689 20.8663 45.9094 21.4235 45.9086H37.5783C38.1356 45.9094 38.6704 45.689 39.0654 45.296C39.4604 44.9029 39.6834 44.3693 39.6855 43.812V41.0165C39.684 40.4591 39.4612 39.9251 39.066 39.5319C38.6709 39.1387 38.1357 38.9186 37.5783 38.9199ZM38.2807 43.812C38.28 43.9978 38.2057 44.1757 38.074 44.3067C37.9423 44.4377 37.7641 44.5111 37.5783 44.5109H21.4235C21.2378 44.5111 21.0595 44.4377 20.9279 44.3067C20.7962 44.1757 20.7219 43.9978 20.7212 43.812V41.0165C20.7219 40.8308 20.7962 40.6529 20.9279 40.5219C21.0595 40.3909 21.2378 40.3174 21.4235 40.3177H37.5783C37.7641 40.3174 37.9423 40.3909 38.074 40.5219C38.2057 40.6529 38.28 40.8308 38.2807 41.0165V43.812Z" fill="#2D4356"/>
<path d="M37.2272 26.5993C36.6379 26.596 36.0673 26.8057 35.6203 27.1897C35.1733 27.5737 34.8801 28.1062 34.7946 28.6893C34.7092 29.2723 34.8371 29.8666 35.155 30.3628C35.4729 30.8589 35.9594 31.2236 36.5248 31.3896V34.4028L35.3588 35.3967C35.3323 35.3531 35.3004 35.313 35.264 35.2772L33.3641 33.3843V26.1463C33.93 25.9776 34.4162 25.6108 34.7339 25.1131C35.0516 24.6153 35.1795 24.0198 35.0943 23.4355C35.009 22.8512 34.7163 22.3171 34.2696 21.9308C33.823 21.5446 33.2522 21.332 32.6617 21.332C32.0712 21.332 31.5004 21.5446 31.0537 21.9308C30.607 22.3171 30.3143 22.8512 30.2291 23.4355C30.1438 24.0198 30.2717 24.6153 30.5894 25.1131C30.9072 25.6108 31.3934 25.9776 31.9593 26.1463V33.6758C31.9594 33.768 31.9777 33.8592 32.0133 33.9442C32.0488 34.0292 32.1009 34.1063 32.1665 34.171L34.0664 36.0604V38.9191H35.4712V37.1421L37.6837 35.2562C37.7607 35.1901 37.8225 35.1083 37.8649 35.0161C37.9074 34.924 37.9294 34.8238 37.9295 34.7224V31.3896C38.4949 31.2236 38.9814 30.8589 39.2993 30.3628C39.6172 29.8666 39.7452 29.2723 39.6597 28.6893C39.5742 28.1062 39.281 27.5737 38.834 27.1897C38.3871 26.8057 37.8164 26.596 37.2272 26.5993ZM31.6081 23.8039C31.6067 23.5952 31.6673 23.3908 31.7822 23.2166C31.8972 23.0424 32.0612 22.9063 32.2536 22.8254C32.446 22.7446 32.6581 22.7227 32.8629 22.7626C33.0677 22.8025 33.2561 22.9022 33.4042 23.0493C33.5522 23.1964 33.6533 23.3841 33.6945 23.5887C33.7357 23.7932 33.7153 24.0054 33.6358 24.1984C33.5562 24.3913 33.4212 24.5563 33.2478 24.6723C33.0743 24.7884 32.8704 24.8504 32.6617 24.8504C32.3833 24.851 32.116 24.7411 31.9185 24.5449C31.721 24.3487 31.6094 24.0822 31.6081 23.8038V23.8039ZM37.2272 30.0937C37.0201 30.0926 36.818 30.0303 36.6464 29.9146C36.4747 29.7988 36.3411 29.6348 36.2626 29.4433C36.184 29.2518 36.1638 29.0412 36.2047 28.8383C36.2456 28.6353 36.3457 28.449 36.4924 28.3029C36.639 28.1567 36.8257 28.0572 37.0288 28.017C37.2318 27.9768 37.4423 27.9976 37.6336 28.0768C37.8249 28.1561 37.9884 28.2902 38.1036 28.4622C38.2187 28.6343 38.2804 28.8366 38.2807 29.0436C38.2806 29.1818 38.2532 29.3185 38.2001 29.4461C38.147 29.5736 38.0694 29.6894 37.9715 29.787C37.8737 29.8845 37.7576 29.9618 37.6299 30.0144C37.5021 30.067 37.3653 30.094 37.2272 30.0937V30.0937ZM26.3403 21.3561C25.751 21.3527 25.1804 21.5624 24.7334 21.9464C24.2864 22.3304 23.9932 22.863 23.9077 23.446C23.8223 24.029 23.9502 24.6233 24.2681 25.1195C24.586 25.6157 25.0725 25.9803 25.6379 26.1463V33.3843L23.7379 35.2772C23.7015 35.313 23.6697 35.3531 23.6431 35.3967L22.4772 34.4028V31.4739C23.0431 31.3051 23.5293 30.9384 23.847 30.4406C24.1647 29.9429 24.2926 29.3474 24.2074 28.7631C24.1221 28.1787 23.8294 27.6446 23.3827 27.2584C22.9361 26.8721 22.3653 26.6596 21.7748 26.6596C21.1843 26.6596 20.6135 26.8721 20.1668 27.2584C19.7201 27.6446 19.4274 28.1787 19.3422 28.7631C19.2569 29.3474 19.3848 29.9429 19.7025 30.4406C20.0203 30.9384 20.5065 31.3051 21.0724 31.4739V34.7224C21.0725 34.8238 21.0946 34.924 21.137 35.0161C21.1794 35.1083 21.2412 35.1901 21.3182 35.2562L23.5307 37.1421V38.9191H24.9355V36.0604L26.8354 34.171C26.901 34.1063 26.9531 34.0292 26.9887 33.9442C27.0242 33.8592 27.0426 33.768 27.0426 33.6758V26.1463C27.608 25.9803 28.0945 25.6157 28.4124 25.1195C28.7303 24.6233 28.8583 24.029 28.7728 23.446C28.6873 22.863 28.3941 22.3304 27.9471 21.9464C27.5001 21.5624 26.9295 21.3527 26.3403 21.3561ZM20.7212 29.1314C20.7205 28.9229 20.7817 28.7188 20.8971 28.5451C21.0124 28.3714 21.1767 28.2358 21.3692 28.1555C21.5616 28.0753 21.7736 28.0539 21.9782 28.0941C22.1828 28.1344 22.3708 28.2345 22.5185 28.3817C22.6662 28.5289 22.7669 28.7166 22.8078 28.9211C22.8488 29.1255 22.8281 29.3376 22.7485 29.5303C22.6688 29.723 22.5338 29.8877 22.3605 30.0037C22.1871 30.1196 21.9833 30.1815 21.7748 30.1815C21.6365 30.1821 21.4995 30.1555 21.3716 30.103C21.2437 30.0505 21.1275 29.9732 21.0295 29.8756C20.9316 29.778 20.854 29.662 20.801 29.5343C20.7481 29.4066 20.721 29.2697 20.7212 29.1314V29.1314ZM26.3403 24.8504C26.1331 24.8494 25.9308 24.787 25.7591 24.6711C25.5874 24.5552 25.4538 24.391 25.3753 24.1992C25.2968 24.0075 25.2769 23.7968 25.3181 23.5937C25.3593 23.3907 25.4597 23.2044 25.6067 23.0583C25.7537 22.9123 25.9407 22.8131 26.144 22.7733C26.3473 22.7335 26.5579 22.7548 26.7491 22.8346C26.9403 22.9143 27.1036 23.049 27.2184 23.2215C27.3331 23.394 27.3942 23.5967 27.3938 23.8039C27.3936 23.9418 27.3661 24.0784 27.313 24.2057C27.2599 24.333 27.1821 24.4486 27.0843 24.5458C26.9864 24.643 26.8703 24.72 26.7426 24.7723C26.6149 24.8245 26.4782 24.8511 26.3403 24.8504V24.8504ZM22.8284 43.1112H27.745C27.8371 43.1117 27.9284 43.0939 28.0136 43.059C28.0988 43.0241 28.1763 42.9727 28.2415 42.9077C28.3068 42.8428 28.3586 42.7656 28.394 42.6805C28.4293 42.5955 28.4475 42.5043 28.4475 42.4122C28.4475 42.3202 28.4293 42.229 28.394 42.1439C28.3586 42.0589 28.3068 41.9817 28.2415 41.9168C28.1763 41.8518 28.0988 41.8004 28.0136 41.7655C27.9284 41.7306 27.8371 41.7128 27.745 41.7133H22.8284C22.7363 41.7128 22.645 41.7306 22.5598 41.7655C22.4746 41.8004 22.3971 41.8518 22.3319 41.9168C22.2666 41.9817 22.2148 42.0589 22.1794 42.1439C22.1441 42.229 22.1259 42.3202 22.1259 42.4122C22.1259 42.5043 22.1441 42.5955 22.1794 42.6805C22.2148 42.7656 22.2666 42.8428 22.3319 42.9077C22.3971 42.9727 22.4746 43.0241 22.5598 43.059C22.645 43.0939 22.7363 43.1117 22.8284 43.1112ZM34.7688 43.1112H36.1735C36.2656 43.1117 36.3569 43.0939 36.4421 43.059C36.5273 43.0241 36.6048 42.9727 36.6701 42.9077C36.7353 42.8428 36.7871 42.7656 36.8225 42.6805C36.8578 42.5955 36.876 42.5043 36.876 42.4122C36.876 42.3202 36.8578 42.229 36.8225 42.1439C36.7871 42.0589 36.7353 41.9817 36.6701 41.9168C36.6048 41.8518 36.5273 41.8004 36.4421 41.7655C36.3569 41.7306 36.2656 41.7128 36.1735 41.7133H34.7688C34.6767 41.7128 34.5854 41.7306 34.5002 41.7655C34.415 41.8004 34.3376 41.8518 34.2723 41.9168C34.207 41.9817 34.1552 42.0589 34.1199 42.1439C34.0845 42.229 34.0663 42.3202 34.0663 42.4122C34.0663 42.5043 34.0845 42.5955 34.1199 42.6805C34.1552 42.7656 34.207 42.8428 34.2723 42.9077C34.3376 42.9727 34.415 43.0241 34.5002 43.059C34.5854 43.0939 34.6767 43.1117 34.7688 43.1112Z" fill="#1E83E6"/>
<path d="M17.6906 30.5956C17.8635 30.6682 18.0492 30.7055 18.2367 30.7055H18.2504C18.0276 30.2143 17.912 29.6813 17.9114 29.1419C17.3751 28.8294 16.9564 28.3493 16.7199 27.7754C16.4833 27.2016 16.4421 26.5658 16.6024 25.9662C16.7627 25.3666 17.1158 24.8363 17.6072 24.4571C18.0986 24.0779 18.701 23.8708 19.3217 23.8677C19.5916 23.8669 19.8601 23.9057 20.1187 23.983C20.0199 23.5895 19.9705 23.1853 19.9714 22.7797C19.9649 21.6358 20.3527 20.5246 21.0695 19.6332C21.7862 18.7417 22.7882 18.1244 23.9067 17.885C25.0253 17.6457 26.1921 17.799 27.2109 18.3191C28.2297 18.8392 29.0382 19.6944 29.5003 20.7407C29.9625 19.6944 30.771 18.8392 31.7898 18.3191C32.8086 17.799 33.9754 17.6457 35.094 17.885C36.2125 18.1244 37.2145 18.7417 37.9312 19.6332C38.648 20.5246 39.0357 21.6358 39.0293 22.7797C39.0302 23.1853 38.9807 23.5895 38.882 23.983C39.1406 23.9057 39.4091 23.8669 39.679 23.8677C40.3002 23.8707 40.9033 24.0781 41.3949 24.458C41.8866 24.8378 42.2395 25.3689 42.3992 25.9694C42.559 26.5698 42.5167 27.206 42.2788 27.78C42.0409 28.354 41.6208 28.8336 41.0831 29.145C41.069 29.6865 40.9389 30.2187 40.7014 30.7055H40.764C40.9515 30.7056 41.1372 30.6682 41.3101 30.5956C42.1498 30.2422 42.8529 29.6272 43.3149 28.842C43.7769 28.0568 43.973 27.1435 43.8741 26.2378C43.7751 25.3322 43.3864 24.4827 42.7657 23.8159C42.1451 23.149 41.3257 22.7003 40.4295 22.5367C40.3862 21.2894 39.9782 20.0821 39.2558 19.0644C38.5334 18.0467 37.5284 17.2631 36.3652 16.8108C35.202 16.3585 33.9317 16.2572 32.7115 16.5195C31.4913 16.7818 30.3749 17.3962 29.5003 18.2866C28.6258 17.3962 27.5094 16.7818 26.2892 16.5195C25.069 16.2572 23.7987 16.3584 22.6355 16.8108C21.4723 17.2631 20.4673 18.0467 19.7449 19.0644C19.0225 20.0821 18.6144 21.2894 18.5712 22.5367C17.675 22.7003 16.8556 23.149 16.2349 23.8159C15.6143 24.4827 15.2256 25.3322 15.1266 26.2378C15.0276 27.1435 15.2237 28.0568 15.6857 28.842C16.1477 29.6272 16.8509 30.2422 17.6906 30.5956Z" fill="#2D4356"/>
<path d="M30.5525 29.3076H28.4453V30.7054H30.5525V29.3076Z" fill="#2D4356"/>
<path d="M52.9315 50.7937H51.9731C51.9722 50.5627 51.914 50.3355 51.8036 50.1326C51.6932 49.9297 51.5342 49.7574 51.3407 49.6312L48.1245 47.5343C48.1138 47.5274 48.1021 47.5226 48.0913 47.516C48.1037 47.4466 48.1109 47.3763 48.1126 47.3057V27.036C48.1099 26.293 47.8126 25.5813 47.2859 25.0572C46.7592 24.5331 46.0461 24.2393 45.3031 24.2402H44.7396C44.9536 24.684 45.1082 25.154 45.1994 25.6381H45.3031C45.4871 25.6377 45.6694 25.6735 45.8396 25.7435C46.0098 25.8135 46.1645 25.9163 46.295 26.0462C46.4254 26.176 46.529 26.3302 46.5999 26.5C46.6707 26.6699 46.7074 26.852 46.7078 27.036V47.3057H12.2913V27.036C12.2923 26.6644 12.4408 26.3083 12.7042 26.0462C12.9676 25.784 13.3244 25.6372 13.6961 25.6381H13.7998C13.8909 25.154 14.0456 24.684 14.2596 24.2402H13.6961C12.953 24.2393 12.2399 24.5331 11.7132 25.0572C11.1865 25.5813 10.8892 26.293 10.8866 27.036V47.3057C10.8883 47.3763 10.8954 47.4466 10.9079 47.516C10.8971 47.5226 10.8853 47.5274 10.8747 47.5343L7.65846 49.6312C7.465 49.7574 7.30593 49.9297 7.19556 50.1326C7.08519 50.3355 7.02696 50.5627 7.02612 50.7937H6.0677C5.96778 50.7806 5.86622 50.789 5.76981 50.8183C5.6734 50.8477 5.58435 50.8972 5.50862 50.9637C5.43289 51.0302 5.37221 51.1121 5.33065 51.2039C5.28908 51.2957 5.26758 51.3953 5.26758 51.496C5.26758 51.5968 5.28908 51.6964 5.33065 51.7882C5.37221 51.88 5.43289 51.9619 5.50862 52.0284C5.58435 52.0949 5.6734 52.1444 5.76981 52.1737C5.86622 52.2031 5.96778 52.2115 6.0677 52.1984H52.9315C53.0314 52.2115 53.133 52.2031 53.2294 52.1737C53.3258 52.1444 53.4148 52.0949 53.4906 52.0284C53.5663 51.9619 53.627 51.88 53.6685 51.7882C53.7101 51.6964 53.7316 51.5968 53.7316 51.496C53.7316 51.3953 53.7101 51.2957 53.6685 51.2039C53.627 51.1121 53.5663 51.0302 53.4906 50.9637C53.4148 50.8972 53.3258 50.8477 53.2294 50.8183C53.133 50.789 53.0314 50.7806 52.9315 50.7937ZM11.6445 48.7037H47.3546L50.5604 50.7937H8.43873L11.6445 48.7037Z" fill="#2D4356"/>
</svg>
