<svg width="66" height="63" viewBox="0 0 66 63" fill="none" xmlns="http://www.w3.org/2000/svg">
<g clip-path="url(#clip0_1414_142)">
<path d="M14.313 20.3501L20.2299 23.5775C20.2512 23.5891 20.2732 23.5993 20.2957 23.6083C20.3003 23.6101 20.3049 23.6116 20.3095 23.6133C20.3266 23.6197 20.3441 23.6253 20.362 23.6301C20.368 23.6318 20.3741 23.6334 20.3802 23.6348C20.3972 23.6389 20.4145 23.642 20.4321 23.6446C20.4379 23.6454 20.4437 23.6466 20.4496 23.6472C20.4955 23.653 20.542 23.653 20.5879 23.6472C20.5938 23.6466 20.5996 23.6454 20.6054 23.6446C20.623 23.642 20.6403 23.6389 20.6573 23.6348C20.6634 23.6334 20.6695 23.6318 20.6755 23.6301C20.6934 23.6253 20.7109 23.6197 20.728 23.6133C20.7326 23.6116 20.7372 23.6101 20.7418 23.6083C20.7643 23.5993 20.7863 23.5891 20.8076 23.5775L26.7245 20.3501C26.8192 20.2984 26.8983 20.2222 26.9533 20.1294C27.0084 20.0367 27.0375 19.9308 27.0375 19.8229V12.8286C27.0375 12.8262 27.037 12.8215 27.037 12.8215C27.0365 12.7722 27.0298 12.7231 27.0172 12.6754C27.0157 12.6698 27.0139 12.6641 27.0123 12.6585C27.0069 12.6402 27.0005 12.6222 26.9933 12.6043C26.991 12.5987 26.989 12.593 26.9865 12.5874C26.977 12.5654 26.9661 12.5439 26.954 12.5231L26.952 12.5201C26.9399 12.5001 26.9266 12.4807 26.9123 12.4622C26.9085 12.4573 26.9044 12.4526 26.9005 12.4478C26.8881 12.4328 26.8752 12.4185 26.8617 12.4049C26.8578 12.401 26.854 12.397 26.85 12.3932C26.8141 12.3592 26.7742 12.3298 26.7312 12.3056C26.7288 12.3043 26.7268 12.3027 26.7245 12.3014L20.8063 9.07331C20.7181 9.02521 20.6192 9 20.5187 9C20.4183 9 20.3194 9.02521 20.2312 9.07331L14.313 12.3014C14.3106 12.3027 14.3086 12.3044 14.3063 12.3056C14.2633 12.3298 14.2234 12.3591 14.1876 12.3931C14.1835 12.397 14.1796 12.4011 14.1756 12.4051C14.1622 12.4186 14.1494 12.4328 14.1372 12.4477C14.1331 12.4526 14.129 12.4573 14.1252 12.4623C14.1108 12.4808 14.0976 12.5001 14.0855 12.5201L14.084 12.5224C14.0718 12.5432 14.0605 12.5654 14.051 12.5874C14.0485 12.593 14.0465 12.5987 14.0442 12.6043C14.037 12.6222 14.0306 12.6403 14.0252 12.6585C14.0235 12.6641 14.0218 12.6698 14.0203 12.6754C14.0077 12.7231 14.001 12.7722 14.0005 12.8215C14.0005 12.8215 14 12.8262 14 12.8286V19.8229C14 19.9308 14.0291 20.0367 14.0842 20.1294C14.1392 20.2222 14.2183 20.2984 14.313 20.3501ZM25.8363 19.4663L21.1193 22.0392V16.6684L25.8363 13.8811V19.4663ZM20.5187 10.2847L25.221 12.8495L20.5187 15.6281L15.8165 12.8495L20.5187 10.2847ZM15.2012 13.8811L19.9182 16.6684V22.0392L15.2012 19.4663V13.8811ZM37.969 47.3659C37.9632 47.3668 37.9497 47.369 37.9439 47.37C37.787 47.3988 37.6477 47.4884 37.5565 47.6193C37.4652 47.7501 37.4292 47.9117 37.4564 48.069C37.4835 48.2262 37.5716 48.3664 37.7015 48.459C37.8315 48.5517 37.9927 48.5893 38.1502 48.5638C38.3077 48.5383 38.4488 48.4517 38.5428 48.3227C38.6368 48.1938 38.6761 48.033 38.6523 47.8752C38.6284 47.7175 38.5433 47.5755 38.4153 47.4801C38.2874 47.3848 38.127 47.3437 37.969 47.3659ZM38.0706 48.0475L38.0577 47.9599L38.0718 48.0545L38.0706 48.0475ZM54.9995 12.8215C54.999 12.7722 54.9923 12.7231 54.9797 12.6754C54.9782 12.6698 54.9765 12.6641 54.9748 12.6585C54.9694 12.6402 54.963 12.6222 54.9558 12.6043C54.9535 12.5986 54.9515 12.593 54.949 12.5874C54.9395 12.5654 54.9286 12.5439 54.9165 12.5231L54.9145 12.5201C54.9024 12.5001 54.8891 12.4808 54.8748 12.4623C54.871 12.4573 54.8669 12.4526 54.8629 12.4477C54.8506 12.4328 54.8378 12.4186 54.8244 12.4051C54.8204 12.4011 54.8165 12.397 54.8124 12.3931C54.7766 12.3592 54.7368 12.3298 54.6938 12.3057C54.6914 12.3044 54.6894 12.3027 54.687 12.3014L48.7688 9.07331C48.6806 9.02521 48.5817 9 48.4813 9C48.3808 9 48.2819 9.02521 48.1937 9.07331L42.2755 12.3014C42.2731 12.3027 42.271 12.3044 42.2687 12.3057C42.2257 12.3298 42.186 12.3591 42.1503 12.393C42.146 12.397 42.1421 12.4012 42.138 12.4053C42.1246 12.4187 42.1119 12.4328 42.0998 12.4476C42.0957 12.4525 42.0915 12.4573 42.0876 12.4624C42.0733 12.4808 42.0601 12.5001 42.048 12.52L42.0465 12.5224C42.0344 12.5432 42.023 12.5654 42.0135 12.5874C42.011 12.593 42.009 12.5987 42.0067 12.6043C41.9995 12.6222 41.9931 12.6403 41.9877 12.6585C41.9861 12.6641 41.9843 12.6698 41.9828 12.6754C41.9702 12.7231 41.9635 12.7722 41.963 12.8215C41.963 12.8215 41.9625 12.8262 41.9625 12.8286V19.8229C41.9625 19.9308 41.9916 20.0367 42.0467 20.1294C42.1017 20.2222 42.1808 20.2984 42.2755 20.3501L48.1924 23.5775C48.2137 23.5891 48.2357 23.5993 48.2582 23.6083C48.2628 23.6101 48.2674 23.6116 48.272 23.6133C48.2891 23.6197 48.3066 23.6253 48.3245 23.6301C48.3305 23.6318 48.3366 23.6334 48.3427 23.6348C48.3597 23.6389 48.377 23.642 48.3946 23.6446C48.4005 23.6454 48.4062 23.6466 48.4121 23.6472C48.458 23.653 48.5045 23.653 48.5504 23.6472C48.5563 23.6466 48.5621 23.6454 48.5679 23.6446C48.5855 23.642 48.6028 23.6389 48.6198 23.6348C48.6259 23.6334 48.632 23.6318 48.638 23.6301C48.6559 23.6253 48.6734 23.6197 48.6905 23.6133C48.6951 23.6116 48.6997 23.6101 48.7043 23.6083C48.7268 23.5993 48.7488 23.5891 48.7701 23.5775L54.687 20.3501C54.7817 20.2984 54.8608 20.2222 54.9158 20.1294C54.9709 20.0367 55 19.9308 55 19.8229V12.8286C55 12.8262 54.9995 12.8215 54.9995 12.8215ZM47.8807 22.0392L43.1637 19.4663V13.8811L47.8807 16.6684V22.0392ZM48.4813 15.6281L43.779 12.8495L48.4813 10.2847L53.1835 12.8495L48.4813 15.6281ZM53.7988 19.4663L49.0818 22.0392V16.6684L53.7988 13.8811V19.4663ZM15.8402 32.5435C15.852 32.5435 15.864 32.5432 15.876 32.5425C15.9547 32.5378 16.0318 32.5177 16.1028 32.4833C16.1737 32.4489 16.2372 32.4008 16.2896 32.3419C16.342 32.2829 16.3823 32.2143 16.4081 32.1397C16.434 32.0652 16.4449 31.9863 16.4403 31.9076C16.4401 31.9047 16.4394 31.8938 16.4392 31.8909C16.427 31.7327 16.3527 31.5857 16.2325 31.4821C16.1123 31.3785 15.956 31.3267 15.7977 31.338C15.6394 31.3493 15.492 31.4227 15.3877 31.5424C15.2834 31.662 15.2307 31.818 15.2411 31.9764L15.8407 31.9429L15.2412 31.9781C15.2502 32.131 15.3172 32.2746 15.4285 32.3797C15.5399 32.4847 15.6871 32.5433 15.8402 32.5435ZM16.0232 27.7604C16.1006 27.7758 16.1802 27.7757 16.2576 27.7602C16.3349 27.7447 16.4085 27.7141 16.474 27.6701C16.5395 27.6262 16.5957 27.5697 16.6394 27.504C16.683 27.4383 16.7133 27.3647 16.7285 27.2872L16.7307 27.2761C16.7604 27.1197 16.7269 26.9579 16.6374 26.8263C16.5479 26.6946 16.4098 26.6038 16.2534 26.574C16.0971 26.5441 15.9352 26.5775 15.8035 26.6669C15.6717 26.7562 15.5809 26.8943 15.5509 27.0506L16.1392 27.1712L15.55 27.0551C15.5347 27.1325 15.5349 27.2121 15.5504 27.2895C15.566 27.3668 15.5966 27.4403 15.6405 27.5058C15.6844 27.5713 15.7409 27.6275 15.8065 27.6712C15.8722 27.7149 15.9458 27.7452 16.0232 27.7604ZM15.2398 29.4955C15.2396 29.4984 15.2389 29.5093 15.2388 29.5122C15.2294 29.6713 15.2836 29.8275 15.3894 29.9467C15.4952 30.0658 15.644 30.138 15.803 30.1475C15.8151 30.1482 15.827 30.1485 15.8389 30.1485C15.9566 30.1492 16.0719 30.1155 16.1707 30.0517C16.2696 29.9878 16.3476 29.8964 16.3953 29.7889C16.443 29.6813 16.4582 29.5621 16.4392 29.446C16.4201 29.3299 16.3676 29.2218 16.2881 29.1351C16.2085 29.0484 16.1054 28.9868 15.9913 28.9578C15.8773 28.9289 15.7572 28.9338 15.646 28.9721C15.5347 29.0103 15.437 29.0802 15.3648 29.1732C15.2927 29.2662 15.2493 29.3782 15.2398 29.4955ZM30.9865 11.8729C31.071 11.8738 31.1547 11.8568 31.2322 11.8232C31.3096 11.7895 31.3792 11.7399 31.4362 11.6776C31.4932 11.6152 31.5365 11.5416 31.5631 11.4614C31.5898 11.3813 31.5993 11.2964 31.5909 11.2123C31.5826 11.1282 31.5566 11.0469 31.5147 10.9735C31.4728 10.9002 31.416 10.8364 31.3478 10.7865C31.2796 10.7366 31.2017 10.7016 31.1191 10.6839C31.0365 10.6661 30.9511 10.6659 30.8685 10.6833C30.8628 10.6845 30.8495 10.6876 30.8438 10.689C30.7011 10.7238 30.5762 10.8097 30.4925 10.9304C30.4089 11.0512 30.3724 11.1984 30.39 11.3442C30.4075 11.49 30.4779 11.6244 30.5879 11.7218C30.6978 11.8192 30.8396 11.873 30.9865 11.8729ZM40.2191 46.8531C40.0665 46.8969 39.9374 46.9995 39.8601 47.1383C39.7829 47.2771 39.7637 47.4408 39.8069 47.5937C39.8502 47.7465 39.9522 47.876 40.0906 47.9539C40.2291 48.0317 40.3928 48.0515 40.5458 48.0089C40.5513 48.0074 40.5644 48.0036 40.5698 48.0019C40.7216 47.9549 40.8486 47.8497 40.923 47.7093C40.9973 47.5689 41.0131 47.4048 40.9667 47.2528C40.9203 47.1008 40.8156 46.9735 40.6755 46.8985C40.5354 46.8236 40.3713 46.8073 40.2191 46.8531ZM40.2886 12.1351C40.2947 12.137 40.3086 12.1411 40.3148 12.1427C40.4688 12.1839 40.6328 12.1627 40.7712 12.0837C40.9097 12.0047 41.0113 11.8743 41.0542 11.7208C41.0971 11.5673 41.0778 11.4031 41.0003 11.2638C40.9229 11.1244 40.7937 11.0213 40.6407 10.9767C40.4877 10.932 40.3232 10.9495 40.1831 11.0254C40.0429 11.1012 39.9383 11.2293 39.8919 11.3818C39.8456 11.5343 39.8612 11.6989 39.9355 11.8399C40.0097 11.9809 40.1366 12.087 40.2886 12.1351ZM35.7341 11.4108C35.7401 11.411 35.7461 11.4111 35.7521 11.4111C35.9098 11.411 36.0612 11.3488 36.1735 11.2381C36.2858 11.1273 36.35 10.9769 36.3523 10.8191C36.3545 10.6614 36.2947 10.5092 36.1856 10.3952C36.0766 10.2813 35.9271 10.2148 35.7694 10.2101L35.7615 10.2099C35.6828 10.2078 35.6046 10.2211 35.5312 10.2493C35.4577 10.2774 35.3906 10.3198 35.3335 10.3739C35.2765 10.4281 35.2307 10.4929 35.1988 10.5648C35.1668 10.6367 35.1494 10.7141 35.1475 10.7927C35.1437 10.9524 35.2033 11.107 35.3132 11.2229C35.4231 11.3387 35.5745 11.4063 35.7341 11.4108ZM38.0377 11.6276C38.1942 11.6537 38.3547 11.6167 38.484 11.5249C38.6134 11.4331 38.7012 11.2938 38.7282 11.1374C38.7552 10.9811 38.7193 10.8204 38.6283 10.6905C38.5372 10.5606 38.3985 10.4719 38.2423 10.4439C38.2366 10.4429 38.223 10.4407 38.2172 10.4399C38.06 10.4168 37.9001 10.4569 37.7724 10.5515C37.6448 10.646 37.5598 10.7873 37.536 10.9444C37.5123 11.1015 37.5518 11.2615 37.6458 11.3896C37.7398 11.5176 37.8808 11.6032 38.0377 11.6276ZM33.3491 11.4901C33.3668 11.4901 33.3846 11.4894 33.4026 11.4878C33.4087 11.4872 33.4228 11.4858 33.4289 11.4851C33.5839 11.465 33.725 11.3854 33.8225 11.2632C33.9199 11.141 33.966 10.9857 33.951 10.8301C33.9361 10.6745 33.8612 10.5309 33.7423 10.4294C33.6234 10.328 33.4697 10.2768 33.3137 10.2866C33.1578 10.2963 33.0117 10.3664 32.9064 10.4818C32.801 10.5973 32.7447 10.7492 32.7493 10.9054C32.7539 11.0617 32.819 11.21 32.931 11.3191C33.0429 11.4282 33.1928 11.4895 33.3491 11.4901ZM28.6853 12.5591C28.7733 12.5606 28.8606 12.5428 28.941 12.507C29.0215 12.4712 29.093 12.4182 29.1508 12.3517C29.2085 12.2853 29.251 12.207 29.2752 12.1224C29.2995 12.0378 29.3049 11.9488 29.2911 11.8619C29.2773 11.775 29.2446 11.6921 29.1953 11.6192C29.146 11.5462 29.0814 11.4849 29.0059 11.4396C28.9304 11.3943 28.8459 11.3661 28.7584 11.357C28.6708 11.3479 28.5823 11.358 28.4991 11.3867C28.4948 11.3883 28.4831 11.3925 28.4788 11.3942C28.3468 11.4431 28.2361 11.5369 28.1661 11.6591C28.0961 11.7813 28.0712 11.9242 28.0958 12.0628C28.1204 12.2015 28.1929 12.3271 28.3006 12.4178C28.4084 12.5085 28.5445 12.5585 28.6853 12.5591ZM15.5573 34.4346C15.584 34.5704 15.6571 34.6926 15.7641 34.7803C15.8711 34.868 16.0053 34.9158 16.1436 34.9155C16.2274 34.9155 16.3103 34.898 16.387 34.8641C16.4637 34.8302 16.5325 34.7807 16.5889 34.7187C16.6454 34.6568 16.6883 34.5837 16.7149 34.5042C16.7415 34.4247 16.7512 34.3405 16.7434 34.2571C16.7356 34.1736 16.7105 34.0927 16.6697 34.0195C16.6288 33.9463 16.5732 33.8824 16.5062 33.8319C16.4393 33.7815 16.3626 33.7455 16.281 33.7264C16.1993 33.7073 16.1146 33.7054 16.0323 33.7209C15.9548 33.7357 15.881 33.7656 15.8151 33.8089C15.7492 33.8522 15.6925 33.9081 15.6482 33.9734C15.6038 34.0386 15.5728 34.1119 15.5569 34.1892C15.5409 34.2664 15.5403 34.346 15.5551 34.4235L15.5573 34.4346ZM35.6556 47.5881L35.6475 47.5883C35.4898 47.593 35.3404 47.6596 35.2314 47.7735C35.1224 47.8875 35.0626 48.0398 35.0649 48.1974C35.0672 48.3551 35.1314 48.5056 35.2437 48.6163C35.356 48.727 35.5073 48.7892 35.665 48.7893C35.6711 48.7893 35.6772 48.7892 35.6833 48.789L35.6733 48.1884L35.691 48.7888C35.8501 48.784 36.0008 48.7162 36.11 48.6003C36.2192 48.4844 36.2779 48.3299 36.2732 48.1708C36.2685 48.0116 36.2008 47.8609 36.085 47.7516C35.9692 47.6423 35.8148 47.5835 35.6556 47.5881ZM52.4317 24.1375C52.3553 24.1572 52.2835 24.1917 52.2205 24.2391C52.1575 24.2866 52.1044 24.3459 52.0643 24.4138C52.0242 24.4817 51.9979 24.5569 51.9868 24.635C51.9758 24.7131 51.9802 24.7926 51.9999 24.869C52.001 24.8732 52.0041 24.8852 52.0054 24.8894C52.041 25.016 52.1169 25.1275 52.2216 25.2071C52.3263 25.2867 52.4541 25.33 52.5856 25.3304C52.678 25.3303 52.7691 25.3089 52.8519 25.2678C52.9346 25.2267 53.0067 25.1671 53.0626 25.0935C53.1186 25.02 53.1567 24.9345 53.1742 24.8438C53.1917 24.7531 53.188 24.6596 53.1634 24.5705L52.5815 24.7191L53.163 24.5693C53.1434 24.4929 53.1089 24.4212 53.0615 24.3581C53.0141 24.2951 52.9547 24.242 52.8868 24.2019C52.8189 24.1618 52.7437 24.1355 52.6656 24.1244C52.5875 24.1134 52.508 24.1179 52.4317 24.1375ZM53.7988 29.4599C53.7987 29.3813 53.7831 29.3034 53.7528 29.2308C53.7226 29.1582 53.6783 29.0923 53.6225 29.0368C53.5667 28.9814 53.5005 28.9375 53.4276 28.9078C53.3548 28.878 53.2769 28.8629 53.1982 28.8633C53.0385 28.8642 52.8857 28.9283 52.7731 29.0416C52.6606 29.1549 52.5975 29.3082 52.5976 29.4679C52.5976 29.4748 52.5977 29.4817 52.598 29.4885C52.5978 29.495 52.5977 29.5015 52.5977 29.5079C52.5977 29.6672 52.6609 29.82 52.7736 29.9326C52.8862 30.0453 53.039 30.1085 53.1982 30.1085C53.3575 30.1085 53.5103 30.0453 53.6229 29.9326C53.7355 29.82 53.7988 29.6672 53.7988 29.5079V29.5C53.7988 29.4943 53.7987 29.4888 53.7986 29.4832C53.7987 29.4782 53.7988 29.473 53.7988 29.4679V29.4599ZM31.0554 47.1523C31.0492 47.1508 31.0352 47.1476 31.029 47.1463C30.8727 47.1143 30.7102 47.1453 30.5766 47.2325C30.443 47.3196 30.3492 47.4559 30.3155 47.6118C30.2818 47.7677 30.311 47.9306 30.3967 48.0651C30.4823 48.1997 30.6176 48.295 30.7731 48.3304C30.9286 48.3659 31.0918 48.3385 31.2273 48.2544C31.3628 48.1702 31.4596 48.036 31.4968 47.8809C31.5339 47.7258 31.5084 47.5623 31.4258 47.4259C31.3432 47.2895 31.2101 47.1912 31.0554 47.1523ZM30.8957 47.8112L30.8966 47.8066L30.9139 47.736L30.8957 47.8112ZM33.3349 47.5161C33.1772 47.4992 33.0192 47.5455 32.8954 47.6448C32.7717 47.744 32.6922 47.8882 32.6744 48.0459C32.6566 48.2035 32.7019 48.3618 32.8004 48.4861C32.8989 48.6105 33.0425 48.6909 33.2001 48.7097C33.2062 48.7104 33.2203 48.7118 33.2264 48.7123C33.2444 48.714 33.2622 48.7147 33.2799 48.7147C33.4341 48.7143 33.5823 48.6545 33.6937 48.5478C33.8051 48.4411 33.8712 48.2957 33.8783 48.1416C33.8853 47.9875 33.8329 47.8366 33.7317 47.7201C33.6306 47.6037 33.4885 47.5306 33.3349 47.5161ZM36.1969 25.1619V24.4951C36.1969 24.3358 36.1336 24.183 36.021 24.0704C35.9083 23.9578 35.7556 23.8945 35.5963 23.8945C35.437 23.8945 35.2843 23.9578 35.1716 24.0704C35.059 24.183 34.9957 24.3358 34.9957 24.4951V25.0319H34.3175V24.4951C34.3175 24.3358 34.2542 24.183 34.1416 24.0704C34.029 23.9578 33.8762 23.8945 33.7169 23.8945C33.5576 23.8945 33.4049 23.9578 33.2923 24.0704C33.1796 24.183 33.1163 24.3358 33.1163 24.4951V25.0319H31.9465C31.7872 25.0319 31.6345 25.0952 31.5219 25.2078C31.4092 25.3205 31.3459 25.4732 31.3459 25.6325C31.3459 25.7918 31.4092 25.9446 31.5219 26.0572C31.6345 26.1698 31.7872 26.2331 31.9465 26.2331H32.1788V32.7668H31.9465C31.7872 32.7668 31.6345 32.8301 31.5219 32.9427C31.4092 33.0554 31.3459 33.2081 31.3459 33.3674C31.3459 33.5267 31.4092 33.6795 31.5219 33.7921C31.6345 33.9047 31.7872 33.968 31.9465 33.968H33.1163V34.5049C33.1163 34.6641 33.1796 34.8169 33.2923 34.9295C33.4049 35.0422 33.5576 35.1054 33.7169 35.1054C33.8762 35.1054 34.029 35.0422 34.1416 34.9295C34.2542 34.8169 34.3175 34.6641 34.3175 34.5049V33.968H34.9957V34.5049C34.9957 34.6641 35.059 34.8169 35.1716 34.9295C35.2843 35.0422 35.437 35.1054 35.5963 35.1054C35.7556 35.1054 35.9083 35.0422 36.021 34.9295C36.1336 34.8169 36.1969 34.6641 36.1969 34.5049V33.838C36.6232 33.6842 36.9919 33.4027 37.2526 33.032C37.5133 32.6612 37.6535 32.2191 37.6541 31.7659V31.1015C37.6541 30.8014 37.5927 30.5044 37.4735 30.2289C37.3542 29.9535 37.1798 29.7054 36.961 29.5C37.1798 29.2946 37.3542 29.0465 37.4735 28.771C37.5927 28.4955 37.6541 28.1986 37.6541 27.8984V27.2341C37.6535 26.7808 37.5133 26.3387 37.2526 25.968C36.9919 25.5972 36.6232 25.3157 36.1969 25.1619ZM36.4529 31.7659C36.4526 32.0312 36.347 32.2857 36.1594 32.4733C35.9717 32.661 35.7173 32.7665 35.4519 32.7668H33.38V30.1006H35.4519C35.7173 30.1009 35.9717 30.2064 36.1594 30.3941C36.347 30.5817 36.4526 30.8361 36.4529 31.1015V31.7659ZM36.4529 27.8984C36.4526 28.1638 36.347 28.4182 36.1594 28.6059C35.9717 28.7935 35.7173 28.8991 35.4519 28.8994H33.38V26.2331H35.4519C35.7173 26.2334 35.9717 26.339 36.1594 26.5266C36.347 26.7143 36.4526 26.9687 36.4529 27.2341V27.8984ZM54.9797 39.0239C54.9782 39.0182 54.9765 39.0126 54.9748 39.0069C54.9694 38.9887 54.963 38.9706 54.9558 38.9527C54.9535 38.9471 54.9515 38.9415 54.949 38.9359C54.9395 38.9138 54.9286 38.8923 54.9165 38.8715L54.9145 38.8685C54.9024 38.8485 54.8891 38.8292 54.8748 38.8107C54.871 38.8058 54.8669 38.8011 54.8629 38.7962C54.8506 38.7812 54.8378 38.767 54.8243 38.7535C54.8203 38.7495 54.8165 38.7455 54.8124 38.7416C54.7766 38.7076 54.7367 38.6782 54.6936 38.6541C54.6913 38.6528 54.6893 38.6511 54.687 38.6498L48.7688 35.4218C48.6806 35.3737 48.5817 35.3485 48.4813 35.3485C48.3808 35.3485 48.2819 35.3737 48.1937 35.4218L42.2755 38.6498C42.2731 38.6511 42.2711 38.6528 42.2687 38.6542C42.2258 38.6783 42.186 38.7076 42.1503 38.7414C42.146 38.7454 42.1421 38.7496 42.138 38.7537C42.1246 38.7671 42.1119 38.7813 42.0997 38.7961C42.0957 38.801 42.0916 38.8058 42.0877 38.8108C42.0734 38.8293 42.0601 38.8485 42.048 38.8685L42.0465 38.8709C42.0344 38.8916 42.023 38.9138 42.0135 38.9359C42.011 38.9415 42.009 38.9471 42.0067 38.9527C41.9995 38.9706 41.9931 38.9887 41.9877 39.0069C41.9861 39.0126 41.9843 39.0182 41.9828 39.0239C41.9702 39.0716 41.9635 39.1206 41.963 39.1699C41.963 39.1699 41.9625 39.1747 41.9625 39.1771V46.1713C41.9625 46.2792 41.9916 46.3851 42.0467 46.4779C42.1017 46.5707 42.1808 46.6469 42.2755 46.6986L48.1924 49.9259C48.2137 49.9375 48.2357 49.9478 48.2582 49.9567C48.2628 49.9585 48.2674 49.96 48.272 49.9617C48.2891 49.9681 48.3066 49.9738 48.3245 49.9786C48.3305 49.9802 48.3366 49.9818 48.3427 49.9833C48.3597 49.9873 48.377 49.9905 48.3946 49.993C48.4005 49.9939 48.4062 49.995 48.4121 49.9957C48.458 50.0014 48.5045 50.0014 48.5504 49.9957C48.5563 49.995 48.5621 49.9939 48.5679 49.993C48.5855 49.9905 48.6028 49.9873 48.6198 49.9833C48.6259 49.9818 48.632 49.9802 48.638 49.9786C48.6559 49.9738 48.6734 49.9681 48.6905 49.9617C48.6951 49.96 48.6997 49.9585 48.7043 49.9567C48.7268 49.9478 48.7488 49.9375 48.7701 49.9259L54.687 46.6986C54.7817 46.6469 54.8608 46.5707 54.9158 46.4779C54.9709 46.3851 55 46.2792 55 46.1713V39.1771C55 39.1746 54.9995 39.1699 54.9995 39.1699C54.999 39.1206 54.9923 39.0716 54.9797 39.0239ZM47.8807 48.3877L43.1637 45.8148V40.2296L47.8807 43.017V48.3877ZM48.4813 41.9766L43.779 39.198L48.4813 36.6331L53.1835 39.198L48.4813 41.9766ZM53.7988 45.8148L49.0818 48.3877V43.017L53.7988 40.2296V45.8148ZM53.6371 26.991C53.6162 26.834 53.5339 26.6919 53.4081 26.5956C53.2824 26.4994 53.1237 26.4571 52.9667 26.4779C52.8486 26.4925 52.7374 26.5417 52.6472 26.6194C52.557 26.6971 52.4919 26.7998 52.46 26.9145C52.4281 27.0291 52.4309 27.1507 52.468 27.2638C52.5051 27.3769 52.5749 27.4765 52.6685 27.55C52.7622 27.6235 52.8755 27.6676 52.9942 27.6767C53.1129 27.6859 53.2316 27.6597 53.3354 27.6014C53.4392 27.5432 53.5235 27.4555 53.5775 27.3494C53.6315 27.2433 53.6529 27.1236 53.639 27.0054L53.6371 26.991ZM27.0172 39.0239C27.0157 39.0182 27.0139 39.0126 27.0123 39.0069C27.0069 38.9887 27.0005 38.9706 26.9933 38.9527C26.991 38.9471 26.9889 38.9415 26.9865 38.9359C26.977 38.9138 26.9661 38.8923 26.954 38.8715L26.952 38.8685C26.9399 38.8485 26.9266 38.8292 26.9122 38.8107C26.9085 38.8058 26.9044 38.8011 26.9005 38.7963C26.8881 38.7812 26.8752 38.7669 26.8617 38.7533C26.8578 38.7494 26.854 38.7455 26.85 38.7417C26.8141 38.7076 26.7742 38.6782 26.731 38.654C26.7287 38.6527 26.7268 38.6511 26.7245 38.6498L20.8063 35.4218C20.7181 35.3737 20.6192 35.3485 20.5187 35.3485C20.4183 35.3485 20.3194 35.3737 20.2312 35.4218L14.313 38.6498C14.3106 38.6511 14.3085 38.6529 14.3061 38.6542C14.2633 38.6783 14.2235 38.7076 14.1878 38.7414C14.1836 38.7454 14.1795 38.7497 14.1753 38.7538C14.1621 38.7672 14.1494 38.7812 14.1373 38.796C14.1332 38.8009 14.129 38.8058 14.1251 38.8109C14.1108 38.8293 14.0976 38.8485 14.0855 38.8685L14.084 38.8709C14.0718 38.8916 14.0605 38.9138 14.051 38.9359C14.0485 38.9415 14.0465 38.9471 14.0442 38.9527C14.037 38.9706 14.0306 38.9887 14.0252 39.0069C14.0235 39.0126 14.0218 39.0182 14.0203 39.0239C14.0077 39.0716 14.001 39.1206 14.0005 39.1699C14.0005 39.1699 14 39.1747 14 39.1771V46.1713C14 46.2792 14.0291 46.3851 14.0842 46.4779C14.1392 46.5707 14.2183 46.6469 14.313 46.6986L20.2299 49.9259C20.2512 49.9375 20.2732 49.9478 20.2957 49.9567C20.3003 49.9585 20.3049 49.96 20.3095 49.9617C20.3266 49.9681 20.3441 49.9738 20.362 49.9786C20.368 49.9802 20.3741 49.9818 20.3802 49.9833C20.3972 49.9873 20.4145 49.9905 20.4321 49.993C20.4379 49.9939 20.4437 49.995 20.4496 49.9957C20.4955 50.0014 20.542 50.0014 20.5879 49.9957C20.5938 49.995 20.5996 49.9939 20.6054 49.993C20.623 49.9905 20.6403 49.9873 20.6573 49.9833C20.6634 49.9818 20.6695 49.9802 20.6755 49.9786C20.6934 49.9738 20.7109 49.9681 20.728 49.9617C20.7326 49.96 20.7372 49.9585 20.7418 49.9567C20.7643 49.9478 20.7863 49.9375 20.8076 49.9259L26.7245 46.6986C26.8192 46.6469 26.8983 46.5707 26.9533 46.4779C27.0084 46.3851 27.0375 46.2792 27.0375 46.1713V39.1771C27.0375 39.1746 27.037 39.1699 27.037 39.1699C27.0365 39.1206 27.0298 39.0716 27.0172 39.0239ZM19.9182 48.3877L15.2012 45.8148V40.2296L19.9182 43.017V48.3877ZM20.5187 41.9766L15.8165 39.198L20.5187 36.6331L25.221 39.198L20.5187 41.9766ZM25.8363 45.8148L21.1193 48.3877V43.017L25.8363 40.2296V45.8148ZM17.315 25.0354C17.3653 24.8843 17.3535 24.7195 17.2823 24.5771C17.211 24.4347 17.0861 24.3264 16.9351 24.276C16.784 24.2256 16.6191 24.2373 16.4767 24.3085C16.3342 24.3797 16.2259 24.5045 16.1754 24.6555L16.1721 24.6659C16.1432 24.7557 16.1359 24.8512 16.1508 24.9444C16.1657 25.0377 16.2024 25.1261 16.258 25.2025C16.3135 25.2788 16.3862 25.341 16.4703 25.384C16.5544 25.4269 16.6475 25.4494 16.7419 25.4497C16.8687 25.4492 16.9923 25.409 17.0951 25.3347C17.1979 25.2604 17.2748 25.1557 17.315 25.0354ZM43.6107 29.5C43.6107 27.698 43.0764 25.9366 42.0753 24.4383C41.0742 22.9401 39.6513 21.7724 37.9865 21.0828C36.3217 20.3932 34.4899 20.2128 32.7226 20.5643C30.9553 20.9159 29.3319 21.7836 28.0578 23.0577C26.7836 24.3319 25.9159 25.9553 25.5644 27.7226C25.2128 29.4899 25.3933 31.3217 26.0828 32.9865C26.7724 34.6512 27.9401 36.0741 29.4384 37.0752C30.9366 38.0763 32.6981 38.6107 34.5 38.6107C36.9155 38.6079 39.2312 37.6472 40.9392 35.9392C42.6472 34.2312 43.608 31.9154 43.6107 29.5ZM34.5 37.4095C32.9356 37.4095 31.4064 36.9456 30.1057 36.0765C28.805 35.2074 27.7912 33.9721 27.1926 32.5268C26.5939 31.0815 26.4373 29.4912 26.7425 27.9569C27.0477 26.4226 27.801 25.0133 28.9071 23.9071C30.0133 22.8009 31.4226 22.0476 32.9569 21.7424C34.4912 21.4372 36.0816 21.5939 37.5268 22.1925C38.9721 22.7912 40.2074 23.805 41.0765 25.1057C41.9456 26.4064 42.4095 27.9356 42.4095 29.5C42.4071 31.597 41.5731 33.6074 40.0902 35.0902C38.6074 36.573 36.597 37.4071 34.5 37.4095ZM52.7415 33.6602C52.6261 33.6295 52.5042 33.6337 52.3912 33.6721C52.2781 33.7105 52.1789 33.7815 52.1061 33.8762C52.0333 33.9708 51.9902 34.0849 51.982 34.204C51.9739 34.3232 52.0012 34.442 52.0605 34.5457C52.1198 34.6493 52.2084 34.7332 52.3152 34.7866C52.422 34.84 52.5422 34.8606 52.6607 34.8459C52.7792 34.8312 52.8907 34.7817 52.9811 34.7037C53.0716 34.6258 53.137 34.5228 53.169 34.4078C53.1698 34.4051 53.1725 34.3946 53.1732 34.3919C53.213 34.2376 53.1898 34.0738 53.1089 33.9366C53.0279 33.7994 52.8958 33.7 52.7415 33.6602ZM53.1257 31.2949C52.9678 31.2741 52.8081 31.3168 52.6817 31.4137C52.5552 31.5106 52.4725 31.6536 52.4515 31.8115L52.4497 31.826C52.4309 31.9838 52.4755 32.1427 52.5736 32.2677C52.6718 32.3927 52.8155 32.4738 52.9732 32.493C53.131 32.5123 53.29 32.4682 53.4153 32.3705C53.5407 32.2728 53.6222 32.1293 53.642 31.9716L53.0469 31.8904L53.6423 31.9692C53.6632 31.8113 53.6205 31.6515 53.5236 31.5251C53.4267 31.3986 53.2836 31.3158 53.1257 31.2949ZM28.826 46.494C28.8209 46.492 28.8081 46.4874 28.8029 46.4856C28.6517 46.4344 28.4865 46.4449 28.3431 46.5149C28.1996 46.5849 28.0896 46.7086 28.0369 46.8592C27.9841 47.0098 27.993 47.1752 28.0615 47.3193C28.13 47.4634 28.2526 47.5747 28.4027 47.629C28.5527 47.6832 28.7182 47.6761 28.863 47.609C29.0078 47.542 29.1203 47.4205 29.1761 47.271C29.2319 47.1215 29.2264 46.956 29.1608 46.8105C29.0953 46.665 28.975 46.5513 28.826 46.494ZM28.5763 47.1599L28.5794 47.1512L28.6152 47.0563L28.5763 47.1599Z" fill="#2D4356"/>
</g>
<path d="M21.7266 2.35714C21.9597 2.35714 22.1875 2.28802 22.3813 2.15852C22.5752 2.02902 22.7262 1.84495 22.8154 1.62959C22.9046 1.41424 22.928 1.17726 22.8825 0.948644C22.837 0.720024 22.7248 0.510022 22.5599 0.345196C22.3951 0.18037 22.1851 0.0681219 21.9565 0.0226465C21.7279 -0.022829 21.4909 0.000510659 21.2755 0.0897139C21.0602 0.178917 20.8761 0.329978 20.7466 0.523793C20.6171 0.717608 20.548 0.945473 20.548 1.17857C20.5483 1.49104 20.6726 1.79061 20.8936 2.01155C21.1145 2.2325 21.4141 2.35679 21.7266 2.35714ZM21.7266 0.589286C21.8431 0.589286 21.957 0.623847 22.054 0.688599C22.1509 0.75335 22.2264 0.845384 22.271 0.953062C22.3156 1.06074 22.3273 1.17923 22.3045 1.29354C22.2818 1.40785 22.2257 1.51285 22.1433 1.59526C22.0608 1.67767 21.9558 1.7338 21.8415 1.75653C21.7272 1.77927 21.6087 1.7676 21.5011 1.723C21.3934 1.6784 21.3013 1.60287 21.2366 1.50596C21.1718 1.40905 21.1373 1.29512 21.1373 1.17857C21.1374 1.02233 21.1996 0.872533 21.31 0.762054C21.4205 0.651575 21.5703 0.58944 21.7266 0.589286ZM52.3694 18.8571C52.214 18.8571 52.0621 18.9032 51.9329 18.9896C51.8037 19.0759 51.703 19.1986 51.6435 19.3422C51.584 19.4858 51.5685 19.6437 51.5988 19.7961C51.6291 19.9486 51.704 20.0886 51.8138 20.1984C51.9237 20.3083 52.0637 20.3832 52.2161 20.4135C52.3685 20.4438 52.5265 20.4282 52.6701 20.3688C52.8137 20.3093 52.9364 20.2086 53.0227 20.0794C53.1091 19.9502 53.1551 19.7983 53.1551 19.6429C53.1549 19.4345 53.072 19.2348 52.9247 19.0875C52.7774 18.9402 52.5777 18.8574 52.3694 18.8571ZM52.3694 20.0357C52.2917 20.0357 52.2158 20.0127 52.1512 19.9695C52.0866 19.9263 52.0362 19.865 52.0065 19.7932C51.9767 19.7214 51.969 19.6424 51.9841 19.5662C51.9993 19.49 52.0367 19.42 52.0916 19.3651C52.1466 19.3101 52.2166 19.2727 52.2928 19.2575C52.369 19.2424 52.448 19.2502 52.5198 19.2799C52.5915 19.3096 52.6529 19.36 52.6961 19.4246C52.7392 19.4892 52.7623 19.5652 52.7623 19.6429C52.7622 19.747 52.7207 19.8469 52.6471 19.9205C52.5734 19.9942 52.4736 20.0356 52.3694 20.0357ZM38.6194 9.82143C38.464 9.82143 38.3121 9.86751 38.1829 9.95385C38.0537 10.0402 37.953 10.1629 37.8935 10.3065C37.834 10.45 37.8185 10.608 37.8488 10.7604C37.8791 10.9128 37.9539 11.0528 38.0638 11.1627C38.1737 11.2726 38.3137 11.3474 38.4661 11.3778C38.6185 11.4081 38.7765 11.3925 38.9201 11.333C39.0637 11.2736 39.1864 11.1729 39.2727 11.0437C39.3591 10.9145 39.4051 10.7625 39.4051 10.6071C39.4049 10.3988 39.322 10.1991 39.1747 10.0518C39.0274 9.90452 38.8277 9.82167 38.6194 9.82143ZM38.6194 11C38.5417 11 38.4658 10.977 38.4012 10.9338C38.3366 10.8906 38.2862 10.8293 38.2565 10.7575C38.2267 10.6857 38.219 10.6067 38.2341 10.5305C38.2493 10.4543 38.2867 10.3843 38.3416 10.3294C38.3966 10.2744 38.4666 10.237 38.5428 10.2218C38.619 10.2067 38.698 10.2145 38.7698 10.2442C38.8415 10.2739 38.9029 10.3243 38.9461 10.3889C38.9892 10.4535 39.0123 10.5294 39.0123 10.6071C39.0122 10.7113 38.9707 10.8112 38.8971 10.8848C38.8234 10.9585 38.7236 10.9999 38.6194 11ZM62.1908 1.17857C62.0354 1.17857 61.8835 1.22465 61.7543 1.31099C61.6251 1.39732 61.5244 1.52004 61.4649 1.66361C61.4055 1.80718 61.3899 1.96516 61.4202 2.11757C61.4506 2.26999 61.5254 2.40999 61.6353 2.51987C61.7452 2.62975 61.8852 2.70459 62.0376 2.7349C62.19 2.76522 62.348 2.74966 62.4915 2.69019C62.6351 2.63072 62.7578 2.53002 62.8441 2.40081C62.9305 2.2716 62.9766 2.11969 62.9766 1.96429C62.9763 1.75597 62.8935 1.55626 62.7462 1.40897C62.5989 1.26167 62.3992 1.17881 62.1908 1.17857ZM62.1908 2.35714C62.1131 2.35714 62.0372 2.3341 61.9726 2.29094C61.908 2.24777 61.8576 2.18641 61.8279 2.11463C61.7982 2.04284 61.7904 1.96385 61.8055 1.88764C61.8207 1.81144 61.8581 1.74144 61.9131 1.68649C61.968 1.63155 62.038 1.59414 62.1142 1.57898C62.1904 1.56382 62.2694 1.5716 62.3412 1.60133C62.413 1.63107 62.4743 1.68142 62.5175 1.74603C62.5607 1.81063 62.5837 1.88659 62.5837 1.96429C62.5836 2.06845 62.5422 2.16831 62.4685 2.24196C62.3949 2.31562 62.295 2.35704 62.1908 2.35714ZM6.79799 8.25C6.79799 8.0946 6.75191 7.94269 6.66557 7.81348C6.57924 7.68427 6.45653 7.58356 6.31296 7.5241C6.16939 7.46463 6.01141 7.44907 5.85899 7.47938C5.70658 7.5097 5.56658 7.58453 5.45669 7.69442C5.34681 7.8043 5.27198 7.9443 5.24166 8.09672C5.21134 8.24913 5.2269 8.40711 5.28637 8.55068C5.34584 8.69425 5.44655 8.81696 5.57576 8.9033C5.70497 8.98963 5.85688 9.03572 6.01228 9.03572C6.22059 9.03548 6.4203 8.95262 6.5676 8.80532C6.7149 8.65802 6.79775 8.45831 6.79799 8.25ZM5.61942 8.25C5.61942 8.1723 5.64246 8.09635 5.68563 8.03174C5.7288 7.96714 5.79015 7.91678 5.86194 7.88705C5.93372 7.85731 6.01271 7.84953 6.08892 7.86469C6.16513 7.87985 6.23513 7.91727 6.29007 7.97221C6.34501 8.02715 6.38243 8.09715 6.39759 8.17336C6.41274 8.24957 6.40496 8.32856 6.37523 8.40034C6.3455 8.47213 6.29514 8.53348 6.23054 8.57665C6.16593 8.61982 6.08998 8.64286 6.01228 8.64286C5.90812 8.64275 5.80825 8.60133 5.7346 8.52768C5.66095 8.45403 5.61952 8.35416 5.61942 8.25Z" fill="#2D4356"/>
<path d="M4.27783 24.3618L4.86201 23.5938L4.49312 23.3848L4.11794 24.2451H4.10576L3.72469 23.3907L3.34951 23.6059L3.9274 24.3559V24.3681L3.02344 24.2514V24.6694L3.93329 24.5527V24.5649L3.34951 25.3145L3.69954 25.5361L4.09947 24.6694H4.11165L4.48054 25.5298L4.8679 25.3086L4.27783 24.5708V24.5586L5.20576 24.6694V24.2514L4.27783 24.374V24.3618Z" fill="#1E83E6"/>
<path d="M23.6041 11.0273L23.2679 11.459L23.4698 11.5863L23.7 11.0874H23.7067L23.9192 11.5828L24.1424 11.4555L23.8025 11.0304V11.0234L24.3368 11.0874V10.8466L23.8025 10.9173V10.9102L24.1388 10.4679L23.9267 10.3477L23.7106 10.843H23.7035L23.4839 10.3508L23.2679 10.4749L23.6006 10.9067V10.9138L23.0801 10.8466V11.0874L23.6041 11.0202V11.0273Z" fill="#1E83E6"/>
<path d="M64.1553 18.3517V17.9419L63.2451 18.0625V18.0504L63.8179 17.2969L63.456 17.0918L63.0883 17.9357H63.0761L62.7025 17.0977L62.3344 17.309L62.9013 18.0445V18.0567L62.0146 17.9419V18.3517L62.9072 18.2374V18.2495L62.3344 18.985L62.6782 19.2022L63.0703 18.3517H63.082L63.4439 19.1959L63.8238 18.9791L63.2451 18.2554V18.2433L64.1553 18.3517Z" fill="#1E83E6"/>
<path d="M45.0787 1.01642L45.5729 0.366239L45.2606 0.189453L44.9435 0.917417H44.9329L44.6108 0.19456L44.293 0.376846L44.7821 1.01131V1.02152L44.0176 0.922917V1.27649L44.7872 1.17749V1.1881L44.293 1.82256L44.5896 2.00995L44.9278 1.27649H44.938L45.2504 2.00445L45.578 1.81745L45.0787 1.1932V1.1826L45.8636 1.27649V0.922917L45.0787 1.02663V1.01642Z" fill="#1E83E6"/>
<path d="M0.785714 55.965C1.21965 55.965 1.57143 55.6132 1.57143 55.1793C1.57143 54.7453 1.21965 54.3936 0.785714 54.3936C0.351776 54.3936 0 54.7453 0 55.1793C0 55.6132 0.351776 55.965 0.785714 55.965Z" fill="#2D4356"/>
<path d="M4.32171 54.3936H3.14314C2.93475 54.3936 2.7349 54.4763 2.58755 54.6237C2.4402 54.771 2.35742 54.9709 2.35742 55.1793C2.35742 55.3877 2.4402 55.5875 2.58755 55.7349C2.7349 55.8822 2.93475 55.965 3.14314 55.965H4.32171C4.53009 55.965 4.72994 55.8822 4.87729 55.7349C5.02464 55.5875 5.10742 55.3877 5.10742 55.1793C5.10742 54.9709 5.02464 54.771 4.87729 54.6237C4.72994 54.4763 4.53009 54.3936 4.32171 54.3936ZM62.8574 54.3936H61.6789C61.4705 54.3936 61.2706 54.4763 61.1233 54.6237C60.9759 54.771 60.8931 54.9709 60.8931 55.1793C60.8931 55.3877 60.9759 55.5875 61.1233 55.7349C61.2706 55.8822 61.4705 55.965 61.6789 55.965H62.8574C63.0658 55.965 63.2657 55.8822 63.413 55.7349C63.5604 55.5875 63.6431 55.3877 63.6431 55.1793C63.6431 54.9709 63.5604 54.771 63.413 54.6237C63.2657 54.4763 63.0658 54.3936 62.8574 54.3936Z" fill="#2D4356"/>
<path d="M65.2144 55.965C65.6484 55.965 66.0001 55.6132 66.0001 55.1793C66.0001 54.7453 65.6484 54.3936 65.2144 54.3936C64.7805 54.3936 64.4287 54.7453 64.4287 55.1793C64.4287 55.6132 64.7805 55.965 65.2144 55.965Z" fill="#2D4356"/>
<rect x="7" y="55" width="52" height="1.2" rx="0.6" fill="#2D4356"/>
<path d="M45.7253 58.2861H42.5604C42.3689 58.3015 42.1902 58.3884 42.0598 58.5296C41.9295 58.6708 41.8571 58.8559 41.8571 59.048C41.8571 59.2402 41.9295 59.4253 42.0598 59.5665C42.1902 59.7077 42.3689 59.7946 42.5604 59.8099H45.7253C45.9168 59.7946 46.0956 59.7077 46.2259 59.5665C46.3562 59.4253 46.4286 59.2402 46.4286 59.048C46.4286 58.8559 46.3562 58.6708 46.2259 58.5296C46.0956 58.3884 45.9168 58.3015 45.7253 58.2861ZM22.8682 58.2861H19.7033C19.5118 58.3015 19.333 58.3884 19.2027 58.5296C19.0724 58.6708 19 58.8559 19 59.048C19 59.2402 19.0724 59.4253 19.2027 59.5665C19.333 59.7077 19.5118 59.7946 19.7033 59.8099H22.8682C23.0597 59.7946 23.2384 59.7077 23.3687 59.5665C23.4991 59.4253 23.5714 59.2402 23.5714 59.048C23.5714 58.8559 23.4991 58.6708 23.3687 58.5296C23.2384 58.3884 23.0597 58.3015 22.8682 58.2861ZM40.3333 58.2861H25.0952C24.8932 58.2861 24.6994 58.3664 24.5565 58.5093C24.4136 58.6522 24.3333 58.846 24.3333 59.048C24.3333 59.2501 24.4136 59.4439 24.5565 59.5868C24.6994 59.7297 24.8932 59.8099 25.0952 59.8099H31.1676V60.5718H28.1429C27.9408 60.5718 27.747 60.6521 27.6041 60.795C27.4612 60.9379 27.381 61.1317 27.381 61.3338C27.381 61.5358 27.4612 61.7296 27.6041 61.8725C27.747 62.0154 27.9408 62.0957 28.1429 62.0957H37.6667C37.8687 62.0957 38.0625 62.0154 38.2054 61.8725C38.3483 61.7296 38.4286 61.5358 38.4286 61.3338C38.4286 61.1317 38.3483 60.9379 38.2054 60.795C38.0625 60.6521 37.8687 60.5718 37.6667 60.5718H34.261V59.8099H40.3333C40.5354 59.8099 40.7292 59.7297 40.8721 59.5868C41.015 59.4439 41.0953 59.2501 41.0953 59.048C41.0953 58.846 41.015 58.6522 40.8721 58.5093C40.7292 58.3664 40.5354 58.2861 40.3333 58.2861Z" fill="#1E83E6"/>
<defs>
<clipPath id="clip0_1414_142">
<rect width="41" height="41" fill="white" transform="translate(14 9)"/>
</clipPath>
</defs>
</svg>
