<svg width="64" height="64" viewBox="0 0 64 64" fill="none" xmlns="http://www.w3.org/2000/svg">
<path d="M45.0109 58.2861H41.8461C41.6546 58.3015 41.4758 58.3884 41.3455 58.5296C41.2152 58.6708 41.1428 58.8559 41.1428 59.048C41.1428 59.2402 41.2152 59.4253 41.3455 59.5665C41.4758 59.7077 41.6546 59.7946 41.8461 59.8099H45.0109C45.2025 59.7946 45.3812 59.7077 45.5115 59.5665C45.6419 59.4253 45.7142 59.2402 45.7142 59.048C45.7142 58.8559 45.6419 58.6708 45.5115 58.5296C45.3812 58.3884 45.2025 58.3015 45.0109 58.2861ZM22.1538 58.2861H18.9889C18.7974 58.3015 18.6187 58.3884 18.4883 58.5296C18.358 58.6708 18.2856 58.8559 18.2856 59.048C18.2856 59.2402 18.358 59.4253 18.4883 59.5665C18.6187 59.7077 18.7974 59.7946 18.9889 59.8099H22.1538C22.3453 59.7946 22.5241 59.7077 22.6544 59.5665C22.7847 59.4253 22.8571 59.2402 22.8571 59.048C22.8571 58.8559 22.7847 58.6708 22.6544 58.5296C22.5241 58.3884 22.3453 58.3015 22.1538 58.2861ZM39.619 58.2861H24.3809C24.1788 58.2861 23.985 58.3664 23.8421 58.5093C23.6993 58.6522 23.619 58.846 23.619 59.048C23.619 59.2501 23.6993 59.4439 23.8421 59.5868C23.985 59.7297 24.1788 59.8099 24.3809 59.8099H30.4533V60.5718H27.4285C27.2264 60.5718 27.0326 60.6521 26.8898 60.795C26.7469 60.9379 26.6666 61.1317 26.6666 61.3338C26.6666 61.5358 26.7469 61.7296 26.8898 61.8725C27.0326 62.0154 27.2264 62.0957 27.4285 62.0957H36.9523C37.1544 62.0957 37.3482 62.0154 37.4911 61.8725C37.634 61.7296 37.7142 61.5358 37.7142 61.3338C37.7142 61.1317 37.634 60.9379 37.4911 60.795C37.3482 60.6521 37.1544 60.5718 36.9523 60.5718H33.5466V59.8099H39.619C39.8211 59.8099 40.0149 59.7297 40.1577 59.5868C40.3006 59.4439 40.3809 59.2501 40.3809 59.048C40.3809 58.846 40.3006 58.6522 40.1577 58.5093C40.0149 58.3664 39.8211 58.2861 39.619 58.2861Z" fill="#1E83E6"/>
<path d="M10.6668 49.9048H53.3334C54.1408 49.9057 54.9155 49.5858 55.487 49.0155C56.0586 48.4452 56.3802 47.6712 56.381 46.8638V27.5373C56.3808 26.9524 56.2118 26.38 55.8943 25.8887C55.5769 25.3974 55.1244 25.0081 54.5913 24.7674L51.4287 22.8866V15.2381C51.4286 15.0361 51.3484 14.8423 51.2055 14.6994C51.0626 14.5565 50.8688 14.4762 50.6668 14.4762H46.8572C46.6552 14.4762 46.4614 14.5565 46.3185 14.6994C46.1756 14.8423 46.0953 15.0361 46.0953 15.2381V19.7149L33.2579 12.0807C32.8627 11.902 32.4339 11.8096 32.0001 11.8096C31.5663 11.8096 31.1375 11.902 30.7423 12.0807L9.40892 24.7674C8.87577 25.0081 8.42335 25.3974 8.10589 25.8887C7.78844 26.38 7.61943 26.9524 7.61914 27.5373V46.8638C7.62002 47.6712 7.9416 48.4452 8.51314 49.0155C9.08468 49.5858 9.85936 49.9057 10.6668 49.9048ZM36.9525 48.381H27.0477V35.4286C27.0479 35.2266 27.1283 35.033 27.2711 34.8901C27.414 34.7473 27.6076 34.6669 27.8096 34.6667H36.1906C36.3926 34.6669 36.5862 34.7473 36.7291 34.8901C36.8719 35.033 36.9522 35.2266 36.9525 35.4286V48.381ZM47.6191 16H49.9049V21.9804L47.6191 20.6211V16ZM9.14295 27.5373C9.14363 27.2456 9.22826 26.9602 9.38674 26.7152C9.54523 26.4703 9.77087 26.2761 10.0367 26.1559C10.0885 26.1325 10.1389 26.1062 10.1878 26.0771L31.4354 13.4414C31.7981 13.2974 32.2021 13.2974 32.5648 13.4414L53.8124 26.0771C53.8613 26.1062 53.9117 26.1325 53.9635 26.1559C54.2293 26.2761 54.455 26.4703 54.6134 26.7152C54.7719 26.9602 54.8566 27.2456 54.8572 27.5373V46.8638C54.8559 47.2669 54.6947 47.653 54.409 47.9375C54.1234 48.2219 53.7365 48.3814 53.3334 48.381H38.4763V35.4286C38.4756 34.8226 38.2346 34.2416 37.8061 33.8131C37.3776 33.3846 36.7966 33.1436 36.1906 33.1429H27.8096C27.2036 33.1436 26.6226 33.3846 26.1941 33.8131C25.7656 34.2416 25.5246 34.8226 25.5239 35.4286V48.381H10.6668C10.2636 48.3814 9.87681 48.2219 9.59114 47.9375C9.30547 47.653 9.14429 47.2669 9.14295 46.8638V27.5373Z" fill="#2D4356"/>
<path d="M44.1906 46.0951H49.143C49.547 46.0947 49.9344 45.934 50.22 45.6483C50.5057 45.3626 50.6664 44.9753 50.6668 44.5713V39.238C50.6664 38.8339 50.5057 38.4466 50.22 38.1609C49.9344 37.8753 49.547 37.7146 49.143 37.7141H44.1906C43.7866 37.7146 43.3993 37.8753 43.1136 38.1609C42.8279 38.4466 42.6673 38.8339 42.6668 39.238V44.5713C42.6673 44.9753 42.8279 45.3626 43.1136 45.6483C43.3993 45.934 43.7866 46.0947 44.1906 46.0951ZM44.1906 39.238H49.143L49.144 44.5713H44.1906V39.238ZM14.8573 46.0951H19.8097C20.2137 46.0947 20.601 45.934 20.8867 45.6483C21.1724 45.3626 21.3331 44.9753 21.3335 44.5713V39.238C21.3331 38.8339 21.1724 38.4466 20.8867 38.1609C20.601 37.8753 20.2137 37.7146 19.8097 37.7141H14.8573C14.4533 37.7146 14.066 37.8753 13.7803 38.1609C13.4946 38.4466 13.3339 38.8339 13.3335 39.238V44.5713C13.3339 44.9753 13.4946 45.3626 13.7803 45.6483C14.066 45.934 14.4533 46.0947 14.8573 46.0951ZM14.8573 39.238H19.8097L19.8106 44.5713H14.8573V39.238ZM32.0002 29.2856C32.763 29.2856 33.5088 29.0594 34.1431 28.6355C34.7774 28.2117 35.2718 27.6093 35.5637 26.9045C35.8556 26.1997 35.932 25.4242 35.7832 24.6759C35.6344 23.9277 35.267 23.2405 34.7276 22.701C34.1881 22.1616 33.5009 21.7942 32.7527 21.6454C32.0044 21.4966 31.2289 21.573 30.5241 21.8649C29.8193 22.1568 29.2169 22.6512 28.7931 23.2855C28.3692 23.9198 28.143 24.6656 28.143 25.4284C28.1442 26.4511 28.5509 27.4315 29.274 28.1546C29.9971 28.8777 30.9775 29.2844 32.0002 29.2856ZM32.0002 23.0951C32.4617 23.0951 32.9128 23.2319 33.2965 23.4883C33.6802 23.7447 33.9793 24.1091 34.1559 24.5355C34.3325 24.9619 34.3787 25.431 34.2887 25.8836C34.1986 26.3363 33.9764 26.752 33.6501 27.0783C33.3238 27.4047 32.908 27.6269 32.4554 27.7169C32.0028 27.807 31.5336 27.7608 31.1072 27.5841C30.6809 27.4075 30.3165 27.1085 30.0601 26.7248C29.8037 26.341 29.6668 25.8899 29.6668 25.4284C29.6675 24.8098 29.9136 24.2167 30.351 23.7793C30.7885 23.3419 31.3815 23.0958 32.0002 23.0951Z" fill="#1E83E6"/>
<path d="M15.0475 36.1908H19.619C19.821 36.1908 20.0148 36.1105 20.1577 35.9676C20.3006 35.8248 20.3809 35.631 20.3809 35.4289C20.3809 35.2268 20.3006 35.033 20.1577 34.8901C20.0148 34.7473 19.821 34.667 19.619 34.667H15.0475C14.8455 34.667 14.6517 34.7473 14.5088 34.8901C14.3659 35.033 14.2856 35.2268 14.2856 35.4289C14.2856 35.631 14.3659 35.8248 14.5088 35.9676C14.6517 36.1105 14.8455 36.1908 15.0475 36.1908ZM44.3809 36.1908H48.9523C49.1544 36.1908 49.3482 36.1105 49.4911 35.9676C49.6339 35.8248 49.7142 35.631 49.7142 35.4289C49.7142 35.2268 49.6339 35.033 49.4911 34.8901C49.3482 34.7473 49.1544 34.667 48.9523 34.667H44.3809C44.1788 34.667 43.985 34.7473 43.8421 34.8901C43.6993 35.033 43.619 35.2268 43.619 35.4289C43.619 35.631 43.6993 35.8248 43.8421 35.9676C43.985 36.1105 44.1788 36.1908 44.3809 36.1908Z" fill="#2D4356"/>
<path d="M0.761905 56.7621C1.18269 56.7621 1.52381 56.421 1.52381 56.0002C1.52381 55.5794 1.18269 55.2383 0.761905 55.2383C0.341116 55.2383 0 55.5794 0 56.0002C0 56.421 0.341116 56.7621 0.761905 56.7621Z" fill="#2D4356"/>
<path d="M4.19041 55.2383H3.04755C2.84548 55.2383 2.65169 55.3186 2.5088 55.4614C2.36592 55.6043 2.28564 55.7981 2.28564 56.0002C2.28564 56.2023 2.36592 56.3961 2.5088 56.5389C2.65169 56.6818 2.84548 56.7621 3.04755 56.7621H4.19041C4.39248 56.7621 4.58627 56.6818 4.72915 56.5389C4.87204 56.3961 4.95231 56.2023 4.95231 56.0002C4.95231 55.7981 4.87204 55.6043 4.72915 55.4614C4.58627 55.3186 4.39248 55.2383 4.19041 55.2383ZM60.9523 55.2383H59.8095C59.6074 55.2383 59.4136 55.3186 59.2707 55.4614C59.1278 55.6043 59.0476 55.7981 59.0476 56.0002C59.0476 56.2023 59.1278 56.3961 59.2707 56.5389C59.4136 56.6818 59.6074 56.7621 59.8095 56.7621H60.9523C61.1544 56.7621 61.3482 56.6818 61.4911 56.5389C61.6339 56.3961 61.7142 56.2023 61.7142 56.0002C61.7142 55.7981 61.6339 55.6043 61.4911 55.4614C61.3482 55.3186 61.1544 55.2383 60.9523 55.2383Z" fill="#2D4356"/>
<path d="M63.238 56.7621C63.6588 56.7621 63.9999 56.421 63.9999 56.0002C63.9999 55.5794 63.6588 55.2383 63.238 55.2383C62.8172 55.2383 62.4761 55.5794 62.4761 56.0002C62.4761 56.421 62.8172 56.7621 63.238 56.7621Z" fill="#2D4356"/>
<path d="M57.4178 55.2376H50.8303C51.5854 54.4021 52.0036 53.3162 52.004 52.19C52.004 51.9879 51.9238 51.7941 51.7809 51.6513C51.638 51.5084 51.4442 51.4281 51.2421 51.4281C51.0401 51.4281 50.8463 51.5084 50.7034 51.6513C50.5605 51.7941 50.4802 51.9879 50.4802 52.19C50.4802 52.9983 50.1591 53.7735 49.5876 54.345C49.016 54.9165 48.2409 55.2376 47.4326 55.2376C46.6243 55.2376 45.8491 54.9165 45.2776 54.345C44.7061 53.7735 44.385 52.9983 44.385 52.19C44.385 51.9879 44.3047 51.7941 44.1618 51.6513C44.0189 51.5084 43.8251 51.4281 43.6231 51.4281C43.421 51.4281 43.2272 51.5084 43.0843 51.6513C42.9414 51.7941 42.8612 51.9879 42.8612 52.19C42.8616 53.3162 43.2798 54.4021 44.0349 55.2376H20.1597C20.9148 54.4021 21.3331 53.3162 21.3335 52.19C21.3335 51.9879 21.2532 51.7941 21.1103 51.6513C20.9674 51.5084 20.7736 51.4281 20.5715 51.4281C20.3695 51.4281 20.1757 51.5084 20.0328 51.6513C19.8899 51.7941 19.8096 51.9879 19.8096 52.19C19.8096 52.9983 19.4886 53.7735 18.917 54.345C18.3455 54.9165 17.5703 55.2376 16.762 55.2376C15.9537 55.2376 15.1786 54.9165 14.607 54.345C14.0355 53.7735 13.7144 52.9983 13.7144 52.19C13.7144 51.9879 13.6341 51.7941 13.4912 51.6513C13.3484 51.5084 13.1546 51.4281 12.9525 51.4281C12.7504 51.4281 12.5566 51.5084 12.4137 51.6513C12.2709 51.7941 12.1906 51.9879 12.1906 52.19C12.191 53.3162 12.6092 54.4021 13.3643 55.2376H6.58247C6.47408 55.2235 6.36392 55.2326 6.25934 55.2644C6.15475 55.2962 6.05816 55.35 5.97601 55.4221C5.89386 55.4942 5.82805 55.583 5.78296 55.6826C5.73787 55.7822 5.71454 55.8902 5.71454 55.9995C5.71454 56.1088 5.73787 56.2169 5.78296 56.3165C5.82805 56.4161 5.89386 56.5049 5.97601 56.577C6.05816 56.6491 6.15475 56.7029 6.25934 56.7347C6.36392 56.7665 6.47408 56.7756 6.58247 56.7614H57.4178C57.5261 56.7756 57.6363 56.7665 57.7409 56.7347C57.8455 56.7029 57.9421 56.6491 58.0242 56.577C58.1064 56.5049 58.1722 56.4161 58.2173 56.3165C58.2624 56.2169 58.2857 56.1088 58.2857 55.9995C58.2857 55.8902 58.2624 55.7822 58.2173 55.6826C58.1722 55.583 58.1064 55.4942 58.0242 55.4221C57.9421 55.35 57.8455 55.2962 57.7409 55.2644C57.6363 55.2326 57.5261 55.2235 57.4178 55.2376ZM18.7232 4.57096C18.9492 4.57096 19.1702 4.50394 19.3581 4.37836C19.5461 4.25278 19.6926 4.07429 19.7791 3.86546C19.8656 3.65663 19.8882 3.42684 19.8441 3.20515C19.8 2.98345 19.6912 2.77982 19.5313 2.61998C19.3715 2.46015 19.1679 2.35131 18.9462 2.30721C18.7245 2.26311 18.4947 2.28574 18.2858 2.37224C18.077 2.45874 17.8985 2.60523 17.7729 2.79317C17.6474 2.98111 17.5803 3.20207 17.5803 3.42811C17.5807 3.7311 17.7012 4.02159 17.9155 4.23585C18.1297 4.4501 18.4202 4.57062 18.7232 4.57096ZM18.7232 2.85668C18.8362 2.85668 18.9467 2.89019 19.0407 2.95298C19.1346 3.01577 19.2079 3.10502 19.2511 3.20943C19.2944 3.31385 19.3057 3.42874 19.2836 3.53959C19.2616 3.65043 19.2072 3.75225 19.1273 3.83217C19.0473 3.91208 18.9455 3.96651 18.8347 3.98855C18.7238 4.0106 18.6089 3.99929 18.5045 3.95604C18.4001 3.91279 18.3109 3.83955 18.2481 3.74557C18.1853 3.6516 18.1518 3.54112 18.1518 3.42811C18.1519 3.2766 18.2122 3.13134 18.3193 3.02421C18.4264 2.91708 18.5717 2.85683 18.7232 2.85668ZM44.3811 1.9043C44.2304 1.9043 44.0831 1.94898 43.9578 2.0327C43.8325 2.11642 43.7348 2.23541 43.6772 2.37463C43.6195 2.51385 43.6044 2.66705 43.6338 2.81484C43.6632 2.96264 43.7358 3.0984 43.8423 3.20495C43.9489 3.3115 44.0846 3.38407 44.2324 3.41347C44.3802 3.44286 44.5334 3.42778 44.6726 3.37011C44.8119 3.31244 44.9309 3.21479 45.0146 3.08949C45.0983 2.9642 45.143 2.81689 45.143 2.6662C45.1427 2.4642 45.0624 2.27054 44.9196 2.12771C44.7767 1.98487 44.5831 1.90453 44.3811 1.9043ZM44.3811 3.04715C44.3057 3.04715 44.2321 3.02481 44.1694 2.98295C44.1068 2.94109 44.0579 2.8816 44.0291 2.81199C44.0003 2.74238 43.9927 2.66578 44.0074 2.59188C44.0221 2.51798 44.0584 2.4501 44.1117 2.39683C44.165 2.34355 44.2329 2.30727 44.3067 2.29257C44.3806 2.27787 44.4572 2.28541 44.5269 2.31425C44.5965 2.34308 44.656 2.39191 44.6978 2.45456C44.7397 2.5172 44.762 2.59086 44.762 2.6662C44.7619 2.76721 44.7218 2.86404 44.6503 2.93546C44.5789 3.00688 44.4821 3.04705 44.3811 3.04715ZM12.4763 18.6196C12.3256 18.6196 12.1783 18.6643 12.053 18.748C11.9277 18.8317 11.8301 18.9507 11.7724 19.0899C11.7147 19.2292 11.6996 19.3824 11.729 19.5302C11.7584 19.6779 11.831 19.8137 11.9376 19.9203C12.0441 20.0268 12.1799 20.0994 12.3277 20.1288C12.4755 20.1582 12.6287 20.1431 12.7679 20.0854C12.9071 20.0278 13.0261 19.9301 13.1098 19.8048C13.1935 19.6795 13.2382 19.5322 13.2382 19.3815C13.238 19.1795 13.1576 18.9859 13.0148 18.843C12.872 18.7002 12.6783 18.6198 12.4763 18.6196ZM12.4763 19.7625C12.401 19.7625 12.3273 19.7401 12.2647 19.6983C12.202 19.6564 12.1532 19.5969 12.1244 19.5273C12.0955 19.4577 12.088 19.3811 12.1027 19.3072C12.1174 19.2333 12.1537 19.1654 12.2069 19.1121C12.2602 19.0589 12.3281 19.0226 12.402 19.0079C12.4759 18.9932 12.5525 19.0007 12.6221 19.0296C12.6917 19.0584 12.7512 19.1072 12.7931 19.1699C12.8349 19.2325 12.8573 19.3062 12.8573 19.3815C12.8572 19.4825 12.817 19.5794 12.7456 19.6508C12.6741 19.7222 12.5773 19.7624 12.4763 19.7625ZM60.9525 7.13785C60.8018 7.13785 60.6545 7.18253 60.5292 7.26625C60.4039 7.34997 60.3063 7.46896 60.2486 7.60818C60.1909 7.7474 60.1758 7.9006 60.2052 8.04839C60.2346 8.19619 60.3072 8.33194 60.4137 8.4385C60.5203 8.54505 60.6561 8.61762 60.8039 8.64702C60.9517 8.67641 61.1048 8.66133 61.2441 8.60366C61.3833 8.54599 61.5023 8.44834 61.586 8.32304C61.6697 8.19775 61.7144 8.05044 61.7144 7.89975C61.7142 7.69775 61.6338 7.50409 61.491 7.36126C61.3482 7.21842 61.1545 7.13808 60.9525 7.13785ZM60.9525 8.2807C60.8772 8.2807 60.8035 8.25836 60.7409 8.2165C60.6782 8.17464 60.6294 8.11515 60.6005 8.04554C60.5717 7.97593 60.5642 7.89933 60.5789 7.82543C60.5936 7.75153 60.6298 7.68366 60.6831 7.63038C60.7364 7.5771 60.8043 7.54082 60.8782 7.52612C60.9521 7.51142 61.0287 7.51896 61.0983 7.5478C61.1679 7.57663 61.2274 7.62546 61.2692 7.68811C61.3111 7.75075 61.3335 7.82441 61.3335 7.89975C61.3334 8.00076 61.2932 8.09759 61.2218 8.16901C61.1503 8.24044 61.0535 8.2806 60.9525 8.2807ZM3.04774 16.7614C3.04774 16.6107 3.00305 16.4634 2.91933 16.3381C2.83561 16.2129 2.71662 16.1152 2.5774 16.0575C2.43818 15.9999 2.28499 15.9848 2.13719 16.0142C1.9894 16.0436 1.85364 16.1161 1.74708 16.2227C1.64053 16.3292 1.56796 16.465 1.53857 16.6128C1.50917 16.7606 1.52426 16.9138 1.58192 17.053C1.63959 17.1922 1.73724 17.3112 1.86254 17.3949C1.98783 17.4787 2.13514 17.5233 2.28583 17.5233C2.48783 17.5231 2.68149 17.4428 2.82432 17.2999C2.96716 17.1571 3.0475 16.9634 3.04774 16.7614ZM1.90488 16.7614C1.90488 16.6861 1.92722 16.6124 1.96908 16.5498C2.01094 16.4871 2.07044 16.4383 2.14005 16.4095C2.20966 16.3807 2.28625 16.3731 2.36015 16.3878C2.43405 16.4025 2.50193 16.4388 2.5552 16.4921C2.60848 16.5453 2.64476 16.6132 2.65946 16.6871C2.67416 16.761 2.66662 16.8376 2.63779 16.9072C2.60895 16.9768 2.56012 17.0363 2.49748 17.0782C2.43483 17.12 2.36118 17.1424 2.28583 17.1424C2.18483 17.1423 2.08799 17.1021 2.01657 17.0307C1.94515 16.9593 1.90498 16.8624 1.90488 16.7614Z" fill="#2D4356"/>
<path d="M5.11053 7.80485L5.67701 7.06009L5.31929 6.85742L4.95586 7.69171H4.94367L4.57453 6.86314L4.21034 7.0719L4.7711 7.79914V7.81095L3.89453 7.6978V8.10314L4.77682 7.98999V8.0018L4.21034 8.72866L4.55015 8.94352L4.93796 8.10314H4.94939L5.3071 8.93742L5.68272 8.72295L5.11053 8.00752V7.99571L6.01034 8.10314V7.6978L5.11053 7.81704V7.80485Z" fill="#1E83E6"/>
<path d="M24.6605 12.6298L24.3344 13.0484L24.5302 13.1722L24.7535 12.688H24.76L24.9661 13.1688L25.1824 13.045L24.8529 12.6332V12.6263L25.371 12.688V12.4549L24.8529 12.5235V12.5166L25.179 12.0877L24.9733 11.9707L24.7638 12.4511H24.7569L24.544 11.9741L24.3344 12.0941L24.6571 12.5132V12.52L24.1523 12.4549V12.688L24.6605 12.6229V12.6298Z" fill="#1E83E6"/>
<path d="M59.1637 18.5577V18.1603L58.281 18.2773V18.2655L58.8365 17.5348L58.4856 17.3359L58.129 18.1542H58.1172L57.7549 17.3417L57.398 17.5466L57.9477 18.2597V18.2716L57.0879 18.1603V18.5577L57.9534 18.4468V18.4586L57.398 19.1717L57.7313 19.3824L58.1115 18.5577H58.1229L58.4738 19.3763L58.8422 19.166L58.281 18.4643V18.4525L59.1637 18.5577Z" fill="#1E83E6"/>
<path d="M36.3244 8.86245L36.8036 8.23236L36.5011 8.06055L36.1933 8.76645H36.183L35.8706 8.0655L35.5628 8.24226L36.0371 8.8575V8.86778L35.2954 8.77178V9.11464L36.0421 9.01902V9.02893L35.5628 9.64417L35.8501 9.82588L36.1781 9.11464H36.188L36.4908 9.82055L36.8086 9.63921L36.3244 9.03388V9.02398L37.0859 9.11464V8.77178L36.3244 8.87236V8.86245Z" fill="#1E83E6"/>
</svg>
