<svg width="69" height="65" viewBox="0 0 69 65" fill="none" xmlns="http://www.w3.org/2000/svg">
<path d="M27.9285 14.3611C27.9442 12.7358 28.6039 11.1831 29.7629 10.0436C30.9219 8.90405 32.4855 8.27076 34.1109 8.28262H34.889C36.5143 8.27076 38.078 8.90405 39.237 10.0436C40.396 11.1831 41.0557 12.7358 41.0713 14.3611V16.4969H42.7142V14.3611C42.698 12.3003 41.8651 10.33 40.3981 8.88247C38.9311 7.43495 36.9499 6.62841 34.889 6.63977H34.1109C32.05 6.62841 30.0687 7.43495 28.6018 8.88247C27.1348 10.33 26.3018 12.3003 26.2856 14.3611V16.4969H27.9285V14.3611Z" fill="#2D4356"/>
<path d="M15.6071 23.0706C16.0607 23.0706 16.4285 22.7028 16.4285 22.2492C16.4285 21.7955 16.0607 21.4277 15.6071 21.4277C15.1534 21.4277 14.7856 21.7955 14.7856 22.2492C14.7856 22.7028 15.1534 23.0706 15.6071 23.0706Z" fill="#1E83E6"/>
<path d="M22.1784 23.0706C22.632 23.0706 22.9998 22.7028 22.9998 22.2492C22.9998 21.7955 22.632 21.4277 22.1784 21.4277C21.7247 21.4277 21.3569 21.7955 21.3569 22.2492C21.3569 22.7028 21.7247 23.0706 22.1784 23.0706Z" fill="#1E83E6"/>
<path d="M18.8927 23.0706C19.3464 23.0706 19.7141 22.7028 19.7141 22.2492C19.7141 21.7955 19.3464 21.4277 18.8927 21.4277C18.4391 21.4277 18.0713 21.7955 18.0713 22.2492C18.0713 22.7028 18.4391 23.0706 18.8927 23.0706Z" fill="#1E83E6"/>
<path d="M38.704 46.907C38.8861 46.6886 39.0085 46.4268 39.0592 46.147C39.1098 45.8672 39.0869 45.579 38.9928 45.3107C38.8987 45.0424 38.7366 44.8031 38.5223 44.6162C38.308 44.4293 38.0489 44.3013 37.7703 44.2445L32.7738 43.2274C32.49 43.1696 32.1959 43.1879 31.9214 43.2804C31.647 43.3729 31.4018 43.5363 31.2108 43.7541C31.0199 43.9718 30.8899 44.2362 30.834 44.5205C30.7782 44.8047 30.7985 45.0986 30.8929 45.3725L32.4383 49.8569C32.5463 50.1705 32.7467 50.444 33.0132 50.6415C33.2796 50.839 33.5996 50.9512 33.931 50.9634C33.9513 50.9642 33.9716 50.9645 33.9918 50.9645C34.2303 50.9645 34.4659 50.9126 34.6822 50.8123C34.8986 50.7121 35.0905 50.5659 35.2447 50.3841L36.0045 51.0231C36.3198 51.2882 36.7231 51.4252 37.1346 51.407C37.5461 51.3888 37.9357 51.2167 38.2263 50.9247L39.3604 49.7853C39.5208 49.6242 39.646 49.4316 39.7281 49.2195C39.8102 49.0075 39.8474 48.7808 39.8373 48.5537C39.8272 48.3266 39.7702 48.104 39.6697 47.9001C39.5691 47.6962 39.4274 47.5153 39.2534 47.369L38.704 46.907ZM37.062 49.7658L34.6658 47.7507L33.9915 49.3217L32.4461 44.8372L37.4426 45.8544L35.8 46.6113L38.1961 48.6264L37.062 49.7658Z" fill="#1E83E6"/>
<path d="M27.9286 30.0508H18.0714C17.8536 30.0508 17.6446 30.1373 17.4906 30.2914C17.3366 30.4454 17.25 30.6544 17.25 30.8722V40.7293C17.25 40.9472 17.3366 41.1561 17.4906 41.3102C17.6446 41.4642 17.8536 41.5508 18.0714 41.5508H27.9286C28.1464 41.5508 28.3553 41.4642 28.5094 41.3102C28.6634 41.1561 28.75 40.9472 28.75 40.7293V30.8722C28.75 30.6544 28.6634 30.4454 28.5094 30.2914C28.3553 30.1373 28.1464 30.0508 27.9286 30.0508ZM27.1071 39.9079H18.8929V31.6936H27.1071V39.9079Z" fill="#2D4356"/>
<path d="M50.7236 30.0508H31.4201C31.2022 30.0508 30.9933 30.1373 30.8392 30.2914C30.6852 30.4454 30.5986 30.6544 30.5986 30.8722C30.5986 31.0901 30.6852 31.299 30.8392 31.453C30.9933 31.6071 31.2022 31.6936 31.4201 31.6936H50.7236C50.9415 31.6936 51.1504 31.6071 51.3045 31.453C51.4585 31.299 51.545 31.0901 51.545 30.8722C51.545 30.6544 51.4585 30.4454 51.3045 30.2914C51.1504 30.1373 50.9415 30.0508 50.7236 30.0508Z" fill="#1E83E6"/>
<path d="M50.7236 33.3369H31.4201C31.2022 33.3369 30.9933 33.4235 30.8392 33.5775C30.6852 33.7316 30.5986 33.9405 30.5986 34.1583C30.5986 34.3762 30.6852 34.5851 30.8392 34.7392C30.9933 34.8932 31.2022 34.9798 31.4201 34.9798H50.7236C50.9415 34.9798 51.1504 34.8932 51.3045 34.7392C51.4585 34.5851 51.545 34.3762 51.545 34.1583C51.545 33.9405 51.4585 33.7316 51.3045 33.5775C51.1504 33.4235 50.9415 33.3369 50.7236 33.3369Z" fill="#2D4356"/>
<path d="M50.7236 36.6211H31.4201C31.2022 36.6211 30.9933 36.7076 30.8392 36.8617C30.6852 37.0157 30.5986 37.2247 30.5986 37.4425C30.5986 37.6604 30.6852 37.8693 30.8392 38.0234C30.9933 38.1774 31.2022 38.2639 31.4201 38.2639H50.7236C50.9415 38.2639 51.1504 38.1774 51.3045 38.0234C51.4585 37.8693 51.545 37.6604 51.545 37.4425C51.545 37.2247 51.4585 37.0157 51.3045 36.8617C51.1504 36.7076 50.9415 36.6211 50.7236 36.6211Z" fill="#1E83E6"/>
<path d="M50.7236 39.9102H31.4201C31.2022 39.9102 30.9933 39.9967 30.8392 40.1507C30.6852 40.3048 30.5986 40.5137 30.5986 40.7316C30.5986 40.9494 30.6852 41.1584 30.8392 41.3124C30.9933 41.4665 31.2022 41.553 31.4201 41.553H50.7236C50.9415 41.553 51.1504 41.4665 51.3045 41.3124C51.4585 41.1584 51.545 40.9494 51.545 40.7316C51.545 40.5137 51.4585 40.3048 51.3045 40.1507C51.1504 39.9967 50.9415 39.9102 50.7236 39.9102Z" fill="#2D4356"/>
<path d="M0.821428 59.2102C1.27509 59.2102 1.64286 58.8425 1.64286 58.3888C1.64286 57.9351 1.27509 57.5674 0.821428 57.5674C0.367766 57.5674 0 57.9351 0 58.3888C0 58.8425 0.367766 59.2102 0.821428 59.2102Z" fill="#2D4356"/>
<path d="M4.51792 57.5693H3.28578C3.06793 57.5693 2.85899 57.6559 2.70495 57.8099C2.5509 57.964 2.46436 58.1729 2.46436 58.3908C2.46436 58.6086 2.5509 58.8176 2.70495 58.9716C2.85899 59.1256 3.06793 59.2122 3.28578 59.2122H4.51792C4.73578 59.2122 4.94471 59.1256 5.09876 58.9716C5.25281 58.8176 5.33935 58.6086 5.33935 58.3908C5.33935 58.1729 5.25281 57.964 5.09876 57.8099C4.94471 57.6559 4.73578 57.5693 4.51792 57.5693Z" fill="#2D4356"/>
<path d="M48.5275 60.8545H45.1154C44.9089 60.871 44.7162 60.9648 44.5757 61.117C44.4352 61.2692 44.3572 61.4688 44.3572 61.6759C44.3572 61.8831 44.4352 62.0826 44.5757 62.2349C44.7162 62.3871 44.9089 62.4808 45.1154 62.4973H48.5275C48.734 62.4808 48.9267 62.3871 49.0672 62.2349C49.2078 62.0826 49.2858 61.8831 49.2858 61.6759C49.2858 61.4688 49.2078 61.2692 49.0672 61.117C48.9267 60.9648 48.734 60.871 48.5275 60.8545ZM23.8847 60.8545H20.4726C20.2661 60.871 20.0734 60.9648 19.9329 61.117C19.7924 61.2692 19.7144 61.4688 19.7144 61.6759C19.7144 61.8831 19.7924 62.0826 19.9329 62.2349C20.0734 62.3871 20.2661 62.4808 20.4726 62.4973H23.8847C24.0912 62.4808 24.2839 62.3871 24.4244 62.2349C24.5649 62.0826 24.6429 61.8831 24.6429 61.6759C24.6429 61.4688 24.5649 61.2692 24.4244 61.117C24.2839 60.9648 24.0912 60.871 23.8847 60.8545ZM42.7143 60.8545H26.2858C26.0679 60.8545 25.859 60.941 25.705 61.0951C25.5509 61.2491 25.4644 61.4581 25.4644 61.6759C25.4644 61.8938 25.5509 62.1027 25.705 62.2568C25.859 62.4108 26.0679 62.4973 26.2858 62.4973H32.8326V63.3188H29.5715C29.3536 63.3188 29.1447 63.4053 28.9907 63.5594C28.8366 63.7134 28.7501 63.9223 28.7501 64.1402C28.7501 64.3581 28.8366 64.567 28.9907 64.721C29.1447 64.8751 29.3536 64.9616 29.5715 64.9616H39.8393C40.0572 64.9616 40.2661 64.8751 40.4202 64.721C40.5742 64.567 40.6608 64.3581 40.6608 64.1402C40.6608 63.9223 40.5742 63.7134 40.4202 63.5594C40.2661 63.4053 40.0572 63.3188 39.8393 63.3188H36.1676V62.4973H42.7143C42.9322 62.4973 43.1411 62.4108 43.2952 62.2568C43.4492 62.1027 43.5358 61.8938 43.5358 61.6759C43.5358 61.4581 43.4492 61.2491 43.2952 61.0951C43.1411 60.941 42.9322 60.8545 42.7143 60.8545Z" fill="#1E83E6"/>
<path d="M0.821428 59.2102C1.27509 59.2102 1.64286 58.8425 1.64286 58.3888C1.64286 57.9351 1.27509 57.5674 0.821428 57.5674C0.367766 57.5674 0 57.9351 0 58.3888C0 58.8425 0.367766 59.2102 0.821428 59.2102Z" fill="#2D4356"/>
<path d="M4.51792 57.5693H3.28578C3.06793 57.5693 2.85899 57.6559 2.70495 57.8099C2.5509 57.964 2.46436 58.1729 2.46436 58.3908C2.46436 58.6086 2.5509 58.8176 2.70495 58.9716C2.85899 59.1256 3.06793 59.2122 3.28578 59.2122H4.51792C4.73578 59.2122 4.94471 59.1256 5.09876 58.9716C5.25281 58.8176 5.33935 58.6086 5.33935 58.3908C5.33935 58.1729 5.25281 57.964 5.09876 57.8099C4.94471 57.6559 4.73578 57.5693 4.51792 57.5693Z" fill="#2D4356"/>
<path d="M48.5275 60.8545H45.1154C44.9089 60.871 44.7162 60.9648 44.5757 61.117C44.4352 61.2692 44.3572 61.4688 44.3572 61.6759C44.3572 61.8831 44.4352 62.0826 44.5757 62.2349C44.7162 62.3871 44.9089 62.4808 45.1154 62.4973H48.5275C48.734 62.4808 48.9267 62.3871 49.0672 62.2349C49.2078 62.0826 49.2858 61.8831 49.2858 61.6759C49.2858 61.4688 49.2078 61.2692 49.0672 61.117C48.9267 60.9648 48.734 60.871 48.5275 60.8545ZM23.8847 60.8545H20.4726C20.2661 60.871 20.0734 60.9648 19.9329 61.117C19.7924 61.2692 19.7144 61.4688 19.7144 61.6759C19.7144 61.8831 19.7924 62.0826 19.9329 62.2349C20.0734 62.3871 20.2661 62.4808 20.4726 62.4973H23.8847C24.0912 62.4808 24.2839 62.3871 24.4244 62.2349C24.5649 62.0826 24.6429 61.8831 24.6429 61.6759C24.6429 61.4688 24.5649 61.2692 24.4244 61.117C24.2839 60.9648 24.0912 60.871 23.8847 60.8545ZM42.7143 60.8545H26.2858C26.0679 60.8545 25.859 60.941 25.705 61.0951C25.5509 61.2491 25.4644 61.4581 25.4644 61.6759C25.4644 61.8938 25.5509 62.1027 25.705 62.2568C25.859 62.4108 26.0679 62.4973 26.2858 62.4973H32.8326V63.3188H29.5715C29.3536 63.3188 29.1447 63.4053 28.9907 63.5594C28.8366 63.7134 28.7501 63.9223 28.7501 64.1402C28.7501 64.3581 28.8366 64.567 28.9907 64.721C29.1447 64.8751 29.3536 64.9616 29.5715 64.9616H39.8393C40.0572 64.9616 40.2661 64.8751 40.4202 64.721C40.5742 64.567 40.6608 64.3581 40.6608 64.1402C40.6608 63.9223 40.5742 63.7134 40.4202 63.5594C40.2661 63.4053 40.0572 63.3188 39.8393 63.3188H36.1676V62.4973H42.7143C42.9322 62.4973 43.1411 62.4108 43.2952 62.2568C43.4492 62.1027 43.5358 61.8938 43.5358 61.6759C43.5358 61.4581 43.4492 61.2491 43.2952 61.0951C43.1411 60.941 42.9322 60.8545 42.7143 60.8545Z" fill="#1E83E6"/>
<path d="M65.7142 57.5693H64.4821C64.2642 57.5693 64.0553 57.6559 63.9012 57.8099C63.7472 57.964 63.6606 58.1729 63.6606 58.3908C63.6606 58.6086 63.7472 58.8176 63.9012 58.9716C64.0553 59.1256 64.2642 59.2122 64.4821 59.2122H65.7142C65.9321 59.2122 66.141 59.1256 66.2951 58.9716C66.4491 58.8176 66.5356 58.6086 66.5356 58.3908C66.5356 58.1729 66.4491 57.964 66.2951 57.8099C66.141 57.6559 65.9321 57.5693 65.7142 57.5693Z" fill="#2D4356"/>
<path d="M68.1788 59.2102C68.6325 59.2102 69.0003 58.8425 69.0003 58.3888C69.0003 57.9351 68.6325 57.5674 68.1788 57.5674C67.7252 57.5674 67.3574 57.9351 67.3574 58.3888C67.3574 58.8425 67.7252 59.2102 68.1788 59.2102Z" fill="#2D4356"/>
<path d="M61.9035 57.5684H55.5801C55.841 57.1044 55.9817 56.5825 55.9894 56.0503L59.959 21.4444C59.9626 21.4134 59.9644 21.3822 59.9644 21.351C59.9641 20.5003 59.6264 19.6844 59.0253 19.0824C58.4242 18.4804 57.6089 18.1414 56.7581 18.1399H12.2422C11.3915 18.1414 10.5761 18.4804 9.97503 19.0824C9.37393 19.6844 9.03619 20.5003 9.03591 21.351C9.0359 21.3822 9.0377 21.4134 9.04132 21.4444L13.0109 56.0503C13.0186 56.5825 13.1594 57.1044 13.4202 57.5684H7.0968C6.97994 57.5531 6.86117 57.563 6.74841 57.5973C6.63566 57.6315 6.53152 57.6895 6.44296 57.7673C6.35439 57.845 6.28343 57.9408 6.23482 58.0481C6.1862 58.1555 6.16106 58.272 6.16106 58.3898C6.16106 58.5077 6.1862 58.6242 6.23482 58.7315C6.28343 58.8389 6.35439 58.9346 6.44296 59.0124C6.53152 59.0901 6.63566 59.1481 6.74841 59.1824C6.86117 59.2167 6.97994 59.2265 7.0968 59.2112H61.9035C62.0204 59.2265 62.1392 59.2167 62.2519 59.1824C62.3647 59.1481 62.4688 59.0901 62.5574 59.0124C62.646 58.9346 62.7169 58.8389 62.7655 58.7315C62.8141 58.6242 62.8393 58.5077 62.8393 58.3898C62.8393 58.272 62.8141 58.1555 62.7655 58.0481C62.7169 57.9408 62.646 57.845 62.5574 57.7673C62.4688 57.6895 62.3647 57.6315 62.2519 57.5973C62.1392 57.563 62.0204 57.5531 61.9035 57.5684ZM10.6794 21.3089C10.6901 20.9011 10.8593 20.5136 11.1511 20.2287C11.4429 19.9437 11.8343 19.7837 12.2422 19.7827H56.7581C57.166 19.7837 57.5574 19.9437 57.8492 20.2287C58.141 20.5136 58.3102 20.9011 58.321 21.3089L57.9307 24.7113H11.0696L10.6794 21.3089ZM16.2168 57.5684C15.8016 57.5673 15.4039 57.4016 15.1108 57.1076C14.8177 56.8136 14.6532 56.4153 14.6533 56.0001C14.6533 55.9689 14.6515 55.9377 14.6479 55.9067L11.2581 26.3541H57.7423L54.3524 55.9067C54.3488 55.9377 54.347 55.9689 54.347 56.0001C54.3472 56.4153 54.1827 56.8136 53.8896 57.1076C53.5965 57.4016 53.1987 57.5673 52.7836 57.5684H16.2168ZM25.4645 3.28571C25.7082 3.28571 25.9464 3.21345 26.149 3.07806C26.3516 2.94267 26.5096 2.75023 26.6028 2.52509C26.6961 2.29995 26.7205 2.0522 26.6729 1.81319C26.6254 1.57418 26.508 1.35463 26.3357 1.18231C26.1634 1.01 25.9439 0.892646 25.7048 0.845103C25.4658 0.797561 25.2181 0.821961 24.9929 0.915219C24.7678 1.00848 24.5754 1.1664 24.44 1.36903C24.3046 1.57165 24.2323 1.80987 24.2323 2.05357C24.2327 2.38024 24.3626 2.69342 24.5936 2.92441C24.8246 3.1554 25.1378 3.28534 25.4645 3.28571ZM25.4645 1.4375C25.5863 1.4375 25.7054 1.47363 25.8067 1.54133C25.908 1.60902 25.987 1.70524 26.0336 1.81781C26.0803 1.93038 26.0925 2.05425 26.0687 2.17376C26.0449 2.29327 25.9862 2.40304 25.9001 2.4892C25.8139 2.57536 25.7042 2.63403 25.5847 2.6578C25.4651 2.68157 25.3413 2.66937 25.2287 2.62274C25.1161 2.57612 25.0199 2.49715 24.9522 2.39584C24.8845 2.29453 24.8484 2.17542 24.8484 2.05357C24.8486 1.89023 24.9135 1.73362 25.029 1.61812C25.1445 1.50262 25.3011 1.43766 25.4645 1.4375ZM65.0181 26.7649C64.8557 26.7649 64.6969 26.813 64.5618 26.9033C64.4267 26.9935 64.3214 27.1218 64.2592 27.2719C64.1971 27.422 64.1808 27.5872 64.2125 27.7465C64.2442 27.9059 64.3224 28.0522 64.4373 28.1671C64.5522 28.282 64.6986 28.3602 64.8579 28.3919C65.0172 28.4236 65.1824 28.4074 65.3325 28.3452C65.4826 28.283 65.6109 28.1777 65.7011 28.0426C65.7914 27.9076 65.8396 27.7487 65.8396 27.5863C65.8393 27.3685 65.7527 27.1597 65.5987 27.0057C65.4447 26.8517 65.2359 26.7651 65.0181 26.7649ZM65.0181 27.997C64.9369 27.997 64.8575 27.9729 64.79 27.9278C64.7224 27.8826 64.6698 27.8185 64.6387 27.7435C64.6076 27.6684 64.5995 27.5858 64.6153 27.5062C64.6312 27.4265 64.6703 27.3533 64.7277 27.2959C64.7852 27.2384 64.8583 27.1993 64.938 27.1835C65.0177 27.1676 65.1003 27.1757 65.1753 27.2068C65.2504 27.2379 65.3145 27.2906 65.3596 27.3581C65.4048 27.4256 65.4289 27.505 65.4289 27.5863C65.4287 27.6952 65.3854 27.7996 65.3084 27.8766C65.2314 27.9536 65.127 27.9969 65.0181 27.997ZM46.1571 2.46428C45.9946 2.46428 45.8358 2.51246 45.7008 2.60272C45.5657 2.69298 45.4604 2.82127 45.3982 2.97136C45.336 3.12146 45.3198 3.28662 45.3515 3.44596C45.3832 3.6053 45.4614 3.75167 45.5763 3.86655C45.6912 3.98143 45.8375 4.05966 45.9969 4.09136C46.1562 4.12305 46.3214 4.10678 46.4715 4.04461C46.6216 3.98244 46.7498 3.87715 46.8401 3.74207C46.9304 3.60699 46.9785 3.44817 46.9785 3.28571C46.9783 3.06793 46.8917 2.85914 46.7377 2.70515C46.5837 2.55116 46.3749 2.46453 46.1571 2.46428ZM46.1571 3.69642C46.0759 3.69642 45.9965 3.67234 45.9289 3.62721C45.8614 3.58208 45.8087 3.51793 45.7777 3.44288C45.7466 3.36784 45.7384 3.28526 45.7543 3.20558C45.7701 3.12591 45.8093 3.05273 45.8667 2.99529C45.9241 2.93785 45.9973 2.89874 46.077 2.88289C46.1567 2.86704 46.2392 2.87517 46.3143 2.90626C46.3893 2.93735 46.4535 2.98999 46.4986 3.05753C46.5437 3.12507 46.5678 3.20448 46.5678 3.28571C46.5677 3.39461 46.5244 3.49901 46.4474 3.57601C46.3704 3.65301 46.266 3.69632 46.1571 3.69642ZM60.1013 0C59.9389 0 59.7801 0.048176 59.645 0.138436C59.5099 0.228695 59.4046 0.356985 59.3424 0.507081C59.2803 0.657177 59.264 0.822339 59.2957 0.98168C59.3274 1.14102 59.4056 1.28739 59.5205 1.40227C59.6354 1.51714 59.7817 1.59538 59.9411 1.62707C60.1004 1.65877 60.2656 1.6425 60.4157 1.58033C60.5658 1.51816 60.6941 1.41287 60.7843 1.27779C60.8746 1.14271 60.9228 0.983891 60.9228 0.821428C60.9225 0.603648 60.8359 0.394859 60.6819 0.240866C60.5279 0.0868719 60.3191 0.000248931 60.1013 0ZM60.1013 1.23214C60.0201 1.23214 59.9407 1.20805 59.8731 1.16292C59.8056 1.11779 59.753 1.05365 59.7219 0.978601C59.6908 0.903553 59.6827 0.820972 59.6985 0.741301C59.7144 0.661631 59.7535 0.588449 59.8109 0.531009C59.8684 0.47357 59.9415 0.434453 60.0212 0.418606C60.1009 0.402758 60.1835 0.410892 60.2585 0.441978C60.3336 0.473064 60.3977 0.525706 60.4428 0.593247C60.488 0.660789 60.512 0.740196 60.512 0.821428C60.5119 0.930322 60.4686 1.03473 60.3916 1.11173C60.3146 1.18873 60.2102 1.23203 60.1013 1.23214ZM5.12284 20.6041C5.12284 20.4417 5.07466 20.2829 4.9844 20.1478C4.89414 20.0127 4.76585 19.9074 4.61576 19.8452C4.46566 19.7831 4.3005 19.7668 4.14116 19.7985C3.98181 19.8302 3.83545 19.9084 3.72057 20.0233C3.60569 20.1382 3.52746 20.2845 3.49576 20.4439C3.46407 20.6032 3.48034 20.7684 3.54251 20.9185C3.60468 21.0686 3.70996 21.1969 3.84505 21.2871C3.98013 21.3774 4.13895 21.4256 4.30141 21.4256C4.51919 21.4253 4.72798 21.3387 4.88197 21.1847C5.03596 21.0307 5.12259 20.8219 5.12284 20.6041ZM3.89069 20.6041C3.89069 20.5229 3.91478 20.4435 3.95991 20.376C4.00504 20.3084 4.06919 20.2558 4.14424 20.2247C4.21928 20.1936 4.30186 20.1855 4.38154 20.2013C4.46121 20.2172 4.53439 20.2563 4.59183 20.3137C4.64927 20.3712 4.68838 20.4443 4.70423 20.524C4.72008 20.6037 4.71194 20.6863 4.68086 20.7613C4.64977 20.8364 4.59713 20.9005 4.52959 20.9456C4.46205 20.9908 4.38264 21.0149 4.30141 21.0149C4.19251 21.0147 4.08811 20.9714 4.01111 20.8944C3.93411 20.8174 3.8908 20.713 3.89069 20.6041Z" fill="#2D4356"/>
<path d="M3.33143 3.62789L3.94175 2.82453L3.55609 2.60645L3.16427 3.50591H3.15113L2.75314 2.61261L2.3605 2.83768L2.96507 3.62173V3.63446L2.02002 3.51207V3.94907L2.97123 3.82709V3.84023L2.3605 4.62387L2.72686 4.85551L3.14496 3.94907H3.1577L3.54336 4.84894L3.94832 4.61771L3.33143 3.84639V3.83366L4.30153 3.94907V3.51207L3.33143 3.64062V3.62789Z" fill="#1E83E6"/>
<path d="M17.1412 11.6324L16.7897 12.0838L17.0008 12.2169L17.2414 11.6948H17.2488L17.4706 12.2132L17.7039 12.0801L17.3486 11.6357V11.6283L17.9072 11.6948V11.4435L17.3486 11.5174V11.51L17.7002 11.0476L17.4784 10.9219L17.2525 11.4398H17.2451L17.016 10.9252L16.7897 11.0549L17.1379 11.5063V11.5137L16.5938 11.4435V11.6948L17.1412 11.6246V11.6324Z" fill="#1E83E6"/>
<path d="M65.7259 12.4309V12.0021L64.7742 12.1282V12.1154L65.373 11.3277L64.9948 11.1133L64.6104 11.9955H64.5976L64.207 11.1194L63.8222 11.3404L64.4149 12.1093V12.122L63.4883 12.0021V12.4309L64.421 12.3109V12.3237L63.8222 13.0925L64.1816 13.3196L64.5915 12.4309H64.6038L64.9821 13.3131L65.3792 13.0864L64.7742 12.3298V12.3171L65.7259 12.4309Z" fill="#1E83E6"/>
<path d="M48.9177 13.5723L49.4582 12.9115L49.1387 12.7152L48.7801 13.4639L48.769 13.4635L48.4593 12.6963L48.1205 12.8749L48.608 13.5559V13.567L47.8125 13.4352L47.7993 13.8048L48.6072 13.7301V13.7411L48.0671 14.3856L48.3702 14.5921L48.7505 13.8385L48.7612 13.8389L49.0606 14.611L49.4097 14.4274L48.9111 13.7572L48.9115 13.7461L49.7284 13.873L49.7416 13.5033L48.9173 13.583L48.9177 13.5723Z" fill="#1E83E6"/>
</svg>
