<svg width="59" height="59" viewBox="0 0 59 59" fill="none" xmlns="http://www.w3.org/2000/svg">
<path d="M46.6143 5.92003C46.8243 5.92003 47.0295 5.85777 47.2041 5.74112C47.3787 5.62447 47.5148 5.45866 47.5951 5.26468C47.6755 5.0707 47.6965 4.85724 47.6555 4.65131C47.6146 4.44538 47.5135 4.25621 47.365 4.10774C47.2165 3.95928 47.0274 3.85817 46.8214 3.8172C46.6155 3.77624 46.402 3.79727 46.2081 3.87762C46.0141 3.95797 45.8483 4.09404 45.7316 4.26862C45.615 4.4432 45.5527 4.64845 45.5527 4.85842C45.553 5.13988 45.665 5.40972 45.864 5.60874C46.063 5.80776 46.3329 5.91971 46.6143 5.92003ZM46.6143 4.32761C46.7193 4.32761 46.8219 4.35874 46.9092 4.41707C46.9965 4.47539 47.0645 4.5583 47.1047 4.65529C47.1449 4.75228 47.1554 4.85901 47.1349 4.96197C47.1144 5.06494 47.0639 5.15952 46.9897 5.23376C46.9154 5.30799 46.8208 5.35854 46.7179 5.37903C46.6149 5.39951 46.5082 5.389 46.4112 5.34882C46.3142 5.30864 46.2313 5.24061 46.173 5.15332C46.1146 5.06603 46.0835 4.9634 46.0835 4.85842C46.0836 4.71768 46.1396 4.58275 46.2391 4.48323C46.3386 4.38372 46.4736 4.32775 46.6143 4.32761ZM56.9843 18.6594C56.8443 18.6594 56.7075 18.7009 56.5911 18.7787C56.4747 18.8564 56.384 18.967 56.3304 19.0963C56.2768 19.2256 56.2628 19.3679 56.2901 19.5052C56.3174 19.6425 56.3848 19.7686 56.4838 19.8676C56.5828 19.9666 56.7089 20.034 56.8462 20.0613C56.9835 20.0886 57.1258 20.0746 57.2551 20.021C57.3844 19.9674 57.495 19.8767 57.5727 19.7603C57.6505 19.6439 57.692 19.5071 57.692 19.3671C57.6918 19.1795 57.6172 18.9996 57.4845 18.8669C57.3518 18.7342 57.1719 18.6596 56.9843 18.6594ZM56.9843 19.721C56.9143 19.721 56.8459 19.7002 56.7877 19.6614C56.7295 19.6225 56.6841 19.5672 56.6573 19.5025C56.6306 19.4379 56.6235 19.3667 56.6372 19.2981C56.6509 19.2294 56.6846 19.1664 56.734 19.1169C56.7835 19.0674 56.8466 19.0337 56.9152 19.0201C56.9839 19.0064 57.055 19.0134 57.1197 19.0402C57.1843 19.067 57.2396 19.1123 57.2785 19.1705C57.3174 19.2287 57.3381 19.2971 57.3381 19.3671C57.338 19.4609 57.3007 19.5509 57.2344 19.6172C57.168 19.6836 57.0781 19.7209 56.9843 19.721ZM26.7974 0.761719C26.6574 0.761719 26.5206 0.803227 26.4042 0.880995C26.2878 0.958762 26.1971 1.0693 26.1435 1.19862C26.09 1.32794 26.076 1.47025 26.1033 1.60753C26.1306 1.74482 26.198 1.87093 26.297 1.96991C26.3959 2.06889 26.5221 2.13629 26.6593 2.1636C26.7966 2.19091 26.9389 2.1769 27.0683 2.12333C27.1976 2.06976 27.3081 1.97905 27.3859 1.86266C27.4636 1.74627 27.5052 1.60944 27.5052 1.46946C27.5049 1.28182 27.4303 1.10193 27.2976 0.969248C27.1649 0.836568 26.9851 0.761933 26.7974 0.761719ZM26.7974 1.82333C26.7274 1.82333 26.659 1.80258 26.6008 1.76369C26.5426 1.72481 26.4973 1.66954 26.4705 1.60488C26.4437 1.54022 26.4367 1.46907 26.4503 1.40042C26.464 1.33178 26.4977 1.26873 26.5472 1.21924C26.5967 1.16975 26.6597 1.13604 26.7284 1.12239C26.797 1.10873 26.8682 1.11574 26.9328 1.14253C26.9975 1.16931 27.0528 1.21467 27.0916 1.27286C27.1305 1.33105 27.1513 1.39947 27.1513 1.46946C27.1512 1.56328 27.1139 1.65324 27.0475 1.71958C26.9812 1.78593 26.8912 1.82324 26.7974 1.82333ZM58.2919 3.08906C58.1519 3.08906 58.0151 3.13057 57.8987 3.20834C57.7823 3.28611 57.6916 3.39664 57.6381 3.52596C57.5845 3.65529 57.5705 3.79759 57.5978 3.93488C57.6251 4.07217 57.6925 4.19828 57.7915 4.29725C57.8905 4.39623 58.0166 4.46364 58.1539 4.49095C58.2911 4.51826 58.4334 4.50424 58.5628 4.45067C58.6921 4.39711 58.8026 4.30639 58.8804 4.19001C58.9582 4.07362 58.9997 3.93678 58.9997 3.79681C58.9995 3.60917 58.9248 3.42927 58.7921 3.29659C58.6595 3.16391 58.4796 3.08928 58.2919 3.08906ZM58.2919 4.15068C58.2219 4.15068 58.1535 4.12992 58.0953 4.09104C58.0371 4.05216 57.9918 3.99689 57.965 3.93223C57.9382 3.86756 57.9312 3.79641 57.9449 3.72777C57.9585 3.65912 57.9922 3.59607 58.0417 3.54658C58.0912 3.49709 58.1542 3.46339 58.2229 3.44973C58.2915 3.43608 58.3627 3.44309 58.4273 3.46987C58.492 3.49666 58.5473 3.54201 58.5862 3.60021C58.625 3.6584 58.6458 3.72682 58.6458 3.79681C58.6457 3.89063 58.6084 3.98058 58.542 4.04693C58.4757 4.11327 58.3857 4.15058 58.2919 4.15068ZM14.0581 9.45874C14.0581 9.31876 14.0166 9.18193 13.9388 9.06554C13.861 8.94915 13.7505 8.85844 13.6212 8.80487C13.4918 8.7513 13.3495 8.73729 13.2122 8.7646C13.075 8.79191 12.9489 8.85931 12.8499 8.95829C12.7509 9.05727 12.6835 9.18338 12.6562 9.32067C12.6289 9.45796 12.6429 9.60026 12.6965 9.72958C12.75 9.8589 12.8407 9.96944 12.9571 10.0472C13.0735 10.125 13.2103 10.1665 13.3503 10.1665C13.538 10.1663 13.7179 10.0916 13.8505 9.95895C13.9832 9.82627 14.0578 9.64638 14.0581 9.45874ZM12.9964 9.45874C12.9964 9.38875 13.0172 9.32033 13.0561 9.26214C13.095 9.20395 13.1502 9.15859 13.2149 9.13181C13.2796 9.10502 13.3507 9.09801 13.4194 9.11167C13.488 9.12532 13.5511 9.15903 13.6005 9.20852C13.65 9.25801 13.6837 9.32106 13.6974 9.3897C13.711 9.45835 13.704 9.5295 13.6773 9.59416C13.6505 9.65882 13.6051 9.71409 13.5469 9.75297C13.4887 9.79186 13.4203 9.81261 13.3503 9.81261C13.2565 9.81252 13.1665 9.7752 13.1002 9.70886C13.0339 9.64252 12.9965 9.55256 12.9964 9.45874Z" fill="#2D4356"/>
<path d="M3.23502 16.4478L3.76123 15.7556L3.42895 15.5674L3.09135 16.3424H3.08003L2.73713 15.573L2.39883 15.7666L2.91973 16.4422V16.4535L2.10547 16.348V16.7245L2.92503 16.6194V16.6304L2.39883 17.306L2.71448 17.5052L3.07472 16.7245H3.08534L3.41762 17.4999L3.76654 17.3003L3.23502 16.6361V16.6247L4.07087 16.7245V16.348L3.23502 16.4588V16.4478Z" fill="#1E83E6"/>
<path d="M8.88613 2.08192L8.58321 2.47083L8.76475 2.58548L8.97212 2.13607H8.97849L9.16993 2.5823L9.37093 2.46764L9.06483 2.08475V2.07838L9.5461 2.13607V1.91914L9.06483 1.98284V1.97647L9.36774 1.57801L9.1763 1.46973L8.98167 1.91596H8.9753L8.77784 1.47256L8.58321 1.58438L8.88294 1.97328V1.97965L8.41406 1.91914V2.13607L8.88613 2.07555V2.08192Z" fill="#1E83E6"/>
<path d="M52.8849 11.8282V11.4591L52.065 11.5678V11.5568L52.5813 10.8781L52.2554 10.6934L51.9242 11.4535H51.9128L51.5767 10.6987L51.2447 10.8891L51.7557 11.5515V11.5625L50.957 11.4591V11.8282L51.761 11.7252V11.7362L51.2447 12.3987L51.5544 12.5944L51.9079 11.8282H51.9181L52.2441 12.5887L52.5866 12.3934L52.065 11.7415V11.7306L52.8849 11.8282Z" fill="#1E83E6"/>
<path d="M33.7683 8.67521L34.2135 8.08991L33.9325 7.93066L33.6466 8.58639H33.637L33.3468 7.93526L33.0609 8.09911L33.5015 8.67061V8.68016L32.8125 8.59099V8.90947L33.5061 8.82065V8.82985L33.0609 9.40135L33.3277 9.57015L33.6324 8.90947H33.6416L33.9229 9.56555L34.2181 9.39675L33.7683 8.83445V8.82525L34.4757 8.90947V8.59099L33.7683 8.68476V8.67521Z" fill="#1E83E6"/>
<path d="M1.67259 54.0463C2.06346 54.0463 2.38033 53.7295 2.38033 53.3386C2.38033 52.9477 2.06346 52.6309 1.67259 52.6309C1.28171 52.6309 0.964844 52.9477 0.964844 53.3386C0.964844 53.7295 1.28171 54.0463 1.67259 54.0463Z" fill="#2D4356"/>
<path d="M4.85724 52.6309H3.79563C3.60793 52.6309 3.42791 52.7054 3.29518 52.8382C3.16246 52.9709 3.08789 53.1509 3.08789 53.3386C3.08789 53.5263 3.16246 53.7063 3.29518 53.8391C3.42791 53.9718 3.60793 54.0463 3.79563 54.0463H4.85724C5.04495 54.0463 5.22497 53.9718 5.35769 53.8391C5.49042 53.7063 5.56499 53.5263 5.56499 53.3386C5.56499 53.1509 5.49042 52.9709 5.35769 52.8382C5.22497 52.7054 5.04495 52.6309 4.85724 52.6309ZM57.584 52.6309H56.5224C56.3347 52.6309 56.1547 52.7054 56.0219 52.8382C55.8892 52.9709 55.8147 53.1509 55.8147 53.3386C55.8147 53.5263 55.8892 53.7063 56.0219 53.8391C56.1547 53.9718 56.3347 54.0463 56.5224 54.0463H57.584C57.7717 54.0463 57.9517 53.9718 58.0845 53.8391C58.2172 53.7063 58.2917 53.5263 58.2917 53.3386C58.2917 53.1509 58.2172 52.9709 58.0845 52.8382C57.9517 52.7054 57.7717 52.6309 57.584 52.6309Z" fill="#2D4356"/>
<path d="M42.7766 55.4619H39.8367C39.6588 55.4762 39.4928 55.5569 39.3717 55.6881C39.2507 55.8192 39.1834 55.9912 39.1834 56.1697C39.1834 56.3481 39.2507 56.5201 39.3717 56.6512C39.4928 56.7824 39.6588 56.8631 39.8367 56.8774H42.7766C42.9545 56.8631 43.1205 56.7824 43.2416 56.6512C43.3627 56.5201 43.4299 56.3481 43.4299 56.1697C43.4299 55.9912 43.3627 55.8192 43.2416 55.6881C43.1205 55.5569 42.9545 55.4762 42.7766 55.4619ZM21.5443 55.4619H18.6045C18.4266 55.4762 18.2605 55.5569 18.1395 55.6881C18.0184 55.8192 17.9512 55.9912 17.9512 56.1697C17.9512 56.3481 18.0184 56.5201 18.1395 56.6512C18.2605 56.7824 18.4266 56.8631 18.6045 56.8774H21.5443C21.7223 56.8631 21.8883 56.7824 22.0093 56.6512C22.1304 56.5201 22.1976 56.3481 22.1976 56.1697C22.1976 55.9912 22.1304 55.8192 22.0093 55.6881C21.8883 55.5569 21.7223 55.4762 21.5443 55.4619ZM37.768 55.4619H23.6131C23.4254 55.4619 23.2454 55.5365 23.1127 55.6692C22.9799 55.8019 22.9054 55.982 22.9054 56.1697C22.9054 56.3574 22.9799 56.5374 23.1127 56.6701C23.2454 56.8028 23.4254 56.8774 23.6131 56.8774H29.2538V57.5851H26.4441C26.2564 57.5851 26.0764 57.6597 25.9436 57.7924C25.8109 57.9252 25.7363 58.1052 25.7363 58.2929C25.7363 58.4806 25.8109 58.6606 25.9436 58.7933C26.0764 58.9261 26.2564 59.0006 26.4441 59.0006H35.2909C35.4786 59.0006 35.6586 58.9261 35.7913 58.7933C35.924 58.6606 35.9986 58.4806 35.9986 58.2929C35.9986 58.1052 35.924 57.9252 35.7913 57.7924C35.6586 57.6597 35.4786 57.5851 35.2909 57.5851H32.1272V56.8774H37.768C37.9557 56.8774 38.1357 56.8028 38.2684 56.6701C38.4011 56.5374 38.4757 56.3574 38.4757 56.1697C38.4757 55.982 38.4011 55.8019 38.2684 55.6692C38.1357 55.5365 37.9557 55.4619 37.768 55.4619Z" fill="#1E83E6"/>
<path d="M1.67259 54.0463C2.06346 54.0463 2.38033 53.7295 2.38033 53.3386C2.38033 52.9477 2.06346 52.6309 1.67259 52.6309C1.28171 52.6309 0.964844 52.9477 0.964844 53.3386C0.964844 53.7295 1.28171 54.0463 1.67259 54.0463Z" fill="#2D4356"/>
<path d="M4.85724 52.6309H3.79563C3.60793 52.6309 3.42791 52.7054 3.29518 52.8382C3.16246 52.9709 3.08789 53.1509 3.08789 53.3386C3.08789 53.5263 3.16246 53.7063 3.29518 53.8391C3.42791 53.9718 3.60793 54.0463 3.79563 54.0463H4.85724C5.04495 54.0463 5.22497 53.9718 5.35769 53.8391C5.49042 53.7063 5.56499 53.5263 5.56499 53.3386C5.56499 53.1509 5.49042 52.9709 5.35769 52.8382C5.22497 52.7054 5.04495 52.6309 4.85724 52.6309ZM57.584 52.6309H56.5224C56.3347 52.6309 56.1547 52.7054 56.0219 52.8382C55.8892 52.9709 55.8147 53.1509 55.8147 53.3386C55.8147 53.5263 55.8892 53.7063 56.0219 53.8391C56.1547 53.9718 56.3347 54.0463 56.5224 54.0463H57.584C57.7717 54.0463 57.9517 53.9718 58.0845 53.8391C58.2172 53.7063 58.2917 53.5263 58.2917 53.3386C58.2917 53.1509 58.2172 52.9709 58.0845 52.8382C57.9517 52.7054 57.7717 52.6309 57.584 52.6309Z" fill="#2D4356"/>
<path d="M42.7766 55.4619H39.8367C39.6588 55.4762 39.4928 55.5569 39.3717 55.6881C39.2507 55.8192 39.1834 55.9912 39.1834 56.1697C39.1834 56.3481 39.2507 56.5201 39.3717 56.6512C39.4928 56.7824 39.6588 56.8631 39.8367 56.8774H42.7766C42.9545 56.8631 43.1205 56.7824 43.2416 56.6512C43.3627 56.5201 43.4299 56.3481 43.4299 56.1697C43.4299 55.9912 43.3627 55.8192 43.2416 55.6881C43.1205 55.5569 42.9545 55.4762 42.7766 55.4619ZM21.5443 55.4619H18.6045C18.4266 55.4762 18.2605 55.5569 18.1395 55.6881C18.0184 55.8192 17.9512 55.9912 17.9512 56.1697C17.9512 56.3481 18.0184 56.5201 18.1395 56.6512C18.2605 56.7824 18.4266 56.8631 18.6045 56.8774H21.5443C21.7223 56.8631 21.8883 56.7824 22.0093 56.6512C22.1304 56.5201 22.1976 56.3481 22.1976 56.1697C22.1976 55.9912 22.1304 55.8192 22.0093 55.6881C21.8883 55.5569 21.7223 55.4762 21.5443 55.4619ZM37.768 55.4619H23.6131C23.4254 55.4619 23.2454 55.5365 23.1127 55.6692C22.9799 55.8019 22.9054 55.982 22.9054 56.1697C22.9054 56.3574 22.9799 56.5374 23.1127 56.6701C23.2454 56.8028 23.4254 56.8774 23.6131 56.8774H29.2538V57.5851H26.4441C26.2564 57.5851 26.0764 57.6597 25.9436 57.7924C25.8109 57.9252 25.7363 58.1052 25.7363 58.2929C25.7363 58.4806 25.8109 58.6606 25.9436 58.7933C26.0764 58.9261 26.2564 59.0006 26.4441 59.0006H35.2909C35.4786 59.0006 35.6586 58.9261 35.7913 58.7933C35.924 58.6606 35.9986 58.4806 35.9986 58.2929C35.9986 58.1052 35.924 57.9252 35.7913 57.7924C35.6586 57.6597 35.4786 57.5851 35.2909 57.5851H32.1272V56.8774H37.768C37.9557 56.8774 38.1357 56.8028 38.2684 56.6701C38.4011 56.5374 38.4757 56.3574 38.4757 56.1697C38.4757 55.982 38.4011 55.8019 38.2684 55.6692C38.1357 55.5365 37.9557 55.4619 37.768 55.4619Z" fill="#1E83E6"/>
<path d="M31.2196 51.4334C31.8511 51.4334 32.363 50.9214 32.363 50.2899C32.363 49.6584 31.8511 49.1465 31.2196 49.1465C30.5881 49.1465 30.0762 49.6584 30.0762 50.2899C30.0762 50.9214 30.5881 51.4334 31.2196 51.4334Z" fill="#1E83E6"/>
<path d="M40.0517 35.8143C39.8655 36.2539 39.5954 36.653 39.2565 36.9893C39.088 37.1571 38.9029 37.3092 38.7068 37.4414C38.3248 37.699 37.8979 37.8828 37.4482 37.9832H33.7619C33.5693 37.9832 33.3846 38.0597 33.2484 38.1959C33.1122 38.3321 33.0357 38.5168 33.0357 38.7094C33.0357 38.902 33.1122 39.0867 33.2484 39.2229C33.3846 39.3591 33.5693 39.4356 33.7619 39.4356H37.5249C37.5735 39.4356 37.6222 39.4305 37.6697 39.4211C38.3307 39.2867 38.9588 39.0234 39.518 38.6462C40.0672 38.2763 40.5406 37.8047 40.9127 37.2569C41.4903 36.4075 41.7982 35.4036 41.7961 34.3764C41.7976 33.3493 41.4897 32.3455 40.9127 31.4958C40.5407 30.9478 40.0673 30.4761 39.518 30.1062C38.9586 29.7298 38.331 29.4667 37.6705 29.3317C37.5815 29.3135 37.4907 29.3041 37.4007 29.2906C36.4733 26.7075 34.0005 24.9424 31.2202 24.9424C28.4394 24.9424 25.967 26.7078 25.04 29.291C24.9499 29.3044 24.8592 29.3139 24.7702 29.332C24.1094 29.4665 23.4815 29.7296 22.9223 30.1066C22.0929 30.6648 21.4429 31.4512 21.0509 32.3709C20.7817 33.0051 20.6435 33.6871 20.6445 34.376C20.6445 34.725 20.6798 35.0739 20.7495 35.4138C20.9534 36.4014 21.4435 37.3071 22.1587 38.018C22.6298 38.4876 23.1871 38.8619 23.8 39.1204C24.1115 39.2519 24.438 39.3528 24.7698 39.4204C25.1121 39.49 25.4605 39.525 25.8098 39.5249H28.6776C28.8703 39.5249 29.055 39.4484 29.1912 39.3122C29.3274 39.176 29.4039 38.9913 29.4039 38.7987C29.4039 38.6061 29.3274 38.4214 29.1912 38.2852C29.055 38.149 28.8703 38.0725 28.6776 38.0725H25.8098C25.0703 38.0746 24.3471 37.8547 23.7339 37.4414C23.3385 37.1754 22.9979 36.836 22.7302 36.4418C22.3167 35.8323 22.096 35.1125 22.097 34.376C22.0949 33.6394 22.3155 32.9193 22.7299 32.3103C22.9978 31.9165 23.3383 31.5773 23.7332 31.311C23.932 31.1773 24.1432 31.063 24.3639 30.9697C24.5884 30.8752 24.8217 30.8031 25.0603 30.7543C25.555 30.6547 26.0646 30.6547 26.5593 30.7543C27.2701 30.8991 27.9227 31.2496 28.4358 31.7623C28.7743 32.0993 29.0445 32.4985 29.2314 32.9381C29.4245 33.3927 29.5235 33.8817 29.5226 34.3757C29.5226 34.5683 29.5991 34.753 29.7353 34.8892C29.8715 35.0254 30.0562 35.1019 30.2488 35.1019C30.4414 35.1019 30.6262 35.0254 30.7623 34.8892C30.8985 34.753 30.9751 34.5683 30.9751 34.3757C30.975 33.6868 30.8367 33.005 30.5684 32.3706C30.3086 31.7583 29.9325 31.2022 29.4609 30.7333C28.7461 30.0209 27.8384 29.5335 26.8497 29.3313C26.7709 29.3153 26.6903 29.3073 26.6105 29.295C27.4492 27.5513 29.2328 26.3941 31.2194 26.3941C33.206 26.3941 34.9896 27.5513 35.8288 29.2946C35.7492 29.307 35.6686 29.3146 35.5902 29.3306C34.9294 29.4652 34.3016 29.7283 33.7423 30.1051C33.5825 30.2126 33.472 30.3792 33.435 30.5683C33.398 30.7573 33.4376 30.9533 33.5452 31.1131C33.6527 31.2729 33.8193 31.3835 34.0083 31.4204C34.1974 31.4574 34.3933 31.4178 34.5531 31.3103C34.9549 31.0397 35.406 30.8506 35.8807 30.754C36.3754 30.6545 36.8849 30.6545 37.3796 30.754C38.0904 30.8987 38.743 31.2493 39.2562 31.762C39.7696 32.2717 40.1214 32.9216 40.2674 33.6302C40.3687 34.1218 40.3687 34.6288 40.2674 35.1204C40.2187 35.3583 40.1465 35.5907 40.0517 35.8143Z" fill="#2D4356"/>
<path d="M31.2196 17.49C31.8511 17.49 32.363 16.9781 32.363 16.3466C32.363 15.7151 31.8511 15.2031 31.2196 15.2031C30.5881 15.2031 30.0762 15.7151 30.0762 16.3466C30.0762 16.9781 30.5881 17.49 31.2196 17.49Z" fill="#1E83E6"/>
<path d="M48.1903 34.4617C48.8218 34.4617 49.3338 33.9497 49.3338 33.3182C49.3338 32.6867 48.8218 32.1748 48.1903 32.1748C47.5588 32.1748 47.0469 32.6867 47.0469 33.3182C47.0469 33.9497 47.5588 34.4617 48.1903 34.4617Z" fill="#1E83E6"/>
<path d="M14.247 34.4617C14.8785 34.4617 15.3904 33.9497 15.3904 33.3182C15.3904 32.6867 14.8785 32.1748 14.247 32.1748C13.6155 32.1748 13.1035 32.6867 13.1035 33.3182C13.1035 33.9497 13.6155 34.4617 14.247 34.4617Z" fill="#1E83E6"/>
<path d="M17.841 27.6669C17.794 27.7773 17.7752 27.8976 17.7861 28.0171C17.7971 28.1365 17.8375 28.2514 17.9037 28.3514C17.9699 28.4515 18.0599 28.5335 18.1656 28.5902C18.2714 28.6469 18.3895 28.6765 18.5094 28.6764C18.7923 28.6764 19.0614 28.5101 19.1787 28.233C19.8347 26.6804 20.7859 25.2699 21.9793 24.0797C23.1694 22.8862 24.58 21.9352 26.1326 21.2794C26.3087 21.2035 26.4476 21.0611 26.519 20.8831C26.5904 20.7052 26.5886 20.5063 26.5139 20.3297C26.4393 20.1531 26.2978 20.0132 26.1204 19.9405C25.9429 19.8679 25.744 19.8683 25.5669 19.9417C23.8419 20.6704 22.2748 21.727 20.9525 23.0529C19.6261 24.3747 18.5693 25.9418 17.841 27.6669ZM21.979 42.557C20.7857 41.3667 19.8346 39.9562 19.1783 38.4038C19.1416 38.3153 19.0878 38.2349 19.0199 38.1673C18.952 38.0997 18.8714 38.0462 18.7828 38.0099C18.6941 37.9736 18.5992 37.9552 18.5034 37.9557C18.4076 37.9563 18.3128 37.9758 18.2246 38.0131C18.1364 38.0504 18.0564 38.1048 17.9893 38.1731C17.9222 38.2415 17.8692 38.3225 17.8335 38.4114C17.7979 38.5003 17.7801 38.5953 17.7813 38.6911C17.7825 38.7869 17.8027 38.8815 17.8406 38.9695C18.5719 40.6983 19.6184 42.2509 20.9517 43.5839C22.2851 44.9169 23.8374 45.9637 25.5662 46.695C25.654 46.7322 25.7483 46.7517 25.8437 46.7524C25.9391 46.7531 26.0337 46.735 26.1221 46.6991C26.2105 46.6632 26.2909 46.6103 26.3589 46.5434C26.4268 46.4764 26.4809 46.3967 26.518 46.3089C26.5552 46.221 26.5747 46.1267 26.5754 46.0313C26.5761 45.9359 26.558 45.8413 26.5221 45.7529C26.4862 45.6646 26.4333 45.5841 26.3664 45.5161C26.2994 45.4482 26.2197 45.3941 26.1319 45.357C24.5794 44.7012 23.169 43.7503 21.979 42.557ZM44.5946 38.9695C44.6319 38.8817 44.6514 38.7874 44.6522 38.692C44.6529 38.5966 44.6349 38.502 44.599 38.4136C44.5632 38.3252 44.5102 38.2447 44.4433 38.1768C44.3763 38.1089 44.2965 38.0548 44.2087 38.0178C44.1208 37.9805 44.0265 37.9609 43.9311 37.9601C43.8357 37.9593 43.7411 37.9774 43.6527 38.0132C43.5643 38.0491 43.4838 38.1021 43.4159 38.1691C43.348 38.2361 43.294 38.3158 43.2569 38.4038C42.6009 39.9563 41.6499 41.3668 40.4566 42.557C39.2665 43.7504 37.8559 44.7015 36.3034 45.3573C36.1488 45.4225 36.0215 45.5391 35.9432 45.6874C35.8649 45.8358 35.8403 46.0066 35.8737 46.171C35.9071 46.3354 35.9963 46.4831 36.1262 46.5892C36.2562 46.6952 36.4188 46.753 36.5866 46.7528C36.6836 46.7527 36.7797 46.7332 36.8691 46.6954C38.5941 45.9666 40.1613 44.9101 41.4839 43.5843C42.8096 42.2618 43.866 40.6945 44.5946 38.9695ZM43.9261 28.676C44.046 28.6759 44.164 28.6462 44.2695 28.5895C44.3751 28.5328 44.465 28.4508 44.5312 28.3509C44.5974 28.2509 44.6378 28.1362 44.6489 28.0169C44.66 27.8975 44.6413 27.7773 44.5946 27.6669C43.8662 25.9418 42.8096 24.3747 41.4835 23.0525C40.1611 21.7267 38.594 20.6701 36.8691 19.9414C36.7813 19.9041 36.687 19.8846 36.5916 19.8838C36.4962 19.8831 36.4016 19.9011 36.3132 19.937C36.2248 19.9728 36.1443 20.0258 36.0764 20.0927C36.0085 20.1597 35.9544 20.2395 35.9174 20.3274C35.8801 20.4152 35.8606 20.5095 35.8598 20.6049C35.8591 20.7003 35.8771 20.7949 35.913 20.8833C35.9488 20.9717 36.0018 21.0521 36.0688 21.12C36.1357 21.188 36.2155 21.242 36.3034 21.2791C37.8558 21.9352 39.2663 22.8862 40.4566 24.0794C41.65 25.2695 42.6011 26.68 43.2569 28.2326C43.3126 28.3641 43.4057 28.4763 43.5248 28.5551C43.6438 28.634 43.7834 28.676 43.9261 28.676Z" fill="#1E83E6"/>
<path d="M18.1533 33.3183C18.1533 31.4458 16.8283 29.8782 15.0672 29.4999C15.2784 28.5967 15.5653 27.7129 15.9249 26.8579C16.7597 24.8865 17.9677 23.095 19.4823 21.5819C20.9955 20.0673 22.7871 18.8593 24.7586 18.0245C24.8465 17.9874 24.9262 17.9333 24.9931 17.8654C25.0601 17.7974 25.113 17.717 25.1489 17.6286C25.1847 17.5402 25.2028 17.4456 25.2021 17.3503C25.2013 17.2549 25.1818 17.1606 25.1446 17.0728C25.1075 16.9849 25.0535 16.9051 24.9856 16.8382C24.9177 16.7712 24.8372 16.7182 24.7488 16.6824C24.6604 16.6465 24.5658 16.6285 24.4704 16.6292C24.375 16.63 24.2807 16.6495 24.1929 16.6868C22.0489 17.5941 20.1007 18.9075 18.4554 20.5546C17.6377 21.3727 16.8999 22.267 16.252 23.2253C15.5996 24.1913 15.0422 25.2183 14.5879 26.2918C14.1553 27.3184 13.8192 28.383 13.5839 29.4719C11.7444 29.7889 10.3398 31.3906 10.3398 33.3183C10.3398 35.4727 12.0926 37.2251 14.2466 37.2251C16.4005 37.2251 18.1533 35.4727 18.1533 33.3183ZM14.2466 35.7726C12.8932 35.7726 11.7923 34.6717 11.7923 33.3183C11.7923 31.965 12.8932 30.8641 14.2466 30.8641C15.5999 30.8641 16.7008 31.965 16.7008 33.3183C16.7008 34.6717 15.5999 35.7726 14.2466 35.7726ZM52.0976 33.3183C52.0976 31.164 50.3449 29.4116 48.1906 29.4116C46.0362 29.4116 44.2842 31.164 44.2842 33.3183C44.2842 35.1909 45.6092 36.7585 47.3703 37.1368C47.1594 38.04 46.8726 38.9238 46.513 39.7788C46.095 40.7656 45.5824 41.7096 44.9825 42.5977C43.7877 44.3648 42.2656 45.8869 40.4984 47.0817C39.6103 47.6817 38.6662 48.1941 37.6792 48.6119C37.5062 48.6897 37.3704 48.8322 37.3011 49.0089C37.2318 49.1855 37.2344 49.3823 37.3083 49.5571C37.3823 49.7319 37.5217 49.8708 37.6967 49.944C37.8718 50.0173 38.0685 50.0192 38.2449 49.9492C40.3887 49.0417 42.3369 47.7283 43.9821 46.0813C44.7999 45.2633 45.5377 44.369 46.1855 43.4107C46.8382 42.4447 47.3956 41.4178 47.85 40.3442C48.2826 39.3176 48.6188 38.253 48.854 37.1641C50.6928 36.8478 52.0976 35.2461 52.0976 33.3183ZM48.1906 35.7726C46.8372 35.7726 45.7363 34.6717 45.7363 33.3183C45.7363 31.965 46.8372 30.8641 48.1906 30.8641C49.5442 30.8641 50.6452 31.965 50.6452 33.3183C50.6452 34.6717 49.5442 35.7726 48.1906 35.7726ZM31.2187 20.2529C33.0913 20.2529 34.6589 18.9279 35.0372 17.1668C35.9404 17.3779 36.8242 17.6648 37.6792 18.0245C39.6507 18.8592 41.4422 20.0672 42.9552 21.5819C44.4698 23.0951 45.6777 24.8868 46.5126 26.8582C46.5493 26.9467 46.6032 27.0271 46.671 27.0947C46.7389 27.1623 46.8195 27.2158 46.9082 27.2521C46.9968 27.2884 47.0918 27.3068 47.1876 27.3063C47.2834 27.3057 47.3781 27.2862 47.4663 27.2489C47.5546 27.2116 47.6345 27.1572 47.7016 27.0888C47.7688 27.0205 47.8217 26.9395 47.8574 26.8506C47.8931 26.7617 47.9108 26.6667 47.9096 26.5709C47.9084 26.4751 47.8883 26.3805 47.8503 26.2925C47.3958 25.219 46.8384 24.192 46.1858 23.226C45.538 22.2677 44.8002 21.3733 43.9825 20.555C43.1641 19.7374 42.2697 18.9996 41.3114 18.3516C40.3455 17.699 39.3185 17.1417 38.2449 16.6875C37.2183 16.2549 36.1537 15.9188 35.0648 15.6835C34.7482 13.8443 33.1465 12.4395 31.2187 12.4395C29.0644 12.4395 27.312 14.1922 27.312 16.3462C27.312 18.5001 29.0644 20.2529 31.2187 20.2529ZM31.2187 13.8919C32.5721 13.8919 33.673 14.9929 33.673 16.3462C33.673 17.6995 32.5721 18.8004 31.2187 18.8004C29.8654 18.8004 28.7645 17.6995 28.7645 16.3462C28.7645 14.9929 29.8654 13.8919 31.2187 13.8919ZM31.2187 46.3838C29.3462 46.3838 27.7786 47.7088 27.4003 49.4699C26.4971 49.2587 25.6133 48.9718 24.7583 48.6122C22.7867 47.7775 20.995 46.5695 19.4819 45.0548C18.7295 44.3021 18.0507 43.4793 17.4546 42.5977C16.8548 41.7096 16.3424 40.7656 15.9245 39.7788C15.8874 39.6909 15.8334 39.6112 15.7655 39.5442C15.6975 39.4772 15.6171 39.4243 15.5287 39.3885C15.4403 39.3526 15.3457 39.3345 15.2503 39.3353C15.1549 39.336 15.0606 39.3556 14.9728 39.3928C14.8849 39.4299 14.8052 39.484 14.7383 39.5519C14.6713 39.6199 14.6184 39.7003 14.5825 39.7887C14.5467 39.8771 14.5286 39.9717 14.5294 40.067C14.5301 40.1624 14.5496 40.2567 14.5868 40.3446C15.4945 42.4883 16.8078 44.4363 18.4547 46.0817C19.2727 46.8996 20.167 47.6376 21.1253 48.2854C22.0913 48.9379 23.1183 49.4952 24.1918 49.9496C25.2185 50.382 26.2831 50.7181 27.3719 50.9536C27.6882 52.7924 29.2903 54.1969 31.218 54.1969C33.3724 54.1969 35.1247 52.4445 35.1247 50.2902C35.1247 48.1358 33.3727 46.3838 31.2187 46.3838ZM31.2187 52.7448C29.8654 52.7448 28.7645 51.6438 28.7645 50.2905C28.7645 48.9372 29.8654 47.8363 31.2187 47.8363C32.5721 47.8363 33.673 48.9372 33.673 50.2905C33.673 51.6438 32.5721 52.7448 31.2187 52.7448Z" fill="#2D4356"/>
</svg>
