<svg width="70" height="73" viewBox="0 0 70 73" fill="none" xmlns="http://www.w3.org/2000/svg">
<path d="M32.6264 2.44029C32.8736 2.44029 33.1153 2.36907 33.3209 2.23564C33.5264 2.10222 33.6867 1.91257 33.7813 1.69069C33.8759 1.46881 33.9006 1.22466 33.8524 0.989108C33.8042 0.75356 33.6851 0.537195 33.5103 0.367375C33.3355 0.197554 33.1128 0.0819048 32.8703 0.0350514C32.6278 -0.011802 32.3765 0.0122449 32.1481 0.104151C31.9197 0.196057 31.7244 0.351695 31.5871 0.551383C31.4497 0.751071 31.3764 0.98584 31.3764 1.226C31.3768 1.54794 31.5086 1.85658 31.743 2.08422C31.9773 2.31187 32.295 2.43992 32.6264 2.44029ZM32.6264 0.618861C32.75 0.618861 32.8709 0.654469 32.9737 0.721183C33.0764 0.787897 33.1565 0.882719 33.2038 0.99366C33.2511 1.1046 33.2635 1.22668 33.2394 1.34445C33.2153 1.46222 33.1558 1.57041 33.0684 1.65532C32.981 1.74023 32.8696 1.79805 32.7484 1.82148C32.6271 1.84491 32.5014 1.83288 32.3872 1.78693C32.273 1.74098 32.1754 1.66316 32.1068 1.56331C32.0381 1.46347 32.0014 1.34608 32.0014 1.226C32.0016 1.06503 32.0675 0.910691 32.1847 0.796864C32.3018 0.683037 32.4607 0.61902 32.6264 0.618861ZM65.9597 25.9164C65.7949 25.9164 65.6338 25.9639 65.4967 26.0529C65.3597 26.1418 65.2529 26.2682 65.1898 26.4162C65.1267 26.5641 65.1102 26.7269 65.1424 26.8839C65.1745 27.0409 65.2539 27.1852 65.3704 27.2984C65.487 27.4116 65.6355 27.4887 65.7971 27.5199C65.9588 27.5512 66.1263 27.5351 66.2786 27.4739C66.4309 27.4126 66.561 27.3088 66.6526 27.1757C66.7442 27.0426 66.793 26.8861 66.793 26.726C66.7928 26.5113 66.7049 26.3056 66.5487 26.1538C66.3925 26.0021 66.1806 25.9167 65.9597 25.9164ZM65.9597 27.1307C65.8773 27.1307 65.7967 27.107 65.7282 27.0625C65.6597 27.018 65.6063 26.9548 65.5748 26.8809C65.5432 26.8069 65.535 26.7255 65.551 26.647C65.5671 26.5685 65.6068 26.4964 65.6651 26.4398C65.7234 26.3831 65.7976 26.3446 65.8784 26.329C65.9592 26.3134 66.043 26.3214 66.1192 26.352C66.1953 26.3826 66.2604 26.4345 66.3061 26.5011C66.3519 26.5676 66.3764 26.6459 66.3764 26.726C66.3763 26.8333 66.3323 26.9362 66.2542 27.0121C66.1761 27.0879 66.0702 27.1306 65.9597 27.1307ZM19.2931 3.65457C19.1283 3.65457 18.9672 3.70205 18.8301 3.791C18.6931 3.87995 18.5863 4.00638 18.5232 4.1543C18.4601 4.30222 18.4436 4.46499 18.4758 4.62202C18.5079 4.77906 18.5873 4.9233 18.7039 5.03651C18.8204 5.14973 18.9689 5.22683 19.1305 5.25806C19.2922 5.2893 19.4597 5.27327 19.612 5.21199C19.7643 5.15072 19.8944 5.04696 19.986 4.91384C20.0776 4.78071 20.1264 4.6242 20.1264 4.46409C20.1262 4.24947 20.0383 4.04371 19.8821 3.89195C19.7259 3.74018 19.514 3.65482 19.2931 3.65457ZM19.2931 4.86885C19.2107 4.86885 19.1301 4.84512 19.0616 4.80064C18.9931 4.75616 18.9397 4.69295 18.9082 4.61899C18.8766 4.54503 18.8684 4.46364 18.8845 4.38513C18.9005 4.30661 18.9402 4.23449 18.9985 4.17788C19.0568 4.12128 19.131 4.08273 19.2118 4.06711C19.2926 4.05149 19.3764 4.05951 19.4526 4.09014C19.5287 4.12078 19.5938 4.17266 19.6396 4.23922C19.6853 4.30578 19.7098 4.38404 19.7098 4.46409C19.7097 4.57141 19.6657 4.6743 19.5876 4.75018C19.5095 4.82607 19.4036 4.86875 19.2931 4.86885ZM60.9597 11.7498C60.7949 11.7498 60.6338 11.7973 60.4967 11.8862C60.3597 11.9752 60.2529 12.1016 60.1898 12.2495C60.1267 12.3974 60.1102 12.5602 60.1424 12.7172C60.1745 12.8743 60.2539 13.0185 60.3705 13.1317C60.487 13.245 60.6355 13.3221 60.7971 13.3533C60.9588 13.3845 61.1263 13.3685 61.2786 13.3072C61.4309 13.2459 61.561 13.1422 61.6526 13.0091C61.7442 12.8759 61.793 12.7194 61.793 12.5593C61.7928 12.3447 61.7049 12.1389 61.5487 11.9872C61.3925 11.8354 61.1806 11.75 60.9597 11.7498ZM60.9597 12.9641C60.8773 12.9641 60.7967 12.9403 60.7282 12.8959C60.6597 12.8514 60.6063 12.7882 60.5748 12.7142C60.5432 12.6403 60.535 12.5589 60.5511 12.4804C60.5671 12.4018 60.6068 12.3297 60.6651 12.2731C60.7234 12.2165 60.7976 12.178 60.8784 12.1623C60.9592 12.1467 61.043 12.1547 61.1192 12.1854C61.1953 12.216 61.2604 12.2679 61.3062 12.3344C61.3519 12.401 61.3764 12.4793 61.3764 12.5593C61.3763 12.6666 61.3323 12.7695 61.2542 12.8454C61.1761 12.9213 61.0702 12.964 60.9597 12.9641ZM8.04313 14.1784C8.04313 14.0183 7.99426 13.8617 7.90269 13.7286C7.81112 13.5955 7.68097 13.4917 7.5287 13.4305C7.37643 13.3692 7.20887 13.3532 7.04722 13.3844C6.88557 13.4156 6.73709 13.4927 6.62054 13.6059C6.504 13.7192 6.42463 13.8634 6.39248 14.0204C6.36032 14.1775 6.37683 14.3402 6.4399 14.4882C6.50297 14.6361 6.60978 14.7625 6.74682 14.8515C6.88386 14.9404 7.04498 14.9879 7.2098 14.9879C7.43073 14.9876 7.64255 14.9023 7.79877 14.7505C7.955 14.5987 8.04288 14.393 8.04313 14.1784ZM6.79313 14.1784C6.79313 14.0983 6.81757 14.0201 6.86335 13.9535C6.90914 13.8869 6.97421 13.835 7.05035 13.8044C7.12648 13.7738 7.21026 13.7658 7.29108 13.7814C7.37191 13.797 7.44615 13.8355 7.50442 13.8922C7.5627 13.9488 7.60238 14.0209 7.61846 14.0994C7.63453 14.1779 7.62628 14.2593 7.59475 14.3333C7.56321 14.4072 7.5098 14.4704 7.44128 14.5149C7.37276 14.5594 7.29221 14.5831 7.2098 14.5831C7.09932 14.583 6.99341 14.5403 6.91529 14.4645C6.83718 14.3886 6.79324 14.2857 6.79313 14.1784Z" fill="#2D4356"/>
<path d="M4.53647 32.9207L5.15605 32.1294L4.7648 31.9141L4.36689 32.8005H4.35397L3.9498 31.9201L3.55189 32.1419L4.1648 32.9146V32.9272L3.20605 32.807V33.2376L4.17105 33.1174V33.13L3.55189 33.9022L3.92314 34.1305L4.3473 33.2376H4.36022L4.75147 34.1241L5.1623 33.8962L4.53647 33.136V33.1235L5.52063 33.2376V32.807L4.53647 32.9333V32.9207Z" fill="#1E83E6"/>
<path d="M7.95036 7.8477L7.5937 8.29253L7.80786 8.42367L8.05203 7.90963H8.05911L8.28453 8.42003L8.5212 8.28889L8.16078 7.85094V7.84365L8.72745 7.90963V7.66151L8.16078 7.73436V7.72708L8.51745 7.27132L8.29245 7.14746L8.06328 7.65786H8.05578L7.82286 7.1507L7.5937 7.2786L7.94661 7.72344V7.73072L7.39453 7.66151V7.90963L7.95036 7.84041V7.8477Z" fill="#1E83E6"/>
<path d="M65.5434 10.9426V10.5204L64.5779 10.6447V10.6321L65.1854 9.85582L64.8017 9.64453L64.4117 10.514H64.3988L64.0025 9.6506L63.6121 9.86836L64.2134 10.6261V10.6386L63.2729 10.5204V10.9426L64.2196 10.8248V10.8374L63.6121 11.5951L63.9767 11.8189L64.3925 10.9426H64.405L64.7888 11.8124L65.1917 11.589L64.5779 10.8434V10.8309L65.5434 10.9426Z" fill="#1E83E6"/>
<path d="M48.6449 12.9145L49.1691 12.2446L48.8379 12.0625L48.5016 12.8125H48.4904L48.1487 12.0678L47.8116 12.2556L48.3304 12.9093V12.9198L47.5195 12.8182V13.1825L48.3358 13.0805V13.0914L47.8116 13.7451L48.1262 13.9382L48.4849 13.1825H48.4958L48.827 13.9325L49.1745 13.7398L48.6449 13.0967V13.0857L49.4774 13.1825V12.8182L48.6449 12.925V12.9145Z" fill="#1E83E6"/>
<path d="M49.2307 68.9404H45.7692C45.5597 68.9567 45.3642 69.0491 45.2217 69.1991C45.0791 69.3491 45 69.5458 45 69.75C45 69.9541 45.0791 70.1508 45.2217 70.3008C45.3642 70.4508 45.5597 70.5432 45.7692 70.5595H49.2307C49.4402 70.5432 49.6357 70.4508 49.7783 70.3008C49.9208 70.1508 50 69.9541 50 69.75C50 69.5458 49.9208 69.3491 49.7783 69.1991C49.6357 69.0491 49.4402 68.9567 49.2307 68.9404ZM24.2308 68.9404H20.7692C20.5597 68.9567 20.3643 69.0491 20.2217 69.1991C20.0792 69.3491 20 69.5458 20 69.75C20 69.9541 20.0792 70.1508 20.2217 70.3008C20.3643 70.4508 20.5597 70.5432 20.7692 70.5595H24.2308C24.4403 70.5432 24.6358 70.4508 24.7783 70.3008C24.9209 70.1508 25 69.9541 25 69.75C25 69.5458 24.9209 69.3491 24.7783 69.1991C24.6358 69.0491 24.4403 68.9567 24.2308 68.9404ZM43.3333 68.9404H26.6667C26.4457 68.9404 26.2337 69.0257 26.0774 69.1775C25.9211 69.3293 25.8333 69.5353 25.8333 69.75C25.8333 69.9647 25.9211 70.1706 26.0774 70.3224C26.2337 70.4742 26.4457 70.5595 26.6667 70.5595H33.3083V71.369H30C29.779 71.369 29.567 71.4543 29.4107 71.6061C29.2545 71.7579 29.1667 71.9638 29.1667 72.1785C29.1667 72.3932 29.2545 72.5991 29.4107 72.7509C29.567 72.9028 29.779 72.988 30 72.988H40.4166C40.6377 72.988 40.8496 72.9028 41.0059 72.7509C41.1622 72.5991 41.25 72.3932 41.25 72.1785C41.25 71.9638 41.1622 71.7579 41.0059 71.6061C40.8496 71.4543 40.6377 71.369 40.4166 71.369H36.6917V70.5595H43.3333C43.5543 70.5595 43.7663 70.4742 43.9226 70.3224C44.0788 70.1706 44.1666 69.9647 44.1666 69.75C44.1666 69.5353 44.0788 69.3293 43.9226 69.1775C43.7663 69.0257 43.5543 68.9404 43.3333 68.9404Z" fill="#1E83E6"/>
<path d="M34.9998 45.4638C35.4601 45.4638 35.8332 45.1013 35.8332 44.6542C35.8332 44.2072 35.4601 43.8447 34.9998 43.8447C34.5396 43.8447 34.1665 44.2072 34.1665 44.6542C34.1665 45.1013 34.5396 45.4638 34.9998 45.4638Z" fill="#1E83E6"/>
<path d="M14.7778 32.3774V14.6296C14.7771 14.3939 14.8721 14.1676 15.042 14.0002C15.2119 13.8328 15.4428 13.7381 15.684 13.7368H58.3159C58.5572 13.7381 58.7881 13.8328 58.958 14.0002C59.1279 14.1676 59.2229 14.3939 59.2222 14.6296V42.3703C59.2229 42.6061 59.1279 42.8324 58.958 42.9998C58.7881 43.1672 58.5572 43.2619 58.3159 43.2632H40.5556C40.3198 43.2632 40.0937 43.3547 39.927 43.5175C39.7603 43.6804 39.6667 43.9013 39.6667 44.1316C39.6667 44.3619 39.7603 44.5828 39.927 44.7456C40.0937 44.9085 40.3198 45 40.5556 45H58.3159C59.0286 44.9982 59.7114 44.7204 60.2146 44.2274C60.7177 43.7344 61.0002 43.0665 61 42.3703V14.6296C61.0002 13.9334 60.7177 13.2656 60.2145 12.7726C59.7114 12.2796 59.0286 12.0018 58.3159 12H15.684C14.9714 12.0018 14.2886 12.2796 13.7854 12.7726C13.2823 13.2656 12.9998 13.9334 13 14.6296V34.4242C13.5049 33.6736 14.1019 32.9862 14.7778 32.3774Z" fill="#2D4356"/>
<path d="M32.1667 45C32.3877 45 32.5996 44.9132 32.7559 44.7588C32.9122 44.6043 33 44.3949 33 44.1765V40.4503C32.9807 38.7737 32.4675 37.139 31.5229 35.7461C30.5784 34.3533 29.2436 33.2627 27.6818 32.6077C27.2561 33.0839 26.7591 33.4929 26.208 33.8202C27.6664 34.2403 28.9505 35.1104 29.8726 36.3033C30.7948 37.4962 31.3066 38.9493 31.3333 40.4503V44.1765C31.3333 44.3949 31.4211 44.6043 31.5774 44.7588C31.7337 44.9132 31.9457 45 32.1667 45ZM13.8333 45C14.0543 45 14.2663 44.9132 14.4226 44.7588C14.5789 44.6043 14.6667 44.3949 14.6667 44.1765V40.4503C14.6934 38.9494 15.2052 37.4963 16.1274 36.3034C17.0496 35.1106 18.3337 34.2405 19.792 33.8204C19.241 33.4931 18.7441 33.0841 18.3186 32.6079C16.7567 33.2628 15.4218 34.3533 14.4772 35.7461C13.5326 37.139 13.0193 38.7737 13 40.4503V44.1765C13 44.3949 13.0878 44.6043 13.2441 44.7588C13.4004 44.9132 13.6123 45 13.8333 45ZM23 24C22.0935 24 21.2074 24.2656 20.4537 24.7633C19.6999 25.261 19.1125 25.9684 18.7656 26.796C18.4187 27.6237 18.3279 28.5344 18.5047 29.413C18.6816 30.2916 19.1181 31.0987 19.759 31.7321C20.4 32.3656 21.2166 32.797 22.1057 32.9718C22.9948 33.1466 23.9163 33.0569 24.7538 32.7141C25.5913 32.3713 26.3072 31.7908 26.8108 31.046C27.3145 30.3011 27.5833 29.4254 27.5833 28.5296C27.5833 27.3283 27.1004 26.1762 26.2409 25.3268C25.3814 24.4773 24.2156 24.0001 23 24ZM23 31.4118C22.4231 31.4118 21.8592 31.2427 21.3796 30.926C20.8999 30.6093 20.5261 30.1591 20.3053 29.6324C20.0846 29.1057 20.0268 28.5261 20.1394 27.967C20.2519 27.4079 20.5298 26.8943 20.9377 26.4912C21.3456 26.0881 21.8653 25.8136 22.4311 25.7024C22.9969 25.5912 23.5834 25.6483 24.1163 25.8665C24.6492 26.0847 25.1048 26.4542 25.4252 26.9282C25.7457 27.4022 25.9167 27.9595 25.9167 28.5296C25.9157 29.2938 25.6081 30.0263 25.0613 30.5667C24.5146 31.107 23.7732 31.4109 23 31.4118Z" fill="#2D4356"/>
<path d="M41.8363 29.9256L46.2665 24.5651L49.0788 25.9837C49.2516 26.0708 49.4508 26.0999 49.6435 26.0662C49.8362 26.0325 50.011 25.938 50.139 25.7983L54.2698 21.2913L54.2744 21.5063C54.2792 21.7187 54.3722 21.9208 54.5333 22.0695C54.6945 22.2181 54.9111 22.3014 55.1367 22.3015L55.1552 22.3013C55.384 22.2968 55.6015 22.2068 55.7599 22.0513C55.9183 21.8957 56.0046 21.6873 55.9998 21.4718L55.9396 18.7952C55.9367 18.6685 55.9024 18.5442 55.8394 18.4323C55.7764 18.3203 55.6865 18.2238 55.5769 18.1504C55.4672 18.0769 55.3409 18.0287 55.2079 18.0094C55.0749 17.9902 54.939 18.0005 54.811 18.0395L52.0047 18.8958C51.787 18.9622 51.6063 19.1073 51.5022 19.2992C51.3981 19.4911 51.3793 19.7141 51.4498 19.9191C51.5203 20.1241 51.6743 20.2943 51.8781 20.3923C52.0819 20.4903 52.3187 20.5081 52.5363 20.4417L52.8599 20.343L49.2843 24.2442L46.4397 22.8093C46.2603 22.7186 46.0526 22.6907 45.8535 22.7304C45.6543 22.7702 45.4765 22.875 45.3516 23.0265L40.9306 28.3761L38.0434 26.8509C37.8787 26.7638 37.6882 26.73 37.5011 26.7548C37.314 26.7796 37.1408 26.8616 37.008 26.9882L34.2501 29.6156C34.1703 29.6914 34.1071 29.7813 34.0642 29.8801C34.0213 29.979 33.9995 30.0848 34 30.1916C34.0006 30.2983 34.0235 30.404 34.0674 30.5024C34.1113 30.6008 34.1754 30.6901 34.256 30.7652C34.3367 30.8403 34.4322 30.8997 34.5372 30.94C34.6422 30.9803 34.7546 31.0006 34.868 31C34.9814 30.9993 35.0935 30.9776 35.198 30.9361C35.3024 30.8946 35.3972 30.8341 35.4768 30.7581L37.7725 28.571L40.7335 30.135C40.9135 30.2302 41.1238 30.2614 41.3262 30.223C41.5285 30.1846 41.7095 30.079 41.8363 29.9256Z" fill="#1E83E6"/>
<path d="M55 32.8333C55 32.6123 54.9078 32.4004 54.7437 32.2441C54.5796 32.0878 54.3571 32 54.125 32H41.875C41.6429 32 41.4204 32.0878 41.2563 32.2441C41.0922 32.4004 41 32.6123 41 32.8333C41 33.0543 41.0922 33.2663 41.2563 33.4226C41.4204 33.5789 41.6429 33.6667 41.875 33.6667H54.125C54.3571 33.6667 54.5796 33.5789 54.7437 33.4226C54.9078 33.2663 55 33.0543 55 32.8333ZM41.875 35.3333C41.6429 35.3333 41.4204 35.4211 41.2563 35.5774C41.0922 35.7337 41 35.9457 41 36.1667C41 36.3877 41.0922 36.5996 41.2563 36.7559C41.4204 36.9122 41.6429 37 41.875 37H49.0207C49.2528 37 49.4753 36.9122 49.6394 36.7559C49.8035 36.5996 49.8957 36.3877 49.8957 36.1667C49.8957 35.9457 49.8035 35.7337 49.6394 35.5774C49.4753 35.4211 49.2528 35.3333 49.0207 35.3333H41.875Z" fill="#2D4356"/>
<path d="M0.833332 67.3212C1.29357 67.3212 1.66666 66.9588 1.66666 66.5117C1.66666 66.0646 1.29357 65.7021 0.833332 65.7021C0.373095 65.7021 0 66.0646 0 66.5117C0 66.9588 0.373095 67.3212 0.833332 67.3212Z" fill="#2D4356"/>
<path d="M4.58333 65.7021H3.33333C3.11232 65.7021 2.90036 65.7874 2.74408 65.9393C2.5878 66.0911 2.5 66.297 2.5 66.5117C2.5 66.7264 2.5878 66.9323 2.74408 67.0841C2.90036 67.2359 3.11232 67.3212 3.33333 67.3212H4.58333C4.80434 67.3212 5.0163 67.2359 5.17258 67.0841C5.32886 66.9323 5.41666 66.7264 5.41666 66.5117C5.41666 66.297 5.32886 66.0911 5.17258 65.9393C5.0163 65.7874 4.80434 65.7021 4.58333 65.7021ZM66.6666 65.7021H65.4166C65.1955 65.7021 64.9836 65.7874 64.8273 65.9393C64.671 66.0911 64.5832 66.297 64.5832 66.5117C64.5832 66.7264 64.671 66.9323 64.8273 67.0841C64.9836 67.2359 65.1955 67.3212 65.4166 67.3212H66.6666C66.8876 67.3212 67.0995 67.2359 67.2558 67.0841C67.4121 66.9323 67.4999 66.7264 67.4999 66.5117C67.4999 66.297 67.4121 66.0911 67.2558 65.9393C67.0995 65.7874 66.8876 65.7021 66.6666 65.7021Z" fill="#2D4356"/>
<path d="M69.1663 67.3212C69.6266 67.3212 69.9997 66.9588 69.9997 66.5117C69.9997 66.0646 69.6266 65.7021 69.1663 65.7021C68.7061 65.7021 68.333 66.0646 68.333 66.5117C68.333 66.9588 68.7061 67.3212 69.1663 67.3212Z" fill="#2D4356"/>
<path d="M65.9929 65.3336H64.79V62.3839C64.79 59.2641 62.4305 56.6165 59.1813 55.7119C59.6712 55.2182 60.0254 54.6197 60.213 53.9684C60.4007 53.3171 60.4161 52.6327 60.258 51.9745C60.1 51.3163 59.7731 50.7043 59.3059 50.1916C58.8387 49.6788 58.2452 49.2808 57.5769 49.0321C56.9086 48.7833 56.1858 48.6914 55.4711 48.7643C54.7564 48.8371 54.0714 49.0726 53.4757 49.4502C52.8799 49.8278 52.3913 50.3361 52.0523 50.9311C51.7133 51.526 51.5341 52.1896 51.5303 52.8643C50.8861 52.4805 50.1884 52.1822 49.457 51.9777C50.0444 51.3867 50.435 50.6476 50.5809 49.8511C50.7268 49.0546 50.6216 48.2354 50.2782 47.4943C49.9349 46.7531 49.3683 46.1222 48.6481 45.6791C47.928 45.236 47.0856 45 46.2244 45C45.3633 45 44.5209 45.2361 43.8008 45.6793C43.0806 46.1224 42.5141 46.7534 42.1708 47.4945C41.8275 48.2357 41.7224 49.0549 41.8683 49.8513C42.0143 50.6478 42.4049 51.3869 42.9923 51.9779C42.261 52.1824 41.5633 52.4808 40.919 52.8645C40.9126 51.7685 40.4443 50.7195 39.6163 49.9466C38.7882 49.1738 37.6679 48.7399 36.5001 48.7399C35.3323 48.7399 34.2119 49.1737 33.3839 49.9465C32.5558 50.7193 32.0874 51.7683 32.081 52.8643C31.4367 52.4805 30.739 52.1822 30.0077 51.9777C30.595 51.3867 30.9856 50.6476 31.1315 49.8511C31.2774 49.0546 31.1722 48.2354 30.8289 47.4943C30.4855 46.7531 29.9189 46.1222 29.1988 45.6791C28.4786 45.236 27.6362 45 26.7751 45C25.9139 45 25.0715 45.2361 24.3514 45.6793C23.6313 46.1224 23.0647 46.7534 22.7214 47.4945C22.3781 48.2357 22.273 49.0549 22.4189 49.8513C22.5649 50.6478 22.9555 51.3869 23.5429 51.9779C22.8116 52.1824 22.1139 52.4808 21.4696 52.8645C21.4666 52.1892 21.2879 51.5248 20.949 50.9291C20.6102 50.3333 20.1215 49.8242 19.5254 49.446C18.9293 49.0678 18.2438 48.8319 17.5285 48.7588C16.8131 48.6856 16.0896 48.7776 15.4207 49.0265C14.7518 49.2755 14.1578 49.6739 13.6903 50.1873C13.2228 50.7006 12.8959 51.3133 12.738 51.9722C12.5801 52.631 12.596 53.3161 12.7844 53.9678C12.9727 54.6196 13.3278 55.2183 13.8187 55.7121C10.5699 56.6167 8.20999 59.2643 8.20999 62.3839V65.3336H7.00709C6.88132 65.3182 6.75349 65.3281 6.63214 65.3627C6.51079 65.3974 6.39871 65.4559 6.30339 65.5345C6.20807 65.613 6.1317 65.7097 6.07938 65.8181C6.02706 65.9266 6 66.0442 6 66.1633C6 66.2823 6.02706 66.4 6.07938 66.5084C6.1317 66.6168 6.20807 66.7136 6.30339 66.7921C6.39871 66.8706 6.51079 66.9292 6.63214 66.9638C6.75349 66.9984 6.88132 67.0084 7.00709 66.9929H65.9929C66.1187 67.0084 66.2465 66.9984 66.3679 66.9638C66.4892 66.9292 66.6013 66.8706 66.6966 66.7921C66.7919 66.7136 66.8683 66.6168 66.9206 66.5084C66.9729 66.4 67 66.2823 67 66.1633C67 66.0442 66.9729 65.9266 66.9206 65.8181C66.8683 65.7097 66.7919 65.613 66.6966 65.5345C66.6013 65.4559 66.4892 65.3974 66.3679 65.3627C66.2465 65.3281 66.1187 65.3182 65.9929 65.3336ZM55.9494 50.3994C56.4739 50.3994 56.9867 50.5454 57.4229 50.8189C57.859 51.0924 58.1989 51.4811 58.3997 51.9359C58.6004 52.3907 58.6529 52.8912 58.5506 53.374C58.4483 53.8568 58.1957 54.3003 57.8248 54.6484C57.4538 54.9965 56.9813 55.2336 56.4668 55.3296C55.9523 55.4257 55.4191 55.3764 54.9344 55.188C54.4498 54.9996 54.0356 54.6806 53.7442 54.2712C53.4527 53.8619 53.2972 53.3807 53.2972 52.8884C53.298 52.2285 53.5776 51.5958 54.0748 51.1292C54.5721 50.6626 55.2462 50.4001 55.9494 50.3994ZM46.2247 46.6658C46.7492 46.6658 47.262 46.8118 47.6982 47.0853C48.1343 47.3588 48.4743 47.7475 48.675 48.2024C48.8757 48.6572 48.9282 49.1576 48.8259 49.6404C48.7236 50.1233 48.471 50.5668 48.1001 50.9149C47.7292 51.263 47.2566 51.5 46.7421 51.5961C46.2276 51.6921 45.6944 51.6428 45.2097 51.4544C44.7251 51.266 44.3109 50.947 44.0195 50.5377C43.7281 50.1284 43.5725 49.6471 43.5725 49.1549C43.5733 48.4949 43.8529 47.8623 44.3502 47.3956C44.8474 46.929 45.5215 46.6665 46.2247 46.6658ZM36.5 50.3994C37.0246 50.3994 37.5373 50.5454 37.9735 50.8189C38.4096 51.0924 38.7496 51.4811 38.9503 51.9359C39.151 52.3907 39.2036 52.8912 39.1012 53.374C38.9989 53.8568 38.7463 54.3003 38.3754 54.6484C38.0045 54.9965 37.5319 55.2336 37.0174 55.3296C36.5029 55.4257 35.9697 55.3764 35.4851 55.188C35.0004 54.9996 34.5862 54.6806 34.2948 54.2712C34.0034 53.8619 33.8478 53.3807 33.8478 52.8884C33.8486 52.2285 34.1283 51.5958 34.6255 51.1292C35.1227 50.6626 35.7968 50.4001 36.5 50.3994ZM26.7753 46.6658C27.2999 46.6658 27.8126 46.8118 28.2488 47.0853C28.6849 47.3588 29.0249 47.7475 29.2256 48.2024C29.4263 48.6572 29.4789 49.1576 29.3765 49.6404C29.2742 50.1233 29.0216 50.5668 28.6507 50.9149C28.2798 51.263 27.8072 51.5 27.2927 51.5961C26.7783 51.6921 26.245 51.6428 25.7604 51.4544C25.2757 51.266 24.8615 50.947 24.5701 50.5377C24.2787 50.1284 24.1231 49.6471 24.1231 49.1549C24.1239 48.4949 24.4036 47.8623 24.9008 47.3956C25.398 46.929 26.0721 46.6665 26.7753 46.6658ZM17.0506 50.3994C17.5752 50.3994 18.0879 50.5454 18.5241 50.8189C18.9602 51.0924 19.3002 51.4811 19.5009 51.9359C19.7017 52.3907 19.7542 52.8912 19.6518 53.374C19.5495 53.8568 19.2969 54.3003 18.926 54.6484C18.5551 54.9965 18.0825 55.2336 17.568 55.3296C17.0536 55.4257 16.5203 55.3764 16.0357 55.188C15.551 54.9996 15.1368 54.6806 14.8454 54.2712C14.554 53.8619 14.3984 53.3807 14.3984 52.8884C14.3992 52.2285 14.6789 51.5958 15.1761 51.1292C15.6733 50.6626 16.3475 50.4001 17.0506 50.3994ZM9.97812 65.3336V62.3839C9.97812 59.4355 12.8021 57.0368 16.2736 57.0368H17.8285C21.2996 57.0368 24.1231 59.4355 24.1231 62.3839V65.3336H9.97812ZM25.8912 65.3336V62.3839C25.8912 59.3852 23.7083 56.8282 20.6538 55.8302C21.2617 55.036 22.0652 54.3914 22.9957 53.9514C23.9263 53.5115 24.9564 53.2891 25.9983 53.3033H27.5532C28.595 53.2891 29.625 53.5115 30.5554 53.9515C31.4858 54.3915 32.2891 55.0361 32.8968 55.8304C29.8423 56.8284 27.6594 59.3854 27.6594 62.3839V65.3336H25.8912ZM29.4275 65.3336V62.3839C29.4275 59.4355 32.2515 57.0368 35.723 57.0368H37.2779C40.7489 57.0368 43.5725 59.4355 43.5725 62.3839V65.3336H29.4275ZM45.3406 65.3336V62.3839C45.3406 59.3852 43.1576 56.8282 40.1032 55.8302C40.7111 55.036 41.5146 54.3914 42.4451 53.9514C43.3757 53.5115 44.4058 53.2891 45.4477 53.3033H47.0026C48.0443 53.2891 49.0743 53.5115 50.0048 53.9515C50.9352 54.3915 51.7385 55.0361 52.3462 55.8304C49.2917 56.8284 47.1087 59.3854 47.1087 62.3839V65.3336H45.3406ZM48.8769 65.3336V62.3839C48.8769 59.4355 51.7009 57.0368 55.1724 57.0368H56.7272C60.1983 57.0368 63.0219 59.4355 63.0219 62.3839V65.3336H48.8769Z" fill="#2D4356"/>
</svg>
