<svg width="64" height="64" viewBox="0 0 64 64" fill="none" xmlns="http://www.w3.org/2000/svg">
<g clip-path="url(#clip0_1612_575)">
<path d="M0.761905 56.9525C1.18269 56.9525 1.52381 56.6114 1.52381 56.1906C1.52381 55.7698 1.18269 55.4287 0.761905 55.4287C0.341116 55.4287 0 55.7698 0 56.1906C0 56.6114 0.341116 56.9525 0.761905 56.9525Z" fill="white"/>
<path d="M4.19089 55.4287H3.04804C2.84597 55.4287 2.65217 55.509 2.50929 55.6519C2.3664 55.7948 2.28613 55.9885 2.28613 56.1906C2.28613 56.3927 2.3664 56.5865 2.50929 56.7294C2.65217 56.8723 2.84597 56.9525 3.04804 56.9525H4.19089C4.39296 56.9525 4.58676 56.8723 4.72964 56.7294C4.87253 56.5865 4.9528 56.3927 4.9528 56.1906C4.9528 55.9885 4.87253 55.7948 4.72964 55.6519C4.58676 55.509 4.39296 55.4287 4.19089 55.4287Z" fill="white"/>
<path d="M45.0107 58.4762H41.8458C41.6543 58.4915 41.4755 58.5785 41.3452 58.7197C41.2149 58.8609 41.1425 59.046 41.1425 59.2381C41.1425 59.4303 41.2149 59.6154 41.3452 59.7565C41.4755 59.8977 41.6543 59.9847 41.8458 60H45.0107C45.2022 59.9847 45.3809 59.8977 45.5113 59.7565C45.6416 59.6154 45.714 59.4303 45.714 59.2381C45.714 59.046 45.6416 58.8609 45.5113 58.7197C45.3809 58.5785 45.2022 58.4915 45.0107 58.4762ZM22.1535 58.4762H18.9887C18.7971 58.4915 18.6184 58.5785 18.4881 58.7197C18.3577 58.8609 18.2854 59.046 18.2854 59.2381C18.2854 59.4303 18.3577 59.6154 18.4881 59.7565C18.6184 59.8977 18.7971 59.9847 18.9887 60H22.1535C22.3451 59.9847 22.5238 59.8977 22.6541 59.7565C22.7844 59.6154 22.8568 59.4303 22.8568 59.2381C22.8568 59.046 22.7844 58.8609 22.6541 58.7197C22.5238 58.5785 22.3451 58.4915 22.1535 58.4762ZM39.6187 58.4762H24.3806C24.1785 58.4762 23.9848 58.5565 23.8419 58.6994C23.699 58.8422 23.6187 59.036 23.6187 59.2381C23.6187 59.4402 23.699 59.634 23.8419 59.7769C23.9848 59.9197 24.1785 60 24.3806 60H30.453V60.7619H27.4282C27.2262 60.7619 27.0324 60.8422 26.8895 60.9851C26.7466 61.128 26.6663 61.3217 26.6663 61.5238C26.6663 61.7259 26.7466 61.9197 26.8895 62.0626C27.0324 62.2055 27.2262 62.2857 27.4282 62.2857H36.952C37.1541 62.2857 37.3479 62.2055 37.4908 62.0626C37.6337 61.9197 37.7139 61.7259 37.7139 61.5238C37.7139 61.3217 37.6337 61.128 37.4908 60.9851C37.3479 60.8422 37.1541 60.7619 36.952 60.7619H33.5463V60H39.6187C39.8208 60 40.0146 59.9197 40.1575 59.7769C40.3003 59.634 40.3806 59.4402 40.3806 59.2381C40.3806 59.036 40.3003 58.8422 40.1575 58.6994C40.0146 58.5565 39.8208 58.4762 39.6187 58.4762ZM50.9219 31.0916C50.8669 31.0079 50.7961 30.936 50.7133 30.8797C50.6305 30.8235 50.5375 30.7842 50.4395 30.7639C50.3415 30.7437 50.2404 30.7429 50.1422 30.7617C50.0439 30.7805 49.9503 30.8185 49.8667 30.8735L33.4643 41.6775C33.0803 41.9399 32.6262 42.0808 32.1611 42.0818C31.696 42.0829 31.2413 41.9441 30.8561 41.6834L14.1302 30.7623C13.9608 30.6519 13.7544 30.6134 13.5566 30.6551C13.3587 30.6968 13.1855 30.8155 13.0751 30.9849C12.9647 31.1544 12.9261 31.3607 12.9678 31.5586C13.0096 31.7565 13.1282 31.9297 13.2977 32.0401L30.0237 42.9609C30.6577 43.3827 31.4026 43.6071 32.1642 43.6055C32.9257 43.6039 33.6697 43.3764 34.3019 42.9519L50.7041 32.1479C50.8729 32.0366 50.9907 31.8629 51.0315 31.6648C51.0724 31.4667 51.0329 31.2606 50.9219 31.0916ZM23.2193 42.5739L13.3146 48.6757C13.2291 48.728 13.1547 48.7967 13.0958 48.8778C13.0369 48.9589 12.9945 49.0509 12.9712 49.1484C12.9478 49.2459 12.9439 49.347 12.9597 49.446C12.9755 49.545 13.0106 49.6399 13.0632 49.7253C13.1157 49.8107 13.1845 49.8849 13.2657 49.9437C13.347 50.0025 13.439 50.0446 13.5365 50.0678C13.6341 50.091 13.7352 50.0947 13.8342 50.0787C13.9332 50.0627 14.028 50.0273 14.1133 49.9747L24.0181 43.8729C24.1903 43.767 24.3135 43.597 24.3604 43.4003C24.4073 43.2036 24.3741 42.9963 24.2682 42.824C24.1623 42.6518 23.9923 42.5287 23.7956 42.4817C23.5989 42.4348 23.3916 42.468 23.2193 42.5739ZM50.6847 48.6757L40.78 42.5739C40.6077 42.468 40.4004 42.4348 40.2037 42.4817C40.007 42.5287 39.837 42.6518 39.7311 42.824C39.6252 42.9963 39.592 43.2036 39.6389 43.4003C39.6859 43.597 39.809 43.767 39.9812 43.8729L49.886 49.9747C50.0582 50.0801 50.2653 50.1129 50.4617 50.0659C50.6581 50.0188 50.8278 49.8958 50.9336 49.7237C51.0393 49.5517 51.0726 49.3447 51.0259 49.1482C50.9793 48.9518 50.8566 48.7818 50.6847 48.6757Z" fill="#84DEFF"/>
<path d="M20.7855 32.2303C20.9968 32.8297 21.3888 33.3489 21.9075 33.7163C22.4261 34.0837 23.046 34.2812 23.6816 34.2816C24.0183 34.2815 24.3526 34.2253 24.6707 34.1151L47.1289 26.354C47.8912 26.0882 48.517 25.5307 48.8687 24.8041C49.2205 24.0774 49.2696 23.2408 49.0053 22.478L44.7384 10.2417C44.5271 9.64228 44.1351 9.12309 43.6164 8.75571C43.0978 8.38833 42.4779 8.19083 41.8423 8.19043C41.5056 8.19049 41.1713 8.24675 40.8532 8.35691L18.395 16.1181C17.6327 16.3839 17.0069 16.9413 16.6551 17.6679C16.3034 18.3946 16.2543 19.2312 16.5186 19.994L20.7855 32.2303ZM18.0267 18.3325C18.1126 18.1528 18.2333 17.992 18.3819 17.8593C18.5305 17.7267 18.704 17.6249 18.8922 17.56L41.3504 9.79884C41.5087 9.74396 41.675 9.71592 41.8424 9.71588C42.162 9.71513 42.4739 9.81372 42.735 9.998C42.9961 10.1823 43.1934 10.4431 43.2997 10.7445L47.5666 22.9808C47.6974 23.3609 47.6725 23.7773 47.4973 24.1392C47.3221 24.501 47.011 24.7788 46.6317 24.9121L24.1735 32.6732C24.0153 32.728 23.849 32.7561 23.6816 32.7561C23.362 32.7569 23.0501 32.6583 22.789 32.474C22.5279 32.2897 22.3305 32.0289 22.2242 31.7275L17.9573 19.4913C17.8916 19.3031 17.8639 19.1038 17.8758 18.9049C17.8877 18.706 17.939 18.5114 18.0267 18.3325Z" fill="white"/>
<path d="M21.4864 19.6787L31.3549 22.1899C31.9687 22.3466 32.615 22.3187 33.213 22.1098C33.811 21.9009 34.3341 21.5203 34.7169 21.0155L40.7602 13.0648C40.8209 12.9852 40.8652 12.8944 40.8908 12.7976C40.9163 12.7008 40.9226 12.6 40.9091 12.5008C40.8957 12.4016 40.8629 12.306 40.8125 12.2195C40.7621 12.133 40.6952 12.0573 40.6156 11.9966C40.536 11.936 40.4452 11.8916 40.3484 11.8661C40.2516 11.8405 40.1508 11.8343 40.0516 11.8477C39.9524 11.8611 39.8568 11.894 39.7703 11.9443C39.6838 11.9947 39.6081 12.0616 39.5474 12.1412L33.5041 20.0919C33.302 20.358 33.026 20.5587 32.7105 20.6689C32.395 20.7791 32.0541 20.7939 31.7303 20.7114L21.8618 18.2002C21.6659 18.1509 21.4585 18.1814 21.285 18.2849C21.1116 18.3884 20.9862 18.5564 20.9365 18.7522C20.8868 18.9479 20.9168 19.1554 21.0199 19.3291C21.123 19.5028 21.2908 19.6285 21.4864 19.6787V19.6787ZM36.7875 21.2894C36.7355 21.4848 36.7631 21.6929 36.8643 21.8679C36.9656 22.043 37.1322 22.1706 37.3275 22.2229L43.0418 23.7483C43.2372 23.7999 43.445 23.7719 43.6197 23.6705C43.7944 23.569 43.9217 23.4024 43.9737 23.2072C44.0257 23.0119 43.9981 22.8041 43.8969 22.6292C43.7958 22.4543 43.6294 22.3266 43.4343 22.2743L37.72 20.7488C37.5247 20.6969 37.3167 20.7247 37.1419 20.8261C36.967 20.9275 36.8396 21.0941 36.7875 21.2894ZM28.7479 23.6671L24.9384 28.2435C24.8735 28.3202 24.8244 28.4091 24.7939 28.5049C24.7635 28.6007 24.7523 28.7016 24.761 28.8018C24.7698 28.902 24.7982 28.9994 24.8447 29.0885C24.8913 29.1777 24.955 29.2567 25.0322 29.3211C25.1094 29.3855 25.1986 29.434 25.2946 29.4638C25.3907 29.4936 25.4916 29.5041 25.5917 29.4947C25.6918 29.4853 25.7891 29.4562 25.8779 29.409C25.9667 29.3619 26.0453 29.2976 26.1092 29.22L29.9187 24.6436C29.9836 24.5669 30.0327 24.478 30.0631 24.3822C30.0936 24.2864 30.1048 24.1855 30.0961 24.0853C30.0873 23.9851 30.0589 23.8877 30.0124 23.7986C29.9658 23.7094 29.9021 23.6304 29.8249 23.566C29.7477 23.5016 29.6585 23.4531 29.5625 23.4233C29.4664 23.3935 29.3655 23.3831 29.2654 23.3925C29.1653 23.4019 29.068 23.431 28.9792 23.4781C28.8904 23.5252 28.8118 23.5895 28.7479 23.6671Z" fill="#84DEFF"/>
<path d="M60.9526 55.4287H59.8098C59.6077 55.4287 59.4139 55.509 59.271 55.6519C59.1281 55.7948 59.0479 55.9885 59.0479 56.1906C59.0479 56.3927 59.1281 56.5865 59.271 56.7294C59.4139 56.8723 59.6077 56.9525 59.8098 56.9525H60.9526C61.1547 56.9525 61.3485 56.8723 61.4914 56.7294C61.6342 56.5865 61.7145 56.3927 61.7145 56.1906C61.7145 55.9885 61.6342 55.7948 61.4914 55.6519C61.3485 55.509 61.1547 55.4287 60.9526 55.4287Z" fill="white"/>
<path d="M63.2385 56.9525C63.6593 56.9525 64.0004 56.6114 64.0004 56.1906C64.0004 55.7698 63.6593 55.4287 63.2385 55.4287C62.8177 55.4287 62.4766 55.7698 62.4766 56.1906C62.4766 56.6114 62.8177 56.9525 63.2385 56.9525Z" fill="white"/>
<path d="M57.4181 55.4281H55.9659C56.2375 54.965 56.3809 54.4379 56.3814 53.9011V28.7313C56.3794 27.9233 56.0578 27.1489 55.4868 26.5772C54.9158 26.0056 54.1417 25.6832 53.3338 25.6804H50.1251C49.7959 26.285 49.3332 26.8067 48.7722 27.2058H53.3338C53.738 27.2065 54.1254 27.3675 54.4111 27.6534C54.6968 27.9394 54.8573 28.327 54.8576 28.7313V53.9011C54.8573 54.3053 54.6968 54.6929 54.4111 54.9789C54.1254 55.2648 53.738 55.4258 53.3338 55.4265H10.6671C10.2629 55.4258 9.87542 55.2648 9.58975 54.9789C9.30408 54.6929 9.14352 54.3053 9.14328 53.9011V28.7313C9.14352 28.327 9.30409 27.9394 9.58976 27.6534C9.87543 27.3675 10.2629 27.2065 10.6671 27.2058H17.42L16.8881 25.6804H10.6671C9.8591 25.6832 9.08506 26.0056 8.51403 26.5772C7.943 27.1489 7.6214 27.9233 7.61947 28.7313V53.9011C7.6199 54.4379 7.76329 54.965 8.0349 55.4281H6.58278C6.47439 55.414 6.36422 55.4231 6.25964 55.4549C6.15506 55.4867 6.05846 55.5405 5.97631 55.6126C5.89416 55.6847 5.82835 55.7735 5.78326 55.8731C5.73817 55.9727 5.71484 56.0807 5.71484 56.19C5.71484 56.2994 5.73817 56.4074 5.78326 56.507C5.82835 56.6066 5.89416 56.6954 5.97631 56.7675C6.05846 56.8396 6.15506 56.8934 6.25964 56.9252C6.36422 56.957 6.47439 56.9661 6.58278 56.952H57.4181C57.5265 56.9661 57.6366 56.957 57.7412 56.9252C57.8458 56.8934 57.9424 56.8396 58.0245 56.7675C58.1067 56.6954 58.1725 56.6066 58.2176 56.507C58.2627 56.4074 58.286 56.2994 58.286 56.19C58.286 56.0807 58.2627 55.9727 58.2176 55.8731C58.1725 55.7735 58.1067 55.6847 58.0245 55.6126C57.9424 55.5405 57.8458 55.4867 57.7412 55.4549C57.6366 55.4231 57.5265 55.414 57.4181 55.4281ZM12.307 4.38053C12.533 4.38053 12.754 4.31351 12.9419 4.18793C13.1299 4.06235 13.2763 3.88386 13.3628 3.67503C13.4493 3.4662 13.472 3.23641 13.4279 3.01472C13.3838 2.79302 13.2749 2.58939 13.1151 2.42955C12.9553 2.26972 12.7516 2.16088 12.5299 2.11678C12.3082 2.07268 12.0785 2.09531 11.8696 2.18181C11.6608 2.26831 11.4823 2.4148 11.3567 2.60274C11.2311 2.79068 11.1641 3.01164 11.1641 3.23768C11.1645 3.54067 11.285 3.83116 11.4992 4.04542C11.7135 4.25967 12.004 4.38019 12.307 4.38053ZM12.307 2.66625C12.42 2.66625 12.5305 2.69976 12.6244 2.76255C12.7184 2.82534 12.7917 2.91459 12.8349 3.019C12.8782 3.12342 12.8895 3.23831 12.8674 3.34916C12.8454 3.46 12.791 3.56182 12.711 3.64174C12.6311 3.72165 12.5293 3.77608 12.4185 3.79813C12.3076 3.82017 12.1927 3.80886 12.0883 3.76561C11.9839 3.72236 11.8946 3.64912 11.8318 3.55514C11.7691 3.46117 11.7355 3.35069 11.7355 3.23768C11.7357 3.08617 11.7959 2.94091 11.9031 2.83378C12.0102 2.72665 12.1555 2.6664 12.307 2.66625ZM56.8784 22.6662C56.7277 22.6662 56.5804 22.7109 56.4551 22.7946C56.3298 22.8784 56.2322 22.9974 56.1745 23.1366C56.1168 23.2758 56.1017 23.429 56.1311 23.5768C56.1605 23.7246 56.2331 23.8603 56.3397 23.9669C56.4462 24.0735 56.582 24.146 56.7298 24.1754C56.8776 24.2048 57.0308 24.1897 57.17 24.1321C57.3092 24.0744 57.4282 23.9767 57.5119 23.8514C57.5956 23.7261 57.6403 23.5788 57.6403 23.4281C57.6401 23.2261 57.5597 23.0325 57.4169 22.8897C57.2741 22.7468 57.0804 22.6665 56.8784 22.6662ZM56.8784 23.8091C56.8031 23.8091 56.7294 23.7868 56.6668 23.7449C56.6041 23.703 56.5553 23.6435 56.5265 23.5739C56.4976 23.5043 56.4901 23.4277 56.5048 23.3538C56.5195 23.2799 56.5558 23.2121 56.609 23.1588C56.6623 23.1055 56.7302 23.0692 56.8041 23.0545C56.878 23.0398 56.9546 23.0474 57.0242 23.0762C57.0938 23.105 57.1533 23.1539 57.1952 23.2165C57.237 23.2792 57.2594 23.3528 57.2594 23.4281C57.2593 23.5292 57.2191 23.626 57.1477 23.6974C57.0762 23.7688 56.9794 23.809 56.8784 23.8091ZM50.4022 11.6186C50.2515 11.6186 50.1042 11.6633 49.9789 11.747C49.8536 11.8308 49.756 11.9497 49.6983 12.089C49.6406 12.2282 49.6255 12.3814 49.6549 12.5292C49.6843 12.677 49.7569 12.8127 49.8635 12.9193C49.97 13.0258 50.1058 13.0984 50.2536 13.1278C50.4014 13.1572 50.5546 13.1421 50.6938 13.0844C50.833 13.0268 50.952 12.9291 51.0357 12.8038C51.1194 12.6785 51.1641 12.5312 51.1641 12.3805C51.1639 12.1785 51.0835 11.9849 50.9407 11.842C50.7979 11.6992 50.6042 11.6189 50.4022 11.6186ZM50.4022 12.7615C50.3269 12.7615 50.2532 12.7391 50.1906 12.6973C50.1279 12.6554 50.0791 12.5959 50.0503 12.5263C50.0214 12.4567 50.0139 12.3801 50.0286 12.3062C50.0433 12.2323 50.0796 12.1644 50.1328 12.1112C50.1861 12.0579 50.254 12.0216 50.3279 12.0069C50.4018 11.9922 50.4784 11.9997 50.548 12.0286C50.6176 12.0574 50.6771 12.1062 50.719 12.1689C50.7608 12.2315 50.7832 12.3052 50.7832 12.3805C50.7831 12.4815 50.7429 12.5784 50.6715 12.6498C50.6001 12.7212 50.5032 12.7614 50.4022 12.7615ZM58.0213 1.71387C57.8706 1.71387 57.7233 1.75855 57.598 1.84227C57.4727 1.92599 57.375 2.04498 57.3174 2.1842C57.2597 2.32342 57.2446 2.47662 57.274 2.62441C57.3034 2.77221 57.376 2.90797 57.4825 3.01452C57.5891 3.12107 57.7248 3.19364 57.8726 3.22304C58.0204 3.25243 58.1736 3.23735 58.3128 3.17968C58.4521 3.12201 58.571 3.02436 58.6548 2.89906C58.7385 2.77377 58.7832 2.62646 58.7832 2.47577C58.7829 2.27377 58.7026 2.08011 58.5598 1.93728C58.4169 1.79444 58.2233 1.7141 58.0213 1.71387ZM58.0213 2.85672C57.9459 2.85672 57.8723 2.83438 57.8096 2.79252C57.747 2.75066 57.6981 2.69117 57.6693 2.62156C57.6405 2.55195 57.6329 2.47535 57.6476 2.40145C57.6623 2.32755 57.6986 2.25968 57.7519 2.2064C57.8052 2.15312 57.873 2.11684 57.9469 2.10214C58.0208 2.08744 58.0974 2.09498 58.167 2.12382C58.2367 2.15265 58.2962 2.20148 58.338 2.26413C58.3799 2.32677 58.4022 2.40043 58.4022 2.47577C58.4021 2.57678 58.3619 2.67361 58.2905 2.74503C58.2191 2.81645 58.1223 2.85662 58.0213 2.85672ZM9.25936 19.6186C9.25936 19.4679 9.21467 19.3206 9.13095 19.1953C9.04723 19.07 8.92824 18.9724 8.78902 18.9147C8.6498 18.857 8.49661 18.842 8.34881 18.8714C8.20101 18.9008 8.06526 18.9733 7.9587 19.0799C7.85215 19.1864 7.77958 19.3222 7.75019 19.47C7.72079 19.6178 7.73588 19.771 7.79354 19.9102C7.85121 20.0494 7.94886 20.1684 8.07416 20.2521C8.19945 20.3358 8.34676 20.3805 8.49745 20.3805C8.69945 20.3803 8.89311 20.3 9.03594 20.1571C9.17878 20.0143 9.25912 19.8206 9.25936 19.6186ZM8.1165 19.6186C8.1165 19.5433 8.13884 19.4696 8.1807 19.407C8.22256 19.3443 8.28206 19.2955 8.35167 19.2667C8.42128 19.2378 8.49787 19.2303 8.57177 19.245C8.64567 19.2597 8.71355 19.296 8.76682 19.3493C8.8201 19.4025 8.85638 19.4704 8.87108 19.5443C8.88578 19.6182 8.87824 19.6948 8.8494 19.7644C8.82057 19.834 8.77174 19.8935 8.7091 19.9354C8.64645 19.9772 8.5728 19.9996 8.49745 19.9996C8.39645 19.9995 8.29961 19.9593 8.22819 19.8879C8.15677 19.8165 8.1166 19.7196 8.1165 19.6186Z" fill="white"/>
<path d="M1.86189 9.71891L2.42836 8.97415L2.07065 8.77148L1.70684 9.60577H1.69503L1.32551 8.7772L0.961698 8.98596L1.52208 9.7132V9.72501L0.645508 9.61187V10.0172L1.52779 9.90406V9.91587L0.961698 10.6427L1.30113 10.8576L1.68894 10.0172H1.70075L2.05846 10.8515L2.43408 10.637L1.86189 9.92158V9.90977L2.7617 10.0172V9.61187L1.86189 9.73072V9.71891Z" fill="#84DEFF"/>
<path d="M22.1264 9.7401L21.8003 10.1588L21.9961 10.2822L22.2193 9.79839H22.2258L22.4319 10.2788L22.6483 10.1553L22.3187 9.74315V9.73629L22.8368 9.79839V9.56486L22.3187 9.63344V9.62658L22.6448 9.19763L22.4391 9.08105L22.2296 9.56144H22.2227L22.0098 9.0841L21.8003 9.20448L22.1229 9.62315V9.63001L21.6182 9.56486V9.79839L22.1264 9.73325V9.7401Z" fill="#84DEFF"/>
<path d="M62.5924 15.7002V15.3029L61.7097 15.4198V15.408L62.2652 14.6774L61.9143 14.4785L61.5577 15.2968H61.5459L61.1836 14.4842L60.8267 14.6892L61.3764 15.4023V15.4141L60.5166 15.3029V15.7002L61.3821 15.5894V15.6012L60.8267 16.3143L61.16 16.525L61.5402 15.7002H61.5516L61.9025 16.5189L62.2709 16.3086L61.7097 15.6069V15.5951L62.5924 15.7002Z" fill="#84DEFF"/>
<path d="M33.0465 3.84194L33.5258 3.21147L33.2229 3.04004L32.9155 3.74594H32.9052L32.5928 3.04499L32.2846 3.22175L32.7589 3.83699V3.8469L32.0176 3.75128V4.09413L32.7639 3.99813V4.00842L32.2846 4.62366L32.5722 4.80537L32.9002 4.09413H32.9101L33.213 4.80004L33.5307 4.61871L33.0465 4.01337V4.00309L33.8077 4.09413V3.75128L33.0465 3.85185V3.84194Z" fill="#84DEFF"/>
</g>
<defs>
<clipPath id="clip0_1612_575">
<rect width="64" height="64" fill="white"/>
</clipPath>
</defs>
</svg>
