<svg width="86" height="76" viewBox="0 0 86 76" fill="none" xmlns="http://www.w3.org/2000/svg">
<path d="M35.9473 33.6156C35.7718 33.6156 35.6034 33.6854 35.4793 33.8095C35.3551 33.9336 35.2854 34.102 35.2854 34.2775C35.2854 34.4531 35.3551 34.6214 35.4793 34.7456C35.6034 34.8697 35.7718 34.9394 35.9473 34.9394H37.3691C37.5446 34.9394 37.713 34.8697 37.8371 34.7456C37.9612 34.6214 38.031 34.4531 38.031 34.2775C38.031 34.102 37.9612 33.9336 37.8371 33.8095C37.713 33.6854 37.5446 33.6156 37.3691 33.6156H35.9473ZM32.25 35.663C32.0745 35.663 31.9061 35.7327 31.782 35.8569C31.6578 35.981 31.5881 36.1494 31.5881 36.3249C31.5881 36.5005 31.6578 36.6688 31.782 36.7929C31.9061 36.9171 32.0745 36.9868 32.25 36.9868H33.6717C33.8473 36.9868 34.0156 36.9171 34.1397 36.7929C34.2639 36.6688 34.3336 36.5004 34.3336 36.3249C34.3336 36.1494 34.2639 35.981 34.1397 35.8569C34.0156 35.7327 33.8473 35.663 33.6717 35.663H32.25ZM47.7572 61.9184V57.8235C47.7572 57.6479 47.6874 57.4795 47.5633 57.3554C47.4392 57.2313 47.2708 57.1615 47.0952 57.1615C46.9197 57.1615 46.7513 57.2313 46.6272 57.3554C46.5031 57.4795 46.4333 57.6479 46.4333 57.8235V61.9184C46.4333 62.094 46.5031 62.2623 46.6272 62.3865C46.7513 62.5106 46.9197 62.5803 47.0952 62.5803C47.2708 62.5803 47.4392 62.5106 47.5633 62.3865C47.6874 62.2623 47.7572 62.094 47.7572 61.9184ZM21.35 57.8235V61.9184C21.35 62.094 21.4197 62.2623 21.5439 62.3865C21.668 62.5106 21.8364 62.5803 22.0119 62.5803C22.1875 62.5803 22.3558 62.5106 22.4799 62.3865C22.6041 62.2623 22.6738 62.094 22.6738 61.9184V57.8235C22.6738 57.6479 22.6041 57.4795 22.4799 57.3554C22.3558 57.2313 22.1875 57.1615 22.0119 57.1615C21.8364 57.1615 21.668 57.2313 21.5439 57.3554C21.4197 57.4795 21.35 57.6479 21.35 57.8234C21.35 57.8234 21.35 57.8234 21.35 57.8235Z" fill="#2D4356" stroke="#2D4356" stroke-width="0.3"/>
<path d="M48.1656 33.5011L48.1322 33.5885L47.7252 34.6531L47.6393 34.8777L47.4754 34.7018L35.6637 22.0241C35.6633 22.0237 35.6628 22.0233 35.6624 22.0228C35.5372 21.8955 35.3874 21.7951 35.222 21.7278C35.0561 21.6602 34.8781 21.6274 34.699 21.6313C34.5199 21.6352 34.3434 21.6758 34.1806 21.7505C34.0178 21.8253 33.872 21.9326 33.7523 22.0658L33.7508 22.0675L33.7508 22.0675L16.5529 40.6518C16.5163 40.6936 16.4818 40.7371 16.4495 40.7821H45.2206H45.4086L45.3668 40.9654C45.2917 41.2947 45.2424 41.6293 45.2192 41.9662L45.2097 42.1059H45.0696H16.019V62.9018V62.9018C16.0188 63.2795 16.1685 63.6417 16.4351 63.9091C16.7016 64.1765 17.0632 64.3272 17.4407 64.3283C17.4408 64.3283 17.441 64.3283 17.4411 64.3283M48.1656 33.5011L17.4407 64.4783L17.4411 64.3283M48.1656 33.5011L48.1018 33.4327L36.6194 21.1083L36.6195 21.1082L36.6173 21.106C36.3666 20.8479 36.0656 20.6438 35.733 20.5065C35.4004 20.3691 35.0432 20.3014 34.6834 20.3074C34.3236 20.3134 33.9689 20.3931 33.6411 20.5414C33.3135 20.6897 33.0197 20.9035 32.7779 21.1695C32.7777 21.1697 32.7775 21.1699 32.7773 21.1701L15.58 39.7539L15.5799 39.7538L15.5759 39.7586C15.0392 40.3888 14.7291 41.1807 14.6953 42.0078L14.6952 42.0078V42.0139V62.9018C14.6954 63.6303 14.9845 64.3289 15.4991 64.8445C16.0138 65.36 16.7119 65.6503 17.4404 65.6518H17.4407L45.3795 65.6518L45.38 65.6518M48.1656 33.5011L45.38 65.6518M17.4411 64.3283L28.5167 64.3283M17.4411 64.3283L28.5167 64.3283M28.5167 64.3283V62.2336C28.5167 62.0581 28.5864 61.8897 28.7105 61.7656C28.8347 61.6415 29.003 61.5717 29.1786 61.5717C29.3541 61.5717 29.5225 61.6415 29.6466 61.7656C29.7707 61.8897 29.8405 62.0581 29.8405 62.2336V64.3283H39.7785M39.7785 64.3283V52.8209V52.8144L39.7787 52.8144C39.795 52.4358 39.661 52.0661 39.4058 51.786C39.1513 51.5067 38.7971 51.3391 38.42 51.3194H31.1985C30.8215 51.3392 30.4674 51.5069 30.2131 51.7861C29.9579 52.0662 29.8239 52.4359 29.8403 52.8144L29.8406 52.8209H29.8405V59.8479C29.8405 60.0234 29.7707 60.1918 29.6466 60.3159C29.5225 60.44 29.3541 60.5098 29.1786 60.5098C29.003 60.5098 28.8346 60.44 28.7105 60.3159C28.5864 60.1918 28.5166 60.0234 28.5166 59.8479V52.8228C28.498 52.0943 28.7685 51.3879 29.2691 50.8581C29.7702 50.3279 30.4609 50.0178 31.1901 49.9957L31.1947 49.9956V49.9956H38.4238H38.4283L38.4283 49.9957C39.1576 50.0176 39.8485 50.3277 40.3497 50.8579C40.8504 51.3877 41.121 52.0942 41.1024 52.8228V64.3282L45.3795 64.3282L45.38 64.3282M39.7785 64.3283L45.38 65.5018C45.4473 65.502 45.5141 65.4889 45.5764 65.4633C45.6386 65.4377 45.6952 65.4 45.7429 65.3525C45.7906 65.3049 45.8285 65.2484 45.8543 65.1862C45.8801 65.124 45.8934 65.0574 45.8934 64.99C45.8934 64.9227 45.8801 64.856 45.8543 64.7938C45.8285 64.7316 45.7906 64.6751 45.7429 64.6276C45.6952 64.58 45.6386 64.5424 45.5764 64.5167C45.5141 64.4911 45.4473 64.478 45.38 64.4782V64.3282M45.38 64.3282C45.4669 64.328 45.553 64.345 45.6334 64.378C45.714 64.4112 45.7872 64.4599 45.8488 64.5213C45.9105 64.5828 45.9594 64.6559 45.9928 64.7363C46.0262 64.8167 46.0434 64.9029 46.0434 64.99C46.0434 65.0771 46.0262 65.1633 45.9928 65.2437C45.9594 65.3242 45.9105 65.3972 45.8488 65.4587C45.7872 65.5202 45.714 65.5689 45.6334 65.602C45.553 65.6351 45.4669 65.652 45.38 65.6518M45.38 64.3282V65.6518" fill="#2D4356" stroke="#2D4356" stroke-width="0.3"/>
<mask id="path-3-outside-1_870_982" maskUnits="userSpaceOnUse" x="3.09546" y="0" width="78" height="64" fill="black">
<rect fill="white" x="3.09546" width="78" height="64"/>
<path d="M11.1277 41.6494L33.707 17.0168C34.4929 16.1927 35.3182 16.2362 35.7986 16.6456L48.9062 31.1674C49.0454 30.8393 49.238 30.5365 49.4761 30.2713L47.5975 28.1899C47.6018 28.1738 47.6051 28.1574 47.6074 28.1409V23.527H50.6789V29.4174C51.0049 29.2821 51.3506 29.2003 51.7027 29.1752V23.0151C51.7027 22.9479 51.6895 22.8813 51.6637 22.8192C51.638 22.7571 51.6003 22.7006 51.5528 22.6531C51.5052 22.6056 51.4488 22.5679 51.3867 22.5421C51.3246 22.5164 51.258 22.5032 51.1908 22.5032H47.0955C47.0283 22.5032 46.9617 22.5164 46.8996 22.5421C46.8375 22.5679 46.7811 22.6056 46.7335 22.6531C46.686 22.7006 46.6483 22.7571 46.6226 22.8192C46.5969 22.8813 46.5836 22.9479 46.5836 23.0151V24.8485C46.3382 24.5232 46.1685 24.147 46.0871 23.7476C46.0057 23.3482 46.0147 22.9357 46.1132 22.5402C46.1975 22.0721 46.4174 21.6391 46.7456 21.2949C47.0738 20.9506 47.4958 20.7104 47.9594 20.6038C48.8642 20.4133 49.801 20.4365 50.6953 20.6716C51.5896 20.9066 52.4167 21.3471 53.1109 21.9578C54.9981 23.9535 55.7924 27.692 54.959 30.6542C54.6447 31.7209 54.2478 32.7614 53.7718 33.7664C53.7648 33.7664 53.7583 33.7644 53.7513 33.7644C53.2476 33.7579 52.7588 33.935 52.3761 34.2626C51.9935 34.5902 51.7432 35.046 51.672 35.5447C51.6008 36.0434 51.7136 36.5509 51.9893 36.9725C52.2651 37.3941 52.6848 37.7009 53.1702 37.8356C53.6556 37.9703 54.1735 37.9237 54.627 37.7044C55.0805 37.4852 55.4388 37.1083 55.6347 36.6443C55.8307 36.1802 55.851 35.6607 55.6919 35.1827C55.5328 34.7048 55.2051 34.3011 54.7701 34.0471C55.2403 33.0399 55.633 31.9983 55.9449 30.9314C56.8827 27.5967 56.0038 23.5275 53.8548 21.2544C53.0341 20.5049 52.0445 19.9646 50.9702 19.6797C49.8959 19.3948 48.7687 19.3736 47.6844 19.618C47.0401 19.7722 46.4543 20.1099 45.9978 20.5901C45.5413 21.0703 45.2338 21.6725 45.1124 22.3238C44.926 23.0448 44.9674 23.8059 45.2308 24.5025C45.4942 25.1991 45.9668 25.7972 46.5836 26.2145V27.0666L36.538 15.9372C36.5255 15.9234 36.5123 15.9102 36.4985 15.8977C35.6802 15.1693 34.2264 14.9881 32.9592 16.3177L10.3729 40.9576C10.3273 41.0071 10.292 41.0651 10.2688 41.1283C10.2457 41.1916 10.2353 41.2587 10.2382 41.326C10.2411 41.3932 10.2572 41.4592 10.2856 41.5202C10.314 41.5813 10.3542 41.6361 10.4038 41.6815C10.4534 41.727 10.5115 41.7623 10.5747 41.7853C10.638 41.8083 10.7052 41.8186 10.7724 41.8156C10.8396 41.8126 10.9056 41.7964 10.9666 41.7679C11.0276 41.7394 11.0823 41.6991 11.1277 41.6494ZM54.7741 35.8123C54.7741 36.0148 54.7139 36.2128 54.6014 36.3811C54.4888 36.5495 54.3288 36.6806 54.1417 36.7581C53.9545 36.8355 53.7486 36.8557 53.55 36.816C53.3514 36.7764 53.169 36.6788 53.0259 36.5355C52.8828 36.3922 52.7854 36.2097 52.746 36.011C52.7067 35.8124 52.7271 35.6065 52.8048 35.4194C52.8824 35.2324 53.0138 35.0726 53.1823 34.9602C53.3508 34.8479 53.5488 34.788 53.7513 34.7882C54.0227 34.7886 54.2828 34.8967 54.4746 35.0887C54.6663 35.2807 54.774 35.5409 54.7741 35.8123H54.7741ZM59.4422 40.5376C59.318 40.286 59.1392 40.0653 58.9188 39.8915C58.6989 39.7174 58.4492 39.5846 58.1819 39.4996C57.9204 39.4148 57.645 39.3808 57.3706 39.3996C57.0943 39.4166 56.8245 39.4911 56.5786 39.6183C56.3327 39.7455 56.116 39.9226 55.9424 40.1382C55.7717 40.3518 55.6428 40.5956 55.5624 40.8569C55.4826 41.119 55.4514 41.3936 55.4705 41.6669C55.4875 41.9438 55.5569 42.215 55.6749 42.466L56.0564 43.2239C56.1661 43.4587 56.1844 43.7259 56.1079 43.9734C56.0707 44.1015 56.0073 44.2205 55.9217 44.3228C55.836 44.425 55.73 44.5083 55.6105 44.5674C55.4929 44.6284 55.3639 44.664 55.2317 44.6719C55.0994 44.6798 54.9671 44.6598 54.8431 44.6131C54.596 44.5294 54.3921 44.3513 54.2757 44.1177L53.2839 42.1458C53.2526 42.0774 53.2071 42.0165 53.1505 41.967C53.0939 41.9174 53.0274 41.8805 52.9555 41.8586C52.8973 41.84 52.8366 41.8302 52.7755 41.8297C52.6917 41.8302 52.6093 41.8507 52.535 41.8896C52.4667 41.9212 52.4056 41.9664 52.3554 42.0224C52.3051 42.0785 52.2669 42.1442 52.2431 42.2156C52.2189 42.2877 52.2103 42.3641 52.2177 42.4398C52.2251 42.5155 52.2484 42.5887 52.2861 42.6548L53.2774 44.6274C53.5415 45.121 53.9846 45.4946 54.5156 45.6717C54.7723 45.7552 55.0427 45.7886 55.312 45.7701C55.5882 45.7518 55.8577 45.6771 56.1039 45.5507C56.3565 45.4228 56.5789 45.2425 56.7563 45.0218C57.1093 44.5857 57.2862 44.0331 57.2521 43.4731C57.2381 43.2054 57.1685 42.9436 57.0477 42.7043L56.6697 41.9511C56.6094 41.8365 56.5729 41.7109 56.5624 41.5818C56.552 41.4527 56.5677 41.3229 56.6088 41.2C56.6839 40.9573 56.85 40.7529 57.0722 40.6296C57.3147 40.5036 57.5967 40.4769 57.8585 40.5551C57.9852 40.5912 58.1029 40.6535 58.2039 40.7379C58.3049 40.8224 58.3871 40.9272 58.4449 41.0455L59.4373 43.0179C59.4667 43.0855 59.51 43.1461 59.5644 43.1958C59.6188 43.2455 59.6831 43.2832 59.7531 43.3063C59.823 43.3295 59.8971 43.3376 59.9704 43.3302C60.0437 43.3228 60.1147 43.3001 60.1786 43.2634C60.3116 43.1855 60.4118 43.0621 60.4606 42.9159C60.4853 42.8502 60.4957 42.78 60.4911 42.71C60.4865 42.64 60.4671 42.5717 60.434 42.5098L59.4422 40.5376ZM61.8648 45.8274C61.5978 45.6023 61.2897 45.4311 60.9575 45.3235C60.6918 45.2378 60.4143 45.1944 60.1351 45.195C60.0671 45.195 59.9986 45.1975 59.9301 45.2023C59.5692 45.2295 59.2174 45.3292 58.8958 45.4955L57.1032 46.4095C56.7837 46.5696 56.5033 46.7978 56.2818 47.0782C56.067 47.3505 55.905 47.6606 55.8044 47.9925C55.7062 48.3245 55.6723 48.6721 55.7044 49.0168C55.7392 49.3792 55.8421 49.7318 56.0079 50.0559C56.1714 50.389 56.401 50.6853 56.6827 50.9267C56.9496 51.1524 57.2577 51.324 57.5901 51.4321C57.9222 51.5374 58.2714 51.5784 58.6188 51.5528C58.9793 51.5251 59.3305 51.4253 59.6516 51.2592L61.4448 50.3451C61.7641 50.1848 62.0444 49.9566 62.2662 49.6765C62.4809 49.404 62.6426 49.0936 62.7426 48.7614C62.8412 48.4298 62.8751 48.0824 62.8426 47.738C62.8105 47.3832 62.7114 47.0377 62.5506 46.7197C62.385 46.3788 62.1516 46.0752 61.8648 45.8274ZM61.7058 48.4732C61.6419 48.6799 61.5363 48.8713 61.3954 49.0356C61.2523 49.2036 61.0771 49.3413 60.8799 49.4405L59.1118 50.3281C58.9188 50.4262 58.7072 50.4823 58.4909 50.4925L58.4104 50.4943C58.228 50.4951 58.0469 50.4634 57.8755 50.4008C57.684 50.329 57.5065 50.2242 57.3511 50.0911C57.1866 49.9519 57.0523 49.7806 56.9562 49.5877C56.8465 49.378 56.782 49.1477 56.7667 48.9116C56.7542 48.6985 56.7797 48.485 56.8422 48.2809C56.906 48.0743 57.0117 47.883 57.1527 47.719C57.2983 47.5481 57.4804 47.4119 57.6856 47.3206L59.4342 46.4278C59.6278 46.3287 59.8404 46.2722 60.0576 46.2623L60.1401 46.2606C60.3215 46.26 60.5016 46.2915 60.672 46.3536C60.8643 46.4251 61.0422 46.5304 61.1974 46.6645C61.3667 46.8104 61.5047 46.9889 61.6033 47.1894C61.7072 47.3925 61.7677 47.615 61.7808 47.8428C61.7932 48.0557 61.7678 48.2691 61.7058 48.4732H61.7058ZM64.2968 50.5551C64.2391 50.5349 64.1785 50.5243 64.1174 50.5238C64.0328 50.5247 63.9496 50.546 63.8749 50.5858L58.3405 53.4087C58.2075 53.4862 58.1074 53.6096 58.059 53.7557C58.0349 53.8258 58.0258 53.9003 58.0324 53.9742C58.0389 54.0481 58.0609 54.1198 58.097 54.1846L59.8122 57.5967C59.8434 57.661 59.8876 57.7181 59.9421 57.7644C59.9966 57.8107 60.0601 57.8451 60.1287 57.8654C60.1996 57.8897 60.2748 57.8986 60.3495 57.8916C60.4241 57.8846 60.4964 57.8619 60.5616 57.8249C60.6917 57.7593 60.7907 57.6451 60.8371 57.5069C60.8835 57.3688 60.8736 57.2179 60.8095 57.0871L59.3438 54.1718L64.3858 51.6013C64.4516 51.5695 64.5096 51.5238 64.5561 51.4674C64.6025 51.411 64.6362 51.3453 64.6548 51.2746C64.6786 51.2063 64.6886 51.134 64.6843 51.0618C64.68 50.9896 64.6615 50.919 64.6298 50.854C64.5976 50.7841 64.5514 50.7216 64.4942 50.6701C64.4369 50.6187 64.3697 50.5796 64.2968 50.5551ZM60.74 59.0987C60.7161 59.1692 60.7065 59.2437 60.7119 59.318C60.7173 59.3922 60.7376 59.4646 60.7715 59.5309L61.7913 61.558C61.9401 61.8582 62.1513 62.1231 62.4107 62.3351C62.6666 62.5461 62.9597 62.7072 63.275 62.81C63.5907 62.91 63.9216 62.9534 64.2523 62.9382C64.5795 62.9242 64.8997 62.8397 65.1912 62.6905L67.2273 61.6525C67.5311 61.5005 67.798 61.2838 68.0092 61.0176C68.2157 60.7559 68.3734 60.4591 68.4746 60.1415C68.5734 59.825 68.6122 59.4929 68.5891 59.1622C68.5672 58.8349 68.4806 58.5151 68.3342 58.2216L67.3148 56.1942C67.2829 56.1261 67.2365 56.0659 67.1788 56.0176C67.1211 55.9694 67.0536 55.9344 66.9809 55.9151C66.9199 55.8968 66.8566 55.8872 66.7929 55.8865C66.71 55.8863 66.6282 55.906 66.5545 55.944L61.021 58.7657C60.9528 58.7976 60.8924 58.8439 60.8439 58.9013C60.7954 58.9588 60.7599 59.0262 60.74 59.0987ZM66.5559 57.2053L67.3263 58.736C67.4121 58.9052 67.4637 59.0896 67.4783 59.2787C67.5078 59.6459 67.3912 60.01 67.1538 60.2917C67.033 60.4355 66.8839 60.553 66.7159 60.6369L64.6807 61.6752C64.5148 61.7604 64.3334 61.8114 64.1473 61.8252C64.1149 61.8277 64.0829 61.8284 64.0514 61.8284H64.0509C63.9026 61.8284 63.7553 61.8047 63.6144 61.7582C63.4403 61.7014 63.2797 61.6095 63.1426 61.488C62.9999 61.3644 62.8831 61.2137 62.7991 61.0446L62.0297 59.5137L66.5559 57.2053ZM6.65498 47.5834C6.45249 47.5834 6.25455 47.6434 6.08619 47.7559C5.91782 47.8684 5.7866 48.0283 5.70911 48.2154C5.63162 48.4025 5.61134 48.6083 5.65085 48.8069C5.69035 49.0055 5.78786 49.1879 5.93104 49.3311C6.07422 49.4743 6.25665 49.5718 6.45525 49.6113C6.65385 49.6508 6.8597 49.6305 7.04678 49.553C7.23386 49.4756 7.39375 49.3443 7.50625 49.176C7.61875 49.0076 7.67879 48.8097 7.67879 48.6072C7.67848 48.3357 7.57052 48.0755 7.37858 47.8836C7.18665 47.6916 6.92642 47.5837 6.65498 47.5834ZM6.65498 49.1191C6.55374 49.1191 6.45477 49.089 6.37058 49.0328C6.2864 48.9766 6.22079 48.8966 6.18205 48.8031C6.1433 48.7095 6.13316 48.6066 6.15291 48.5073C6.17267 48.408 6.22142 48.3168 6.29301 48.2452C6.3646 48.1736 6.45582 48.1249 6.55512 48.1051C6.65442 48.0853 6.75734 48.0955 6.85088 48.1342C6.94442 48.173 7.02437 48.2386 7.08062 48.3228C7.13687 48.4069 7.16689 48.5059 7.16689 48.6072C7.16675 48.7429 7.11278 48.873 7.01681 48.969C6.92083 49.065 6.79071 49.1189 6.65498 49.1191ZM80.3693 14.3095C80.3693 14.107 80.3092 13.9091 80.1968 13.7407C80.0843 13.5724 79.9244 13.4411 79.7373 13.3637C79.5502 13.2862 79.3444 13.2659 79.1458 13.3054C78.9472 13.3449 78.7647 13.4424 78.6215 13.5856C78.4784 13.7288 78.3809 13.9112 78.3414 14.1098C78.3018 14.3084 78.3221 14.5142 78.3996 14.7013C78.4771 14.8884 78.6083 15.0483 78.7767 15.1608C78.9451 15.2733 79.143 15.3333 79.3455 15.3333C79.6169 15.333 79.8772 15.2251 80.0691 15.0331C80.261 14.8412 80.369 14.581 80.3693 14.3095ZM79.3455 14.8214C79.2442 14.8214 79.1453 14.7914 79.0611 14.7352C78.9769 14.6789 78.9113 14.599 78.8726 14.5054C78.8338 14.4119 78.8237 14.309 78.8434 14.2097C78.8632 14.1104 78.9119 14.0192 78.9835 13.9476C79.0551 13.876 79.1463 13.8272 79.2456 13.8075C79.3449 13.7877 79.4479 13.7978 79.5414 13.8366C79.6349 13.8753 79.7149 13.9409 79.7711 14.0251C79.8274 14.1093 79.8574 14.2083 79.8574 14.3095C79.8573 14.4453 79.8033 14.5754 79.7073 14.6714C79.6113 14.7673 79.4812 14.8213 79.3455 14.8214ZM28.6669 4.07143C28.9706 4.07143 29.2675 3.98136 29.5201 3.81262C29.7726 3.64387 29.9695 3.40402 30.0857 3.12341C30.2019 2.84279 30.2324 2.53401 30.1731 2.23611C30.1138 1.93821 29.9676 1.66457 29.7528 1.4498C29.538 1.23503 29.2644 1.08876 28.9665 1.02951C28.6686 0.970253 28.3598 1.00067 28.0792 1.1169C27.7986 1.23313 27.5587 1.42997 27.39 1.68252C27.2213 1.93507 27.1312 2.23198 27.1312 2.53572C27.1316 2.94287 27.2936 3.33321 27.5815 3.62112C27.8694 3.90902 28.2597 4.07096 28.6669 4.07143ZM28.6669 1.76786C28.8188 1.76786 28.9672 1.81289 29.0935 1.89727C29.2198 1.98164 29.3182 2.10156 29.3763 2.24187C29.4344 2.38218 29.4496 2.53657 29.42 2.68552C29.3904 2.83447 29.3172 2.97129 29.2099 3.07867C29.1025 3.18606 28.9656 3.25919 28.8167 3.28882C28.6677 3.31845 28.5134 3.30324 28.3731 3.24512C28.2327 3.18701 28.1128 3.08859 28.0284 2.96231C27.9441 2.83604 27.899 2.68758 27.899 2.53572C27.8992 2.33213 27.9802 2.13694 28.1242 1.99298C28.2681 1.84902 28.4633 1.76806 28.6669 1.76786ZM62.4526 21.9241C62.6425 21.9241 62.828 21.8678 62.9859 21.7624C63.1437 21.6569 63.2667 21.507 63.3394 21.3316C63.412 21.1562 63.431 20.9632 63.394 20.777C63.357 20.5909 63.2656 20.4198 63.1313 20.2856C62.9971 20.1514 62.8261 20.0599 62.6399 20.0229C62.4537 19.9859 62.2607 20.0049 62.0853 20.0775C61.9099 20.1502 61.76 20.2732 61.6546 20.431C61.5491 20.5889 61.4928 20.7745 61.4928 20.9643C61.4931 21.2188 61.5943 21.4627 61.7742 21.6427C61.9542 21.8226 62.1982 21.9238 62.4526 21.9241ZM62.4526 20.4844C62.5475 20.4844 62.6403 20.5125 62.7192 20.5653C62.7982 20.618 62.8597 20.693 62.896 20.7806C62.9323 20.8683 62.9418 20.9648 62.9233 21.0579C62.9048 21.151 62.8591 21.2365 62.792 21.3036C62.7248 21.3708 62.6393 21.4165 62.5462 21.435C62.4531 21.4535 62.3567 21.444 62.269 21.4077C62.1813 21.3714 62.1063 21.3098 62.0536 21.2309C62.0008 21.152 61.9727 21.0592 61.9727 20.9643C61.9728 20.8371 62.0234 20.7151 62.1134 20.6251C62.2034 20.5351 62.3254 20.4845 62.4526 20.4844ZM74.2264 36.3214C74.4289 36.3214 74.6269 36.2614 74.7952 36.1489C74.9636 36.0364 75.0948 35.8765 75.1723 35.6894C75.2498 35.5024 75.2701 35.2965 75.2306 35.0979C75.1911 34.8993 75.0936 34.7169 74.9504 34.5737C74.8072 34.4305 74.6248 34.333 74.4262 34.2935C74.2276 34.254 74.0217 34.2743 73.8346 34.3518C73.6476 34.4292 73.4877 34.5605 73.3752 34.7288C73.2627 34.8972 73.2026 35.0951 73.2026 35.2976C73.2029 35.5691 73.3109 35.8293 73.5028 36.0212C73.6948 36.2132 73.955 36.3211 74.2264 36.3214ZM74.2264 34.7857C74.3277 34.7857 74.4267 34.8158 74.5108 34.872C74.595 34.9283 74.6606 35.0082 74.6994 35.1017C74.7381 35.1953 74.7483 35.2982 74.7285 35.3975C74.7088 35.4968 74.66 35.588 74.5884 35.6596C74.5168 35.7312 74.4256 35.7799 74.3263 35.7997C74.227 35.8195 74.1241 35.8093 74.0305 35.7706C73.937 35.7318 73.8571 35.6662 73.8008 35.582C73.7446 35.4979 73.7145 35.3989 73.7145 35.2976C73.7147 35.1619 73.7686 35.0318 73.8646 34.9358C73.9606 34.8398 74.0907 34.7859 74.2264 34.7857ZM5.11927 14.3095C5.32176 14.3095 5.5197 14.2495 5.68807 14.137C5.85643 14.0245 5.98766 13.8646 6.06515 13.6775C6.14264 13.4904 6.16291 13.2846 6.12341 13.086C6.0839 12.8874 5.98639 12.705 5.84321 12.5618C5.70003 12.4186 5.5176 12.3211 5.319 12.2816C5.1204 12.2421 4.91455 12.2624 4.72747 12.3398C4.5404 12.4173 4.3805 12.5486 4.268 12.7169C4.1555 12.8853 4.09546 13.0832 4.09546 13.2857C4.09577 13.5572 4.20373 13.8174 4.39567 14.0093C4.5876 14.2013 4.84783 14.3092 5.11927 14.3095ZM5.11927 12.7738C5.22051 12.7738 5.31949 12.8038 5.40367 12.8601C5.48785 12.9163 5.55346 12.9963 5.59221 13.0898C5.63095 13.1834 5.64109 13.2863 5.62134 13.3856C5.60159 13.4849 5.55283 13.5761 5.48124 13.6477C5.40965 13.7193 5.31844 13.768 5.21914 13.7878C5.11984 13.8075 5.01691 13.7974 4.92337 13.7587C4.82983 13.7199 4.74988 13.6543 4.69364 13.5701C4.63739 13.4859 4.60736 13.387 4.60736 13.2857C4.6075 13.15 4.66148 13.0199 4.75745 12.9239C4.85342 12.8279 4.98354 12.774 5.11927 12.7738Z"/>
</mask>
<path d="M11.1277 41.6494L33.707 17.0168C34.4929 16.1927 35.3182 16.2362 35.7986 16.6456L48.9062 31.1674C49.0454 30.8393 49.238 30.5365 49.4761 30.2713L47.5975 28.1899C47.6018 28.1738 47.6051 28.1574 47.6074 28.1409V23.527H50.6789V29.4174C51.0049 29.2821 51.3506 29.2003 51.7027 29.1752V23.0151C51.7027 22.9479 51.6895 22.8813 51.6637 22.8192C51.638 22.7571 51.6003 22.7006 51.5528 22.6531C51.5052 22.6056 51.4488 22.5679 51.3867 22.5421C51.3246 22.5164 51.258 22.5032 51.1908 22.5032H47.0955C47.0283 22.5032 46.9617 22.5164 46.8996 22.5421C46.8375 22.5679 46.7811 22.6056 46.7335 22.6531C46.686 22.7006 46.6483 22.7571 46.6226 22.8192C46.5969 22.8813 46.5836 22.9479 46.5836 23.0151V24.8485C46.3382 24.5232 46.1685 24.147 46.0871 23.7476C46.0057 23.3482 46.0147 22.9357 46.1132 22.5402C46.1975 22.0721 46.4174 21.6391 46.7456 21.2949C47.0738 20.9506 47.4958 20.7104 47.9594 20.6038C48.8642 20.4133 49.801 20.4365 50.6953 20.6716C51.5896 20.9066 52.4167 21.3471 53.1109 21.9578C54.9981 23.9535 55.7924 27.692 54.959 30.6542C54.6447 31.7209 54.2478 32.7614 53.7718 33.7664C53.7648 33.7664 53.7583 33.7644 53.7513 33.7644C53.2476 33.7579 52.7588 33.935 52.3761 34.2626C51.9935 34.5902 51.7432 35.046 51.672 35.5447C51.6008 36.0434 51.7136 36.5509 51.9893 36.9725C52.2651 37.3941 52.6848 37.7009 53.1702 37.8356C53.6556 37.9703 54.1735 37.9237 54.627 37.7044C55.0805 37.4852 55.4388 37.1083 55.6347 36.6443C55.8307 36.1802 55.851 35.6607 55.6919 35.1827C55.5328 34.7048 55.2051 34.3011 54.7701 34.0471C55.2403 33.0399 55.633 31.9983 55.9449 30.9314C56.8827 27.5967 56.0038 23.5275 53.8548 21.2544C53.0341 20.5049 52.0445 19.9646 50.9702 19.6797C49.8959 19.3948 48.7687 19.3736 47.6844 19.618C47.0401 19.7722 46.4543 20.1099 45.9978 20.5901C45.5413 21.0703 45.2338 21.6725 45.1124 22.3238C44.926 23.0448 44.9674 23.8059 45.2308 24.5025C45.4942 25.1991 45.9668 25.7972 46.5836 26.2145V27.0666L36.538 15.9372C36.5255 15.9234 36.5123 15.9102 36.4985 15.8977C35.6802 15.1693 34.2264 14.9881 32.9592 16.3177L10.3729 40.9576C10.3273 41.0071 10.292 41.0651 10.2688 41.1283C10.2457 41.1916 10.2353 41.2587 10.2382 41.326C10.2411 41.3932 10.2572 41.4592 10.2856 41.5202C10.314 41.5813 10.3542 41.6361 10.4038 41.6815C10.4534 41.727 10.5115 41.7623 10.5747 41.7853C10.638 41.8083 10.7052 41.8186 10.7724 41.8156C10.8396 41.8126 10.9056 41.7964 10.9666 41.7679C11.0276 41.7394 11.0823 41.6991 11.1277 41.6494ZM54.7741 35.8123C54.7741 36.0148 54.7139 36.2128 54.6014 36.3811C54.4888 36.5495 54.3288 36.6806 54.1417 36.7581C53.9545 36.8355 53.7486 36.8557 53.55 36.816C53.3514 36.7764 53.169 36.6788 53.0259 36.5355C52.8828 36.3922 52.7854 36.2097 52.746 36.011C52.7067 35.8124 52.7271 35.6065 52.8048 35.4194C52.8824 35.2324 53.0138 35.0726 53.1823 34.9602C53.3508 34.8479 53.5488 34.788 53.7513 34.7882C54.0227 34.7886 54.2828 34.8967 54.4746 35.0887C54.6663 35.2807 54.774 35.5409 54.7741 35.8123H54.7741ZM59.4422 40.5376C59.318 40.286 59.1392 40.0653 58.9188 39.8915C58.6989 39.7174 58.4492 39.5846 58.1819 39.4996C57.9204 39.4148 57.645 39.3808 57.3706 39.3996C57.0943 39.4166 56.8245 39.4911 56.5786 39.6183C56.3327 39.7455 56.116 39.9226 55.9424 40.1382C55.7717 40.3518 55.6428 40.5956 55.5624 40.8569C55.4826 41.119 55.4514 41.3936 55.4705 41.6669C55.4875 41.9438 55.5569 42.215 55.6749 42.466L56.0564 43.2239C56.1661 43.4587 56.1844 43.7259 56.1079 43.9734C56.0707 44.1015 56.0073 44.2205 55.9217 44.3228C55.836 44.425 55.73 44.5083 55.6105 44.5674C55.4929 44.6284 55.3639 44.664 55.2317 44.6719C55.0994 44.6798 54.9671 44.6598 54.8431 44.6131C54.596 44.5294 54.3921 44.3513 54.2757 44.1177L53.2839 42.1458C53.2526 42.0774 53.2071 42.0165 53.1505 41.967C53.0939 41.9174 53.0274 41.8805 52.9555 41.8586C52.8973 41.84 52.8366 41.8302 52.7755 41.8297C52.6917 41.8302 52.6093 41.8507 52.535 41.8896C52.4667 41.9212 52.4056 41.9664 52.3554 42.0224C52.3051 42.0785 52.2669 42.1442 52.2431 42.2156C52.2189 42.2877 52.2103 42.3641 52.2177 42.4398C52.2251 42.5155 52.2484 42.5887 52.2861 42.6548L53.2774 44.6274C53.5415 45.121 53.9846 45.4946 54.5156 45.6717C54.7723 45.7552 55.0427 45.7886 55.312 45.7701C55.5882 45.7518 55.8577 45.6771 56.1039 45.5507C56.3565 45.4228 56.5789 45.2425 56.7563 45.0218C57.1093 44.5857 57.2862 44.0331 57.2521 43.4731C57.2381 43.2054 57.1685 42.9436 57.0477 42.7043L56.6697 41.9511C56.6094 41.8365 56.5729 41.7109 56.5624 41.5818C56.552 41.4527 56.5677 41.3229 56.6088 41.2C56.6839 40.9573 56.85 40.7529 57.0722 40.6296C57.3147 40.5036 57.5967 40.4769 57.8585 40.5551C57.9852 40.5912 58.1029 40.6535 58.2039 40.7379C58.3049 40.8224 58.3871 40.9272 58.4449 41.0455L59.4373 43.0179C59.4667 43.0855 59.51 43.1461 59.5644 43.1958C59.6188 43.2455 59.6831 43.2832 59.7531 43.3063C59.823 43.3295 59.8971 43.3376 59.9704 43.3302C60.0437 43.3228 60.1147 43.3001 60.1786 43.2634C60.3116 43.1855 60.4118 43.0621 60.4606 42.9159C60.4853 42.8502 60.4957 42.78 60.4911 42.71C60.4865 42.64 60.4671 42.5717 60.434 42.5098L59.4422 40.5376ZM61.8648 45.8274C61.5978 45.6023 61.2897 45.4311 60.9575 45.3235C60.6918 45.2378 60.4143 45.1944 60.1351 45.195C60.0671 45.195 59.9986 45.1975 59.9301 45.2023C59.5692 45.2295 59.2174 45.3292 58.8958 45.4955L57.1032 46.4095C56.7837 46.5696 56.5033 46.7978 56.2818 47.0782C56.067 47.3505 55.905 47.6606 55.8044 47.9925C55.7062 48.3245 55.6723 48.6721 55.7044 49.0168C55.7392 49.3792 55.8421 49.7318 56.0079 50.0559C56.1714 50.389 56.401 50.6853 56.6827 50.9267C56.9496 51.1524 57.2577 51.324 57.5901 51.4321C57.9222 51.5374 58.2714 51.5784 58.6188 51.5528C58.9793 51.5251 59.3305 51.4253 59.6516 51.2592L61.4448 50.3451C61.7641 50.1848 62.0444 49.9566 62.2662 49.6765C62.4809 49.404 62.6426 49.0936 62.7426 48.7614C62.8412 48.4298 62.8751 48.0824 62.8426 47.738C62.8105 47.3832 62.7114 47.0377 62.5506 46.7197C62.385 46.3788 62.1516 46.0752 61.8648 45.8274ZM61.7058 48.4732C61.6419 48.6799 61.5363 48.8713 61.3954 49.0356C61.2523 49.2036 61.0771 49.3413 60.8799 49.4405L59.1118 50.3281C58.9188 50.4262 58.7072 50.4823 58.4909 50.4925L58.4104 50.4943C58.228 50.4951 58.0469 50.4634 57.8755 50.4008C57.684 50.329 57.5065 50.2242 57.3511 50.0911C57.1866 49.9519 57.0523 49.7806 56.9562 49.5877C56.8465 49.378 56.782 49.1477 56.7667 48.9116C56.7542 48.6985 56.7797 48.485 56.8422 48.2809C56.906 48.0743 57.0117 47.883 57.1527 47.719C57.2983 47.5481 57.4804 47.4119 57.6856 47.3206L59.4342 46.4278C59.6278 46.3287 59.8404 46.2722 60.0576 46.2623L60.1401 46.2606C60.3215 46.26 60.5016 46.2915 60.672 46.3536C60.8643 46.4251 61.0422 46.5304 61.1974 46.6645C61.3667 46.8104 61.5047 46.9889 61.6033 47.1894C61.7072 47.3925 61.7677 47.615 61.7808 47.8428C61.7932 48.0557 61.7678 48.2691 61.7058 48.4732H61.7058ZM64.2968 50.5551C64.2391 50.5349 64.1785 50.5243 64.1174 50.5238C64.0328 50.5247 63.9496 50.546 63.8749 50.5858L58.3405 53.4087C58.2075 53.4862 58.1074 53.6096 58.059 53.7557C58.0349 53.8258 58.0258 53.9003 58.0324 53.9742C58.0389 54.0481 58.0609 54.1198 58.097 54.1846L59.8122 57.5967C59.8434 57.661 59.8876 57.7181 59.9421 57.7644C59.9966 57.8107 60.0601 57.8451 60.1287 57.8654C60.1996 57.8897 60.2748 57.8986 60.3495 57.8916C60.4241 57.8846 60.4964 57.8619 60.5616 57.8249C60.6917 57.7593 60.7907 57.6451 60.8371 57.5069C60.8835 57.3688 60.8736 57.2179 60.8095 57.0871L59.3438 54.1718L64.3858 51.6013C64.4516 51.5695 64.5096 51.5238 64.5561 51.4674C64.6025 51.411 64.6362 51.3453 64.6548 51.2746C64.6786 51.2063 64.6886 51.134 64.6843 51.0618C64.68 50.9896 64.6615 50.919 64.6298 50.854C64.5976 50.7841 64.5514 50.7216 64.4942 50.6701C64.4369 50.6187 64.3697 50.5796 64.2968 50.5551ZM60.74 59.0987C60.7161 59.1692 60.7065 59.2437 60.7119 59.318C60.7173 59.3922 60.7376 59.4646 60.7715 59.5309L61.7913 61.558C61.9401 61.8582 62.1513 62.1231 62.4107 62.3351C62.6666 62.5461 62.9597 62.7072 63.275 62.81C63.5907 62.91 63.9216 62.9534 64.2523 62.9382C64.5795 62.9242 64.8997 62.8397 65.1912 62.6905L67.2273 61.6525C67.5311 61.5005 67.798 61.2838 68.0092 61.0176C68.2157 60.7559 68.3734 60.4591 68.4746 60.1415C68.5734 59.825 68.6122 59.4929 68.5891 59.1622C68.5672 58.8349 68.4806 58.5151 68.3342 58.2216L67.3148 56.1942C67.2829 56.1261 67.2365 56.0659 67.1788 56.0176C67.1211 55.9694 67.0536 55.9344 66.9809 55.9151C66.9199 55.8968 66.8566 55.8872 66.7929 55.8865C66.71 55.8863 66.6282 55.906 66.5545 55.944L61.021 58.7657C60.9528 58.7976 60.8924 58.8439 60.8439 58.9013C60.7954 58.9588 60.7599 59.0262 60.74 59.0987ZM66.5559 57.2053L67.3263 58.736C67.4121 58.9052 67.4637 59.0896 67.4783 59.2787C67.5078 59.6459 67.3912 60.01 67.1538 60.2917C67.033 60.4355 66.8839 60.553 66.7159 60.6369L64.6807 61.6752C64.5148 61.7604 64.3334 61.8114 64.1473 61.8252C64.1149 61.8277 64.0829 61.8284 64.0514 61.8284H64.0509C63.9026 61.8284 63.7553 61.8047 63.6144 61.7582C63.4403 61.7014 63.2797 61.6095 63.1426 61.488C62.9999 61.3644 62.8831 61.2137 62.7991 61.0446L62.0297 59.5137L66.5559 57.2053ZM6.65498 47.5834C6.45249 47.5834 6.25455 47.6434 6.08619 47.7559C5.91782 47.8684 5.7866 48.0283 5.70911 48.2154C5.63162 48.4025 5.61134 48.6083 5.65085 48.8069C5.69035 49.0055 5.78786 49.1879 5.93104 49.3311C6.07422 49.4743 6.25665 49.5718 6.45525 49.6113C6.65385 49.6508 6.8597 49.6305 7.04678 49.553C7.23386 49.4756 7.39375 49.3443 7.50625 49.176C7.61875 49.0076 7.67879 48.8097 7.67879 48.6072C7.67848 48.3357 7.57052 48.0755 7.37858 47.8836C7.18665 47.6916 6.92642 47.5837 6.65498 47.5834ZM6.65498 49.1191C6.55374 49.1191 6.45477 49.089 6.37058 49.0328C6.2864 48.9766 6.22079 48.8966 6.18205 48.8031C6.1433 48.7095 6.13316 48.6066 6.15291 48.5073C6.17267 48.408 6.22142 48.3168 6.29301 48.2452C6.3646 48.1736 6.45582 48.1249 6.55512 48.1051C6.65442 48.0853 6.75734 48.0955 6.85088 48.1342C6.94442 48.173 7.02437 48.2386 7.08062 48.3228C7.13687 48.4069 7.16689 48.5059 7.16689 48.6072C7.16675 48.7429 7.11278 48.873 7.01681 48.969C6.92083 49.065 6.79071 49.1189 6.65498 49.1191ZM80.3693 14.3095C80.3693 14.107 80.3092 13.9091 80.1968 13.7407C80.0843 13.5724 79.9244 13.4411 79.7373 13.3637C79.5502 13.2862 79.3444 13.2659 79.1458 13.3054C78.9472 13.3449 78.7647 13.4424 78.6215 13.5856C78.4784 13.7288 78.3809 13.9112 78.3414 14.1098C78.3018 14.3084 78.3221 14.5142 78.3996 14.7013C78.4771 14.8884 78.6083 15.0483 78.7767 15.1608C78.9451 15.2733 79.143 15.3333 79.3455 15.3333C79.6169 15.333 79.8772 15.2251 80.0691 15.0331C80.261 14.8412 80.369 14.581 80.3693 14.3095ZM79.3455 14.8214C79.2442 14.8214 79.1453 14.7914 79.0611 14.7352C78.9769 14.6789 78.9113 14.599 78.8726 14.5054C78.8338 14.4119 78.8237 14.309 78.8434 14.2097C78.8632 14.1104 78.9119 14.0192 78.9835 13.9476C79.0551 13.876 79.1463 13.8272 79.2456 13.8075C79.3449 13.7877 79.4479 13.7978 79.5414 13.8366C79.6349 13.8753 79.7149 13.9409 79.7711 14.0251C79.8274 14.1093 79.8574 14.2083 79.8574 14.3095C79.8573 14.4453 79.8033 14.5754 79.7073 14.6714C79.6113 14.7673 79.4812 14.8213 79.3455 14.8214ZM28.6669 4.07143C28.9706 4.07143 29.2675 3.98136 29.5201 3.81262C29.7726 3.64387 29.9695 3.40402 30.0857 3.12341C30.2019 2.84279 30.2324 2.53401 30.1731 2.23611C30.1138 1.93821 29.9676 1.66457 29.7528 1.4498C29.538 1.23503 29.2644 1.08876 28.9665 1.02951C28.6686 0.970253 28.3598 1.00067 28.0792 1.1169C27.7986 1.23313 27.5587 1.42997 27.39 1.68252C27.2213 1.93507 27.1312 2.23198 27.1312 2.53572C27.1316 2.94287 27.2936 3.33321 27.5815 3.62112C27.8694 3.90902 28.2597 4.07096 28.6669 4.07143ZM28.6669 1.76786C28.8188 1.76786 28.9672 1.81289 29.0935 1.89727C29.2198 1.98164 29.3182 2.10156 29.3763 2.24187C29.4344 2.38218 29.4496 2.53657 29.42 2.68552C29.3904 2.83447 29.3172 2.97129 29.2099 3.07867C29.1025 3.18606 28.9656 3.25919 28.8167 3.28882C28.6677 3.31845 28.5134 3.30324 28.3731 3.24512C28.2327 3.18701 28.1128 3.08859 28.0284 2.96231C27.9441 2.83604 27.899 2.68758 27.899 2.53572C27.8992 2.33213 27.9802 2.13694 28.1242 1.99298C28.2681 1.84902 28.4633 1.76806 28.6669 1.76786ZM62.4526 21.9241C62.6425 21.9241 62.828 21.8678 62.9859 21.7624C63.1437 21.6569 63.2667 21.507 63.3394 21.3316C63.412 21.1562 63.431 20.9632 63.394 20.777C63.357 20.5909 63.2656 20.4198 63.1313 20.2856C62.9971 20.1514 62.8261 20.0599 62.6399 20.0229C62.4537 19.9859 62.2607 20.0049 62.0853 20.0775C61.9099 20.1502 61.76 20.2732 61.6546 20.431C61.5491 20.5889 61.4928 20.7745 61.4928 20.9643C61.4931 21.2188 61.5943 21.4627 61.7742 21.6427C61.9542 21.8226 62.1982 21.9238 62.4526 21.9241ZM62.4526 20.4844C62.5475 20.4844 62.6403 20.5125 62.7192 20.5653C62.7982 20.618 62.8597 20.693 62.896 20.7806C62.9323 20.8683 62.9418 20.9648 62.9233 21.0579C62.9048 21.151 62.8591 21.2365 62.792 21.3036C62.7248 21.3708 62.6393 21.4165 62.5462 21.435C62.4531 21.4535 62.3567 21.444 62.269 21.4077C62.1813 21.3714 62.1063 21.3098 62.0536 21.2309C62.0008 21.152 61.9727 21.0592 61.9727 20.9643C61.9728 20.8371 62.0234 20.7151 62.1134 20.6251C62.2034 20.5351 62.3254 20.4845 62.4526 20.4844ZM74.2264 36.3214C74.4289 36.3214 74.6269 36.2614 74.7952 36.1489C74.9636 36.0364 75.0948 35.8765 75.1723 35.6894C75.2498 35.5024 75.2701 35.2965 75.2306 35.0979C75.1911 34.8993 75.0936 34.7169 74.9504 34.5737C74.8072 34.4305 74.6248 34.333 74.4262 34.2935C74.2276 34.254 74.0217 34.2743 73.8346 34.3518C73.6476 34.4292 73.4877 34.5605 73.3752 34.7288C73.2627 34.8972 73.2026 35.0951 73.2026 35.2976C73.2029 35.5691 73.3109 35.8293 73.5028 36.0212C73.6948 36.2132 73.955 36.3211 74.2264 36.3214ZM74.2264 34.7857C74.3277 34.7857 74.4267 34.8158 74.5108 34.872C74.595 34.9283 74.6606 35.0082 74.6994 35.1017C74.7381 35.1953 74.7483 35.2982 74.7285 35.3975C74.7088 35.4968 74.66 35.588 74.5884 35.6596C74.5168 35.7312 74.4256 35.7799 74.3263 35.7997C74.227 35.8195 74.1241 35.8093 74.0305 35.7706C73.937 35.7318 73.8571 35.6662 73.8008 35.582C73.7446 35.4979 73.7145 35.3989 73.7145 35.2976C73.7147 35.1619 73.7686 35.0318 73.8646 34.9358C73.9606 34.8398 74.0907 34.7859 74.2264 34.7857ZM5.11927 14.3095C5.32176 14.3095 5.5197 14.2495 5.68807 14.137C5.85643 14.0245 5.98766 13.8646 6.06515 13.6775C6.14264 13.4904 6.16291 13.2846 6.12341 13.086C6.0839 12.8874 5.98639 12.705 5.84321 12.5618C5.70003 12.4186 5.5176 12.3211 5.319 12.2816C5.1204 12.2421 4.91455 12.2624 4.72747 12.3398C4.5404 12.4173 4.3805 12.5486 4.268 12.7169C4.1555 12.8853 4.09546 13.0832 4.09546 13.2857C4.09577 13.5572 4.20373 13.8174 4.39567 14.0093C4.5876 14.2013 4.84783 14.3092 5.11927 14.3095ZM5.11927 12.7738C5.22051 12.7738 5.31949 12.8038 5.40367 12.8601C5.48785 12.9163 5.55346 12.9963 5.59221 13.0898C5.63095 13.1834 5.64109 13.2863 5.62134 13.3856C5.60159 13.4849 5.55283 13.5761 5.48124 13.6477C5.40965 13.7193 5.31844 13.768 5.21914 13.7878C5.11984 13.8075 5.01691 13.7974 4.92337 13.7587C4.82983 13.7199 4.74988 13.6543 4.69364 13.5701C4.63739 13.4859 4.60736 13.387 4.60736 13.2857C4.6075 13.15 4.66148 13.0199 4.75745 12.9239C4.85342 12.8279 4.98354 12.774 5.11927 12.7738Z" fill="#2D4356"/>
<path d="M11.1277 41.6494L33.707 17.0168C34.4929 16.1927 35.3182 16.2362 35.7986 16.6456L48.9062 31.1674C49.0454 30.8393 49.238 30.5365 49.4761 30.2713L47.5975 28.1899C47.6018 28.1738 47.6051 28.1574 47.6074 28.1409V23.527H50.6789V29.4174C51.0049 29.2821 51.3506 29.2003 51.7027 29.1752V23.0151C51.7027 22.9479 51.6895 22.8813 51.6637 22.8192C51.638 22.7571 51.6003 22.7006 51.5528 22.6531C51.5052 22.6056 51.4488 22.5679 51.3867 22.5421C51.3246 22.5164 51.258 22.5032 51.1908 22.5032H47.0955C47.0283 22.5032 46.9617 22.5164 46.8996 22.5421C46.8375 22.5679 46.7811 22.6056 46.7335 22.6531C46.686 22.7006 46.6483 22.7571 46.6226 22.8192C46.5969 22.8813 46.5836 22.9479 46.5836 23.0151V24.8485C46.3382 24.5232 46.1685 24.147 46.0871 23.7476C46.0057 23.3482 46.0147 22.9357 46.1132 22.5402C46.1975 22.0721 46.4174 21.6391 46.7456 21.2949C47.0738 20.9506 47.4958 20.7104 47.9594 20.6038C48.8642 20.4133 49.801 20.4365 50.6953 20.6716C51.5896 20.9066 52.4167 21.3471 53.1109 21.9578C54.9981 23.9535 55.7924 27.692 54.959 30.6542C54.6447 31.7209 54.2478 32.7614 53.7718 33.7664C53.7648 33.7664 53.7583 33.7644 53.7513 33.7644C53.2476 33.7579 52.7588 33.935 52.3761 34.2626C51.9935 34.5902 51.7432 35.046 51.672 35.5447C51.6008 36.0434 51.7136 36.5509 51.9893 36.9725C52.2651 37.3941 52.6848 37.7009 53.1702 37.8356C53.6556 37.9703 54.1735 37.9237 54.627 37.7044C55.0805 37.4852 55.4388 37.1083 55.6347 36.6443C55.8307 36.1802 55.851 35.6607 55.6919 35.1827C55.5328 34.7048 55.2051 34.3011 54.7701 34.0471C55.2403 33.0399 55.633 31.9983 55.9449 30.9314C56.8827 27.5967 56.0038 23.5275 53.8548 21.2544C53.0341 20.5049 52.0445 19.9646 50.9702 19.6797C49.8959 19.3948 48.7687 19.3736 47.6844 19.618C47.0401 19.7722 46.4543 20.1099 45.9978 20.5901C45.5413 21.0703 45.2338 21.6725 45.1124 22.3238C44.926 23.0448 44.9674 23.8059 45.2308 24.5025C45.4942 25.1991 45.9668 25.7972 46.5836 26.2145V27.0666L36.538 15.9372C36.5255 15.9234 36.5123 15.9102 36.4985 15.8977C35.6802 15.1693 34.2264 14.9881 32.9592 16.3177L10.3729 40.9576C10.3273 41.0071 10.292 41.0651 10.2688 41.1283C10.2457 41.1916 10.2353 41.2587 10.2382 41.326C10.2411 41.3932 10.2572 41.4592 10.2856 41.5202C10.314 41.5813 10.3542 41.6361 10.4038 41.6815C10.4534 41.727 10.5115 41.7623 10.5747 41.7853C10.638 41.8083 10.7052 41.8186 10.7724 41.8156C10.8396 41.8126 10.9056 41.7964 10.9666 41.7679C11.0276 41.7394 11.0823 41.6991 11.1277 41.6494ZM54.7741 35.8123C54.7741 36.0148 54.7139 36.2128 54.6014 36.3811C54.4888 36.5495 54.3288 36.6806 54.1417 36.7581C53.9545 36.8355 53.7486 36.8557 53.55 36.816C53.3514 36.7764 53.169 36.6788 53.0259 36.5355C52.8828 36.3922 52.7854 36.2097 52.746 36.011C52.7067 35.8124 52.7271 35.6065 52.8048 35.4194C52.8824 35.2324 53.0138 35.0726 53.1823 34.9602C53.3508 34.8479 53.5488 34.788 53.7513 34.7882C54.0227 34.7886 54.2828 34.8967 54.4746 35.0887C54.6663 35.2807 54.774 35.5409 54.7741 35.8123H54.7741ZM59.4422 40.5376C59.318 40.286 59.1392 40.0653 58.9188 39.8915C58.6989 39.7174 58.4492 39.5846 58.1819 39.4996C57.9204 39.4148 57.645 39.3808 57.3706 39.3996C57.0943 39.4166 56.8245 39.4911 56.5786 39.6183C56.3327 39.7455 56.116 39.9226 55.9424 40.1382C55.7717 40.3518 55.6428 40.5956 55.5624 40.8569C55.4826 41.119 55.4514 41.3936 55.4705 41.6669C55.4875 41.9438 55.5569 42.215 55.6749 42.466L56.0564 43.2239C56.1661 43.4587 56.1844 43.7259 56.1079 43.9734C56.0707 44.1015 56.0073 44.2205 55.9217 44.3228C55.836 44.425 55.73 44.5083 55.6105 44.5674C55.4929 44.6284 55.3639 44.664 55.2317 44.6719C55.0994 44.6798 54.9671 44.6598 54.8431 44.6131C54.596 44.5294 54.3921 44.3513 54.2757 44.1177L53.2839 42.1458C53.2526 42.0774 53.2071 42.0165 53.1505 41.967C53.0939 41.9174 53.0274 41.8805 52.9555 41.8586C52.8973 41.84 52.8366 41.8302 52.7755 41.8297C52.6917 41.8302 52.6093 41.8507 52.535 41.8896C52.4667 41.9212 52.4056 41.9664 52.3554 42.0224C52.3051 42.0785 52.2669 42.1442 52.2431 42.2156C52.2189 42.2877 52.2103 42.3641 52.2177 42.4398C52.2251 42.5155 52.2484 42.5887 52.2861 42.6548L53.2774 44.6274C53.5415 45.121 53.9846 45.4946 54.5156 45.6717C54.7723 45.7552 55.0427 45.7886 55.312 45.7701C55.5882 45.7518 55.8577 45.6771 56.1039 45.5507C56.3565 45.4228 56.5789 45.2425 56.7563 45.0218C57.1093 44.5857 57.2862 44.0331 57.2521 43.4731C57.2381 43.2054 57.1685 42.9436 57.0477 42.7043L56.6697 41.9511C56.6094 41.8365 56.5729 41.7109 56.5624 41.5818C56.552 41.4527 56.5677 41.3229 56.6088 41.2C56.6839 40.9573 56.85 40.7529 57.0722 40.6296C57.3147 40.5036 57.5967 40.4769 57.8585 40.5551C57.9852 40.5912 58.1029 40.6535 58.2039 40.7379C58.3049 40.8224 58.3871 40.9272 58.4449 41.0455L59.4373 43.0179C59.4667 43.0855 59.51 43.1461 59.5644 43.1958C59.6188 43.2455 59.6831 43.2832 59.7531 43.3063C59.823 43.3295 59.8971 43.3376 59.9704 43.3302C60.0437 43.3228 60.1147 43.3001 60.1786 43.2634C60.3116 43.1855 60.4118 43.0621 60.4606 42.9159C60.4853 42.8502 60.4957 42.78 60.4911 42.71C60.4865 42.64 60.4671 42.5717 60.434 42.5098L59.4422 40.5376ZM61.8648 45.8274C61.5978 45.6023 61.2897 45.4311 60.9575 45.3235C60.6918 45.2378 60.4143 45.1944 60.1351 45.195C60.0671 45.195 59.9986 45.1975 59.9301 45.2023C59.5692 45.2295 59.2174 45.3292 58.8958 45.4955L57.1032 46.4095C56.7837 46.5696 56.5033 46.7978 56.2818 47.0782C56.067 47.3505 55.905 47.6606 55.8044 47.9925C55.7062 48.3245 55.6723 48.6721 55.7044 49.0168C55.7392 49.3792 55.8421 49.7318 56.0079 50.0559C56.1714 50.389 56.401 50.6853 56.6827 50.9267C56.9496 51.1524 57.2577 51.324 57.5901 51.4321C57.9222 51.5374 58.2714 51.5784 58.6188 51.5528C58.9793 51.5251 59.3305 51.4253 59.6516 51.2592L61.4448 50.3451C61.7641 50.1848 62.0444 49.9566 62.2662 49.6765C62.4809 49.404 62.6426 49.0936 62.7426 48.7614C62.8412 48.4298 62.8751 48.0824 62.8426 47.738C62.8105 47.3832 62.7114 47.0377 62.5506 46.7197C62.385 46.3788 62.1516 46.0752 61.8648 45.8274ZM61.7058 48.4732C61.6419 48.6799 61.5363 48.8713 61.3954 49.0356C61.2523 49.2036 61.0771 49.3413 60.8799 49.4405L59.1118 50.3281C58.9188 50.4262 58.7072 50.4823 58.4909 50.4925L58.4104 50.4943C58.228 50.4951 58.0469 50.4634 57.8755 50.4008C57.684 50.329 57.5065 50.2242 57.3511 50.0911C57.1866 49.9519 57.0523 49.7806 56.9562 49.5877C56.8465 49.378 56.782 49.1477 56.7667 48.9116C56.7542 48.6985 56.7797 48.485 56.8422 48.2809C56.906 48.0743 57.0117 47.883 57.1527 47.719C57.2983 47.5481 57.4804 47.4119 57.6856 47.3206L59.4342 46.4278C59.6278 46.3287 59.8404 46.2722 60.0576 46.2623L60.1401 46.2606C60.3215 46.26 60.5016 46.2915 60.672 46.3536C60.8643 46.4251 61.0422 46.5304 61.1974 46.6645C61.3667 46.8104 61.5047 46.9889 61.6033 47.1894C61.7072 47.3925 61.7677 47.615 61.7808 47.8428C61.7932 48.0557 61.7678 48.2691 61.7058 48.4732H61.7058ZM64.2968 50.5551C64.2391 50.5349 64.1785 50.5243 64.1174 50.5238C64.0328 50.5247 63.9496 50.546 63.8749 50.5858L58.3405 53.4087C58.2075 53.4862 58.1074 53.6096 58.059 53.7557C58.0349 53.8258 58.0258 53.9003 58.0324 53.9742C58.0389 54.0481 58.0609 54.1198 58.097 54.1846L59.8122 57.5967C59.8434 57.661 59.8876 57.7181 59.9421 57.7644C59.9966 57.8107 60.0601 57.8451 60.1287 57.8654C60.1996 57.8897 60.2748 57.8986 60.3495 57.8916C60.4241 57.8846 60.4964 57.8619 60.5616 57.8249C60.6917 57.7593 60.7907 57.6451 60.8371 57.5069C60.8835 57.3688 60.8736 57.2179 60.8095 57.0871L59.3438 54.1718L64.3858 51.6013C64.4516 51.5695 64.5096 51.5238 64.5561 51.4674C64.6025 51.411 64.6362 51.3453 64.6548 51.2746C64.6786 51.2063 64.6886 51.134 64.6843 51.0618C64.68 50.9896 64.6615 50.919 64.6298 50.854C64.5976 50.7841 64.5514 50.7216 64.4942 50.6701C64.4369 50.6187 64.3697 50.5796 64.2968 50.5551ZM60.74 59.0987C60.7161 59.1692 60.7065 59.2437 60.7119 59.318C60.7173 59.3922 60.7376 59.4646 60.7715 59.5309L61.7913 61.558C61.9401 61.8582 62.1513 62.1231 62.4107 62.3351C62.6666 62.5461 62.9597 62.7072 63.275 62.81C63.5907 62.91 63.9216 62.9534 64.2523 62.9382C64.5795 62.9242 64.8997 62.8397 65.1912 62.6905L67.2273 61.6525C67.5311 61.5005 67.798 61.2838 68.0092 61.0176C68.2157 60.7559 68.3734 60.4591 68.4746 60.1415C68.5734 59.825 68.6122 59.4929 68.5891 59.1622C68.5672 58.8349 68.4806 58.5151 68.3342 58.2216L67.3148 56.1942C67.2829 56.1261 67.2365 56.0659 67.1788 56.0176C67.1211 55.9694 67.0536 55.9344 66.9809 55.9151C66.9199 55.8968 66.8566 55.8872 66.7929 55.8865C66.71 55.8863 66.6282 55.906 66.5545 55.944L61.021 58.7657C60.9528 58.7976 60.8924 58.8439 60.8439 58.9013C60.7954 58.9588 60.7599 59.0262 60.74 59.0987ZM66.5559 57.2053L67.3263 58.736C67.4121 58.9052 67.4637 59.0896 67.4783 59.2787C67.5078 59.6459 67.3912 60.01 67.1538 60.2917C67.033 60.4355 66.8839 60.553 66.7159 60.6369L64.6807 61.6752C64.5148 61.7604 64.3334 61.8114 64.1473 61.8252C64.1149 61.8277 64.0829 61.8284 64.0514 61.8284H64.0509C63.9026 61.8284 63.7553 61.8047 63.6144 61.7582C63.4403 61.7014 63.2797 61.6095 63.1426 61.488C62.9999 61.3644 62.8831 61.2137 62.7991 61.0446L62.0297 59.5137L66.5559 57.2053ZM6.65498 47.5834C6.45249 47.5834 6.25455 47.6434 6.08619 47.7559C5.91782 47.8684 5.7866 48.0283 5.70911 48.2154C5.63162 48.4025 5.61134 48.6083 5.65085 48.8069C5.69035 49.0055 5.78786 49.1879 5.93104 49.3311C6.07422 49.4743 6.25665 49.5718 6.45525 49.6113C6.65385 49.6508 6.8597 49.6305 7.04678 49.553C7.23386 49.4756 7.39375 49.3443 7.50625 49.176C7.61875 49.0076 7.67879 48.8097 7.67879 48.6072C7.67848 48.3357 7.57052 48.0755 7.37858 47.8836C7.18665 47.6916 6.92642 47.5837 6.65498 47.5834ZM6.65498 49.1191C6.55374 49.1191 6.45477 49.089 6.37058 49.0328C6.2864 48.9766 6.22079 48.8966 6.18205 48.8031C6.1433 48.7095 6.13316 48.6066 6.15291 48.5073C6.17267 48.408 6.22142 48.3168 6.29301 48.2452C6.3646 48.1736 6.45582 48.1249 6.55512 48.1051C6.65442 48.0853 6.75734 48.0955 6.85088 48.1342C6.94442 48.173 7.02437 48.2386 7.08062 48.3228C7.13687 48.4069 7.16689 48.5059 7.16689 48.6072C7.16675 48.7429 7.11278 48.873 7.01681 48.969C6.92083 49.065 6.79071 49.1189 6.65498 49.1191ZM80.3693 14.3095C80.3693 14.107 80.3092 13.9091 80.1968 13.7407C80.0843 13.5724 79.9244 13.4411 79.7373 13.3637C79.5502 13.2862 79.3444 13.2659 79.1458 13.3054C78.9472 13.3449 78.7647 13.4424 78.6215 13.5856C78.4784 13.7288 78.3809 13.9112 78.3414 14.1098C78.3018 14.3084 78.3221 14.5142 78.3996 14.7013C78.4771 14.8884 78.6083 15.0483 78.7767 15.1608C78.9451 15.2733 79.143 15.3333 79.3455 15.3333C79.6169 15.333 79.8772 15.2251 80.0691 15.0331C80.261 14.8412 80.369 14.581 80.3693 14.3095ZM79.3455 14.8214C79.2442 14.8214 79.1453 14.7914 79.0611 14.7352C78.9769 14.6789 78.9113 14.599 78.8726 14.5054C78.8338 14.4119 78.8237 14.309 78.8434 14.2097C78.8632 14.1104 78.9119 14.0192 78.9835 13.9476C79.0551 13.876 79.1463 13.8272 79.2456 13.8075C79.3449 13.7877 79.4479 13.7978 79.5414 13.8366C79.6349 13.8753 79.7149 13.9409 79.7711 14.0251C79.8274 14.1093 79.8574 14.2083 79.8574 14.3095C79.8573 14.4453 79.8033 14.5754 79.7073 14.6714C79.6113 14.7673 79.4812 14.8213 79.3455 14.8214ZM28.6669 4.07143C28.9706 4.07143 29.2675 3.98136 29.5201 3.81262C29.7726 3.64387 29.9695 3.40402 30.0857 3.12341C30.2019 2.84279 30.2324 2.53401 30.1731 2.23611C30.1138 1.93821 29.9676 1.66457 29.7528 1.4498C29.538 1.23503 29.2644 1.08876 28.9665 1.02951C28.6686 0.970253 28.3598 1.00067 28.0792 1.1169C27.7986 1.23313 27.5587 1.42997 27.39 1.68252C27.2213 1.93507 27.1312 2.23198 27.1312 2.53572C27.1316 2.94287 27.2936 3.33321 27.5815 3.62112C27.8694 3.90902 28.2597 4.07096 28.6669 4.07143ZM28.6669 1.76786C28.8188 1.76786 28.9672 1.81289 29.0935 1.89727C29.2198 1.98164 29.3182 2.10156 29.3763 2.24187C29.4344 2.38218 29.4496 2.53657 29.42 2.68552C29.3904 2.83447 29.3172 2.97129 29.2099 3.07867C29.1025 3.18606 28.9656 3.25919 28.8167 3.28882C28.6677 3.31845 28.5134 3.30324 28.3731 3.24512C28.2327 3.18701 28.1128 3.08859 28.0284 2.96231C27.9441 2.83604 27.899 2.68758 27.899 2.53572C27.8992 2.33213 27.9802 2.13694 28.1242 1.99298C28.2681 1.84902 28.4633 1.76806 28.6669 1.76786ZM62.4526 21.9241C62.6425 21.9241 62.828 21.8678 62.9859 21.7624C63.1437 21.6569 63.2667 21.507 63.3394 21.3316C63.412 21.1562 63.431 20.9632 63.394 20.777C63.357 20.5909 63.2656 20.4198 63.1313 20.2856C62.9971 20.1514 62.8261 20.0599 62.6399 20.0229C62.4537 19.9859 62.2607 20.0049 62.0853 20.0775C61.9099 20.1502 61.76 20.2732 61.6546 20.431C61.5491 20.5889 61.4928 20.7745 61.4928 20.9643C61.4931 21.2188 61.5943 21.4627 61.7742 21.6427C61.9542 21.8226 62.1982 21.9238 62.4526 21.9241ZM62.4526 20.4844C62.5475 20.4844 62.6403 20.5125 62.7192 20.5653C62.7982 20.618 62.8597 20.693 62.896 20.7806C62.9323 20.8683 62.9418 20.9648 62.9233 21.0579C62.9048 21.151 62.8591 21.2365 62.792 21.3036C62.7248 21.3708 62.6393 21.4165 62.5462 21.435C62.4531 21.4535 62.3567 21.444 62.269 21.4077C62.1813 21.3714 62.1063 21.3098 62.0536 21.2309C62.0008 21.152 61.9727 21.0592 61.9727 20.9643C61.9728 20.8371 62.0234 20.7151 62.1134 20.6251C62.2034 20.5351 62.3254 20.4845 62.4526 20.4844ZM74.2264 36.3214C74.4289 36.3214 74.6269 36.2614 74.7952 36.1489C74.9636 36.0364 75.0948 35.8765 75.1723 35.6894C75.2498 35.5024 75.2701 35.2965 75.2306 35.0979C75.1911 34.8993 75.0936 34.7169 74.9504 34.5737C74.8072 34.4305 74.6248 34.333 74.4262 34.2935C74.2276 34.254 74.0217 34.2743 73.8346 34.3518C73.6476 34.4292 73.4877 34.5605 73.3752 34.7288C73.2627 34.8972 73.2026 35.0951 73.2026 35.2976C73.2029 35.5691 73.3109 35.8293 73.5028 36.0212C73.6948 36.2132 73.955 36.3211 74.2264 36.3214ZM74.2264 34.7857C74.3277 34.7857 74.4267 34.8158 74.5108 34.872C74.595 34.9283 74.6606 35.0082 74.6994 35.1017C74.7381 35.1953 74.7483 35.2982 74.7285 35.3975C74.7088 35.4968 74.66 35.588 74.5884 35.6596C74.5168 35.7312 74.4256 35.7799 74.3263 35.7997C74.227 35.8195 74.1241 35.8093 74.0305 35.7706C73.937 35.7318 73.8571 35.6662 73.8008 35.582C73.7446 35.4979 73.7145 35.3989 73.7145 35.2976C73.7147 35.1619 73.7686 35.0318 73.8646 34.9358C73.9606 34.8398 74.0907 34.7859 74.2264 34.7857ZM5.11927 14.3095C5.32176 14.3095 5.5197 14.2495 5.68807 14.137C5.85643 14.0245 5.98766 13.8646 6.06515 13.6775C6.14264 13.4904 6.16291 13.2846 6.12341 13.086C6.0839 12.8874 5.98639 12.705 5.84321 12.5618C5.70003 12.4186 5.5176 12.3211 5.319 12.2816C5.1204 12.2421 4.91455 12.2624 4.72747 12.3398C4.5404 12.4173 4.3805 12.5486 4.268 12.7169C4.1555 12.8853 4.09546 13.0832 4.09546 13.2857C4.09577 13.5572 4.20373 13.8174 4.39567 14.0093C4.5876 14.2013 4.84783 14.3092 5.11927 14.3095ZM5.11927 12.7738C5.22051 12.7738 5.31949 12.8038 5.40367 12.8601C5.48785 12.9163 5.55346 12.9963 5.59221 13.0898C5.63095 13.1834 5.64109 13.2863 5.62134 13.3856C5.60159 13.4849 5.55283 13.5761 5.48124 13.6477C5.40965 13.7193 5.31844 13.768 5.21914 13.7878C5.11984 13.8075 5.01691 13.7974 4.92337 13.7587C4.82983 13.7199 4.74988 13.6543 4.69364 13.5701C4.63739 13.4859 4.60736 13.387 4.60736 13.2857C4.6075 13.15 4.66148 13.0199 4.75745 12.9239C4.85342 12.8279 4.98354 12.774 5.11927 12.7738Z" stroke="#2D4356" stroke-width="0.4" mask="url(#path-3-outside-1_870_982)"/>
<path d="M57.0837 68.9327H8.19053C8.01498 68.9327 7.84662 69.0024 7.72249 69.1265C7.59836 69.2507 7.52862 69.419 7.52862 69.5946C7.52862 69.7701 7.59836 69.9385 7.72249 70.0626C7.84662 70.1868 8.01498 70.2565 8.19053 70.2565H77.8096C77.9851 70.2565 78.1535 70.1868 78.2776 70.0626C78.4018 69.9385 78.4715 69.7701 78.4715 69.5946C78.4715 69.419 78.4018 69.2507 78.2776 69.1265C78.1535 69.0024 77.9851 68.9327 77.8096 68.9327H62.5542L74.5177 63.4029L74.5183 63.4027C75.0879 63.1365 75.5312 62.6586 75.754 62.0708C75.9769 61.4829 75.9617 60.8313 75.7117 60.2544L75.7114 60.2538L65.2664 36.4163L65.2666 36.4162L65.2629 36.409C64.6185 35.1299 63.5391 34.1224 62.2187 33.5677L62.2187 33.5675L62.2111 33.5648L56.8087 31.6291L56.6621 31.5766L56.6151 31.725C56.5121 32.0499 56.4035 32.3712 56.286 32.6866L56.233 32.8289L56.376 32.8801L61.7598 34.8093C62.7478 35.2398 63.5582 35.9962 64.0558 36.9521L74.4986 60.7842C74.4986 60.7844 74.4987 60.7846 74.4988 60.7848C74.6107 61.0444 74.6173 61.3373 74.5172 61.6017C74.417 61.8661 74.2179 62.0812 73.962 62.2014C73.9619 62.2015 73.9617 62.2015 73.9616 62.2016L59.6046 68.8375L59.6037 68.8379C59.4831 68.8946 59.3523 68.9265 59.2191 68.9318C59.0859 68.9372 58.953 68.9157 58.8283 68.8688C58.7035 68.8219 58.5894 68.7505 58.4927 68.6587C58.396 68.567 58.3187 68.4568 58.2653 68.3347L58.2649 68.3338L47.5528 44.2582C47.174 43.2309 47.1439 42.1074 47.4671 41.0612L50.9113 32.0517C50.9114 32.0515 50.9115 32.0513 50.9116 32.0511C50.992 31.8459 51.1323 31.6697 51.3143 31.5454C51.4965 31.4209 51.7119 31.3543 51.9325 31.3542C52.0545 31.3542 52.1755 31.3753 52.2903 31.4164L52.3409 31.2752L52.2903 31.4164L53.4846 31.8443L53.6236 31.8941L53.6756 31.7559C53.7973 31.432 53.9063 31.1059 54.0075 30.7777L54.0497 30.6406L53.9147 30.5923L52.7369 30.1704C52.4788 30.0779 52.2066 30.0306 51.9324 30.0307C51.4442 30.0308 50.9674 30.1785 50.5646 30.4545C50.1618 30.7304 49.8519 31.1217 49.6755 31.5769L49.6752 31.5776L46.2289 40.5929L46.2287 40.5928L46.2263 40.6004C45.785 41.9671 45.8246 43.4437 46.3384 44.7848L46.3382 44.7849L46.3414 44.7922L57.0554 68.8719L57.0556 68.8725C57.0647 68.8927 57.0741 68.9127 57.0837 68.9327ZM5.631 68.9327H3.07148C2.89593 68.9327 2.72757 69.0024 2.60344 69.1266C2.47931 69.2507 2.40957 69.419 2.40957 69.5946C2.40957 69.7701 2.47931 69.9385 2.60344 70.0626C2.72757 70.1868 2.89593 70.2565 3.07148 70.2565H5.631C5.80655 70.2565 5.97491 70.1868 6.09904 70.0626C6.22317 69.9385 6.29291 69.7701 6.29291 69.5946C6.29291 69.419 6.22317 69.2507 6.09904 69.1266C5.97491 69.0024 5.80655 68.9327 5.631 68.9327Z" fill="#2D4356" stroke="#2D4356" stroke-width="0.3"/>
<path d="M0.511905 70.1088C0.794622 70.1088 1.02381 69.8796 1.02381 69.5969C1.02381 69.3141 0.794622 69.085 0.511905 69.085C0.229188 69.085 0 69.3141 0 69.5969C0 69.8796 0.229188 70.1088 0.511905 70.1088Z" fill="#2D4356"/>
<path d="M82.9286 69.085H80.3691C80.2333 69.085 80.1031 69.1389 80.0071 69.2349C79.9111 69.3309 79.8572 69.4611 79.8572 69.5969C79.8572 69.7326 79.9111 69.8628 80.0071 69.9588C80.1031 70.0548 80.2333 70.1088 80.3691 70.1088H82.9286C83.0644 70.1088 83.1946 70.0548 83.2906 69.9588C83.3866 69.8628 83.4405 69.7326 83.4405 69.5969C83.4405 69.4611 83.3866 69.3309 83.2906 69.2349C83.1946 69.1389 83.0644 69.085 82.9286 69.085Z" fill="#2D4356"/>
<path d="M85.4882 70.1088C85.7709 70.1088 86.0001 69.8796 86.0001 69.5969C86.0001 69.3141 85.7709 69.085 85.4882 69.085C85.2055 69.085 84.9763 69.3141 84.9763 69.5969C84.9763 69.8796 85.2055 70.1088 85.4882 70.1088Z" fill="#2D4356"/>
<path d="M32.2502 34.7894H33.6719C33.8077 34.7894 33.9379 34.7355 34.0339 34.6395C34.1299 34.5435 34.1838 34.4133 34.1838 34.2775C34.1838 34.1418 34.1299 34.0116 34.0339 33.9156C33.9379 33.8196 33.8077 33.7656 33.6719 33.7656H32.2502C32.1144 33.7656 31.9842 33.8196 31.8882 33.9156C31.7922 34.0116 31.7383 34.1418 31.7383 34.2775C31.7383 34.4133 31.7922 34.5435 31.8882 34.6395C31.9842 34.7355 32.1144 34.7894 32.2502 34.7894ZM35.9475 36.8368H37.3692C37.505 36.8368 37.6352 36.7829 37.7312 36.6869C37.8272 36.5909 37.8811 36.4607 37.8811 36.3249C37.8811 36.1891 37.8272 36.0589 37.7312 35.9629C37.6352 35.8669 37.505 35.813 37.3692 35.813H35.9475C35.8117 35.813 35.6815 35.8669 35.5855 35.9629C35.4895 36.0589 35.4356 36.1891 35.4356 36.3249C35.4356 36.4607 35.4895 36.5909 35.5855 36.6869C35.6815 36.7829 35.8117 36.8368 35.9475 36.8368Z" fill="#1E83E6"/>
<path d="M47.0952 65.5013C47.3779 65.5013 47.6071 65.2722 47.6071 64.9894C47.6071 64.7067 47.3779 64.4775 47.0952 64.4775C46.8124 64.4775 46.5833 64.7067 46.5833 64.9894C46.5833 65.2722 46.8124 65.5013 47.0952 65.5013Z" fill="#1E83E6"/>
<path d="M47.0952 56.4355C47.4607 56.4355 47.7571 56.1392 47.7571 55.7736C47.7571 55.4081 47.4607 55.1117 47.0952 55.1117C46.7296 55.1117 46.4333 55.4081 46.4333 55.7736C46.4333 56.1392 46.7296 56.4355 47.0952 56.4355Z" fill="#1E83E6" stroke="#1E83E6" stroke-width="0.3"/>
<path d="M22.0119 56.4355C22.3775 56.4355 22.6738 56.1392 22.6738 55.7736C22.6738 55.4081 22.3775 55.1117 22.0119 55.1117C21.6463 55.1117 21.35 55.4081 21.35 55.7736C21.35 56.1392 21.6463 56.4355 22.0119 56.4355Z" fill="#1E83E6" stroke="#1E83E6" stroke-width="0.3"/>
<path d="M2.85812 34.279L3.61932 33.2782L3.13865 33.0059L2.65029 34.1269H2.63391L2.13736 33.0135L1.64849 33.2941L2.4015 34.2713V34.2872L1.22412 34.1351V34.6798L2.40969 34.5278V34.5436L1.64849 35.5203L2.10511 35.8091L2.62623 34.6798H2.64159L3.12226 35.8009L3.627 35.5127L2.85812 34.5513V34.5354L4.06724 34.6798V34.1351L2.85812 34.2948V34.279Z" fill="#1E83E6"/>
<path d="M24.2036 16.3965V16.3873L24.8998 16.4708V16.157L24.2036 16.2491V16.2399L24.6418 15.6635L24.3653 15.5068L24.0838 16.1523H24.0746L23.7889 15.5109L23.5069 15.6727L23.941 16.2353V16.2445L23.2627 16.157V16.4708L23.9456 16.3832V16.3924L23.5069 16.955L23.77 17.1209L24.07 16.4708H24.0792L24.3556 17.1163L24.6464 16.9504L24.2036 16.3965Z" fill="#1E83E6"/>
<path d="M44.4452 11.4715L43.6989 12.4298L44.1468 12.7128L44.6577 11.6046H44.673L45.1445 12.7047L45.6395 12.4221L44.8855 11.4792V11.4633L46.0716 11.6046V11.0707L44.8855 11.2278V11.2119L45.6324 10.2301L45.1609 9.96289L44.6818 11.0625H44.6654L44.1785 9.97057L43.6989 10.246L44.4376 11.2043V11.2201L43.2827 11.0707V11.6046L44.4452 11.4556V11.4715Z" fill="#1E83E6"/>
<path d="M63.1904 3.68793V3.22721L62.1671 3.36235V3.34904L62.8111 2.50184L62.4046 2.27148L61.991 3.22004H61.9777L61.5574 2.27814L61.1438 2.51566L61.7811 3.34239V3.3557L60.7844 3.22721V3.68793L61.7878 3.55893V3.57275L61.1438 4.39947L61.5298 4.64365L61.971 3.68793H61.9838L62.3908 4.63649L62.8177 4.39282L62.1671 3.5794V3.56558L63.1904 3.68793Z" fill="#1E83E6"/>
<path d="M53.7501 72.1562H32.2501C32.1143 72.1562 31.9841 72.2102 31.8881 72.3062C31.7921 72.4022 31.7382 72.5324 31.7382 72.6682C31.7382 72.8039 31.7921 72.9341 31.8881 73.0301C31.9841 73.1261 32.1143 73.1801 32.2501 73.1801H41.4644V74.2039H36.3453C36.2096 74.2039 36.0794 74.2578 35.9834 74.3538C35.8874 74.4498 35.8334 74.58 35.8334 74.7158C35.8334 74.8515 35.8874 74.9817 35.9834 75.0777C36.0794 75.1737 36.2096 75.2277 36.3453 75.2277H50.1668C50.3025 75.2277 50.4328 75.1737 50.5288 75.0777C50.6248 74.9817 50.6787 74.8515 50.6787 74.7158C50.6787 74.58 50.6248 74.4498 50.5288 74.3538C50.4328 74.2578 50.3025 74.2039 50.1668 74.2039H44.5358V73.1801H53.7501C53.8859 73.1801 54.0161 73.1261 54.1121 73.0301C54.2081 72.9341 54.262 72.8039 54.262 72.6682C54.262 72.5324 54.2081 72.4022 54.1121 72.3062C54.0161 72.2102 53.8859 72.1562 53.7501 72.1562ZM60.9168 72.1562H55.7977C55.662 72.1562 55.5318 72.2102 55.4358 72.3062C55.3398 72.4022 55.2858 72.5324 55.2858 72.6682C55.2858 72.8039 55.3398 72.9341 55.4358 73.0301C55.5318 73.1261 55.662 73.1801 55.7977 73.1801H60.9168C61.0526 73.1801 61.1828 73.1261 61.2788 73.0301C61.3748 72.9341 61.4287 72.8039 61.4287 72.6682C61.4287 72.5324 61.3748 72.4022 61.2788 72.3062C61.1828 72.2102 61.0526 72.1562 60.9168 72.1562ZM30.2025 72.1562H25.0834C24.9477 72.1562 24.8175 72.2102 24.7215 72.3062C24.6255 72.4022 24.5715 72.5324 24.5715 72.6682C24.5715 72.8039 24.6255 72.9341 24.7215 73.0301C24.8175 73.1261 24.9477 73.1801 25.0834 73.1801H30.2025C30.3383 73.1801 30.4685 73.1261 30.5645 73.0301C30.6605 72.9341 30.7144 72.8039 30.7144 72.6682C30.7144 72.5324 30.6605 72.4022 30.5645 72.3062C30.4685 72.2102 30.3383 72.1562 30.2025 72.1562Z" fill="#1E83E6"/>
</svg>
