<svg width="77" height="74" viewBox="0 0 77 74" fill="none" xmlns="http://www.w3.org/2000/svg">
<path d="M56.6606 21.9329C56.9317 21.9329 57.1968 21.8525 57.4222 21.7019C57.6476 21.5512 57.8233 21.3372 57.9271 21.0867C58.0308 20.8362 58.058 20.5606 58.0051 20.2947C57.9522 20.0287 57.8216 19.7845 57.6299 19.5928C57.4382 19.4011 57.194 19.2705 56.9281 19.2176C56.6621 19.1647 56.3865 19.1919 56.136 19.2956C55.8856 19.3994 55.6715 19.5751 55.5208 19.8005C55.3702 20.0259 55.2898 20.291 55.2898 20.5621C55.2902 20.9255 55.4348 21.2739 55.6918 21.5309C55.9488 21.7879 56.2972 21.9325 56.6606 21.9329ZM56.6606 19.8767C56.7962 19.8767 56.9287 19.9169 57.0414 19.9922C57.1541 20.0675 57.242 20.1746 57.2939 20.2998C57.3457 20.425 57.3593 20.5628 57.3329 20.6958C57.3064 20.8288 57.2411 20.9509 57.1453 21.0467C57.0494 21.1426 56.9273 21.2079 56.7943 21.2343C56.6614 21.2608 56.5236 21.2472 56.3983 21.1953C56.2731 21.1434 56.166 21.0556 56.0907 20.9429C56.0154 20.8302 55.9752 20.6976 55.9752 20.5621C55.9754 20.3804 56.0477 20.2061 56.1762 20.0776C56.3047 19.9491 56.4789 19.8769 56.6606 19.8767ZM68.9323 29.8218C68.7516 29.8218 68.5749 29.8754 68.4246 29.9758C68.2743 30.0762 68.1572 30.219 68.088 30.3859C68.0189 30.5529 68.0008 30.7367 68.036 30.914C68.0713 31.0912 68.1583 31.2541 68.2861 31.3819C68.4139 31.5097 68.5768 31.5967 68.7541 31.632C68.9313 31.6672 69.1151 31.6491 69.2821 31.58C69.4491 31.5108 69.5918 31.3937 69.6922 31.2434C69.7926 31.0931 69.8462 30.9164 69.8462 30.7357C69.8459 30.4934 69.7496 30.2611 69.5782 30.0898C69.4069 29.9184 69.1746 29.8221 68.9323 29.8218ZM68.9323 31.1926C68.842 31.1926 68.7536 31.1658 68.6785 31.1156C68.6033 31.0654 68.5448 30.994 68.5102 30.9105C68.4756 30.827 68.4666 30.7352 68.4842 30.6465C68.5018 30.5579 68.5453 30.4765 68.6092 30.4126C68.6731 30.3487 68.7546 30.3051 68.8432 30.2875C68.9318 30.2699 69.0237 30.2789 69.1072 30.3135C69.1907 30.3481 69.2621 30.4067 69.3123 30.4818C69.3625 30.5569 69.3893 30.6453 69.3893 30.7357C69.3892 30.8568 69.341 30.973 69.2553 31.0586C69.1696 31.1443 69.0535 31.1925 68.9323 31.1926ZM32.9001 0.91387C32.7193 0.91387 32.5426 0.967468 32.3923 1.06789C32.2421 1.1683 32.1249 1.31103 32.0558 1.47802C31.9866 1.64501 31.9685 1.82875 32.0038 2.00603C32.039 2.1833 32.1261 2.34614 32.2539 2.47394C32.3817 2.60175 32.5445 2.68879 32.7218 2.72405C32.8991 2.75931 33.0828 2.74122 33.2498 2.67205C33.4168 2.60288 33.5595 2.48575 33.6599 2.33546C33.7603 2.18517 33.8139 2.00849 33.8139 1.82774C33.8137 1.58545 33.7173 1.35317 33.546 1.18184C33.3746 1.01052 33.1424 0.914147 32.9001 0.91387ZM32.9001 2.28468C32.8097 2.28468 32.7213 2.25788 32.6462 2.20767C32.5711 2.15746 32.5125 2.0861 32.4779 2.0026C32.4433 1.91911 32.4343 1.82723 32.4519 1.7386C32.4695 1.64996 32.5131 1.56854 32.577 1.50464C32.6409 1.44074 32.7223 1.39722 32.8109 1.37959C32.8996 1.36195 32.9914 1.371 33.0749 1.40559C33.1584 1.44017 33.2298 1.49874 33.28 1.57388C33.3302 1.64902 33.357 1.73737 33.357 1.82774C33.3569 1.94889 33.3087 2.06504 33.223 2.15071C33.1374 2.23638 33.0212 2.28456 32.9001 2.28468ZM68.4754 0C68.2947 0 68.118 0.0535976 67.9677 0.154015C67.8174 0.254432 67.7003 0.397159 67.6311 0.564147C67.5619 0.731135 67.5438 0.914884 67.5791 1.09216C67.6144 1.26943 67.7014 1.43227 67.8292 1.56007C67.957 1.68788 68.1199 1.77492 68.2971 1.81018C68.4744 1.84544 68.6581 1.82735 68.8251 1.75818C68.9921 1.68901 69.1348 1.57187 69.2353 1.42159C69.3357 1.2713 69.3893 1.09462 69.3893 0.91387C69.389 0.671582 69.2926 0.439296 69.1213 0.267972C68.95 0.0966484 68.7177 0.000276945 68.4754 0ZM68.4754 1.37081C68.385 1.37081 68.2967 1.34401 68.2215 1.2938C68.1464 1.24359 68.0878 1.17223 68.0533 1.08873C68.0187 1.00524 68.0096 0.913364 68.0273 0.824727C68.0449 0.73609 68.0884 0.654672 68.1523 0.590769C68.2162 0.526865 68.2976 0.483346 68.3863 0.465715C68.4749 0.448084 68.5668 0.457133 68.6503 0.491717C68.7338 0.526302 68.8051 0.584868 68.8553 0.660011C68.9055 0.735153 68.9323 0.823497 68.9323 0.91387C68.9322 1.03502 68.884 1.15117 68.7984 1.23684C68.7127 1.3225 68.5966 1.37068 68.4754 1.37081ZM5.25548 21.476C5.25548 21.2952 5.20188 21.1185 5.10146 20.9682C5.00104 20.818 4.85832 20.7008 4.69133 20.6317C4.52434 20.5625 4.34059 20.5444 4.16332 20.5796C3.98604 20.6149 3.82321 20.7019 3.6954 20.8298C3.56759 20.9576 3.48056 21.1204 3.44529 21.2977C3.41003 21.4749 3.42813 21.6587 3.4973 21.8257C3.56647 21.9927 3.6836 22.1354 3.83389 22.2358C3.98417 22.3362 4.16086 22.3898 4.34161 22.3898C4.58389 22.3895 4.81618 22.2932 4.9875 22.1219C5.15883 21.9505 5.2552 21.7182 5.25548 21.476ZM3.88467 21.476C3.88467 21.3856 3.91147 21.2972 3.96168 21.2221C4.01189 21.147 4.08325 21.0884 4.16674 21.0538C4.25024 21.0192 4.34211 21.0102 4.43075 21.0278C4.51939 21.0454 4.6008 21.0889 4.66471 21.1529C4.72861 21.2168 4.77213 21.2982 4.78976 21.3868C4.80739 21.4754 4.79834 21.5673 4.76376 21.6508C4.72917 21.7343 4.67061 21.8057 4.59547 21.8559C4.52032 21.9061 4.43198 21.9329 4.34161 21.9329C4.22046 21.9328 4.1043 21.8846 4.01864 21.7989C3.93297 21.7133 3.88479 21.5971 3.88467 21.476Z" fill="#2D4356"/>
<path d="M6.72657 5.36732L7.40603 4.47356L6.97697 4.23047L6.54106 5.23116H6.52643L6.08321 4.23778L5.64683 4.48772L6.31899 5.36047V5.37463L5.26758 5.23847V5.72465L6.3263 5.58894V5.6031L5.64683 6.47539L6.05442 6.7331L6.51912 5.72465H6.53329L6.96235 6.72579L7.41289 6.46854L6.72657 5.61041V5.59579L7.80585 5.72465V5.23847L6.72657 5.38149V5.36732Z" fill="#1E83E6"/>
<path d="M23.7971 13.8589L23.4059 14.361L23.6408 14.5095L23.9085 13.9288H23.9163L24.1635 14.505L24.4231 14.3569L24.0278 13.863V13.8547L24.6492 13.9288V13.6487L24.0278 13.7309V13.7231L24.4189 13.2082L24.1722 13.0684L23.9209 13.6446H23.9127L23.6572 13.0725L23.4059 13.2164L23.7929 13.719V13.7273L23.1875 13.6487V13.9288L23.7971 13.8506V13.8589Z" fill="#1E83E6"/>
<path d="M74.4943 13.2613V12.7847L73.4356 12.9245V12.9108L74.1018 12.0344L73.6809 11.7959L73.2532 12.7774H73.2391L72.8045 11.8028L72.3764 12.0481L73.0357 12.904V12.9177L72.0049 12.7847V13.2613L73.0426 13.1283V13.1425L72.3764 13.9974L72.7762 14.2501L73.2322 13.2613H73.2459L73.6668 14.2432L74.1086 13.9906L73.4356 13.1493V13.1352L74.4943 13.2613Z" fill="#1E83E6"/>
<path d="M52.7264 6.42038L53.3012 5.66461L52.9384 5.45898L52.5692 6.30569H52.5573L52.1822 5.46492L51.813 5.67649L52.3818 6.41444V6.42677L51.4922 6.31163V6.72287L52.3878 6.60818V6.62006L51.813 7.35801L52.1575 7.57596L52.5514 6.72287H52.5632L52.926 7.57003L53.3071 7.35207L52.7264 6.626V6.61412L53.6398 6.72287V6.31163L52.7264 6.43271V6.42038Z" fill="#1E83E6"/>
<path d="M0.91387 65.4615C1.41859 65.4615 1.82774 65.0524 1.82774 64.5477C1.82774 64.0429 1.41859 63.6338 0.91387 63.6338C0.409154 63.6338 0 64.0429 0 64.5477C0 65.0524 0.409154 65.4615 0.91387 65.4615Z" fill="#2D4356"/>
<path d="M5.02686 63.6348H3.65606C3.41368 63.6348 3.18124 63.731 3.00985 63.9024C2.83847 64.0738 2.74219 64.3063 2.74219 64.5486C2.74219 64.791 2.83847 65.0235 3.00985 65.1948C3.18124 65.3662 3.41368 65.4625 3.65606 65.4625H5.02686C5.26924 65.4625 5.50168 65.3662 5.67307 65.1948C5.84445 65.0235 5.94073 64.791 5.94073 64.5486C5.94073 64.3063 5.84445 64.0738 5.67307 63.9024C5.50168 63.731 5.26924 63.6348 5.02686 63.6348ZM73.1102 63.6348H71.7394C71.497 63.6348 71.2646 63.731 71.0932 63.9024C70.9218 64.0738 70.8255 64.3063 70.8255 64.5486C70.8255 64.791 70.9218 65.0235 71.0932 65.1948C71.2646 65.3662 71.497 65.4625 71.7394 65.4625H73.1102C73.3526 65.4625 73.585 65.3662 73.7564 65.1948C73.9278 65.0235 74.0241 64.791 74.0241 64.5486C74.0241 64.3063 73.9278 64.0738 73.7564 63.9024C73.585 63.731 73.3526 63.6348 73.1102 63.6348Z" fill="#2D4356"/>
<path d="M75.8504 65.4615C76.3551 65.4615 76.7643 65.0524 76.7643 64.5477C76.7643 64.0429 76.3551 63.6338 75.8504 63.6338C75.3457 63.6338 74.9365 64.0429 74.9365 64.5477C74.9365 65.0524 75.3457 65.4615 75.8504 65.4615Z" fill="#2D4356"/>
<path d="M23.8787 50.8689L50.8867 23.4578C52.096 22.2485 53.91 22.2485 55.1193 23.4578L61.1659 29.5043C62.3752 30.7136 62.3752 32.5276 61.1659 33.7369L33.9563 60.9465L19.8477 64.9775L23.8787 50.8689Z" stroke="#2D4356" stroke-width="2" stroke-linecap="round" stroke-linejoin="round"/>
<path d="M56.1268 38.9774L45.8477 28.6982" stroke="#2D4356" stroke-width="2" stroke-linecap="round" stroke-linejoin="round"/>
<path d="M33.9565 60.9458V56.9147L29.9255 54.8992L27.91 50.8682H23.8789" stroke="#2D4356" stroke-width="1.6" stroke-linecap="round" stroke-linejoin="round"/>
<path d="M27.9095 62.7601L22.0645 56.915" stroke="#2D4356" stroke-width="2" stroke-linecap="round" stroke-linejoin="round"/>
<path d="M51.0878 33.7363L29.9248 54.8993" stroke="#2D4356" stroke-width="2" stroke-linecap="round" stroke-linejoin="round"/>
<path d="M30.933 43.8144L19.8477 32.729L29.9253 22.6514L41.0106 33.7367" stroke="#1E83E6" stroke-width="2" stroke-linecap="round" stroke-linejoin="round"/>
<path d="M51.0884 43.8145L62.1737 54.8998L52.0961 64.9774L41.0107 53.8921" stroke="#1E83E6" stroke-width="2" stroke-linecap="round" stroke-linejoin="round"/>
<path d="M48.0645 60.9461L52.0955 56.915" stroke="#1E83E6" stroke-width="2" stroke-linecap="round" stroke-linejoin="round"/>
<path d="M44.0342 56.9148L48.0652 52.8838" stroke="#1E83E6" stroke-width="2" stroke-linecap="round" stroke-linejoin="round"/>
<path d="M27.9092 40.7908L31.9402 36.7598" stroke="#1E83E6" stroke-width="2" stroke-linecap="round" stroke-linejoin="round"/>
<path d="M23.8789 36.7596L27.91 32.7285" stroke="#1E83E6" stroke-width="2" stroke-linecap="round" stroke-linejoin="round"/>
<path d="M51.978 70H48.6648C48.4643 70.0161 48.2772 70.1071 48.1408 70.2549C48.0043 70.4027 47.9286 70.5965 47.9286 70.7976C47.9286 70.9988 48.0043 71.1926 48.1408 71.3404C48.2772 71.4882 48.4643 71.5792 48.6648 71.5952H51.978C52.1786 71.5792 52.3657 71.4882 52.5021 71.3404C52.6385 71.1926 52.7143 70.9988 52.7143 70.7976C52.7143 70.5965 52.6385 70.4027 52.5021 70.2549C52.3657 70.1071 52.1786 70.0161 51.978 70ZM28.0495 70H24.7363C24.5358 70.0161 24.3486 70.1071 24.2122 70.2549C24.0758 70.4027 24 70.5965 24 70.7976C24 70.9988 24.0758 71.1926 24.2122 71.3404C24.3486 71.4882 24.5358 71.5792 24.7363 71.5952H28.0495C28.25 71.5792 28.4371 71.4882 28.5735 71.3404C28.71 71.1926 28.7857 70.9988 28.7857 70.7976C28.7857 70.5965 28.71 70.4027 28.5735 70.2549C28.4371 70.1071 28.25 70.0161 28.0495 70ZM46.3333 70H30.381C30.1694 70 29.9665 70.084 29.817 70.2336C29.6674 70.3832 29.5833 70.5861 29.5833 70.7976C29.5833 71.0092 29.6674 71.212 29.817 71.3616C29.9665 71.5112 30.1694 71.5952 30.381 71.5952H36.738V72.3929H33.5714C33.3599 72.3929 33.157 72.4769 33.0074 72.6265C32.8579 72.7761 32.7738 72.9789 32.7738 73.1905C32.7738 73.402 32.8579 73.6049 33.0074 73.7545C33.157 73.9041 33.3599 73.9881 33.5714 73.9881H43.5417C43.7532 73.9881 43.9561 73.9041 44.1057 73.7545C44.2553 73.6049 44.3393 73.402 44.3393 73.1905C44.3393 72.9789 44.2553 72.7761 44.1057 72.6265C43.9561 72.4769 43.7532 72.3929 43.5417 72.3929H39.9763V71.5952H46.3333C46.5449 71.5952 46.7478 71.5112 46.8974 71.3616C47.0469 71.212 47.131 71.0092 47.131 70.7976C47.131 70.5861 47.0469 70.3832 46.8974 70.2336C46.7478 70.084 46.5449 70 46.3333 70Z" fill="#1E83E6"/>
</svg>
