<svg width="65" height="63" viewBox="0 0 65 63" fill="none" xmlns="http://www.w3.org/2000/svg">
<g clip-path="url(#clip0_1414_176)">
<path d="M29.0176 21.75C31.0159 21.751 32.9801 22.2518 34.7202 23.204C36.4603 24.1562 37.9175 25.5276 38.9506 27.1854C39.5071 26.9528 40.1354 26.9407 40.701 27.1517C39.3484 24.612 37.1545 22.5864 34.4717 21.4001C31.7888 20.2138 28.7725 19.9356 25.907 20.6102C23.0414 21.2848 20.4928 22.873 18.6702 25.1198C16.8477 27.3667 15.8569 30.142 15.8569 33.0001C15.857 35.8582 16.8478 38.6335 18.6704 40.8803C20.493 43.1272 23.0416 44.7153 25.9072 45.3899C28.7727 46.0644 31.789 45.7861 34.4719 44.5998C37.1547 43.4135 39.3485 41.3879 40.7011 38.8481C40.136 39.0617 39.5066 39.0496 38.9508 38.8144C37.9025 40.4965 36.4178 41.8832 34.6446 42.8362C32.8714 43.7893 30.8715 44.2754 28.8442 44.2462C26.8168 44.2171 24.8327 43.6737 23.0894 42.6701C21.3462 41.6665 19.9046 40.2377 18.9083 38.5261C17.912 36.8145 17.3957 34.8798 17.4108 32.9147C17.426 30.9495 17.972 29.0225 18.9946 27.3255C20.0172 25.6286 21.4807 24.2209 23.2392 23.2427C24.9978 22.2644 26.99 21.7498 29.0176 21.75Z" fill="#1E83E6"/>
<path d="M29.0178 49.125C25.8982 49.1253 22.8414 48.2755 20.1962 46.6725C17.5511 45.0696 15.4242 42.7781 14.0585 40.0597C12.6927 37.3412 12.143 34.3054 12.4721 31.2986C12.8013 28.2919 13.9961 25.4354 15.92 23.0553C17.8439 20.6752 20.4196 18.8673 23.3529 17.8381C26.2862 16.8088 29.4589 16.5996 32.509 17.2344C35.5591 17.8692 38.3636 19.3224 40.6023 21.4281C42.8411 23.5337 44.4239 26.2071 45.1701 29.1429H46.7583C45.7788 24.9096 43.2226 21.1752 39.5794 18.6547C35.9361 16.1341 31.4616 15.0045 27.0127 15.4822C22.5637 15.9598 18.4527 18.0111 15.4669 21.2433C12.481 24.4755 10.8301 28.6616 10.8301 33C10.8301 37.3385 12.481 41.5246 15.4669 44.7568C18.4527 47.989 22.5637 50.0403 27.0127 50.5179C31.4616 50.9955 35.9361 49.8659 39.5794 47.3454C43.2226 44.8249 45.7788 41.0905 46.7583 36.8572H45.1701C44.276 40.3556 42.2003 43.4637 39.2734 45.6867C36.3464 47.9098 32.7364 49.1201 29.0178 49.125Z" fill="#2D4356"/>
<path d="M53.3929 30.6429H40.6439V29.25C40.6439 29.1179 40.6079 28.9881 40.5396 28.8739C40.4712 28.7596 40.373 28.6648 40.2547 28.5992C40.1365 28.5335 40.0024 28.4993 39.8661 28.5C39.7299 28.5007 39.5962 28.5362 39.4786 28.6031L32.8824 32.3531C32.766 32.4192 32.6694 32.5137 32.6024 32.6272C32.5353 32.7407 32.5 32.8692 32.5 33C32.5 33.1308 32.5353 33.2593 32.6024 33.3727C32.6694 33.4862 32.766 33.5807 32.8824 33.6469L39.4786 37.3969C39.5962 37.4637 39.7299 37.4992 39.8661 37.4999C40.0024 37.5006 40.1365 37.4664 40.2547 37.4007C40.373 37.3351 40.4712 37.2403 40.5396 37.1261C40.6079 37.0118 40.6439 36.882 40.6439 36.75V35.3571H53.3929C53.5981 35.3571 53.7949 35.2781 53.94 35.1374C54.0851 34.9968 54.1667 34.806 54.1667 34.6071V31.3929C54.1667 31.1939 54.0851 31.0032 53.94 30.8625C53.7949 30.7219 53.5981 30.6429 53.3929 30.6429ZM52.619 33.8571H39.8701C39.6649 33.8571 39.468 33.9361 39.3229 34.0768C39.1778 34.2174 39.0963 34.4082 39.0963 34.6071V35.4406L34.8033 33L39.0963 30.5594V31.3929C39.0963 31.5918 39.1778 31.7825 39.3229 31.9232C39.468 32.0638 39.6649 32.1428 39.8701 32.1429H52.619V33.8571Z" fill="#1E83E6"/>
<path d="M12.4986 7.125C12.7282 7.125 12.9526 7.05902 13.1435 6.9354C13.3343 6.81179 13.4831 6.63609 13.571 6.43052C13.6588 6.22495 13.6818 5.99875 13.637 5.78052C13.5922 5.56229 13.4817 5.36184 13.3194 5.2045C13.157 5.04717 12.9502 4.94002 12.725 4.89662C12.4999 4.85321 12.2665 4.87549 12.0544 4.96064C11.8423 5.04578 11.661 5.18998 11.5335 5.37498C11.406 5.55999 11.3379 5.7775 11.3379 6C11.3382 6.29826 11.4606 6.58421 11.6782 6.79512C11.8958 7.00602 12.1909 7.12466 12.4986 7.125ZM12.4986 5.4375C12.6134 5.4375 12.7256 5.47049 12.821 5.5323C12.9165 5.59411 12.9909 5.68196 13.0348 5.78474C13.0787 5.88752 13.0902 6.00062 13.0678 6.10974C13.0454 6.21885 12.9901 6.31908 12.909 6.39775C12.8278 6.47641 12.7244 6.52999 12.6118 6.55169C12.4992 6.5734 12.3826 6.56226 12.2765 6.51968C12.1705 6.47711 12.0798 6.40501 12.0161 6.31251C11.9523 6.22001 11.9182 6.11125 11.9182 6C11.9184 5.85086 11.9796 5.70787 12.0884 5.60241C12.1972 5.49696 12.3447 5.43765 12.4986 5.4375ZM63.1831 24.375C63.0301 24.375 62.8805 24.419 62.7532 24.5014C62.626 24.5838 62.5268 24.7009 62.4682 24.838C62.4097 24.975 62.3943 25.1258 62.4242 25.2713C62.454 25.4168 62.5277 25.5504 62.636 25.6553C62.7442 25.7602 62.8821 25.8316 63.0322 25.8606C63.1823 25.8895 63.3379 25.8747 63.4793 25.8179C63.6207 25.7611 63.7415 25.665 63.8265 25.5417C63.9116 25.4183 63.9569 25.2733 63.9569 25.125C63.9567 24.9262 63.8751 24.7355 63.73 24.5949C63.585 24.4543 63.3883 24.3752 63.1831 24.375ZM63.1831 25.5C63.1066 25.5 63.0318 25.478 62.9682 25.4368C62.9046 25.3956 62.855 25.337 62.8257 25.2685C62.7964 25.2 62.7887 25.1246 62.8037 25.0518C62.8186 24.9791 62.8554 24.9123 62.9096 24.8598C62.9637 24.8074 63.0326 24.7717 63.1077 24.7572C63.1827 24.7427 63.2605 24.7502 63.3312 24.7785C63.4019 24.8069 63.4623 24.855 63.5048 24.9167C63.5474 24.9783 63.57 25.0508 63.57 25.125C63.5699 25.2244 63.5291 25.3197 63.4566 25.3901C63.3841 25.4604 63.2857 25.4999 63.1831 25.5ZM54.2843 0.75C54.1313 0.75 53.9817 0.793987 53.8544 0.876398C53.7272 0.958809 53.628 1.07594 53.5694 1.21299C53.5108 1.35003 53.4955 1.50083 53.5254 1.64632C53.5552 1.7918 53.6289 1.92544 53.7372 2.03033C53.8454 2.13522 53.9833 2.20665 54.1334 2.23559C54.2835 2.26453 54.4391 2.24968 54.5805 2.19291C54.7218 2.13614 54.8427 2.04001 54.9277 1.91668C55.0128 1.79334 55.0581 1.64834 55.0581 1.5C55.0579 1.30116 54.9763 1.11052 54.8312 0.969921C54.6862 0.829318 54.4895 0.750228 54.2843 0.75ZM54.2843 1.875C54.2078 1.875 54.133 1.85301 54.0694 1.8118C54.0057 1.7706 53.9562 1.71203 53.9269 1.64351C53.8976 1.57498 53.8899 1.49958 53.9049 1.42684C53.9198 1.3541 53.9566 1.28728 54.0107 1.23484C54.0649 1.18239 54.1338 1.14668 54.2088 1.13221C54.2839 1.11774 54.3617 1.12516 54.4324 1.15355C54.5031 1.18193 54.5635 1.22999 54.606 1.29166C54.6485 1.35333 54.6712 1.42583 54.6712 1.5C54.6711 1.59943 54.6303 1.69475 54.5578 1.76506C54.4853 1.83536 54.3869 1.8749 54.2843 1.875ZM63.9569 9.75C63.8039 9.75 63.6543 9.79399 63.527 9.8764C63.3998 9.95881 63.3006 10.0759 63.242 10.213C63.1835 10.35 63.1681 10.5008 63.198 10.6463C63.2279 10.7918 63.3016 10.9254 63.4098 11.0303C63.518 11.1352 63.6559 11.2066 63.806 11.2356C63.9561 11.2645 64.1117 11.2497 64.2531 11.1929C64.3945 11.1361 64.5153 11.04 64.6003 10.9167C64.6854 10.7933 64.7308 10.6483 64.7308 10.5C64.7305 10.3012 64.6489 10.1105 64.5039 9.96992C64.3588 9.82932 64.1621 9.75023 63.9569 9.75ZM63.9569 10.875C63.8804 10.875 63.8056 10.853 63.742 10.8118C63.6784 10.7706 63.6288 10.712 63.5995 10.6435C63.5702 10.575 63.5625 10.4996 63.5775 10.4268C63.5924 10.3541 63.6293 10.2873 63.6834 10.2348C63.7375 10.1824 63.8064 10.1467 63.8815 10.1322C63.9565 10.1177 64.0343 10.1252 64.105 10.1535C64.1757 10.1819 64.2361 10.23 64.2786 10.2917C64.3212 10.3533 64.3438 10.4258 64.3438 10.5C64.3437 10.5994 64.303 10.6947 64.2304 10.7651C64.1579 10.8354 64.0595 10.8749 63.9569 10.875ZM26.4272 1.5C26.4272 1.35166 26.3818 1.20666 26.2968 1.08332C26.2117 0.959986 26.0909 0.863856 25.9495 0.807091C25.8081 0.750325 25.6525 0.735472 25.5024 0.764411C25.3523 0.79335 25.2144 0.864781 25.1062 0.96967C24.998 1.07456 24.9243 1.2082 24.8944 1.35368C24.8646 1.49917 24.8799 1.64997 24.9385 1.78701C24.997 1.92406 25.0962 2.04119 25.2235 2.1236C25.3507 2.20601 25.5003 2.25 25.6534 2.25C25.8585 2.24977 26.0552 2.17068 26.2003 2.03008C26.3453 1.88948 26.4269 1.69884 26.4272 1.5ZM25.2665 1.5C25.2665 1.42583 25.2892 1.35333 25.3317 1.29166C25.3742 1.22999 25.4346 1.18193 25.5053 1.15355C25.576 1.12516 25.6538 1.11774 25.7289 1.13221C25.8039 1.14668 25.8728 1.18239 25.927 1.23484C25.9811 1.28728 26.0179 1.3541 26.0328 1.42684C26.0478 1.49958 26.0401 1.57498 26.0108 1.64351C25.9815 1.71203 25.9319 1.7706 25.8683 1.8118C25.8047 1.85301 25.7299 1.875 25.6534 1.875C25.5508 1.8749 25.4524 1.83536 25.3799 1.76506C25.3074 1.69475 25.2666 1.59943 25.2665 1.5Z" fill="#2D4356"/>
<path d="M3.439 14.6289L4.01433 13.8958L3.65102 13.6963L3.28153 14.5175H3.26954L2.89424 13.7019L2.52474 13.9074L3.09388 14.6233V14.6349L2.20361 14.5235V14.9225L3.09968 14.8112V14.8228L2.52474 15.5383L2.86948 15.7498L3.26335 14.9225H3.27534L3.63864 15.7438L4.02013 15.5327L3.439 14.8284V14.8168L4.35287 14.9225V14.5235L3.439 14.6405V14.6289Z" fill="#1E83E6"/>
<path d="M2.73976 2.27473L2.40857 2.68685L2.60744 2.80835L2.83417 2.3321H2.84075L3.05006 2.80498L3.26982 2.68348L2.93515 2.27773V2.27098L3.46134 2.3321V2.10223L2.93515 2.16973V2.16298L3.26634 1.74073L3.05741 1.62598L2.84461 2.09885H2.83765L2.62137 1.62898L2.40857 1.74748L2.73628 2.1596V2.16635L2.22363 2.10223V2.3321L2.73976 2.26798V2.27473Z" fill="#1E83E6"/>
<path d="M60.0882 19.0171V18.626L59.1918 18.7411V18.7295L59.7559 18.0102L59.3995 17.8145L59.0374 18.62H59.0254L58.6574 17.8201L58.2949 18.0218L58.8532 18.7238V18.7355L57.98 18.626V19.0171L58.859 18.908V18.9196L58.2949 19.6216L58.6335 19.829L59.0196 19.0171H59.0312L59.3875 19.823L59.7617 19.616L59.1918 18.9252V18.9136L60.0882 19.0171Z" fill="#1E83E6"/>
<path d="M38.5929 6.97004L39.0796 6.34941L38.772 6.18066L38.4598 6.87554H38.4493L38.1321 6.18554L37.8191 6.35954L38.3008 6.96516V6.97491L37.5479 6.88079V7.21829L38.3058 7.12379V7.13391L37.8191 7.73954L38.1112 7.91841L38.4443 7.21829H38.4544L38.762 7.91316L39.0846 7.73466L38.5929 7.13879V7.12866L39.3659 7.21829V6.88079L38.5929 6.97979V6.97004Z" fill="#1E83E6"/>
<path d="M0.77381 57C1.20117 57 1.54762 56.6642 1.54762 56.25C1.54762 55.8358 1.20117 55.5 0.77381 55.5C0.346446 55.5 0 55.8358 0 56.25C0 56.6642 0.346446 57 0.77381 57Z" fill="#2D4356"/>
<path d="M4.25581 55.5H3.0951C2.88987 55.5 2.69305 55.579 2.54793 55.7197C2.40282 55.8603 2.32129 56.0511 2.32129 56.25C2.32129 56.4489 2.40282 56.6397 2.54793 56.7803C2.69305 56.921 2.88987 57 3.0951 57H4.25581C4.46104 57 4.65786 56.921 4.80298 56.7803C4.9481 56.6397 5.02962 56.4489 5.02962 56.25C5.02962 56.0511 4.9481 55.8603 4.80298 55.7197C4.65786 55.579 4.46104 55.5 4.25581 55.5ZM61.9046 55.5H60.7439C60.5387 55.5 60.3419 55.579 60.1967 55.7197C60.0516 55.8603 59.9701 56.0511 59.9701 56.25C59.9701 56.4489 60.0516 56.6397 60.1967 56.7803C60.3419 56.921 60.5387 57 60.7439 57H61.9046C62.1099 57 62.3067 56.921 62.4518 56.7803C62.5969 56.6397 62.6784 56.4489 62.6784 56.25C62.6784 56.0511 62.5969 55.8603 62.4518 55.7197C62.3067 55.579 62.1099 55.5 61.9046 55.5Z" fill="#2D4356"/>
<path d="M64.226 57C64.6533 57 64.9998 56.6642 64.9998 56.25C64.9998 55.8358 64.6533 55.5 64.226 55.5C63.7986 55.5 63.4521 55.8358 63.4521 56.25C63.4521 56.6642 63.7986 57 64.226 57Z" fill="#2D4356"/>
<path d="M45.7142 58.5H42.4999C42.3053 58.5151 42.1238 58.6007 41.9914 58.7397C41.8591 58.8786 41.7856 59.0609 41.7856 59.25C41.7856 59.4391 41.8591 59.6214 41.9914 59.7603C42.1238 59.8993 42.3053 59.9849 42.4999 60H45.7142C45.9087 59.9849 46.0902 59.8993 46.2226 59.7603C46.355 59.6214 46.4285 59.4391 46.4285 59.25C46.4285 59.0609 46.355 58.8786 46.2226 58.7397C46.0902 58.6007 45.9087 58.5151 45.7142 58.5ZM22.4999 58.5H19.2856C19.091 58.5151 18.9095 58.6007 18.7772 58.7397C18.6448 58.8786 18.5713 59.0609 18.5713 59.25C18.5713 59.4391 18.6448 59.6214 18.7772 59.7603C18.9095 59.8993 19.091 59.9849 19.2856 60H22.4999C22.6944 59.9849 22.8759 59.8993 23.0083 59.7603C23.1407 59.6214 23.2142 59.4391 23.2142 59.25C23.2142 59.0609 23.1407 58.8786 23.0083 58.7397C22.8759 58.6007 22.6944 58.5151 22.4999 58.5ZM40.238 58.5H24.7618C24.5565 58.5 24.3597 58.579 24.2146 58.7197C24.0695 58.8603 23.988 59.0511 23.988 59.25C23.988 59.4489 24.0695 59.6397 24.2146 59.7803C24.3597 59.921 24.5565 60 24.7618 60H30.929V60.75H27.857C27.6518 60.75 27.455 60.829 27.3098 60.9697C27.1647 61.1103 27.0832 61.3011 27.0832 61.5C27.0832 61.6989 27.1647 61.8897 27.3098 62.0303C27.455 62.171 27.6518 62.25 27.857 62.25H37.5296C37.7349 62.25 37.9317 62.171 38.0768 62.0303C38.2219 61.8897 38.3034 61.6989 38.3034 61.5C38.3034 61.3011 38.2219 61.1103 38.0768 60.9697C37.9317 60.829 37.7349 60.75 37.5296 60.75H34.0707V60H40.238C40.4432 60 40.64 59.921 40.7851 59.7803C40.9303 59.6397 41.0118 59.4489 41.0118 59.25C41.0118 59.0511 40.9303 58.8603 40.7851 58.7197C40.64 58.579 40.4432 58.5 40.238 58.5Z" fill="#1E83E6"/>
<path d="M58.3148 55.5H56.8431C57.1172 55.0447 57.2617 54.5271 57.2619 54V12C57.261 11.2046 56.9346 10.4421 56.3543 9.87969C55.774 9.31727 54.9873 9.00091 54.1667 9H10.8333C10.0127 9.00091 9.22597 9.31727 8.6457 9.87969C8.06544 10.4421 7.73903 11.2046 7.73809 12V54C7.73825 54.5271 7.88277 55.0447 8.1569 55.5H6.6852C6.57512 55.4861 6.46323 55.495 6.35702 55.5264C6.2508 55.5577 6.1527 55.6106 6.06927 55.6816C5.98583 55.7526 5.91899 55.84 5.87319 55.938C5.8274 56.036 5.80371 56.1424 5.80371 56.25C5.80371 56.3576 5.8274 56.464 5.87319 56.562C5.91899 56.66 5.98583 56.7474 6.06927 56.8184C6.1527 56.8894 6.2508 56.9423 6.35702 56.9736C6.46323 57.005 6.57512 57.0139 6.6852 57H58.3148C58.4249 57.0139 58.5368 57.005 58.643 56.9736C58.7492 56.9423 58.8473 56.8894 58.9307 56.8184C59.0142 56.7474 59.081 56.66 59.1268 56.562C59.1726 56.464 59.1963 56.3576 59.1963 56.25C59.1963 56.1424 59.1726 56.036 59.1268 55.938C59.081 55.84 59.0142 55.7526 58.9307 55.6816C58.8473 55.6106 58.7492 55.5577 58.643 55.5264C58.5368 55.495 58.4249 55.4861 58.3148 55.5ZM10.8333 55.5C10.423 55.4996 10.0296 55.3414 9.73948 55.0602C9.44934 54.779 9.28615 54.3977 9.28571 54V12C9.28615 11.6023 9.44934 11.221 9.73948 10.9398C10.0296 10.6586 10.423 10.5004 10.8333 10.5H54.1667C54.577 10.5004 54.9704 10.6586 55.2605 10.9398C55.5507 11.221 55.7138 11.6023 55.7143 12V54C55.7138 54.3977 55.5507 54.779 55.2605 55.0602C54.9704 55.3414 54.577 55.4996 54.1667 55.5H10.8333Z" fill="#2D4356"/>
</g>
<defs>
<clipPath id="clip0_1414_176">
<rect width="65" height="63" fill="white"/>
</clipPath>
</defs>
</svg>
