<svg width="59" height="59" viewBox="0 0 59 59" fill="none" xmlns="http://www.w3.org/2000/svg">
<path d="M0.702387 53.6362C1.0903 53.6362 1.40477 53.3217 1.40477 52.9338C1.40477 52.5459 1.0903 52.2314 0.702387 52.2314C0.314469 52.2314 0 52.5459 0 52.9338C0 53.3217 0.314469 53.6362 0.702387 53.6362Z" fill="#2D4356"/>
<path d="M3.86339 52.2314H2.80981C2.62352 52.2314 2.44487 52.3054 2.31315 52.4372C2.18142 52.5689 2.10742 52.7475 2.10742 52.9338C2.10742 53.1201 2.18142 53.2988 2.31315 53.4305C2.44487 53.5622 2.62352 53.6362 2.80981 53.6362H3.86339C4.04967 53.6362 4.22833 53.5622 4.36005 53.4305C4.49177 53.2988 4.56578 53.1201 4.56578 52.9338C4.56578 52.7475 4.49177 52.5689 4.36005 52.4372C4.22833 52.3054 4.04967 52.2314 3.86339 52.2314ZM56.1912 52.2314H55.1376C54.9513 52.2314 54.7727 52.3054 54.641 52.4372C54.5092 52.5689 54.4352 52.7475 54.4352 52.9338C54.4352 53.1201 54.5092 53.2988 54.641 53.4305C54.7727 53.5622 54.9513 53.6362 55.1376 53.6362H56.1912C56.3775 53.6362 56.5561 53.5622 56.6879 53.4305C56.8196 53.2988 56.8936 53.1201 56.8936 52.9338C56.8936 52.7475 56.8196 52.5689 56.6879 52.4372C56.5561 52.3054 56.3775 52.2314 56.1912 52.2314Z" fill="#2D4356"/>
<path d="M58.2981 53.6362C58.686 53.6362 59.0005 53.3217 59.0005 52.9338C59.0005 52.5459 58.686 52.2314 58.2981 52.2314C57.9102 52.2314 57.5957 52.5459 57.5957 52.9338C57.5957 53.3217 57.9102 53.6362 58.2981 53.6362Z" fill="#2D4356"/>
<path d="M5.47452 15.7123L5.99675 15.0257L5.66698 14.8389L5.33194 15.608H5.3207L4.98004 14.8441L4.64466 15.0366L5.16126 15.707V15.7179L4.35352 15.6136V15.9873L5.16688 15.883V15.8939L4.64466 16.5639L4.95792 16.762L5.31543 15.9873H5.32597L5.65574 16.7564L6.00202 16.5587L5.47452 15.8991V15.8882L6.30404 15.9873V15.6136L5.47452 15.7232V15.7123Z" fill="#1E83E6"/>
<path d="M32.9333 3.4396L32.6324 3.82556L32.8129 3.93934L33.0187 3.49333H33.025L33.2146 3.93618L33.4141 3.8224L33.1103 3.44241V3.43608L33.588 3.49333V3.27805L33.1103 3.34126V3.33494L33.411 2.9395L33.2213 2.83203L33.0282 3.27489H33.0218L32.8259 2.83484L32.6324 2.94582L32.9302 3.33178V3.3381L32.4648 3.27805V3.49333L32.9333 3.43327V3.4396Z" fill="#1E83E6"/>
<path d="M57.9465 3.66632V3.30002L57.1328 3.40784V3.39695L57.6452 2.72336L57.3214 2.54004L56.993 3.2944H56.9818L56.6478 2.54531L56.3187 2.73425L56.8255 3.39168V3.40257L56.0332 3.30002V3.66632L56.8308 3.56412V3.57501L56.3187 4.23244L56.626 4.42665L56.9765 3.66632H56.987L57.3105 4.42103L57.6501 4.22717L57.1328 3.58027V3.56939L57.9465 3.66632Z" fill="#1E83E6"/>
<mask id="mask0_365_1230" style="mask-type:alpha" maskUnits="userSpaceOnUse" x="0" y="0" width="59" height="20">
<rect y="0.813477" width="58.7745" height="19.1359" fill="#C4C4C4"/>
</mask>
<g mask="url(#mask0_365_1230)">
<path d="M33.5111 26.2973C33.5051 25.5979 33.2222 24.9293 32.7244 24.4379C32.2266 23.9465 31.5544 23.6723 30.8549 23.6754H27.2956V29.0284H30.8549C31.568 29.0145 32.2469 28.7199 32.7442 28.2086C33.2415 27.6973 33.5171 27.0106 33.5111 26.2973ZM28.7004 25.0802H30.8549C31.1821 25.076 31.4976 25.2019 31.7322 25.43C31.9668 25.6582 32.1014 25.9701 32.1064 26.2973C32.1115 26.6378 31.9836 26.9669 31.7499 27.2145C31.5162 27.4622 31.1951 27.6089 30.8549 27.6236H28.7004L28.7004 25.0802ZM33.5111 33.3327C33.5107 32.6171 33.2344 31.9293 32.7396 31.4124C32.2448 30.8955 31.5697 30.5893 30.8549 30.5576H27.2956V35.9102H30.8549C31.1999 35.9205 31.5434 35.8615 31.8652 35.7366C32.1869 35.6117 32.4804 35.4235 32.7281 35.1831C32.9758 34.9428 33.1727 34.6552 33.3072 34.3373C33.4417 34.0194 33.5111 33.6778 33.5111 33.3327ZM28.7004 31.9624H30.8549C31.1961 31.9955 31.5129 32.1539 31.744 32.407C31.9752 32.6601 32.1043 32.9899 32.1064 33.3327C32.1065 33.4935 32.0736 33.6526 32.0098 33.8002C31.9459 33.9477 31.8524 34.0806 31.7351 34.1906C31.6177 34.3005 31.4791 34.3852 31.3277 34.4394C31.1763 34.4935 31.0153 34.516 30.8549 34.5054H28.7004L28.7004 31.9624ZM46.009 4.15586C46.2174 4.15586 46.4211 4.09407 46.5944 3.9783C46.7676 3.86253 46.9027 3.69798 46.9824 3.50547C47.0621 3.31295 47.083 3.10111 47.0424 2.89673C47.0017 2.69236 46.9014 2.50463 46.754 2.35728C46.6067 2.20994 46.4189 2.10959 46.2146 2.06894C46.0102 2.02829 45.7984 2.04915 45.6058 2.1289C45.4133 2.20864 45.2488 2.34368 45.133 2.51694C45.0172 2.6902 44.9554 2.8939 44.9554 3.10228C44.9558 3.38161 45.0669 3.6494 45.2644 3.84692C45.4619 4.04443 45.7297 4.15554 46.009 4.15586ZM46.009 2.57549C46.1132 2.57549 46.2151 2.60638 46.3017 2.66427C46.3883 2.72215 46.4558 2.80443 46.4957 2.90068C46.5356 2.99694 46.546 3.10286 46.5257 3.20505C46.5054 3.30724 46.4552 3.4011 46.3815 3.47477C46.3078 3.54845 46.214 3.59862 46.1118 3.61895C46.0096 3.63927 45.9037 3.62884 45.8074 3.58897C45.7112 3.5491 45.6289 3.48158 45.571 3.39495C45.5131 3.30832 45.4822 3.20647 45.4822 3.10228C45.4824 2.96261 45.5379 2.8287 45.6367 2.72993C45.7354 2.63117 45.8694 2.57563 46.009 2.57549ZM23.5326 3.10228C23.741 3.10228 23.9447 3.04049 24.118 2.92472C24.2912 2.80895 24.4263 2.6444 24.506 2.45189C24.5858 2.25937 24.6066 2.04753 24.566 1.84315C24.5253 1.63878 24.425 1.45105 24.2776 1.3037C24.1303 1.15636 23.9426 1.05601 23.7382 1.01536C23.5338 0.974709 23.322 0.995574 23.1295 1.07532C22.9369 1.15506 22.7724 1.2901 22.6566 1.46336C22.5409 1.63662 22.4791 1.84032 22.4791 2.0487C22.4794 2.32803 22.5905 2.59582 22.788 2.79334C22.9855 2.99085 23.2533 3.10196 23.5326 3.10228ZM23.5326 1.52191C23.6368 1.52191 23.7387 1.5528 23.8253 1.61069C23.9119 1.66857 23.9795 1.75085 24.0193 1.8471C24.0592 1.94336 24.0696 2.04928 24.0493 2.15147C24.029 2.25366 23.9788 2.34752 23.9051 2.42119C23.8315 2.49487 23.7376 2.54504 23.6354 2.56537C23.5332 2.58569 23.4273 2.57526 23.3311 2.53539C23.2348 2.49552 23.1525 2.428 23.0946 2.34137C23.0368 2.25474 23.0059 2.15289 23.0059 2.0487C23.006 1.90903 23.0615 1.77512 23.1603 1.67635C23.2591 1.57759 23.393 1.52205 23.5326 1.52191ZM55.4912 10.8285C55.6302 10.8285 55.766 10.7873 55.8815 10.7102C55.997 10.633 56.087 10.5233 56.1402 10.3949C56.1933 10.2666 56.2072 10.1254 56.1801 9.98911C56.153 9.85287 56.0861 9.72771 55.9879 9.62948C55.8897 9.53125 55.7645 9.46436 55.6283 9.43725C55.492 9.41015 55.3508 9.42406 55.2225 9.47722C55.0941 9.53039 54.9844 9.62041 54.9072 9.73592C54.8301 9.85143 54.7889 9.98722 54.7889 10.1261C54.7891 10.3124 54.8631 10.4909 54.9948 10.6226C55.1265 10.7542 55.305 10.8283 55.4912 10.8285ZM55.4912 9.77495C55.5607 9.77495 55.6286 9.79555 55.6864 9.83414C55.7441 9.87273 55.7891 9.92758 55.8157 9.99175C55.8423 10.0559 55.8492 10.1265 55.8357 10.1947C55.8221 10.2628 55.7887 10.3254 55.7396 10.3745C55.6905 10.4236 55.6279 10.457 55.5598 10.4706C55.4916 10.4841 55.421 10.4772 55.3568 10.4506C55.2927 10.424 55.2378 10.379 55.1992 10.3213C55.1606 10.2635 55.14 10.1956 55.14 10.1261C55.1401 10.033 55.1772 9.94376 55.243 9.87792C55.3089 9.81207 55.3981 9.77504 55.4912 9.77495ZM28.4494 9.77495C28.5883 9.77495 28.7241 9.73376 28.8396 9.65658C28.9551 9.5794 29.0451 9.4697 29.0983 9.34136C29.1514 9.21301 29.1653 9.07178 29.1382 8.93553C29.1111 8.79929 29.0442 8.67413 28.946 8.5759C28.8478 8.47767 28.7226 8.41078 28.5864 8.38367C28.4501 8.35657 28.3089 8.37048 28.1806 8.42364C28.0522 8.47681 27.9425 8.56683 27.8653 8.68234C27.7882 8.79785 27.747 8.93365 27.747 9.07256C27.7472 9.25878 27.8213 9.43731 27.9529 9.56899C28.0846 9.70067 28.2631 9.77474 28.4494 9.77495ZM28.4494 8.72137C28.5188 8.72137 28.5867 8.74197 28.6445 8.78056C28.7022 8.81915 28.7472 8.874 28.7738 8.93817C28.8004 9.00234 28.8073 9.07295 28.7938 9.14108C28.7802 9.2092 28.7468 9.27178 28.6977 9.3209C28.6486 9.37001 28.586 9.40346 28.5179 9.41701C28.4497 9.43056 28.3791 9.4236 28.315 9.39702C28.2508 9.37044 28.1959 9.32543 28.1573 9.26768C28.1188 9.20992 28.0982 9.14202 28.0982 9.07256C28.0983 8.97945 28.1353 8.89018 28.2011 8.82434C28.267 8.75849 28.3562 8.72146 28.4494 8.72137ZM1.40747 5.56063C1.26855 5.56063 1.13275 5.60182 1.01724 5.679C0.901733 5.75618 0.811706 5.86588 0.758544 5.99423C0.705382 6.12257 0.691473 6.2638 0.718575 6.40005C0.745676 6.5363 0.812572 6.66145 0.910803 6.75968C1.00903 6.85791 1.13419 6.92481 1.27044 6.95191C1.40669 6.97901 1.54791 6.9651 1.67626 6.91194C1.8046 6.85878 1.9143 6.76875 1.99148 6.65324C2.06866 6.53774 2.10985 6.40194 2.10985 6.26302C2.10964 6.0768 2.03557 5.89827 1.90389 5.76659C1.77222 5.63491 1.59368 5.56084 1.40747 5.56063ZM1.40747 6.61421C1.33801 6.61421 1.27011 6.59361 1.21235 6.55502C1.1546 6.51643 1.10959 6.46159 1.083 6.39741C1.05642 6.33324 1.04947 6.26263 1.06302 6.1945C1.07657 6.12638 1.11002 6.0638 1.15913 6.01469C1.20825 5.96557 1.27083 5.93212 1.33895 5.91857C1.40708 5.90502 1.47769 5.91198 1.54186 5.93856C1.60603 5.96514 1.66088 6.01015 1.69947 6.0679C1.73806 6.12566 1.75866 6.19356 1.75866 6.26302C1.75857 6.35613 1.72154 6.4454 1.65569 6.51125C1.58985 6.57709 1.50058 6.61412 1.40747 6.61421Z" fill="#2D4356"/>
<path d="M12.7292 10.0381H10.3586C10.1724 10.0381 9.99371 10.1121 9.86198 10.2438C9.73026 10.3755 9.65626 10.5542 9.65625 10.7405V13.4622C9.65625 13.6485 9.73025 13.8272 9.86197 13.9589C9.9937 14.0906 10.1724 14.1646 10.3586 14.1646C10.5449 14.1646 10.7236 14.0906 10.8553 13.9589C10.987 13.8272 11.061 13.6485 11.061 13.4622V11.4429H12.7292C12.9155 11.4429 13.0941 11.3689 13.2259 11.2371C13.3576 11.1054 13.4316 10.9268 13.4316 10.7405C13.4316 10.5542 13.3576 10.3755 13.2259 10.2438C13.0941 10.1121 12.9155 10.0381 12.7292 10.0381ZM48.5509 10.0381H46.1804C45.9941 10.0381 45.8154 10.1121 45.6837 10.2438C45.552 10.3755 45.478 10.5542 45.478 10.7405C45.478 10.9268 45.552 11.1054 45.6837 11.2371C45.8154 11.3689 45.9941 11.4429 46.1804 11.4429H47.8485V13.4622C47.8485 13.6485 47.9225 13.8272 48.0542 13.9589C48.186 14.0906 48.3646 14.1646 48.5509 14.1646C48.7372 14.1646 48.9159 14.0906 49.0476 13.9589C49.1793 13.8272 49.2533 13.6485 49.2533 13.4622V10.7405C49.2533 10.5542 49.1793 10.3755 49.0476 10.2438C48.9158 10.1121 48.7372 10.0381 48.5509 10.0381ZM12.7292 48.2304H11.061V46.211C11.061 46.0247 10.987 45.8461 10.8553 45.7143C10.7236 45.5826 10.5449 45.5086 10.3586 45.5086C10.1724 45.5086 9.9937 45.5826 9.86197 45.7143C9.73025 45.8461 9.65625 46.0247 9.65625 46.211V48.9327C9.65626 49.119 9.73026 49.2977 9.86198 49.4294C9.99371 49.5611 10.1724 49.6351 10.3586 49.6351H12.7292C12.9155 49.6351 13.0941 49.5611 13.2259 49.4294C13.3576 49.2977 13.4316 49.119 13.4316 48.9327C13.4316 48.7465 13.3576 48.5678 13.2259 48.4361C13.0941 48.3044 12.9155 48.2304 12.7292 48.2304ZM48.5509 45.5086C48.3646 45.5086 48.186 45.5826 48.0543 45.7143C47.9225 45.8461 47.8485 46.0247 47.8485 46.211V48.2304H46.1804C45.9941 48.2304 45.8154 48.3044 45.6837 48.4361C45.552 48.5678 45.478 48.7465 45.478 48.9327C45.478 49.119 45.552 49.2977 45.6837 49.4294C45.8154 49.5611 45.9941 49.6351 46.1804 49.6351H48.5509C48.7372 49.6351 48.9158 49.5611 49.0476 49.4294C49.1793 49.2977 49.2533 49.119 49.2533 48.9327V46.211C49.2533 46.0247 49.1793 45.8461 49.0476 45.7143C48.9158 45.5826 48.7372 45.5086 48.5509 45.5086Z" fill="#1E83E6"/>
<path d="M9.63716 2.27339L9.90196 2.44091L10.2047 1.78523H10.2135L10.4927 2.43599L10.7856 2.26882L10.3392 1.71078V1.70129L11.0412 1.78523V1.46915L10.3392 1.56187V1.55274L10.781 0.971514L10.5022 0.813477L10.2184 1.46424H10.2093L9.92093 0.818042L9.63716 0.980996L10.0744 1.54817V1.5573L9.39062 1.46915V1.78523L10.079 1.69673V1.70621L9.63716 2.27339Z" fill="#1E83E6"/>
</g>
<path d="M41.4969 55.3916H38.5794C38.4028 55.4057 38.238 55.4859 38.1179 55.616C37.9977 55.7462 37.931 55.9168 37.931 56.094C37.931 56.2711 37.9977 56.4418 38.1179 56.5719C38.238 56.7021 38.4028 56.7822 38.5794 56.7964H41.4969C41.6735 56.7822 41.8383 56.7021 41.9584 56.5719C42.0786 56.4418 42.1453 56.2711 42.1453 56.094C42.1453 55.9168 42.0786 55.7462 41.9584 55.616C41.8383 55.4859 41.6735 55.4057 41.4969 55.3916ZM20.4254 55.3916H17.5077C17.3312 55.4057 17.1664 55.4859 17.0462 55.616C16.9261 55.7462 16.8594 55.9168 16.8594 56.094C16.8594 56.2711 16.9261 56.4418 17.0462 56.5719C17.1664 56.7021 17.3312 56.7822 17.5077 56.7964H20.4254C20.6019 56.7822 20.7667 56.7021 20.8868 56.5719C21.007 56.4418 21.0737 56.2711 21.0737 56.094C21.0737 55.9168 21.007 55.7462 20.8868 55.616C20.7667 55.4859 20.6019 55.4057 20.4254 55.3916ZM36.5262 55.3916H22.4785C22.2922 55.3916 22.1135 55.4656 21.9818 55.5973C21.8501 55.729 21.7761 55.9077 21.7761 56.094C21.7761 56.2803 21.8501 56.4589 21.9818 56.5907C22.1135 56.7224 22.2922 56.7964 22.4785 56.7964H28.0765V57.4988H25.288C25.1017 57.4988 24.9231 57.5728 24.7914 57.7045C24.6596 57.8362 24.5856 58.0149 24.5856 58.2011C24.5856 58.3874 24.6596 58.5661 24.7914 58.6978C24.9231 58.8295 25.1017 58.9035 25.288 58.9035H34.0679C34.2541 58.9035 34.4328 58.8295 34.5645 58.6978C34.6962 58.5661 34.7702 58.3874 34.7702 58.2011C34.7702 58.0149 34.6962 57.8362 34.5645 57.7045C34.4328 57.5728 34.2541 57.4988 34.0679 57.4988H30.9282V56.7964H36.5262C36.7125 56.7964 36.8912 56.7224 37.0229 56.5907C37.1546 56.4589 37.2286 56.2803 37.2286 56.094C37.2286 55.9077 37.1546 55.729 37.0229 55.5973C36.8912 55.4656 36.7125 55.3916 36.5262 55.3916Z" fill="#1E83E6"/>
<path d="M26.9593 53.3017H19.2139C18.7549 53.3017 18.3828 52.9295 18.3828 52.4706V51.6382C18.3828 49.9991 19.2594 48.4534 20.6708 47.604C22.109 46.734 24.046 46.7299 25.5045 47.6138C26.9134 48.4611 27.7904 50.0036 27.7904 51.6382V52.4706C27.7904 52.9295 27.4183 53.3017 26.9593 53.3017ZM20.045 51.6395L26.1282 51.6382C26.1282 50.5835 25.5601 49.5868 24.6458 49.037C23.6872 48.4575 22.4385 48.4782 21.5295 49.0272C20.6132 49.5787 20.045 50.5787 20.045 51.6382V51.6395Z" fill="#2D4356"/>
<path d="M25.0771 49.1553C24.9278 49.1553 24.7789 49.1152 24.6466 49.0352C23.6929 48.4582 22.4418 48.4776 21.5328 49.0267C21.2759 49.1821 20.9561 49.1866 20.6943 49.0397C20.433 48.8924 20.2715 48.6156 20.2715 48.3157V42.0479C20.2715 41.5889 20.6436 41.2168 21.1026 41.2168H25.0771C25.5361 41.2168 25.9083 41.5889 25.9083 42.0479V48.3242C25.9083 48.6241 25.7463 48.9009 25.485 49.0482C25.3584 49.1196 25.2176 49.1553 25.0771 49.1553ZM23.0858 46.938C23.4803 46.938 23.8694 46.9875 24.246 47.0837V42.879H21.9337V47.0796C22.3071 46.9859 22.6942 46.938 23.0858 46.938ZM39.5554 53.3011H31.81C31.3506 53.3011 30.9789 52.929 30.9789 52.47V51.6377C30.9789 49.999 31.8555 48.4533 33.2669 47.6035C34.7035 46.7343 36.6384 46.7286 38.101 47.6132C39.5099 48.461 40.3865 50.0035 40.3865 51.6377V52.47C40.3865 52.929 40.0148 53.3011 39.5554 53.3011ZM32.6411 51.6389L38.7243 51.6377C38.7243 50.583 38.1562 49.5863 37.2423 49.0364C36.2821 48.4557 35.033 48.4776 34.1256 49.0267C33.2093 49.5786 32.6411 50.5785 32.6411 51.6377V51.6389Z" fill="#2D4356"/>
<path d="M37.6703 49.1554C37.5209 49.1554 37.3724 49.1152 37.2401 49.0353C36.2832 48.457 35.0325 48.4777 34.1251 49.0268C33.8686 49.1826 33.548 49.1875 33.2867 49.0397C33.0253 48.8924 32.8638 48.6157 32.8638 48.3158V42.048C32.8638 41.589 33.2355 41.2169 33.6949 41.2169H37.6703C38.1296 41.2169 38.5014 41.589 38.5014 42.048V48.3243C38.5014 48.6242 38.3399 48.901 38.0785 49.0483C37.9519 49.1197 37.8107 49.1554 37.6703 49.1554ZM35.6785 46.938C36.073 46.938 36.4626 46.9875 36.8392 47.0837V42.8791H34.526V47.0801C34.8994 46.9859 35.2865 46.938 35.6785 46.938ZM16.8459 37.5657C16.0984 37.5657 15.3699 37.2662 14.8468 36.7436C14.3156 36.2123 14.0234 35.505 14.0234 34.7514V24.3212C14.0234 22.7693 15.2896 21.5068 16.8459 21.5068C17.5995 21.5068 18.3064 21.799 18.8372 22.3298C19.368 22.8606 19.6602 23.5676 19.6602 24.3212V34.7514C19.6602 36.3033 18.3977 37.5657 16.8459 37.5657ZM16.8459 23.1691C16.2063 23.1691 15.6857 23.6861 15.6857 24.3212V34.7514C15.6857 35.0611 15.805 35.3512 16.0217 35.5679C16.2351 35.781 16.5358 35.9035 16.8459 35.9035C17.481 35.9035 17.998 35.3865 17.998 34.7514V24.3212C17.998 24.0115 17.8787 23.7218 17.662 23.5051C17.4453 23.2884 17.1555 23.1691 16.8459 23.1691ZM41.9346 37.974C41.1862 37.974 40.4566 37.6741 39.9347 37.1506C39.4039 36.6198 39.1117 35.9124 39.1117 35.1597V24.3212C39.1117 22.7693 40.3779 21.5068 41.9346 21.5068C42.6886 21.5068 43.3955 21.799 43.9255 22.3302C44.4563 22.8598 44.7485 23.5672 44.7485 24.3212V35.1597C44.7485 36.7115 43.4864 37.974 41.9346 37.974ZM41.9346 23.1691C41.2942 23.1691 40.7739 23.6861 40.7739 24.3212V35.1597C40.7739 35.4689 40.8932 35.7586 41.11 35.9762C41.3234 36.1892 41.6237 36.3118 41.9346 36.3118C42.5693 36.3118 43.0863 35.7948 43.0863 35.1597V24.3212C43.0863 24.0115 42.967 23.7218 42.7503 23.5055C42.5336 23.2884 42.2438 23.1691 41.9346 23.1691Z" fill="#2D4356"/>
<path d="M38.6962 42.8803H20.0758C18.9302 42.8803 17.998 41.9481 17.998 40.8025V25.7975C17.998 24.6519 18.9302 23.7197 20.0758 23.7197H38.6962C39.8423 23.7197 40.774 24.6519 40.774 25.7975V40.8025C40.774 41.9481 39.8423 42.8803 38.6962 42.8803ZM20.0758 25.3819C19.8465 25.3819 19.6603 25.5682 19.6603 25.7975V40.8025C19.6603 41.0318 19.8465 41.2181 20.0758 41.2181H38.6962C38.9251 41.2181 39.1118 41.0318 39.1118 40.8025V25.7975C39.1118 25.5682 38.9251 25.3819 38.6962 25.3819H20.0758Z" fill="#2D4356"/>
<path d="M37.0893 39.7174H21.6749C21.2159 39.7174 20.8438 39.3452 20.8438 38.8862V27.7129C20.8438 27.254 21.2159 26.8818 21.6749 26.8818H37.0893C37.5487 26.8818 37.9204 27.254 37.9204 27.7129V38.8862C37.9204 39.3452 37.5487 39.7174 37.0893 39.7174ZM22.506 38.0551H36.2582V28.5441H22.506V38.0551Z" fill="#1E83E6"/>
<path d="M29.7485 36.7269C29.4462 36.7269 29.1666 36.5626 29.0201 36.2964L27.114 32.8295L26.0568 33.8866C25.901 34.0425 25.6896 34.1301 25.4692 34.1301H21.6749C21.2159 34.1301 20.8438 33.758 20.8438 33.299C20.8438 32.84 21.2159 32.4679 21.6749 32.4679H25.1251L26.7212 30.8714C26.9054 30.6864 27.1676 30.6007 27.4257 30.636C27.6846 30.673 27.911 30.8296 28.0372 31.0585L29.6743 34.036L31.3544 30.3021C31.4826 30.018 31.7577 29.8297 32.0686 29.8131C32.3754 29.794 32.6732 29.9547 32.8299 30.2233L34.3022 32.7414H37.0893C37.5487 32.7414 37.9204 33.1135 37.9204 33.5725C37.9204 34.0315 37.5487 34.4036 37.0893 34.4036H33.825C33.5295 34.4036 33.2568 34.247 33.1075 33.9921L32.209 32.4545L30.5062 36.2367C30.3771 36.524 30.0967 36.7135 29.7818 36.7261C29.7705 36.7265 29.7595 36.7269 29.7485 36.7269Z" fill="#1E83E6"/>
<path d="M32.0897 25.3823H26.6827C26.2237 25.3823 25.8516 25.0102 25.8516 24.5512V21.4581C25.8516 20.9991 26.2237 20.627 26.6827 20.627H32.0897C32.5491 20.627 32.9209 20.9991 32.9209 21.4581V24.5512C32.9209 25.0102 32.5491 25.3823 32.0897 25.3823ZM27.5138 23.7201H31.2586V22.2892H27.5138V23.7201Z" fill="#2D4356"/>
<path d="M34.8401 22.2879H23.9285C22.5699 22.2879 21.4648 21.1829 21.4648 19.8246V14.6176C21.4648 13.2622 22.5183 11.7461 23.9285 11.7461H34.8401C36.2499 11.7461 37.3034 13.2622 37.3034 14.6176V19.8246C37.3034 21.1829 36.1988 22.2879 34.8401 22.2879ZM23.9285 13.4083C23.584 13.4083 23.1271 14.0978 23.1271 14.6176V19.8246C23.1271 20.2662 23.4866 20.6257 23.9285 20.6257H34.8401C35.2816 20.6257 35.6412 20.2662 35.6412 19.8246V14.6176C35.6412 14.0568 35.1566 13.4083 34.8401 13.4083H23.9285Z" fill="#2D4356"/>
<path d="M26.386 17.1497C25.8556 17.1497 25.4238 16.7179 25.4238 16.1875C25.4238 15.6575 25.8556 15.2266 26.386 15.2266C26.9164 15.2266 27.3478 15.6575 27.3478 16.1875C27.3478 16.7179 26.9164 17.1497 26.386 17.1497ZM26.386 15.4875C25.9997 15.4875 25.6856 15.8016 25.6856 16.1875C25.6856 16.5743 25.9997 16.8888 26.386 16.8888C26.7719 16.8888 27.086 16.5743 27.086 16.1875C27.086 15.8016 26.7719 15.4875 26.386 15.4875ZM32.3868 17.1497C31.856 17.1497 31.4242 16.7179 31.4242 16.1875C31.4242 15.6575 31.856 15.2266 32.3868 15.2266C32.9168 15.2266 33.3486 15.6575 33.3486 16.1875C33.3486 16.7179 32.9168 17.1497 32.3868 17.1497ZM32.3868 15.4875C32.0005 15.4875 31.6864 15.8016 31.6864 16.1875C31.6864 16.5743 32.0005 16.8888 32.3868 16.8888C32.7723 16.8888 33.0864 16.5743 33.0864 16.1875C33.0864 15.8016 32.7723 15.4875 32.3868 15.4875ZM30.3602 19.6593H28.4122C27.9533 19.6593 27.5811 19.2871 27.5811 18.8282C27.5811 18.3692 27.9533 17.9971 28.4122 17.9971H30.3602C30.8195 17.9971 31.1913 18.3692 31.1913 18.8282C31.1913 19.2871 30.8195 19.6593 30.3602 19.6593Z" fill="#2D4356"/>
<path d="M38.0394 20.0184H36.4721C36.0127 20.0184 35.641 19.6462 35.641 19.1873V14.8487C35.641 14.3897 36.0127 14.0176 36.4721 14.0176H38.0394C38.9557 14.0176 39.7016 14.7631 39.7016 15.6798V18.3561C39.7016 19.2729 38.9557 20.0184 38.0394 20.0184ZM37.3032 18.3561H38.0394V15.6822L37.3032 15.681V18.3561ZM38.0394 15.6798H38.8705H38.0394ZM22.2982 20.0184H20.7306C19.8138 20.0184 19.0684 19.2729 19.0684 18.3561V15.6798C19.0684 14.7631 19.8138 14.0176 20.7306 14.0176H22.2982C22.7572 14.0176 23.1293 14.3897 23.1293 14.8487V19.1873C23.1293 19.6462 22.7572 20.0184 22.2982 20.0184ZM19.8995 18.3561H20.7306H19.8995ZM20.7306 18.3537L21.4671 18.3549V15.6798H20.7306V18.3537Z" fill="#2D4356"/>
</svg>
