<svg width="59" height="59" viewBox="0 0 59 59" fill="none" xmlns="http://www.w3.org/2000/svg">
<g clip-path="url(#clip0_365_1056)">
<path d="M0.702381 53.5561C1.0903 53.5561 1.40476 53.2417 1.40476 52.8537C1.40476 52.4658 1.0903 52.1514 0.702381 52.1514C0.314467 52.1514 0 52.4658 0 52.8537C0 53.2417 0.314467 53.5561 0.702381 53.5561Z" fill="#2D4356"/>
<path d="M3.86337 52.1514H2.8098C2.62352 52.1514 2.44487 52.2254 2.31314 52.3571C2.18142 52.4888 2.10742 52.6675 2.10742 52.8537C2.10742 53.04 2.18142 53.2187 2.31314 53.3504C2.44487 53.4821 2.62352 53.5561 2.8098 53.5561H3.86337C4.04966 53.5561 4.22831 53.4821 4.36003 53.3504C4.49175 53.2187 4.56576 53.04 4.56576 52.8537C4.56576 52.6675 4.49175 52.4888 4.36003 52.3571C4.22831 52.2254 4.04966 52.1514 3.86337 52.1514ZM56.1908 52.1514H55.1372C54.9509 52.1514 54.7722 52.2254 54.6405 52.3571C54.5088 52.4888 54.4348 52.6675 54.4348 52.8537C54.4348 53.04 54.5088 53.2187 54.6405 53.3504C54.7722 53.4821 54.9509 53.5561 55.1372 53.5561H56.1908C56.377 53.5561 56.5557 53.4821 56.6874 53.3504C56.8191 53.2187 56.8931 53.04 56.8931 52.8537C56.8931 52.6675 56.8191 52.4888 56.6874 52.3571C56.5557 52.2254 56.377 52.1514 56.1908 52.1514Z" fill="#2D4356"/>
<path d="M58.2981 53.5561C58.686 53.5561 59.0005 53.2417 59.0005 52.8537C59.0005 52.4658 58.686 52.1514 58.2981 52.1514C57.9102 52.1514 57.5957 52.4658 57.5957 52.8537C57.5957 53.2417 57.9102 53.5561 58.2981 53.5561Z" fill="#2D4356"/>
<path d="M41.4948 54.9609H38.5772C38.4006 54.9751 38.2359 55.0552 38.1157 55.1854C37.9956 55.3155 37.9288 55.4862 37.9288 55.6633C37.9288 55.8405 37.9956 56.0111 38.1157 56.1413C38.2359 56.2714 38.4006 56.3516 38.5772 56.3657H41.4948C41.6714 56.3516 41.8361 56.2714 41.9563 56.1413C42.0764 56.0111 42.1432 55.8405 42.1432 55.6633C42.1432 55.4862 42.0764 55.3155 41.9563 55.1854C41.8361 55.0552 41.6714 54.9751 41.4948 54.9609ZM20.4234 54.9609H17.5058C17.3292 54.9751 17.1644 55.0552 17.0443 55.1854C16.9241 55.3155 16.8574 55.4862 16.8574 55.6633C16.8574 55.8405 16.9241 56.0111 17.0443 56.1413C17.1644 56.2714 17.3292 56.3516 17.5058 56.3657H20.4234C20.5999 56.3516 20.7647 56.2714 20.8849 56.1413C21.005 56.0111 21.0717 55.8405 21.0717 55.6633C21.0717 55.4862 21.005 55.3155 20.8849 55.1854C20.7647 55.0552 20.5999 54.9751 20.4234 54.9609ZM36.5241 54.9609H22.4765C22.2902 54.9609 22.1115 55.0349 21.9798 55.1667C21.8481 55.2984 21.7741 55.477 21.7741 55.6633C21.7741 55.8496 21.8481 56.0283 21.9798 56.16C22.1115 56.2917 22.2902 56.3657 22.4765 56.3657H28.0745V57.0681H25.286C25.0997 57.0681 24.9211 57.1421 24.7893 57.2738C24.6576 57.4055 24.5836 57.5842 24.5836 57.7705C24.5836 57.9567 24.6576 58.1354 24.7893 58.2671C24.9211 58.3988 25.0997 58.4728 25.286 58.4728H34.0658C34.252 58.4728 34.4307 58.3988 34.5624 58.2671C34.6941 58.1354 34.7681 57.9567 34.7681 57.7705C34.7681 57.5842 34.6941 57.4055 34.5624 57.2738C34.4307 57.1421 34.252 57.0681 34.0658 57.0681H30.9261V56.3657H36.5241C36.7104 56.3657 36.889 56.2917 37.0208 56.16C37.1525 56.0283 37.2265 55.8496 37.2265 55.6633C37.2265 55.477 37.1525 55.2984 37.0208 55.1667C36.889 55.0349 36.7104 54.9609 36.5241 54.9609Z" fill="#1E83E6"/>
<path d="M24.5832 49.3426C24.397 49.3426 24.2183 49.4166 24.0866 49.5483C23.9549 49.68 23.8809 49.8587 23.8809 50.045C23.8809 50.2313 23.9549 50.4099 24.0866 50.5416C24.2183 50.6734 24.397 50.7474 24.5832 50.7474H31.607C31.7933 50.7474 31.972 50.6734 32.1037 50.5416C32.2354 50.4099 32.3094 50.2313 32.3094 50.045C32.3094 49.8587 32.2354 49.68 32.1037 49.5483C31.972 49.4166 31.7933 49.3426 31.607 49.3426H24.5832ZM28.0951 12.8188C28.2814 12.8188 28.4601 12.7448 28.5918 12.613C28.7235 12.4813 28.7975 12.3027 28.7975 12.1164V9.30687C28.7975 9.12059 28.7235 8.94194 28.5918 8.81021C28.4601 8.67849 28.2814 8.60449 28.0951 8.60449C27.9089 8.60449 27.7302 8.67849 27.5985 8.81021C27.4668 8.94194 27.3928 9.12059 27.3928 9.30687V12.1164C27.3928 12.3027 27.4668 12.4813 27.5985 12.613C27.7302 12.7448 27.9089 12.8188 28.0951 12.8188Z" fill="#2D4356"/>
<path d="M34.0077 14.0562C34.0929 14.0915 34.1842 14.1098 34.2765 14.1098C34.3687 14.1099 34.4601 14.0918 34.5453 14.0565C34.6306 14.0212 34.708 13.9695 34.7732 13.9043C34.8385 13.839 34.8902 13.7616 34.9255 13.6763L36.0634 10.9315C36.0987 10.8462 36.1169 10.7549 36.117 10.6627C36.117 10.5704 36.0989 10.4791 36.0636 10.3938C36.0283 10.3086 35.9766 10.2311 35.9114 10.1659C35.8462 10.1006 35.7688 10.0489 35.6836 10.0135C35.5984 9.9782 35.507 9.95999 35.4148 9.95996C35.3225 9.95993 35.2312 9.97806 35.1459 10.0133C35.0607 10.0486 34.9833 10.1003 34.918 10.1655C34.8527 10.2307 34.801 10.3081 34.7656 10.3934L33.6277 13.1382C33.5564 13.3104 33.5564 13.5037 33.6276 13.6759C33.6989 13.848 33.8356 13.9848 34.0077 14.0562Z" fill="#1E83E6"/>
<path d="M39.6124 17.5052C39.7048 17.5053 39.7964 17.4871 39.8817 17.4517C39.9671 17.4163 40.0446 17.3643 40.1097 17.2987L42.2151 15.1873C42.2806 15.1221 42.3326 15.0445 42.3681 14.9592C42.4036 14.8738 42.4219 14.7823 42.4219 14.6899C42.4219 14.5974 42.4037 14.5059 42.3683 14.4205C42.3329 14.3351 42.281 14.2576 42.2155 14.1923C42.1501 14.1271 42.0724 14.0753 41.9869 14.0402C41.9014 14.005 41.8098 13.987 41.7174 13.9873C41.625 13.9876 41.5335 14.0061 41.4482 14.0418C41.363 14.0776 41.2856 14.1298 41.2206 14.1954L39.1151 16.3069C39.0171 16.4052 38.9504 16.5303 38.9235 16.6665C38.8966 16.8027 38.9106 16.9438 38.9638 17.072C39.017 17.2002 39.107 17.3098 39.2225 17.3869C39.3379 17.464 39.4736 17.5051 39.6124 17.5052Z" fill="#2D4356"/>
<path d="M43.2491 22.6514C43.3426 22.6513 43.4352 22.6325 43.5214 22.5962L46.2791 21.4344C46.4505 21.3619 46.5861 21.2244 46.6562 21.0519C46.7263 20.8795 46.725 20.6864 46.6528 20.5149C46.5806 20.3434 46.4432 20.2075 46.2709 20.1372C46.0986 20.0669 45.9054 20.0678 45.7338 20.1397L42.9761 21.3015C42.8267 21.3645 42.7037 21.4773 42.6279 21.6207C42.5521 21.764 42.5283 21.9292 42.5605 22.0881C42.5926 22.2471 42.6787 22.39 42.8042 22.4927C42.9298 22.5953 43.0869 22.6514 43.2491 22.6514ZM21.2657 13.6763C21.3371 13.8484 21.4739 13.9851 21.646 14.0564C21.8182 14.1276 22.0116 14.1275 22.1837 14.0562C22.3557 13.9848 22.4924 13.848 22.5637 13.6759C22.6349 13.5037 22.6348 13.3103 22.5635 13.1382L21.4255 10.3934C21.3542 10.2213 21.2174 10.0846 21.0452 10.0133C20.8731 9.9421 20.6797 9.94217 20.5076 10.0135C20.3355 10.0849 20.1988 10.2217 20.1276 10.3938C20.0564 10.566 20.0564 10.7594 20.1278 10.9315L21.2657 13.6763Z" fill="#1E83E6"/>
<path d="M16.0802 17.2981C16.1452 17.3638 16.2226 17.416 16.3079 17.4517C16.3931 17.4875 16.4846 17.506 16.577 17.5063C16.6695 17.5066 16.761 17.4886 16.8465 17.4534C16.932 17.4182 17.0097 17.3665 17.0751 17.3013C17.1406 17.236 17.1925 17.1584 17.2279 17.0731C17.2634 16.9877 17.2816 16.8961 17.2815 16.8037C17.2815 16.7113 17.2632 16.6197 17.2277 16.5344C17.1922 16.449 17.1403 16.3715 17.0748 16.3063L14.9693 14.1949C14.8376 14.0638 14.6594 13.9902 14.4735 13.9902C14.2877 13.9903 14.1095 14.064 13.9779 14.1953C13.8463 14.3265 13.7721 14.5045 13.7715 14.6903C13.7709 14.8762 13.844 15.0547 13.9748 15.1867L16.0802 17.2981Z" fill="#2D4356"/>
<path d="M9.9131 21.4353L12.6708 22.597C12.8425 22.6693 13.0359 22.6705 13.2084 22.6002C13.381 22.53 13.5185 22.394 13.5908 22.2224C13.6631 22.0507 13.6643 21.8573 13.594 21.6848C13.5238 21.5122 13.3878 21.3747 13.2162 21.3024L10.4584 20.1406C10.2868 20.0686 10.0936 20.0677 9.92133 20.138C9.74903 20.2084 9.61169 20.3442 9.53945 20.5157C9.46721 20.6872 9.46599 20.8804 9.53605 21.0528C9.60611 21.2252 9.74172 21.3627 9.91311 21.4353L9.9131 21.4353Z" fill="#1E83E6"/>
<path d="M18.9031 38.0382L19.1044 38.3307C20.3188 40.0912 21.5744 41.9114 21.8669 43.9232C21.96 44.6888 22.0114 45.4589 22.0209 46.2301C22.0159 46.4588 22.0564 46.6862 22.1401 46.8991C22.2239 47.1119 22.3491 47.306 22.5086 47.4699C22.6594 47.6202 22.8386 47.7389 23.0357 47.8192C23.2328 47.8995 23.444 47.9398 23.6568 47.9377H32.5206C32.8565 47.9394 33.185 47.8398 33.4633 47.6518C33.7416 47.4638 33.9568 47.1963 34.0806 46.8841H34.0657C33.5359 46.8836 33.0133 46.7622 32.5375 46.5293C32.5312 46.5297 32.5271 46.5329 32.5206 46.5329H28.7978V31.3389L30.0284 32.0417C30.1345 32.1022 30.2546 32.1341 30.3768 32.1341C30.499 32.1341 30.6191 32.1022 30.7253 32.0417L33.185 30.637C33.3466 30.5445 33.4648 30.3916 33.5138 30.2119C33.5627 30.0323 33.5383 29.8405 33.446 29.6788C33.3536 29.5172 33.2008 29.3988 33.0212 29.3497C32.8416 29.3006 32.6498 29.3248 32.4881 29.4171L30.3768 30.6229L28.2655 29.4171C28.1594 29.3566 28.0393 29.3248 27.9171 29.3248C27.7949 29.3248 27.6748 29.3567 27.5687 29.4172L25.4591 30.6227L23.352 29.4174C23.2719 29.3715 23.1836 29.3418 23.0921 29.3301C23.0005 29.3183 22.9076 29.3248 22.8185 29.349C22.7295 29.3731 22.6461 29.4147 22.5731 29.4711C22.5001 29.5276 22.4389 29.5978 22.3931 29.6779C22.3472 29.758 22.3176 29.8464 22.306 29.9379C22.2943 30.0295 22.3008 30.1224 22.3251 30.2114C22.3493 30.3005 22.3909 30.3838 22.4474 30.4568C22.5039 30.5298 22.5743 30.5909 22.6544 30.6366L25.1103 32.0414C25.2165 32.1021 25.3366 32.1341 25.4589 32.1342C25.5812 32.1342 25.7014 32.1023 25.8076 32.0416L27.3931 31.1354V46.533H23.6568C23.6291 46.5354 23.6012 46.5318 23.5749 46.5226C23.5487 46.5134 23.5247 46.4987 23.5046 46.4795C23.4481 46.4119 23.4198 46.3252 23.4257 46.2373C23.416 45.3967 23.3599 44.5573 23.2576 43.7229C22.9174 41.3841 21.5061 39.3382 20.2609 37.533L20.0602 37.2422C18.3286 34.7242 16.3662 31.8702 16.5144 28.2469C16.716 23.3477 19.6974 19.4117 24.4899 17.7185C25.7495 17.2672 27.0768 17.034 28.4147 17.029C30.5011 17.0304 32.544 17.6259 34.3044 18.7457C35.77 19.673 37.009 20.9173 37.9301 22.3869C38.8513 23.8564 39.431 25.5139 39.6267 27.2372C39.6388 27.3468 39.6462 27.4579 39.6545 27.5687H41.0638C41.0532 27.4067 41.0408 27.2449 41.0233 27.0849C40.8038 25.1513 40.1535 23.2916 39.1201 21.6426C38.0868 19.9936 36.6967 18.5973 35.0523 17.5567C33.4272 16.5272 31.5864 15.8867 29.6732 15.6851C27.76 15.4834 25.8261 15.726 24.0221 16.394C18.6682 18.2856 15.3367 22.695 15.111 28.1893C14.9433 32.2806 17.047 35.3395 18.9031 38.0382Z" fill="#2D4356"/>
<path d="M44.6018 30.837C44.6072 30.4418 44.4555 30.0607 44.1803 29.7771C43.905 29.4935 43.5285 29.3306 43.1333 29.3242H38.3442C37.949 29.3306 37.5725 29.4935 37.2972 29.7771C37.0219 30.0607 36.8703 30.4418 36.8757 30.837V32.1337H34.0661C33.5075 32.1344 32.9719 32.3565 32.5768 32.7516C32.1818 33.1466 31.9596 33.6822 31.959 34.2409V43.3718C31.9596 43.9305 32.1818 44.4661 32.5768 44.8611C32.9719 45.2562 33.5075 45.4784 34.0661 45.479H47.4114C47.97 45.4784 48.5056 45.2562 48.9007 44.8611C49.2957 44.4661 49.5179 43.9305 49.5185 43.3718V34.2409C49.5179 33.6822 49.2957 33.1466 48.9007 32.7516C48.5056 32.3565 47.97 32.1344 47.4114 32.1337H44.6018V30.837ZM38.2804 30.837C38.2804 30.767 38.3226 30.729 38.3442 30.729H43.1333C43.1549 30.729 43.1971 30.767 43.1971 30.837V32.1337H38.2804V30.837ZM48.1137 34.7313V43.3718C48.1135 43.5581 48.0395 43.7366 47.9078 43.8683C47.7761 43.9999 47.5976 44.074 47.4114 44.0742H34.0661C33.8799 44.074 33.7014 43.9999 33.5697 43.8683C33.438 43.7366 33.364 43.5581 33.3637 43.3718V34.6909C34.6967 36.0491 37.0698 37.9773 40.0364 38.3158V38.6892C40.0364 38.8755 40.1104 39.0542 40.2421 39.1859C40.3738 39.3176 40.5525 39.3916 40.7387 39.3916C40.925 39.3916 41.1037 39.3176 41.2354 39.1859C41.3671 39.0542 41.4411 38.8755 41.4411 38.6892V38.3519C43.7879 38.2005 46.0247 36.984 48.1137 34.7313ZM47.3036 33.5385C45.2517 35.8392 43.0841 36.9876 40.8598 36.9647C37.9139 36.929 35.4614 34.8439 34.2121 33.5385H47.3036Z" fill="#2D4356"/>
<path d="M36.1723 40.2109H35.47C35.2837 40.2109 35.105 40.2849 34.9733 40.4167C34.8416 40.5484 34.7676 40.727 34.7676 40.9133C34.7676 41.0996 34.8416 41.2783 34.9733 41.41C35.105 41.5417 35.2837 41.6157 35.47 41.6157H36.1723C36.3586 41.6157 36.5373 41.5417 36.669 41.41C36.8007 41.2783 36.8747 41.0996 36.8747 40.9133C36.8747 40.727 36.8007 40.5484 36.669 40.4167C36.5373 40.2849 36.3586 40.2109 36.1723 40.2109ZM45.3033 41.6157H46.0057C46.192 41.6157 46.3706 41.5417 46.5023 41.41C46.6341 41.2783 46.7081 41.0996 46.7081 40.9133C46.7081 40.727 46.6341 40.5484 46.5023 40.4167C46.3706 40.2849 46.192 40.2109 46.0057 40.2109H45.3033C45.117 40.2109 44.9384 40.2849 44.8066 40.4167C44.6749 40.5484 44.6009 40.727 44.6009 40.9133C44.6009 41.0996 44.6749 41.2783 44.8066 41.41C44.9384 41.5417 45.117 41.6157 45.3033 41.6157Z" fill="#1E83E6"/>
<path d="M52.9318 52.1514H6.06806C5.96813 52.1383 5.86658 52.1467 5.77016 52.176C5.67375 52.2054 5.58471 52.2549 5.50898 52.3214C5.43324 52.3879 5.37257 52.4698 5.331 52.5616C5.28943 52.6534 5.26793 52.753 5.26793 52.8537C5.26793 52.9545 5.28943 53.0541 5.331 53.1459C5.37257 53.2377 5.43324 53.3196 5.50898 53.3861C5.58471 53.4526 5.67375 53.5021 5.77016 53.5314C5.86658 53.5608 5.96813 53.5692 6.06806 53.5561H52.9318C53.0318 53.5692 53.1333 53.5608 53.2297 53.5314C53.3261 53.5021 53.4152 53.4526 53.4909 53.3861C53.5667 53.3196 53.6273 53.2377 53.6689 53.1459C53.7105 53.0541 53.732 52.9545 53.732 52.8537C53.732 52.753 53.7105 52.6534 53.6689 52.5616C53.6273 52.4698 53.5667 52.3879 53.4909 52.3214C53.4152 52.2549 53.3261 52.2054 53.2297 52.176C53.1333 52.1467 53.0318 52.1383 52.9318 52.1514ZM35.226 6.14541C35.4344 6.14541 35.6381 6.08362 35.8113 5.96786C35.9846 5.85209 36.1196 5.68754 36.1994 5.49503C36.2791 5.30251 36.3 5.09067 36.2593 4.8863C36.2187 4.68193 36.1183 4.4942 35.971 4.34686C35.8236 4.19951 35.6359 4.09917 35.4315 4.05852C35.2272 4.01786 35.0153 4.03873 34.8228 4.11847C34.6303 4.19821 34.4658 4.33325 34.35 4.50651C34.2342 4.67977 34.1724 4.88347 34.1724 5.09184C34.1728 5.37117 34.2839 5.63896 34.4814 5.83648C34.6789 6.03399 34.9467 6.14509 35.226 6.14541ZM35.226 4.56506C35.3302 4.56506 35.432 4.59595 35.5187 4.65384C35.6053 4.71172 35.6728 4.79399 35.7127 4.89025C35.7526 4.98651 35.763 5.09243 35.7427 5.19461C35.7223 5.2968 35.6722 5.39067 35.5985 5.46434C35.5248 5.53801 35.431 5.58818 35.3288 5.60851C35.2266 5.62883 35.1207 5.6184 35.0244 5.57853C34.9282 5.53866 34.8459 5.47114 34.788 5.38451C34.7301 5.29788 34.6992 5.19603 34.6992 5.09184C34.6994 4.95217 34.7549 4.81826 34.8537 4.7195C34.9524 4.62074 35.0863 4.5652 35.226 4.56506ZM52.7855 18.4371C52.6466 18.4371 52.5108 18.4783 52.3953 18.5555C52.2798 18.6326 52.1898 18.7423 52.1366 18.8707C52.0835 18.999 52.0695 19.1402 52.0966 19.2765C52.1237 19.4127 52.1906 19.5379 52.2889 19.6361C52.3871 19.7344 52.5123 19.8012 52.6485 19.8283C52.7848 19.8554 52.926 19.8415 53.0543 19.7884C53.1827 19.7352 53.2924 19.6452 53.3695 19.5297C53.4467 19.4142 53.4879 19.2784 53.4879 19.1395C53.4877 18.9532 53.4136 18.7747 53.282 18.643C53.1503 18.5114 52.9717 18.4373 52.7855 18.4371ZM52.7855 19.4907C52.7161 19.4907 52.6482 19.4701 52.5904 19.4315C52.5327 19.3929 52.4877 19.338 52.4611 19.2739C52.4345 19.2097 52.4275 19.1391 52.4411 19.0709C52.4546 19.0028 52.4881 18.9402 52.5372 18.8911C52.5863 18.842 52.6489 18.8086 52.717 18.795C52.7851 18.7815 52.8558 18.7884 52.9199 18.815C52.9841 18.8416 53.0389 18.8866 53.0775 18.9444C53.1161 19.0021 53.1367 19.07 53.1367 19.1395C53.1366 19.2326 53.0996 19.3218 53.0338 19.3877C52.9679 19.4535 52.8786 19.4906 52.7855 19.4907ZM2.2141 0.526367C2.07518 0.526367 1.93938 0.567561 1.82388 0.64474C1.70837 0.721918 1.61835 0.831615 1.56518 0.959959C1.51202 1.0883 1.49811 1.22953 1.52522 1.36578C1.55232 1.50202 1.61921 1.62718 1.71744 1.72541C1.81567 1.82364 1.94082 1.89053 2.07707 1.91763C2.21332 1.94473 2.35455 1.93083 2.48289 1.87766C2.61123 1.8245 2.72093 1.73448 2.79811 1.61897C2.87529 1.50346 2.91648 1.36767 2.91648 1.22875C2.91627 1.04253 2.8422 0.864001 2.71052 0.732325C2.57885 0.600649 2.40032 0.52658 2.2141 0.526367ZM2.2141 1.57994C2.14464 1.57994 2.07674 1.55934 2.01899 1.52075C1.96124 1.48216 1.91622 1.42731 1.88964 1.36314C1.86306 1.29897 1.85611 1.22836 1.86966 1.16023C1.88321 1.09211 1.91666 1.02953 1.96577 0.980419C2.01489 0.931304 2.07746 0.897856 2.14559 0.884306C2.21371 0.870755 2.28432 0.87771 2.34849 0.90429C2.41267 0.930871 2.46751 0.975884 2.5061 1.03364C2.54469 1.09139 2.56529 1.15929 2.56529 1.22875C2.5652 1.32186 2.52817 1.41113 2.46233 1.47697C2.39649 1.54282 2.30721 1.57985 2.2141 1.57994ZM48.9224 0.877558C48.7835 0.877558 48.6477 0.918752 48.5322 0.99593C48.4167 1.07311 48.3267 1.18281 48.2735 1.31115C48.2204 1.43949 48.2064 1.58072 48.2336 1.71697C48.2607 1.85321 48.3275 1.97837 48.4258 2.0766C48.524 2.17483 48.6492 2.24172 48.7854 2.26882C48.9217 2.29593 49.0629 2.28202 49.1912 2.22885C49.3196 2.17569 49.4293 2.08567 49.5064 1.97016C49.5836 1.85465 49.6248 1.71886 49.6248 1.57994C49.6246 1.39372 49.5505 1.21519 49.4189 1.08352C49.2872 0.95184 49.1087 0.877771 48.9224 0.877558ZM48.9224 1.93113C48.853 1.93113 48.7851 1.91053 48.7273 1.87194C48.6696 1.83335 48.6246 1.7785 48.598 1.71433C48.5714 1.65016 48.5644 1.57955 48.578 1.51142C48.5915 1.4433 48.625 1.38072 48.6741 1.33161C48.7232 1.28249 48.7858 1.24905 48.8539 1.2355C48.922 1.22195 48.9927 1.2289 49.0568 1.25548C49.121 1.28206 49.1759 1.32707 49.2144 1.38483C49.253 1.44258 49.2736 1.51048 49.2736 1.57994C49.2735 1.67305 49.2365 1.76232 49.1707 1.82817C49.1048 1.89401 49.0155 1.93104 48.9224 1.93113ZM11.6962 8.95494C11.6962 8.81602 11.655 8.68022 11.5779 8.56472C11.5007 8.44921 11.391 8.35918 11.2627 8.30602C11.1343 8.25286 10.9931 8.23895 10.8568 8.26605C10.7206 8.29316 10.5954 8.36005 10.4972 8.45828C10.399 8.55651 10.3321 8.68166 10.305 8.81791C10.2779 8.95416 10.2918 9.09539 10.3449 9.22373C10.3981 9.35207 10.4881 9.46177 10.6036 9.53895C10.7191 9.61613 10.8549 9.65732 10.9939 9.65732C11.1801 9.65711 11.3586 9.58304 11.4903 9.45136C11.622 9.31969 11.696 9.14116 11.6962 8.95494ZM10.6427 8.95494C10.6427 8.88548 10.6633 8.81758 10.7019 8.75983C10.7404 8.70208 10.7953 8.65706 10.8595 8.63048C10.9236 8.6039 10.9943 8.59695 11.0624 8.6105C11.1305 8.62405 11.1931 8.65749 11.2422 8.70661C11.2913 8.75572 11.3248 8.8183 11.3383 8.88642C11.3519 8.95455 11.3449 9.02516 11.3183 9.08933C11.2917 9.15351 11.2467 9.20835 11.189 9.24694C11.1312 9.28553 11.0633 9.30613 10.9939 9.30613C10.9007 9.30604 10.8115 9.26901 10.7456 9.20317C10.6798 9.13732 10.6428 9.04805 10.6427 8.95494Z" fill="#2D4356"/>
<path d="M3.82448 24.4115L4.3467 23.7249L4.01693 23.5381L3.68154 24.3072H3.67065L3.33 23.5434L2.99461 23.7358L3.51121 24.4062V24.4171L2.70312 24.3128V24.6865L3.51648 24.5822V24.5931L2.99461 25.2631L3.30752 25.4612L3.66504 24.6865H3.67592L4.00569 25.4556L4.35196 25.2579L3.82448 24.5983V24.5874L4.65399 24.6865V24.3128L3.82448 24.4224V24.4115Z" fill="#1E83E6"/>
<path d="M21.0993 2.30678L20.7987 2.69274L20.9792 2.80652L21.185 2.36051H21.191L21.381 2.80336L21.5805 2.68958L21.2767 2.30959V2.30327L21.7543 2.36051V2.14523L21.2767 2.20844V2.20212L21.5773 1.80668L21.3877 1.69922L21.1945 2.14207H21.1882L20.9919 1.70203L20.7987 1.813L21.0962 2.19896V2.20528L20.6309 2.14523V2.36051L21.0993 2.30046V2.30678Z" fill="#1E83E6"/>
<path d="M57.7027 10.9612V10.5949L56.889 10.7028V10.6919L57.401 10.0183L57.0776 9.83496L56.7489 10.5893H56.738L56.404 9.84023L56.0749 10.0292L56.5817 10.6866V10.6975L55.7891 10.5949V10.9612L56.587 10.859V10.8699L56.0749 11.5273L56.3822 11.7216L56.7327 10.9612H56.7432L57.0667 11.7159L57.4063 11.5221L56.889 10.8752V10.8643L57.7027 10.9612Z" fill="#1E83E6"/>
<path d="M45.9173 10.5654L46.3591 9.98421L46.0799 9.82617L45.7965 10.4769H45.787L45.4991 9.83074L45.2149 9.99369L45.6522 10.5609V10.57L44.9688 10.4818V10.7979L45.6567 10.7094V10.7189L45.2149 11.2861L45.4801 11.4536L45.7825 10.7979H45.7916L46.0708 11.4487L46.3637 11.2815L45.9173 10.7235V10.714L46.619 10.7979V10.4818L45.9173 10.5746V10.5654Z" fill="#1E83E6"/>
</g>
<defs>
<clipPath id="clip0_365_1056">
<rect width="59" height="59" fill="white"/>
</clipPath>
</defs>
</svg>
