<svg width="66" height="64" viewBox="0 0 66 64" fill="none" xmlns="http://www.w3.org/2000/svg">
<mask id="mask0_365_1176" style="mask-type:alpha" maskUnits="userSpaceOnUse" x="0" y="10" width="66" height="47">
<rect y="10.2783" width="66" height="46.0465" fill="#C4C4C4"/>
</mask>
<g mask="url(#mask0_365_1176)">
<path d="M19.1046 28.4112C19.1757 28.483 19.2602 28.54 19.3533 28.579C19.4465 28.618 19.5464 28.6383 19.6474 28.6386C19.7484 28.6389 19.8485 28.6193 19.9419 28.5809C20.0353 28.5424 20.1202 28.4859 20.1917 28.4146C20.2632 28.3433 20.32 28.2585 20.3586 28.1653C20.3973 28.072 20.4172 27.972 20.4172 27.871C20.4172 27.77 20.3972 27.67 20.3584 27.5767C20.3197 27.4834 20.2629 27.3987 20.1913 27.3275L17.8908 25.0205C17.747 24.8772 17.5521 24.7968 17.3491 24.7969C17.146 24.797 16.9513 24.8775 16.8075 25.0209C16.6638 25.1643 16.5827 25.3588 16.582 25.5618C16.5814 25.7649 16.6613 25.9599 16.8041 26.1042L19.1046 28.4112Z" fill="#2D4356"/>
<path d="M12.3669 32.9313L15.3801 34.2007C15.5676 34.2797 15.7789 34.281 15.9675 34.2042C16.156 34.1274 16.3063 33.9789 16.3853 33.7913C16.4643 33.6038 16.4655 33.3925 16.3888 33.204C16.312 33.0154 16.1635 32.8651 15.9759 32.7861L12.9627 31.5167C12.7752 31.4381 12.5641 31.4371 12.3759 31.5139C12.1876 31.5908 12.0375 31.7392 11.9586 31.9266C11.8797 32.114 11.8783 32.3251 11.9549 32.5134C12.0314 32.7018 12.1796 32.8521 12.3669 32.9313L12.3669 32.9313Z" fill="#1E83E6"/>
<path d="M59.3706 66.6853H8.16589C8.05671 66.671 7.94574 66.6802 7.8404 66.7123C7.73506 66.7443 7.63777 66.7985 7.55502 66.8711C7.47227 66.9437 7.40598 67.0332 7.36056 67.1335C7.31514 67.2338 7.29165 67.3426 7.29165 67.4527C7.29165 67.5628 7.31514 67.6717 7.36056 67.772C7.40598 67.8723 7.47227 67.9618 7.55502 68.0344C7.63777 68.107 7.73506 68.1612 7.8404 68.1932C7.94574 68.2253 8.05671 68.2344 8.16589 68.2202H59.3706C59.4798 68.2344 59.5908 68.2253 59.6961 68.1932C59.8015 68.1612 59.8987 68.107 59.9815 68.0344C60.0642 67.9618 60.1305 67.8723 60.176 67.772C60.2214 67.6717 60.2449 67.5628 60.2449 67.4527C60.2449 67.3426 60.2214 67.2338 60.176 67.1335C60.1305 67.0332 60.0642 66.9437 59.9815 66.8711C59.8987 66.7985 59.8015 66.7443 59.6961 66.7123C59.5908 66.6802 59.4798 66.671 59.3706 66.6853ZM40.0247 16.4179C40.2524 16.4179 40.475 16.3503 40.6643 16.2238C40.8536 16.0974 41.0011 15.9176 41.0882 15.7072C41.1754 15.4969 41.1982 15.2654 41.1538 15.0421C41.1093 14.8188 40.9997 14.6137 40.8387 14.4527C40.6777 14.2917 40.4726 14.1821 40.2493 14.1376C40.026 14.0932 39.7945 14.116 39.5842 14.2032C39.3738 14.2903 39.194 14.4378 39.0676 14.6271C38.9411 14.8164 38.8736 15.039 38.8736 15.2667C38.8739 15.5719 38.9953 15.8645 39.2111 16.0803C39.4269 16.2961 39.7195 16.4175 40.0247 16.4179ZM40.0247 14.6911C40.1386 14.6911 40.2498 14.7249 40.3445 14.7881C40.4391 14.8514 40.5129 14.9413 40.5565 15.0464C40.6 15.1516 40.6114 15.2673 40.5892 15.379C40.567 15.4906 40.5122 15.5932 40.4317 15.6737C40.3512 15.7542 40.2487 15.809 40.137 15.8312C40.0253 15.8534 39.9096 15.842 39.8044 15.7985C39.6993 15.7549 39.6094 15.6811 39.5461 15.5865C39.4829 15.4918 39.4491 15.3805 39.4491 15.2667C39.4493 15.1141 39.51 14.9678 39.6179 14.8599C39.7258 14.752 39.8721 14.6913 40.0247 14.6911ZM59.2108 29.8481C59.059 29.8481 58.9106 29.8931 58.7844 29.9774C58.6582 30.0618 58.5598 30.1816 58.5017 30.3218C58.4437 30.4621 58.4285 30.6164 58.4581 30.7653C58.4877 30.9141 58.5608 31.0509 58.6681 31.1582C58.7754 31.2655 58.9122 31.3386 59.061 31.3682C59.2099 31.3978 59.3642 31.3826 59.5045 31.3246C59.6447 31.2665 59.7645 31.1681 59.8489 31.0419C59.9332 30.9157 59.9782 30.7673 59.9782 30.6155C59.978 30.4121 59.897 30.217 59.7532 30.0731C59.6093 29.9293 59.4142 29.8483 59.2108 29.8481ZM59.2108 30.9993C59.1349 30.9993 59.0607 30.9767 58.9976 30.9346C58.9345 30.8924 58.8853 30.8325 58.8563 30.7624C58.8272 30.6923 58.8196 30.6151 58.8344 30.5407C58.8492 30.4662 58.8858 30.3979 58.9394 30.3442C58.9931 30.2905 59.0615 30.254 59.1359 30.2392C59.2103 30.2244 59.2875 30.232 59.3576 30.261C59.4277 30.2901 59.4877 30.3392 59.5298 30.4023C59.572 30.4654 59.5945 30.5396 59.5945 30.6155C59.5944 30.7173 59.5539 30.8148 59.482 30.8867C59.41 30.9587 59.3125 30.9991 59.2108 30.9993ZM3.95494 10.2783C3.80316 10.2783 3.65478 10.3233 3.52857 10.4077C3.40237 10.492 3.304 10.6118 3.24592 10.7521C3.18783 10.8923 3.17263 11.0466 3.20225 11.1955C3.23186 11.3444 3.30495 11.4811 3.41228 11.5884C3.51961 11.6958 3.65635 11.7688 3.80522 11.7985C3.95409 11.8281 4.1084 11.8129 4.24863 11.7548C4.38886 11.6967 4.50872 11.5983 4.59305 11.4721C4.67737 11.3459 4.72238 11.1975 4.72238 11.0458C4.72215 10.8423 4.64122 10.6472 4.49735 10.5034C4.35348 10.3595 4.15841 10.2786 3.95494 10.2783ZM3.95494 11.4295C3.87905 11.4295 3.80486 11.407 3.74176 11.3648C3.67866 11.3227 3.62947 11.2627 3.60043 11.1926C3.57139 11.1225 3.56379 11.0453 3.57859 10.9709C3.5934 10.8965 3.62995 10.8281 3.68361 10.7744C3.73727 10.7208 3.80565 10.6842 3.88008 10.6694C3.95452 10.6546 4.03167 10.6622 4.10179 10.6913C4.1719 10.7203 4.23183 10.7695 4.27399 10.8326C4.31616 10.8957 4.33866 10.9699 4.33866 11.0458C4.33856 11.1475 4.2981 11.245 4.22616 11.317C4.15422 11.3889 4.05668 11.4294 3.95494 11.4295ZM54.9898 10.662C54.838 10.662 54.6897 10.7071 54.5635 10.7914C54.4373 10.8757 54.3389 10.9956 54.2808 11.1358C54.2227 11.276 54.2075 11.4303 54.2371 11.5792C54.2668 11.7281 54.3398 11.8648 54.4472 11.9721C54.5545 12.0795 54.6912 12.1526 54.8401 12.1822C54.989 12.2118 55.1433 12.1966 55.2835 12.1385C55.4238 12.0804 55.5436 11.9821 55.6279 11.8559C55.7123 11.7296 55.7573 11.5813 55.7573 11.4295C55.757 11.226 55.6761 11.0309 55.5322 10.8871C55.3884 10.7432 55.1933 10.6623 54.9898 10.662ZM54.9898 11.8132C54.9139 11.8132 54.8398 11.7907 54.7766 11.7485C54.7135 11.7064 54.6644 11.6464 54.6353 11.5763C54.6063 11.5062 54.5987 11.4291 54.6135 11.3546C54.6283 11.2802 54.6648 11.2118 54.7185 11.1582C54.7722 11.1045 54.8405 11.0679 54.915 11.0531C54.9894 11.0383 55.0666 11.0459 55.1367 11.075C55.2068 11.104 55.2667 11.1532 55.3089 11.2163C55.3511 11.2794 55.3736 11.3536 55.3736 11.4295C55.3735 11.5312 55.333 11.6288 55.2611 11.7007C55.1891 11.7726 55.0916 11.8131 54.9898 11.8132ZM14.3154 19.4876C14.3154 19.3358 14.2704 19.1875 14.1861 19.0613C14.1017 18.935 13.9819 18.8367 13.8417 18.7786C13.7014 18.7205 13.5471 18.7053 13.3982 18.7349C13.2494 18.7645 13.1126 18.8376 13.0053 18.945C12.898 19.0523 12.8249 19.189 12.7953 19.3379C12.7657 19.4868 12.7809 19.6411 12.8389 19.7813C12.897 19.9215 12.9954 20.0414 13.1216 20.1257C13.2478 20.2101 13.3962 20.2551 13.548 20.2551C13.7514 20.2548 13.9465 20.1739 14.0904 20.03C14.2342 19.8862 14.3152 19.6911 14.3154 19.4876ZM13.1642 19.4876C13.1642 19.4117 13.1868 19.3375 13.2289 19.2744C13.2711 19.2113 13.331 19.1622 13.4011 19.1331C13.4712 19.1041 13.5484 19.0965 13.6228 19.1113C13.6973 19.1261 13.7656 19.1626 13.8193 19.2163C13.873 19.27 13.9095 19.3383 13.9243 19.4128C13.9391 19.4872 13.9315 19.5644 13.9025 19.6345C13.8734 19.7046 13.8243 19.7645 13.7612 19.8067C13.698 19.8488 13.6239 19.8713 13.548 19.8713C13.4462 19.8712 13.3487 19.8308 13.2767 19.7588C13.2048 19.6869 13.1643 19.5894 13.1642 19.4876Z" fill="#2D4356"/>
</g>
<g clip-path="url(#clip0_365_1176)">
<path d="M3.06104 55.2793C3.47984 55.2793 3.81935 54.9398 3.81935 54.521C3.81935 54.1022 3.47984 53.7627 3.06104 53.7627C2.64224 53.7627 2.30273 54.1022 2.30273 54.521C2.30273 54.9398 2.64224 55.2793 3.06104 55.2793Z" fill="#2D4356"/>
<path d="M6.47389 53.7627H5.33643C5.13532 53.7627 4.94244 53.8426 4.80023 53.9848C4.65802 54.127 4.57813 54.3199 4.57812 54.521C4.57812 54.7221 4.65802 54.915 4.80023 55.0572C4.94244 55.1994 5.13532 55.2793 5.33643 55.2793H6.47389C6.675 55.2793 6.86788 55.1994 7.01009 55.0572C7.1523 54.915 7.23219 54.7221 7.23219 54.521C7.23219 54.3199 7.1523 54.127 7.01009 53.9848C6.86788 53.8426 6.675 53.7627 6.47389 53.7627ZM62.9677 53.7627H61.8302C61.6291 53.7627 61.4362 53.8426 61.294 53.9848C61.1518 54.127 61.0719 54.3199 61.0719 54.521C61.0719 54.7221 61.1518 54.915 61.294 55.0572C61.4362 55.1994 61.6291 55.2793 61.8302 55.2793H62.9677C63.1688 55.2793 63.3617 55.1994 63.5039 55.0572C63.6461 54.915 63.726 54.7221 63.726 54.521C63.726 54.3199 63.6461 54.127 63.5039 53.9848C63.3617 53.8426 63.1688 53.7627 62.9677 53.7627Z" fill="#2D4356"/>
<path d="M65.2427 55.2793C65.6615 55.2793 66.001 54.9398 66.001 54.521C66.001 54.1022 65.6615 53.7627 65.2427 53.7627C64.8239 53.7627 64.4844 54.1022 64.4844 54.521C64.4844 54.9398 64.8239 55.2793 65.2427 55.2793Z" fill="#2D4356"/>
<path d="M47.101 56.7959H43.9511C43.7605 56.8112 43.5826 56.8977 43.4529 57.0382C43.3232 57.1787 43.2511 57.363 43.2511 57.5542C43.2511 57.7454 43.3232 57.9297 43.4529 58.0702C43.5826 58.2107 43.7605 58.2972 43.9511 58.3125H47.101C47.2916 58.2972 47.4695 58.2107 47.5992 58.0702C47.7289 57.9297 47.801 57.7454 47.801 57.5542C47.801 57.363 47.7289 57.1787 47.5992 57.0382C47.4695 56.8977 47.2916 56.8112 47.101 56.7959ZM24.3518 56.7959H21.2019C21.0113 56.8112 20.8334 56.8977 20.7037 57.0382C20.574 57.1787 20.502 57.363 20.502 57.5542C20.502 57.7454 20.574 57.9297 20.7037 58.0702C20.8334 58.2107 21.0113 58.2972 21.2019 58.3125H24.3518C24.5425 58.2972 24.7203 58.2107 24.8501 58.0702C24.9798 57.9297 25.0518 57.7454 25.0518 57.5542C25.0518 57.363 24.9798 57.1787 24.8501 57.0382C24.7203 56.8977 24.5425 56.8112 24.3518 56.7959ZM41.7345 56.7959H26.5684C26.3673 56.7959 26.1744 56.8758 26.0322 57.018C25.89 57.1602 25.8101 57.3531 25.8101 57.5542C25.8101 57.7553 25.89 57.9482 26.0322 58.0904C26.1744 58.2326 26.3673 58.3125 26.5684 58.3125H32.6121V59.0708H29.6016C29.4005 59.0708 29.2076 59.1507 29.0654 59.2929C28.9232 59.4351 28.8433 59.628 28.8433 59.8291C28.8433 60.0302 28.9232 60.2231 29.0654 60.3653C29.2076 60.5075 29.4005 60.5874 29.6016 60.5874H39.0805C39.2816 60.5874 39.4744 60.5075 39.6167 60.3653C39.7589 60.2231 39.8388 60.0302 39.8388 59.8291C39.8388 59.628 39.7589 59.4351 39.6167 59.2929C39.4744 59.1507 39.2816 59.0708 39.0805 59.0708H35.6908V58.3125H41.7345C41.9356 58.3125 42.1285 58.2326 42.2707 58.0904C42.4129 57.9482 42.4928 57.7553 42.4928 57.5542C42.4928 57.3531 42.4129 57.1602 42.2707 57.018C42.1285 56.8758 41.9356 56.7959 41.7345 56.7959Z" fill="#1E83E6"/>
<path d="M6.42938 29.1217L6.99318 28.3804L6.63716 28.1787L6.27507 29.0091H6.26332L5.89554 28.1844L5.53345 28.3922L6.09118 29.116V29.1277L5.21875 29.0151V29.4185L6.09687 29.3059V29.3177L5.53345 30.0411L5.87127 30.2549L6.25725 29.4185H6.269L6.62503 30.2489L6.99887 30.0354L6.42938 29.3234V29.3116L7.32494 29.4185V29.0151L6.42938 29.1334V29.1217Z" fill="#1E83E6"/>
<path d="M22.0507 15.8727L21.7262 16.2894L21.921 16.4123L22.1432 15.9307H22.1497L22.3548 16.4089L22.5701 16.286L22.2422 15.8758V15.8689L22.7578 15.9307V15.6983L22.2422 15.7666V15.7597L22.5667 15.3328L22.362 15.2168L22.1535 15.6949H22.1466L21.9347 15.2198L21.7262 15.3396L22.0473 15.7563V15.7632L21.5449 15.6983V15.9307L22.0507 15.8659V15.8727Z" fill="#1E83E6"/>
<path d="M61.1871 21.046V20.6506L60.3086 20.767V20.7552L60.8614 20.028L60.5122 19.8301L60.1573 20.6445H60.1456L59.785 19.8358L59.4297 20.0397L59.9768 20.7495V20.7613L59.1211 20.6506V21.046L59.9825 20.9357V20.9474L59.4297 21.6572L59.7615 21.8669L60.1399 21.046H60.1513L60.5005 21.8608L60.8671 21.6515L60.3086 20.9531V20.9414L61.1871 21.046Z" fill="#1E83E6"/>
<path d="M46.5671 10.3821L47.044 9.7546L46.7426 9.58398L46.4366 10.2866H46.4264L46.1155 9.58891L45.8088 9.76484L46.2808 10.3772V10.387L45.543 10.2919V10.6331L46.2857 10.5376V10.5478L45.8088 11.1601L46.095 11.341L46.4215 10.6331H46.4313L46.7327 11.3357L47.049 11.1552L46.5671 10.5527V10.5425L47.3246 10.6331V10.2919L46.5671 10.392V10.3821Z" fill="#1E83E6"/>
<path d="M23.5466 54.9572H23.5464C18.516 54.9572 14.434 50.8323 14.434 45.7699C14.4341 40.7089 18.5139 36.5848 23.5423 36.5825M23.5466 54.9572L23.5435 36.5825C23.5431 36.5825 23.5427 36.5825 23.5423 36.5825M23.5466 54.9572C27.2153 54.952 30.453 52.6948 31.8706 49.3323M23.5466 54.9572L31.8706 49.3323M23.5423 36.5825C23.5499 36.5824 23.5575 36.5824 23.5651 36.5825L23.567 36.5825V36.5826C23.6616 36.5853 23.7557 36.5913 23.8466 36.5971C23.8504 36.5974 23.8542 36.5976 23.8581 36.5979C23.9082 36.5876 23.9592 36.5824 24.0104 36.5825M23.5423 36.5825L43.9792 36.5825M43.9792 36.5825L43.9799 36.5825L43.9907 36.5825V36.5825C49.021 36.5825 53.103 40.7075 53.1031 45.7699C53.1031 50.8322 49.0213 54.957 43.9911 54.9572C43.991 54.9572 43.9908 54.9572 43.9907 54.9572H43.9881L43.9792 36.5825ZM43.9792 36.5825C43.8861 36.5837 43.7934 36.5887 43.7038 36.5934C43.689 36.5942 43.6743 36.595 43.6597 36.5958M24.0104 36.5825C24.0104 36.5825 24.0105 36.5825 24.0106 36.5825L24.0103 36.7325V36.5825H24.0104ZM24.0104 36.5825H43.5241H43.5254V36.5825C43.5705 36.5829 43.6154 36.5873 43.6597 36.5958M43.6597 36.5958C43.6533 36.5961 43.647 36.5964 43.6407 36.5968L43.6483 36.7466L43.6806 36.6001C43.6737 36.5985 43.6667 36.5971 43.6597 36.5958ZM31.8706 49.3323H35.6664C37.084 52.6946 40.3194 54.952 43.9879 54.9572L31.8706 49.3323ZM23.9494 38.1078L23.9485 38.1077C23.8126 38.0962 23.6779 38.0867 23.5441 38.0825H23.5418C19.336 38.085 15.9341 41.5151 15.934 45.7699C15.934 50.0262 19.3384 53.4571 23.5462 53.4572C26.7679 53.4527 29.636 51.4047 30.7125 48.3335L30.7126 48.3333C30.7642 48.1866 30.8602 48.0596 30.9872 47.9698C31.1142 47.8801 31.266 47.832 31.4215 47.8323M23.9494 38.1078L31.4212 47.9823M23.9494 38.1078C24.0372 38.1147 24.1255 38.1061 24.2102 38.0825H43.3581C43.4302 38.0995 43.5044 38.1057 43.5783 38.1009L43.5791 38.1009C43.7187 38.0912 43.8578 38.0844 43.9963 38.0825C48.2026 38.0844 51.6053 41.5147 51.6053 45.7699C51.6053 50.0262 48.201 53.4571 43.9931 53.4572C40.7714 53.4527 37.9033 51.4047 36.8268 48.3335L36.8267 48.3333C36.775 48.1866 36.6791 48.0596 36.5521 47.9698C36.425 47.8801 36.2733 47.832 36.1177 47.8323M23.9494 38.1078L36.118 47.9823M31.4215 47.8323L31.4212 47.9823M31.4215 47.8323H31.4212V47.9823M31.4215 47.8323H36.1177M31.4212 47.9823H36.118M36.1177 47.8323L36.118 47.9823M36.1177 47.8323H36.118V47.9823" fill="#2D4356" stroke="#2D4356" stroke-width="0.3"/>
<path fill-rule="evenodd" clip-rule="evenodd" d="M23.073 41.4102C22.9139 41.4127 22.7623 41.4784 22.6515 41.5926C22.5408 41.7069 22.48 41.8605 22.4825 42.0196V49.5195C22.4814 49.599 22.4961 49.6779 22.5257 49.7517C22.5554 49.8255 22.5994 49.8926 22.6552 49.9493C22.711 50.0059 22.7775 50.0508 22.8509 50.0815C22.9243 50.1122 23.003 50.128 23.0825 50.128C23.162 50.128 23.2407 50.1122 23.3141 50.0815C23.3874 50.0508 23.454 50.0059 23.5098 49.9493C23.5656 49.8926 23.6096 49.8255 23.6393 49.7517C23.6689 49.6779 23.6836 49.599 23.6825 49.5195V42.0196C23.6837 41.9392 23.6688 41.8594 23.6386 41.7849C23.6084 41.7104 23.5636 41.6427 23.5068 41.5859C23.4499 41.529 23.3822 41.4842 23.3077 41.454C23.2332 41.4238 23.1533 41.409 23.073 41.4102Z" fill="#1E83E6"/>
<path fill-rule="evenodd" clip-rule="evenodd" d="M19.3664 45.169C19.2869 45.1679 19.2079 45.1826 19.1341 45.2122C19.0603 45.2419 18.9932 45.2859 18.9366 45.3417C18.88 45.3975 18.835 45.4641 18.8043 45.5374C18.7736 45.6108 18.7578 45.6895 18.7578 45.769C18.7578 45.8485 18.7736 45.9272 18.8043 46.0006C18.835 46.0739 18.88 46.1405 18.9366 46.1963C18.9932 46.2521 19.0603 46.2961 19.1341 46.3258C19.2079 46.3554 19.2869 46.3701 19.3664 46.369H26.8006C26.8801 46.3701 26.9591 46.3554 27.0329 46.3258C27.1067 46.2961 27.1738 46.2521 27.2304 46.1963C27.287 46.1405 27.332 46.0739 27.3627 46.0006C27.3934 45.9272 27.4092 45.8485 27.4092 45.769C27.4092 45.6895 27.3934 45.6108 27.3627 45.5374C27.332 45.4641 27.287 45.3975 27.2304 45.3417C27.1738 45.2859 27.1067 45.2419 27.0329 45.2122C26.9591 45.1826 26.8801 45.1679 26.8006 45.169H19.3664Z" fill="#1E83E6"/>
<path d="M44.037 39.915C42.8856 39.915 41.9417 40.867 41.9417 42.0197C41.9417 43.1724 42.8856 44.1244 44.037 44.1244C45.1884 44.1243 46.13 43.1724 46.13 42.0197C46.13 40.867 45.1884 39.915 44.037 39.915ZM44.037 41.115C44.5351 41.115 44.93 41.5107 44.93 42.0197C44.93 42.5287 44.5351 42.9244 44.037 42.9244C43.5389 42.9244 43.1417 42.5287 43.1417 42.0197C43.1417 41.5107 43.5389 41.115 44.037 41.115ZM47.7542 43.665C46.6027 43.665 45.6589 44.6169 45.6589 45.7696C45.6589 46.9224 46.6027 47.8743 47.7542 47.8743C48.9056 47.8743 49.8471 46.9224 49.8471 45.7696C49.8471 44.6169 48.9056 43.665 47.7542 43.665ZM47.7542 44.865C48.2522 44.865 48.6471 45.2606 48.6471 45.7696C48.6471 46.2786 48.2522 46.6743 47.7542 46.6743C47.2561 46.6743 46.8589 46.2786 46.8589 45.7696C46.8589 45.2606 47.2561 44.865 47.7542 44.865ZM44.037 47.4149C42.8856 47.4149 41.9417 48.3668 41.9417 49.5196C41.9417 50.6723 42.8856 51.6242 44.037 51.6242C45.1884 51.6242 46.13 50.6723 46.13 49.5196C46.13 48.3668 45.1884 47.4149 44.037 47.4149ZM44.037 48.6149C44.5351 48.6149 44.93 49.0106 44.93 49.5196C44.93 50.0286 44.5351 50.4243 44.037 50.4243C43.5389 50.4243 43.1417 50.0286 43.1417 49.5196C43.1417 49.0106 43.5389 48.6149 44.037 48.6149ZM40.3199 43.665C39.1685 43.665 38.2246 44.6169 38.2246 45.7696C38.2246 46.9224 39.1685 47.8743 40.3199 47.8743C41.4713 47.8743 42.4128 46.9224 42.4128 45.7696C42.4128 44.6169 41.4713 43.665 40.3199 43.665ZM40.3199 44.865C40.818 44.865 41.2129 45.2606 41.2128 45.7696C41.2129 46.2786 40.818 46.6743 40.3199 46.6743C39.8218 46.6743 39.4246 46.2786 39.4246 45.7696C39.4246 45.2606 39.8218 44.865 40.3199 44.865Z" fill="#1E83E6"/>
<path fill-rule="evenodd" clip-rule="evenodd" d="M33.762 24.8009C33.6832 24.8021 33.6055 24.8188 33.5332 24.8501C33.4608 24.8814 33.3954 24.9266 33.3405 24.9832C33.2857 25.0398 33.2426 25.1066 33.2135 25.1799C33.1845 25.2532 33.1702 25.3314 33.1714 25.4102V27.7938C33.1714 27.9529 33.2347 28.1055 33.3472 28.218C33.4597 28.3305 33.6123 28.3938 33.7714 28.3938H36.162C36.6093 28.3938 36.8686 28.5401 37.0573 28.7524C37.246 28.9646 37.3526 29.2721 37.3526 29.5867C37.3526 29.9014 37.2461 30.2065 37.0573 30.4187C36.8686 30.631 36.6093 30.7773 36.162 30.7773H31.3832C30.6358 30.7773 29.9989 31.0793 29.5902 31.539C29.1816 31.9987 28.9902 32.5889 28.9902 33.1703C28.9902 33.7516 29.1816 34.3418 29.5902 34.8015C29.9989 35.2612 30.6358 35.5608 31.3832 35.5608H33.1714V37.3421C33.1703 37.4216 33.185 37.5005 33.2146 37.5743C33.2443 37.6481 33.2883 37.7152 33.3441 37.7718C33.4 37.8285 33.4665 37.8734 33.5398 37.9041C33.6132 37.9348 33.6919 37.9506 33.7714 37.9506C33.8509 37.9506 33.9296 37.9348 34.003 37.9041C34.0764 37.8734 34.1429 37.8285 34.1987 37.7718C34.2545 37.7152 34.2985 37.6481 34.3282 37.5743C34.3578 37.5005 34.3725 37.4216 34.3714 37.3421V34.9609C34.3714 34.8017 34.3081 34.6491 34.1956 34.5366C34.0831 34.4241 33.9305 34.3609 33.7714 34.3609H31.3832C30.9358 34.3609 30.6742 34.2146 30.4855 34.0023C30.2968 33.79 30.1902 33.4849 30.1902 33.1703C30.1902 32.8556 30.2968 32.5482 30.4855 32.3359C30.6742 32.1236 30.9358 31.9773 31.3832 31.9773H36.162C36.9093 31.9773 37.544 31.6753 37.9526 31.2156C38.3612 30.7559 38.5526 30.168 38.5526 29.5867C38.5526 29.0054 38.3612 28.4152 37.9526 27.9555C37.544 27.4958 36.9093 27.1938 36.162 27.1938H34.3714V25.4102C34.3727 25.3299 34.3578 25.25 34.3276 25.1755C34.2974 25.101 34.2525 25.0334 34.1957 24.9765C34.1389 24.9197 34.0712 24.8749 33.9967 24.8447C33.9222 24.8145 33.8424 24.7996 33.762 24.8009Z" fill="#2D4356"/>
<path fill-rule="evenodd" clip-rule="evenodd" d="M31.3742 43.3458C31.2947 43.3446 31.2157 43.3593 31.1419 43.389C31.0682 43.4186 31.001 43.4626 30.9444 43.5185C30.8878 43.5743 30.8428 43.6408 30.8121 43.7142C30.7814 43.7875 30.7656 43.8662 30.7656 43.9458C30.7656 44.0253 30.7814 44.104 30.8121 44.1773C30.8428 44.2507 30.8878 44.3172 30.9444 44.373C31.001 44.4289 31.0682 44.4729 31.1419 44.5025C31.2157 44.5322 31.2947 44.5469 31.3742 44.5457H32.5718C32.6513 44.5469 32.7303 44.5322 32.8041 44.5025C32.8778 44.4729 32.945 44.4289 33.0016 44.373C33.0582 44.3172 33.1032 44.2507 33.1339 44.1773C33.1646 44.104 33.1804 44.0253 33.1804 43.9458C33.1804 43.8662 33.1646 43.7875 33.1339 43.7142C33.1032 43.6408 33.0582 43.5743 33.0016 43.5185C32.945 43.4626 32.8778 43.4186 32.8041 43.389C32.7303 43.3593 32.6513 43.3446 32.5718 43.3458H31.3742ZM34.9718 43.3458C34.8923 43.3446 34.8133 43.3593 34.7395 43.389C34.6658 43.4186 34.5986 43.4626 34.542 43.5185C34.4854 43.5743 34.4404 43.6408 34.4097 43.7142C34.379 43.7875 34.3632 43.8662 34.3632 43.9458C34.3632 44.0253 34.379 44.104 34.4097 44.1773C34.4404 44.2507 34.4854 44.3172 34.542 44.373C34.5986 44.4289 34.6658 44.4729 34.7395 44.5025C34.8133 44.5322 34.8923 44.5469 34.9718 44.5457H36.1694C36.2489 44.5469 36.3279 44.5322 36.4017 44.5025C36.4754 44.4729 36.5426 44.4289 36.5992 44.373C36.6558 44.3172 36.7008 44.2507 36.7315 44.1773C36.7622 44.104 36.778 44.0253 36.778 43.9458C36.778 43.8662 36.7622 43.7875 36.7315 43.7142C36.7008 43.6408 36.6558 43.5743 36.5992 43.5185C36.5426 43.4626 36.4754 43.4186 36.4017 43.389C36.3279 43.3593 36.2489 43.3446 36.1694 43.3458H34.9718Z" fill="#1E83E6"/>
<path d="M33.7702 16.4072C31.1281 16.4072 28.9727 18.5603 28.9727 21.2025C28.9727 23.8446 31.1281 26 33.7702 26C36.4124 26 38.5678 23.8446 38.5678 21.2025C38.5678 18.5603 36.4124 16.4072 33.7702 16.4072ZM33.7702 17.6072C35.7639 17.6072 37.3678 19.2089 37.3678 21.2025C37.3678 23.1961 35.7639 24.8001 33.7702 24.8001C31.7766 24.8001 30.1726 23.1961 30.1726 21.2025C30.1726 19.2089 31.7766 17.6072 33.7702 17.6072Z" fill="#1E83E6"/>
<path fill-rule="evenodd" clip-rule="evenodd" d="M35.1441 19.3672L33.1707 21.3406L32.3973 20.5672L31.5488 21.4156L33.1707 23.0374L35.9949 20.2156L35.1441 19.3672Z" fill="#1E83E6"/>
</g>
<defs>
<clipPath id="clip0_365_1176">
<rect width="63.6977" height="63.6977" fill="white" transform="translate(2.30273 0.301758)"/>
</clipPath>
</defs>
</svg>
