<svg width="70" height="62" viewBox="0 0 70 62" fill="none" xmlns="http://www.w3.org/2000/svg">
<path d="M50.349 2.49663C50.5959 2.49663 50.8373 2.42342 51.0426 2.28625C51.2479 2.14908 51.4079 1.95412 51.5023 1.72602C51.5968 1.49793 51.6215 1.24693 51.5734 1.00478C51.5252 0.762632 51.4063 0.540203 51.2317 0.365623C51.0572 0.191043 50.8347 0.0721531 50.5926 0.0239866C50.3504 -0.0241799 50.0994 0.000540877 49.8713 0.0950229C49.6432 0.189505 49.4483 0.349505 49.3111 0.554789C49.1739 0.760073 49.1007 1.00142 49.1007 1.24832C49.1011 1.57927 49.2327 1.89657 49.4668 2.13059C49.7008 2.36461 50.0181 2.49625 50.349 2.49663ZM50.349 0.624158C50.4725 0.624158 50.5932 0.660764 50.6958 0.729347C50.7985 0.797931 50.8785 0.895411 50.9257 1.00946C50.9729 1.12351 50.9853 1.24901 50.9612 1.37008C50.9371 1.49116 50.8777 1.60237 50.7904 1.68966C50.7031 1.77695 50.5919 1.8364 50.4708 1.86048C50.3497 1.88456 50.2242 1.8722 50.1102 1.82496C49.9961 1.77772 49.8987 1.69772 49.8301 1.59508C49.7615 1.49244 49.7249 1.37176 49.7249 1.24832C49.7251 1.08283 49.7909 0.924167 49.9079 0.80715C50.0249 0.690133 50.1836 0.624321 50.349 0.624158ZM19.1412 14.5637C18.9766 14.5637 18.8157 14.6125 18.6788 14.7039C18.542 14.7954 18.4353 14.9253 18.3723 15.0774C18.3093 15.2295 18.2928 15.3968 18.325 15.5582C18.3571 15.7197 18.4363 15.868 18.5527 15.9843C18.6691 16.1007 18.8174 16.18 18.9788 16.2121C19.1403 16.2442 19.3076 16.2277 19.4597 16.1647C19.6117 16.1018 19.7417 15.9951 19.8331 15.8582C19.9246 15.7214 19.9734 15.5605 19.9734 15.3959C19.9731 15.1752 19.8854 14.9637 19.7294 14.8077C19.5733 14.6517 19.3618 14.5639 19.1412 14.5637ZM19.1412 15.812C19.0589 15.812 18.9784 15.7876 18.91 15.7419C18.8416 15.6961 18.7882 15.6312 18.7567 15.5551C18.7253 15.4791 18.717 15.3954 18.7331 15.3147C18.7491 15.234 18.7888 15.1598 18.8469 15.1017C18.9051 15.0435 18.9793 15.0038 19.06 14.9878C19.1407 14.9717 19.2244 14.98 19.3004 15.0115C19.3764 15.0429 19.4414 15.0963 19.4872 15.1647C19.5329 15.2331 19.5573 15.3136 19.5573 15.3959C19.5572 15.5062 19.5133 15.612 19.4353 15.69C19.3573 15.768 19.2515 15.8119 19.1412 15.812ZM20.3895 1.24832C20.2249 1.24832 20.064 1.29712 19.9271 1.38857C19.7903 1.48001 19.6836 1.60999 19.6206 1.76205C19.5576 1.91412 19.5412 2.08145 19.5733 2.24288C19.6054 2.40431 19.6846 2.5526 19.801 2.66899C19.9174 2.78537 20.0657 2.86463 20.2271 2.89674C20.3886 2.92886 20.5559 2.91237 20.708 2.84939C20.86 2.7864 20.99 2.67973 21.0814 2.54288C21.1729 2.40602 21.2217 2.24512 21.2217 2.08053C21.2215 1.85989 21.1337 1.64836 20.9777 1.49234C20.8217 1.33633 20.6101 1.24857 20.3895 1.24832ZM20.3895 2.49663C20.3072 2.49663 20.2267 2.47223 20.1583 2.4265C20.0899 2.38078 20.0366 2.31579 20.0051 2.23976C19.9736 2.16373 19.9653 2.08006 19.9814 1.99935C19.9974 1.91863 20.0371 1.84449 20.0953 1.78629C20.1535 1.7281 20.2276 1.68847 20.3083 1.67242C20.389 1.65636 20.4727 1.6646 20.5487 1.69609C20.6248 1.72759 20.6897 1.78092 20.7355 1.84935C20.7812 1.91778 20.8056 1.99823 20.8056 2.08053C20.8055 2.19085 20.7616 2.29662 20.6836 2.37463C20.6056 2.45265 20.4998 2.49652 20.3895 2.49663ZM66.161 15.812C65.9964 15.812 65.8355 15.8608 65.6987 15.9522C65.5618 16.0437 65.4552 16.1737 65.3922 16.3257C65.3292 16.4778 65.3127 16.6451 65.3448 16.8066C65.3769 16.968 65.4562 17.1163 65.5726 17.2327C65.689 17.349 65.8372 17.4283 65.9987 17.4604C66.1601 17.4925 66.3274 17.476 66.4795 17.4131C66.6316 17.3501 66.7615 17.2434 66.853 17.1065C66.9444 16.9697 66.9932 16.8088 66.9932 16.6442C66.993 16.4236 66.9052 16.212 66.7492 16.056C66.5932 15.9 66.3817 15.8122 66.161 15.812ZM66.161 17.0603C66.0787 17.0603 65.9983 17.0359 65.9299 16.9902C65.8614 16.9445 65.8081 16.8795 65.7766 16.8034C65.7451 16.7274 65.7369 16.6437 65.7529 16.563C65.769 16.4823 65.8086 16.4082 65.8668 16.35C65.925 16.2918 65.9991 16.2521 66.0799 16.2361C66.1606 16.22 66.2442 16.2283 66.3203 16.2598C66.3963 16.2913 66.4613 16.3446 66.507 16.413C66.5527 16.4814 66.5771 16.5619 66.5771 16.6442C66.577 16.7545 66.5332 16.8603 66.4551 16.9383C66.3771 17.0163 66.2714 17.0602 66.161 17.0603ZM4.57751 4.57715C4.57751 4.41256 4.5287 4.25166 4.43725 4.1148C4.34581 3.97795 4.21584 3.87128 4.06377 3.80829C3.9117 3.74531 3.74437 3.72882 3.58294 3.76094C3.42151 3.79305 3.27322 3.87231 3.15683 3.98869C3.04045 4.10508 2.96119 4.25337 2.92908 4.4148C2.89697 4.57623 2.91345 4.74356 2.97643 4.89563C3.03942 5.04769 3.14609 5.17767 3.28295 5.26911C3.4198 5.36056 3.5807 5.40936 3.7453 5.40936C3.96593 5.40911 4.17746 5.32135 4.33348 5.16534C4.48949 5.00932 4.57725 4.79779 4.57751 4.57715ZM3.32919 4.57715C3.32919 4.49486 3.3536 4.41441 3.39932 4.34598C3.44504 4.27755 3.51003 4.22422 3.58606 4.19272C3.66209 4.16123 3.74576 4.15299 3.82647 4.16905C3.90719 4.1851 3.98133 4.22473 4.03953 4.28292C4.09772 4.34112 4.13735 4.41526 4.15341 4.49598C4.16946 4.57669 4.16122 4.66036 4.12973 4.73639C4.09823 4.81242 4.0449 4.87741 3.97647 4.92313C3.90804 4.96886 3.82759 4.99326 3.7453 4.99326C3.63497 4.99315 3.5292 4.94927 3.45119 4.87126C3.37318 4.79325 3.3293 4.68748 3.32919 4.57715Z" fill="#2D4356"/>
<path d="M35.6119 7.07782L36.2306 6.26434L35.8399 6.04297L35.443 6.95424H35.4296L35.026 6.04921L34.6286 6.27724L35.2407 7.07158V7.08448L34.2837 6.9609V7.40363L35.2474 7.28005V7.29295L34.6286 8.08688L34.9998 8.32156L35.4234 7.40363H35.4359L35.8266 8.3149L36.2369 8.08063L35.6119 7.29919V7.28629L36.5947 7.40363V6.9609L35.6119 7.09072V7.07782Z" fill="#1E83E6"/>
<path d="M5.73282 16.672L5.37622 17.1293L5.59009 17.2641L5.83393 16.7357H5.84142L6.06612 17.2604L6.30247 17.1256L5.94254 16.6753V16.6678L6.50844 16.7357V16.4806L5.94254 16.5555V16.548L6.29872 16.0795L6.07402 15.9521L5.84517 16.4769H5.83768L5.60549 15.9555L5.37622 16.087L5.72907 16.5443V16.5518L5.17773 16.4806V16.7357L5.73282 16.6645V16.672Z" fill="#1E83E6"/>
<path d="M54.9256 11.5317V11.0977L53.9615 11.2255V11.2126L54.5686 10.4145L54.1854 10.1973L53.7959 11.0911H53.7826L53.3869 10.2035L52.997 10.4274L53.5974 11.2063V11.2192L52.6587 11.0977V11.5317L53.6037 11.4106V11.4235L52.997 12.2025L53.3611 12.4326L53.7764 11.5317H53.7888L54.1721 12.4259L54.5744 12.1962L53.9615 11.4298V11.4169L54.9256 11.5317Z" fill="#1E83E6"/>
<path d="M65.5126 1.0761L66.036 0.387442L65.7056 0.200195L65.3694 0.971238H65.3582L65.017 0.205605L64.6808 0.398677L65.1988 1.07069V1.08151L64.3887 0.977063V1.35156L65.2042 1.2467V1.25793L64.6808 1.92994L64.9945 2.12843L65.3532 1.35156H65.3636L65.6944 2.1226L66.0414 1.92453L65.5126 1.26334V1.25211L66.3444 1.35156V0.977063L65.5126 1.08692V1.0761Z" fill="#1E83E6"/>
<path d="M0.83221 56.1742C1.29183 56.1742 1.66442 55.8016 1.66442 55.342C1.66442 54.8824 1.29183 54.5098 0.83221 54.5098C0.372593 54.5098 0 54.8824 0 55.342C0 55.8016 0.372593 56.1742 0.83221 56.1742Z" fill="#2D4356"/>
<path d="M4.57711 54.5098H3.32879C3.10808 54.5098 2.8964 54.5974 2.74033 54.7535C2.58426 54.9096 2.49658 55.1213 2.49658 55.342C2.49658 55.5627 2.58426 55.7744 2.74033 55.9304C2.8964 56.0865 3.10808 56.1742 3.32879 56.1742H4.57711C4.79782 56.1742 5.0095 56.0865 5.16557 55.9304C5.32164 55.7744 5.40932 55.5627 5.40932 55.342C5.40932 55.1213 5.32164 54.9096 5.16557 54.7535C5.0095 54.5974 4.79782 54.5098 4.57711 54.5098ZM66.5767 54.5098H65.3284C65.1077 54.5098 64.896 54.5974 64.74 54.7535C64.5839 54.9096 64.4962 55.1213 64.4962 55.342C64.4962 55.5627 64.5839 55.7744 64.74 55.9304C64.896 56.0865 65.1077 56.1742 65.3284 56.1742H66.5767C66.7975 56.1742 67.0091 56.0865 67.1652 55.9304C67.3213 55.7744 67.409 55.5627 67.409 55.342C67.409 55.1213 67.3213 54.9096 67.1652 54.7535C67.0091 54.5974 66.7975 54.5098 66.5767 54.5098Z" fill="#2D4356"/>
<path d="M69.0734 56.1742C69.533 56.1742 69.9056 55.8016 69.9056 55.342C69.9056 54.8824 69.533 54.5098 69.0734 54.5098C68.6138 54.5098 68.2412 54.8824 68.2412 55.342C68.2412 55.8016 68.6138 56.1742 69.0734 56.1742Z" fill="#2D4356"/>
<path d="M49.1645 57.8389H45.7076C45.4984 57.8556 45.3032 57.9506 45.1608 58.1048C45.0185 58.259 44.9394 58.4612 44.9394 58.6711C44.9394 58.881 45.0185 59.0831 45.1608 59.2374C45.3032 59.3916 45.4984 59.4865 45.7076 59.5033H49.1645C49.3737 59.4865 49.569 59.3916 49.7113 59.2374C49.8537 59.0831 49.9327 58.881 49.9327 58.6711C49.9327 58.4612 49.8537 58.259 49.7113 58.1048C49.569 57.9506 49.3737 57.8556 49.1645 57.8389ZM24.1982 57.8389H20.7413C20.5321 57.8556 20.3369 57.9506 20.1946 58.1048C20.0522 58.259 19.9731 58.4612 19.9731 58.6711C19.9731 58.881 20.0522 59.0831 20.1946 59.2374C20.3369 59.3916 20.5321 59.4865 20.7413 59.5033H24.1982C24.4074 59.4865 24.6027 59.3916 24.745 59.2374C24.8874 59.0831 24.9664 58.881 24.9664 58.6711C24.9664 58.4612 24.8874 58.259 24.745 58.1048C24.6027 57.9506 24.4074 57.8556 24.1982 57.8389ZM43.275 57.8389H26.6308C26.4101 57.8389 26.1984 57.9265 26.0424 58.0826C25.8863 58.2387 25.7986 58.4504 25.7986 58.6711C25.7986 58.8918 25.8863 59.1035 26.0424 59.2595C26.1984 59.4156 26.4101 59.5033 26.6308 59.5033H33.2635V60.3355H29.9597C29.739 60.3355 29.5273 60.4232 29.3712 60.5792C29.2151 60.7353 29.1275 60.947 29.1275 61.1677C29.1275 61.3884 29.2151 61.6001 29.3712 61.7562C29.5273 61.9122 29.739 61.9999 29.9597 61.9999H40.3623C40.583 61.9999 40.7947 61.9122 40.9508 61.7562C41.1068 61.6001 41.1945 61.3884 41.1945 61.1677C41.1945 60.947 41.1068 60.7353 40.9508 60.5792C40.7947 60.4232 40.583 60.3355 40.3623 60.3355H36.6423V59.5033H43.275C43.4957 59.5033 43.7074 59.4156 43.8635 59.2595C44.0196 59.1035 44.1072 58.8918 44.1072 58.6711C44.1072 58.4504 44.0196 58.2387 43.8635 58.0826C43.7074 57.9265 43.4957 57.8389 43.275 57.8389Z" fill="#1E83E6"/>
<path d="M33.9464 26.0444C33.26 26.0962 32.615 26.3927 32.1287 26.88C31.6425 27.3673 31.3474 28.013 31.297 28.6995C31.29 28.7882 31.3005 28.8773 31.328 28.9619C31.3554 29.0464 31.3992 29.1248 31.4569 29.1924C31.5146 29.2601 31.5851 29.3157 31.6643 29.3561C31.7435 29.3965 31.8299 29.4209 31.9185 29.4279C32.0071 29.4349 32.0963 29.4244 32.1808 29.397C32.2654 29.3695 32.3437 29.3257 32.4114 29.268C32.479 29.2103 32.5346 29.1398 32.575 29.0606C32.6154 28.9814 32.6398 28.8951 32.6468 28.8064C32.675 28.4412 32.833 28.0982 33.0922 27.8393C33.3513 27.5805 33.6946 27.423 34.0598 27.3952C34.2389 27.3802 34.4047 27.2946 34.5208 27.1573C34.6368 27.02 34.6935 26.8422 34.6785 26.6631C34.6635 26.484 34.5779 26.3181 34.4406 26.2021C34.3033 26.0861 34.1255 26.0293 33.9464 26.0444H33.9464Z" fill="#1E83E6"/>
<path d="M33.7481 37.2078C34.2635 37.4185 35.7925 38.0422 37.0705 38.5507L31.0758 32.7167C30.6188 32.2632 30.256 31.7237 30.0084 31.1293C29.7609 30.535 29.6334 29.8974 29.6334 29.2536C29.6334 28.6097 29.7609 27.9722 30.0084 27.3778C30.256 26.7834 30.6187 26.2439 31.0758 25.7904C32.0061 24.9333 33.2122 24.4369 34.4763 24.3909C35.7404 24.3448 36.9794 24.7521 37.9697 25.5392C38.0915 25.6413 38.2454 25.6973 38.4044 25.6973C38.5634 25.6973 38.7173 25.6413 38.8391 25.5392C39.8198 24.73 41.0632 24.3087 42.3337 24.355C43.6043 24.4013 44.8137 24.9119 45.7329 25.7903C46.6457 26.7118 47.1577 27.9564 47.1577 29.2535C47.1577 30.5506 46.6457 31.7952 45.733 32.7167L38.9454 39.3223C39.3951 39.5103 39.8686 39.6977 40.3289 39.8667L46.6771 33.6887C47.8442 32.5075 48.4987 30.914 48.4987 29.2535C48.4986 27.593 47.844 25.9995 46.6768 24.8184C45.5837 23.7742 44.1637 23.1391 42.6566 23.0203C41.1495 22.9015 39.6476 23.3064 38.4044 24.1665C37.1611 23.3065 35.6593 22.9017 34.1522 23.0204C32.6451 23.1392 31.2252 23.7742 30.132 24.8184C29.5469 25.3993 29.0825 26.0903 28.7657 26.8515C28.4488 27.6127 28.2856 28.429 28.2856 29.2535C28.2856 30.078 28.4488 30.8944 28.7657 31.6556C29.0825 32.4168 29.5469 33.1077 30.132 33.6887L33.7481 37.2078Z" fill="#1E83E6"/>
<path d="M17.7598 52.1354C18.1337 52.1323 18.4343 51.8266 18.4311 51.4527C18.4279 51.0787 18.1222 50.7782 17.7483 50.7814C17.3744 50.7845 17.0739 51.0902 17.077 51.4641C17.0802 51.8381 17.3859 52.1386 17.7598 52.1354Z" fill="#1E83E6"/>
<path d="M57.9452 54.8217H41.6669L55.212 44.7893C55.8474 44.367 56.3506 43.7738 56.6637 43.0781C56.9769 42.3823 57.0872 41.6123 56.982 40.8567C56.672 38.7658 54.673 37.9487 52.7653 38.1212C51.5014 36.6518 49.1172 36.7194 48.0735 36.9613C47.6038 36.4483 46.9891 36.0905 46.3111 35.9355L44.766 37.4392C45.136 37.2613 45.5524 37.2035 45.957 37.274C46.3615 37.3444 46.7338 37.5396 47.0219 37.8322L43.5744 40.6931C44.0369 40.8461 44.464 41.0903 44.8305 41.4112L48.6619 38.2318C49.3641 38.1339 50.6284 38.1386 51.4338 38.731L45.9442 43.0567C46.1177 43.5491 46.1998 44.069 46.1864 44.5909L52.6461 39.5007C52.9159 39.4593 54.1756 39.305 54.9715 39.8671C56.3157 40.8164 55.5574 42.9273 54.4331 43.6811C54.4331 43.6811 40.1636 54.25 40.1621 54.2512C39.7047 54.5826 39.1641 54.7802 38.6008 54.8217H38.0117C37.4622 54.7782 36.9298 54.6104 36.4545 54.3312L28.3345 49.4906C28.0433 49.3384 27.7209 49.2555 27.3923 49.2486C27.0638 49.2417 26.7382 49.3109 26.4408 49.4508L22.9684 51.203C22.5886 51.2789 22.2039 51.3272 21.8172 51.3477V39.8908C23.6635 39.1663 25.534 38.171 27.5756 38.3906C29.2112 38.5282 30.8155 38.9197 32.3306 39.5509C33.8824 40.2411 35.482 40.8473 37.0651 41.461C38.1857 41.9591 40.8601 43.0852 42.3789 43.2001C42.542 43.2153 42.7004 43.263 42.8448 43.3405C42.9891 43.4179 43.1164 43.5236 43.2192 43.6511C43.322 43.7787 43.3981 43.9256 43.4431 44.0831C43.4882 44.2406 43.5011 44.4055 43.4812 44.5681C43.4453 45.1179 43.2271 45.64 42.8614 46.052C42.4956 46.4639 42.0029 46.7423 41.4613 46.8431C39.5511 47.2168 37.1335 47.3107 33.684 45.1691C33.5312 45.0744 33.3471 45.0443 33.1722 45.0854C32.9972 45.1265 32.8458 45.2354 32.7511 45.3882C32.6564 45.5409 32.6264 45.725 32.6674 45.9C32.7085 46.0749 32.8174 46.2264 32.9702 46.321C35.5512 47.9234 38.7045 48.759 41.7211 48.1734C44.0622 47.7189 46.0434 44.4222 44.0102 42.4911C43.5095 42.0155 42.812 41.9238 42.1615 41.8111C40.5809 41.5373 39.0319 40.8549 37.5747 40.205C36.1063 39.55 34.525 39.1012 33.0737 38.3957C31.3723 37.5687 29.2244 37.2036 27.7194 37.0427C25.611 36.8174 23.7135 37.6909 21.803 38.4406C21.7688 38.0184 21.5774 37.6244 21.2665 37.3367C20.9557 37.0489 20.5481 36.8884 20.1245 36.8869H15.3852C14.9362 36.8876 14.5058 37.0664 14.1885 37.3841C13.8712 37.7017 13.6928 38.1322 13.6925 38.5812V52.8136C13.6928 53.2626 13.8712 53.6931 14.1885 54.0107C14.5058 54.3284 14.9362 54.5072 15.3852 54.5079H20.1245C20.5735 54.5072 21.0038 54.3284 21.3212 54.0107C21.6385 53.6931 21.8169 53.2626 21.8172 52.8136V52.7074C22.4089 52.7167 22.9976 52.6207 23.5557 52.4241L27.0222 50.6753C27.2354 50.5948 27.4709 50.5964 27.683 50.6798C27.683 50.6798 32.4094 53.4974 34.6309 54.8217H12.7713C12.675 54.8091 12.5771 54.8173 12.4841 54.8455C12.3912 54.8738 12.3054 54.9216 12.2324 54.9856C12.1594 55.0497 12.1009 55.1286 12.0608 55.2171C12.0207 55.3056 12 55.4016 12 55.4988C12 55.5959 12.0207 55.6919 12.0608 55.7804C12.1009 55.8689 12.1594 55.9478 12.2324 56.0119C12.3054 56.076 12.3912 56.1238 12.4841 56.152C12.5771 56.1803 12.675 56.1884 12.7713 56.1758H57.9452C58.0415 56.1884 58.1394 56.1803 58.2323 56.152C58.3252 56.1238 58.4111 56.076 58.4841 56.0119C58.5571 55.9478 58.6156 55.8689 58.6556 55.7804C58.6957 55.6919 58.7164 55.5959 58.7164 55.4988C58.7164 55.4016 58.6957 55.3056 58.6556 55.2171C58.6156 55.1286 58.5571 55.0497 58.4841 54.9856C58.4111 54.9216 58.3252 54.8738 58.2323 54.8455C58.1394 54.8173 58.0415 54.8091 57.9452 54.8217ZM20.4631 52.8136C20.463 52.9034 20.4273 52.9895 20.3639 53.053C20.3004 53.1165 20.2143 53.1523 20.1246 53.1525H15.3852C15.2954 53.1523 15.2093 53.1165 15.1459 53.053C15.0824 52.9895 15.0467 52.9034 15.0467 52.8136V38.5812C15.0467 38.4914 15.0824 38.4053 15.1459 38.3418C15.2093 38.2783 15.2954 38.2425 15.3852 38.2423H20.1246C20.2143 38.2425 20.3004 38.2783 20.3639 38.3418C20.4273 38.4053 20.463 38.4914 20.4631 38.5812V52.8136Z" fill="#2D4356"/>
</svg>
