<svg width="80" height="68" viewBox="0 0 80 68" fill="none" xmlns="http://www.w3.org/2000/svg">
<path d="M11.48 27C11.3527 27 11.2306 27.0505 11.1406 27.1403C11.0506 27.2301 11 27.352 11 27.479V30.8502C11 30.9772 11.0506 31.0991 11.1406 31.1889C11.2306 31.2787 11.3527 31.3292 11.48 31.3292C11.6073 31.3292 11.7294 31.2787 11.8194 31.1889C11.9094 31.0991 11.96 30.9772 11.96 30.8502V27.479C11.96 27.352 11.9094 27.2301 11.8194 27.1403C11.7294 27.0505 11.6073 27 11.48 27ZM13.4 27C13.2727 27 13.1506 27.0505 13.0606 27.1403C12.9706 27.2301 12.92 27.352 12.92 27.479V30.8502C12.92 30.9772 12.9706 31.0991 13.0606 31.1889C13.1506 31.2787 13.2727 31.3292 13.4 31.3292C13.5273 31.3292 13.6494 31.2787 13.7394 31.1889C13.8294 31.0991 13.88 30.9772 13.88 30.8502V27.479C13.88 27.352 13.8294 27.2301 13.7394 27.1403C13.6494 27.0505 13.5273 27 13.4 27ZM19.16 27C19.0327 27 18.9106 27.0505 18.8206 27.1403C18.7306 27.2301 18.68 27.352 18.68 27.479V30.8502C18.68 30.9772 18.7306 31.0991 18.8206 31.1889C18.9106 31.2787 19.0327 31.3292 19.16 31.3292C19.2873 31.3292 19.4094 31.2787 19.4994 31.1889C19.5894 31.0991 19.64 30.9772 19.64 30.8502V27.479C19.64 27.352 19.5894 27.2301 19.4994 27.1403C19.4094 27.0505 19.2873 27 19.16 27ZM21.08 27C20.9527 27 20.8306 27.0505 20.7406 27.1403C20.6506 27.2301 20.6 27.352 20.6 27.479V30.8502C20.6 30.9772 20.6506 31.0991 20.7406 31.1889C20.8306 31.2787 20.9527 31.3292 21.08 31.3292C21.2073 31.3292 21.3294 31.2787 21.4194 31.1889C21.5094 31.0991 21.56 30.9772 21.56 30.8502V27.479C21.56 27.352 21.5094 27.2301 21.4194 27.1403C21.3294 27.0505 21.2073 27 21.08 27ZM17.24 41.9238C17.3673 41.9238 17.4894 41.8734 17.5794 41.7835C17.6694 41.6937 17.72 41.5719 17.72 41.4448V38.0739C17.72 37.9468 17.6694 37.825 17.5794 37.7352C17.4894 37.6453 17.3673 37.5949 17.24 37.5949C17.1127 37.5949 16.9906 37.6453 16.9006 37.7352C16.8106 37.825 16.76 37.9468 16.76 38.0739V41.4448C16.76 41.5719 16.8106 41.6937 16.9006 41.7835C16.9906 41.8734 17.1127 41.9238 17.24 41.9238ZM19.16 41.9238C19.2873 41.9238 19.4094 41.8734 19.4994 41.7835C19.5894 41.6937 19.64 41.5719 19.64 41.4448V38.0739C19.64 37.9468 19.5894 37.825 19.4994 37.7352C19.4094 37.6453 19.2873 37.5949 19.16 37.5949C19.0327 37.5949 18.9106 37.6453 18.8206 37.7352C18.7306 37.825 18.68 37.9468 18.68 38.0739V41.4448C18.68 41.5719 18.7306 41.6937 18.8206 41.7835C18.9106 41.8734 19.0327 41.9238 19.16 41.9238ZM24.92 41.9238C25.0473 41.9238 25.1694 41.8734 25.2594 41.7835C25.3494 41.6937 25.4 41.5719 25.4 41.4448V38.0739C25.4 37.9468 25.3494 37.825 25.2594 37.7352C25.1694 37.6453 25.0473 37.5949 24.92 37.5949C24.7927 37.5949 24.6706 37.6453 24.5806 37.7352C24.4906 37.825 24.44 37.9468 24.44 38.0739V41.4448C24.44 41.5719 24.4906 41.6937 24.5806 41.7835C24.6706 41.8734 24.7927 41.9238 24.92 41.9238ZM26.84 41.9238C26.9673 41.9238 27.0894 41.8734 27.1794 41.7835C27.2694 41.6937 27.32 41.5719 27.32 41.4448V38.0739C27.32 37.9468 27.2694 37.825 27.1794 37.7352C27.0894 37.6453 26.9673 37.5949 26.84 37.5949C26.7127 37.5949 26.5906 37.6453 26.5006 37.7352C26.4106 37.825 26.36 37.9468 26.36 38.0739V41.4448C26.36 41.5719 26.4106 41.6937 26.5006 41.7835C26.5906 41.8734 26.7127 41.9238 26.84 41.9238ZM11.48 48.6713C11.417 48.6713 11.3545 48.6837 11.2963 48.7077C11.2381 48.7318 11.1851 48.7671 11.1406 48.8116C11.096 48.856 11.0606 48.9089 11.0365 48.967C11.0124 49.0251 11 49.0874 11 49.1503V52.521C11 52.648 11.0506 52.7699 11.1406 52.8597C11.2306 52.9495 11.3527 53 11.48 53C11.6073 53 11.7294 52.9495 11.8194 52.8597C11.9094 52.7699 11.96 52.648 11.96 52.521V49.1503C11.96 49.0874 11.9476 49.0251 11.9235 48.967C11.8994 48.9089 11.864 48.856 11.8194 48.8116C11.7749 48.7671 11.7219 48.7318 11.6637 48.7077C11.6055 48.6837 11.543 48.6713 11.48 48.6713ZM13.4 48.6713C13.337 48.6713 13.2745 48.6837 13.2163 48.7077C13.1581 48.7318 13.1051 48.7671 13.0606 48.8116C13.016 48.856 12.9806 48.9089 12.9565 48.967C12.9324 49.0251 12.92 49.0874 12.92 49.1503V52.521C12.92 52.648 12.9706 52.7699 13.0606 52.8597C13.1506 52.9495 13.2727 53 13.4 53C13.5273 53 13.6494 52.9495 13.7394 52.8597C13.8294 52.7699 13.88 52.648 13.88 52.521V49.1503C13.88 49.0874 13.8676 49.0251 13.8435 48.967C13.8194 48.9089 13.784 48.856 13.7394 48.8116C13.6949 48.7671 13.6419 48.7318 13.5837 48.7077C13.5255 48.6837 13.463 48.6713 13.4 48.6713ZM19.16 48.6713C19.097 48.6713 19.0345 48.6837 18.9763 48.7077C18.9181 48.7318 18.8651 48.7671 18.8206 48.8116C18.776 48.856 18.7406 48.9089 18.7165 48.967C18.6924 49.0251 18.68 49.0874 18.68 49.1503V52.521C18.68 52.648 18.7306 52.7699 18.8206 52.8597C18.9106 52.9495 19.0327 53 19.16 53C19.2873 53 19.4094 52.9495 19.4994 52.8597C19.5894 52.7699 19.64 52.648 19.64 52.521V49.1503C19.64 49.0874 19.6276 49.0251 19.6035 48.967C19.5794 48.9089 19.544 48.856 19.4994 48.8116C19.4549 48.7671 19.4019 48.7318 19.3437 48.7077C19.2855 48.6837 19.223 48.6713 19.16 48.6713ZM21.08 48.6713C21.017 48.6713 20.9545 48.6837 20.8963 48.7077C20.8381 48.7318 20.7851 48.7671 20.7406 48.8116C20.696 48.856 20.6606 48.9089 20.6365 48.967C20.6124 49.0251 20.6 49.0874 20.6 49.1503V52.521C20.6 52.648 20.6506 52.7699 20.7406 52.8597C20.8306 52.9495 20.9527 53 21.08 53C21.2073 53 21.3294 52.9495 21.4194 52.8597C21.5094 52.7699 21.56 52.648 21.56 52.521V49.1503C21.56 49.0874 21.5476 49.0251 21.5235 48.967C21.4994 48.9089 21.464 48.856 21.4194 48.8116C21.3749 48.7671 21.3219 48.7318 21.2637 48.7077C21.2055 48.6837 21.143 48.6713 21.08 48.6713ZM33.08 41.5627H46.52C46.6472 41.5623 46.7691 41.5117 46.859 41.422C46.9489 41.3322 46.9996 41.2106 47 41.0837V32.4619C46.9996 32.3349 46.9489 32.2133 46.859 32.1236C46.7691 32.0338 46.6472 31.9832 46.52 31.9829H33.08C32.9528 31.9832 32.8309 32.0338 32.741 32.1236C32.6511 32.2133 32.6004 32.3349 32.6 32.4619V41.0837C32.6004 41.2106 32.6511 41.3322 32.741 41.422C32.8309 41.5117 32.9528 41.5623 33.08 41.5627ZM33.56 32.9409H46.04V40.6047H33.56V32.9409Z" fill="#2D4356"/>
<path d="M35.4545 34C35.334 34 35.2184 34.0583 35.1332 34.1621C35.0479 34.2658 35 34.4065 35 34.5532V38.4468C35 38.5935 35.0479 38.7342 35.1331 38.838C35.2184 38.9417 35.334 39 35.4545 39C35.5751 39 35.6907 38.9417 35.776 38.838C35.8612 38.7342 35.9091 38.5935 35.9091 38.4468V34.5532C35.9091 34.4065 35.8612 34.2658 35.7759 34.1621C35.6907 34.0583 35.5751 34 35.4545 34ZM37.2727 34C37.1522 34 37.0366 34.0583 36.9513 34.1621C36.8661 34.2658 36.8182 34.4065 36.8182 34.5532V38.4468C36.8182 38.5935 36.8661 38.7342 36.9513 38.838C37.0366 38.9417 37.1522 39 37.2727 39C37.3933 39 37.5089 38.9417 37.5941 38.838C37.6794 38.7342 37.7273 38.5935 37.7273 38.4468V34.5532C37.7273 34.4065 37.6794 34.2658 37.5941 34.1621C37.5089 34.0583 37.3933 34 37.2727 34ZM42.7273 34C42.6067 34 42.4911 34.0583 42.4059 34.1621C42.3206 34.2658 42.2727 34.4065 42.2727 34.5532V38.4468C42.2727 38.5935 42.3206 38.7342 42.4059 38.838C42.4911 38.9417 42.6067 39 42.7273 39C42.8478 39 42.9634 38.9417 43.0487 38.838C43.1339 38.7342 43.1818 38.5935 43.1818 38.4468V34.5532C43.1818 34.4065 43.1339 34.2658 43.0487 34.1621C42.9634 34.0583 42.8478 34 42.7273 34ZM44.5455 34C44.4249 34 44.3093 34.0583 44.2241 34.1621C44.1388 34.2658 44.0909 34.4065 44.0909 34.5532V38.4468C44.0909 38.5935 44.1388 38.7342 44.224 38.838C44.3093 38.9417 44.4249 39 44.5455 39C44.666 39 44.7816 38.9417 44.8669 38.838C44.9521 38.7342 45 38.5935 45 38.4468V34.5532C45 34.4065 44.9521 34.2658 44.8668 34.1621C44.7816 34.0583 44.666 34 44.5455 34Z" fill="#2D4356"/>
<mask id="path-3-outside-1_870_980" maskUnits="userSpaceOnUse" x="3" y="0" width="77" height="57" fill="black">
<rect fill="white" x="3" width="77" height="57"/>
<path d="M37.5662 30.2321C37.6264 30.2557 37.6904 30.2675 37.755 30.267C37.8538 30.2671 37.9504 30.2378 38.0326 30.1829C38.1149 30.128 38.179 30.0498 38.2169 29.9584L39.7864 26.0561H42.8013V29.4158C42.8013 29.5478 42.8537 29.6744 42.9468 29.7678C43.04 29.8611 43.1663 29.9136 43.298 29.9136C43.4297 29.9136 43.5561 29.8611 43.6492 29.7678C43.7424 29.6744 43.7947 29.5478 43.7947 29.4158V26.0561H46.8543L48.4288 29.9584C48.4656 30.0506 48.5294 30.1295 48.6119 30.1846C48.6944 30.2397 48.7916 30.2684 48.8907 30.267C48.9537 30.2675 49.0161 30.2556 49.0745 30.2321C49.1349 30.2076 49.1898 30.1715 49.2362 30.1257C49.2826 30.0799 49.3195 30.0254 49.3449 29.9653C49.3703 29.9052 49.3836 29.8407 49.3841 29.7755C49.3845 29.7102 49.3722 29.6455 49.3477 29.5851L47.654 25.3742C47.614 25.2801 47.5467 25.2003 47.4607 25.1453C47.3747 25.0902 47.2742 25.0624 47.1722 25.0656C47.1672 25.0656 47.1573 25.0606 47.1523 25.0606H43.7947V21.8353C44.3596 21.7039 44.8606 21.3781 45.2103 20.9145L50.3957 21.0837C50.6372 21.7602 51.0811 22.3456 51.6669 22.7598C52.2528 23.1741 52.9519 23.397 53.6689 23.3982C53.9349 23.3974 54.1999 23.3657 54.4586 23.3036L59.8924 27.5543C59.8874 27.6638 59.8775 27.7683 59.8775 27.8778C59.8777 28.5093 60.0193 29.1327 60.2918 29.7021C60.5643 30.2715 60.9607 30.7724 61.452 31.1679L60.6523 44.8009H58.3874V39.3258C58.387 39.1939 58.3346 39.0675 58.2415 38.9743C58.1484 38.881 58.0223 38.8285 57.8907 38.8281H53.3361C53.2432 38.8286 53.1522 38.8549 53.0733 38.9041C52.9943 38.9533 52.9306 39.0235 52.8891 39.1068L50.1275 44.8009H48.702C48.3072 44.8021 47.9288 44.9598 47.6496 45.2395C47.3704 45.5193 47.2131 45.8985 47.2119 46.2941V53.2625C47.2131 53.6581 47.3704 54.0372 47.6496 54.317C47.9288 54.5968 48.3072 54.7545 48.702 54.7557H49.5265C49.6318 55.1148 49.8503 55.4301 50.1493 55.6545C50.4484 55.8788 50.8119 56 51.1854 56C51.559 56 51.9225 55.8788 52.2215 55.6545C52.5206 55.4301 52.7391 55.1148 52.8444 54.7557H53.5C53.6053 55.1148 53.8238 55.4301 54.1229 55.6545C54.4219 55.8788 54.7854 56 55.159 56C55.5325 56 55.896 55.8788 56.195 55.6545C56.4941 55.4301 56.7126 55.1148 56.8179 54.7557H57.4735C57.5788 55.1148 57.7973 55.4301 58.0964 55.6545C58.3954 55.8788 58.7589 56 59.1325 56C59.506 56 59.8695 55.8788 60.1686 55.6545C60.4676 55.4301 60.6861 55.1148 60.7914 54.7557H61.447C61.5523 55.1148 61.7708 55.4301 62.0699 55.6545C62.3689 55.8788 62.7324 56 63.106 56C63.4795 56 63.843 55.8788 64.1421 55.6545C64.4411 55.4301 64.6596 55.1148 64.7649 54.7557H65.4205C65.5258 55.1148 65.7443 55.4301 66.0434 55.6545C66.3424 55.8788 66.7059 56 67.0795 56C67.453 56 67.8165 55.8788 68.1156 55.6545C68.4146 55.4301 68.6332 55.1148 68.7384 54.7557H72.543C72.9379 54.7545 73.3162 54.5968 73.5954 54.317C73.8746 54.0372 74.032 53.6581 74.0331 53.2625V46.2941C74.032 45.8985 73.8746 45.5193 73.5954 45.2395C73.3162 44.9598 72.9379 44.8021 72.543 44.8009H68.5397L67.6805 30.1127C68.0795 29.4726 68.3003 28.7371 68.3198 27.9826C68.3393 27.2281 68.1568 26.4822 67.7913 25.8223C67.4258 25.1624 66.8906 24.6126 66.2413 24.2301C65.5921 23.8476 64.8525 23.6463 64.0993 23.6471C63.8377 23.649 63.5768 23.674 63.3195 23.7217L57.106 19.4014C57.0069 18.7317 56.7152 18.1054 56.2665 17.5993C55.8179 17.0932 55.2317 16.7291 54.5797 16.5516C53.9278 16.3742 53.2383 16.391 52.5958 16.6001C51.9532 16.8092 51.3854 17.2015 50.9619 17.729L45.2103 17.9181C44.9669 17.5953 44.6486 17.337 44.283 17.1656C43.9173 16.9942 43.5155 16.9149 43.1123 16.9346C42.7091 16.9543 42.3168 17.0724 41.9695 17.2787C41.6223 17.4849 41.3306 17.7731 41.1197 18.1181C40.9089 18.463 40.7854 18.8544 40.7599 19.2581C40.7344 19.6618 40.8078 20.0657 40.9735 20.4345C41.1393 20.8034 41.3924 21.1261 41.711 21.3745C42.0295 21.623 42.4038 21.7897 42.8013 21.8602V25.0606H39.4536C39.3542 25.0605 39.2569 25.0904 39.1746 25.1463C39.0922 25.2022 39.0285 25.2816 38.9917 25.3742L37.293 29.5851C37.2686 29.6455 37.2562 29.7102 37.2567 29.7755C37.2572 29.8407 37.2705 29.9052 37.2958 29.9653C37.3212 30.0254 37.3581 30.0799 37.4045 30.1257C37.4509 30.1715 37.5059 30.2076 37.5662 30.2321ZM53.649 39.8235H57.394V44.8009H51.2351L53.649 39.8235ZM51.1854 55.0045C51.0381 55.0045 50.894 54.9607 50.7715 54.8787C50.649 54.7967 50.5535 54.6801 50.4971 54.5436C50.4407 54.4072 50.426 54.2571 50.4547 54.1123C50.4835 53.9674 50.5544 53.8344 50.6586 53.73C50.7628 53.6256 50.8956 53.5545 51.0401 53.5257C51.1846 53.4969 51.3344 53.5116 51.4705 53.5681C51.6067 53.6247 51.723 53.7204 51.8049 53.8431C51.8868 53.9659 51.9305 54.1103 51.9305 54.2579C51.9306 54.356 51.9114 54.4532 51.874 54.5438C51.8366 54.6344 51.7817 54.7168 51.7125 54.7861C51.6433 54.8555 51.5611 54.9105 51.4707 54.948C51.3802 54.9854 51.2833 55.0047 51.1854 55.0045ZM55.1589 55.0045C55.0116 55.0045 54.8675 54.9607 54.745 54.8787C54.6225 54.7967 54.527 54.6801 54.4706 54.5436C54.4142 54.4072 54.3995 54.2571 54.4282 54.1123C54.457 53.9674 54.5279 53.8344 54.6321 53.73C54.7363 53.6256 54.8691 53.5545 55.0136 53.5257C55.1581 53.4969 55.3079 53.5116 55.4441 53.5681C55.5802 53.6247 55.6965 53.7204 55.7784 53.8431C55.8603 53.9659 55.904 54.1103 55.904 54.2579C55.9041 54.356 55.8849 54.4532 55.8475 54.5438C55.8101 54.6344 55.7553 54.7168 55.6861 54.7861C55.6168 54.8555 55.5347 54.9105 55.4442 54.948C55.3538 54.9854 55.2568 55.0047 55.1589 55.0045ZM59.1325 55.0045C58.9851 55.0045 58.8411 54.9607 58.7185 54.8787C58.596 54.7967 58.5005 54.6801 58.4441 54.5436C58.3877 54.4072 58.373 54.2571 58.4017 54.1123C58.4305 53.9674 58.5014 53.8344 58.6056 53.73C58.7098 53.6256 58.8426 53.5545 58.9871 53.5257C59.1316 53.4969 59.2814 53.5116 59.4176 53.5681C59.5537 53.6247 59.6701 53.7204 59.7519 53.8431C59.8338 53.9659 59.8775 54.1103 59.8775 54.2579C59.8776 54.356 59.8584 54.4532 59.821 54.5438C59.7836 54.6344 59.7288 54.7168 59.6596 54.7861C59.5904 54.8555 59.5082 54.9105 59.4177 54.948C59.3273 54.9854 59.2303 55.0047 59.1325 55.0045ZM63.106 55.0045C62.9586 55.0045 62.8146 54.9607 62.692 54.8787C62.5695 54.7967 62.474 54.6801 62.4176 54.5436C62.3613 54.4072 62.3465 54.2571 62.3752 54.1123C62.404 53.9674 62.4749 53.8344 62.5791 53.73C62.6833 53.6256 62.8161 53.5545 62.9606 53.5257C63.1051 53.4969 63.2549 53.5116 63.3911 53.5681C63.5272 53.6247 63.6436 53.7204 63.7254 53.8431C63.8073 53.9659 63.851 54.1103 63.851 54.2579C63.8511 54.356 63.8319 54.4532 63.7945 54.5438C63.7572 54.6344 63.7023 54.7168 63.6331 54.7861C63.5639 54.8555 63.4817 54.9105 63.3912 54.948C63.3008 54.9854 63.2038 55.0047 63.106 55.0045ZM67.0795 55.0045C66.9321 55.0045 66.7881 54.9607 66.6656 54.8787C66.543 54.7967 66.4475 54.6801 66.3912 54.5436C66.3348 54.4072 66.32 54.2571 66.3488 54.1123C66.3775 53.9674 66.4485 53.8344 66.5527 53.73C66.6569 53.6256 66.7896 53.5545 66.9341 53.5257C67.0786 53.4969 67.2284 53.5116 67.3646 53.5681C67.5007 53.6247 67.6171 53.7204 67.6989 53.8431C67.7808 53.9659 67.8245 54.1103 67.8245 54.2579C67.8246 54.356 67.8055 54.4532 67.7681 54.5438C67.7307 54.6344 67.6758 54.7168 67.6066 54.7861C67.5374 54.8555 67.4552 54.9105 67.3647 54.948C67.2743 54.9854 67.1773 55.0047 67.0795 55.0045ZM72.543 45.7964C72.6747 45.7968 72.8008 45.8493 72.8938 45.9426C72.9869 46.0359 73.0393 46.1622 73.0397 46.2941V53.2625C73.0393 53.3943 72.9869 53.5207 72.8938 53.614C72.8008 53.7072 72.6747 53.7598 72.543 53.7602H68.7384C68.6331 53.401 68.4146 53.0857 68.1156 52.8614C67.8165 52.6371 67.453 52.5159 67.0795 52.5159C66.7059 52.5159 66.3424 52.6371 66.0434 52.8614C65.7443 53.0857 65.5258 53.401 65.4205 53.7602H64.7649C64.6596 53.401 64.4411 53.0857 64.142 52.8614C63.843 52.6371 63.4795 52.5159 63.1059 52.5159C62.7324 52.5159 62.3689 52.6371 62.0699 52.8614C61.7708 53.0857 61.5523 53.401 61.447 53.7602H60.7914C60.6861 53.401 60.4676 53.0857 60.1685 52.8614C59.8695 52.6371 59.506 52.5159 59.1324 52.5159C58.7589 52.5159 58.3954 52.6371 58.0963 52.8614C57.7973 53.0857 57.5788 53.401 57.4735 53.7602H56.8179C56.7126 53.401 56.4941 53.0857 56.195 52.8614C55.896 52.6371 55.5325 52.5159 55.1589 52.5159C54.7854 52.5159 54.4219 52.6371 54.1228 52.8614C53.8238 53.0857 53.6053 53.401 53.5 53.7602H52.8444C52.7391 53.401 52.5206 53.0857 52.2215 52.8614C51.9225 52.6371 51.559 52.5159 51.1854 52.5159C50.8119 52.5159 50.4484 52.6371 50.1493 52.8614C49.8503 53.0857 49.6318 53.401 49.5265 53.7602H48.702C48.5704 53.7598 48.4443 53.7072 48.3512 53.614C48.2581 53.5207 48.2057 53.3943 48.2053 53.2625V50.276H62.6093C62.741 50.276 62.8673 50.2236 62.9605 50.1302C63.0536 50.0369 63.106 49.9103 63.106 49.7783C63.106 49.6463 63.0536 49.5197 62.9605 49.4263C62.8673 49.333 62.741 49.2805 62.6093 49.2805H48.2053V46.2941C48.2057 46.1622 48.2581 46.0359 48.3512 45.9426C48.4443 45.8493 48.5704 45.7968 48.702 45.7964H72.543ZM61.6457 44.8009L62.4106 31.7552C62.9434 31.9876 63.5182 32.1079 64.0993 32.1086C65.0634 32.1092 65.9983 31.777 66.7467 31.1679L67.5464 44.8009H61.6457ZM64.0993 24.6425C64.7379 24.6425 65.3621 24.8323 65.893 25.1878C66.4239 25.5433 66.8377 26.0486 67.0821 26.6397C67.3264 27.2309 67.3904 27.8814 67.2658 28.509C67.1412 29.1366 66.8337 29.7131 66.3822 30.1655C65.9307 30.618 65.3554 30.9261 64.7292 31.051C64.1029 31.1758 63.4538 31.1117 62.8639 30.8669C62.2739 30.622 61.7697 30.2073 61.415 29.6753C61.0602 29.1432 60.8709 28.5177 60.8709 27.8778C60.8725 27.0203 61.2132 26.1983 61.8183 25.592C62.4234 24.9856 63.2436 24.6442 64.0993 24.6425ZM57.0762 20.5959L62.1573 24.1249C61.2082 24.6216 60.481 25.4588 60.1209 26.4692L55.5116 22.8656C55.9125 22.6136 56.258 22.2824 56.527 21.8921C56.796 21.5019 56.9828 21.0609 57.0762 20.5959ZM53.6689 17.4253C54.1601 17.4253 54.6402 17.5713 55.0486 17.8448C55.457 18.1182 55.7753 18.5069 55.9633 18.9616C56.1512 19.4164 56.2004 19.9168 56.1046 20.3995C56.0088 20.8823 55.7723 21.3257 55.4249 21.6738C55.0776 22.0218 54.6351 22.2589 54.1534 22.3549C53.6716 22.4509 53.1723 22.4016 52.7185 22.2133C52.2647 22.0249 51.8769 21.7059 51.604 21.2967C51.3311 20.8874 51.1854 20.4062 51.1854 19.914C51.1857 19.2541 51.4474 18.6212 51.9131 18.1545C52.3788 17.6879 53.0103 17.4256 53.6689 17.4253ZM45.6672 18.8986L50.3957 18.7443C50.2619 19.1198 50.193 19.5154 50.1921 19.914C50.1921 19.9688 50.197 20.0235 50.202 20.0833L45.6672 19.9339C45.7401 19.5927 45.7401 19.2399 45.6672 18.8986ZM41.7483 19.4163C41.7483 19.121 41.8357 18.8323 41.9995 18.5867C42.1632 18.3412 42.3959 18.1498 42.6682 18.0367C42.9405 17.9237 43.2401 17.8942 43.5291 17.9518C43.8182 18.0094 44.0837 18.1516 44.292 18.3604C44.5004 18.5693 44.6423 18.8353 44.6998 19.125C44.7573 19.4146 44.7278 19.7149 44.6151 19.9877C44.5023 20.2606 44.3113 20.4938 44.0662 20.6579C43.8212 20.8219 43.5331 20.9095 43.2384 20.9095C42.8436 20.9083 42.4652 20.7507 42.186 20.4709C41.9069 20.1911 41.7495 19.812 41.7483 19.4163ZM79 4.9819C79 4.78502 78.9417 4.59255 78.8326 4.42885C78.7234 4.26514 78.5683 4.13755 78.3868 4.0622C78.2053 3.98686 78.0055 3.96714 77.8128 4.00555C77.6201 4.04396 77.4431 4.13877 77.3042 4.27799C77.1653 4.41721 77.0707 4.59459 77.0323 4.78769C76.994 4.9808 77.0137 5.18095 77.0889 5.36285C77.164 5.54475 77.2914 5.70022 77.4547 5.80961C77.6181 5.91899 77.8102 5.97738 78.0066 5.97738C78.27 5.97708 78.5225 5.8721 78.7087 5.68548C78.8949 5.49885 78.9997 5.24583 79 4.9819ZM77.5099 4.9819C77.5099 4.88346 77.5391 4.78723 77.5936 4.70537C77.6482 4.62352 77.7258 4.55972 77.8165 4.52205C77.9073 4.48438 78.0072 4.47452 78.1035 4.49373C78.1999 4.51293 78.2884 4.56034 78.3578 4.62995C78.4273 4.69956 78.4746 4.78825 78.4938 4.8848C78.5129 4.98135 78.5031 5.08143 78.4655 5.17238C78.4279 5.26333 78.3643 5.34106 78.2826 5.39576C78.2009 5.45045 78.1049 5.47964 78.0066 5.47964C77.8749 5.47951 77.7487 5.42702 77.6556 5.33371C77.5624 5.24039 77.5101 5.11387 77.5099 4.9819ZM4.99338 2.99095C5.18985 2.99095 5.38191 2.93257 5.54527 2.82318C5.70863 2.7138 5.83595 2.55833 5.91114 2.37643C5.98633 2.19453 6.006 1.99437 5.96767 1.80127C5.92934 1.60816 5.83473 1.43079 5.6958 1.29157C5.55687 1.15235 5.37987 1.05754 5.18718 1.01913C4.99448 0.980718 4.79474 1.00043 4.61323 1.07578C4.43171 1.15112 4.27657 1.27871 4.16741 1.44242C4.05826 1.60612 4 1.79859 4 1.99548C4.0003 2.2594 4.10506 2.51243 4.29129 2.69905C4.47752 2.88567 4.73001 2.99065 4.99338 2.99095ZM4.99338 1.49774C5.09161 1.49774 5.18764 1.52693 5.26932 1.58162C5.351 1.63631 5.41466 1.71405 5.45226 1.805C5.48985 1.89595 5.49969 1.99603 5.48052 2.09258C5.46136 2.18913 5.41405 2.27782 5.34459 2.34743C5.27513 2.41704 5.18662 2.46444 5.09028 2.48365C4.99393 2.50285 4.89406 2.493 4.8033 2.45533C4.71254 2.41765 4.63497 2.35386 4.5804 2.272C4.52582 2.19015 4.49669 2.09392 4.49669 1.99548C4.49682 1.86351 4.54919 1.73698 4.64231 1.64367C4.73543 1.55035 4.86169 1.49787 4.99338 1.49774ZM20.8874 14.9367C21.0839 14.9367 21.2759 14.8783 21.4393 14.7689C21.6027 14.6595 21.73 14.504 21.8052 14.3221C21.8804 14.1402 21.9 13.9401 21.8617 13.747C21.8234 13.5539 21.7288 13.3765 21.5898 13.2373C21.4509 13.0981 21.2739 13.0032 21.0812 12.9648C20.8885 12.9264 20.6888 12.9461 20.5073 13.0215C20.3258 13.0968 20.1706 13.2244 20.0615 13.3881C19.9523 13.5518 19.894 13.7443 19.894 13.9412C19.8943 14.2051 19.9991 14.4581 20.1853 14.6448C20.3716 14.8314 20.6241 14.9364 20.8874 14.9367ZM20.8874 13.4434C20.9857 13.4434 21.0817 13.4726 21.1634 13.5273C21.245 13.582 21.3087 13.6598 21.3463 13.7507C21.3839 13.8417 21.3937 13.9417 21.3746 14.0383C21.3554 14.1348 21.3081 14.2235 21.2386 14.2931C21.1692 14.3627 21.0807 14.4101 20.9843 14.4294C20.888 14.4486 20.7881 14.4387 20.6973 14.401C20.6066 14.3634 20.529 14.2996 20.4744 14.2177C20.4199 14.1359 20.3907 14.0396 20.3907 13.9412C20.3909 13.8092 20.4432 13.6827 20.5364 13.5894C20.6295 13.4961 20.7557 13.4436 20.8874 13.4434ZM59.1325 8.46606C59.3289 8.46606 59.521 8.40768 59.6843 8.2983C59.8477 8.18891 59.975 8.03344 60.0502 7.85154C60.1254 7.66964 60.1451 7.46949 60.1067 7.27638C60.0684 7.08328 59.9738 6.9059 59.8349 6.76668C59.6959 6.62746 59.5189 6.53265 59.3263 6.49424C59.1336 6.45583 58.9338 6.47554 58.7523 6.55089C58.5708 6.62624 58.4156 6.75383 58.3065 6.91753C58.1973 7.08124 58.1391 7.2737 58.1391 7.47059C58.1394 7.73451 58.2441 7.98754 58.4304 8.17416C58.6166 8.36079 58.8691 8.46576 59.1325 8.46606ZM59.1325 6.97285C59.2307 6.97285 59.3267 7.00204 59.4084 7.05674C59.4901 7.11143 59.5537 7.18916 59.5913 7.28011C59.6289 7.37106 59.6388 7.47114 59.6196 7.56769C59.6004 7.66425 59.5531 7.75293 59.4837 7.82254C59.4142 7.89215 59.3257 7.93956 59.2294 7.95876C59.133 7.97797 59.0331 7.96811 58.9424 7.93044C58.8516 7.89277 58.774 7.82897 58.7195 7.74712C58.6649 7.66527 58.6358 7.56903 58.6358 7.47059C58.6359 7.33862 58.6883 7.2121 58.7814 7.11878C58.8745 7.02547 59.0008 6.97298 59.1325 6.97285Z"/>
</mask>
<path d="M37.5662 30.2321C37.6264 30.2557 37.6904 30.2675 37.755 30.267C37.8538 30.2671 37.9504 30.2378 38.0326 30.1829C38.1149 30.128 38.179 30.0498 38.2169 29.9584L39.7864 26.0561H42.8013V29.4158C42.8013 29.5478 42.8537 29.6744 42.9468 29.7678C43.04 29.8611 43.1663 29.9136 43.298 29.9136C43.4297 29.9136 43.5561 29.8611 43.6492 29.7678C43.7424 29.6744 43.7947 29.5478 43.7947 29.4158V26.0561H46.8543L48.4288 29.9584C48.4656 30.0506 48.5294 30.1295 48.6119 30.1846C48.6944 30.2397 48.7916 30.2684 48.8907 30.267C48.9537 30.2675 49.0161 30.2556 49.0745 30.2321C49.1349 30.2076 49.1898 30.1715 49.2362 30.1257C49.2826 30.0799 49.3195 30.0254 49.3449 29.9653C49.3703 29.9052 49.3836 29.8407 49.3841 29.7755C49.3845 29.7102 49.3722 29.6455 49.3477 29.5851L47.654 25.3742C47.614 25.2801 47.5467 25.2003 47.4607 25.1453C47.3747 25.0902 47.2742 25.0624 47.1722 25.0656C47.1672 25.0656 47.1573 25.0606 47.1523 25.0606H43.7947V21.8353C44.3596 21.7039 44.8606 21.3781 45.2103 20.9145L50.3957 21.0837C50.6372 21.7602 51.0811 22.3456 51.6669 22.7598C52.2528 23.1741 52.9519 23.397 53.6689 23.3982C53.9349 23.3974 54.1999 23.3657 54.4586 23.3036L59.8924 27.5543C59.8874 27.6638 59.8775 27.7683 59.8775 27.8778C59.8777 28.5093 60.0193 29.1327 60.2918 29.7021C60.5643 30.2715 60.9607 30.7724 61.452 31.1679L60.6523 44.8009H58.3874V39.3258C58.387 39.1939 58.3346 39.0675 58.2415 38.9743C58.1484 38.881 58.0223 38.8285 57.8907 38.8281H53.3361C53.2432 38.8286 53.1522 38.8549 53.0733 38.9041C52.9943 38.9533 52.9306 39.0235 52.8891 39.1068L50.1275 44.8009H48.702C48.3072 44.8021 47.9288 44.9598 47.6496 45.2395C47.3704 45.5193 47.2131 45.8985 47.2119 46.2941V53.2625C47.2131 53.6581 47.3704 54.0372 47.6496 54.317C47.9288 54.5968 48.3072 54.7545 48.702 54.7557H49.5265C49.6318 55.1148 49.8503 55.4301 50.1493 55.6545C50.4484 55.8788 50.8119 56 51.1854 56C51.559 56 51.9225 55.8788 52.2215 55.6545C52.5206 55.4301 52.7391 55.1148 52.8444 54.7557H53.5C53.6053 55.1148 53.8238 55.4301 54.1229 55.6545C54.4219 55.8788 54.7854 56 55.159 56C55.5325 56 55.896 55.8788 56.195 55.6545C56.4941 55.4301 56.7126 55.1148 56.8179 54.7557H57.4735C57.5788 55.1148 57.7973 55.4301 58.0964 55.6545C58.3954 55.8788 58.7589 56 59.1325 56C59.506 56 59.8695 55.8788 60.1686 55.6545C60.4676 55.4301 60.6861 55.1148 60.7914 54.7557H61.447C61.5523 55.1148 61.7708 55.4301 62.0699 55.6545C62.3689 55.8788 62.7324 56 63.106 56C63.4795 56 63.843 55.8788 64.1421 55.6545C64.4411 55.4301 64.6596 55.1148 64.7649 54.7557H65.4205C65.5258 55.1148 65.7443 55.4301 66.0434 55.6545C66.3424 55.8788 66.7059 56 67.0795 56C67.453 56 67.8165 55.8788 68.1156 55.6545C68.4146 55.4301 68.6332 55.1148 68.7384 54.7557H72.543C72.9379 54.7545 73.3162 54.5968 73.5954 54.317C73.8746 54.0372 74.032 53.6581 74.0331 53.2625V46.2941C74.032 45.8985 73.8746 45.5193 73.5954 45.2395C73.3162 44.9598 72.9379 44.8021 72.543 44.8009H68.5397L67.6805 30.1127C68.0795 29.4726 68.3003 28.7371 68.3198 27.9826C68.3393 27.2281 68.1568 26.4822 67.7913 25.8223C67.4258 25.1624 66.8906 24.6126 66.2413 24.2301C65.5921 23.8476 64.8525 23.6463 64.0993 23.6471C63.8377 23.649 63.5768 23.674 63.3195 23.7217L57.106 19.4014C57.0069 18.7317 56.7152 18.1054 56.2665 17.5993C55.8179 17.0932 55.2317 16.7291 54.5797 16.5516C53.9278 16.3742 53.2383 16.391 52.5958 16.6001C51.9532 16.8092 51.3854 17.2015 50.9619 17.729L45.2103 17.9181C44.9669 17.5953 44.6486 17.337 44.283 17.1656C43.9173 16.9942 43.5155 16.9149 43.1123 16.9346C42.7091 16.9543 42.3168 17.0724 41.9695 17.2787C41.6223 17.4849 41.3306 17.7731 41.1197 18.1181C40.9089 18.463 40.7854 18.8544 40.7599 19.2581C40.7344 19.6618 40.8078 20.0657 40.9735 20.4345C41.1393 20.8034 41.3924 21.1261 41.711 21.3745C42.0295 21.623 42.4038 21.7897 42.8013 21.8602V25.0606H39.4536C39.3542 25.0605 39.2569 25.0904 39.1746 25.1463C39.0922 25.2022 39.0285 25.2816 38.9917 25.3742L37.293 29.5851C37.2686 29.6455 37.2562 29.7102 37.2567 29.7755C37.2572 29.8407 37.2705 29.9052 37.2958 29.9653C37.3212 30.0254 37.3581 30.0799 37.4045 30.1257C37.4509 30.1715 37.5059 30.2076 37.5662 30.2321ZM53.649 39.8235H57.394V44.8009H51.2351L53.649 39.8235ZM51.1854 55.0045C51.0381 55.0045 50.894 54.9607 50.7715 54.8787C50.649 54.7967 50.5535 54.6801 50.4971 54.5436C50.4407 54.4072 50.426 54.2571 50.4547 54.1123C50.4835 53.9674 50.5544 53.8344 50.6586 53.73C50.7628 53.6256 50.8956 53.5545 51.0401 53.5257C51.1846 53.4969 51.3344 53.5116 51.4705 53.5681C51.6067 53.6247 51.723 53.7204 51.8049 53.8431C51.8868 53.9659 51.9305 54.1103 51.9305 54.2579C51.9306 54.356 51.9114 54.4532 51.874 54.5438C51.8366 54.6344 51.7817 54.7168 51.7125 54.7861C51.6433 54.8555 51.5611 54.9105 51.4707 54.948C51.3802 54.9854 51.2833 55.0047 51.1854 55.0045ZM55.1589 55.0045C55.0116 55.0045 54.8675 54.9607 54.745 54.8787C54.6225 54.7967 54.527 54.6801 54.4706 54.5436C54.4142 54.4072 54.3995 54.2571 54.4282 54.1123C54.457 53.9674 54.5279 53.8344 54.6321 53.73C54.7363 53.6256 54.8691 53.5545 55.0136 53.5257C55.1581 53.4969 55.3079 53.5116 55.4441 53.5681C55.5802 53.6247 55.6965 53.7204 55.7784 53.8431C55.8603 53.9659 55.904 54.1103 55.904 54.2579C55.9041 54.356 55.8849 54.4532 55.8475 54.5438C55.8101 54.6344 55.7553 54.7168 55.6861 54.7861C55.6168 54.8555 55.5347 54.9105 55.4442 54.948C55.3538 54.9854 55.2568 55.0047 55.1589 55.0045ZM59.1325 55.0045C58.9851 55.0045 58.8411 54.9607 58.7185 54.8787C58.596 54.7967 58.5005 54.6801 58.4441 54.5436C58.3877 54.4072 58.373 54.2571 58.4017 54.1123C58.4305 53.9674 58.5014 53.8344 58.6056 53.73C58.7098 53.6256 58.8426 53.5545 58.9871 53.5257C59.1316 53.4969 59.2814 53.5116 59.4176 53.5681C59.5537 53.6247 59.6701 53.7204 59.7519 53.8431C59.8338 53.9659 59.8775 54.1103 59.8775 54.2579C59.8776 54.356 59.8584 54.4532 59.821 54.5438C59.7836 54.6344 59.7288 54.7168 59.6596 54.7861C59.5904 54.8555 59.5082 54.9105 59.4177 54.948C59.3273 54.9854 59.2303 55.0047 59.1325 55.0045ZM63.106 55.0045C62.9586 55.0045 62.8146 54.9607 62.692 54.8787C62.5695 54.7967 62.474 54.6801 62.4176 54.5436C62.3613 54.4072 62.3465 54.2571 62.3752 54.1123C62.404 53.9674 62.4749 53.8344 62.5791 53.73C62.6833 53.6256 62.8161 53.5545 62.9606 53.5257C63.1051 53.4969 63.2549 53.5116 63.3911 53.5681C63.5272 53.6247 63.6436 53.7204 63.7254 53.8431C63.8073 53.9659 63.851 54.1103 63.851 54.2579C63.8511 54.356 63.8319 54.4532 63.7945 54.5438C63.7572 54.6344 63.7023 54.7168 63.6331 54.7861C63.5639 54.8555 63.4817 54.9105 63.3912 54.948C63.3008 54.9854 63.2038 55.0047 63.106 55.0045ZM67.0795 55.0045C66.9321 55.0045 66.7881 54.9607 66.6656 54.8787C66.543 54.7967 66.4475 54.6801 66.3912 54.5436C66.3348 54.4072 66.32 54.2571 66.3488 54.1123C66.3775 53.9674 66.4485 53.8344 66.5527 53.73C66.6569 53.6256 66.7896 53.5545 66.9341 53.5257C67.0786 53.4969 67.2284 53.5116 67.3646 53.5681C67.5007 53.6247 67.6171 53.7204 67.6989 53.8431C67.7808 53.9659 67.8245 54.1103 67.8245 54.2579C67.8246 54.356 67.8055 54.4532 67.7681 54.5438C67.7307 54.6344 67.6758 54.7168 67.6066 54.7861C67.5374 54.8555 67.4552 54.9105 67.3647 54.948C67.2743 54.9854 67.1773 55.0047 67.0795 55.0045ZM72.543 45.7964C72.6747 45.7968 72.8008 45.8493 72.8938 45.9426C72.9869 46.0359 73.0393 46.1622 73.0397 46.2941V53.2625C73.0393 53.3943 72.9869 53.5207 72.8938 53.614C72.8008 53.7072 72.6747 53.7598 72.543 53.7602H68.7384C68.6331 53.401 68.4146 53.0857 68.1156 52.8614C67.8165 52.6371 67.453 52.5159 67.0795 52.5159C66.7059 52.5159 66.3424 52.6371 66.0434 52.8614C65.7443 53.0857 65.5258 53.401 65.4205 53.7602H64.7649C64.6596 53.401 64.4411 53.0857 64.142 52.8614C63.843 52.6371 63.4795 52.5159 63.1059 52.5159C62.7324 52.5159 62.3689 52.6371 62.0699 52.8614C61.7708 53.0857 61.5523 53.401 61.447 53.7602H60.7914C60.6861 53.401 60.4676 53.0857 60.1685 52.8614C59.8695 52.6371 59.506 52.5159 59.1324 52.5159C58.7589 52.5159 58.3954 52.6371 58.0963 52.8614C57.7973 53.0857 57.5788 53.401 57.4735 53.7602H56.8179C56.7126 53.401 56.4941 53.0857 56.195 52.8614C55.896 52.6371 55.5325 52.5159 55.1589 52.5159C54.7854 52.5159 54.4219 52.6371 54.1228 52.8614C53.8238 53.0857 53.6053 53.401 53.5 53.7602H52.8444C52.7391 53.401 52.5206 53.0857 52.2215 52.8614C51.9225 52.6371 51.559 52.5159 51.1854 52.5159C50.8119 52.5159 50.4484 52.6371 50.1493 52.8614C49.8503 53.0857 49.6318 53.401 49.5265 53.7602H48.702C48.5704 53.7598 48.4443 53.7072 48.3512 53.614C48.2581 53.5207 48.2057 53.3943 48.2053 53.2625V50.276H62.6093C62.741 50.276 62.8673 50.2236 62.9605 50.1302C63.0536 50.0369 63.106 49.9103 63.106 49.7783C63.106 49.6463 63.0536 49.5197 62.9605 49.4263C62.8673 49.333 62.741 49.2805 62.6093 49.2805H48.2053V46.2941C48.2057 46.1622 48.2581 46.0359 48.3512 45.9426C48.4443 45.8493 48.5704 45.7968 48.702 45.7964H72.543ZM61.6457 44.8009L62.4106 31.7552C62.9434 31.9876 63.5182 32.1079 64.0993 32.1086C65.0634 32.1092 65.9983 31.777 66.7467 31.1679L67.5464 44.8009H61.6457ZM64.0993 24.6425C64.7379 24.6425 65.3621 24.8323 65.893 25.1878C66.4239 25.5433 66.8377 26.0486 67.0821 26.6397C67.3264 27.2309 67.3904 27.8814 67.2658 28.509C67.1412 29.1366 66.8337 29.7131 66.3822 30.1655C65.9307 30.618 65.3554 30.9261 64.7292 31.051C64.1029 31.1758 63.4538 31.1117 62.8639 30.8669C62.2739 30.622 61.7697 30.2073 61.415 29.6753C61.0602 29.1432 60.8709 28.5177 60.8709 27.8778C60.8725 27.0203 61.2132 26.1983 61.8183 25.592C62.4234 24.9856 63.2436 24.6442 64.0993 24.6425ZM57.0762 20.5959L62.1573 24.1249C61.2082 24.6216 60.481 25.4588 60.1209 26.4692L55.5116 22.8656C55.9125 22.6136 56.258 22.2824 56.527 21.8921C56.796 21.5019 56.9828 21.0609 57.0762 20.5959ZM53.6689 17.4253C54.1601 17.4253 54.6402 17.5713 55.0486 17.8448C55.457 18.1182 55.7753 18.5069 55.9633 18.9616C56.1512 19.4164 56.2004 19.9168 56.1046 20.3995C56.0088 20.8823 55.7723 21.3257 55.4249 21.6738C55.0776 22.0218 54.6351 22.2589 54.1534 22.3549C53.6716 22.4509 53.1723 22.4016 52.7185 22.2133C52.2647 22.0249 51.8769 21.7059 51.604 21.2967C51.3311 20.8874 51.1854 20.4062 51.1854 19.914C51.1857 19.2541 51.4474 18.6212 51.9131 18.1545C52.3788 17.6879 53.0103 17.4256 53.6689 17.4253ZM45.6672 18.8986L50.3957 18.7443C50.2619 19.1198 50.193 19.5154 50.1921 19.914C50.1921 19.9688 50.197 20.0235 50.202 20.0833L45.6672 19.9339C45.7401 19.5927 45.7401 19.2399 45.6672 18.8986ZM41.7483 19.4163C41.7483 19.121 41.8357 18.8323 41.9995 18.5867C42.1632 18.3412 42.3959 18.1498 42.6682 18.0367C42.9405 17.9237 43.2401 17.8942 43.5291 17.9518C43.8182 18.0094 44.0837 18.1516 44.292 18.3604C44.5004 18.5693 44.6423 18.8353 44.6998 19.125C44.7573 19.4146 44.7278 19.7149 44.6151 19.9877C44.5023 20.2606 44.3113 20.4938 44.0662 20.6579C43.8212 20.8219 43.5331 20.9095 43.2384 20.9095C42.8436 20.9083 42.4652 20.7507 42.186 20.4709C41.9069 20.1911 41.7495 19.812 41.7483 19.4163ZM79 4.9819C79 4.78502 78.9417 4.59255 78.8326 4.42885C78.7234 4.26514 78.5683 4.13755 78.3868 4.0622C78.2053 3.98686 78.0055 3.96714 77.8128 4.00555C77.6201 4.04396 77.4431 4.13877 77.3042 4.27799C77.1653 4.41721 77.0707 4.59459 77.0323 4.78769C76.994 4.9808 77.0137 5.18095 77.0889 5.36285C77.164 5.54475 77.2914 5.70022 77.4547 5.80961C77.6181 5.91899 77.8102 5.97738 78.0066 5.97738C78.27 5.97708 78.5225 5.8721 78.7087 5.68548C78.8949 5.49885 78.9997 5.24583 79 4.9819ZM77.5099 4.9819C77.5099 4.88346 77.5391 4.78723 77.5936 4.70537C77.6482 4.62352 77.7258 4.55972 77.8165 4.52205C77.9073 4.48438 78.0072 4.47452 78.1035 4.49373C78.1999 4.51293 78.2884 4.56034 78.3578 4.62995C78.4273 4.69956 78.4746 4.78825 78.4938 4.8848C78.5129 4.98135 78.5031 5.08143 78.4655 5.17238C78.4279 5.26333 78.3643 5.34106 78.2826 5.39576C78.2009 5.45045 78.1049 5.47964 78.0066 5.47964C77.8749 5.47951 77.7487 5.42702 77.6556 5.33371C77.5624 5.24039 77.5101 5.11387 77.5099 4.9819ZM4.99338 2.99095C5.18985 2.99095 5.38191 2.93257 5.54527 2.82318C5.70863 2.7138 5.83595 2.55833 5.91114 2.37643C5.98633 2.19453 6.006 1.99437 5.96767 1.80127C5.92934 1.60816 5.83473 1.43079 5.6958 1.29157C5.55687 1.15235 5.37987 1.05754 5.18718 1.01913C4.99448 0.980718 4.79474 1.00043 4.61323 1.07578C4.43171 1.15112 4.27657 1.27871 4.16741 1.44242C4.05826 1.60612 4 1.79859 4 1.99548C4.0003 2.2594 4.10506 2.51243 4.29129 2.69905C4.47752 2.88567 4.73001 2.99065 4.99338 2.99095ZM4.99338 1.49774C5.09161 1.49774 5.18764 1.52693 5.26932 1.58162C5.351 1.63631 5.41466 1.71405 5.45226 1.805C5.48985 1.89595 5.49969 1.99603 5.48052 2.09258C5.46136 2.18913 5.41405 2.27782 5.34459 2.34743C5.27513 2.41704 5.18662 2.46444 5.09028 2.48365C4.99393 2.50285 4.89406 2.493 4.8033 2.45533C4.71254 2.41765 4.63497 2.35386 4.5804 2.272C4.52582 2.19015 4.49669 2.09392 4.49669 1.99548C4.49682 1.86351 4.54919 1.73698 4.64231 1.64367C4.73543 1.55035 4.86169 1.49787 4.99338 1.49774ZM20.8874 14.9367C21.0839 14.9367 21.2759 14.8783 21.4393 14.7689C21.6027 14.6595 21.73 14.504 21.8052 14.3221C21.8804 14.1402 21.9 13.9401 21.8617 13.747C21.8234 13.5539 21.7288 13.3765 21.5898 13.2373C21.4509 13.0981 21.2739 13.0032 21.0812 12.9648C20.8885 12.9264 20.6888 12.9461 20.5073 13.0215C20.3258 13.0968 20.1706 13.2244 20.0615 13.3881C19.9523 13.5518 19.894 13.7443 19.894 13.9412C19.8943 14.2051 19.9991 14.4581 20.1853 14.6448C20.3716 14.8314 20.6241 14.9364 20.8874 14.9367ZM20.8874 13.4434C20.9857 13.4434 21.0817 13.4726 21.1634 13.5273C21.245 13.582 21.3087 13.6598 21.3463 13.7507C21.3839 13.8417 21.3937 13.9417 21.3746 14.0383C21.3554 14.1348 21.3081 14.2235 21.2386 14.2931C21.1692 14.3627 21.0807 14.4101 20.9843 14.4294C20.888 14.4486 20.7881 14.4387 20.6973 14.401C20.6066 14.3634 20.529 14.2996 20.4744 14.2177C20.4199 14.1359 20.3907 14.0396 20.3907 13.9412C20.3909 13.8092 20.4432 13.6827 20.5364 13.5894C20.6295 13.4961 20.7557 13.4436 20.8874 13.4434ZM59.1325 8.46606C59.3289 8.46606 59.521 8.40768 59.6843 8.2983C59.8477 8.18891 59.975 8.03344 60.0502 7.85154C60.1254 7.66964 60.1451 7.46949 60.1067 7.27638C60.0684 7.08328 59.9738 6.9059 59.8349 6.76668C59.6959 6.62746 59.5189 6.53265 59.3263 6.49424C59.1336 6.45583 58.9338 6.47554 58.7523 6.55089C58.5708 6.62624 58.4156 6.75383 58.3065 6.91753C58.1973 7.08124 58.1391 7.2737 58.1391 7.47059C58.1394 7.73451 58.2441 7.98754 58.4304 8.17416C58.6166 8.36079 58.8691 8.46576 59.1325 8.46606ZM59.1325 6.97285C59.2307 6.97285 59.3267 7.00204 59.4084 7.05674C59.4901 7.11143 59.5537 7.18916 59.5913 7.28011C59.6289 7.37106 59.6388 7.47114 59.6196 7.56769C59.6004 7.66425 59.5531 7.75293 59.4837 7.82254C59.4142 7.89215 59.3257 7.93956 59.2294 7.95876C59.133 7.97797 59.0331 7.96811 58.9424 7.93044C58.8516 7.89277 58.774 7.82897 58.7195 7.74712C58.6649 7.66527 58.6358 7.56903 58.6358 7.47059C58.6359 7.33862 58.6883 7.2121 58.7814 7.11878C58.8745 7.02547 59.0008 6.97298 59.1325 6.97285Z" fill="#2D4356"/>
<path d="M37.5662 30.2321C37.6264 30.2557 37.6904 30.2675 37.755 30.267C37.8538 30.2671 37.9504 30.2378 38.0326 30.1829C38.1149 30.128 38.179 30.0498 38.2169 29.9584L39.7864 26.0561H42.8013V29.4158C42.8013 29.5478 42.8537 29.6744 42.9468 29.7678C43.04 29.8611 43.1663 29.9136 43.298 29.9136C43.4297 29.9136 43.5561 29.8611 43.6492 29.7678C43.7424 29.6744 43.7947 29.5478 43.7947 29.4158V26.0561H46.8543L48.4288 29.9584C48.4656 30.0506 48.5294 30.1295 48.6119 30.1846C48.6944 30.2397 48.7916 30.2684 48.8907 30.267C48.9537 30.2675 49.0161 30.2556 49.0745 30.2321C49.1349 30.2076 49.1898 30.1715 49.2362 30.1257C49.2826 30.0799 49.3195 30.0254 49.3449 29.9653C49.3703 29.9052 49.3836 29.8407 49.3841 29.7755C49.3845 29.7102 49.3722 29.6455 49.3477 29.5851L47.654 25.3742C47.614 25.2801 47.5467 25.2003 47.4607 25.1453C47.3747 25.0902 47.2742 25.0624 47.1722 25.0656C47.1672 25.0656 47.1573 25.0606 47.1523 25.0606H43.7947V21.8353C44.3596 21.7039 44.8606 21.3781 45.2103 20.9145L50.3957 21.0837C50.6372 21.7602 51.0811 22.3456 51.6669 22.7598C52.2528 23.1741 52.9519 23.397 53.6689 23.3982C53.9349 23.3974 54.1999 23.3657 54.4586 23.3036L59.8924 27.5543C59.8874 27.6638 59.8775 27.7683 59.8775 27.8778C59.8777 28.5093 60.0193 29.1327 60.2918 29.7021C60.5643 30.2715 60.9607 30.7724 61.452 31.1679L60.6523 44.8009H58.3874V39.3258C58.387 39.1939 58.3346 39.0675 58.2415 38.9743C58.1484 38.881 58.0223 38.8285 57.8907 38.8281H53.3361C53.2432 38.8286 53.1522 38.8549 53.0733 38.9041C52.9943 38.9533 52.9306 39.0235 52.8891 39.1068L50.1275 44.8009H48.702C48.3072 44.8021 47.9288 44.9598 47.6496 45.2395C47.3704 45.5193 47.2131 45.8985 47.2119 46.2941V53.2625C47.2131 53.6581 47.3704 54.0372 47.6496 54.317C47.9288 54.5968 48.3072 54.7545 48.702 54.7557H49.5265C49.6318 55.1148 49.8503 55.4301 50.1493 55.6545C50.4484 55.8788 50.8119 56 51.1854 56C51.559 56 51.9225 55.8788 52.2215 55.6545C52.5206 55.4301 52.7391 55.1148 52.8444 54.7557H53.5C53.6053 55.1148 53.8238 55.4301 54.1229 55.6545C54.4219 55.8788 54.7854 56 55.159 56C55.5325 56 55.896 55.8788 56.195 55.6545C56.4941 55.4301 56.7126 55.1148 56.8179 54.7557H57.4735C57.5788 55.1148 57.7973 55.4301 58.0964 55.6545C58.3954 55.8788 58.7589 56 59.1325 56C59.506 56 59.8695 55.8788 60.1686 55.6545C60.4676 55.4301 60.6861 55.1148 60.7914 54.7557H61.447C61.5523 55.1148 61.7708 55.4301 62.0699 55.6545C62.3689 55.8788 62.7324 56 63.106 56C63.4795 56 63.843 55.8788 64.1421 55.6545C64.4411 55.4301 64.6596 55.1148 64.7649 54.7557H65.4205C65.5258 55.1148 65.7443 55.4301 66.0434 55.6545C66.3424 55.8788 66.7059 56 67.0795 56C67.453 56 67.8165 55.8788 68.1156 55.6545C68.4146 55.4301 68.6332 55.1148 68.7384 54.7557H72.543C72.9379 54.7545 73.3162 54.5968 73.5954 54.317C73.8746 54.0372 74.032 53.6581 74.0331 53.2625V46.2941C74.032 45.8985 73.8746 45.5193 73.5954 45.2395C73.3162 44.9598 72.9379 44.8021 72.543 44.8009H68.5397L67.6805 30.1127C68.0795 29.4726 68.3003 28.7371 68.3198 27.9826C68.3393 27.2281 68.1568 26.4822 67.7913 25.8223C67.4258 25.1624 66.8906 24.6126 66.2413 24.2301C65.5921 23.8476 64.8525 23.6463 64.0993 23.6471C63.8377 23.649 63.5768 23.674 63.3195 23.7217L57.106 19.4014C57.0069 18.7317 56.7152 18.1054 56.2665 17.5993C55.8179 17.0932 55.2317 16.7291 54.5797 16.5516C53.9278 16.3742 53.2383 16.391 52.5958 16.6001C51.9532 16.8092 51.3854 17.2015 50.9619 17.729L45.2103 17.9181C44.9669 17.5953 44.6486 17.337 44.283 17.1656C43.9173 16.9942 43.5155 16.9149 43.1123 16.9346C42.7091 16.9543 42.3168 17.0724 41.9695 17.2787C41.6223 17.4849 41.3306 17.7731 41.1197 18.1181C40.9089 18.463 40.7854 18.8544 40.7599 19.2581C40.7344 19.6618 40.8078 20.0657 40.9735 20.4345C41.1393 20.8034 41.3924 21.1261 41.711 21.3745C42.0295 21.623 42.4038 21.7897 42.8013 21.8602V25.0606H39.4536C39.3542 25.0605 39.2569 25.0904 39.1746 25.1463C39.0922 25.2022 39.0285 25.2816 38.9917 25.3742L37.293 29.5851C37.2686 29.6455 37.2562 29.7102 37.2567 29.7755C37.2572 29.8407 37.2705 29.9052 37.2958 29.9653C37.3212 30.0254 37.3581 30.0799 37.4045 30.1257C37.4509 30.1715 37.5059 30.2076 37.5662 30.2321ZM53.649 39.8235H57.394V44.8009H51.2351L53.649 39.8235ZM51.1854 55.0045C51.0381 55.0045 50.894 54.9607 50.7715 54.8787C50.649 54.7967 50.5535 54.6801 50.4971 54.5436C50.4407 54.4072 50.426 54.2571 50.4547 54.1123C50.4835 53.9674 50.5544 53.8344 50.6586 53.73C50.7628 53.6256 50.8956 53.5545 51.0401 53.5257C51.1846 53.4969 51.3344 53.5116 51.4705 53.5681C51.6067 53.6247 51.723 53.7204 51.8049 53.8431C51.8868 53.9659 51.9305 54.1103 51.9305 54.2579C51.9306 54.356 51.9114 54.4532 51.874 54.5438C51.8366 54.6344 51.7817 54.7168 51.7125 54.7861C51.6433 54.8555 51.5611 54.9105 51.4707 54.948C51.3802 54.9854 51.2833 55.0047 51.1854 55.0045ZM55.1589 55.0045C55.0116 55.0045 54.8675 54.9607 54.745 54.8787C54.6225 54.7967 54.527 54.6801 54.4706 54.5436C54.4142 54.4072 54.3995 54.2571 54.4282 54.1123C54.457 53.9674 54.5279 53.8344 54.6321 53.73C54.7363 53.6256 54.8691 53.5545 55.0136 53.5257C55.1581 53.4969 55.3079 53.5116 55.4441 53.5681C55.5802 53.6247 55.6965 53.7204 55.7784 53.8431C55.8603 53.9659 55.904 54.1103 55.904 54.2579C55.9041 54.356 55.8849 54.4532 55.8475 54.5438C55.8101 54.6344 55.7553 54.7168 55.6861 54.7861C55.6168 54.8555 55.5347 54.9105 55.4442 54.948C55.3538 54.9854 55.2568 55.0047 55.1589 55.0045ZM59.1325 55.0045C58.9851 55.0045 58.8411 54.9607 58.7185 54.8787C58.596 54.7967 58.5005 54.6801 58.4441 54.5436C58.3877 54.4072 58.373 54.2571 58.4017 54.1123C58.4305 53.9674 58.5014 53.8344 58.6056 53.73C58.7098 53.6256 58.8426 53.5545 58.9871 53.5257C59.1316 53.4969 59.2814 53.5116 59.4176 53.5681C59.5537 53.6247 59.6701 53.7204 59.7519 53.8431C59.8338 53.9659 59.8775 54.1103 59.8775 54.2579C59.8776 54.356 59.8584 54.4532 59.821 54.5438C59.7836 54.6344 59.7288 54.7168 59.6596 54.7861C59.5904 54.8555 59.5082 54.9105 59.4177 54.948C59.3273 54.9854 59.2303 55.0047 59.1325 55.0045ZM63.106 55.0045C62.9586 55.0045 62.8146 54.9607 62.692 54.8787C62.5695 54.7967 62.474 54.6801 62.4176 54.5436C62.3613 54.4072 62.3465 54.2571 62.3752 54.1123C62.404 53.9674 62.4749 53.8344 62.5791 53.73C62.6833 53.6256 62.8161 53.5545 62.9606 53.5257C63.1051 53.4969 63.2549 53.5116 63.3911 53.5681C63.5272 53.6247 63.6436 53.7204 63.7254 53.8431C63.8073 53.9659 63.851 54.1103 63.851 54.2579C63.8511 54.356 63.8319 54.4532 63.7945 54.5438C63.7572 54.6344 63.7023 54.7168 63.6331 54.7861C63.5639 54.8555 63.4817 54.9105 63.3912 54.948C63.3008 54.9854 63.2038 55.0047 63.106 55.0045ZM67.0795 55.0045C66.9321 55.0045 66.7881 54.9607 66.6656 54.8787C66.543 54.7967 66.4475 54.6801 66.3912 54.5436C66.3348 54.4072 66.32 54.2571 66.3488 54.1123C66.3775 53.9674 66.4485 53.8344 66.5527 53.73C66.6569 53.6256 66.7896 53.5545 66.9341 53.5257C67.0786 53.4969 67.2284 53.5116 67.3646 53.5681C67.5007 53.6247 67.6171 53.7204 67.6989 53.8431C67.7808 53.9659 67.8245 54.1103 67.8245 54.2579C67.8246 54.356 67.8055 54.4532 67.7681 54.5438C67.7307 54.6344 67.6758 54.7168 67.6066 54.7861C67.5374 54.8555 67.4552 54.9105 67.3647 54.948C67.2743 54.9854 67.1773 55.0047 67.0795 55.0045ZM72.543 45.7964C72.6747 45.7968 72.8008 45.8493 72.8938 45.9426C72.9869 46.0359 73.0393 46.1622 73.0397 46.2941V53.2625C73.0393 53.3943 72.9869 53.5207 72.8938 53.614C72.8008 53.7072 72.6747 53.7598 72.543 53.7602H68.7384C68.6331 53.401 68.4146 53.0857 68.1156 52.8614C67.8165 52.6371 67.453 52.5159 67.0795 52.5159C66.7059 52.5159 66.3424 52.6371 66.0434 52.8614C65.7443 53.0857 65.5258 53.401 65.4205 53.7602H64.7649C64.6596 53.401 64.4411 53.0857 64.142 52.8614C63.843 52.6371 63.4795 52.5159 63.1059 52.5159C62.7324 52.5159 62.3689 52.6371 62.0699 52.8614C61.7708 53.0857 61.5523 53.401 61.447 53.7602H60.7914C60.6861 53.401 60.4676 53.0857 60.1685 52.8614C59.8695 52.6371 59.506 52.5159 59.1324 52.5159C58.7589 52.5159 58.3954 52.6371 58.0963 52.8614C57.7973 53.0857 57.5788 53.401 57.4735 53.7602H56.8179C56.7126 53.401 56.4941 53.0857 56.195 52.8614C55.896 52.6371 55.5325 52.5159 55.1589 52.5159C54.7854 52.5159 54.4219 52.6371 54.1228 52.8614C53.8238 53.0857 53.6053 53.401 53.5 53.7602H52.8444C52.7391 53.401 52.5206 53.0857 52.2215 52.8614C51.9225 52.6371 51.559 52.5159 51.1854 52.5159C50.8119 52.5159 50.4484 52.6371 50.1493 52.8614C49.8503 53.0857 49.6318 53.401 49.5265 53.7602H48.702C48.5704 53.7598 48.4443 53.7072 48.3512 53.614C48.2581 53.5207 48.2057 53.3943 48.2053 53.2625V50.276H62.6093C62.741 50.276 62.8673 50.2236 62.9605 50.1302C63.0536 50.0369 63.106 49.9103 63.106 49.7783C63.106 49.6463 63.0536 49.5197 62.9605 49.4263C62.8673 49.333 62.741 49.2805 62.6093 49.2805H48.2053V46.2941C48.2057 46.1622 48.2581 46.0359 48.3512 45.9426C48.4443 45.8493 48.5704 45.7968 48.702 45.7964H72.543ZM61.6457 44.8009L62.4106 31.7552C62.9434 31.9876 63.5182 32.1079 64.0993 32.1086C65.0634 32.1092 65.9983 31.777 66.7467 31.1679L67.5464 44.8009H61.6457ZM64.0993 24.6425C64.7379 24.6425 65.3621 24.8323 65.893 25.1878C66.4239 25.5433 66.8377 26.0486 67.0821 26.6397C67.3264 27.2309 67.3904 27.8814 67.2658 28.509C67.1412 29.1366 66.8337 29.7131 66.3822 30.1655C65.9307 30.618 65.3554 30.9261 64.7292 31.051C64.1029 31.1758 63.4538 31.1117 62.8639 30.8669C62.2739 30.622 61.7697 30.2073 61.415 29.6753C61.0602 29.1432 60.8709 28.5177 60.8709 27.8778C60.8725 27.0203 61.2132 26.1983 61.8183 25.592C62.4234 24.9856 63.2436 24.6442 64.0993 24.6425ZM57.0762 20.5959L62.1573 24.1249C61.2082 24.6216 60.481 25.4588 60.1209 26.4692L55.5116 22.8656C55.9125 22.6136 56.258 22.2824 56.527 21.8921C56.796 21.5019 56.9828 21.0609 57.0762 20.5959ZM53.6689 17.4253C54.1601 17.4253 54.6402 17.5713 55.0486 17.8448C55.457 18.1182 55.7753 18.5069 55.9633 18.9616C56.1512 19.4164 56.2004 19.9168 56.1046 20.3995C56.0088 20.8823 55.7723 21.3257 55.4249 21.6738C55.0776 22.0218 54.6351 22.2589 54.1534 22.3549C53.6716 22.4509 53.1723 22.4016 52.7185 22.2133C52.2647 22.0249 51.8769 21.7059 51.604 21.2967C51.3311 20.8874 51.1854 20.4062 51.1854 19.914C51.1857 19.2541 51.4474 18.6212 51.9131 18.1545C52.3788 17.6879 53.0103 17.4256 53.6689 17.4253ZM45.6672 18.8986L50.3957 18.7443C50.2619 19.1198 50.193 19.5154 50.1921 19.914C50.1921 19.9688 50.197 20.0235 50.202 20.0833L45.6672 19.9339C45.7401 19.5927 45.7401 19.2399 45.6672 18.8986ZM41.7483 19.4163C41.7483 19.121 41.8357 18.8323 41.9995 18.5867C42.1632 18.3412 42.3959 18.1498 42.6682 18.0367C42.9405 17.9237 43.2401 17.8942 43.5291 17.9518C43.8182 18.0094 44.0837 18.1516 44.292 18.3604C44.5004 18.5693 44.6423 18.8353 44.6998 19.125C44.7573 19.4146 44.7278 19.7149 44.6151 19.9877C44.5023 20.2606 44.3113 20.4938 44.0662 20.6579C43.8212 20.8219 43.5331 20.9095 43.2384 20.9095C42.8436 20.9083 42.4652 20.7507 42.186 20.4709C41.9069 20.1911 41.7495 19.812 41.7483 19.4163ZM79 4.9819C79 4.78502 78.9417 4.59255 78.8326 4.42885C78.7234 4.26514 78.5683 4.13755 78.3868 4.0622C78.2053 3.98686 78.0055 3.96714 77.8128 4.00555C77.6201 4.04396 77.4431 4.13877 77.3042 4.27799C77.1653 4.41721 77.0707 4.59459 77.0323 4.78769C76.994 4.9808 77.0137 5.18095 77.0889 5.36285C77.164 5.54475 77.2914 5.70022 77.4547 5.80961C77.6181 5.91899 77.8102 5.97738 78.0066 5.97738C78.27 5.97708 78.5225 5.8721 78.7087 5.68548C78.8949 5.49885 78.9997 5.24583 79 4.9819ZM77.5099 4.9819C77.5099 4.88346 77.5391 4.78723 77.5936 4.70537C77.6482 4.62352 77.7258 4.55972 77.8165 4.52205C77.9073 4.48438 78.0072 4.47452 78.1035 4.49373C78.1999 4.51293 78.2884 4.56034 78.3578 4.62995C78.4273 4.69956 78.4746 4.78825 78.4938 4.8848C78.5129 4.98135 78.5031 5.08143 78.4655 5.17238C78.4279 5.26333 78.3643 5.34106 78.2826 5.39576C78.2009 5.45045 78.1049 5.47964 78.0066 5.47964C77.8749 5.47951 77.7487 5.42702 77.6556 5.33371C77.5624 5.24039 77.5101 5.11387 77.5099 4.9819ZM4.99338 2.99095C5.18985 2.99095 5.38191 2.93257 5.54527 2.82318C5.70863 2.7138 5.83595 2.55833 5.91114 2.37643C5.98633 2.19453 6.006 1.99437 5.96767 1.80127C5.92934 1.60816 5.83473 1.43079 5.6958 1.29157C5.55687 1.15235 5.37987 1.05754 5.18718 1.01913C4.99448 0.980718 4.79474 1.00043 4.61323 1.07578C4.43171 1.15112 4.27657 1.27871 4.16741 1.44242C4.05826 1.60612 4 1.79859 4 1.99548C4.0003 2.2594 4.10506 2.51243 4.29129 2.69905C4.47752 2.88567 4.73001 2.99065 4.99338 2.99095ZM4.99338 1.49774C5.09161 1.49774 5.18764 1.52693 5.26932 1.58162C5.351 1.63631 5.41466 1.71405 5.45226 1.805C5.48985 1.89595 5.49969 1.99603 5.48052 2.09258C5.46136 2.18913 5.41405 2.27782 5.34459 2.34743C5.27513 2.41704 5.18662 2.46444 5.09028 2.48365C4.99393 2.50285 4.89406 2.493 4.8033 2.45533C4.71254 2.41765 4.63497 2.35386 4.5804 2.272C4.52582 2.19015 4.49669 2.09392 4.49669 1.99548C4.49682 1.86351 4.54919 1.73698 4.64231 1.64367C4.73543 1.55035 4.86169 1.49787 4.99338 1.49774ZM20.8874 14.9367C21.0839 14.9367 21.2759 14.8783 21.4393 14.7689C21.6027 14.6595 21.73 14.504 21.8052 14.3221C21.8804 14.1402 21.9 13.9401 21.8617 13.747C21.8234 13.5539 21.7288 13.3765 21.5898 13.2373C21.4509 13.0981 21.2739 13.0032 21.0812 12.9648C20.8885 12.9264 20.6888 12.9461 20.5073 13.0215C20.3258 13.0968 20.1706 13.2244 20.0615 13.3881C19.9523 13.5518 19.894 13.7443 19.894 13.9412C19.8943 14.2051 19.9991 14.4581 20.1853 14.6448C20.3716 14.8314 20.6241 14.9364 20.8874 14.9367ZM20.8874 13.4434C20.9857 13.4434 21.0817 13.4726 21.1634 13.5273C21.245 13.582 21.3087 13.6598 21.3463 13.7507C21.3839 13.8417 21.3937 13.9417 21.3746 14.0383C21.3554 14.1348 21.3081 14.2235 21.2386 14.2931C21.1692 14.3627 21.0807 14.4101 20.9843 14.4294C20.888 14.4486 20.7881 14.4387 20.6973 14.401C20.6066 14.3634 20.529 14.2996 20.4744 14.2177C20.4199 14.1359 20.3907 14.0396 20.3907 13.9412C20.3909 13.8092 20.4432 13.6827 20.5364 13.5894C20.6295 13.4961 20.7557 13.4436 20.8874 13.4434ZM59.1325 8.46606C59.3289 8.46606 59.521 8.40768 59.6843 8.2983C59.8477 8.18891 59.975 8.03344 60.0502 7.85154C60.1254 7.66964 60.1451 7.46949 60.1067 7.27638C60.0684 7.08328 59.9738 6.9059 59.8349 6.76668C59.6959 6.62746 59.5189 6.53265 59.3263 6.49424C59.1336 6.45583 58.9338 6.47554 58.7523 6.55089C58.5708 6.62624 58.4156 6.75383 58.3065 6.91753C58.1973 7.08124 58.1391 7.2737 58.1391 7.47059C58.1394 7.73451 58.2441 7.98754 58.4304 8.17416C58.6166 8.36079 58.8691 8.46576 59.1325 8.46606ZM59.1325 6.97285C59.2307 6.97285 59.3267 7.00204 59.4084 7.05674C59.4901 7.11143 59.5537 7.18916 59.5913 7.28011C59.6289 7.37106 59.6388 7.47114 59.6196 7.56769C59.6004 7.66425 59.5531 7.75293 59.4837 7.82254C59.4142 7.89215 59.3257 7.93956 59.2294 7.95876C59.133 7.97797 59.0331 7.96811 58.9424 7.93044C58.8516 7.89277 58.774 7.82897 58.7195 7.74712C58.6649 7.66527 58.6358 7.56903 58.6358 7.47059C58.6359 7.33862 58.6883 7.2121 58.7814 7.11878C58.8745 7.02547 59.0008 6.97298 59.1325 6.97285Z" stroke="#2D4356" stroke-width="0.2" mask="url(#path-3-outside-1_870_980)"/>
<mask id="path-4-outside-2_870_980" maskUnits="userSpaceOnUse" x="0" y="23" width="73" height="41" fill="black">
<rect fill="white" y="23" width="73" height="41"/>
<path d="M71.5203 62.0429H24.5068V54.1472C24.5064 54.0204 24.4557 53.8989 24.3658 53.8093C24.2759 53.7196 24.1541 53.6691 24.027 53.6687H23.5473V52.7117H29.7838C29.9109 52.7113 30.0327 52.6607 30.1226 52.5711C30.2125 52.4814 30.2631 52.3599 30.2635 52.2331V43.6196C30.2631 43.4928 30.2125 43.3713 30.1226 43.2817C30.0327 43.192 29.9109 43.1415 29.7838 43.1411H29.3041V35.0061C29.3037 34.8793 29.253 34.7578 29.1631 34.6682C29.0732 34.5785 28.9514 34.528 28.8243 34.5276H24.5068V33.092C24.5064 32.9652 24.4557 32.8437 24.3658 32.7541C24.2759 32.6644 24.1541 32.6139 24.027 32.6135H23.5473V24.4785C23.5469 24.3517 23.4963 24.2302 23.4064 24.1406C23.3165 24.0509 23.1947 24.0004 23.0676 24H9.63514C9.50802 24.0004 9.38622 24.0509 9.29634 24.1406C9.20645 24.2302 9.15579 24.3517 9.15541 24.4785V32.6135H8.67568C8.54856 32.6139 8.42676 32.6644 8.33688 32.7541C8.24699 32.8437 8.19633 32.9652 8.19595 33.092V41.7055C8.19633 41.8323 8.24699 41.9538 8.33688 42.0435C8.42676 42.1331 8.54856 42.1837 8.67568 42.184H14.9122V43.1411H14.4324C14.3053 43.1415 14.1835 43.192 14.0936 43.2817C14.0037 43.3713 13.9531 43.4928 13.9527 43.6196V45.5337H9.63514C9.50802 45.5341 9.38622 45.5847 9.29634 45.6743C9.20645 45.764 9.15579 45.8855 9.15541 46.0123V53.6687H8.67568C8.54856 53.6691 8.42676 53.7196 8.33688 53.8093C8.24699 53.8989 8.19633 54.0204 8.19595 54.1472V62.0429H6.27703C6.1498 62.0429 6.02777 62.0934 5.93781 62.1831C5.84784 62.2728 5.7973 62.3946 5.7973 62.5215C5.7973 62.6484 5.84784 62.7701 5.93781 62.8598C6.02777 62.9496 6.1498 63 6.27703 63H71.5203C71.6475 63 71.7695 62.9496 71.8595 62.8598C71.9495 62.7701 72 62.6484 72 62.5215C72 62.3946 71.9495 62.2728 71.8595 62.1831C71.7695 62.0934 71.6475 62.0429 71.5203 62.0429ZM28.3446 35.4847V43.1411H15.8716V35.4847H28.3446ZM10.1149 24.9571H22.5878V32.6135H10.1149V24.9571ZM9.15541 41.227V33.5706H23.5473V34.5276H15.3919C15.2648 34.528 15.143 34.5785 15.0531 34.6682C14.9632 34.7578 14.9125 34.8793 14.9122 35.0061V41.227H9.15541ZM14.9122 44.0982H29.3041V51.7546H23.5473V46.0123C23.5469 45.8855 23.4963 45.764 23.4064 45.6743C23.3165 45.5847 23.1947 45.5341 23.0676 45.5337H14.9122V44.0982ZM10.1149 46.4908H22.5878V53.6687H10.1149V46.4908ZM23.5473 62.0429H9.15541V54.6258H23.5473V62.0429ZM3.87838 62.0429H1.47973C1.3525 62.0429 1.23048 62.0934 1.14051 62.1831C1.05054 62.2728 1 62.3946 1 62.5215C1 62.6484 1.05054 62.7701 1.14051 62.8598C1.23048 62.9496 1.3525 63 1.47973 63H3.87838C4.00561 63 4.12763 62.9496 4.2176 62.8598C4.30757 62.7701 4.35811 62.6484 4.35811 62.5215C4.35811 62.3946 4.30757 62.2728 4.2176 62.1831C4.12763 62.0934 4.00561 62.0429 3.87838 62.0429Z"/>
</mask>
<path d="M71.5203 62.0429H24.5068V54.1472C24.5064 54.0204 24.4557 53.8989 24.3658 53.8093C24.2759 53.7196 24.1541 53.6691 24.027 53.6687H23.5473V52.7117H29.7838C29.9109 52.7113 30.0327 52.6607 30.1226 52.5711C30.2125 52.4814 30.2631 52.3599 30.2635 52.2331V43.6196C30.2631 43.4928 30.2125 43.3713 30.1226 43.2817C30.0327 43.192 29.9109 43.1415 29.7838 43.1411H29.3041V35.0061C29.3037 34.8793 29.253 34.7578 29.1631 34.6682C29.0732 34.5785 28.9514 34.528 28.8243 34.5276H24.5068V33.092C24.5064 32.9652 24.4557 32.8437 24.3658 32.7541C24.2759 32.6644 24.1541 32.6139 24.027 32.6135H23.5473V24.4785C23.5469 24.3517 23.4963 24.2302 23.4064 24.1406C23.3165 24.0509 23.1947 24.0004 23.0676 24H9.63514C9.50802 24.0004 9.38622 24.0509 9.29634 24.1406C9.20645 24.2302 9.15579 24.3517 9.15541 24.4785V32.6135H8.67568C8.54856 32.6139 8.42676 32.6644 8.33688 32.7541C8.24699 32.8437 8.19633 32.9652 8.19595 33.092V41.7055C8.19633 41.8323 8.24699 41.9538 8.33688 42.0435C8.42676 42.1331 8.54856 42.1837 8.67568 42.184H14.9122V43.1411H14.4324C14.3053 43.1415 14.1835 43.192 14.0936 43.2817C14.0037 43.3713 13.9531 43.4928 13.9527 43.6196V45.5337H9.63514C9.50802 45.5341 9.38622 45.5847 9.29634 45.6743C9.20645 45.764 9.15579 45.8855 9.15541 46.0123V53.6687H8.67568C8.54856 53.6691 8.42676 53.7196 8.33688 53.8093C8.24699 53.8989 8.19633 54.0204 8.19595 54.1472V62.0429H6.27703C6.1498 62.0429 6.02777 62.0934 5.93781 62.1831C5.84784 62.2728 5.7973 62.3946 5.7973 62.5215C5.7973 62.6484 5.84784 62.7701 5.93781 62.8598C6.02777 62.9496 6.1498 63 6.27703 63H71.5203C71.6475 63 71.7695 62.9496 71.8595 62.8598C71.9495 62.7701 72 62.6484 72 62.5215C72 62.3946 71.9495 62.2728 71.8595 62.1831C71.7695 62.0934 71.6475 62.0429 71.5203 62.0429ZM28.3446 35.4847V43.1411H15.8716V35.4847H28.3446ZM10.1149 24.9571H22.5878V32.6135H10.1149V24.9571ZM9.15541 41.227V33.5706H23.5473V34.5276H15.3919C15.2648 34.528 15.143 34.5785 15.0531 34.6682C14.9632 34.7578 14.9125 34.8793 14.9122 35.0061V41.227H9.15541ZM14.9122 44.0982H29.3041V51.7546H23.5473V46.0123C23.5469 45.8855 23.4963 45.764 23.4064 45.6743C23.3165 45.5847 23.1947 45.5341 23.0676 45.5337H14.9122V44.0982ZM10.1149 46.4908H22.5878V53.6687H10.1149V46.4908ZM23.5473 62.0429H9.15541V54.6258H23.5473V62.0429ZM3.87838 62.0429H1.47973C1.3525 62.0429 1.23048 62.0934 1.14051 62.1831C1.05054 62.2728 1 62.3946 1 62.5215C1 62.6484 1.05054 62.7701 1.14051 62.8598C1.23048 62.9496 1.3525 63 1.47973 63H3.87838C4.00561 63 4.12763 62.9496 4.2176 62.8598C4.30757 62.7701 4.35811 62.6484 4.35811 62.5215C4.35811 62.3946 4.30757 62.2728 4.2176 62.1831C4.12763 62.0934 4.00561 62.0429 3.87838 62.0429Z" fill="#2D4356"/>
<path d="M71.5203 62.0429H24.5068V54.1472C24.5064 54.0204 24.4557 53.8989 24.3658 53.8093C24.2759 53.7196 24.1541 53.6691 24.027 53.6687H23.5473V52.7117H29.7838C29.9109 52.7113 30.0327 52.6607 30.1226 52.5711C30.2125 52.4814 30.2631 52.3599 30.2635 52.2331V43.6196C30.2631 43.4928 30.2125 43.3713 30.1226 43.2817C30.0327 43.192 29.9109 43.1415 29.7838 43.1411H29.3041V35.0061C29.3037 34.8793 29.253 34.7578 29.1631 34.6682C29.0732 34.5785 28.9514 34.528 28.8243 34.5276H24.5068V33.092C24.5064 32.9652 24.4557 32.8437 24.3658 32.7541C24.2759 32.6644 24.1541 32.6139 24.027 32.6135H23.5473V24.4785C23.5469 24.3517 23.4963 24.2302 23.4064 24.1406C23.3165 24.0509 23.1947 24.0004 23.0676 24H9.63514C9.50802 24.0004 9.38622 24.0509 9.29634 24.1406C9.20645 24.2302 9.15579 24.3517 9.15541 24.4785V32.6135H8.67568C8.54856 32.6139 8.42676 32.6644 8.33688 32.7541C8.24699 32.8437 8.19633 32.9652 8.19595 33.092V41.7055C8.19633 41.8323 8.24699 41.9538 8.33688 42.0435C8.42676 42.1331 8.54856 42.1837 8.67568 42.184H14.9122V43.1411H14.4324C14.3053 43.1415 14.1835 43.192 14.0936 43.2817C14.0037 43.3713 13.9531 43.4928 13.9527 43.6196V45.5337H9.63514C9.50802 45.5341 9.38622 45.5847 9.29634 45.6743C9.20645 45.764 9.15579 45.8855 9.15541 46.0123V53.6687H8.67568C8.54856 53.6691 8.42676 53.7196 8.33688 53.8093C8.24699 53.8989 8.19633 54.0204 8.19595 54.1472V62.0429H6.27703C6.1498 62.0429 6.02777 62.0934 5.93781 62.1831C5.84784 62.2728 5.7973 62.3946 5.7973 62.5215C5.7973 62.6484 5.84784 62.7701 5.93781 62.8598C6.02777 62.9496 6.1498 63 6.27703 63H71.5203C71.6475 63 71.7695 62.9496 71.8595 62.8598C71.9495 62.7701 72 62.6484 72 62.5215C72 62.3946 71.9495 62.2728 71.8595 62.1831C71.7695 62.0934 71.6475 62.0429 71.5203 62.0429ZM28.3446 35.4847V43.1411H15.8716V35.4847H28.3446ZM10.1149 24.9571H22.5878V32.6135H10.1149V24.9571ZM9.15541 41.227V33.5706H23.5473V34.5276H15.3919C15.2648 34.528 15.143 34.5785 15.0531 34.6682C14.9632 34.7578 14.9125 34.8793 14.9122 35.0061V41.227H9.15541ZM14.9122 44.0982H29.3041V51.7546H23.5473V46.0123C23.5469 45.8855 23.4963 45.764 23.4064 45.6743C23.3165 45.5847 23.1947 45.5341 23.0676 45.5337H14.9122V44.0982ZM10.1149 46.4908H22.5878V53.6687H10.1149V46.4908ZM23.5473 62.0429H9.15541V54.6258H23.5473V62.0429ZM3.87838 62.0429H1.47973C1.3525 62.0429 1.23048 62.0934 1.14051 62.1831C1.05054 62.2728 1 62.3946 1 62.5215C1 62.6484 1.05054 62.7701 1.14051 62.8598C1.23048 62.9496 1.3525 63 1.47973 63H3.87838C4.00561 63 4.12763 62.9496 4.2176 62.8598C4.30757 62.7701 4.35811 62.6484 4.35811 62.5215C4.35811 62.3946 4.30757 62.2728 4.2176 62.1831C4.12763 62.0934 4.00561 62.0429 3.87838 62.0429Z" stroke="#2D4356" stroke-width="0.4" mask="url(#path-4-outside-2_870_980)"/>
<path d="M1.46429 62.9696C1.7207 62.9696 1.92857 62.7617 1.92857 62.5053C1.92857 62.2489 1.7207 62.041 1.46429 62.041C1.20787 62.041 1 62.2489 1 62.5053C1 62.7617 1.20787 62.9696 1.46429 62.9696Z" fill="#2D4356"/>
<path d="M76.2144 62.041H73.893C73.7699 62.041 73.6518 62.0899 73.5647 62.177C73.4776 62.2641 73.4287 62.3822 73.4287 62.5053C73.4287 62.6284 73.4776 62.7465 73.5647 62.8336C73.6518 62.9207 73.7699 62.9696 73.893 62.9696H76.2144C76.3376 62.9696 76.4557 62.9207 76.5427 62.8336C76.6298 62.7465 76.6787 62.6284 76.6787 62.5053C76.6787 62.3822 76.6298 62.2641 76.5427 62.177C76.4557 62.0899 76.3376 62.041 76.2144 62.041Z" fill="#2D4356"/>
<path d="M78.5356 62.9696C78.792 62.9696 78.9999 62.7617 78.9999 62.5053C78.9999 62.2489 78.792 62.041 78.5356 62.041C78.2792 62.041 78.0713 62.2489 78.0713 62.5053C78.0713 62.7617 78.2792 62.9696 78.5356 62.9696Z" fill="#2D4356"/>
<path d="M15.4727 27C15.3474 27 15.2271 27.0505 15.1385 27.1403C15.0498 27.2301 15 27.352 15 27.479V30.8502C15 30.9772 15.0498 31.0991 15.1385 31.1889C15.2271 31.2787 15.3474 31.3292 15.4727 31.3292C15.5981 31.3292 15.7183 31.2787 15.807 31.1889C15.8956 31.0991 15.9455 30.9772 15.9455 30.8502V27.479C15.9455 27.352 15.8956 27.2301 15.807 27.1403C15.7183 27.0505 15.5981 27 15.4727 27ZM17.3636 27C17.2383 27 17.118 27.0505 17.0294 27.1403C16.9407 27.2301 16.8909 27.352 16.8909 27.479V30.8502C16.8909 30.9772 16.9407 31.0991 17.0294 31.1889C17.118 31.2787 17.2383 31.3292 17.3636 31.3292C17.489 31.3292 17.6093 31.2787 17.6979 31.1889C17.7866 31.0991 17.8364 30.9772 17.8364 30.8502V27.479C17.8364 27.352 17.7866 27.2301 17.6979 27.1403C17.6093 27.0505 17.489 27 17.3636 27ZM21.6182 38.0739C21.6182 37.9468 21.5684 37.825 21.4797 37.7352C21.3911 37.6453 21.2708 37.5949 21.1455 37.5949C21.0201 37.5949 20.8998 37.6453 20.8112 37.7352C20.7225 37.825 20.6727 37.9468 20.6727 38.0739V41.4448C20.6727 41.5719 20.7225 41.6937 20.8112 41.7835C20.8998 41.8734 21.0201 41.9238 21.1455 41.9238C21.2708 41.9238 21.3911 41.8734 21.4797 41.7835C21.5684 41.6937 21.6182 41.5719 21.6182 41.4448V38.0739ZM22.5636 38.0739V41.4448C22.5636 41.5719 22.6134 41.6937 22.7021 41.7835C22.7907 41.8734 22.911 41.9238 23.0364 41.9238C23.1617 41.9238 23.282 41.8734 23.3706 41.7835C23.4593 41.6937 23.5091 41.5719 23.5091 41.4448V38.0739C23.5091 37.9468 23.4593 37.825 23.3706 37.7352C23.282 37.6453 23.1617 37.5949 23.0364 37.5949C22.911 37.5949 22.7907 37.6453 22.7021 37.7352C22.6134 37.825 22.5636 37.9468 22.5636 38.0739ZM15.4727 48.6713C15.4106 48.6713 15.3492 48.6837 15.2918 48.7077C15.2345 48.7318 15.1823 48.7671 15.1384 48.8116C15.0945 48.856 15.0597 48.9089 15.036 48.967C15.0122 49.0251 15 49.0874 15 49.1503V52.521C15 52.648 15.0498 52.7699 15.1385 52.8597C15.2271 52.9495 15.3474 53 15.4727 53C15.5981 53 15.7183 52.9495 15.807 52.8597C15.8956 52.7699 15.9455 52.648 15.9455 52.521V49.1503C15.9455 49.0874 15.9332 49.0251 15.9095 48.967C15.8857 48.9089 15.8509 48.856 15.807 48.8116C15.7631 48.7671 15.711 48.7318 15.6536 48.7077C15.5963 48.6837 15.5348 48.6713 15.4727 48.6713ZM17.3636 48.6713C17.3016 48.6713 17.2401 48.6837 17.1827 48.7077C17.1254 48.7318 17.0732 48.7671 17.0293 48.8116C16.9854 48.856 16.9506 48.9089 16.9269 48.967C16.9031 49.0251 16.8909 49.0874 16.8909 49.1503V52.521C16.8909 52.648 16.9407 52.7699 17.0294 52.8597C17.118 52.9495 17.2383 53 17.3636 53C17.489 53 17.6093 52.9495 17.6979 52.8597C17.7866 52.7699 17.8364 52.648 17.8364 52.521V49.1503C17.8364 49.0874 17.8242 49.0251 17.8004 48.967C17.7766 48.9089 17.7418 48.856 17.6979 48.8116C17.654 48.7671 17.6019 48.7318 17.5446 48.7077C17.4872 48.6837 17.4257 48.6713 17.3636 48.6713ZM38.1636 35.0037V38.3749C38.1636 38.5019 38.2134 38.6237 38.3021 38.7135C38.3907 38.8034 38.511 38.8538 38.6364 38.8538C38.7617 38.8538 38.882 38.8034 38.9706 38.7135C39.0593 38.6237 39.1091 38.5019 39.1091 38.3749V35.0037C39.1091 34.8766 39.0593 34.7548 38.9706 34.665C38.882 34.5751 38.7617 34.5247 38.6364 34.5247C38.511 34.5247 38.3907 34.5751 38.3021 34.665C38.2134 34.7548 38.1636 34.8766 38.1636 35.0037ZM40.5273 38.8538C40.6526 38.8538 40.7729 38.8034 40.8615 38.7135C40.9502 38.6237 41 38.5019 41 38.3749V35.0037C41 34.8766 40.9502 34.7548 40.8615 34.665C40.7729 34.5751 40.6526 34.5247 40.5273 34.5247C40.4019 34.5247 40.2817 34.5751 40.193 34.665C40.1043 34.7548 40.0545 34.8766 40.0545 35.0037V38.3749C40.0545 38.5019 40.1043 38.6237 40.193 38.7135C40.2817 38.8034 40.4019 38.8538 40.5273 38.8538Z" fill="#1E83E6"/>
<path d="M4.45533 27.4963L4.91079 26.8969L4.62293 26.7344L4.3309 27.4048H4.32115L4.024 26.739L3.7315 26.9066L4.18186 27.4912V27.5009L3.47754 27.4099V27.7358L4.18697 27.6448V27.6541L3.7315 28.2387L4.0045 28.4114L4.3165 27.7358H4.32579L4.61318 28.4067L4.91543 28.234L4.45533 27.6588V27.6495L5.17868 27.7358V27.4099L4.45533 27.5056V27.4963Z" fill="#1E83E6"/>
<path d="M39.4308 3.80136L39.025 4.30511L39.2609 4.45972L39.5427 3.87425H39.5511L39.7925 4.46436L40.0585 4.31811L39.6653 3.80925V3.80089L40.2953 3.88679L40.3 3.60218L39.6672 3.67554L39.6676 3.66718L40.0734 3.15089L39.8245 3.00464L39.5599 3.58593H39.5515L39.3018 3L39.0441 3.14254L39.429 3.65929V3.66764L38.8152 3.57804L38.8105 3.86218L39.4308 3.793V3.80136Z" fill="#1E83E6"/>
<path d="M24.1106 7.51806L23.7127 8.02831L23.9513 8.17874L24.2234 7.5891H24.2317L24.4825 8.17456L24.7462 8.02413L24.3446 7.52177V7.51342L24.976 7.5891V7.30449L24.3446 7.38806V7.3797L24.742 6.85692L24.4913 6.71484L24.2359 7.30031H24.2276L23.9685 6.71856L23.7127 6.86527L24.1064 7.37552V7.38388L23.4912 7.30449V7.5891L24.1106 7.5097V7.51806Z" fill="#1E83E6"/>
<path d="M74.3571 31.4968V31.0125L73.2813 31.1551V31.1407L73.9587 30.2502L73.5311 30.0078L73.0965 31.0051H73.0817L72.6401 30.0148L72.2051 30.2646L72.8751 31.1337V31.1481L71.8276 31.0125V31.4968L72.882 31.3617V31.3761L72.2051 32.2452L72.6114 32.502L73.0747 31.4968H73.0886L73.5162 32.4945L73.9652 32.2382L73.2813 31.383V31.3686L74.3571 31.4968Z" fill="#1E83E6"/>
<path d="M38.0047 15.856L37.4207 16.6058L37.7707 16.8273L38.1709 15.9605H38.1826L38.5517 16.8208L38.9389 16.5998L38.3488 15.862V15.8495L39.2769 15.9605V15.5426L38.3488 15.6652V15.6531L38.9328 14.8847L38.5642 14.6758L38.1891 15.5361H38.177L37.7958 14.6818L37.4207 14.8972L37.9987 15.6471V15.6591L37.0947 15.5426V15.9605L38.0047 15.8435V15.856Z" fill="#1E83E6"/>
<path d="M49.75 64.8262H30.2499C30.1268 64.8262 30.0087 64.8751 29.9216 64.9622C29.8346 65.0492 29.7857 65.1673 29.7857 65.2905C29.7857 65.4136 29.8346 65.5317 29.9216 65.6188C30.0087 65.7058 30.1268 65.7547 30.2499 65.7547H38.6071V66.6833H33.9642C33.8411 66.6833 33.723 66.7322 33.6359 66.8193C33.5489 66.9064 33.4999 67.0245 33.4999 67.1476C33.4999 67.2707 33.5489 67.3888 33.6359 67.4759C33.723 67.563 33.8411 67.6119 33.9642 67.6119H46.5C46.6231 67.6119 46.7412 67.563 46.8283 67.4759C46.9153 67.3888 46.9643 67.2707 46.9643 67.1476C46.9643 67.0245 46.9153 66.9064 46.8283 66.8193C46.7412 66.7322 46.6231 66.6833 46.5 66.6833H41.3928V65.7547H49.75C49.8731 65.7547 49.9912 65.7058 50.0783 65.6188C50.1653 65.5317 50.2143 65.4136 50.2143 65.2905C50.2143 65.1673 50.1653 65.0492 50.0783 64.9622C49.9912 64.8751 49.8731 64.8262 49.75 64.8262ZM56.25 64.8262H51.6071C51.484 64.8262 51.3659 64.8751 51.2788 64.9622C51.1918 65.0492 51.1428 65.1673 51.1428 65.2905C51.1428 65.4136 51.1918 65.5317 51.2788 65.6188C51.3659 65.7058 51.484 65.7547 51.6071 65.7547H56.25C56.3731 65.7547 56.4912 65.7058 56.5783 65.6188C56.6654 65.5317 56.7143 65.4136 56.7143 65.2905C56.7143 65.1673 56.6654 65.0492 56.5783 64.9622C56.4912 64.8751 56.3731 64.8262 56.25 64.8262ZM28.3928 64.8262H23.7499C23.6268 64.8262 23.5087 64.8751 23.4216 64.9622C23.3346 65.0492 23.2856 65.1673 23.2856 65.2905C23.2856 65.4136 23.3346 65.5317 23.4216 65.6188C23.5087 65.7058 23.6268 65.7547 23.7499 65.7547H28.3928C28.5159 65.7547 28.634 65.7058 28.7211 65.6188C28.8082 65.5317 28.8571 65.4136 28.8571 65.2905C28.8571 65.1673 28.8082 65.0492 28.7211 64.9622C28.634 64.8751 28.5159 64.8262 28.3928 64.8262Z" fill="#1E83E6"/>
</svg>
