<svg width="78" height="76" viewBox="0 0 78 76" fill="none" xmlns="http://www.w3.org/2000/svg">
<path d="M68.7144 25.292C68.9898 25.292 69.2591 25.2103 69.4882 25.0572C69.7172 24.9042 69.8958 24.6867 70.0012 24.4321C70.1066 24.1776 70.1342 23.8976 70.0805 23.6274C70.0267 23.3572 69.8941 23.109 69.6993 22.9142C69.5045 22.7194 69.2563 22.5868 68.9861 22.533C68.7159 22.4793 68.4358 22.5069 68.1813 22.6123C67.9268 22.7177 67.7093 22.8962 67.5562 23.1253C67.4032 23.3543 67.3215 23.6236 67.3215 23.8991C67.3219 24.2684 67.4688 24.6224 67.7299 24.8836C67.991 25.1447 68.3451 25.2916 68.7144 25.292ZM68.7144 23.2027C68.8521 23.2027 68.9867 23.2435 69.1013 23.3201C69.2158 23.3966 69.3051 23.5054 69.3578 23.6326C69.4105 23.7599 69.4243 23.8999 69.3974 24.035C69.3705 24.1701 69.3042 24.2942 69.2068 24.3916C69.1094 24.489 68.9853 24.5553 68.8502 24.5822C68.7151 24.609 68.5751 24.5953 68.4478 24.5425C68.3206 24.4898 68.2118 24.4006 68.1353 24.286C68.0588 24.1715 68.0179 24.0369 68.0179 23.8991C68.0181 23.7145 68.0915 23.5374 68.2221 23.4069C68.3527 23.2763 68.5297 23.2029 68.7144 23.2027ZM55.7144 9.8476C55.5307 9.8476 55.3512 9.90206 55.1985 10.0041C55.0458 10.1061 54.9268 10.2512 54.8565 10.4208C54.7862 10.5905 54.7678 10.7772 54.8036 10.9573C54.8395 11.1375 54.9279 11.3029 55.0578 11.4328C55.1876 11.5626 55.3531 11.6511 55.5332 11.6869C55.7133 11.7227 55.9 11.7043 56.0697 11.6341C56.2394 11.5638 56.3844 11.4448 56.4864 11.2921C56.5885 11.1394 56.6429 10.9598 56.6429 10.7762C56.6427 10.53 56.5447 10.294 56.3707 10.1199C56.1966 9.94581 55.9606 9.84788 55.7144 9.8476ZM55.7144 11.2405C55.6225 11.2405 55.5328 11.2132 55.4564 11.1622C55.3801 11.1112 55.3206 11.0387 55.2854 10.9538C55.2503 10.869 55.2411 10.7757 55.259 10.6856C55.2769 10.5955 55.3211 10.5128 55.3861 10.4479C55.451 10.3829 55.5337 10.3387 55.6238 10.3208C55.7139 10.3029 55.8072 10.3121 55.892 10.3472C55.9769 10.3824 56.0494 10.4419 56.1004 10.5182C56.1514 10.5946 56.1786 10.6843 56.1786 10.7762C56.1785 10.8993 56.1296 11.0173 56.0425 11.1043C55.9555 11.1914 55.8375 11.2403 55.7144 11.2405ZM11.8829 2.54199C11.6993 2.54199 11.5197 2.59645 11.367 2.69848C11.2143 2.80052 11.0953 2.94554 11.025 3.11521C10.9547 3.28489 10.9364 3.47159 10.9722 3.65172C11.008 3.83184 11.0965 3.9973 11.2263 4.12716C11.3562 4.25703 11.5216 4.34546 11.7018 4.38129C11.8819 4.41712 12.0686 4.39873 12.2383 4.32845C12.4079 4.25817 12.553 4.13915 12.655 3.98645C12.757 3.83375 12.8115 3.65422 12.8115 3.47056C12.8112 3.22438 12.7133 2.98836 12.5392 2.81428C12.3651 2.6402 12.1291 2.54227 11.8829 2.54199ZM11.8829 3.93485C11.7911 3.93485 11.7013 3.90762 11.625 3.8566C11.5486 3.80559 11.4891 3.73307 11.454 3.64824C11.4188 3.5634 11.4096 3.47005 11.4276 3.37999C11.4455 3.28992 11.4897 3.2072 11.5546 3.14226C11.6195 3.07733 11.7023 3.03311 11.7923 3.0152C11.8824 2.99728 11.9758 3.00648 12.0606 3.04162C12.1454 3.07676 12.2179 3.13627 12.269 3.21262C12.32 3.28897 12.3472 3.37874 12.3472 3.47056C12.3471 3.59366 12.2981 3.71168 12.2111 3.79873C12.124 3.88577 12.006 3.93473 11.8829 3.93485ZM73.4987 3.47056C73.315 3.47056 73.1355 3.52502 72.9828 3.62706C72.8301 3.72909 72.7111 3.87411 72.6408 4.04379C72.5705 4.21346 72.5521 4.40016 72.588 4.58029C72.6238 4.76041 72.7122 4.92587 72.8421 5.05573C72.972 5.1856 73.1374 5.27403 73.3175 5.30986C73.4977 5.34569 73.6844 5.3273 73.854 5.25702C74.0237 5.18674 74.1687 5.06772 74.2708 4.91502C74.3728 4.76232 74.4273 4.58279 74.4273 4.39913C74.427 4.15295 74.3291 3.91693 74.155 3.74285C73.9809 3.56877 73.7449 3.47084 73.4987 3.47056ZM73.4987 4.86342C73.4069 4.86342 73.3171 4.83619 73.2407 4.78517C73.1644 4.73416 73.1049 4.66165 73.0697 4.57681C73.0346 4.49197 73.0254 4.39862 73.0433 4.30856C73.0612 4.21849 73.1055 4.13577 73.1704 4.07083C73.2353 4.0059 73.318 3.96168 73.4081 3.94377C73.4982 3.92586 73.5915 3.93505 73.6764 3.97019C73.7612 4.00533 73.8337 4.06484 73.8847 4.14119C73.9357 4.21754 73.963 4.30731 73.963 4.39913C73.9628 4.52223 73.9139 4.64025 73.8268 4.7273C73.7398 4.81434 73.6218 4.8633 73.4987 4.86342ZM16.7144 18.3277C16.7144 18.144 16.6599 17.9645 16.5579 17.8118C16.4559 17.6591 16.3108 17.5401 16.1412 17.4698C15.9715 17.3995 15.7848 17.3811 15.6047 17.417C15.4245 17.4528 15.2591 17.5412 15.1292 17.6711C14.9994 17.801 14.9109 17.9664 14.8751 18.1465C14.8393 18.3267 14.8576 18.5134 14.9279 18.683C14.9982 18.8527 15.1172 18.9977 15.2699 19.0998C15.4226 19.2018 15.6022 19.2563 15.7858 19.2563C16.032 19.256 16.268 19.1581 16.4421 18.984C16.6162 18.8099 16.7141 18.5739 16.7144 18.3277ZM15.3215 18.3277C15.3215 18.2359 15.3488 18.1461 15.3998 18.0698C15.4508 17.9934 15.5233 17.9339 15.6081 17.8988C15.693 17.8636 15.7863 17.8544 15.8764 17.8723C15.9665 17.8902 16.0492 17.9345 16.1141 17.9994C16.179 18.0643 16.2233 18.1471 16.2412 18.2371C16.2591 18.3272 16.2499 18.4205 16.2148 18.5054C16.1796 18.5902 16.1201 18.6627 16.0438 18.7137C15.9674 18.7648 15.8776 18.792 15.7858 18.792C15.6627 18.7919 15.5447 18.7429 15.4577 18.6559C15.3706 18.5688 15.3217 18.4508 15.3215 18.3277Z" fill="#2D4356"/>
<path d="M2.97834 19.8231L3.66873 18.915L3.23277 18.668L2.78984 19.6848H2.77498L2.32509 18.6749L1.88123 18.9294L2.56466 19.8157V19.8301L1.49634 19.6922V20.1862L2.57162 20.0483V20.0627L1.88123 20.949L2.29537 21.2104L2.76802 20.1862H2.78194L3.21791 21.203L3.67569 20.9416L2.97834 20.0696V20.0553L4.07498 20.1862V19.6922L2.97834 19.8375V19.8231Z" fill="#1E83E6"/>
<path d="M25.2138 4.47216L24.8164 4.98241L25.0546 5.13284L25.3271 4.54319H25.335L25.5862 5.12866L25.8499 4.97823L25.4483 4.47634V4.46798L26.0797 4.54319V4.25859L25.4483 4.34216V4.3338L25.8457 3.81102L25.5946 3.66895L25.3397 4.25441H25.3308L25.0718 3.67312L24.8164 3.81937L25.2097 4.32962V4.33798L24.5945 4.25859V4.54319L25.2138 4.4638V4.47216Z" fill="#1E83E6"/>
<path d="M40.2645 8.35615V7.8719L39.1888 8.01397V8.00004L39.8662 7.10954L39.4386 6.86719L39.004 7.86447H38.9891L38.5481 6.87415L38.1126 7.12347L38.783 7.99308V8.00701L37.7351 7.8719V8.35615L38.79 8.22104V8.23497L38.1126 9.10412L38.5188 9.36086L38.9826 8.35615H38.9961L39.4237 9.3539L39.8731 9.09715L39.1888 8.24194V8.22801L40.2645 8.35615Z" fill="#1E83E6"/>
<path d="M54.9486 0.977321L55.5327 0.209393L55.164 0L54.7894 0.860321H54.7768L54.3957 0.00603572L54.0205 0.221464L54.5985 0.971285V0.983821L53.6946 0.866821V1.28468L54.6046 1.16814V1.18021L54.0205 1.93003L54.3706 2.1515L54.7708 1.28468H54.7829L55.1515 2.145L55.5387 1.924L54.9486 1.18625V1.17418L55.8767 1.28468V0.866821L54.9486 0.989857V0.977321Z" fill="#1E83E6"/>
<path d="M0.928571 69.4011C1.44141 69.4011 1.85714 68.9854 1.85714 68.4725C1.85714 67.9597 1.44141 67.5439 0.928571 67.5439C0.415735 67.5439 0 67.9597 0 68.4725C0 68.9854 0.415735 69.4011 0.928571 69.4011Z" fill="#2D4356"/>
<path d="M5.10732 67.54H3.71446C3.46819 67.54 3.232 67.6379 3.05786 67.812C2.88372 67.9862 2.78589 68.2223 2.78589 68.4686C2.78589 68.7149 2.88372 68.9511 3.05786 69.1252C3.232 69.2994 3.46819 69.3972 3.71446 69.3972H5.10732C5.35359 69.3972 5.58977 69.2994 5.76391 69.1252C5.93806 68.9511 6.03589 68.7149 6.03589 68.4686C6.03589 68.2223 5.93806 67.9862 5.76391 67.812C5.58977 67.6379 5.35359 67.54 5.10732 67.54ZM74.2859 67.54H72.893C72.6467 67.54 72.4105 67.6379 72.2364 67.812C72.0623 67.9862 71.9644 68.2223 71.9644 68.4686C71.9644 68.7149 72.0623 68.9511 72.2364 69.1252C72.4105 69.2994 72.6467 69.3972 72.893 69.3972H74.2859C74.5321 69.3972 74.7683 69.2994 74.9425 69.1252C75.1166 68.9511 75.2144 68.7149 75.2144 68.4686C75.2144 68.2223 75.1166 67.9862 74.9425 67.812C74.7683 67.6379 74.5321 67.54 74.2859 67.54Z" fill="#2D4356"/>
<path d="M77.0714 69.4011C77.5842 69.4011 78 68.9854 78 68.4725C78 67.9597 77.5842 67.5439 77.0714 67.5439C76.5586 67.5439 76.1428 67.9597 76.1428 68.4725C76.1428 68.9854 76.5586 69.4011 77.0714 69.4011Z" fill="#2D4356"/>
<path d="M54.8571 71.257H50.9999C50.7665 71.2757 50.5487 71.3816 50.3898 71.5537C50.231 71.7258 50.1428 71.9514 50.1428 72.1855C50.1428 72.4197 50.231 72.6453 50.3898 72.8174C50.5487 72.9895 50.7665 73.0954 50.9999 73.1141H54.8571C55.0905 73.0954 55.3083 72.9895 55.4672 72.8174C55.626 72.6453 55.7142 72.4197 55.7142 72.1855C55.7142 71.9514 55.626 71.7258 55.4672 71.5537C55.3083 71.3816 55.0905 71.2757 54.8571 71.257ZM27 71.257H23.1428C22.9094 71.2757 22.6915 71.3816 22.5327 71.5537C22.3738 71.7258 22.2856 71.9514 22.2856 72.1855C22.2856 72.4197 22.3738 72.6453 22.5327 72.8174C22.6915 72.9895 22.9094 73.0954 23.1428 73.1141H27C27.2334 73.0954 27.4512 72.9895 27.6101 72.8174C27.7689 72.6453 27.8571 72.4197 27.8571 72.1855C27.8571 71.9514 27.7689 71.7258 27.6101 71.5537C27.4512 71.3816 27.2334 71.2757 27 71.257ZM48.2856 71.257H29.7142C29.468 71.257 29.2318 71.3548 29.0576 71.5289C28.8835 71.7031 28.7857 71.9393 28.7857 72.1855C28.7857 72.4318 28.8835 72.668 29.0576 72.8421C29.2318 73.0163 29.468 73.1141 29.7142 73.1141H37.1149V74.0427H33.4285C33.1822 74.0427 32.946 74.1405 32.7719 74.3146C32.5978 74.4888 32.4999 74.725 32.4999 74.9712C32.4999 75.2175 32.5978 75.4537 32.7719 75.6278C32.946 75.802 33.1822 75.8998 33.4285 75.8998H45.0356C45.2819 75.8998 45.5181 75.802 45.6922 75.6278C45.8664 75.4537 45.9642 75.2175 45.9642 74.9712C45.9642 74.725 45.8664 74.4888 45.6922 74.3146C45.5181 74.1405 45.2819 74.0427 45.0356 74.0427H40.8849V73.1141H48.2856C48.5319 73.1141 48.7681 73.0163 48.9422 72.8421C49.1164 72.668 49.2142 72.4318 49.2142 72.1855C49.2142 71.9393 49.1164 71.7031 48.9422 71.5289C48.7681 71.3548 48.5319 71.257 48.2856 71.257ZM38.9999 64.6409C40.7446 64.6409 42.4502 64.1235 43.9009 63.1542C45.3515 62.1849 46.4822 60.8072 47.1499 59.1953C47.8175 57.5834 47.9922 55.8097 47.6519 54.0985C47.3115 52.3873 46.4713 50.8155 45.2376 49.5818C44.0039 48.3481 42.4321 47.5079 40.7209 47.1676C39.0097 46.8272 37.236 47.0019 35.6241 47.6695C34.0122 48.3372 32.6345 49.4679 31.6652 50.9186C30.6959 52.3692 30.1785 54.0748 30.1785 55.8195C30.1812 58.1582 31.1114 60.4005 32.7652 62.0542C34.4189 63.708 36.6612 64.6382 38.9999 64.6409ZM38.9999 48.8552C40.3773 48.8552 41.7238 49.2636 42.8691 50.0289C44.0144 50.7941 44.907 51.8818 45.4341 53.1544C45.9612 54.4269 46.0991 55.8272 45.8304 57.1781C45.5617 58.5291 44.8984 59.77 43.9244 60.744C42.9505 61.7179 41.7095 62.3812 40.3586 62.6499C39.0077 62.9187 37.6074 62.7807 36.3348 62.2536C35.0623 61.7265 33.9746 60.8339 33.2093 59.6886C32.4441 58.5434 32.0357 57.1969 32.0357 55.8195C32.0377 53.9731 32.7721 52.2029 34.0777 50.8973C35.3833 49.5916 37.1535 48.8572 38.9999 48.8552Z" fill="#1E83E6"/>
<path d="M17.6428 58.2551C18.3833 58.2523 19.0925 57.9559 19.6148 57.4309C20.137 56.9058 20.4297 56.1951 20.4285 55.4545V39.5844C20.4297 38.8439 20.137 38.1331 19.6148 37.608C19.0925 37.083 18.3833 36.7866 17.6428 36.7838C17.0176 36.7856 16.3946 36.8582 15.7856 37.0001V32.4662C15.7811 28.9786 17.1365 25.6267 19.564 23.1225C21.9914 20.6184 25.2996 19.1594 28.7856 19.0555V19.7468C28.7849 20.2404 28.98 20.7143 29.3282 21.0643C29.6763 21.4143 30.1491 21.6119 30.6428 21.6138H47.3571C47.8507 21.6119 48.3235 21.4143 48.6717 21.0643C49.0198 20.7143 49.2149 20.2404 49.2142 19.7468V19.0555C52.7002 19.1594 56.0084 20.6184 58.4359 23.1225C60.8633 25.6267 62.2187 28.9786 62.2142 32.4662V37.0001C61.6053 36.8582 60.9823 36.7856 60.357 36.7838C59.6165 36.7866 58.9073 37.083 58.3851 37.608C57.8628 38.1331 57.5702 38.8438 57.5713 39.5844V55.4545C57.5702 56.1951 57.8628 56.9058 58.3851 57.4309C58.9073 57.9559 59.6165 58.2523 60.357 58.2551C62.5786 58.2467 64.7061 57.3573 66.2729 55.7822C67.8396 54.2071 68.7175 52.0749 68.7142 49.8533V45.1856C68.7137 43.6255 68.2792 42.0964 67.4593 40.7691C66.6393 39.4419 65.4663 38.369 64.0713 37.6704V32.4662C64.0766 28.485 62.5261 24.6593 59.7505 21.8051C56.9749 18.951 53.194 17.2943 49.2142 17.1884V16.4794C49.2149 15.9857 49.0198 15.5119 48.6717 15.1618C48.3235 14.8118 47.8507 14.6142 47.3571 14.6123H37.3749C37.1282 14.6137 36.8921 14.7126 36.7181 14.8875C36.5441 15.0625 36.4465 15.2991 36.4465 15.5458C36.4465 15.7925 36.5441 16.0292 36.7181 16.2041C36.8921 16.3791 37.1282 16.478 37.3749 16.4794H47.3571V19.7468H30.6428V16.4794H32.7321C32.9788 16.478 33.2149 16.3791 33.3889 16.2041C33.5629 16.0292 33.6605 15.7925 33.6605 15.5458C33.6605 15.2991 33.5629 15.0625 33.3889 14.8875C33.2149 14.7126 32.9788 14.6137 32.7321 14.6123H30.6428C30.1491 14.6142 29.6763 14.8118 29.3282 15.1618C28.98 15.5119 28.7849 15.9857 28.7856 16.4794V17.1884C24.8058 17.2943 21.0249 18.951 18.2493 21.8051C15.4738 24.6593 13.9232 28.485 13.9285 32.4662V37.6704C12.5336 38.369 11.3605 39.4419 10.5406 40.7691C9.72063 42.0964 9.28612 43.6255 9.28565 45.1856V49.8533C9.28229 52.0749 10.1603 54.2071 11.727 55.7822C13.2937 57.3573 15.4212 58.2467 17.6428 58.2551ZM66.857 45.1856V49.8533C66.8597 51.5812 66.1768 53.2397 64.9583 54.4647C63.7397 55.6898 62.085 56.3815 60.357 56.3881C60.1102 56.3871 59.8738 56.2883 59.6997 56.1133C59.5257 55.9383 59.4281 55.7014 59.4285 55.4545V39.5844C59.4281 39.3375 59.5256 39.1006 59.6997 38.9256C59.8738 38.7506 60.1102 38.6518 60.357 38.6509C62.085 38.6574 63.7397 39.3491 64.9583 40.5742C66.1768 41.7993 66.8597 43.4577 66.857 45.1856ZM11.1428 45.1856C11.1401 43.4577 11.823 41.7993 13.0416 40.5742C14.2601 39.3491 15.9149 38.6574 17.6428 38.6509C17.8896 38.6518 18.1261 38.7506 18.3001 38.9256C18.4742 39.1006 18.5718 39.3375 18.5714 39.5844V55.4545C18.5717 55.7014 18.4742 55.9383 18.3001 56.1133C18.126 56.2883 17.8896 56.3871 17.6428 56.388C15.9149 56.3815 14.2601 55.6898 13.0416 54.4647C11.823 53.2396 11.1401 51.5812 11.1428 49.8533V45.1856Z" fill="#2D4356"/>
<path d="M62.214 53.4962C62.4603 53.4962 62.6965 53.3984 62.8706 53.2242C63.0448 53.0501 63.1426 52.8139 63.1426 52.5677V42.3534C63.1426 42.1071 63.0448 41.8709 62.8706 41.6968C62.6965 41.5226 62.4603 41.4248 62.214 41.4248C61.9678 41.4248 61.7316 41.5226 61.5574 41.6968C61.3833 41.8709 61.2855 42.1071 61.2855 42.3534V52.5677C61.2855 52.8139 61.3833 53.0501 61.5575 53.2242C61.7316 53.3984 61.9678 53.4962 62.214 53.4962ZM15.7855 53.4962C16.0318 53.4962 16.268 53.3984 16.4421 53.2242C16.6162 53.0501 16.7141 52.8139 16.7141 52.5677V42.3534C16.7141 42.1071 16.6162 41.8709 16.4421 41.6968C16.268 41.5226 16.0318 41.4248 15.7855 41.4248C15.5392 41.4248 15.303 41.5226 15.1289 41.6968C14.9548 41.8709 14.8569 42.1071 14.8569 42.3534V52.5677C14.8569 52.8139 14.9548 53.0501 15.1289 53.2242C15.3031 53.3984 15.5392 53.4962 15.7855 53.4962Z" fill="#1E83E6"/>
<path d="M36.4462 60.1081C36.5874 60.1895 36.7475 60.2323 36.9105 60.2323C37.0735 60.2323 37.2336 60.1895 37.3748 60.1081L43.4105 56.6232C43.5517 56.5417 43.6689 56.4244 43.7504 56.2832C43.8319 56.142 43.8748 55.9819 43.8748 55.8189C43.8748 55.6559 43.8319 55.4957 43.7504 55.3545C43.6689 55.2133 43.5517 55.0961 43.4105 55.0145L37.3748 51.5297C37.2336 51.4482 37.0735 51.4053 36.9105 51.4053C36.7474 51.4053 36.5873 51.4482 36.4461 51.5297C36.305 51.6112 36.1878 51.7285 36.1063 51.8697C36.0248 52.0109 35.9819 52.171 35.9819 52.334V59.3037C35.9819 59.4668 36.0248 59.6269 36.1063 59.7681C36.1878 59.9093 36.3051 60.0265 36.4462 60.1081ZM37.8391 53.9422L41.0891 55.8189L37.8391 57.6955V53.9422Z" fill="#2D4356"/>
<path d="M69.9776 67.5431H55.7115C55.7117 67.5342 55.7142 67.5259 55.7142 67.5169V37.855C55.717 37.3591 55.5231 36.8824 55.175 36.5294C54.8268 36.1763 54.3528 35.9757 53.857 35.9717H24.1427C23.6469 35.9757 23.1729 36.1763 22.8248 36.5294C22.4766 36.8824 22.2827 37.3591 22.2856 37.855V67.5169C22.2856 67.5259 22.2881 67.5342 22.2882 67.5431H8.02215C7.89005 67.5258 7.75578 67.537 7.62832 67.5757C7.50086 67.6145 7.38314 67.68 7.28302 67.7679C7.1829 67.8558 7.10269 67.964 7.04773 68.0854C6.99278 68.2067 6.96436 68.3384 6.96436 68.4717C6.96436 68.6049 6.99278 68.7366 7.04773 68.8579C7.10269 68.9793 7.1829 69.0875 7.28302 69.1754C7.38314 69.2633 7.50086 69.3288 7.62832 69.3676C7.75578 69.4064 7.89005 69.4175 8.02215 69.4002H69.9776C70.1097 69.4175 70.244 69.4064 70.3714 69.3676C70.4989 69.3288 70.6166 69.2633 70.7167 69.1754C70.8169 69.0875 70.8971 68.9793 70.952 68.8579C71.007 68.7366 71.0354 68.6049 71.0354 68.4717C71.0354 68.3384 71.007 68.2067 70.952 68.0854C70.8971 67.964 70.8169 67.8558 70.7167 67.7679C70.6166 67.68 70.4989 67.6145 70.3714 67.5757C70.244 67.537 70.1097 67.5258 69.9776 67.5431ZM53.857 42.5632H51.9201L53.857 40.599V42.5632ZM51.8714 37.855H53.857V37.9359L49.4862 42.3683C49.4301 42.4267 49.3818 42.4923 49.3427 42.5632H47.2772L51.7278 38.0499C51.784 37.9915 51.8322 37.9259 51.8714 37.855ZM47.2285 37.855H49.294L44.8433 42.3683C44.7872 42.4267 44.739 42.4923 44.6998 42.5632H42.6344L47.085 38.0499C47.1411 37.9915 47.1894 37.9259 47.2285 37.855ZM42.5857 37.855H44.6511L40.2005 42.3683C40.1444 42.4267 40.0961 42.4923 40.057 42.5632H37.9915L42.4421 38.0499C42.4983 37.9915 42.5465 37.9259 42.5857 37.855ZM37.9428 37.855H40.0083L35.5576 42.3683C35.5015 42.4267 35.4533 42.4923 35.4141 42.5632H33.3487L37.7993 38.0499C37.8554 37.9915 37.9037 37.9259 37.9428 37.855ZM33.3 37.855H35.3654L30.9148 42.3683C30.8587 42.4267 30.8104 42.4923 30.7713 42.5632H28.7058L33.1564 38.0499C33.2125 37.9915 33.2608 37.9259 33.3 37.855ZM24.1427 37.855H26.0797L24.1427 39.8192V37.855ZM24.1427 42.4823L28.5136 38.0499C28.5697 37.9915 28.6179 37.9259 28.6571 37.855H30.7225L26.2719 42.3683C26.2158 42.4267 26.1676 42.4923 26.1284 42.5632H24.1427V42.4823ZM24.1427 67.5169V44.4465H53.857V67.5169L24.1427 67.5169Z" fill="#2D4356"/>
</svg>
