<svg width="61" height="62" viewBox="0 0 61 62" fill="none" xmlns="http://www.w3.org/2000/svg">
<path fill-rule="evenodd" clip-rule="evenodd" d="M39.2557 35.0686C38.4641 38.5169 37.187 41.4217 35.5868 43.4047C34.5854 44.645 33.4661 45.5163 32.2564 45.8914C31.8521 46.0155 31.627 46.4457 31.7511 46.8485C31.8766 47.2527 32.3054 47.4793 32.7096 47.3538C34.1781 46.899 35.5623 45.8715 36.7782 44.3663C38.4993 42.2333 39.8973 39.1202 40.7487 35.4116C40.8421 34.9996 40.5848 34.5877 40.1729 34.4943C39.761 34.3994 39.3507 34.6566 39.2557 35.0686ZM38.6815 16.6905C38.3768 16.7349 38.1165 16.96 38.043 17.2785C37.948 17.6904 38.2053 18.1008 38.6172 18.1957C38.7902 18.2355 38.9632 18.2753 39.1332 18.3182C39.1501 18.3871 39.1669 18.4576 39.1837 18.5265C39.2817 18.9384 39.6967 19.191 40.1071 19.093C40.323 19.041 40.496 18.9016 40.5971 18.7209C43.1788 19.5049 45.3623 20.5799 46.9548 21.8646C48.1936 22.8645 49.0664 23.9854 49.4401 25.195C49.5656 25.5978 49.9944 25.8244 50.3986 25.7004C50.8013 25.5748 51.028 25.1461 50.9024 24.7418C50.4492 23.2718 49.4217 21.8876 47.9165 20.6733C46.0621 19.1772 43.4682 17.9262 40.3858 17.0656C38.9142 11.8119 36.2836 7.98533 33.2471 6.74043C32.8551 6.58118 32.408 6.76799 32.2472 7.15846C32.0879 7.55046 32.2747 7.99758 32.6652 8.15836C35.2301 9.2088 37.3524 12.3861 38.6815 16.6905ZM11.707 24.7847C12.9014 21.8692 16.8474 19.5233 22.0766 18.2677C22.487 18.1681 22.7412 17.7547 22.6417 17.3443C22.5437 16.9324 22.1287 16.6798 21.7183 16.7778C15.8996 18.1758 11.6197 20.9596 10.2906 24.2043C10.1298 24.5963 10.3166 25.0435 10.7086 25.2027C11.0991 25.3635 11.5462 25.1767 11.707 24.7847Z" fill="#1E83E6"/>
<path fill-rule="evenodd" clip-rule="evenodd" d="M39.144 16.7737C36.8456 14.728 33.8168 13.4846 30.5001 13.4846C27.1727 13.4846 24.1362 14.7356 21.8348 16.7921L17.8734 12.8308C17.5748 12.5322 17.0894 12.5322 16.7908 12.8308C16.4922 13.1309 16.4922 13.6148 16.7908 13.9134L20.7537 17.8778C18.7202 20.1731 17.4845 23.1943 17.4845 26.5002C17.4845 29.8169 18.7279 32.8457 20.7736 35.1441L20.7706 35.1457L16.8107 39.107C16.5122 39.4056 16.5122 39.8895 16.8107 40.1896C17.1109 40.4882 17.5947 40.4882 17.8933 40.1896L21.8547 36.2298L21.8562 36.2267C24.1546 38.2725 27.1834 39.5159 30.5001 39.5159C33.8061 39.5159 36.8272 38.2801 39.1241 36.2451C39.1318 36.2543 39.1379 36.262 39.1456 36.2696L43.0656 40.1896C43.3657 40.4882 43.8496 40.4882 44.1482 40.1896C44.4483 39.8895 44.4483 39.4056 44.1482 39.107L40.2297 35.187C40.222 35.1794 40.2159 35.1732 40.2082 35.1656C42.2647 32.8641 43.5157 29.8276 43.5157 26.5002C43.5157 23.1835 42.2724 20.1547 40.2266 17.8563L40.2297 17.8548L44.1895 13.8935C44.4881 13.5949 44.4881 13.111 44.1895 12.8109C43.8894 12.5123 43.4055 12.5123 43.1069 12.8109L39.1456 16.7707L39.144 16.7737ZM30.5001 15.0159C36.838 15.0159 41.9845 20.1624 41.9845 26.5002C41.9845 32.8381 36.838 37.9846 30.5001 37.9846C24.1623 37.9846 19.0157 32.8381 19.0157 26.5002C19.0157 20.1624 24.1623 15.0159 30.5001 15.0159Z" fill="#2D4356"/>
<path fill-rule="evenodd" clip-rule="evenodd" d="M20.9481 34.4393C19.0432 33.9019 17.3389 33.2082 15.9057 32.3905C13.67 31.115 12.102 29.5562 11.56 27.8044C11.4344 27.4017 11.0057 27.1751 10.6014 27.2991C10.1987 27.4247 9.97207 27.8534 10.0976 28.2577C10.7346 30.3203 12.5139 32.219 15.1462 33.7196C16.8719 34.7042 18.9682 35.525 21.3278 36.1237C21.8821 38.3088 22.6263 40.2703 23.516 41.918C24.9232 44.5257 26.7056 46.3616 28.6564 47.161C29.0469 47.3217 29.494 47.1334 29.6548 46.7429C29.8155 46.3525 29.6272 45.9038 29.2367 45.7445C27.56 45.057 26.0732 43.4324 24.8635 41.1906C24.1315 39.8339 23.5053 38.2521 23.0122 36.5035C25.3305 36.9644 27.8571 37.2185 30.5 37.2185C36.4122 37.2185 41.7379 35.9461 45.4664 33.934C48.0742 32.5283 49.9117 30.7444 50.7094 28.7951C50.8702 28.4031 50.6834 27.956 50.2914 27.7968C49.9009 27.636 49.4538 27.8228 49.293 28.2148C48.6055 29.8915 46.9809 31.3768 44.7391 32.5865C41.1943 34.5006 36.1228 35.6873 30.5 35.6873C27.6871 35.6873 25.012 35.3902 22.5972 34.8543C22.0613 32.4395 21.7642 29.7644 21.7642 26.9515C21.7642 21.1358 23.0321 15.9127 25.061 12.3556C26.3365 10.1215 27.8954 8.55202 29.6471 8.01149C30.0498 7.88592 30.2764 7.45717 30.1509 7.05292C30.0269 6.6502 29.5981 6.42358 29.1939 6.54761C27.1313 7.18614 25.2325 8.96546 23.7304 11.5977C21.5958 15.34 20.233 20.8311 20.233 26.9515C20.233 29.5945 20.4872 32.121 20.9481 34.4393ZM45.8523 38.024C43.7392 38.024 42.0242 39.739 42.0242 41.8521C42.0242 43.9652 43.7392 45.6802 45.8523 45.6802C47.9654 45.6802 49.6804 43.9652 49.6804 41.8521C49.6804 39.739 47.9654 38.024 45.8523 38.024ZM15.1875 37.9842C13.0744 37.9842 11.3594 39.6992 11.3594 41.8123C11.3594 43.9254 13.0744 45.6404 15.1875 45.6404C17.3006 45.6404 19.0156 43.9254 19.0156 41.8123C19.0156 39.6992 17.3006 37.9842 15.1875 37.9842ZM45.8523 39.5552C47.1202 39.5552 48.1492 40.5842 48.1492 41.8521C48.1492 43.12 47.1202 44.149 45.8523 44.149C44.5844 44.149 43.5554 43.12 43.5554 41.8521C43.5554 40.5842 44.5844 39.5552 45.8523 39.5552ZM15.1875 39.5154C16.4554 39.5154 17.4844 40.5444 17.4844 41.8123C17.4844 43.0802 16.4554 44.1092 15.1875 44.1092C13.9196 44.1092 12.8906 43.0802 12.8906 41.8123C12.8906 40.5444 13.9196 39.5154 15.1875 39.5154ZM15.1875 7.35917C13.0744 7.35917 11.3594 9.07417 11.3594 11.1873C11.3594 13.3004 13.0744 15.0154 15.1875 15.0154C17.3006 15.0154 19.0156 13.3004 19.0156 11.1873C19.0156 9.07417 17.3006 7.35917 15.1875 7.35917ZM45.8125 7.35917C43.6994 7.35917 41.9844 9.07417 41.9844 11.1873C41.9844 13.3004 43.6994 15.0154 45.8125 15.0154C47.9256 15.0154 49.6406 13.3004 49.6406 11.1873C49.6406 9.07417 47.9256 7.35917 45.8125 7.35917ZM15.1875 8.89042C16.4554 8.89042 17.4844 9.91942 17.4844 11.1873C17.4844 12.4552 16.4554 13.4842 15.1875 13.4842C13.9196 13.4842 12.8906 12.4552 12.8906 11.1873C12.8906 9.91942 13.9196 8.89042 15.1875 8.89042ZM45.8125 8.89042C47.0804 8.89042 48.1094 9.91942 48.1094 11.1873C48.1094 12.4552 47.0804 13.4842 45.8125 13.4842C44.5446 13.4842 43.5156 12.4552 43.5156 11.1873C43.5156 9.91942 44.5446 8.89042 45.8125 8.89042Z" fill="#1E83E6"/>
<path fill-rule="evenodd" clip-rule="evenodd" d="M33.2486 46.8584C33.2486 45.5905 32.2196 44.5615 30.9517 44.5615C29.6838 44.5615 28.6548 45.5905 28.6548 46.8584C28.6548 48.1263 29.6838 49.1553 30.9517 49.1553C32.2196 49.1553 33.2486 48.1263 33.2486 46.8584ZM31.7173 46.8584C31.7173 47.281 31.3743 47.624 30.9517 47.624C30.5291 47.624 30.1861 47.281 30.1861 46.8584C30.1861 46.4358 30.5291 46.0928 30.9517 46.0928C31.3743 46.0928 31.7173 46.4358 31.7173 46.8584ZM10.5938 24.2036C9.32588 24.2036 8.29688 25.2326 8.29688 26.5004C8.29688 27.7683 9.32588 28.7973 10.5938 28.7973C11.8616 28.7973 12.8906 27.7683 12.8906 26.5004C12.8906 25.2326 11.8616 24.2036 10.5938 24.2036ZM50.4062 24.2036C49.1384 24.2036 48.1094 25.2326 48.1094 26.5004C48.1094 27.7683 49.1384 28.7973 50.4062 28.7973C51.6741 28.7973 52.7031 27.7683 52.7031 26.5004C52.7031 25.2326 51.6741 24.2036 50.4062 24.2036ZM10.5938 25.7348C11.0164 25.7348 11.3594 26.0778 11.3594 26.5004C11.3594 26.9231 11.0164 27.2661 10.5938 27.2661C10.1711 27.2661 9.82812 26.9231 9.82812 26.5004C9.82812 26.0778 10.1711 25.7348 10.5938 25.7348ZM50.4062 25.7348C50.8289 25.7348 51.1719 26.0778 51.1719 26.5004C51.1719 26.9231 50.8289 27.2661 50.4062 27.2661C49.9836 27.2661 49.6406 26.9231 49.6406 26.5004C49.6406 26.0778 49.9836 25.7348 50.4062 25.7348ZM33.2486 7.0459C33.2486 5.77802 32.2196 4.74902 30.9517 4.74902C29.6838 4.74902 28.6548 5.77802 28.6548 7.0459C28.6548 8.31377 29.6838 9.34277 30.9517 9.34277C32.2196 9.34277 33.2486 8.31377 33.2486 7.0459ZM31.7173 7.0459C31.7173 7.46852 31.3743 7.81152 30.9517 7.81152C30.5291 7.81152 30.1861 7.46852 30.1861 7.0459C30.1861 6.62327 30.5291 6.28027 30.9517 6.28027C31.3743 6.28027 31.7173 6.62327 31.7173 7.0459Z" fill="#2D4356"/>
<path d="M1.47581 52.2915C1.73859 52.2915 1.95162 52.0784 1.95162 51.8157C1.95162 51.5529 1.73859 51.3398 1.47581 51.3398C1.21303 51.3398 1 51.5529 1 51.8157C1 52.0784 1.21303 52.2915 1.47581 52.2915Z" fill="#2D4356"/>
<path d="M4.5352 51.3398H4.12736C4.05525 51.3398 3.98609 51.39 3.9351 51.4792C3.88411 51.5684 3.85547 51.6895 3.85547 51.8157C3.85547 51.9418 3.88411 52.0629 3.9351 52.1521C3.98609 52.2413 4.05525 52.2915 4.12736 52.2915H4.5352C4.60731 52.2915 4.67646 52.2413 4.72745 52.1521C4.77844 52.0629 4.80709 51.9418 4.80709 51.8157C4.80709 51.6895 4.77844 51.5684 4.72745 51.4792C4.67646 51.39 4.60731 51.3398 4.5352 51.3398Z" fill="#2D4356"/>
<path d="M42.2366 58.1943H39.3818C39.209 58.2097 39.0478 58.2965 38.9302 58.4376C38.8126 58.5787 38.7473 58.7636 38.7473 58.9556C38.7473 59.1476 38.8126 59.3326 38.9302 59.4737C39.0478 59.6147 39.209 59.7016 39.3818 59.7169H42.2366C42.4094 59.7016 42.5706 59.6147 42.6882 59.4737C42.8058 59.3326 42.871 59.1476 42.871 58.9556C42.871 58.7636 42.8058 58.5787 42.6882 58.4376C42.5706 58.2965 42.4094 58.2097 42.2366 58.1943ZM21.6182 58.1943H18.7633C18.5905 58.2097 18.4293 58.2965 18.3118 58.4376C18.1942 58.5787 18.1289 58.7636 18.1289 58.9556C18.1289 59.1476 18.1942 59.3326 18.3118 59.4737C18.4293 59.6147 18.5905 59.7016 18.7633 59.7169H21.6182C21.791 59.7016 21.9522 59.6147 22.0698 59.4737C22.1873 59.3326 22.2526 59.1476 22.2526 58.9556C22.2526 58.7636 22.1873 58.5787 22.0698 58.4376C21.9522 58.2965 21.791 58.2097 21.6182 58.1943ZM37.3728 58.1943H23.6272C23.4449 58.1943 23.2701 58.2745 23.1412 58.4173C23.0123 58.5601 22.9399 58.7537 22.9399 58.9556C22.9399 59.1575 23.0123 59.3512 23.1412 59.494C23.2701 59.6367 23.4449 59.7169 23.6272 59.7169H29.1048V60.4782H26.3763C26.194 60.4782 26.0192 60.5584 25.8903 60.7012C25.7614 60.844 25.689 61.0376 25.689 61.2395C25.689 61.4414 25.7614 61.6351 25.8903 61.7778C26.0192 61.9206 26.194 62.0008 26.3763 62.0008H34.9673C35.1496 62.0008 35.3244 61.9206 35.4533 61.7778C35.5822 61.6351 35.6546 61.4414 35.6546 61.2395C35.6546 61.0376 35.5822 60.844 35.4533 60.7012C35.3244 60.5584 35.1496 60.4782 34.9673 60.4782H31.8952V59.7169H37.3728C37.5551 59.7169 37.7299 59.6367 37.8588 59.494C37.9877 59.3512 38.0601 59.1575 38.0601 58.9556C38.0601 58.7537 37.9877 58.5601 37.8588 58.4173C37.7299 58.2745 37.5551 58.1943 37.3728 58.1943Z" fill="#1E83E6"/>
<path d="M1.47581 52.2915C1.73859 52.2915 1.95162 52.0784 1.95162 51.8157C1.95162 51.5529 1.73859 51.3398 1.47581 51.3398C1.21303 51.3398 1 51.5529 1 51.8157C1 52.0784 1.21303 52.2915 1.47581 52.2915Z" fill="#2D4356"/>
<path d="M4.5352 51.3398H4.12736C4.05525 51.3398 3.98609 51.39 3.9351 51.4792C3.88411 51.5684 3.85547 51.6895 3.85547 51.8157C3.85547 51.9418 3.88411 52.0629 3.9351 52.1521C3.98609 52.2413 4.05525 52.2915 4.12736 52.2915H4.5352C4.60731 52.2915 4.67646 52.2413 4.72745 52.1521C4.77844 52.0629 4.80709 51.9418 4.80709 51.8157C4.80709 51.6895 4.77844 51.5684 4.72745 51.4792C4.67646 51.39 4.60731 51.3398 4.5352 51.3398Z" fill="#2D4356"/>
<path d="M56.8741 51.3398H56.4662C56.3941 51.3398 56.325 51.39 56.274 51.4792C56.223 51.5684 56.1943 51.6895 56.1943 51.8157C56.1943 51.9418 56.223 52.0629 56.274 52.1521C56.325 52.2413 56.3941 52.2915 56.4662 52.2915H56.8741C56.9462 52.2915 57.0153 52.2413 57.0663 52.1521C57.1173 52.0629 57.146 51.9418 57.146 51.8157C57.146 51.6895 57.1173 51.5684 57.0663 51.4792C57.0153 51.39 56.9462 51.3398 56.8741 51.3398Z" fill="#2D4356"/>
<path d="M59.5246 52.2915C59.7874 52.2915 60.0004 52.0784 60.0004 51.8157C60.0004 51.5529 59.7874 51.3398 59.5246 51.3398C59.2619 51.3398 59.0488 51.5529 59.0488 51.8157C59.0488 52.0784 59.2619 52.2915 59.5246 52.2915Z" fill="#2D4356"/>
<path d="M59.0492 13.0767V12.5218L57.8353 12.685V12.6685L58.5991 11.649L58.1166 11.3721L57.6262 12.5138H57.61L57.1117 11.38L56.6208 11.6655L57.3768 12.6605V12.677L56.1943 12.5218V13.0767L57.3847 12.9215V12.938L56.6208 13.933L57.0787 14.2269L57.6021 13.0767H57.6178L58.1004 14.2184L58.607 13.925L57.8353 12.9459V12.9295L59.0492 13.0767Z" fill="#1E83E6"/>
<path d="M39.7244 1.36305L40.5276 0.291388L40.02 0L39.5048 1.19987H39.4876L38.964 0.00841788L38.4475 0.308224L39.2424 1.35463V1.37147L38 1.20829V1.79171L39.2507 1.62853V1.64602L38.4475 2.69113L38.9296 3L39.4793 1.79171H39.4959L40.0034 2.99158L40.5359 2.68271L39.7244 1.65444V1.63695L41 1.79171V1.20829L39.7244 1.37988V1.36305Z" fill="#1E83E6"/>
<path d="M55.8938 54.3333H49.3064C50.0615 53.4978 50.4797 52.4119 50.4801 51.2857C50.4801 51.0836 50.3998 50.8898 50.2569 50.747C50.1141 50.6041 49.9203 50.5238 49.7182 50.5238C49.5161 50.5238 49.3223 50.6041 49.1794 50.747C49.0366 50.8898 48.9563 51.0836 48.9563 51.2857C48.9563 52.094 48.6352 52.8692 48.0637 53.4407C47.4921 54.0122 46.7169 54.3333 45.9087 54.3333C45.1004 54.3333 44.3252 54.0122 43.7537 53.4407C43.1821 52.8692 42.861 52.094 42.861 51.2857C42.861 51.0836 42.7808 50.8898 42.6379 50.747C42.495 50.6041 42.3012 50.5238 42.0991 50.5238C41.8971 50.5238 41.7033 50.6041 41.5604 50.747C41.4175 50.8898 41.3372 51.0836 41.3372 51.2857C41.3376 52.4119 41.7559 53.4978 42.511 54.3333H18.6358C19.3909 53.4978 19.8091 52.4119 19.8095 51.2857C19.8095 51.0836 19.7293 50.8898 19.5864 50.747C19.4435 50.6041 19.2497 50.5238 19.0476 50.5238C18.8455 50.5238 18.6518 50.6041 18.5089 50.747C18.366 50.8898 18.2857 51.0836 18.2857 51.2857C18.2857 52.094 17.9646 52.8692 17.3931 53.4407C16.8215 54.0122 16.0464 54.3333 15.2381 54.3333C14.4298 54.3333 13.6546 54.0122 13.0831 53.4407C12.5116 52.8692 12.1905 52.094 12.1905 51.2857C12.1905 51.0836 12.1102 50.8898 11.9673 50.747C11.8244 50.6041 11.6306 50.5238 11.4286 50.5238C11.2265 50.5238 11.0327 50.6041 10.8898 50.747C10.7469 50.8898 10.6667 51.0836 10.6667 51.2857C10.6671 52.4119 11.0853 53.4978 11.8404 54.3333H5.05855C4.95016 54.3192 4.83999 54.3283 4.73541 54.3601C4.63083 54.3919 4.53424 54.4457 4.45209 54.5178C4.36994 54.5899 4.30412 54.6787 4.25903 54.7783C4.21394 54.8779 4.19062 54.9859 4.19062 55.0952C4.19062 55.2045 4.21394 55.3126 4.25903 55.4122C4.30412 55.5118 4.36994 55.6006 4.45209 55.6727C4.53424 55.7448 4.63083 55.7986 4.73541 55.8304C4.83999 55.8622 4.95016 55.8713 5.05855 55.8571H55.8938C56.0022 55.8713 56.1124 55.8622 56.217 55.8304C56.3216 55.7986 56.4181 55.7448 56.5003 55.6727C56.5824 55.6006 56.6483 55.5118 56.6934 55.4122C56.7384 55.3126 56.7618 55.2045 56.7618 55.0952C56.7618 54.9859 56.7384 54.8779 56.6934 54.7783C56.6483 54.6787 56.5824 54.5899 56.5003 54.5178C56.4181 54.4457 56.3216 54.3919 56.217 54.3601C56.1124 54.3283 56.0022 54.3192 55.8938 54.3333ZM17.1993 3.66667C17.4253 3.66667 17.6463 3.59964 17.8342 3.47406C18.0222 3.34848 18.1686 3.16999 18.2551 2.96116C18.3416 2.75233 18.3643 2.52254 18.3202 2.30085C18.2761 2.07916 18.1672 1.87552 18.0074 1.71569C17.8476 1.55586 17.6439 1.44701 17.4222 1.40291C17.2005 1.35881 16.9707 1.38145 16.7619 1.46795C16.5531 1.55445 16.3746 1.70093 16.249 1.88887C16.1234 2.07681 16.0564 2.29777 16.0564 2.52381C16.0568 2.82681 16.1773 3.1173 16.3915 3.33155C16.6058 3.5458 16.8963 3.66632 17.1993 3.66667ZM17.1993 1.95238C17.3123 1.95238 17.4228 1.98589 17.5167 2.04868C17.6107 2.11147 17.684 2.20072 17.7272 2.30513C17.7705 2.40955 17.7818 2.52444 17.7597 2.63529C17.7377 2.74614 17.6833 2.84795 17.6033 2.92787C17.5234 3.00779 17.4216 3.06221 17.3108 3.08426C17.1999 3.10631 17.085 3.09499 16.9806 3.05174C16.8762 3.00849 16.7869 2.93525 16.7241 2.84128C16.6614 2.74731 16.6278 2.63683 16.6278 2.52381C16.628 2.3723 16.6882 2.22704 16.7954 2.11991C16.9025 2.01278 17.0478 1.95253 17.1993 1.95238ZM42.8571 1C42.7065 1 42.5591 1.04468 42.4339 1.1284C42.3086 1.21212 42.2109 1.33112 42.1532 1.47034C42.0956 1.60956 42.0805 1.76275 42.1099 1.91054C42.1393 2.05834 42.2118 2.1941 42.3184 2.30065C42.4249 2.40721 42.5607 2.47977 42.7085 2.50917C42.8563 2.53857 43.0095 2.52348 43.1487 2.46581C43.2879 2.40815 43.4069 2.31049 43.4906 2.1852C43.5744 2.0599 43.619 1.9126 43.619 1.7619C43.6188 1.55991 43.5385 1.36625 43.3956 1.22341C43.2528 1.08058 43.0591 1.00023 42.8571 1ZM42.8571 2.14286C42.7818 2.14286 42.7081 2.12051 42.6455 2.07866C42.5828 2.0368 42.534 1.9773 42.5052 1.90769C42.4764 1.83808 42.4688 1.76148 42.4835 1.68758C42.4982 1.61369 42.5345 1.54581 42.5878 1.49253C42.641 1.43925 42.7089 1.40297 42.7828 1.38827C42.8567 1.37357 42.9333 1.38112 43.0029 1.40995C43.0725 1.43878 43.132 1.48761 43.1739 1.55026C43.2158 1.61291 43.2381 1.68656 43.2381 1.7619C43.238 1.86291 43.1978 1.95975 43.1264 2.03117C43.055 2.10259 42.9581 2.14276 42.8571 2.14286ZM10.9524 17.7153C10.8017 17.7153 10.6544 17.76 10.5291 17.8437C10.4038 17.9274 10.3061 18.0464 10.2485 18.1856C10.1908 18.3249 10.1757 18.4781 10.2051 18.6259C10.2345 18.7737 10.3071 18.9094 10.4136 19.016C10.5202 19.1225 10.6559 19.1951 10.8037 19.2245C10.9515 19.2539 11.1047 19.2388 11.2439 19.1811C11.3832 19.1235 11.5022 19.0258 11.5859 18.9005C11.6696 18.7752 11.7143 18.6279 11.7143 18.4772C11.7141 18.2752 11.6337 18.0816 11.4909 17.9387C11.348 17.7959 11.1544 17.7155 10.9524 17.7153ZM10.9524 18.8582C10.877 18.8582 10.8034 18.8358 10.7407 18.794C10.6781 18.7521 10.6293 18.6926 10.6004 18.623C10.5716 18.5534 10.5641 18.4768 10.5787 18.4029C10.5934 18.329 10.6297 18.2611 10.683 18.2078C10.7363 18.1546 10.8042 18.1183 10.8781 18.1036C10.952 18.0889 11.0286 18.0964 11.0982 18.1253C11.1678 18.1541 11.2273 18.2029 11.2691 18.2656C11.311 18.3282 11.3333 18.4019 11.3333 18.4772C11.3332 18.5782 11.2931 18.6751 11.2216 18.7465C11.1502 18.8179 11.0534 18.8581 10.9524 18.8582ZM59.4286 6.23355C59.2779 6.23355 59.1306 6.27823 59.0053 6.36195C58.88 6.44567 58.7823 6.56467 58.7247 6.70389C58.667 6.84311 58.6519 6.9963 58.6813 7.14409C58.7107 7.29189 58.7833 7.42765 58.8898 7.5342C58.9964 7.64076 59.1321 7.71332 59.2799 7.74272C59.4277 7.77212 59.5809 7.75703 59.7201 7.69936C59.8594 7.6417 59.9784 7.54404 60.0621 7.41875C60.1458 7.29345 60.1905 7.14615 60.1905 6.99545C60.1902 6.79346 60.1099 6.5998 59.9671 6.45696C59.8242 6.31413 59.6306 6.23378 59.4286 6.23355ZM59.4286 7.37641C59.3532 7.37641 59.2796 7.35406 59.2169 7.31221C59.1543 7.27035 59.1055 7.21085 59.0766 7.14124C59.0478 7.07163 59.0402 6.99503 59.0549 6.92113C59.0696 6.84724 59.1059 6.77936 59.1592 6.72608C59.2125 6.6728 59.2804 6.63652 59.3543 6.62182C59.4282 6.60712 59.5047 6.61467 59.5744 6.6435C59.644 6.67233 59.7035 6.72116 59.7453 6.78381C59.7872 6.84646 59.8095 6.92011 59.8095 6.99545C59.8094 7.09646 59.7693 7.1933 59.6978 7.26472C59.6264 7.33614 59.5296 7.37631 59.4286 7.37641ZM1.52381 15.8571C1.52381 15.7065 1.47913 15.5591 1.39541 15.4339C1.31169 15.3086 1.19269 15.2109 1.05347 15.1532C0.914254 15.0956 0.76106 15.0805 0.613265 15.1099C0.46547 15.1393 0.329711 15.2118 0.223157 15.3184C0.116603 15.4249 0.0440384 15.5607 0.0146401 15.7085C-0.0147581 15.8563 0.00033012 16.0095 0.0579969 16.1487C0.115664 16.2879 0.213319 16.4069 0.338614 16.4906C0.463908 16.5744 0.611215 16.619 0.761905 16.619C0.963904 16.6188 1.15756 16.5385 1.3004 16.3956C1.44323 16.2528 1.52358 16.0591 1.52381 15.8571ZM0.380953 15.8571C0.380953 15.7818 0.403295 15.7081 0.445155 15.6455C0.487014 15.5828 0.546511 15.534 0.616121 15.5052C0.685731 15.4764 0.762328 15.4688 0.836225 15.4835C0.910123 15.4982 0.978002 15.5345 1.03128 15.5878C1.08456 15.641 1.12084 15.7089 1.13554 15.7828C1.15024 15.8567 1.14269 15.9333 1.11386 16.0029C1.08503 16.0725 1.0362 16.132 0.973551 16.1739C0.910904 16.2158 0.837251 16.2381 0.761905 16.2381C0.660901 16.238 0.564063 16.1978 0.492643 16.1264C0.421222 16.055 0.381054 15.9581 0.380953 15.8571Z" fill="#2D4356"/>
<path d="M34.8004 7.95815L35.2797 7.32806L34.9772 7.15625L34.6694 7.86215H34.6591L34.3467 7.1612L34.0389 7.33796L34.5132 7.9532V7.96349L33.7715 7.86749V8.21035L34.5182 8.11473V8.12463L34.0389 8.73987L34.3262 8.92158L34.6542 8.21035H34.6641L34.9669 8.91625L35.2846 8.73492L34.8004 8.12958V8.11968L35.562 8.21035V7.86749L34.8004 7.96806V7.95815Z" fill="#1E83E6"/>
</svg>
