<svg width="59" height="61" viewBox="0 0 59 61" fill="none" xmlns="http://www.w3.org/2000/svg">
<g clip-path="url(#clip0_371_3418)">
<path d="M0.702381 55.4275C1.0903 55.4275 1.40476 55.1055 1.40476 54.7084C1.40476 54.3112 1.0903 53.9893 0.702381 53.9893C0.314467 53.9893 0 54.3112 0 54.7084C0 55.1055 0.314467 55.4275 0.702381 55.4275Z" fill="#2D4356"/>
<path d="M3.86337 53.9893H2.8098C2.62352 53.9893 2.44487 54.065 2.31314 54.1999C2.18142 54.3347 2.10742 54.5176 2.10742 54.7084C2.10742 54.8991 2.18142 55.082 2.31314 55.2168C2.44487 55.3517 2.62352 55.4275 2.8098 55.4275H3.86337C4.04966 55.4275 4.22831 55.3517 4.36003 55.2168C4.49175 55.082 4.56576 54.8991 4.56576 54.7084C4.56576 54.5176 4.49175 54.3347 4.36003 54.1999C4.22831 54.065 4.04966 53.9893 3.86337 53.9893ZM56.1908 53.9893H55.1372C54.9509 53.9893 54.7722 54.065 54.6405 54.1999C54.5088 54.3347 54.4348 54.5176 54.4348 54.7084C54.4348 54.8991 54.5088 55.082 54.6405 55.2168C54.7722 55.3517 54.9509 55.4275 55.1372 55.4275H56.1908C56.377 55.4275 56.5557 55.3517 56.6874 55.2168C56.8191 55.082 56.8931 54.8991 56.8931 54.7084C56.8931 54.5176 56.8191 54.3347 56.6874 54.1999C56.5557 54.065 56.377 53.9893 56.1908 53.9893Z" fill="#2D4356"/>
<path d="M58.2981 55.4275C58.686 55.4275 59.0005 55.1055 59.0005 54.7084C59.0005 54.3112 58.686 53.9893 58.2981 53.9893C57.9102 53.9893 57.5957 54.3112 57.5957 54.7084C57.5957 55.1055 57.9102 55.4275 58.2981 55.4275Z" fill="#2D4356"/>
<path d="M41.4948 56.8662H38.5772C38.4006 56.8807 38.2359 56.9627 38.1157 57.096C37.9956 57.2293 37.9289 57.404 37.9289 57.5853C37.9289 57.7667 37.9956 57.9414 38.1157 58.0746C38.2359 58.2079 38.4006 58.2899 38.5772 58.3044H41.4948C41.6714 58.2899 41.8361 58.2079 41.9563 58.0746C42.0764 57.9414 42.1432 57.7667 42.1432 57.5853C42.1432 57.404 42.0764 57.2293 41.9563 57.096C41.8361 56.9627 41.6714 56.8807 41.4948 56.8662ZM20.4234 56.8662H17.5058C17.3292 56.8807 17.1644 56.9627 17.0443 57.096C16.9241 57.2293 16.8574 57.404 16.8574 57.5853C16.8574 57.7667 16.9241 57.9414 17.0443 58.0746C17.1644 58.2079 17.3292 58.2899 17.5058 58.3044H20.4234C20.5999 58.2899 20.7647 58.2079 20.8849 58.0746C21.005 57.9414 21.0717 57.7667 21.0717 57.5853C21.0717 57.404 21.005 57.2293 20.8849 57.096C20.7647 56.9627 20.5999 56.8807 20.4234 56.8662ZM36.5241 56.8662H22.4765C22.2902 56.8662 22.1115 56.942 21.9798 57.0768C21.8481 57.2117 21.7741 57.3946 21.7741 57.5853C21.7741 57.776 21.8481 57.9589 21.9798 58.0938C22.1115 58.2287 22.2902 58.3044 22.4765 58.3044H28.0745V59.0235H25.286C25.0997 59.0235 24.9211 59.0993 24.7893 59.2341C24.6576 59.369 24.5836 59.5519 24.5836 59.7426C24.5836 59.9333 24.6576 60.1163 24.7893 60.2511C24.9211 60.386 25.0997 60.4617 25.286 60.4617H34.0658C34.252 60.4617 34.4307 60.386 34.5624 60.2511C34.6941 60.1163 34.7681 59.9333 34.7681 59.7426C34.7681 59.5519 34.6941 59.369 34.5624 59.2341C34.4307 59.0993 34.252 59.0235 34.0658 59.0235H30.9261V58.3044H36.5241C36.7104 58.3044 36.889 58.2287 37.0208 58.0938C37.1525 57.9589 37.2265 57.776 37.2265 57.5853C37.2265 57.3946 37.1525 57.2117 37.0208 57.0768C36.889 56.942 36.7104 56.8662 36.5241 56.8662Z" fill="#1E83E6"/>
<path d="M34.0077 14.9867C34.0929 15.0229 34.1842 15.0416 34.2765 15.0417C34.3687 15.0417 34.4601 15.0231 34.5453 14.987C34.6306 14.9509 34.708 14.898 34.7732 14.8312C34.8385 14.7644 34.8902 14.6851 34.9255 14.5978L36.0634 11.7876C36.0987 11.7004 36.1169 11.6068 36.117 11.5124C36.117 11.418 36.0989 11.3244 36.0636 11.2372C36.0283 11.1499 35.9766 11.0706 35.9114 11.0038C35.8462 10.937 35.7688 10.884 35.6836 10.8478C35.5984 10.8116 35.507 10.793 35.4148 10.793C35.3225 10.7929 35.2312 10.8115 35.1459 10.8476C35.0607 10.8837 34.9833 10.9367 34.918 11.0034C34.8527 11.0702 34.801 11.1494 34.7656 11.2367L33.6277 14.0469C33.5564 14.2231 33.5564 14.4211 33.6276 14.5974C33.6989 14.7736 33.8356 14.9136 34.0077 14.9867Z" fill="#1E83E6"/>
<path d="M39.6124 18.5176C39.7048 18.5178 39.7964 18.4992 39.8817 18.4629C39.9671 18.4266 40.0446 18.3734 40.1097 18.3063L42.2151 16.1446C42.2806 16.0778 42.3326 15.9984 42.3681 15.911C42.4036 15.8237 42.4219 15.73 42.4219 15.6353C42.4219 15.5407 42.4037 15.447 42.3683 15.3596C42.3329 15.2721 42.281 15.1927 42.2155 15.1259C42.1501 15.0591 42.0724 15.0061 41.9869 14.9701C41.9014 14.9341 41.8098 14.9157 41.7174 14.916C41.625 14.9163 41.5335 14.9353 41.4482 14.9719C41.363 15.0084 41.2856 15.0619 41.2206 15.1291L39.1151 17.2908C39.0171 17.3915 38.9504 17.5196 38.9235 17.659C38.8966 17.7984 38.9106 17.9429 38.9638 18.0742C39.017 18.2054 39.107 18.3176 39.2225 18.3966C39.3379 18.4755 39.4736 18.5176 39.6124 18.5176Z" fill="#2D4356"/>
<path d="M43.2491 23.7866C43.3426 23.7865 43.4352 23.7673 43.5214 23.7301L46.2791 22.5406C46.4505 22.4664 46.5861 22.3256 46.6562 22.149C46.7263 21.9725 46.725 21.7748 46.6528 21.5992C46.5806 21.4236 46.4432 21.2845 46.2709 21.2125C46.0986 21.1405 45.9054 21.1415 45.7338 21.2151L42.9761 22.4046C42.8267 22.4691 42.7037 22.5845 42.6279 22.7313C42.5521 22.8781 42.5283 23.0472 42.5605 23.2099C42.5926 23.3726 42.6787 23.519 42.8042 23.6241C42.9298 23.7292 43.0869 23.7866 43.2491 23.7866ZM21.2657 14.5978C21.3371 14.774 21.4739 14.914 21.646 14.9869C21.8182 15.0598 22.0116 15.0598 22.1837 14.9867C22.3557 14.9136 22.4924 14.7736 22.5637 14.5973C22.6349 14.4211 22.6348 14.2231 22.5635 14.0469L21.4255 11.2367C21.3542 11.0605 21.2174 10.9205 21.0452 10.8476C20.8731 10.7747 20.6797 10.7748 20.5076 10.8478C20.3355 10.9209 20.1988 11.0609 20.1276 11.2372C20.0564 11.4134 20.0564 11.6114 20.1278 11.7876L21.2657 14.5978Z" fill="#1E83E6"/>
<path d="M16.0802 18.3056C16.1452 18.3729 16.2226 18.4263 16.3079 18.4629C16.3931 18.4994 16.4846 18.5184 16.577 18.5187C16.6695 18.519 16.761 18.5006 16.8465 18.4646C16.932 18.4286 17.0097 18.3756 17.0751 18.3088C17.1406 18.242 17.1925 18.1626 17.2279 18.0752C17.2634 17.9878 17.2816 17.894 17.2815 17.7994C17.2815 17.7048 17.2632 17.6111 17.2277 17.5237C17.1922 17.4363 17.1403 17.3569 17.0748 17.2902L14.9693 15.1285C14.8376 14.9942 14.6594 14.9189 14.4735 14.9189C14.2877 14.919 14.1095 14.9945 13.9779 15.1288C13.8463 15.2632 13.7721 15.4455 13.7715 15.6357C13.7709 15.826 13.844 16.0087 13.9748 16.1439L16.0802 18.3056Z" fill="#2D4356"/>
<path d="M9.9131 22.5406L12.6708 23.7301C12.8425 23.8041 13.0359 23.8053 13.2084 23.7333C13.381 23.6614 13.5185 23.5222 13.5908 23.3465C13.6631 23.1707 13.6643 22.9727 13.594 22.7961C13.5238 22.6194 13.3878 22.4786 13.2162 22.4046L10.4584 21.2151C10.2868 21.1414 10.0936 21.1405 9.92133 21.2125C9.74903 21.2845 9.61169 21.4236 9.53945 21.5992C9.46721 21.7748 9.46599 21.9725 9.53605 22.149C9.60611 22.3256 9.74172 22.4664 9.91311 22.5406L9.9131 22.5406Z" fill="#1E83E6"/>
<path d="M52.9318 53.9889H6.06806C5.96813 53.9756 5.86658 53.9842 5.77016 54.0142C5.67375 54.0442 5.58471 54.095 5.50898 54.163C5.43324 54.2311 5.37257 54.3149 5.331 54.4089C5.28943 54.5029 5.26793 54.6049 5.26793 54.708C5.26793 54.8112 5.28943 54.9132 5.331 55.0072C5.37257 55.1012 5.43324 55.185 5.50898 55.2531C5.58471 55.3211 5.67375 55.3719 5.77016 55.4019C5.86658 55.4319 5.96813 55.4405 6.06806 55.4271H52.9318C53.0318 55.4405 53.1333 55.4319 53.2297 55.4019C53.3261 55.3719 53.4152 55.3211 53.4909 55.2531C53.5667 55.185 53.6273 55.1012 53.6689 55.0072C53.7105 54.9132 53.732 54.8112 53.732 54.708C53.732 54.6049 53.7105 54.5029 53.6689 54.4089C53.6273 54.3149 53.5667 54.2311 53.4909 54.163C53.4152 54.095 53.3261 54.0442 53.2297 54.0142C53.1333 53.9842 53.0318 53.9756 52.9318 53.9889ZM35.226 6.8876C35.4344 6.8876 35.6381 6.82434 35.8113 6.70581C35.9846 6.58729 36.1196 6.41883 36.1994 6.22173C36.2791 6.02463 36.3 5.80775 36.2593 5.59851C36.2187 5.38927 36.1183 5.19707 35.971 5.04622C35.8237 4.89537 35.6359 4.79263 35.4315 4.75101C35.2272 4.70939 35.0153 4.73075 34.8228 4.8124C34.6303 4.89404 34.4658 5.03229 34.35 5.20967C34.2342 5.38706 34.1724 5.59561 34.1724 5.80894C34.1728 6.09492 34.2839 6.36909 34.4814 6.57131C34.6789 6.77352 34.9467 6.88727 35.226 6.8876ZM35.226 5.26962C35.3302 5.26962 35.432 5.30125 35.5187 5.36051C35.6053 5.41977 35.6728 5.504 35.7127 5.60255C35.7526 5.7011 35.763 5.80954 35.7427 5.91416C35.7223 6.01878 35.6722 6.11488 35.5985 6.19031C35.5248 6.26573 35.431 6.3171 35.3288 6.33791C35.2266 6.35872 35.1207 6.34804 35.0244 6.30722C34.9282 6.2664 34.8459 6.19727 34.788 6.10858C34.7301 6.01989 34.6992 5.91561 34.6992 5.80894C34.6994 5.66595 34.7549 5.52885 34.8537 5.42774C34.9524 5.32662 35.0863 5.26976 35.226 5.26962ZM52.7855 19.4719C52.6466 19.4719 52.5108 19.5141 52.3953 19.5931C52.2798 19.6721 52.1898 19.7844 52.1366 19.9158C52.0835 20.0472 52.0695 20.1918 52.0966 20.3313C52.1238 20.4708 52.1907 20.5989 52.2889 20.6995C52.3871 20.8001 52.5123 20.8686 52.6485 20.8963C52.7848 20.9241 52.926 20.9098 53.0543 20.8554C53.1827 20.801 53.2924 20.7088 53.3695 20.5905C53.4467 20.4723 53.4879 20.3333 53.4879 20.191C53.4877 20.0004 53.4136 19.8176 53.282 19.6828C53.1503 19.548 52.9718 19.4721 52.7855 19.4719ZM52.7855 20.5506C52.7161 20.5506 52.6482 20.5295 52.5904 20.49C52.5327 20.4505 52.4877 20.3943 52.4611 20.3286C52.4345 20.2629 52.4275 20.1906 52.4411 20.1209C52.4546 20.0511 52.4881 19.9871 52.5372 19.9368C52.5863 19.8865 52.6489 19.8523 52.717 19.8384C52.7851 19.8245 52.8558 19.8316 52.9199 19.8588C52.9841 19.8861 53.039 19.9321 53.0775 19.9913C53.1161 20.0504 53.1367 20.1199 53.1367 20.191C53.1366 20.2864 53.0996 20.3778 53.0338 20.4452C52.9679 20.5126 52.8786 20.5505 52.7855 20.5506ZM2.2141 1.13477C2.07518 1.13477 1.93938 1.17694 1.82388 1.25596C1.70837 1.33497 1.61835 1.44728 1.56518 1.57868C1.51202 1.71008 1.49811 1.85467 1.52522 1.99416C1.55232 2.13365 1.61921 2.26179 1.71744 2.36235C1.81567 2.46292 1.94082 2.53141 2.07707 2.55916C2.21332 2.5869 2.35455 2.57266 2.48289 2.51824C2.61123 2.46381 2.72093 2.37164 2.79811 2.25338C2.87529 2.13513 2.91648 1.9961 2.91648 1.85387C2.91627 1.66322 2.8422 1.48044 2.71052 1.34563C2.57885 1.21082 2.40032 1.13498 2.2141 1.13477ZM2.2141 2.21342C2.14464 2.21342 2.07674 2.19233 2.01899 2.15283C1.96124 2.11332 1.91622 2.05716 1.88964 1.99146C1.86306 1.92577 1.85611 1.85347 1.86966 1.78372C1.88321 1.71398 1.91666 1.64991 1.96577 1.59963C2.01489 1.54934 2.07746 1.5151 2.14559 1.50123C2.21371 1.48735 2.28432 1.49447 2.34849 1.52169C2.41267 1.5489 2.46751 1.59499 2.5061 1.65411C2.54469 1.71324 2.56529 1.78276 2.56529 1.85387C2.5652 1.9492 2.52817 2.0406 2.46233 2.10801C2.39649 2.17542 2.30721 2.21333 2.2141 2.21342ZM48.9224 1.49432C48.7835 1.49432 48.6477 1.53649 48.5322 1.61551C48.4167 1.69452 48.3267 1.80683 48.2735 1.93823C48.2204 2.06963 48.2065 2.21422 48.2336 2.35371C48.2607 2.49321 48.3276 2.62134 48.4258 2.72191C48.524 2.82247 48.6492 2.89096 48.7854 2.91871C48.9217 2.94646 49.0629 2.93222 49.1912 2.87779C49.3196 2.82336 49.4293 2.73119 49.5065 2.61294C49.5836 2.49468 49.6248 2.35565 49.6248 2.21342C49.6246 2.02277 49.5505 1.83999 49.4189 1.70518C49.2872 1.57037 49.1087 1.49454 48.9224 1.49432ZM48.9224 2.57297C48.853 2.57297 48.7851 2.55189 48.7273 2.51238C48.6696 2.47287 48.6246 2.41672 48.598 2.35102C48.5714 2.28532 48.5644 2.21302 48.578 2.14328C48.5915 2.07353 48.625 2.00946 48.6741 1.95918C48.7232 1.9089 48.7858 1.87465 48.8539 1.86078C48.9221 1.84691 48.9927 1.85403 49.0568 1.88124C49.121 1.90845 49.1759 1.95454 49.2144 2.01367C49.253 2.07279 49.2736 2.14231 49.2736 2.21342C49.2735 2.30875 49.2365 2.40015 49.1707 2.46756C49.1048 2.53497 49.0155 2.57288 48.9224 2.57297ZM11.6962 9.76402C11.6962 9.62179 11.655 9.48276 11.5779 9.3645C11.5007 9.24625 11.391 9.15408 11.2627 9.09965C11.1343 9.04522 10.9931 9.03098 10.8568 9.05873C10.7206 9.08648 10.5954 9.15497 10.4972 9.25553C10.399 9.3561 10.3321 9.48423 10.305 9.62373C10.2779 9.76322 10.2918 9.90781 10.3449 10.0392C10.3981 10.1706 10.4881 10.2829 10.6036 10.3619C10.7191 10.4409 10.8549 10.4831 10.9939 10.4831C11.1801 10.4829 11.3586 10.4071 11.4903 10.2723C11.622 10.1374 11.696 9.95467 11.6962 9.76402ZM10.6427 9.76402C10.6427 9.69291 10.6633 9.62339 10.7019 9.56426C10.7404 9.50513 10.7953 9.45905 10.8595 9.43184C10.9236 9.40462 10.9943 9.3975 11.0624 9.41137C11.1305 9.42525 11.1931 9.45949 11.2422 9.50978C11.2913 9.56006 11.3248 9.62413 11.3383 9.69387C11.3519 9.76362 11.3449 9.83591 11.3183 9.90161C11.2917 9.96731 11.2467 10.0235 11.189 10.063C11.1312 10.1025 11.0633 10.1236 10.9939 10.1236C10.9008 10.1235 10.8115 10.0856 10.7456 10.0182C10.6798 9.95075 10.6428 9.85935 10.6427 9.76402Z" fill="#2D4356"/>
<path d="M3.82448 25.5885L4.3467 24.8856L4.01693 24.6943L3.68154 25.4818H3.67065L3.33 24.6997L2.99461 24.8968L3.51121 25.5831V25.5943L2.70312 25.4875V25.8701L3.51648 25.7633V25.7744L2.99461 26.4605L3.30752 26.6632L3.66504 25.8701H3.67592L4.00569 26.6575L4.35196 26.4551L3.82448 25.7798V25.7687L4.65399 25.8701V25.4875L3.82448 25.5997V25.5885Z" fill="#1E83E6"/>
<path d="M21.0993 2.95699L20.7987 3.35213L20.9792 3.46863L21.185 3.012H21.191L21.381 3.46539L21.5805 3.3489L21.2767 2.95986V2.95339L21.7543 3.012V2.79159L21.2767 2.85631V2.84984L21.5773 2.44498L21.3877 2.33496L21.1945 2.78836H21.1882L20.9919 2.33784L20.7987 2.45146L21.0962 2.8466V2.85308L20.6309 2.79159V3.012L21.0993 2.95051V2.95699Z" fill="#1E83E6"/>
<path d="M57.7027 11.8181V11.4431L56.889 11.5535V11.5423L57.401 10.8527L57.0776 10.665L56.7489 11.4374H56.738L56.404 10.6704L56.0749 10.8639L56.5817 11.537V11.5481L55.7891 11.4431V11.8181L56.587 11.7135V11.7246L56.0749 12.3977L56.3822 12.5966L56.7327 11.8181H56.7432L57.0667 12.5908L57.4063 12.3923L56.889 11.73V11.7189L57.7027 11.8181Z" fill="#1E83E6"/>
<path d="M45.9173 11.4131L46.3591 10.818L46.0799 10.6562L45.7965 11.3225H45.787L45.4991 10.6609L45.2149 10.8278L45.6522 11.4084V11.4178L44.9688 11.3275V11.6511L45.6567 11.5605V11.5702L45.2149 12.1509L45.4801 12.3224L45.7825 11.6511H45.7916L46.0708 12.3174L46.3637 12.1462L45.9173 11.5749V11.5652L46.619 11.6511V11.3275L45.9173 11.4225V11.4131Z" fill="#1E83E6"/>
<path d="M35.7322 46.8913H19.055C17.7914 46.8913 16.7637 45.8385 16.7637 44.5445V24.6135C16.7637 23.3195 17.7914 22.2666 19.055 22.2666H35.7322C36.9961 22.2666 38.0245 23.3195 38.0245 24.6135V44.5445C38.0245 45.8385 36.9961 46.8913 35.7322 46.8913ZM19.055 23.627C18.5243 23.627 18.0925 24.0695 18.0925 24.6135V44.5445C18.0925 45.0885 18.5243 45.5309 19.055 45.5309H35.7322C36.2636 45.5309 36.6957 45.0885 36.6957 44.5445V24.6135C36.6957 24.0695 36.2636 23.627 35.7322 23.627H19.055Z" fill="#E7E5EA"/>
<path d="M35.657 51.8698H19.1283C17.876 51.8698 16.8574 50.8047 16.8574 49.4952V19.828C16.8574 18.5186 17.876 17.4531 19.1283 17.4531H35.657C36.9096 17.4531 37.9289 18.5186 37.9289 19.828V49.4952C37.9289 50.8047 36.9096 51.8698 35.657 51.8698ZM19.1283 18.8298C18.6023 18.8298 18.1744 19.2775 18.1744 19.828V49.4952C18.1744 50.0454 18.6023 50.4931 19.1283 50.4931H35.657C36.1836 50.4931 36.6119 50.0454 36.6119 49.4952V19.828C36.6119 19.2775 36.1836 18.8298 35.657 18.8298H19.1283Z" fill="#2D4356"/>
<path d="M29.4334 49.505H25.3539C24.9869 49.505 24.6895 49.2004 24.6895 48.8248C24.6895 48.4491 24.9869 48.1445 25.3539 48.1445H29.4334C29.8003 48.1445 30.0978 48.4491 30.0978 48.8248C30.0978 49.2004 29.8003 49.505 29.4334 49.505Z" fill="#2D4356"/>
<path d="M25.8721 33.702H22.0531C21.6862 33.702 21.3887 33.3974 21.3887 33.0218V29.1119C21.3887 28.7362 21.6862 28.4316 22.0531 28.4316H25.8721C26.239 28.4316 26.5365 28.7362 26.5365 29.1119V33.0218C26.5365 33.3974 26.239 33.702 25.8721 33.702ZM22.7175 32.3416H25.2077V29.7921H22.7175V32.3416Z" fill="#1E83E6"/>
<path d="M32.7354 33.702H28.9164C28.5494 33.702 28.252 33.3974 28.252 33.0218V29.1119C28.252 28.7362 28.5494 28.4316 28.9164 28.4316H32.7354C33.1023 28.4316 33.3998 28.7362 33.3998 29.1119V33.0218C33.3998 33.3974 33.1023 33.702 32.7354 33.702ZM29.5808 32.3416H32.071V29.7921H29.5808V32.3416Z" fill="#1E83E6"/>
<path d="M25.8721 40.7264H22.0531C21.6862 40.7264 21.3887 40.4218 21.3887 40.0462V36.1373C21.3887 35.7616 21.6862 35.457 22.0531 35.457H25.8721C26.239 35.457 26.5365 35.7616 26.5365 36.1373V40.0462C26.5365 40.4218 26.239 40.7264 25.8721 40.7264ZM22.7175 39.366H25.2077V36.8175H22.7175V39.366Z" fill="#1E83E6"/>
<path d="M32.7354 40.7264H28.9164C28.5494 40.7264 28.252 40.4218 28.252 40.0462V36.1373C28.252 35.7616 28.5494 35.457 28.9164 35.457H32.7354C33.1023 35.457 33.3998 35.7616 33.3998 36.1373V40.0462C33.3998 40.4218 33.1023 40.7264 32.7354 40.7264ZM29.5808 39.366H32.071V36.8175H29.5808V39.366Z" fill="#3E89F5"/>
</g>
<defs>
<clipPath id="clip0_371_3418">
<rect width="59" height="60.4048" fill="white" transform="translate(0 0.595703)"/>
</clipPath>
</defs>
</svg>
