<svg width="53" height="53" viewBox="0 0 53 53" fill="none" xmlns="http://www.w3.org/2000/svg">
<path d="M5.79184 14.8008H44.4006C44.6672 14.8008 44.9273 14.718 45.1449 14.5638C45.3624 14.4095 45.5267 14.1915 45.615 13.9399C45.7033 13.6882 45.7112 13.4154 45.6376 13.159C45.5641 12.9027 45.4128 12.6755 45.2045 12.5089L38.7697 7.36112C38.5415 7.17855 38.258 7.0791 37.9658 7.0791H12.2266C11.9344 7.0791 11.6509 7.17856 11.4227 7.36112L4.98788 12.5089C4.77964 12.6755 4.6283 12.9027 4.55477 13.159C4.48124 13.4154 4.48916 13.6882 4.57743 13.9399C4.6657 14.1915 4.82997 14.4095 5.04752 14.5638C5.26507 14.718 5.52516 14.8008 5.79184 14.8008ZM12.2266 8.36606H37.9658L44.4006 13.5139H5.79184L12.2266 8.36606Z" fill="#2D4356"/>
<path d="M27.3478 31.5315C27.9841 31.5315 28.6062 31.3428 29.1353 30.9892C29.6644 30.6357 30.0767 30.1332 30.3202 29.5453C30.5638 28.9574 30.6275 28.3105 30.5033 27.6864C30.3792 27.0623 30.0728 26.489 29.6228 26.039C29.1728 25.5891 28.5996 25.2826 27.9754 25.1585C27.3513 25.0344 26.7044 25.0981 26.1165 25.3416C25.5286 25.5851 25.0261 25.9975 24.6726 26.5266C24.3191 27.0557 24.1304 27.6777 24.1304 28.3141C24.1313 29.1671 24.4706 29.9849 25.0738 30.5881C25.677 31.1912 26.4948 31.5305 27.3478 31.5315ZM27.3478 26.3836C27.7296 26.3836 28.1028 26.4969 28.4203 26.709C28.7377 26.9211 28.9851 27.2226 29.1313 27.5753C29.2774 27.9281 29.3156 28.3162 29.2411 28.6907C29.1666 29.0652 28.9828 29.4091 28.7128 29.6791C28.4428 29.9491 28.0988 30.1329 27.7244 30.2074C27.3499 30.2819 26.9618 30.2437 26.609 30.0976C26.2563 29.9515 25.9548 29.704 25.7427 29.3866C25.5305 29.0691 25.4173 28.6959 25.4173 28.3141C25.4173 27.8021 25.6207 27.3111 25.9827 26.9491C26.3448 26.587 26.8358 26.3836 27.3478 26.3836Z" fill="#1E83E6"/>
<path d="M41.1822 35.3913V17.3739C41.1822 17.0325 41.0467 16.7052 40.8053 16.4639C40.564 16.2225 40.2366 16.0869 39.8953 16.0869H10.2953C9.95574 16.0927 9.63174 16.2301 9.39163 16.4702C9.15152 16.7104 9.01408 17.0344 9.0083 17.3739V35.3913H10.2953V21.8721C10.6325 22.1277 11.0172 22.3138 11.4269 22.4198C11.8366 22.5257 12.2632 22.5494 12.6821 22.4894C13.1011 22.4293 13.5039 22.2868 13.8674 22.07C14.2308 21.8533 14.5477 21.5666 14.7996 21.2266C15.0978 21.6284 15.4859 21.9548 15.9328 22.1797C16.3798 22.4046 16.8732 22.5217 17.3735 22.5217C17.8739 22.5217 18.3673 22.4046 18.8142 22.1797C19.2612 21.9548 19.6493 21.6284 19.9474 21.2266C20.2456 21.6284 20.6337 21.9548 21.0807 22.1797C21.5276 22.4046 22.021 22.5217 22.5214 22.5217C23.0217 22.5217 23.5151 22.4046 23.9621 22.1797C24.409 21.9548 24.7971 21.6284 25.0953 21.2266C25.3934 21.6284 25.7815 21.9548 26.2285 22.1797C26.6754 22.4046 27.1688 22.5217 27.6692 22.5217C28.1695 22.5217 28.6629 22.4046 29.1099 22.1797C29.5568 21.9548 29.9449 21.6284 30.2431 21.2266C30.5413 21.6284 30.9294 21.9548 31.3763 22.1797C31.8233 22.4046 32.3167 22.5217 32.817 22.5217C33.3174 22.5217 33.8108 22.4046 34.2577 22.1797C34.7047 21.9548 35.0928 21.6284 35.3909 21.2266C35.6429 21.5666 35.9597 21.8533 36.3232 22.07C36.6867 22.2868 37.0895 22.4293 37.5084 22.4894C37.9273 22.5494 38.354 22.5257 38.7637 22.4198C39.1734 22.3138 39.558 22.1277 39.8953 21.8721V35.3913H41.1822ZM14.1561 19.3043C14.1561 19.8163 13.9527 20.3073 13.5907 20.6693C13.2287 21.0314 12.7377 21.2347 12.2257 21.2347C11.7137 21.2347 11.2227 21.0314 10.8607 20.6693C10.4986 20.3073 10.2953 19.8163 10.2953 19.3043V17.3739H14.1561V19.3043ZM19.304 19.3043C19.304 19.8163 19.1006 20.3073 18.7386 20.6693C18.3765 21.0314 17.8855 21.2347 17.3735 21.2347C16.8615 21.2347 16.3705 21.0314 16.0085 20.6693C15.6465 20.3073 15.4431 19.8163 15.4431 19.3043V17.3739H19.304V19.3043ZM24.4518 19.3043C24.4518 19.8163 24.2484 20.3073 23.8864 20.6693C23.5244 21.0314 23.0333 21.2347 22.5214 21.2347C22.0094 21.2347 21.5184 21.0314 21.1563 20.6693C20.7943 20.3073 20.5909 19.8163 20.5909 19.3043V17.3739H24.4518V19.3043ZM29.5996 19.3043C29.5996 19.8163 29.3962 20.3073 29.0342 20.6693C28.6722 21.0314 28.1812 21.2347 27.6692 21.2347C27.1572 21.2347 26.6662 21.0314 26.3042 20.6693C25.9421 20.3073 25.7388 19.8163 25.7388 19.3043V17.3739H29.5996V19.3043ZM34.7475 19.3043C34.7475 19.8163 34.5441 20.3073 34.182 20.6693C33.82 21.0314 33.329 21.2347 32.817 21.2347C32.305 21.2347 31.814 21.0314 31.452 20.6693C31.09 20.3073 30.8866 19.8163 30.8866 19.3043V17.3739H34.7475V19.3043ZM37.9648 21.2347C37.4529 21.2347 36.9619 21.0314 36.5998 20.6693C36.2378 20.3073 36.0344 19.8163 36.0344 19.3043V17.3739H39.8953V19.3043C39.8953 19.8163 39.6919 20.3073 39.3299 20.6693C38.9678 21.0314 38.4768 21.2347 37.9648 21.2347Z" fill="#1E83E6"/>
<path d="M32.8178 35.3923V32.8184C32.8171 32.3229 32.6735 31.8382 32.4042 31.4223C32.1349 31.0063 31.7513 30.6769 31.2995 30.4735C31.079 30.8735 30.7992 31.2379 30.4696 31.5542C30.7668 31.6068 31.036 31.7622 31.23 31.9934C31.4241 32.2245 31.5306 32.5166 31.5309 32.8184V35.3923H32.8178ZM21.8787 32.8184V35.3923H23.1656V32.8184C23.1659 32.5166 23.2724 32.2245 23.4665 31.9934C23.6605 31.7622 23.9297 31.6068 24.2269 31.5542C23.8973 31.2379 23.6175 30.8735 23.3969 30.4735C22.9451 30.6769 22.5616 31.0063 22.2923 31.4223C22.023 31.8382 21.8794 32.3229 21.8787 32.8184ZM38.6091 35.3923V34.1054C38.6091 33.7641 38.4735 33.4367 38.2322 33.1954C37.9908 32.954 37.6635 32.8184 37.3222 32.8184H35.3917C35.0504 32.8184 34.7231 32.954 34.4817 33.1954C34.2404 33.4367 34.1048 33.7641 34.1048 34.1054V35.3923H35.3917V34.1054H37.3222V35.3923H38.6091ZM20.5917 35.3923V26.3836C20.5917 26.0423 20.4561 25.715 20.2148 25.4736C19.9734 25.2323 19.6461 25.0967 19.3048 25.0967H12.87C12.5286 25.0967 12.2013 25.2323 11.9599 25.4736C11.7186 25.715 11.583 26.0423 11.583 26.3836V35.3923H12.87V34.1054H19.3048V35.3923H20.5917ZM12.87 26.3836H19.3048V27.6706H12.87V26.3836ZM12.87 28.9576H19.3048V30.2445H12.87V28.9576ZM12.87 32.8184V31.5315H19.3048V32.8184H12.87Z" fill="#2D4356"/>
<path d="M1.6087 46.9746H0.643479C0.472818 46.9746 0.309146 47.0424 0.188471 47.1631C0.0677949 47.2838 0 47.4474 0 47.6181C0 47.7887 0.0677949 47.9524 0.188471 48.0731C0.309146 48.1938 0.472818 48.2616 0.643479 48.2616H1.6087C1.77936 48.2616 1.94303 48.1938 2.06371 48.0731C2.18438 47.9524 2.25218 47.7887 2.25218 47.6181C2.25218 47.4474 2.18438 47.2838 2.06371 47.1631C1.94303 47.0424 1.77936 46.9746 1.6087 46.9746Z" fill="#2D4356"/>
<path d="M36.0845 49.5479H33.4115C33.2498 49.5608 33.0988 49.6342 32.9887 49.7535C32.8787 49.8727 32.8175 50.029 32.8175 50.1913C32.8175 50.3536 32.8787 50.5099 32.9887 50.6292C33.0988 50.7484 33.2498 50.8218 33.4115 50.8348H36.0845C36.2462 50.8218 36.3972 50.7484 36.5072 50.6292C36.6173 50.5099 36.6784 50.3536 36.6784 50.1913C36.6784 50.029 36.6173 49.8727 36.5072 49.7535C36.3972 49.6342 36.2462 49.5608 36.0845 49.5479ZM16.7801 49.5479H14.1072C13.9454 49.5608 13.7945 49.6342 13.6844 49.7535C13.5743 49.8727 13.5132 50.029 13.5132 50.1913C13.5132 50.3536 13.5743 50.5099 13.6844 50.6292C13.7945 50.7484 13.9454 50.8218 14.1072 50.8348H16.7801C16.9419 50.8218 17.0928 50.7484 17.2029 50.6292C17.313 50.5099 17.3741 50.3536 17.3741 50.1913C17.3741 50.029 17.313 49.8727 17.2029 49.7535C17.0928 49.6342 16.9419 49.5608 16.7801 49.5479ZM31.5306 49.5479H18.661C18.4904 49.5479 18.3267 49.6156 18.206 49.7363C18.0853 49.857 18.0175 50.0207 18.0175 50.1913C18.0175 50.362 18.0853 50.5257 18.206 50.6463C18.3267 50.767 18.4904 50.8348 18.661 50.8348H23.7896V51.4783H21.2349C21.0643 51.4783 20.9006 51.5461 20.7799 51.6668C20.6593 51.7874 20.5915 51.9511 20.5915 52.1218C20.5915 52.2924 20.6593 52.4561 20.7799 52.5768C20.9006 52.6975 21.0643 52.7652 21.2349 52.7652H29.2784C29.4491 52.7652 29.6128 52.6975 29.7334 52.5768C29.8541 52.4561 29.9219 52.2924 29.9219 52.1218C29.9219 51.9511 29.8541 51.7874 29.7334 51.6668C29.6128 51.5461 29.4491 51.4783 29.2784 51.4783H26.4021V50.8348H31.5306C31.7013 50.8348 31.8649 50.767 31.9856 50.6463C32.1063 50.5257 32.1741 50.362 32.1741 50.1913C32.1741 50.0207 32.1063 49.857 31.9856 49.7363C31.8649 49.6156 31.7013 49.5479 31.5306 49.5479Z" fill="#1E83E6"/>
<path d="M49.5477 46.9746H48.5824C48.4118 46.9746 48.2481 47.0424 48.1274 47.1631C48.0068 47.2838 47.939 47.4474 47.939 47.6181C47.939 47.7887 48.0068 47.9524 48.1274 48.0731C48.2481 48.1938 48.4118 48.2616 48.5824 48.2616H49.5477C49.7183 48.2616 49.882 48.1938 50.0027 48.0731C50.1233 47.9524 50.1911 47.7887 50.1911 47.6181C50.1911 47.4474 50.1233 47.2838 50.0027 47.1631C49.882 47.0424 49.7183 46.9746 49.5477 46.9746Z" fill="#2D4356"/>
<path d="M51.4784 48.2616C51.8338 48.2616 52.1219 47.9735 52.1219 47.6181C52.1219 47.2627 51.8338 46.9746 51.4784 46.9746C51.1231 46.9746 50.835 47.2627 50.835 47.6181C50.835 47.9735 51.1231 48.2616 51.4784 48.2616Z" fill="#2D4356"/>
<path d="M46.5628 46.974H45.5746C45.6487 46.7675 45.6868 46.5498 45.6872 46.3305V38.6087C45.6866 38.0969 45.4831 37.6062 45.1212 37.2443C44.7593 36.8824 44.2686 36.6789 43.7568 36.6783V16.087H42.4698V36.6783H7.72197V16.087H6.43501V36.6783C5.92321 36.6789 5.43253 36.8824 5.07063 37.2443C4.70872 37.6062 4.50515 38.0969 4.50457 38.6087V46.3305C4.50503 46.5498 4.54312 46.7675 4.61718 46.974H3.62902C3.53748 46.962 3.44444 46.9697 3.35611 46.9966C3.26778 47.0234 3.18621 47.0688 3.11683 47.1297C3.04744 47.1906 2.99186 47.2657 2.95378 47.3498C2.91569 47.4339 2.896 47.5251 2.896 47.6174C2.896 47.7098 2.91569 47.801 2.95378 47.8851C2.99186 47.9692 3.04744 48.0442 3.11683 48.1051C3.18621 48.166 3.26778 48.2114 3.35611 48.2383C3.44444 48.2652 3.53748 48.2729 3.62902 48.2609H46.5628C46.6543 48.2729 46.7474 48.2652 46.8357 48.2383C46.924 48.2114 47.0056 48.166 47.075 48.1051C47.1444 48.0442 47.1999 47.9692 47.238 47.8851C47.2761 47.801 47.2958 47.7098 47.2958 47.6174C47.2958 47.5251 47.2761 47.4339 47.238 47.3498C47.1999 47.2657 47.1444 47.1906 47.075 47.1297C47.0056 47.0688 46.924 47.0234 46.8357 46.9966C46.7474 46.9697 46.6543 46.962 46.5628 46.974ZM6.43501 46.974C6.26435 46.974 6.10068 46.9062 5.98 46.7855C5.85933 46.6648 5.79153 46.5011 5.79153 46.3305V38.6087C5.79153 38.4381 5.85933 38.2744 5.98 38.1537C6.10068 38.033 6.26435 37.9653 6.43501 37.9653H43.7568C43.8413 37.9653 43.925 37.9819 44.003 38.0142C44.0811 38.0466 44.152 38.094 44.2118 38.1537C44.2716 38.2135 44.319 38.2844 44.3513 38.3625C44.3836 38.4406 44.4003 38.5242 44.4003 38.6087V46.3305C44.4003 46.5011 44.3325 46.6648 44.2118 46.7855C44.0911 46.9062 43.9274 46.974 43.7568 46.974H6.43501ZM20.0461 1.93044C20.237 1.93044 20.4236 1.87383 20.5824 1.76777C20.7411 1.66171 20.8648 1.51096 20.9379 1.33459C21.0109 1.15822 21.03 0.964148 20.9928 0.776914C20.9555 0.58968 20.8636 0.417695 20.7286 0.282706C20.5936 0.147718 20.4216 0.05579 20.2344 0.0185468C20.0472 -0.0186963 19.8531 0.000418216 19.6767 0.0734733C19.5004 0.146528 19.3496 0.270243 19.2436 0.428972C19.1375 0.587702 19.0809 0.774317 19.0809 0.965219C19.0812 1.22112 19.183 1.46646 19.3639 1.64741C19.5449 1.82836 19.7902 1.93014 20.0461 1.93044ZM20.0461 0.48261C20.1416 0.48261 20.2349 0.510914 20.3142 0.563944C20.3936 0.616974 20.4555 0.692347 20.492 0.780532C20.5285 0.868718 20.5381 0.965754 20.5194 1.05937C20.5008 1.15299 20.4549 1.23898 20.3874 1.30648C20.3199 1.37397 20.2339 1.41993 20.1403 1.43855C20.0466 1.45718 19.9496 1.44762 19.8614 1.41109C19.7732 1.37456 19.6979 1.31271 19.6448 1.23334C19.5918 1.15398 19.5635 1.06067 19.5635 0.965219C19.5636 0.837262 19.6145 0.714581 19.705 0.624102C19.7955 0.533622 19.9181 0.482736 20.0461 0.48261ZM45.9628 25.0957C45.8355 25.0957 45.7111 25.1334 45.6053 25.2041C45.4994 25.2748 45.417 25.3753 45.3683 25.4929C45.3196 25.6105 45.3068 25.7399 45.3316 25.8647C45.3565 25.9895 45.4178 26.1042 45.5078 26.1942C45.5977 26.2842 45.7124 26.3454 45.8372 26.3703C45.962 26.3951 46.0914 26.3824 46.209 26.3337C46.3266 26.2849 46.4271 26.2025 46.4978 26.0967C46.5685 25.9908 46.6062 25.8664 46.6062 25.7392C46.606 25.5686 46.5382 25.405 46.4176 25.2844C46.2969 25.1637 46.1334 25.0959 45.9628 25.0957ZM45.9628 26.0609C45.8991 26.0609 45.8369 26.042 45.784 26.0067C45.7311 25.9713 45.6899 25.9211 45.6655 25.8623C45.6412 25.8035 45.6348 25.7388 45.6472 25.6764C45.6596 25.614 45.6903 25.5566 45.7353 25.5117C45.7803 25.4667 45.8376 25.436 45.9 25.4236C45.9624 25.4112 46.0271 25.4176 46.0859 25.4419C46.1447 25.4663 46.1949 25.5075 46.2303 25.5604C46.2656 25.6133 46.2845 25.6755 46.2845 25.7392C46.2844 25.8245 46.2505 25.9062 46.1902 25.9666C46.1299 26.0269 46.0481 26.0608 45.9628 26.0609ZM44.4003 0.297027C44.273 0.297027 44.1486 0.334766 44.0428 0.405473C43.9369 0.476179 43.8545 0.576677 43.8058 0.694257C43.7571 0.811838 43.7443 0.94122 43.7692 1.06604C43.794 1.19087 43.8553 1.30552 43.9453 1.39551C44.0352 1.48551 44.1499 1.54679 44.2747 1.57162C44.3996 1.59645 44.5289 1.58371 44.6465 1.535C44.7641 1.4863 44.8646 1.40382 44.9353 1.298C45.006 1.19218 45.0437 1.06777 45.0437 0.940506C45.0435 0.769905 44.9757 0.606347 44.8551 0.485713C44.7344 0.36508 44.5709 0.297222 44.4003 0.297027ZM44.4003 1.26225C44.3366 1.26225 44.2744 1.24338 44.2215 1.20802C44.1686 1.17267 44.1274 1.12242 44.103 1.06363C44.0787 1.00484 44.0723 0.940149 44.0847 0.877738C44.0971 0.815326 44.1278 0.757998 44.1728 0.713002C44.2178 0.668006 44.2751 0.637363 44.3375 0.624949C44.3999 0.612534 44.4646 0.618906 44.5234 0.643257C44.5822 0.667609 44.6324 0.708847 44.6678 0.761757C44.7031 0.814667 44.722 0.876872 44.722 0.940506C44.7219 1.02581 44.688 1.1076 44.6277 1.16792C44.5674 1.22824 44.4856 1.26216 44.4003 1.26225ZM45.641 7.72175C45.5138 7.72175 45.3893 7.75949 45.2835 7.83019C45.1777 7.9009 45.0952 8.0014 45.0465 8.11898C44.9978 8.23656 44.9851 8.36594 45.0099 8.49076C45.0347 8.61559 45.096 8.73024 45.186 8.82023C45.276 8.91023 45.3907 8.97151 45.5155 8.99634C45.6403 9.02117 45.7697 9.00843 45.8873 8.95972C46.0048 8.91102 46.1053 8.82854 46.1761 8.72272C46.2468 8.6169 46.2845 8.49249 46.2845 8.36523C46.2843 8.19462 46.2164 8.03107 46.0958 7.91043C45.9752 7.7898 45.8116 7.72194 45.641 7.72175ZM45.641 8.68696C45.5774 8.68696 45.5152 8.6681 45.4623 8.63274C45.4094 8.59739 45.3681 8.54714 45.3438 8.48835C45.3194 8.42956 45.313 8.36487 45.3255 8.30246C45.3379 8.24005 45.3685 8.18272 45.4135 8.13772C45.4585 8.09273 45.5158 8.06208 45.5783 8.04967C45.6407 8.03725 45.7054 8.04363 45.7641 8.06798C45.8229 8.09233 45.8732 8.13357 45.9085 8.18648C45.9439 8.23939 45.9628 8.30159 45.9628 8.36523C45.9627 8.45053 45.9288 8.53232 45.8684 8.59264C45.8081 8.65296 45.7263 8.68688 45.641 8.68696ZM6.43501 7.07827C6.43501 6.951 6.39727 6.82659 6.32657 6.72077C6.25586 6.61495 6.15536 6.53247 6.03778 6.48377C5.9202 6.43507 5.79082 6.42232 5.666 6.44715C5.54117 6.47198 5.42652 6.53327 5.33652 6.62326C5.24653 6.71325 5.18525 6.82791 5.16042 6.95273C5.13559 7.07755 5.14833 7.20694 5.19704 7.32452C5.24574 7.4421 5.32822 7.54259 5.43403 7.6133C5.53985 7.68401 5.66426 7.72175 5.79153 7.72175C5.96213 7.72155 6.12569 7.65369 6.24633 7.53306C6.36696 7.41243 6.43482 7.24887 6.43501 7.07827ZM5.46979 7.07827C5.46979 7.01463 5.48866 6.95243 5.52402 6.89952C5.55937 6.84661 5.60962 6.80537 5.66841 6.78102C5.7272 6.75667 5.79189 6.7503 5.8543 6.76271C5.91671 6.77513 5.97404 6.80577 6.01904 6.85076C6.06403 6.89576 6.09468 6.95309 6.10709 7.0155C6.1195 7.07791 6.11313 7.1426 6.08878 7.20139C6.06443 7.26018 6.02319 7.31043 5.97028 7.34579C5.91737 7.38114 5.85517 7.40001 5.79153 7.40001C5.70623 7.39992 5.62444 7.366 5.56412 7.30568C5.5038 7.24536 5.46988 7.16357 5.46979 7.07827Z" fill="#2D4356"/>
<path d="M1.57224 21.5599L2.05066 20.9309L1.74855 20.7598L1.44129 21.4644H1.43131L1.11923 20.7646L0.811965 20.9409L1.28524 21.5551V21.5651L0.544922 21.4695V21.8119L1.29007 21.7163V21.7263L0.811965 22.3401L1.09864 22.5216L1.42617 21.8119H1.43614L1.73825 22.5165L2.05549 22.3353L1.57224 21.7311V21.7211L2.33218 21.8119V21.4695L1.57224 21.5699V21.5599Z" fill="#1E83E6"/>
<path d="M51.0766 17.5416V17.206L50.3311 17.3048V17.2948L50.8005 16.6777L50.5042 16.5098L50.203 17.2009H50.1927L49.8868 16.5146L49.5853 16.6877L50.0496 17.29V17.3L49.3237 17.206V17.5416L50.0544 17.448V17.4579L49.5853 18.0602L49.8668 18.2382L50.1879 17.5416H50.1976L50.4939 18.233L50.805 18.0554L50.3311 17.4628V17.4528L51.0766 17.5416Z" fill="#1E83E6"/>
<path d="M28.4261 4.9787L28.8309 4.44654L28.5754 4.30176L28.3158 4.89794H28.3071L28.043 4.30594L27.783 4.45491L28.1836 4.97452V4.9832L27.5571 4.90212V5.19169L28.1877 5.11093V5.1193L27.783 5.63891L28.0256 5.79238L28.3029 5.19169H28.3113L28.5667 5.78787L28.8351 5.63472L28.4261 5.12348V5.11512L29.0693 5.19169V4.90212L28.4261 4.98738V4.9787Z" fill="#1E83E6"/>
</svg>
