<svg width="60" height="60" viewBox="0 0 60 60" fill="none" xmlns="http://www.w3.org/2000/svg">
<path d="M20.3574 49.8779C20.1679 49.8779 19.9862 49.9532 19.8523 50.0871C19.7183 50.2211 19.6431 50.4028 19.6431 50.5922V53.0922C19.6431 53.2817 19.7183 53.4633 19.8523 53.5973C19.9862 53.7312 20.1679 53.8065 20.3574 53.8065C20.5468 53.8065 20.7285 53.7312 20.8624 53.5973C20.9964 53.4633 21.0716 53.2817 21.0716 53.0922V50.5922C21.0716 50.4028 20.9964 50.2211 20.8624 50.0871C20.7285 49.9532 20.5468 49.8779 20.3574 49.8779ZM39.6431 49.8779C39.4536 49.8779 39.272 49.9532 39.138 50.0871C39.004 50.2211 38.9288 50.4028 38.9288 50.5922V53.0922C38.9288 53.2817 39.004 53.4633 39.138 53.5973C39.2719 53.7312 39.4536 53.8065 39.6431 53.8065C39.8325 53.8065 40.0142 53.7312 40.1481 53.5973C40.2821 53.4633 40.3574 53.2817 40.3574 53.0922V50.5922C40.3573 50.4028 40.2821 50.2211 40.1481 50.0871C40.0142 49.9532 39.8325 49.8779 39.6431 49.8779Z" fill="#2D4356"/>
<path d="M32.2908 45.4436C32.2245 45.3773 32.1458 45.3247 32.0591 45.2888C31.9725 45.2529 31.8796 45.2344 31.7858 45.2344C31.692 45.2344 31.5991 45.2529 31.5125 45.2888C31.4258 45.3247 31.3471 45.3773 31.2808 45.4436L30.0001 46.7243L28.7194 45.4436C28.5854 45.3101 28.4038 45.2352 28.2146 45.2354C28.0255 45.2356 27.8441 45.3108 27.7103 45.4446C27.5765 45.5784 27.5013 45.7598 27.5011 45.9489C27.5009 46.1381 27.5758 46.3197 27.7093 46.4537L28.99 47.7344L27.7093 49.0151C27.643 49.0814 27.5904 49.1601 27.5544 49.2468C27.5185 49.3334 27.5 49.4263 27.5 49.5201C27.5 49.614 27.5185 49.7068 27.5543 49.7935C27.5902 49.8802 27.6429 49.9589 27.7092 50.0253C27.7755 50.0916 27.8543 50.1442 27.9409 50.1801C28.0276 50.216 28.1205 50.2345 28.2143 50.2345C28.3081 50.2344 28.401 50.2159 28.4877 50.18C28.5743 50.1441 28.6531 50.0915 28.7194 50.0251L30.0001 48.7444L31.2808 50.0251C31.4148 50.1586 31.5963 50.2335 31.7855 50.2333C31.9747 50.2332 32.1561 50.1579 32.2899 50.0242C32.4236 49.8904 32.4989 49.709 32.4991 49.5198C32.4992 49.3306 32.4243 49.1491 32.2908 49.0151L31.0101 47.7344L32.2908 46.4537C32.3572 46.3874 32.4098 46.3086 32.4457 46.222C32.4816 46.1353 32.5001 46.0425 32.5001 45.9487C32.5001 45.8549 32.4816 45.762 32.4457 45.6753C32.4098 45.5887 32.3572 45.5099 32.2908 45.4436Z" fill="#1E83E6"/>
<path d="M0.714286 53.8065C1.10877 53.8065 1.42857 53.4867 1.42857 53.0922C1.42857 52.6977 1.10877 52.3779 0.714286 52.3779C0.319797 52.3779 0 52.6977 0 53.0922C0 53.4867 0.319797 53.8065 0.714286 53.8065Z" fill="#2D4356"/>
<path d="M3.92878 52.3779H2.85735C2.66791 52.3779 2.48623 52.4532 2.35228 52.5871C2.21832 52.7211 2.14307 52.9028 2.14307 53.0922C2.14307 53.2817 2.21832 53.4633 2.35228 53.5973C2.48623 53.7312 2.66791 53.8065 2.85735 53.8065H3.92878C4.11822 53.8065 4.2999 53.7312 4.43386 53.5973C4.56781 53.4633 4.64307 53.2817 4.64307 53.0922C4.64307 52.9028 4.56781 52.7211 4.43386 52.5871C4.2999 52.4532 4.11822 52.3779 3.92878 52.3779ZM57.1431 52.3779H56.0716C55.8822 52.3779 55.7005 52.4532 55.5666 52.5871C55.4326 52.7211 55.3574 52.9028 55.3574 53.0922C55.3574 53.2817 55.4326 53.4633 55.5666 53.5973C55.7005 53.7312 55.8822 53.8065 56.0716 53.8065H57.1431C57.3325 53.8065 57.5142 53.7312 57.6481 53.5973C57.7821 53.4633 57.8574 53.2817 57.8574 53.0922C57.8574 52.9028 57.7821 52.7211 57.6481 52.5871C57.5142 52.4532 57.3325 52.3779 57.1431 52.3779Z" fill="#2D4356"/>
<path d="M59.2856 53.8065C59.6801 53.8065 59.9999 53.4867 59.9999 53.0922C59.9999 52.6977 59.6801 52.3779 59.2856 52.3779C58.8911 52.3779 58.5713 52.6977 58.5713 53.0922C58.5713 53.4867 58.8911 53.8065 59.2856 53.8065Z" fill="#2D4356"/>
<path d="M42.198 55.2344H39.231C39.0514 55.2488 38.8839 55.3303 38.7617 55.4626C38.6395 55.595 38.5716 55.7685 38.5716 55.9487C38.5716 56.1288 38.6395 56.3023 38.7617 56.4347C38.8839 56.5671 39.0514 56.6486 39.231 56.6629H42.198C42.3776 56.6486 42.5452 56.5671 42.6673 56.4347C42.7895 56.3023 42.8574 56.1288 42.8574 55.9487C42.8574 55.7685 42.7895 55.595 42.6673 55.4626C42.5452 55.3303 42.3776 55.2488 42.198 55.2344ZM20.7695 55.2344H17.8024C17.6228 55.2488 17.4553 55.3303 17.3331 55.4626C17.2109 55.595 17.1431 55.7685 17.1431 55.9487C17.1431 56.1288 17.2109 56.3023 17.3331 56.4347C17.4553 56.5671 17.6228 56.6486 17.8024 56.6629H20.7695C20.949 56.6486 21.1166 56.5671 21.2388 56.4347C21.361 56.3023 21.4288 56.1288 21.4288 55.9487C21.4288 55.7685 21.361 55.595 21.2388 55.4626C21.1166 55.3303 20.949 55.2488 20.7695 55.2344ZM37.1431 55.2344H22.8574C22.6679 55.2344 22.4862 55.3096 22.3523 55.4436C22.2183 55.5775 22.1431 55.7592 22.1431 55.9487C22.1431 56.1381 22.2183 56.3198 22.3523 56.4537C22.4862 56.5877 22.6679 56.6629 22.8574 56.6629H28.5502V57.3772H25.7145C25.5251 57.3772 25.3434 57.4525 25.2094 57.5864C25.0755 57.7204 25.0002 57.9021 25.0002 58.0915C25.0002 58.281 25.0755 58.4626 25.2094 58.5966C25.3434 58.7306 25.5251 58.8058 25.7145 58.8058H34.6431C34.8325 58.8058 35.0142 58.7306 35.1482 58.5966C35.2821 58.4626 35.3574 58.281 35.3574 58.0915C35.3574 57.9021 35.2821 57.7204 35.1482 57.5864C35.0142 57.4525 34.8325 57.3772 34.6431 57.3772H31.4502V56.6629H37.1431C37.3325 56.6629 37.5142 56.5877 37.6482 56.4537C37.7821 56.3198 37.8574 56.1381 37.8574 55.9487C37.8574 55.7592 37.7821 55.5775 37.6482 55.4436C37.5142 55.3096 37.3325 55.2344 37.1431 55.2344Z" fill="#1E83E6"/>
<path d="M53.8292 52.378H49.643V42.378C49.643 36.4702 45.0103 31.6637 39.3155 31.6637H37.2671C36.8209 30.9483 36.5865 30.1211 36.591 29.278C37.5504 28.4218 38.3181 27.3727 38.8441 26.1994C39.37 25.026 39.6422 23.7549 39.643 22.469V17.287C39.6282 14.8372 38.6422 12.4933 36.9014 10.7696C35.1606 9.04585 32.8071 8.083 30.3573 8.09229H29.643C27.1932 8.083 24.8397 9.04585 23.0989 10.7696C21.3581 12.4933 20.3721 14.8372 20.3573 17.287V22.469C20.3581 23.7549 20.6303 25.026 21.1562 26.1994C21.6822 27.3727 22.4499 28.4218 23.4093 29.278C23.4138 30.1211 23.1794 30.9483 22.7332 31.6637H20.6848C14.99 31.6637 10.3573 36.4701 10.3573 42.378V52.378H6.17111C6.06949 52.3647 5.96621 52.3733 5.86817 52.4031C5.77012 52.4329 5.67957 52.4833 5.60255 52.5509C5.52553 52.6185 5.46383 52.7018 5.42156 52.7951C5.37929 52.8885 5.35742 52.9898 5.35742 53.0923C5.35742 53.1948 5.37929 53.2961 5.42156 53.3894C5.46383 53.4828 5.52553 53.566 5.60255 53.6336C5.67957 53.7013 5.77012 53.7516 5.86817 53.7815C5.96621 53.8113 6.06949 53.8198 6.17111 53.8066H53.8292C53.9308 53.8198 54.0341 53.8113 54.1321 53.7815C54.2302 53.7516 54.3207 53.7013 54.3977 53.6336C54.4748 53.566 54.5365 53.4828 54.5787 53.3894C54.621 53.2961 54.6429 53.1948 54.6429 53.0923C54.6429 52.9898 54.621 52.8885 54.5787 52.7951C54.5365 52.7018 54.4748 52.6185 54.3977 52.5509C54.3207 52.4833 54.2302 52.4329 54.1321 52.4031C54.0341 52.3733 53.9308 52.3647 53.8292 52.378V52.378ZM21.7859 22.469V17.287C21.8003 15.216 22.6357 13.2352 24.1087 11.7793C25.5816 10.3234 27.572 9.51121 29.643 9.52087H30.3573C32.4283 9.51121 34.4187 10.3234 35.8916 11.7793C37.3646 13.2352 38.2 15.216 38.2144 17.287V22.469C38.2 24.54 37.3646 26.5208 35.8916 27.9767C34.4187 29.4326 32.4283 30.2448 30.3573 30.2352H29.643C27.572 30.2448 25.5816 29.4326 24.1087 27.9767C22.6357 26.5208 21.8003 24.54 21.7859 22.469ZM35.728 31.8052C35.2936 32.3189 30.0001 38.6737 30.0001 38.6737C30.0001 38.6737 24.755 32.3765 24.2723 31.8052C24.4998 31.3198 24.6592 30.8053 24.7459 30.2763C26.2174 31.1854 27.9133 31.6659 29.643 31.6637H30.3573C32.087 31.6659 33.7829 31.1854 35.2544 30.2763C35.3411 30.8053 35.5005 31.3198 35.728 31.8052V31.8052ZM25.3573 47.7351C25.3573 46.8169 25.6296 45.9192 26.1398 45.1557C26.6499 44.3922 27.375 43.7971 28.2234 43.4457C29.0718 43.0943 30.0053 43.0024 30.9059 43.1815C31.8065 43.3607 32.6338 43.8028 33.2831 44.4522C33.9325 45.1015 34.3746 45.9288 34.5538 46.8294C34.7329 47.73 34.641 48.6635 34.2896 49.5119C33.9382 50.3603 33.3431 51.0854 32.5796 51.5955C31.8161 52.1057 30.9184 52.378 30.0001 52.378C28.7692 52.3766 27.5891 51.887 26.7187 51.0166C25.8483 50.1462 25.3587 48.9661 25.3573 47.7351ZM48.2144 52.378H33.9085C34.8615 51.5763 35.5449 50.501 35.8661 49.2978C36.1873 48.0946 36.1308 46.8217 35.7041 45.6518C35.2775 44.4818 34.5014 43.4713 33.481 42.7574C32.4607 42.0434 31.2455 41.6604 30.0001 41.6604C28.7548 41.6604 27.5396 42.0434 26.5192 42.7574C25.4989 43.4713 24.7228 44.4818 24.2962 45.6518C23.8695 46.8217 23.8129 48.0946 24.1341 49.2978C24.4553 50.501 25.1388 51.5763 26.0917 52.378H11.7859V42.378C11.7859 37.2577 15.7779 33.0923 20.6848 33.0923H23.5123L29.4505 40.2484C29.5198 40.3256 29.6045 40.3874 29.6992 40.4296C29.7939 40.4719 29.8965 40.4938 30.0002 40.4938C30.1039 40.4938 30.2064 40.4719 30.3011 40.4296C30.3958 40.3874 30.4806 40.3256 30.5498 40.2484L36.4881 33.0923H39.3155C44.2224 33.0923 48.2145 37.2577 48.2145 42.378L48.2144 52.378ZM16.0716 21.35C16.2835 21.35 16.4906 21.2872 16.6668 21.1694C16.843 21.0517 16.9804 20.8844 17.0614 20.6886C17.1425 20.4928 17.1638 20.2774 17.1224 20.0695C17.0811 19.8617 16.979 19.6708 16.8292 19.521C16.6793 19.3711 16.4884 19.2691 16.2806 19.2277C16.0728 19.1864 15.8573 19.2076 15.6616 19.2887C15.4658 19.3698 15.2984 19.5071 15.1807 19.6833C15.063 19.8595 15.0001 20.0667 15.0001 20.2786C15.0005 20.5626 15.1135 20.835 15.3143 21.0358C15.5152 21.2367 15.7875 21.3497 16.0716 21.35ZM16.0716 19.7429C16.1775 19.7429 16.2811 19.7743 16.3692 19.8331C16.4573 19.892 16.526 19.9757 16.5665 20.0736C16.6071 20.1714 16.6177 20.2792 16.597 20.3831C16.5763 20.487 16.5253 20.5825 16.4504 20.6574C16.3755 20.7323 16.28 20.7833 16.1761 20.804C16.0722 20.8247 15.9645 20.814 15.8666 20.7735C15.7687 20.733 15.685 20.6643 15.6261 20.5762C15.5673 20.4881 15.5359 20.3845 15.5359 20.2786C15.536 20.1365 15.5925 20.0003 15.6929 19.8999C15.7934 19.7995 15.9295 19.743 16.0716 19.7429ZM56.1804 14.759C56.0391 14.759 55.901 14.8009 55.7836 14.8793C55.6661 14.9578 55.5746 15.0694 55.5205 15.1999C55.4664 15.3304 55.4523 15.474 55.4798 15.6126C55.5074 15.7512 55.5754 15.8784 55.6753 15.9783C55.7752 16.0782 55.9025 16.1462 56.041 16.1738C56.1796 16.2014 56.3232 16.1872 56.4537 16.1332C56.5843 16.0791 56.6958 15.9875 56.7743 15.8701C56.8528 15.7526 56.8947 15.6145 56.8947 15.4732C56.8945 15.2839 56.8191 15.1023 56.6852 14.9684C56.5513 14.8345 56.3698 14.7592 56.1804 14.759ZM56.1804 15.8304C56.1098 15.8304 56.0407 15.8094 55.982 15.7702C55.9233 15.731 55.8775 15.6752 55.8504 15.6099C55.8234 15.5447 55.8163 15.4728 55.8301 15.4036C55.8439 15.3343 55.8779 15.2707 55.9279 15.2207C55.9778 15.1708 56.0414 15.1367 56.1107 15.123C56.18 15.1092 56.2518 15.1163 56.3171 15.1433C56.3823 15.1703 56.4381 15.2161 56.4774 15.2748C56.5166 15.3336 56.5375 15.4026 56.5375 15.4732C56.5374 15.5679 56.4998 15.6587 56.4328 15.7257C56.3659 15.7926 56.2751 15.8303 56.1804 15.8304ZM33.9287 1.19434C33.7874 1.19434 33.6493 1.23623 33.5319 1.31471C33.4144 1.3932 33.3229 1.50476 33.2688 1.63528C33.2147 1.7658 33.2006 1.90941 33.2282 2.04797C33.2557 2.18653 33.3237 2.3138 33.4236 2.4137C33.5235 2.51359 33.6508 2.58162 33.7894 2.60918C33.9279 2.63674 34.0715 2.6226 34.2021 2.56854C34.3326 2.51447 34.4441 2.42292 34.5226 2.30546C34.6011 2.18799 34.643 2.04989 34.643 1.90862C34.6428 1.71925 34.5675 1.53769 34.4336 1.40378C34.2996 1.26988 34.1181 1.19455 33.9287 1.19434ZM33.9287 2.26576C33.8581 2.26576 33.789 2.24482 33.7303 2.20558C33.6716 2.16633 33.6258 2.11055 33.5988 2.04529C33.5717 1.98004 33.5647 1.90823 33.5784 1.83895C33.5922 1.76967 33.6262 1.70603 33.6762 1.65608C33.7261 1.60614 33.7898 1.57212 33.859 1.55834C33.9283 1.54456 34.0001 1.55163 34.0654 1.57866C34.1306 1.6057 34.1864 1.65147 34.2257 1.7102C34.2649 1.76894 34.2859 1.83799 34.2859 1.90862C34.2858 2.00331 34.2481 2.0941 34.1812 2.16106C34.1142 2.22801 34.0234 2.26567 33.9287 2.26576ZM53.9287 1.19434C53.7874 1.19434 53.6493 1.23623 53.5319 1.31471C53.4144 1.3932 53.3229 1.50476 53.2688 1.63528C53.2147 1.7658 53.2006 1.90941 53.2282 2.04797C53.2557 2.18653 53.3237 2.3138 53.4236 2.4137C53.5235 2.51359 53.6508 2.58162 53.7894 2.60918C53.9279 2.63674 54.0715 2.6226 54.2021 2.56854C54.3326 2.51447 54.4441 2.42292 54.5226 2.30546C54.6011 2.18799 54.643 2.04989 54.643 1.90862C54.6428 1.71925 54.5675 1.53769 54.4336 1.40378C54.2996 1.26988 54.1181 1.19455 53.9287 1.19434ZM53.9287 2.26576C53.8581 2.26576 53.789 2.24482 53.7303 2.20558C53.6716 2.16633 53.6258 2.11055 53.5988 2.04529C53.5717 1.98004 53.5647 1.90823 53.5784 1.83895C53.5922 1.76967 53.6262 1.70603 53.6762 1.65608C53.7261 1.60614 53.7898 1.57212 53.859 1.55834C53.9283 1.54456 54.0001 1.55163 54.0654 1.57866C54.1306 1.6057 54.1864 1.65147 54.2257 1.7102C54.2649 1.76894 54.2859 1.83799 54.2859 1.90862C54.2858 2.00331 54.2481 2.0941 54.1812 2.16106C54.1142 2.22801 54.0234 2.26567 53.9287 2.26576ZM20.0001 7.41894C20.0001 7.27767 19.9583 7.13957 19.8798 7.0221C19.8013 6.90464 19.6897 6.81309 19.5592 6.75903C19.4287 6.70496 19.2851 6.69082 19.1465 6.71838C19.008 6.74594 18.8807 6.81397 18.7808 6.91386C18.6809 7.01376 18.6129 7.14103 18.5853 7.27959C18.5577 7.41815 18.5719 7.56177 18.6259 7.69229C18.68 7.8228 18.7716 7.93436 18.889 8.01285C19.0065 8.09133 19.1446 8.13323 19.2859 8.13323C19.4752 8.13301 19.6568 8.05768 19.7907 7.92378C19.9246 7.78987 19.9999 7.60831 20.0001 7.41894ZM18.9287 7.41894C18.9287 7.3483 18.9497 7.27925 18.9889 7.22052C19.0281 7.16179 19.0839 7.11601 19.1492 7.08898C19.2144 7.06195 19.2863 7.05488 19.3555 7.06866C19.4248 7.08244 19.4885 7.11645 19.5384 7.1664C19.5883 7.21635 19.6224 7.27999 19.6361 7.34927C19.6499 7.41854 19.6428 7.49035 19.6158 7.55561C19.5888 7.62087 19.543 7.67665 19.4843 7.71589C19.4255 7.75514 19.3565 7.77608 19.2859 7.77608C19.1912 7.77599 19.1004 7.73833 19.0334 7.67137C18.9665 7.60442 18.9288 7.51363 18.9287 7.41894Z" fill="#2D4356"/>
<path d="M3.46799 20.5454L3.99907 19.8472L3.66371 19.6572L3.32299 20.4394H3.31157L2.96514 19.6626L2.62407 19.8583L3.14942 20.5401V20.5512L2.32764 20.4451V20.8247L3.15478 20.7187V20.7301L2.62407 21.4115L2.94264 21.6129L3.30585 20.8247H3.31692L3.65228 21.6072L4.00442 21.4062L3.46799 20.7354V20.7244L4.31157 20.8247V20.4451L3.46799 20.5565V20.5454Z" fill="#1E83E6"/>
<path d="M4.21631 4.21747L3.91059 4.60997L4.09416 4.72604L4.30345 4.27211H4.30952L4.50273 4.72282L4.70559 4.60711L4.39666 4.22068V4.21425L4.88238 4.27211V4.05354L4.39666 4.11782V4.11139L4.70238 3.70925L4.50952 3.59961L4.31309 4.04997H4.30666L4.10702 3.60282L3.91059 3.71568L4.21345 4.10818V4.11461L3.74023 4.05354V4.27211L4.21631 4.21104V4.21747Z" fill="#1E83E6"/>
<path d="M47.6938 7.96176V7.58926L46.8663 7.69855V7.68783L47.3873 7.00283L47.0584 6.81641L46.7241 7.58355H46.713L46.3734 6.82176L46.0384 7.01355L46.5541 7.68248V7.69319L45.748 7.58926V7.96176L46.5595 7.85783V7.86891L46.0384 8.53748L46.3509 8.73462L46.7077 7.96176H46.7184L47.0473 8.72926L47.3927 8.53176L46.8663 7.87426V7.86319L47.6938 7.96176Z" fill="#1E83E6"/>
<path d="M42.535 19.5819L42.9842 18.9908L42.7003 18.8301L42.4121 19.4919H42.4025L42.1096 18.8347L41.8207 19.0001L42.2653 19.5772V19.5865L41.5703 19.4965V19.8179L42.27 19.7283V19.7379L41.8207 20.3144L42.0903 20.4847L42.3978 19.8179H42.4071L42.6907 20.4801L42.9889 20.3097L42.535 19.7426V19.7329L43.2485 19.8179V19.4965L42.535 19.5911V19.5819Z" fill="#1E83E6"/>
</svg>
