<svg width="65" height="65" viewBox="0 0 65 65" fill="none" xmlns="http://www.w3.org/2000/svg">
<path d="M18.7729 13.0892C18.4965 12.5632 18.0232 12.168 17.4563 11.9896C16.8895 11.8113 16.2752 11.8645 15.7474 12.1374L13.0932 13.5303L15.2212 17.5928L17.8753 16.1999C18.4047 15.9044 18.7961 15.4118 18.9642 14.8293C19.1323 14.2467 19.0635 13.6214 18.7729 13.0892ZM17.1596 14.8303L15.8712 15.5035L15.1825 14.1842L16.467 13.5109C16.5636 13.46 16.6712 13.4335 16.7804 13.4336C16.9086 13.4332 17.0345 13.468 17.1443 13.5342C17.2541 13.6004 17.3437 13.6954 17.4033 13.8089C17.4997 13.9783 17.5282 14.178 17.4829 14.3677C17.4377 14.5573 17.3221 14.7226 17.1596 14.8303ZM20.6107 21.4231C20.8735 21.2935 21.1076 21.1123 21.2989 20.8903C21.4903 20.6684 21.635 20.4102 21.7245 20.1312C21.814 19.8521 21.8465 19.5579 21.82 19.2661C21.7935 18.9743 21.7086 18.6907 21.5703 18.4324C21.3631 18.0445 21.0557 17.7192 20.68 17.4906C20.3044 17.2619 19.8743 17.1382 19.4346 17.1324C19.1036 17.1311 18.7772 17.2094 18.4828 17.3606L15.8286 18.7535L17.9566 22.816L20.6107 21.4231ZM19.2024 18.7342C19.2743 18.6977 19.3539 18.6791 19.4346 18.68C19.5917 18.6856 19.7448 18.7317 19.879 18.8137C20.0131 18.8957 20.1239 19.0109 20.2006 19.1482C20.2431 19.2241 20.2694 19.3079 20.2781 19.3944C20.2867 19.4809 20.2775 19.5683 20.2509 19.6511C20.2214 19.7385 20.1747 19.8191 20.1136 19.8882C20.0524 19.9573 19.9781 20.0135 19.895 20.0535L18.6066 20.7267L17.9179 19.4074L19.2024 18.7342ZM33.0346 27.3694H17.5584C17.3532 27.3694 17.1564 27.4509 17.0112 27.596C16.8661 27.7411 16.7846 27.938 16.7846 28.1432V37.4289C16.7846 37.6341 16.8661 37.831 17.0112 37.9761C17.1563 38.1212 17.3532 38.2027 17.5584 38.2027C17.7636 38.2027 17.9604 38.1212 18.1056 37.9761C18.2507 37.831 18.3322 37.6341 18.3322 37.4289V28.917H33.0346C33.2398 28.917 33.4366 28.8355 33.5818 28.6904C33.7269 28.5452 33.8084 28.3484 33.8084 28.1432C33.8084 27.938 33.7269 27.7411 33.5818 27.596C33.4366 27.4509 33.2398 27.3694 33.0346 27.3694ZM61.9051 5.4169C61.9051 5.18733 61.837 4.96292 61.7095 4.77204C61.5819 4.58116 61.4007 4.43239 61.1886 4.34454C60.9765 4.25669 60.7431 4.2337 60.5179 4.27849C60.2928 4.32327 60.086 4.43382 59.9236 4.59615C59.7613 4.75848 59.6508 4.9653 59.606 5.19046C59.5612 5.41561 59.5842 5.64899 59.672 5.86109C59.7599 6.07318 59.9086 6.25446 60.0995 6.382C60.2904 6.50954 60.5148 6.57761 60.7444 6.57761C61.0521 6.57726 61.3471 6.45486 61.5647 6.23726C61.7823 6.01966 61.9047 5.72463 61.9051 5.4169ZM60.164 5.4169C60.164 5.30212 60.1981 5.18991 60.2618 5.09447C60.3256 4.99903 60.4162 4.92465 60.5223 4.88072C60.6283 4.83679 60.745 4.8253 60.8576 4.84769C60.9702 4.87009 61.0736 4.92536 61.1547 5.00653C61.2359 5.08769 61.2912 5.1911 61.3136 5.30368C61.336 5.41626 61.3245 5.53295 61.2806 5.63899C61.2366 5.74504 61.1622 5.83568 61.0668 5.89945C60.9714 5.96322 60.8592 5.99726 60.7444 5.99726C60.5905 5.99711 60.443 5.93591 60.3342 5.82711C60.2254 5.7183 60.1642 5.57077 60.164 5.4169ZM33.2741 6.96452C33.2741 7.19409 33.3422 7.4185 33.4698 7.60938C33.5973 7.80026 33.7786 7.94903 33.9907 8.03688C34.2028 8.12473 34.4361 8.14772 34.6613 8.10293C34.8865 8.05814 35.0933 7.9476 35.2556 7.78527C35.4179 7.62294 35.5285 7.41612 35.5733 7.19096C35.618 6.96581 35.5951 6.73243 35.5072 6.52033C35.4194 6.30824 35.2706 6.12696 35.0797 5.99942C34.8888 5.87188 34.6644 5.8038 34.4349 5.8038C34.1271 5.80416 33.8321 5.92656 33.6145 6.14416C33.3969 6.36176 33.2745 6.65679 33.2741 6.96452ZM34.4349 6.38416C34.5496 6.38416 34.6618 6.4182 34.7573 6.48197C34.8527 6.54574 34.9271 6.63638 34.971 6.74243C35.015 6.84847 35.0264 6.96516 35.0041 7.07774C34.9817 7.19032 34.9264 7.29373 34.8452 7.37489C34.7641 7.45606 34.6607 7.51133 34.5481 7.53372C34.4355 7.55612 34.3188 7.54462 34.2128 7.5007C34.1067 7.45677 34.0161 7.38239 33.9523 7.28695C33.8885 7.19151 33.8545 7.0793 33.8545 6.96452C33.8546 6.81065 33.9158 6.66312 34.0246 6.55431C34.1334 6.44551 34.281 6.38431 34.4349 6.38416ZM61.9051 26.6967C61.752 26.6967 61.6024 26.742 61.4752 26.8271C61.3479 26.9121 61.2487 27.033 61.1902 27.1743C61.1316 27.3157 61.1163 27.4713 61.1462 27.6214C61.176 27.7715 61.2497 27.9094 61.3579 28.0176C61.4661 28.1259 61.604 28.1996 61.7541 28.2294C61.9042 28.2593 62.0598 28.2439 62.2012 28.1854C62.3426 28.1268 62.4635 28.0276 62.5485 27.9004C62.6335 27.7731 62.6789 27.6235 62.6789 27.4705C62.6787 27.2653 62.5971 27.0686 62.452 26.9236C62.3069 26.7785 62.1102 26.6969 61.9051 26.6967ZM61.9051 27.8574C61.8286 27.8574 61.7538 27.8347 61.6901 27.7922C61.6265 27.7497 61.5769 27.6892 61.5476 27.6185C61.5184 27.5478 61.5107 27.47 61.5256 27.395C61.5405 27.3199 61.5774 27.251 61.6315 27.1969C61.6856 27.1428 61.7546 27.1059 61.8296 27.091C61.9047 27.0761 61.9825 27.0837 62.0532 27.113C62.1239 27.1423 62.1843 27.1919 62.2268 27.2555C62.2693 27.3191 62.292 27.3939 62.292 27.4705C62.2919 27.5731 62.2511 27.6714 62.1786 27.7439C62.106 27.8165 62.0077 27.8573 61.9051 27.8574ZM37.1432 5.8038C37.2962 5.8038 37.4458 5.75842 37.5731 5.67339C37.7003 5.58837 37.7995 5.46751 37.8581 5.32612C37.9167 5.18472 37.932 5.02914 37.9021 4.87903C37.8723 4.72893 37.7986 4.59105 37.6903 4.48283C37.5821 4.37461 37.4443 4.30091 37.2941 4.27105C37.144 4.2412 36.9885 4.25652 36.8471 4.31509C36.7057 4.37366 36.5848 4.47284 36.4998 4.60009C36.4148 4.72734 36.3694 4.87695 36.3694 5.02999C36.3696 5.23515 36.4512 5.43184 36.5963 5.5769C36.7413 5.72197 36.938 5.80357 37.1432 5.8038ZM37.1432 4.64309C37.2197 4.64309 37.2945 4.66578 37.3581 4.7083C37.4218 4.75081 37.4714 4.81124 37.5006 4.88193C37.5299 4.95263 37.5376 5.03042 37.5227 5.10548C37.5077 5.18053 37.4709 5.24947 37.4168 5.30358C37.3627 5.35769 37.2937 5.39454 37.2187 5.40947C37.1436 5.42439 37.0658 5.41673 36.9951 5.38745C36.9244 5.35816 36.864 5.30857 36.8215 5.24495C36.779 5.18132 36.7563 5.10652 36.7563 5.02999C36.7564 4.92741 36.7972 4.82906 36.8697 4.75652C36.9422 4.68399 37.0406 4.64319 37.1432 4.64309ZM33.2741 3.09547C33.4272 3.09547 33.5768 3.05009 33.704 2.96506C33.8313 2.88003 33.9305 2.75918 33.989 2.61779C34.0476 2.47639 34.0629 2.3208 34.0331 2.1707C34.0032 2.02059 33.9295 1.88271 33.8213 1.7745C33.7131 1.66628 33.5752 1.59258 33.4251 1.56272C33.275 1.53286 33.1194 1.54819 32.978 1.60675C32.8366 1.66532 32.7158 1.7645 32.6307 1.89176C32.5457 2.01901 32.5003 2.16862 32.5003 2.32166C32.5006 2.52682 32.5822 2.7235 32.7272 2.86857C32.8723 3.01364 33.069 3.09524 33.2741 3.09547ZM33.2741 1.93476C33.3507 1.93476 33.4255 1.95745 33.4891 1.99996C33.5527 2.04248 33.6023 2.1029 33.6316 2.1736C33.6609 2.2443 33.6685 2.32209 33.6536 2.39714C33.6387 2.4722 33.6018 2.54113 33.5477 2.59524C33.4936 2.64935 33.4247 2.6862 33.3496 2.70113C33.2746 2.71606 33.1968 2.7084 33.1261 2.67912C33.0554 2.64983 32.995 2.60024 32.9524 2.53661C32.9099 2.47299 32.8872 2.39818 32.8872 2.32166C32.8873 2.21908 32.9281 2.12073 33.0007 2.04819C33.0732 1.97566 33.1716 1.93486 33.2741 1.93476ZM6.96461 9.67285C6.96461 9.51981 6.91923 9.3702 6.8342 9.24295C6.74917 9.11569 6.62832 9.01651 6.48693 8.95795C6.34553 8.89938 6.18994 8.88405 6.03984 8.91391C5.88974 8.94377 5.75186 9.01747 5.64364 9.12569C5.53542 9.23391 5.46172 9.37179 5.43186 9.52189C5.402 9.67199 5.41733 9.82758 5.4759 9.96898C5.53446 10.1104 5.63364 10.2312 5.7609 10.3163C5.88815 10.4013 6.03776 10.4467 6.1908 10.4467C6.39596 10.4464 6.59264 10.3648 6.73771 10.2198C6.88278 10.0747 6.96438 9.87801 6.96461 9.67285ZM5.8039 9.67285C5.8039 9.59633 5.82659 9.52153 5.8691 9.4579C5.91162 9.39427 5.97204 9.34468 6.04274 9.3154C6.11344 9.28612 6.19123 9.27845 6.26628 9.29338C6.34134 9.30831 6.41028 9.34516 6.46439 9.39927C6.5185 9.45338 6.55534 9.52232 6.57027 9.59737C6.5852 9.67242 6.57754 9.75022 6.54826 9.82091C6.51897 9.89161 6.46938 9.95204 6.40576 9.99455C6.34213 10.0371 6.26732 10.0598 6.1908 10.0598C6.08822 10.0597 5.98987 10.0189 5.91733 9.94632C5.8448 9.87379 5.804 9.77543 5.8039 9.67285Z" fill="#2D4356"/>
<path d="M0.77381 57.0681C1.20117 57.0681 1.54762 56.7217 1.54762 56.2943C1.54762 55.867 1.20117 55.5205 0.77381 55.5205C0.346446 55.5205 0 55.867 0 56.2943C0 56.7217 0.346446 57.0681 0.77381 57.0681Z" fill="#2D4356"/>
<path d="M4.25581 55.5205H3.0951C2.88987 55.5205 2.69305 55.602 2.54793 55.7472C2.40282 55.8923 2.32129 56.0891 2.32129 56.2943C2.32129 56.4995 2.40282 56.6964 2.54793 56.8415C2.69305 56.9866 2.88987 57.0681 3.0951 57.0681H4.25581C4.46104 57.0681 4.65786 56.9866 4.80298 56.8415C4.9481 56.6964 5.02962 56.4995 5.02962 56.2943C5.02962 56.0891 4.9481 55.8923 4.80298 55.7472C4.65786 55.602 4.46104 55.5205 4.25581 55.5205ZM61.9046 55.5205H60.7439C60.5387 55.5205 60.3419 55.602 60.1967 55.7472C60.0516 55.8923 59.9701 56.0891 59.9701 56.2943C59.9701 56.4995 60.0516 56.6964 60.1967 56.8415C60.3419 56.9866 60.5387 57.0681 60.7439 57.0681H61.9046C62.1098 57.0681 62.3067 56.9866 62.4518 56.8415C62.5969 56.6964 62.6784 56.4995 62.6784 56.2943C62.6784 56.0891 62.5969 55.8923 62.4518 55.7472C62.3067 55.602 62.1098 55.5205 61.9046 55.5205Z" fill="#2D4356"/>
<path d="M64.226 57.0681C64.6533 57.0681 64.9998 56.7217 64.9998 56.2943C64.9998 55.867 64.6533 55.5205 64.226 55.5205C63.7986 55.5205 63.4521 55.867 63.4521 56.2943C63.4521 56.7217 63.7986 57.0681 64.226 57.0681Z" fill="#2D4356"/>
<path d="M58.3145 55.521H54.724C54.9631 55.0734 55.088 54.5737 55.0877 54.0663V45.1404C55.552 44.8879 55.9403 44.5158 56.2124 44.0627C56.4845 43.6097 56.6305 43.0921 56.6353 42.5636V37.7079C56.6305 37.18 56.4844 36.6629 56.2122 36.2105C55.9401 35.758 55.5518 35.3867 55.0877 35.135V26.2091C55.0878 25.558 54.8804 24.9238 54.4957 24.3984C55.1224 23.6828 55.47 22.7651 55.4746 21.8139C55.4685 21.1061 55.2761 20.4123 54.9169 19.8024C54.5576 19.1925 54.044 18.6879 53.4278 18.3395C52.7579 17.988 52.0098 17.8123 51.2534 17.8288C51.0832 17.8288 51.0832 17.7475 51.0832 17.6818C51.0832 17.6315 51.0832 17.5347 51.2534 17.5347C52.0166 17.5442 52.7702 17.3648 53.4472 17.0124C54.2169 16.5753 54.819 15.894 55.1581 15.0764C55.4972 14.2587 55.5541 13.3513 55.3197 12.4977C55.0854 11.6441 54.5731 10.893 53.864 10.3632C53.1549 9.83335 52.2894 9.55503 51.4043 9.57225C50.7004 9.5603 50.0064 9.73948 49.3963 10.0907C48.7848 10.439 48.2757 10.9419 47.9199 11.5489C47.564 12.156 47.374 12.846 47.3689 13.5496C47.3895 14.2767 47.6017 14.9854 47.9841 15.6041C48.0126 15.6666 48.0359 15.7313 48.0537 15.7975C48.0304 15.8197 48.0027 15.8369 47.9725 15.8478L47.9222 15.8749C47.8371 15.9291 47.7249 15.8672 47.6552 15.7589L47.6127 15.697C47.2001 15.1289 46.6922 14.6367 46.1115 14.2422L46.0767 14.219C45.4578 13.8727 44.7604 13.6909 44.0512 13.6909C43.342 13.6909 42.6447 13.8727 42.0258 14.219C41.4107 14.5646 40.8988 15.0677 40.5425 15.6766C40.1862 16.2855 39.9984 16.9782 39.9984 17.6837C39.9984 18.3892 40.1862 19.082 40.5425 19.6909C40.8988 20.2998 41.4107 20.8028 42.0258 21.1484C42.6416 21.4903 43.3342 21.6704 44.0386 21.6717C44.743 21.6731 45.4362 21.4957 46.0534 21.1562C46.7145 20.784 47.2586 20.2346 47.6243 19.5699C47.6576 19.5162 47.708 19.4753 47.7674 19.4538C47.8019 19.4578 47.835 19.4697 47.8642 19.4886C47.9009 19.5135 47.9289 19.5493 47.9441 19.591C47.9594 19.6326 47.9612 19.678 47.9493 19.7208C47.5789 20.3569 47.379 21.0779 47.3689 21.8139C47.3709 22.2577 47.4508 22.6977 47.6049 23.1139H40.2267C40.359 22.9997 40.4473 22.8429 40.4763 22.6705C40.5052 22.4981 40.4731 22.321 40.3853 22.1699L34.1948 11.4023C34.1668 11.322 34.1145 11.2525 34.0452 11.2033C33.9758 11.1541 33.8929 11.1276 33.8079 11.1276C33.7229 11.1276 33.64 11.1541 33.5707 11.2033C33.5013 11.2525 33.449 11.322 33.421 11.4023L27.2305 22.1699C27.1427 22.321 27.1106 22.4981 27.1395 22.6705C27.1685 22.8429 27.2568 22.9997 27.3892 23.1139H24.1198C24.1155 22.864 24.0684 22.6167 23.9805 22.3827C24.4232 21.7785 24.7295 21.0855 24.8785 20.3515C25.0274 19.6175 25.0155 18.8599 24.8433 18.1309C24.6712 17.402 24.3431 16.719 23.8815 16.1292C23.4199 15.5393 22.836 15.0566 22.1698 14.7142C22.2647 13.982 22.2033 13.2379 21.9895 12.5312C21.7757 11.8245 21.4145 11.1711 20.9297 10.6143C20.4448 10.0574 19.8474 9.6097 19.1768 9.30069C18.5063 8.99168 17.7778 8.8284 17.0394 8.82163H16.8769C16.6648 8.51679 16.3818 8.26808 16.0522 8.09689C15.7226 7.92569 15.3564 7.83716 14.985 7.83889C14.6034 7.83902 14.2277 7.93197 13.89 8.10973C13.5338 8.29414 13.2327 8.56953 13.0173 8.90793C12.8019 9.24633 12.6798 9.6357 12.6636 10.0365C12.3004 9.8059 11.8789 9.68375 11.4487 9.68443C11.0767 9.68427 10.7102 9.77456 10.3808 9.94752C9.84486 10.2268 9.43739 10.7022 9.24332 11.2746C9.11617 11.6493 9.08818 12.0505 9.16207 12.4392C8.89413 12.6704 8.68129 12.9586 8.53915 13.2826C8.41276 13.5804 8.35413 13.9025 8.36751 14.2257C8.3809 14.5489 8.46595 14.8651 8.61653 15.1514C8.79735 15.5023 9.07225 15.7961 9.41049 15.9997C9.74872 16.2033 10.1369 16.3088 10.5317 16.3044C10.7049 16.3042 10.8775 16.2847 11.0463 16.2463L14.5555 22.9514C14.4491 23.0481 14.3531 23.1557 14.2692 23.2725C13.6517 23.4776 13.1142 23.8713 12.7324 24.3982C12.3506 24.9251 12.1438 25.5585 12.1412 26.2091V54.0663C12.1409 54.5737 12.2658 55.0734 12.5049 55.521H6.68588C6.57574 55.5066 6.46379 55.5158 6.3575 55.548C6.2512 55.5803 6.15302 55.6349 6.06952 55.7081C5.98601 55.7814 5.9191 55.8716 5.87326 55.9728C5.82742 56.074 5.80371 56.1838 5.80371 56.2948C5.80371 56.4059 5.82742 56.5157 5.87326 56.6169C5.9191 56.7181 5.98601 56.8083 6.06952 56.8816C6.15302 56.9548 6.2512 57.0094 6.3575 57.0417C6.46379 57.0739 6.57574 57.0831 6.68588 57.0687H58.3145C58.4246 57.0831 58.5365 57.0739 58.6428 57.0417C58.7491 57.0094 58.8473 56.9548 58.9308 56.8816C59.0143 56.8083 59.0812 56.7181 59.1271 56.6169C59.1729 56.5157 59.1966 56.4059 59.1966 56.2948C59.1966 56.1838 59.1729 56.074 59.1271 55.9728C59.0812 55.8716 59.0143 55.7814 58.9308 55.7081C58.8473 55.6349 58.7491 55.5803 58.6428 55.548C58.5365 55.5158 58.4246 55.5066 58.3145 55.521ZM55.0877 37.7079V42.5636C55.0684 42.9645 54.8911 43.3415 54.5945 43.612C54.2979 43.8825 53.9062 44.0244 53.5052 44.0068H45.0978C42.4978 44.0068 40.3853 42.2696 40.3853 40.1377C40.3853 38.002 42.4978 36.2687 45.0978 36.2687H53.5052C53.9056 36.2508 54.2968 36.3922 54.5933 36.6619C54.8899 36.9316 55.0676 37.3076 55.0877 37.7079ZM47.7674 17.9062C47.464 17.9156 47.1681 18.0028 46.908 18.1593C46.6479 18.3157 46.4323 18.5363 46.2817 18.7999C46.0554 19.2211 45.7148 19.5698 45.299 19.8059C44.9159 20.0181 44.4852 20.1294 44.0473 20.1294C43.6094 20.1294 43.1787 20.0181 42.7957 19.8059C42.417 19.5958 42.1014 19.2882 41.8816 18.9151C41.6619 18.5419 41.546 18.1167 41.546 17.6837C41.546 17.2506 41.6619 16.8255 41.8816 16.4523C42.1014 16.0791 42.417 15.7716 42.7957 15.5615C43.176 15.3485 43.6042 15.2356 44.04 15.2336C44.4759 15.2316 44.9051 15.3404 45.2874 15.5499C45.7018 15.8402 46.0652 16.1971 46.363 16.6062C46.5258 16.8587 46.7491 17.0667 47.0125 17.2113C47.276 17.3559 47.5714 17.4325 47.8719 17.4341C48.155 17.4361 48.4338 17.3641 48.6805 17.2252C48.9158 17.1198 49.1207 16.9568 49.2763 16.7512C49.4318 16.5456 49.533 16.3041 49.5704 16.049C49.6205 15.6419 49.5421 15.2293 49.346 14.869C49.0914 14.4736 48.9434 14.0191 48.9165 13.5496C48.922 13.1146 49.0422 12.6887 49.265 12.315C49.4878 11.9414 49.8054 11.6332 50.1856 11.4216C50.5577 11.2142 50.9784 11.11 51.4043 11.1198C51.7308 11.1101 52.0559 11.1657 52.3605 11.2835C52.6651 11.4012 52.9431 11.5787 53.1781 11.8054C53.4132 12.0322 53.6005 12.3036 53.7291 12.6038C53.8577 12.904 53.925 13.2269 53.927 13.5535C53.9232 13.9821 53.8073 14.4023 53.5908 14.7722C53.3743 15.1422 53.0646 15.449 52.6927 15.6621C52.2464 15.8856 51.7525 15.9972 51.2534 15.9871C51.029 15.9841 50.8061 16.0256 50.5978 16.1094C50.3895 16.1932 50.2 16.3176 50.0402 16.4752C49.8803 16.6329 49.7534 16.8207 49.6668 17.0279C49.5802 17.235 49.5356 17.4572 49.5356 17.6817C49.5356 17.9062 49.5802 18.1285 49.6668 18.3356C49.7534 18.5427 49.8803 18.7306 50.0402 18.8883C50.2 19.0459 50.3895 19.1703 50.5978 19.2541C50.8061 19.3378 51.029 19.3794 51.2534 19.3764C51.7454 19.3613 52.2334 19.469 52.6734 19.6898C53.05 19.9031 53.364 20.2116 53.584 20.5843C53.804 20.9571 53.9223 21.3811 53.927 21.8139C53.9228 22.4043 53.7026 22.9727 53.3079 23.4118C52.8971 23.2156 52.4477 23.1138 51.9924 23.1139H49.3112C49.056 22.7282 48.9189 22.2764 48.9165 21.8139C48.9293 21.3336 49.0652 20.8647 49.3112 20.452C49.4462 20.1862 49.5112 19.8905 49.5 19.5926C49.4888 19.2947 49.4018 19.0046 49.2473 18.7498C49.0927 18.4949 48.8757 18.2836 48.6168 18.136C48.3578 17.9884 48.0655 17.9093 47.7674 17.9062V17.9062ZM34.5817 15.1823L38.1296 21.3496L34.5817 19.9258V15.1823ZM34.5817 21.5934L37.5918 22.8005L37.0153 23.1139H34.5817V21.5934ZM33.0341 15.1823V19.9026L29.521 21.2916L33.0341 15.1823ZM33.0341 21.5663V23.1139H30.6005L29.9775 22.7734L33.0341 21.5663ZM11.7427 14.2383L10.9805 14.6368C10.8424 14.7115 10.6887 14.7526 10.5317 14.7568C10.4193 14.7602 10.3082 14.7314 10.2115 14.6738C10.1149 14.6163 10.0367 14.5323 9.98618 14.4318C9.94588 14.3442 9.92385 14.2494 9.92143 14.1531C9.91901 14.0568 9.93625 13.961 9.9721 13.8715C10.0079 13.7821 10.0616 13.7009 10.1299 13.6329C10.1982 13.5649 10.2796 13.5116 10.3692 13.4761L11.1314 13.0776L10.7484 12.3464C10.66 12.1634 10.647 11.9531 10.7121 11.7606C10.7772 11.5681 10.9153 11.4089 11.0966 11.3172C11.2057 11.2618 11.3263 11.2326 11.4487 11.2321C11.584 11.2332 11.7163 11.2718 11.831 11.3435C11.9457 11.4152 12.0384 11.5172 12.0987 11.6383L12.4817 12.3696L14.6793 11.2166L14.2963 10.4853C14.2492 10.3991 14.22 10.3042 14.2103 10.2064C14.2006 10.1086 14.2107 10.0098 14.2399 9.91599C14.2692 9.82215 14.317 9.73515 14.3805 9.66015C14.444 9.58515 14.5219 9.52368 14.6097 9.47939C14.7255 9.41881 14.8543 9.38696 14.985 9.38653C15.121 9.385 15.2548 9.42058 15.372 9.48943C15.4893 9.55828 15.5855 9.6578 15.6505 9.77729L16.0335 10.5047C16.3612 10.4146 16.6996 10.3691 17.0394 10.3692C17.705 10.3706 18.3572 10.556 18.9239 10.9049C19.4907 11.2538 19.9499 11.7527 20.2508 12.3463C20.516 12.8647 20.6569 13.4377 20.6623 14.0199C20.6677 14.6022 20.5374 15.1777 20.2817 15.7008C20.8521 15.7871 21.3948 16.0041 21.8673 16.335C22.3399 16.6659 22.7294 17.1017 23.0055 17.6082C23.4055 18.3462 23.5354 19.2006 23.3729 20.0241C23.2105 20.8477 22.7659 21.5887 22.1156 22.1195L22.4987 22.8508C22.5401 22.9329 22.5651 23.0222 22.5722 23.1139H20.9124L20.7615 22.8276L20.2121 23.1139H16.3894L11.7427 14.2383ZM14.718 55.521C14.4174 55.4143 14.1571 55.2173 13.9728 54.9568C13.7886 54.6964 13.6894 54.3853 13.6889 54.0663V26.2091C13.6894 25.7988 13.8526 25.4055 14.1427 25.1154C14.4329 24.8253 14.8262 24.6621 15.2365 24.6615H51.9924C52.1957 24.6615 52.3969 24.7014 52.5847 24.7792C52.7725 24.857 52.9432 24.9709 53.0869 25.1147C53.2306 25.2584 53.3446 25.429 53.4224 25.6168C53.5001 25.8046 53.5401 26.0059 53.54 26.2091V34.721H45.0978C41.6389 34.721 38.8377 37.1469 38.8377 40.1377C38.8377 43.1285 41.6389 45.5544 45.0978 45.5544H53.5052C53.5168 45.5544 53.5284 45.5505 53.54 45.5505V54.0663C53.5395 54.3853 53.4403 54.6964 53.2561 54.9568C53.0718 55.2173 52.8115 55.4143 52.5109 55.521H14.718Z" fill="#2D4356"/>
<path d="M45.028 37.8164C44.5688 37.8164 44.12 37.9526 43.7383 38.2076C43.3565 38.4627 43.059 38.8253 42.8833 39.2495C42.7075 39.6736 42.6616 40.1404 42.7511 40.5907C42.8407 41.041 43.0618 41.4547 43.3865 41.7793C43.7111 42.104 44.1248 42.3251 44.5751 42.4147C45.0254 42.5042 45.4922 42.4583 45.9163 42.2826C46.3405 42.1069 46.7031 41.8093 46.9582 41.4275C47.2133 41.0458 47.3494 40.597 47.3494 40.1378C47.3489 39.5223 47.1042 38.9321 46.6689 38.4969C46.2337 38.0616 45.6435 37.8169 45.028 37.8164ZM45.028 40.9116C44.8749 40.9116 44.7253 40.8663 44.5981 40.7812C44.4708 40.6962 44.3716 40.5754 44.3131 40.434C44.2545 40.2926 44.2392 40.137 44.269 39.9869C44.2989 39.8368 44.3726 39.6989 44.4808 39.5907C44.589 39.4824 44.7269 39.4088 44.877 39.3789C45.0271 39.349 45.1827 39.3644 45.3241 39.4229C45.4655 39.4815 45.5863 39.5807 45.6714 39.7079C45.7564 39.8352 45.8018 39.9848 45.8018 40.1378C45.8012 40.3429 45.7195 40.5393 45.5745 40.6843C45.4295 40.8293 45.233 40.911 45.028 40.9116Z" fill="#1E83E6"/>
<path d="M17.558 41.2976C17.9854 41.2976 18.3318 40.9512 18.3318 40.5238C18.3318 40.0964 17.9854 39.75 17.558 39.75C17.1306 39.75 16.7842 40.0964 16.7842 40.5238C16.7842 40.9512 17.1306 41.2976 17.558 41.2976Z" fill="#1E83E6"/>
<path d="M2.1598 3.48665L2.73513 2.73025L2.37183 2.52441L2.00272 3.37174H1.99034L1.61504 2.53022L1.24555 2.74224L1.81469 3.48084V3.49284L0.924805 3.37793V3.78959L1.82088 3.67468V3.68668L1.24555 4.42489L1.59067 4.6431L1.98454 3.78959H1.99614L2.35945 4.63691L2.74094 4.41909L2.1598 3.69248V3.68049L3.07367 3.78959V3.37793L2.1598 3.49864V3.48665Z" fill="#1E83E6"/>
<path d="M20.8067 1.96036L20.4751 2.38557L20.6739 2.51093L20.9007 2.01956H20.9076L21.1166 2.50744L21.3363 2.38209L21.0017 1.96346V1.95649L21.5278 2.01956V1.78238L21.0017 1.85203V1.84506L21.3328 1.40941L21.1239 1.29102L20.9111 1.7789H20.9042L20.6883 1.29411L20.4751 1.41637L20.8032 1.84158V1.84855L20.2905 1.78238V2.01956L20.8067 1.9534V1.96036Z" fill="#1E83E6"/>
<path d="M60.7441 18.4605V18.057L59.8476 18.1758V18.1638L60.4121 17.4217L60.0558 17.2197L59.6936 18.0508H59.6813L59.3133 17.2255L58.9508 17.4337L59.5091 18.158V18.17L58.6362 18.057V18.4605L59.5149 18.3479V18.3599L58.9508 19.0842L59.2893 19.2982L59.6755 18.4605H59.6871L60.0434 19.292L60.4175 19.0784L59.8476 18.3657V18.3537L60.7441 18.4605Z" fill="#1E83E6"/>
<path d="M45.9263 8.1339L45.4396 8.75875L45.7313 8.9433L46.0648 8.22095H46.0745L46.3821 8.93789L46.7048 8.75372L46.213 8.13893V8.12848L46.9864 8.22095V7.87274L46.213 7.97488V7.96482L46.6997 7.3245L46.3925 7.15039L46.0799 7.86732H46.0698L45.7522 7.15542L45.4396 7.33494L45.9213 7.95979V7.96985L45.168 7.87274V8.22095L45.9263 8.12345V8.1339Z" fill="#1E83E6"/>
<path d="M45.7142 59.0029H42.4999C42.3053 59.0185 42.1238 59.1068 41.9914 59.2502C41.8591 59.3936 41.7856 59.5816 41.7856 59.7767C41.7856 59.9719 41.8591 60.1599 41.9914 60.3033C42.1238 60.4467 42.3053 60.535 42.4999 60.5505H45.7142C45.9087 60.535 46.0902 60.4467 46.2226 60.3033C46.355 60.1599 46.4285 59.9719 46.4285 59.7767C46.4285 59.5816 46.355 59.3936 46.2226 59.2502C46.0902 59.1068 45.9087 59.0185 45.7142 59.0029ZM22.4999 59.0029H19.2856C19.091 59.0185 18.9095 59.1068 18.7772 59.2502C18.6448 59.3936 18.5713 59.5816 18.5713 59.7767C18.5713 59.9719 18.6448 60.1599 18.7772 60.3033C18.9095 60.4467 19.091 60.535 19.2856 60.5505H22.4999C22.6944 60.535 22.8759 60.4467 23.0083 60.3033C23.1407 60.1599 23.2142 59.9719 23.2142 59.7767C23.2142 59.5816 23.1407 59.3936 23.0083 59.2502C22.8759 59.1068 22.6944 59.0185 22.4999 59.0029ZM40.238 59.0029H24.7618C24.5565 59.0029 24.3597 59.0845 24.2146 59.2296C24.0695 59.3747 23.988 59.5715 23.988 59.7767C23.988 59.982 24.0695 60.1788 24.2146 60.3239C24.3597 60.469 24.5565 60.5505 24.7618 60.5505H30.929V61.3244H27.857C27.6518 61.3244 27.455 61.4059 27.3098 61.551C27.1647 61.6961 27.0832 61.8929 27.0832 62.0982C27.0832 62.3034 27.1647 62.5002 27.3098 62.6453C27.455 62.7904 27.6518 62.872 27.857 62.872H37.5296C37.7349 62.872 37.9317 62.7904 38.0768 62.6453C38.2219 62.5002 38.3034 62.3034 38.3034 62.0982C38.3034 61.8929 38.2219 61.6961 38.0768 61.551C37.9317 61.4059 37.7349 61.3244 37.5296 61.3244H34.0707V60.5505H40.238C40.4432 60.5505 40.64 60.469 40.7851 60.3239C40.9303 60.1788 41.0118 59.982 41.0118 59.7767C41.0118 59.5715 40.9303 59.3747 40.7851 59.2296C40.64 59.0845 40.4432 59.0029 40.238 59.0029Z" fill="#1E83E6"/>
</svg>
