<svg width="59" height="59" viewBox="0 0 59 59" fill="none" xmlns="http://www.w3.org/2000/svg">
<path d="M47.0601 25.7653C47.2685 25.7653 47.4722 25.7036 47.6454 25.5878C47.8187 25.472 47.9537 25.3075 48.0335 25.115C48.1132 24.9224 48.1341 24.7106 48.0934 24.5062C48.0528 24.3019 47.9524 24.1141 47.8051 23.9668C47.6578 23.8194 47.47 23.7191 47.2657 23.6784C47.0613 23.6378 46.8494 23.6587 46.6569 23.7384C46.4644 23.8181 46.2999 23.9532 46.1841 24.1264C46.0683 24.2997 46.0065 24.5034 46.0065 24.7118C46.0069 24.9911 46.118 25.2589 46.3155 25.4564C46.513 25.6539 46.7808 25.765 47.0601 25.7653ZM47.0601 24.185C47.1643 24.185 47.2661 24.2159 47.3528 24.2738C47.4394 24.3316 47.5069 24.4139 47.5468 24.5102C47.5867 24.6064 47.5971 24.7124 47.5768 24.8145C47.5564 24.9167 47.5063 25.0106 47.4326 25.0843C47.3589 25.1579 47.2651 25.2081 47.1629 25.2284C47.0607 25.2488 46.9548 25.2383 46.8585 25.1985C46.7623 25.1586 46.68 25.0911 46.6221 25.0044C46.5642 24.9178 46.5333 24.816 46.5333 24.7118C46.5335 24.5721 46.589 24.4382 46.6878 24.3394C46.7865 24.2407 46.9204 24.1851 47.0601 24.185ZM56.4919 31.8286C56.353 31.8286 56.2172 31.8698 56.1017 31.947C55.9862 32.0241 55.8961 32.1338 55.843 32.2622C55.7898 32.3905 55.7759 32.5317 55.803 32.668C55.8301 32.8042 55.897 32.9294 55.9952 33.0276C56.0935 33.1259 56.2186 33.1927 56.3549 33.2198C56.4911 33.2469 56.6323 33.233 56.7607 33.1799C56.889 33.1267 56.9987 33.0367 57.0759 32.9212C57.1531 32.8057 57.1943 32.6699 57.1943 32.531C57.1941 32.3447 57.12 32.1662 56.9883 32.0345C56.8566 31.9029 56.6781 31.8288 56.4919 31.8286ZM56.4919 32.8822C56.4224 32.8822 56.3545 32.8616 56.2968 32.823C56.239 32.7844 56.194 32.7295 56.1674 32.6654C56.1409 32.6012 56.1339 32.5306 56.1474 32.4624C56.161 32.3943 56.1944 32.3317 56.2436 32.2826C56.2927 32.2335 56.3553 32.2001 56.4234 32.1865C56.4915 32.173 56.5621 32.1799 56.6263 32.2065C56.6905 32.2331 56.7453 32.2781 56.7839 32.3359C56.8225 32.3936 56.8431 32.4615 56.8431 32.531C56.843 32.6241 56.806 32.7133 56.7401 32.7792C56.6743 32.845 56.585 32.8821 56.4919 32.8822ZM28.7983 9.61058C28.6594 9.61058 28.5236 9.65178 28.408 9.72896C28.2925 9.80614 28.2025 9.91583 28.1494 10.0442C28.0962 10.1725 28.0823 10.3137 28.1094 10.45C28.1365 10.5862 28.2034 10.7114 28.3016 10.8096C28.3998 10.9079 28.525 10.9747 28.6612 11.0018C28.7975 11.029 28.9387 11.015 29.0671 10.9619C29.1954 10.9087 29.3051 10.8187 29.3823 10.7032C29.4595 10.5877 29.5007 10.4519 29.5007 10.313C29.5004 10.1267 29.4264 9.94822 29.2947 9.81654C29.163 9.68487 28.9845 9.6108 28.7983 9.61058ZM28.7983 10.6642C28.7288 10.6642 28.6609 10.6436 28.6032 10.605C28.5454 10.5664 28.5004 10.5115 28.4738 10.4474C28.4472 10.3832 28.4403 10.3126 28.4538 10.2445C28.4674 10.1763 28.5008 10.1138 28.5499 10.0646C28.5991 10.0155 28.6616 9.98207 28.7298 9.96852C28.7979 9.95497 28.8685 9.96193 28.9327 9.98851C28.9968 10.0151 29.0517 10.0601 29.0903 10.1179C29.1289 10.1756 29.1495 10.2435 29.1495 10.313C29.1494 10.4061 29.1123 10.4954 29.0465 10.5612C28.9807 10.627 28.8914 10.6641 28.7983 10.6642ZM56.1407 8.9082C56.0018 8.9082 55.866 8.9494 55.7505 9.02658C55.635 9.10375 55.5449 9.21345 55.4918 9.34179C55.4386 9.47014 55.4247 9.61136 55.4518 9.74761C55.4789 9.88386 55.5458 10.009 55.644 10.1072C55.7423 10.2055 55.8674 10.2724 56.0037 10.2995C56.1399 10.3266 56.2811 10.3127 56.4095 10.2595C56.5378 10.2063 56.6475 10.1163 56.7247 10.0008C56.8019 9.8853 56.8431 9.7495 56.8431 9.61058C56.8429 9.42437 56.7688 9.24584 56.6371 9.11416C56.5054 8.98248 56.3269 8.90842 56.1407 8.9082ZM56.1407 9.96177C56.0712 9.96177 56.0033 9.94118 55.9456 9.90259C55.8878 9.864 55.8428 9.80915 55.8162 9.74498C55.7897 9.68081 55.7827 9.61019 55.7963 9.54207C55.8098 9.47395 55.8433 9.41137 55.8924 9.36225C55.9415 9.31314 56.0041 9.27969 56.0722 9.26614C56.1403 9.25259 56.2109 9.25955 56.2751 9.28613C56.3393 9.31271 56.3941 9.35772 56.4327 9.41547C56.4713 9.47323 56.4919 9.54113 56.4919 9.61058C56.4918 9.7037 56.4548 9.79297 56.3889 9.85881C56.3231 9.92465 56.2338 9.96168 56.1407 9.96177ZM7.55125 25.4142C7.55125 25.2752 7.51005 25.1394 7.43287 25.0239C7.3557 24.9084 7.246 24.8184 7.11766 24.7652C6.98931 24.7121 6.84809 24.6982 6.71184 24.7253C6.57559 24.7524 6.45044 24.8193 6.35221 24.9175C6.25398 25.0157 6.18708 25.1409 6.15998 25.2771C6.13288 25.4134 6.14679 25.5546 6.19995 25.6829C6.25311 25.8113 6.34314 25.921 6.45864 25.9982C6.57415 26.0753 6.70995 26.1165 6.84887 26.1165C7.03508 26.1163 7.21361 26.0423 7.34529 25.9106C7.47696 25.7789 7.55103 25.6004 7.55125 25.4142ZM6.49768 25.4142C6.49768 25.3447 6.51827 25.2768 6.55686 25.219C6.59545 25.1613 6.6503 25.1163 6.71447 25.0897C6.77864 25.0631 6.84926 25.0562 6.91738 25.0697C6.9855 25.0833 7.04808 25.1167 7.09719 25.1658C7.14631 25.2149 7.17976 25.2775 7.19331 25.3456C7.20686 25.4138 7.1999 25.4844 7.17332 25.5485C7.14674 25.6127 7.10173 25.6676 7.04398 25.7062C6.98622 25.7447 6.91832 25.7653 6.84887 25.7653C6.75575 25.7653 6.66648 25.7282 6.60064 25.6624C6.5348 25.5965 6.49777 25.5073 6.49768 25.4142Z" fill="black"/>
<path d="M5.17018 9.52415L5.6924 8.83722L5.36263 8.65039L5.0276 9.4195H5.01636L4.6757 8.65601L4.34032 8.84811L4.85692 9.51888V9.52977L4.04883 9.42512V9.79878L4.86254 9.69448V9.70537L4.34032 10.3758L4.65358 10.5739L5.01074 9.79878H5.02163L5.35139 10.5682L5.69767 10.3705L5.17018 9.71099V9.69975L5.99969 9.79878V9.42512L5.17018 9.53504V9.52415Z" fill="#007AFF"/>
<path d="M18.2888 16.049L17.9882 16.4349L18.1687 16.5491L18.3745 16.1027H18.3805L18.5705 16.5455L18.7699 16.4318L18.4662 16.0521V16.0458L18.9438 16.1027V15.8874L18.4662 15.9506V15.9447L18.7668 15.5489L18.5771 15.4414L18.384 15.8843H18.3777L18.1813 15.4446L17.9882 15.5552L18.2856 15.9415V15.9478L17.8203 15.8874V16.1027L18.2888 16.0426V16.049Z" fill="#007AFF"/>
<path d="M57.2551 15.5901V15.2238L56.4414 15.3313V15.3208L56.9534 14.6472L56.63 14.4639L56.3013 15.2182H56.2904L55.9564 14.4691L55.6273 14.6577L56.1341 15.3155V15.326L55.3418 15.2238V15.5901L56.1394 15.4879V15.4988L55.6273 16.1559L55.9346 16.3501L56.2851 15.5901H56.2956L56.6191 16.3448L56.9587 16.1506L56.4414 15.5041V15.4932L57.2551 15.5901Z" fill="#007AFF"/>
<path d="M40.5247 10.3317L40.9665 9.75081L40.6877 9.59277L40.4039 10.2435H40.3948L40.1065 9.59734L39.8227 9.75994L40.2599 10.3271V10.3366L39.5762 10.2481V10.5642L40.2645 10.476V10.4851L39.8227 11.0523L40.0875 11.2198L40.3902 10.5642H40.3994L40.6782 11.2153L40.9711 11.0478L40.5247 10.4897V10.4806L41.2268 10.5642V10.2481L40.5247 10.3412V10.3317Z" fill="#007AFF"/>
<path d="M0.702381 52.1977C1.0903 52.1977 1.40476 51.8833 1.40476 51.4953C1.40476 51.1074 1.0903 50.793 0.702381 50.793C0.314467 50.793 0 51.1074 0 51.4953C0 51.8833 0.314467 52.1977 0.702381 52.1977Z" fill="#007AFF"/>
<path d="M3.86337 50.7939H2.8098C2.62352 50.7939 2.44487 50.8679 2.31314 50.9997C2.18142 51.1314 2.10742 51.31 2.10742 51.4963C2.10742 51.6826 2.18142 51.8613 2.31314 51.993C2.44487 52.1247 2.62352 52.1987 2.8098 52.1987H3.86337C4.04966 52.1987 4.22831 52.1247 4.36003 51.993C4.49175 51.8613 4.56576 51.6826 4.56576 51.4963C4.56576 51.31 4.49175 51.1314 4.36003 50.9997C4.22831 50.8679 4.04966 50.7939 3.86337 50.7939ZM56.1908 50.7939H55.1372C54.9509 50.7939 54.7722 50.8679 54.6405 50.9997C54.5088 51.1314 54.4348 51.31 54.4348 51.4963C54.4348 51.6826 54.5088 51.8613 54.6405 51.993C54.7722 52.1247 54.9509 52.1987 55.1372 52.1987H56.1908C56.377 52.1987 56.5557 52.1247 56.6874 51.993C56.8191 51.8613 56.8931 51.6826 56.8931 51.4963C56.8931 51.31 56.8191 51.1314 56.6874 50.9997C56.5557 50.8679 56.377 50.7939 56.1908 50.7939Z" fill="#007AFF"/>
<path d="M58.2981 52.1977C58.686 52.1977 59.0005 51.8833 59.0005 51.4953C59.0005 51.1074 58.686 50.793 58.2981 50.793C57.9102 50.793 57.5957 51.1074 57.5957 51.4953C57.5957 51.8833 57.9102 52.1977 58.2981 52.1977Z" fill="#007AFF"/>
<path d="M41.4948 53.6025H38.5772C38.4006 53.6167 38.2359 53.6968 38.1157 53.827C37.9956 53.9571 37.9289 54.1278 37.9289 54.3049C37.9289 54.4821 37.9956 54.6527 38.1157 54.7829C38.2359 54.913 38.4006 54.9932 38.5772 55.0073H41.4948C41.6714 54.9932 41.8361 54.913 41.9563 54.7829C42.0764 54.6527 42.1432 54.4821 42.1432 54.3049C42.1432 54.1278 42.0764 53.9571 41.9563 53.827C41.8361 53.6968 41.6714 53.6167 41.4948 53.6025ZM20.4234 53.6025H17.5058C17.3292 53.6167 17.1644 53.6968 17.0443 53.827C16.9241 53.9571 16.8574 54.1278 16.8574 54.3049C16.8574 54.4821 16.9241 54.6527 17.0443 54.7829C17.1644 54.913 17.3292 54.9932 17.5058 55.0073H20.4234C20.5999 54.9932 20.7647 54.913 20.8849 54.7829C21.005 54.6527 21.0717 54.4821 21.0717 54.3049C21.0717 54.1278 21.005 53.9571 20.8849 53.827C20.7647 53.6968 20.5999 53.6167 20.4234 53.6025ZM36.5241 53.6025H22.4765C22.2902 53.6025 22.1115 53.6765 21.9798 53.8083C21.8481 53.94 21.7741 54.1186 21.7741 54.3049C21.7741 54.4912 21.8481 54.6699 21.9798 54.8016C22.1115 54.9333 22.2902 55.0073 22.4765 55.0073H28.0745V55.7097H25.286C25.0997 55.7097 24.9211 55.7837 24.7893 55.9154C24.6576 56.0471 24.5836 56.2258 24.5836 56.4121C24.5836 56.5984 24.6576 56.777 24.7893 56.9087C24.9211 57.0404 25.0997 57.1144 25.286 57.1144H34.0658C34.2521 57.1144 34.4307 57.0404 34.5624 56.9087C34.6942 56.777 34.7682 56.5984 34.7682 56.4121C34.7682 56.2258 34.6942 56.0471 34.5624 55.9154C34.4307 55.7837 34.2521 55.7097 34.0658 55.7097H30.9261V55.0073H36.5241C36.7104 55.0073 36.889 54.9333 37.0208 54.8016C37.1525 54.6699 37.2265 54.4912 37.2265 54.3049C37.2265 54.1186 37.1525 53.94 37.0208 53.8083C36.889 53.6765 36.7104 53.6025 36.5241 53.6025Z" fill="#007AFF"/>
<path d="M44.9266 29.7165L44.9235 29.5165C45.0258 29.5149 45.1273 29.5339 45.2221 29.5722C45.3169 29.6105 45.4031 29.6674 45.4755 29.7396C45.548 29.8117 45.6052 29.8977 45.6439 29.9924C45.6824 30.0866 45.7017 30.1877 45.7007 30.2894M44.9266 29.7165L45.5007 30.2885M44.9266 29.7165C44.7771 29.7189 44.6346 29.7804 44.5303 29.8876C44.4261 29.9948 44.3685 30.1389 44.3703 30.2885M44.9266 29.7165C45.0022 29.7153 45.0772 29.7293 45.1472 29.7576C45.2172 29.7859 45.2809 29.828 45.3344 29.8813C45.3879 29.9346 45.4302 29.998 45.4587 30.068L45.46 31.342M44.9266 29.7165L44.9235 29.5165C44.721 29.5197 44.5281 29.6031 44.387 29.7482C44.2461 29.8929 44.1682 30.0875 44.1703 30.2894M44.9266 29.7165L44.1703 30.2894M45.7007 30.2894C45.7007 30.2899 45.7006 30.2904 45.7006 30.2908L45.5007 30.2885M45.7007 30.2894V30.2885H45.5007M45.7007 30.2894V30.3947V31.1221M45.5007 30.2885V30.3947V31.1233M45.7007 31.1221C45.7007 31.1215 45.7006 31.121 45.7006 31.1205L45.5007 31.1233M45.7007 31.1221C45.7019 31.2229 45.6831 31.323 45.6455 31.4166L45.46 31.342M45.7007 31.1221V31.1233H45.5007M45.5007 31.1233L45.46 31.342M45.46 31.342C45.432 31.4115 45.3906 31.4748 45.338 31.5282C45.2854 31.5815 45.2227 31.6239 45.1536 31.6528C45.0845 31.6817 45.0104 31.6965 44.9355 31.6965C44.8606 31.6965 44.7864 31.6817 44.7173 31.6528C44.6482 31.6239 44.5855 31.5815 44.5329 31.5282C44.4804 31.4748 44.4389 31.4115 44.411 31.342M45.46 31.342L45.6455 31.4166C45.6077 31.5106 45.5516 31.5963 45.4804 31.6686C45.4092 31.7408 45.3244 31.7981 45.2308 31.8373C45.1372 31.8764 45.0368 31.8965 44.9355 31.8965C44.8342 31.8965 44.7337 31.8764 44.6401 31.8373C44.5466 31.7981 44.4617 31.7408 44.3905 31.6686C44.3193 31.5963 44.2632 31.5106 44.2254 31.4166L44.411 31.342M45.46 31.342L44.1703 30.2894M44.411 31.342C44.383 31.2725 44.3692 31.1982 44.3703 31.1233V30.3947V30.2885M44.411 31.342L44.2254 31.4166C44.1878 31.323 44.169 31.2229 44.1703 31.1221V30.3947V30.2894M44.3703 30.2885H44.1703V30.2894M44.3703 30.2885L44.1703 30.2908C44.1703 30.2904 44.1703 30.2899 44.1703 30.2894M14.4148 18.217H14.4148C14.2118 18.217 14.0172 18.2977 13.8737 18.4412C13.7303 18.5846 13.6496 18.7792 13.6496 18.9822V18.9822V49.5028C13.6496 49.7058 13.7303 49.9004 13.8737 50.0439C14.0172 50.1873 14.2118 50.268 14.4148 50.268H44.9355C45.1384 50.268 45.333 50.1873 45.4765 50.0439C45.62 49.9004 45.7006 49.7058 45.7007 49.5029V33.1863C45.7019 33.0855 45.6831 32.9853 45.6455 32.8917L45.46 32.9663L45.6455 32.8917C45.6077 32.7975 45.5515 32.712 45.4804 32.6398C45.4092 32.5676 45.3244 32.5103 45.2308 32.4712C45.1374 32.4321 45.037 32.4118 44.9355 32.4118C44.8339 32.4118 44.7335 32.4321 44.6401 32.4712C44.5466 32.5103 44.4617 32.5676 44.3905 32.6398C44.3194 32.712 44.2632 32.7975 44.2254 32.8917L44.411 32.9663L44.2254 32.8917C44.1878 32.9853 44.169 33.0855 44.1703 33.1863V48.7376H15.18V19.7474H44.1703V28.0285C44.169 28.1294 44.1878 28.2295 44.2254 28.323L44.411 28.2485L44.2254 28.323C44.2632 28.4171 44.3193 28.5028 44.3905 28.575C44.4617 28.6472 44.5466 28.7046 44.6401 28.7437C44.7337 28.7829 44.8342 28.803 44.9355 28.803C45.0368 28.803 45.1372 28.7829 45.2308 28.7437C45.3244 28.7046 45.4092 28.6472 45.4804 28.575C45.5516 28.5028 45.6077 28.4171 45.6455 28.323L45.46 28.2485L45.6455 28.323C45.6831 28.2295 45.7019 28.1294 45.7007 28.0285V18.9822C45.7006 18.7792 45.62 18.5846 45.4765 18.4412C45.333 18.2977 45.1384 18.217 44.9355 18.217H14.4148Z" fill="#2D4356" stroke="#2D4356" stroke-width="0.4"/>
<path fill-rule="evenodd" clip-rule="evenodd" d="M14.415 22.9385C14.3401 22.9375 14.2658 22.9513 14.1963 22.9792C14.1268 23.0072 14.0635 23.0486 14.0102 23.1012C13.9569 23.1538 13.9145 23.2165 13.8856 23.2856C13.8567 23.3547 13.8418 23.4288 13.8418 23.5037C13.8418 23.5786 13.8567 23.6528 13.8856 23.7219C13.9145 23.791 13.9569 23.8537 14.0102 23.9062C14.0635 23.9588 14.1268 24.0003 14.1963 24.0282C14.2658 24.0561 14.3401 24.07 14.415 24.0689H44.9357C45.0106 24.07 45.0849 24.0561 45.1545 24.0282C45.224 24.0003 45.2872 23.9588 45.3405 23.9062C45.3939 23.8537 45.4362 23.791 45.4651 23.7219C45.4941 23.6528 45.5089 23.5786 45.5089 23.5037C45.5089 23.4288 45.4941 23.3547 45.4651 23.2856C45.4362 23.2165 45.3939 23.1538 45.3405 23.1012C45.2872 23.0486 45.224 23.0072 45.1545 22.9792C45.0849 22.9513 45.0106 22.9375 44.9357 22.9385H14.415Z" fill="#2D4356"/>
<path d="M17.2398 21.2439C17.2398 21.3181 17.2251 21.3917 17.1967 21.4603C17.1683 21.5288 17.1267 21.5912 17.0742 21.6437C17.0217 21.6961 16.9594 21.7378 16.8909 21.7662C16.8223 21.7946 16.7488 21.8091 16.6746 21.8091C16.6003 21.8091 16.5268 21.7946 16.4583 21.7662C16.3897 21.7378 16.3274 21.6961 16.2749 21.6437C16.2224 21.5912 16.1808 21.5288 16.1524 21.4603C16.124 21.3917 16.1094 21.3181 16.1094 21.2439C16.1094 21.1697 16.124 21.0963 16.1524 21.0277C16.1808 20.9591 16.2224 20.8968 16.2749 20.8443C16.3274 20.7918 16.3897 20.7502 16.4583 20.7218C16.5268 20.6934 16.6003 20.6787 16.6746 20.6787C16.7488 20.6787 16.8223 20.6934 16.8909 20.7218C16.9594 20.7502 17.0217 20.7918 17.0742 20.8443C17.1267 20.8968 17.1683 20.9591 17.1967 21.0277C17.2251 21.0963 17.2398 21.1697 17.2398 21.2439ZM19.5006 21.2439C19.5006 21.3181 19.4859 21.3916 19.4575 21.4601C19.4291 21.5287 19.3875 21.591 19.335 21.6435C19.2825 21.696 19.2202 21.7376 19.1516 21.7661C19.0831 21.7945 19.0096 21.8091 18.9354 21.8091C18.8611 21.8091 18.7876 21.7945 18.7191 21.7661C18.6505 21.7376 18.5882 21.696 18.5357 21.6435C18.4832 21.591 18.4416 21.5287 18.4132 21.4601C18.3848 21.3916 18.3702 21.3181 18.3702 21.2439C18.3702 21.1697 18.3848 21.0961 18.4132 21.0275C18.4416 20.959 18.4832 20.8966 18.5357 20.8442C18.5882 20.7917 18.6505 20.75 18.7191 20.7216C18.7876 20.6932 18.8611 20.6787 18.9354 20.6787C19.0096 20.6787 19.0831 20.6932 19.1516 20.7216C19.2202 20.75 19.2825 20.7917 19.335 20.8442C19.3875 20.8966 19.4291 20.959 19.4575 21.0275C19.4859 21.0961 19.5006 21.1697 19.5006 21.2439ZM21.7614 21.2439C21.7614 21.3938 21.7018 21.5375 21.5958 21.6435C21.4898 21.7495 21.3461 21.8091 21.1962 21.8091C21.0463 21.8091 20.9025 21.7495 20.7965 21.6435C20.6905 21.5375 20.631 21.3938 20.6309 21.2439C20.631 21.094 20.6905 20.9502 20.7965 20.8442C20.9025 20.7382 21.0463 20.6787 21.1962 20.6787C21.3461 20.6787 21.4898 20.7382 21.5958 20.8442C21.7018 20.9502 21.7614 21.094 21.7614 21.2439Z" fill="#2D4356"/>
<path d="M38.1525 30.8502C38.0026 30.8502 37.8589 30.9098 37.7529 31.0158C37.6469 31.1217 37.5874 31.2655 37.5873 31.4154V46.1105C37.5874 46.2604 37.6469 46.4041 37.7529 46.5101C37.8589 46.6161 38.0026 46.6757 38.1525 46.6757H41.5437C41.6936 46.6757 41.8374 46.6161 41.9434 46.5101C42.0493 46.4041 42.1089 46.2604 42.1089 46.1105V31.4154C42.1089 31.2655 42.0493 31.1217 41.9434 31.0158C41.8374 30.9098 41.6936 30.8502 41.5437 30.8502H38.1525ZM38.7177 31.9806H40.9785V45.5453H38.7177V31.9806ZM31.3702 27.459C31.2203 27.459 31.0765 27.5186 30.9705 27.6246C30.8645 27.7306 30.805 27.8743 30.805 28.0242V46.1105C30.805 46.2604 30.8645 46.4041 30.9705 46.5101C31.0765 46.6161 31.2203 46.6757 31.3702 46.6757H34.7614C34.9112 46.6757 35.055 46.6161 35.161 46.5101C35.267 46.4041 35.3265 46.2604 35.3265 46.1105V28.0242C35.3265 27.8743 35.267 27.7306 35.161 27.6246C35.055 27.5186 34.9112 27.459 34.7614 27.459H31.3702ZM31.9354 28.5894H34.1962V45.5453H31.9354V28.5894ZM24.5878 34.2413C24.4379 34.2414 24.2942 34.3009 24.1882 34.4069C24.0822 34.5129 24.0226 34.6567 24.0226 34.8065V46.1105C24.0226 46.2604 24.0822 46.4041 24.1882 46.5101C24.2942 46.6161 24.4379 46.6757 24.5878 46.6757H27.979C28.1289 46.6757 28.2726 46.6161 28.3786 46.5101C28.4846 46.4041 28.5442 46.2604 28.5442 46.1105V34.8065C28.5442 34.6567 28.4846 34.5129 28.3786 34.4069C28.2726 34.3009 28.1289 34.2414 27.979 34.2413H24.5878ZM25.153 35.3717H27.4138V45.5453H25.153V35.3717ZM17.8054 31.9806C17.6555 31.9806 17.5118 32.0402 17.4058 32.1461C17.2998 32.2521 17.2402 32.3959 17.2402 32.5458V46.1105C17.2402 46.2604 17.2998 46.4041 17.4058 46.5101C17.5118 46.6161 17.6555 46.6757 17.8054 46.6757H21.1966C21.3465 46.6757 21.4903 46.6161 21.5963 46.5101C21.7022 46.4041 21.7618 46.2604 21.7618 46.1105V32.5458C21.7618 32.3959 21.7022 32.2521 21.5963 32.1461C21.4903 32.0402 21.3465 31.9806 21.1966 31.9806H17.8054ZM18.3706 33.111H20.6314V45.5453H18.3706V33.111Z" fill="black"/>
</svg>
