<svg width="60" height="58" viewBox="0 0 60 58" fill="none" xmlns="http://www.w3.org/2000/svg">
<path d="M10.2277 3.19449C10.4383 3.19449 10.6442 3.13204 10.8193 3.01504C10.9944 2.89803 11.1309 2.73173 11.2115 2.53716C11.2921 2.34258 11.3131 2.12848 11.2721 1.92192C11.231 1.71537 11.1296 1.52563 10.9806 1.37671C10.8317 1.22779 10.642 1.12638 10.4354 1.08529C10.2289 1.0442 10.0148 1.06529 9.82019 1.14589C9.62562 1.22648 9.45931 1.36296 9.34231 1.53807C9.2253 1.71318 9.16285 1.91906 9.16285 2.12966C9.16317 2.41197 9.27547 2.68263 9.47509 2.88226C9.67471 3.08188 9.94537 3.19417 10.2277 3.19449ZM10.2277 1.59725C10.333 1.59725 10.4359 1.62847 10.5235 1.68698C10.611 1.74548 10.6793 1.82863 10.7196 1.92592C10.7599 2.0232 10.7704 2.13025 10.7499 2.23353C10.7293 2.33681 10.6786 2.43168 10.6042 2.50614C10.5297 2.5806 10.4348 2.6313 10.3316 2.65185C10.2283 2.67239 10.1212 2.66185 10.0239 2.62155C9.92665 2.58125 9.8435 2.51301 9.78499 2.42546C9.72649 2.3379 9.69527 2.23496 9.69527 2.12966C9.69541 1.9885 9.75154 1.85316 9.85136 1.75334C9.95118 1.65352 10.0865 1.59739 10.2277 1.59725ZM58.2108 6.56646C58.0704 6.56646 57.9331 6.60809 57.8164 6.6861C57.6996 6.7641 57.6086 6.87497 57.5549 7.00468C57.5012 7.1344 57.4871 7.27713 57.5145 7.41484C57.5419 7.55254 57.6095 7.67903 57.7088 7.77831C57.8081 7.87759 57.9346 7.9452 58.0723 7.97259C58.21 7.99999 58.3527 7.98593 58.4824 7.9322C58.6121 7.87847 58.723 7.78748 58.801 7.67074C58.879 7.554 58.9207 7.41675 58.9207 7.27635C58.9204 7.08814 58.8456 6.9077 58.7125 6.77462C58.5794 6.64154 58.399 6.56668 58.2108 6.56646ZM58.2108 7.63129C58.1406 7.63129 58.0719 7.61047 58.0136 7.57147C57.9552 7.53247 57.9097 7.47704 57.8828 7.41218C57.856 7.34732 57.8489 7.27595 57.8626 7.2071C57.8763 7.13825 57.9101 7.075 57.9598 7.02536C58.0094 6.97572 58.0727 6.94192 58.1415 6.92822C58.2104 6.91453 58.2817 6.92156 58.3466 6.94842C58.4115 6.97529 58.4669 7.02078 58.5059 7.07915C58.5449 7.13752 58.5657 7.20615 58.5657 7.27635C58.5656 7.37046 58.5282 7.46068 58.4616 7.52723C58.3951 7.59377 58.3049 7.6312 58.2108 7.63129ZM31.235 10.7928C31.0946 10.7928 30.9574 10.8345 30.8406 10.9125C30.7239 10.9905 30.6329 11.1013 30.5792 11.231C30.5255 11.3608 30.5114 11.5035 30.5388 11.6412C30.5662 11.7789 30.6338 11.9054 30.7331 12.0047C30.8323 12.104 30.9588 12.1716 31.0965 12.199C31.2342 12.2264 31.377 12.2123 31.5067 12.1586C31.6364 12.1048 31.7473 12.0138 31.8253 11.8971C31.9033 11.7804 31.9449 11.6431 31.9449 11.5027C31.9447 11.3145 31.8698 11.1341 31.7368 11.001C31.6037 10.8679 31.4232 10.793 31.235 10.7928ZM31.235 11.8577C31.1648 11.8577 31.0962 11.8368 31.0378 11.7978C30.9795 11.7588 30.934 11.7034 30.9071 11.6385C30.8802 11.5737 30.8732 11.5023 30.8869 11.4335C30.9006 11.3646 30.9344 11.3014 30.984 11.2517C31.0337 11.2021 31.0969 11.1683 31.1658 11.1546C31.2346 11.1409 31.306 11.1479 31.3709 11.1748C31.4357 11.2017 31.4912 11.2471 31.5302 11.3055C31.5692 11.3639 31.59 11.4325 31.59 11.5027C31.5899 11.5968 31.5525 11.687 31.4859 11.7536C31.4194 11.8201 31.3291 11.8576 31.235 11.8577ZM47.0446 0C46.9042 0 46.767 0.0416341 46.6502 0.119638C46.5335 0.197641 46.4425 0.30851 46.3888 0.438225C46.3351 0.56794 46.321 0.710675 46.3484 0.84838C46.3758 0.986084 46.4434 1.11257 46.5427 1.21185C46.6419 1.31113 46.7684 1.37874 46.9061 1.40613C47.0438 1.43353 47.1866 1.41947 47.3163 1.36574C47.446 1.31201 47.5569 1.22102 47.6349 1.10428C47.7129 0.987539 47.7545 0.85029 47.7545 0.709888C47.7543 0.52168 47.6794 0.341242 47.5464 0.208159C47.4133 0.0750757 47.2328 0.000215129 47.0446 0ZM47.0446 1.06483C46.9744 1.06483 46.9058 1.04401 46.8474 1.00501C46.7891 0.966011 46.7436 0.910576 46.7167 0.845719C46.6898 0.780861 46.6828 0.709494 46.6965 0.640641C46.7102 0.571789 46.744 0.508544 46.7937 0.458904C46.8433 0.409265 46.9065 0.375459 46.9754 0.361764C47.0442 0.348068 47.1156 0.355097 47.1805 0.381962C47.2453 0.408827 47.3008 0.454321 47.3398 0.512691C47.3788 0.571062 47.3996 0.639686 47.3996 0.709888C47.3995 0.803996 47.3621 0.894222 47.2955 0.960767C47.229 1.02731 47.1387 1.06474 47.0446 1.06483ZM3.44126 12.5675C3.44126 12.4271 3.39963 12.2899 3.32162 12.1732C3.24362 12.0564 3.13275 11.9654 3.00303 11.9117C2.87332 11.858 2.73058 11.8439 2.59288 11.8713C2.45518 11.8987 2.32869 11.9663 2.22941 12.0656C2.13013 12.1649 2.06252 12.2913 2.03512 12.4291C2.00773 12.5668 2.02179 12.7095 2.07552 12.8392C2.12925 12.9689 2.22024 13.0798 2.33698 13.1578C2.45372 13.2358 2.59097 13.2774 2.73137 13.2774C2.91958 13.2772 3.10002 13.2024 3.2331 13.0693C3.36618 12.9362 3.44104 12.7558 3.44126 12.5675ZM2.37643 12.5675C2.37643 12.4973 2.39725 12.4287 2.43625 12.3703C2.47525 12.312 2.53068 12.2665 2.59554 12.2396C2.6604 12.2128 2.73177 12.2057 2.80062 12.2194C2.86947 12.2331 2.93272 12.2669 2.98236 12.3166C3.032 12.3662 3.0658 12.4294 3.0795 12.4983C3.09319 12.5672 3.08616 12.6385 3.0593 12.7034C3.03243 12.7682 2.98694 12.8237 2.92857 12.8627C2.8702 12.9017 2.80157 12.9225 2.73137 12.9225C2.63726 12.9224 2.54704 12.885 2.48049 12.8184C2.41395 12.7519 2.37652 12.6617 2.37643 12.5675Z" fill="#2D4356"/>
<path d="M10.3747 22.7796L10.9025 22.0853L10.5692 21.8965L10.2306 22.6738H10.2192L9.87527 21.9022L9.53595 22.0963L10.0584 22.7739V22.7853L9.2417 22.6795V23.0572L10.0637 22.9517V22.9627L9.53595 23.6403L9.85256 23.8405L10.2139 23.0572H10.2245L10.5578 23.8348L10.9078 23.6346L10.3747 22.9684V22.9571L11.2131 23.0572V22.6795L10.3747 22.7906V22.7796Z" fill="#1E83E6"/>
<path d="M26.8818 0.764443L26.578 1.15453L26.7604 1.26953L26.9684 0.81875H26.9748L27.1665 1.26633L27.3681 1.15133L27.0611 0.767283V0.760894L27.5438 0.81875V0.601169L27.0611 0.665059V0.65867L27.3649 0.259003L27.1732 0.150391L26.978 0.597975H26.9716L26.7736 0.15323L26.578 0.265392L26.879 0.655476V0.661865L26.4087 0.601169V0.81875L26.8818 0.758054V0.764443Z" fill="#1E83E6"/>
<path d="M52.7262 17.1227V16.7525L51.9042 16.8614V16.8504L52.4217 16.1697L52.0948 15.9844L51.7625 16.7468H51.7515L51.414 15.9897L51.081 16.1803L51.5936 16.8451V16.8561L50.7925 16.7525V17.1227L51.5989 17.0194V17.0304L51.081 17.6948L51.3916 17.8911L51.7462 17.1227H51.7569L52.0838 17.8855L52.427 17.6895L51.9042 17.0357V17.0247L52.7262 17.1227Z" fill="#1E83E6"/>
<path d="M39.1677 6.0245L39.6142 5.43707L39.3324 5.27734L39.0459 5.93505H39.0364L38.745 5.28196L38.4582 5.4463L38.9001 6.01989V6.02911L38.209 5.93967V6.25912L38.9047 6.17003V6.17961L38.4582 6.75249L38.7258 6.9218L39.0317 6.25912H39.041L39.3228 6.91718L39.6188 6.74788L39.1677 6.18423V6.17464L39.8772 6.25912V5.93967L39.1677 6.03373V6.0245Z" fill="#1E83E6"/>
<path d="M0.709888 53.0301C1.10195 53.0301 1.41978 52.7123 1.41978 52.3202C1.41978 51.9282 1.10195 51.6104 0.709888 51.6104C0.317827 51.6104 0 51.9282 0 52.3202C0 52.7123 0.317827 53.0301 0.709888 53.0301Z" fill="#2D4356"/>
<path d="M3.90411 51.6104H2.83928C2.65101 51.6104 2.47045 51.6851 2.33732 51.8183C2.20419 51.9514 2.12939 52.132 2.12939 52.3202C2.12939 52.5085 2.20419 52.6891 2.33732 52.8222C2.47045 52.9553 2.65101 53.0301 2.83928 53.0301H3.90411C4.09239 53.0301 4.27295 52.9553 4.40608 52.8222C4.53921 52.6891 4.614 52.5085 4.614 52.3202C4.614 52.132 4.53921 51.9514 4.40608 51.8183C4.27295 51.6851 4.09239 51.6104 3.90411 51.6104Z" fill="#2D4356"/>
<path d="M41.9378 54.4502H38.989C38.8106 54.4645 38.644 54.5455 38.5226 54.677C38.4012 54.8086 38.3337 54.9811 38.3337 55.1601C38.3337 55.3391 38.4012 55.5116 38.5226 55.6431C38.644 55.7747 38.8106 55.8557 38.989 55.87H41.9378C42.1163 55.8557 42.2828 55.7747 42.4042 55.6431C42.5257 55.5116 42.5931 55.3391 42.5931 55.1601C42.5931 54.9811 42.5257 54.8086 42.4042 54.677C42.2828 54.5455 42.1163 54.4645 41.9378 54.4502ZM20.6412 54.4502H17.6924C17.5139 54.4645 17.3474 54.5455 17.226 54.677C17.1045 54.8086 17.0371 54.9811 17.0371 55.1601C17.0371 55.3391 17.1045 55.5116 17.226 55.6431C17.3474 55.7747 17.5139 55.8557 17.6924 55.87H20.6412C20.8196 55.8557 20.9862 55.7747 21.1076 55.6431C21.229 55.5116 21.2965 55.3391 21.2965 55.1601C21.2965 54.9811 21.229 54.8086 21.1076 54.677C20.9862 54.5455 20.8196 54.4645 20.6412 54.4502ZM36.914 54.4502H22.7162C22.5279 54.4502 22.3474 54.525 22.2143 54.6581C22.0811 54.7912 22.0063 54.9718 22.0063 55.1601C22.0063 55.3484 22.0811 55.5289 22.2143 55.662C22.3474 55.7952 22.5279 55.87 22.7162 55.87H28.374V56.5799H25.5558C25.3675 56.5799 25.1869 56.6546 25.0538 56.7878C24.9207 56.9209 24.8459 57.1015 24.8459 57.2897C24.8459 57.478 24.9207 57.6586 25.0538 57.7917C25.1869 57.9248 25.3675 57.9996 25.5558 57.9996H34.4294C34.6176 57.9996 34.7982 57.9248 34.9313 57.7917C35.0645 57.6586 35.1393 57.478 35.1393 57.2897C35.1393 57.1015 35.0645 56.9209 34.9313 56.7878C34.7982 56.6546 34.6176 56.5799 34.4294 56.5799H31.2562V55.87H36.914C37.1022 55.87 37.2828 55.7952 37.4159 55.662C37.5491 55.5289 37.6239 55.3484 37.6239 55.1601C37.6239 54.9718 37.5491 54.7912 37.4159 54.6581C37.2828 54.525 37.1022 54.4502 36.914 54.4502Z" fill="#1E83E6"/>
<path d="M15.2632 17.8909C15.9653 17.8909 16.6515 17.6827 17.2352 17.2927C17.8189 16.9027 18.2739 16.3484 18.5425 15.6998C18.8112 15.0512 18.8815 14.3375 18.7445 13.649C18.6076 12.9605 18.2696 12.328 17.7732 11.8316C17.2768 11.3352 16.6443 10.9972 15.9558 10.8602C15.2673 10.7232 14.5536 10.7935 13.905 11.0622C13.2564 11.3308 12.7021 11.7858 12.3121 12.3695C11.922 12.9532 11.7139 13.6394 11.7139 14.3414C11.7149 15.2825 12.0892 16.1846 12.7546 16.8501C13.42 17.5155 14.3222 17.8898 15.2632 17.8909ZM15.2632 12.2118C15.6844 12.2118 16.0962 12.3367 16.4464 12.5707C16.7966 12.8047 17.0696 13.1373 17.2308 13.5264C17.392 13.9156 17.4342 14.3438 17.352 14.7569C17.2698 15.17 17.067 15.5495 16.7692 15.8473C16.4713 16.1452 16.0919 16.348 15.6787 16.4302C15.2656 16.5123 14.8374 16.4702 14.4483 16.309C14.0591 16.1478 13.7265 15.8748 13.4925 15.5246C13.2585 15.1744 13.1336 14.7626 13.1336 14.3414C13.1342 13.7768 13.3588 13.2355 13.758 12.8362C14.1573 12.437 14.6986 12.2124 15.2632 12.2118ZM56.7914 51.6105H55.7266C55.5383 51.6105 55.3577 51.6853 55.2246 51.8184C55.0915 51.9516 55.0167 52.1321 55.0167 52.3204C55.0167 52.5087 55.0915 52.6893 55.2246 52.8224C55.3577 52.9555 55.5383 53.0303 55.7266 53.0303H56.7914C56.9797 53.0303 57.1602 52.9555 57.2933 52.8224C57.4265 52.6893 57.5013 52.5087 57.5013 52.3204C57.5013 52.1321 57.4265 51.9516 57.2933 51.8184C57.1602 51.6853 56.9797 51.6105 56.7914 51.6105Z" fill="#2D4356"/>
<path d="M58.9208 53.0301C59.3129 53.0301 59.6307 52.7123 59.6307 52.3202C59.6307 51.9282 59.3129 51.6104 58.9208 51.6104C58.5288 51.6104 58.2109 51.9282 58.2109 52.3202C58.2109 52.7123 58.5288 53.0301 58.9208 53.0301Z" fill="#2D4356"/>
<path d="M42.4656 35.1553C42.0873 35.5417 41.8779 36.0626 41.8835 36.6034C41.4044 36.6212 40.9287 36.646 40.4638 36.6815V35.2405C41.124 35.1979 41.7913 35.1659 42.4656 35.1553ZM41.8835 43.0705V44.5258C36.176 45.6971 31.2636 48.061 27.1995 51.6105H25.1018C29.638 47.234 35.2567 44.3838 41.8835 43.0705ZM51.1121 42.2328V43.6597C49.9017 43.6526 48.7198 43.6952 47.5626 43.7768V42.3393C48.7198 42.2612 49.9029 42.2257 51.1121 42.2328ZM22.7166 40.7811V42.5416C19.2524 44.9226 16.3351 48.0141 14.1589 51.6105H12.519C14.9854 47.2239 18.4861 43.5064 22.7166 40.7811ZM29.8155 37.3382V38.8893C29.3292 39.0667 28.8571 39.2549 28.3957 39.4501V37.867C28.8642 37.6825 29.3363 37.505 29.8155 37.3382Z" fill="#1E83E6"/>
<path d="M53.4967 51.6113H52.3254C51.7558 50.1405 51.0561 48.7234 50.2348 47.3768C50.7707 47.3307 51.3103 47.2916 51.8569 47.2632C52.0387 47.2535 52.21 47.1746 52.3354 47.0425C52.4608 46.9105 52.5309 46.7354 52.5313 46.5533V33.1542C52.5306 32.9881 52.4722 32.8275 52.3659 32.6999C52.2597 32.5723 52.1123 32.4857 51.9492 32.455C50.3093 32.1533 48.7286 31.9178 47.2071 31.7486V30.3146C47.2069 29.844 47.0199 29.3927 46.6871 29.0599C46.3543 28.7271 45.903 28.5401 45.4324 28.5399H43.9558C43.976 28.4227 43.9855 28.3039 43.9842 28.185C43.9836 27.6155 43.7876 27.0635 43.4291 26.621C43.0706 26.1785 42.5712 25.8724 42.0143 25.7536L42.8413 20.7312H44.9C45.0881 20.7306 45.2683 20.6556 45.4013 20.5226C45.5343 20.3896 45.6093 20.2094 45.6099 20.0213V18.6015C45.6094 18.0368 45.3849 17.4954 44.9856 17.0961C44.5863 16.6968 44.0449 16.4723 43.4802 16.4718H42.5929V13.9872C42.5923 13.7991 42.5173 13.6189 42.3843 13.4859C42.2513 13.3529 42.0711 13.2779 41.883 13.2773H39.0434C38.8553 13.2779 38.6751 13.3529 38.5421 13.4859C38.409 13.6189 38.3341 13.7991 38.3335 13.9872V16.4718H26.7979C26.2332 16.4723 25.6917 16.6968 25.2924 17.0961C24.8932 17.4954 24.6686 18.0368 24.6682 18.6015V20.0213C24.6687 20.2094 24.7437 20.3896 24.8767 20.5226C25.0097 20.6556 25.19 20.7306 25.3781 20.7312H27.4368L28.2638 25.7465C27.7005 25.86 27.1937 26.1648 26.8295 26.6092C26.4653 27.0536 26.266 27.6104 26.2654 28.185C26.2642 28.3039 26.2737 28.4227 26.2938 28.5399H24.8457C24.375 28.5401 23.9237 28.7271 23.5909 29.0599C23.2581 29.3927 23.0711 29.844 23.0709 30.3146V31.5427C17.9231 31.1599 12.7472 31.4667 7.68058 32.455C7.5174 32.4857 7.37002 32.5723 7.26379 32.6999C7.15755 32.8275 7.0991 32.9881 7.09847 33.1542V46.5533C7.09882 46.7354 7.16891 46.9105 7.29434 47.0425C7.41977 47.1746 7.59101 47.2535 7.77286 47.2632C8.31948 47.2916 8.85544 47.3307 9.39141 47.3803C8.5703 48.7252 7.8718 50.1413 7.30434 51.6113H6.13302C6.03199 51.598 5.92928 51.6064 5.83177 51.636C5.73426 51.6656 5.64419 51.7157 5.56758 51.7829C5.49097 51.8501 5.42959 51.9329 5.38754 52.0257C5.34548 52.1185 5.32373 52.2193 5.32373 52.3212C5.32373 52.4231 5.34548 52.5238 5.38754 52.6166C5.42959 52.7094 5.49097 52.7922 5.56758 52.8594C5.64419 52.9266 5.73426 52.9767 5.83177 53.0063C5.92928 53.0359 6.03199 53.0443 6.13302 53.031H53.4967C53.5978 53.0443 53.7005 53.0359 53.798 53.0063C53.8955 52.9767 53.9856 52.9266 54.0622 52.8594C54.1388 52.7922 54.2002 52.7094 54.2422 52.6166C54.2843 52.5238 54.306 52.4231 54.306 52.3212C54.306 52.2193 54.2843 52.1185 54.2422 52.0257C54.2002 51.9329 54.1388 51.8501 54.0622 51.7829C53.9856 51.7157 53.8955 51.6656 53.798 51.636C53.7005 51.6064 53.5978 51.598 53.4967 51.6113ZM51.1115 45.8825C49.5565 45.982 48.0079 46.1644 46.4724 46.4291C46.8 46.2644 47.0753 46.0118 47.2677 45.6997C47.4602 45.3876 47.5621 45.0281 47.5621 44.6615V40.1146C48.7014 40.1182 49.8846 40.162 51.1115 40.246V45.8825ZM47.1042 33.1648C48.4175 33.3139 49.7532 33.508 51.1115 33.747V38.8226C49.8905 38.7375 48.7085 38.6984 47.5621 38.6949V36.7001C47.516 36.1815 47.3442 35.682 47.0616 35.2448C46.8772 35.0336 46.6497 34.8645 46.3944 34.7487C46.139 34.633 45.8618 34.5734 45.5815 34.574H43.8636C43.6034 34.5729 43.3457 34.6238 43.1055 34.7238C42.8653 34.8237 42.6476 34.9707 42.4651 35.1561C42.0867 35.5425 41.8773 36.0634 41.883 36.6042V38.9859C41.4002 39.0392 40.9282 39.0995 40.4632 39.1669V33.5091H46.4972C46.6195 33.5087 46.7395 33.4768 46.8458 33.4165C46.9522 33.3562 47.0411 33.2695 47.1042 33.1648ZM46.1423 36.5546V44.6615C46.142 44.8101 46.0828 44.9526 45.9777 45.0577C45.8726 45.1628 45.7301 45.222 45.5815 45.2223H43.8636C43.7149 45.222 43.5725 45.1628 43.4674 45.0577C43.3622 44.9526 43.3031 44.8101 43.3027 44.6615V36.5546C43.3031 36.4059 43.3622 36.2635 43.4673 36.1583C43.5724 36.0532 43.7149 35.9941 43.8636 35.9937H45.5815C45.7301 35.9941 45.8726 36.0532 45.9777 36.1583C46.0828 36.2634 46.142 36.4059 46.1423 36.5546ZM42.5645 28.185C42.5645 28.3956 42.502 28.6015 42.385 28.7766C42.268 28.9517 42.1017 29.0882 41.9071 29.1688C41.7125 29.2494 41.4984 29.2704 41.2919 29.2294C41.0853 29.1883 40.8956 29.0869 40.7467 28.9379C40.5978 28.789 40.4963 28.5993 40.4553 28.3927C40.4142 28.1862 40.4353 27.9721 40.5159 27.7775C40.5964 27.5829 40.7329 27.4166 40.908 27.2996C41.0831 27.1826 41.289 27.1201 41.4996 27.1201C41.7818 27.121 42.0521 27.2334 42.2517 27.4329C42.4512 27.6325 42.5636 27.9028 42.5645 28.185ZM39.0434 28.5399H31.2063C31.2264 28.4227 31.2359 28.3039 31.2347 28.185C31.2342 27.6987 31.091 27.2232 30.8229 26.8175C30.5547 26.4118 30.1734 26.0937 29.7261 25.9027L28.8778 20.7312H41.4002L40.5519 25.8885C40.1031 26.0752 39.7183 26.3884 39.4445 26.7901C39.1644 27.2013 39.0147 27.6874 39.015 28.185C39.0137 28.3039 39.0232 28.4227 39.0434 28.5399ZM39.7533 14.6971H41.1731V16.4718H39.7533V14.6971ZM26.088 19.3114V18.6015C26.0885 18.4134 26.1635 18.2332 26.2965 18.1001C26.4295 17.9671 26.6097 17.8922 26.7979 17.8916H43.4802C43.6683 17.8922 43.8486 17.9671 43.9816 18.1001C44.1146 18.2332 44.1896 18.4134 44.1901 18.6015V19.3114H26.088ZM28.75 27.1201C28.9606 27.1201 29.1665 27.1826 29.3416 27.2996C29.5167 27.4166 29.6532 27.5829 29.7338 27.7775C29.8144 27.9721 29.8355 28.1862 29.7944 28.3927C29.7533 28.5993 29.6519 28.789 29.503 28.9379C29.3541 29.0869 29.1643 29.1883 28.9578 29.2294C28.7512 29.2704 28.5371 29.2494 28.3426 29.1688C28.148 29.0882 27.9817 28.9517 27.8647 28.7766C27.7477 28.6015 27.6852 28.3956 27.6852 28.185C27.686 27.9028 27.7985 27.6325 27.998 27.4329C28.1975 27.2334 28.4679 27.121 28.75 27.1201ZM24.4907 30.3146C24.491 30.2206 24.5285 30.1305 24.595 30.064C24.6615 29.9975 24.7516 29.96 24.8457 29.9597H27.0144C27.477 30.4155 28.1006 30.6706 28.75 30.6696C29.2006 30.6714 29.6428 30.5485 30.0278 30.3146H40.2218C40.6069 30.5485 41.0491 30.6714 41.4996 30.6696C42.1491 30.6706 42.7727 30.4155 43.2353 29.9597H45.4324C45.5265 29.96 45.6166 29.9975 45.6831 30.064C45.7496 30.1305 45.7871 30.2206 45.7873 30.3146V32.0894H24.4907V30.3146ZM37.8792 39.3799H32.3705C32.1824 39.3805 32.0021 39.4554 31.8691 39.5884C31.7361 39.7215 31.6611 39.9017 31.6606 40.0898V41.3179H31.2347V33.5091H39.0434V41.3179H38.5891V40.0898C38.5891 39.9966 38.5708 39.9042 38.5351 39.8181C38.4994 39.732 38.4471 39.6537 38.3812 39.5878C38.3153 39.5218 38.237 39.4695 38.1509 39.4339C38.0648 39.3982 37.9724 39.3799 37.8792 39.3799ZM37.1693 40.7997V42.1343H33.0804V40.7997H37.1693ZM27.3871 34.8295C28.1786 34.5598 28.9879 34.3184 29.8149 34.1054V42.0278C29.814 42.1193 29.8321 42.2099 29.8681 42.294C29.3605 42.5354 28.8743 42.7909 28.3951 43.05V36.5546C28.3952 36.2035 28.3019 35.8586 28.1247 35.5555C27.9476 35.2523 27.693 35.0018 27.3871 34.8295ZM8.51825 33.7469C13.3233 32.8574 18.2238 32.5984 23.0958 32.9767C23.1348 33.1289 23.2232 33.2637 23.3472 33.3601C23.4713 33.4565 23.6238 33.5089 23.7808 33.5091H26.8475C25.2103 34.0635 23.6169 34.7398 22.0807 35.5323C17.5745 34.9846 13.0169 35.0144 8.51825 35.621V33.7469ZM26.9753 36.5545V44.6615C26.975 44.8101 26.9158 44.9526 26.8107 45.0577C26.7056 45.1628 26.5632 45.222 26.4145 45.2223H24.6966C24.5479 45.222 24.4055 45.1628 24.3004 45.0577C24.1953 44.9526 24.1361 44.8101 24.1358 44.6615V36.5545C24.1361 36.4059 24.1953 36.2634 24.3004 36.1583C24.4055 36.0532 24.5479 35.9941 24.6966 35.9937H26.4145C26.5632 35.9941 26.7056 36.0532 26.8107 36.1583C26.9158 36.2634 26.975 36.4059 26.9753 36.5545ZM8.51825 37.0479C12.3012 36.536 16.1283 36.4336 19.9332 36.7427C18.8703 37.3955 17.8474 38.1114 16.8701 38.8865C14.0923 38.6432 11.2995 38.6218 8.51827 38.8226L8.51825 37.0479ZM8.51825 40.246C10.7817 40.0806 13.0535 40.0652 15.319 40.1998C14.5061 40.9346 13.7643 41.6799 13.0899 42.4182C11.6098 42.2904 10.0871 42.223 8.51825 42.2336V40.246ZM8.51825 45.8825V43.6605C9.68246 43.6534 10.8218 43.6925 11.9364 43.767C11.301 44.5443 10.7402 45.3075 10.2504 46.0351C9.67891 45.9748 9.1039 45.9215 8.51825 45.8825ZM8.8377 51.6113C10.6431 47.4243 13.3835 43.7064 16.8488 40.7429C18.6443 39.2045 20.6134 37.8811 22.716 36.7995V44.6615C22.7163 44.9789 22.7929 45.2916 22.9393 45.5733C23.0857 45.8549 23.2976 46.0973 23.5572 46.28C21.6298 47.8442 19.8971 49.6341 18.3963 51.6113H8.8377ZM20.203 51.6113C21.7273 49.7491 23.4736 48.0803 25.4029 46.6421H26.4145C26.9368 46.6422 27.438 46.4361 27.8089 46.0684C28.1799 45.7008 28.3906 45.2015 28.3951 44.6792C29.459 44.0668 30.5576 43.5169 31.6854 43.0323C31.7265 43.1824 31.8159 43.3148 31.9397 43.409C32.0635 43.5033 32.2149 43.5543 32.3705 43.554H37.8792C37.9725 43.5544 38.065 43.5362 38.1512 43.5007C38.2375 43.4651 38.3159 43.4128 38.3819 43.3468C38.4479 43.2809 38.5002 43.2025 38.5357 43.1162C38.5713 43.0299 38.5894 42.9375 38.5891 42.8442V42.7377H39.7533C39.9414 42.7371 40.1217 42.6621 40.2547 42.5291C40.3877 42.3961 40.4626 42.2159 40.4632 42.0278V40.6009C40.9282 40.5335 41.4002 40.4696 41.883 40.4163V44.6615C41.8832 45.1867 42.0919 45.6903 42.4633 46.0617C42.8347 46.4331 43.3383 46.6418 43.8636 46.6421H45.3366C40.9647 47.4857 36.7992 49.1736 33.0733 51.6113H20.203ZM35.8028 51.6113C36.6191 51.1534 37.4604 50.7346 38.3229 50.3477C38.7098 50.7701 39.0825 51.1924 39.4268 51.6113H35.8028ZM41.2334 51.6113C40.7684 51.0008 40.2609 50.3796 39.7107 49.762C40.9033 49.2987 42.1202 48.9006 43.356 48.5694C44.1256 49.5369 44.8323 50.553 45.4714 51.6113H41.2334ZM47.1113 51.6113C46.444 50.4254 45.6993 49.2848 44.8822 48.1967C46.1032 47.9234 47.3598 47.7069 48.6517 47.5472C49.4796 48.8384 50.1957 50.1981 50.7921 51.6113H47.1113Z" fill="#2D4356"/>
<path d="M47.5625 36.6994L47.062 35.2441C47.3447 35.6813 47.5164 36.1808 47.5625 36.6994Z" fill="#2D4356"/>
<path d="M51.1119 35.6204V37.0473C49.8909 36.8911 48.709 36.7775 47.5625 36.6994C47.5164 36.1808 47.3447 35.6813 47.062 35.2441C48.386 35.3222 49.7359 35.4476 51.1119 35.6204Z" fill="#1E83E6"/>
</svg>
