<svg width="66" height="66" viewBox="0 0 66 66" fill="none" xmlns="http://www.w3.org/2000/svg">
<g clip-path="url(#clip0_846_523)">
<path d="M0.785714 59.3214C1.21965 59.3214 1.57143 58.9697 1.57143 58.5357C1.57143 58.1018 1.21965 57.75 0.785714 57.75C0.351776 57.75 0 58.1018 0 58.5357C0 58.9697 0.351776 59.3214 0.785714 59.3214Z" fill="#2D4356"/>
<path d="M4.32122 57.75H3.14265C2.93426 57.75 2.73441 57.8328 2.58706 57.9801C2.43971 58.1275 2.35693 58.3273 2.35693 58.5357C2.35693 58.7441 2.43971 58.944 2.58706 59.0913C2.73441 59.2387 2.93426 59.3214 3.14265 59.3214H4.32122C4.5296 59.3214 4.72945 59.2387 4.8768 59.0913C5.02415 58.944 5.10693 58.7441 5.10693 58.5357C5.10693 58.3273 5.02415 58.1275 4.8768 57.9801C4.72945 57.8328 4.5296 57.75 4.32122 57.75ZM62.8569 57.75H61.6784C61.47 57.75 61.2701 57.8328 61.1228 57.9801C60.9754 58.1275 60.8926 58.3273 60.8926 58.5357C60.8926 58.7441 60.9754 58.944 61.1228 59.0913C61.2701 59.2387 61.47 59.3214 61.6784 59.3214H62.8569C63.0653 59.3214 63.2652 59.2387 63.4125 59.0913C63.5599 58.944 63.6426 58.7441 63.6426 58.5357C63.6426 58.3273 63.5599 58.1275 63.4125 57.9801C63.2652 57.8328 63.0653 57.75 62.8569 57.75Z" fill="#2D4356"/>
<path d="M65.2144 59.3214C65.6484 59.3214 66.0001 58.9697 66.0001 58.5357C66.0001 58.1018 65.6484 57.75 65.2144 57.75C64.7805 57.75 64.4287 58.1018 64.4287 58.5357C64.4287 58.9697 64.7805 59.3214 65.2144 59.3214Z" fill="#2D4356"/>
<path d="M46.4174 60.8927H43.1536C42.9561 60.9085 42.7718 60.9982 42.6374 61.1438C42.503 61.2894 42.4284 61.4803 42.4284 61.6784C42.4284 61.8766 42.503 62.0675 42.6374 62.2131C42.7718 62.3587 42.9561 62.4483 43.1536 62.4641H46.4174C46.6149 62.4483 46.7992 62.3587 46.9336 62.2131C47.068 62.0675 47.1427 61.8766 47.1427 61.6784C47.1427 61.4803 47.068 61.2894 46.9336 61.1438C46.7992 60.9982 46.6149 60.9085 46.4174 60.8927ZM22.846 60.8927H19.5822C19.3847 60.9085 19.2004 60.9982 19.066 61.1438C18.9316 61.2894 18.8569 61.4803 18.8569 61.6784C18.8569 61.8766 18.9316 62.0675 19.066 62.2131C19.2004 62.3587 19.3847 62.4483 19.5822 62.4641H22.846C23.0435 62.4483 23.2278 62.3587 23.3622 62.2131C23.4966 62.0675 23.5712 61.8766 23.5712 61.6784C23.5712 61.4803 23.4966 61.2894 23.3622 61.1438C23.2278 60.9982 23.0435 60.9085 22.846 60.8927ZM40.8569 60.8927H25.1427C24.9343 60.8927 24.7344 60.9755 24.5871 61.1228C24.4397 61.2702 24.3569 61.47 24.3569 61.6784C24.3569 61.8868 24.4397 62.0867 24.5871 62.234C24.7344 62.3814 24.9343 62.4641 25.1427 62.4641H31.4048V63.2499H28.2855C28.0771 63.2499 27.8773 63.3326 27.7299 63.48C27.5826 63.6273 27.4998 63.8272 27.4998 64.0356C27.4998 64.244 27.5826 64.4438 27.7299 64.5912C27.8773 64.7385 28.0771 64.8213 28.2855 64.8213H38.1069C38.3153 64.8213 38.5152 64.7385 38.6625 64.5912C38.8099 64.4438 38.8927 64.244 38.8927 64.0356C38.8927 63.8272 38.8099 63.6273 38.6625 63.48C38.5152 63.3326 38.3153 63.2499 38.1069 63.2499H34.5948V62.4641H40.8569C41.0653 62.4641 41.2652 62.3814 41.4125 62.234C41.5599 62.0867 41.6427 61.8868 41.6427 61.6784C41.6427 61.47 41.5599 61.2702 41.4125 61.1228C41.2652 60.9755 41.0653 60.8927 40.8569 60.8927ZM29.0712 40.4641H29.8569C30.0653 40.4641 30.2652 40.3814 30.4125 40.234C30.5599 40.0867 30.6427 39.8868 30.6427 39.6784C30.6427 39.47 30.5599 39.2702 30.4125 39.1228C30.2652 38.9755 30.0653 38.8927 29.8569 38.8927H29.0712C28.8628 38.8927 28.663 38.9755 28.5156 39.1228C28.3683 39.2702 28.2855 39.47 28.2855 39.6784C28.2855 39.8868 28.3683 40.0867 28.5156 40.234C28.663 40.3814 28.8628 40.4641 29.0712 40.4641ZM32.9998 40.4641H33.7855C33.9939 40.4641 34.1938 40.3814 34.3411 40.234C34.4885 40.0867 34.5712 39.8868 34.5712 39.6784C34.5712 39.47 34.4885 39.2702 34.3411 39.1228C34.1938 38.9755 33.9939 38.8927 33.7855 38.8927H32.9998C32.7914 38.8927 32.5916 38.9755 32.4442 39.1228C32.2969 39.2702 32.2141 39.47 32.2141 39.6784C32.2141 39.8868 32.2969 40.0867 32.4442 40.234C32.5916 40.3814 32.7914 40.4641 32.9998 40.4641ZM36.9284 40.4641H37.7141C37.9225 40.4641 38.1223 40.3814 38.2697 40.234C38.417 40.0867 38.4998 39.8868 38.4998 39.6784C38.4998 39.47 38.417 39.2702 38.2697 39.1228C38.1223 38.9755 37.9225 38.8927 37.7141 38.8927H36.9284C36.72 38.8927 36.5201 38.9755 36.3728 39.1228C36.2254 39.2702 36.1427 39.47 36.1427 39.6784C36.1427 39.8868 36.2254 40.0867 36.3728 40.234C36.5201 40.3814 36.72 40.4641 36.9284 40.4641ZM40.8569 40.4641H41.6427C41.851 40.4641 42.0509 40.3814 42.1982 40.234C42.3456 40.0867 42.4284 39.8868 42.4284 39.6784C42.4284 39.47 42.3456 39.2702 42.1982 39.1228C42.0509 38.9755 41.851 38.8927 41.6427 38.8927H40.8569C40.6486 38.8927 40.4487 38.9755 40.3014 39.1228C40.154 39.2702 40.0712 39.47 40.0712 39.6784C40.0712 39.8868 40.154 40.0867 40.3014 40.234C40.4487 40.3814 40.6486 40.4641 40.8569 40.4641ZM36.5355 30.6427H38.8927C39.101 30.6427 39.3009 30.5599 39.4482 30.4126C39.5956 30.2652 39.6784 30.0654 39.6784 29.857C39.6784 29.6486 39.5956 29.4488 39.4482 29.3014C39.3009 29.1541 39.101 29.0713 38.8927 29.0713H36.5355C36.3271 29.0713 36.1273 29.1541 35.9799 29.3014C35.8326 29.4488 35.7498 29.6486 35.7498 29.857C35.7498 30.0654 35.8326 30.2652 35.9799 30.4126C36.1273 30.5599 36.3271 30.6427 36.5355 30.6427ZM36.5355 33.7856H38.8927C39.101 33.7856 39.3009 33.7028 39.4482 33.5554C39.5956 33.4081 39.6784 33.2082 39.6784 32.9999C39.6784 32.7915 39.5956 32.5916 39.4482 32.4443C39.3009 32.2969 39.101 32.2141 38.8927 32.2141H36.5355C36.3271 32.2141 36.1273 32.2969 35.9799 32.4443C35.8326 32.5916 35.7498 32.7915 35.7498 32.9999C35.7498 33.2082 35.8326 33.4081 35.9799 33.5554C36.1273 33.7028 36.3271 33.7856 36.5355 33.7856Z" fill="#1E83E6"/>
<path d="M45.5716 49.8926H20.4287V51.464H45.5716V49.8926Z" fill="#2D4356"/>
<path d="M58.076 50.9958C58.1374 50.8564 58.1571 50.7021 58.1324 50.5517C58.1078 50.4014 58.04 50.2614 57.9373 50.1489L50.2856 41.7704V44.1007L51.27 45.1787H50.2856V46.7501H52.7051L55.5753 49.893H50.2856V51.4644H57.357C57.5094 51.4644 57.6585 51.4201 57.7861 51.3369C57.9138 51.2537 58.0145 51.1352 58.076 50.9958ZM8.64271 51.4644H15.7141V49.893H10.4244L13.2946 46.7501H15.7141V45.1787H14.7297L15.7141 44.1007V41.7704L8.06244 50.1489C7.9597 50.2614 7.89188 50.4014 7.86726 50.5517C7.84264 50.7021 7.86227 50.8564 7.92376 50.9958C7.98526 51.1352 8.08596 51.2537 8.21361 51.3369C8.34125 51.4201 8.49034 51.4644 8.64271 51.4644ZM43.9999 35.7501H43.2141V27.5001C43.2142 27.2938 43.1736 27.0894 43.0946 26.8987C43.0157 26.708 42.8999 26.5348 42.754 26.3888C42.6081 26.2429 42.4348 26.1272 42.2441 26.0482C42.0535 25.9693 41.8491 25.9287 41.6427 25.9287V22.7859C41.6428 22.5795 41.6022 22.3751 41.5232 22.1844C41.4443 21.9937 41.3285 21.8205 41.1826 21.6746C41.0366 21.5286 40.8634 21.4129 40.6727 21.3339C40.482 21.255 40.2777 21.2144 40.0713 21.2144H35.357C35.3571 21.008 35.3164 20.8037 35.2375 20.613C35.1585 20.4223 35.0428 20.2491 34.8969 20.1031C34.7509 19.9572 34.5777 19.8414 34.387 19.7625C34.1963 19.6835 33.9919 19.6429 33.7856 19.643V18.0716C33.7856 17.8652 33.745 17.6608 33.6661 17.4701C33.5871 17.2795 33.4714 17.1062 33.3254 16.9603C33.1795 16.8143 33.0062 16.6986 32.8156 16.6196C32.6249 16.5407 32.4205 16.5001 32.2141 16.5001H31.0356V15.7144C31.0356 15.506 30.9528 15.3062 30.8054 15.1588C30.6581 15.0115 30.4582 14.9287 30.2499 14.9287C30.0415 14.9287 29.8416 15.0115 29.6943 15.1588C29.5469 15.3062 29.4641 15.506 29.4641 15.7144V16.5001H27.4999C27.2935 16.5001 27.0891 16.5407 26.8984 16.6196C26.7077 16.6986 26.5345 16.8143 26.3886 16.9603C26.2426 17.1062 26.1269 17.2795 26.0479 17.4701C25.969 17.6608 25.9284 17.8652 25.9284 18.0716V19.643C25.722 19.6429 25.5177 19.6835 25.327 19.7625C25.1363 19.8414 24.9631 19.9572 24.8171 20.1031C24.6712 20.2491 24.5554 20.4223 24.4765 20.613C24.3975 20.8037 24.3569 21.008 24.357 21.2144V32.2144H21.9999C21.7935 32.2144 21.5891 32.255 21.3984 32.3339C21.2077 32.4129 21.0345 32.5286 20.8886 32.6746C20.7426 32.8205 20.6269 32.9937 20.5479 33.1844C20.469 33.3751 20.4284 33.5795 20.4284 33.7859V46.7501H45.5713V37.3216C45.5713 37.1152 45.5307 36.9108 45.4518 36.7201C45.3728 36.5295 45.2571 36.3562 45.1111 36.2103C44.9652 36.0643 44.792 35.9486 44.6013 35.8696C44.4106 35.7907 44.2062 35.7501 43.9999 35.7501ZM43.9999 37.3216V42.0359H26.7141V37.3216H43.9999ZM35.357 22.7859H40.0713V25.9287H35.357V22.7859ZM41.6427 27.5001V35.7501H33.7856V27.5001H41.6427ZM27.4999 18.0716H32.2141V19.643H27.4999V18.0716ZM25.9284 21.2144H33.7856V25.9287C33.5792 25.9287 33.3748 25.9693 33.1841 26.0482C32.9935 26.1272 32.8202 26.2429 32.6743 26.3888C32.5283 26.5348 32.4126 26.708 32.3336 26.8987C32.2547 27.0894 32.2141 27.2938 32.2141 27.5001V35.7501H28.2856V33.7859C28.2856 33.5795 28.245 33.3751 28.1661 33.1844C28.0871 32.9937 27.9714 32.8205 27.8254 32.6746C27.6795 32.5286 27.5062 32.4129 27.3156 32.3339C27.1249 32.255 26.9205 32.2144 26.7141 32.2144H25.9284V21.2144ZM25.1427 42.0359H24.7499C24.5417 42.0365 24.3422 42.1194 24.1949 42.2667C24.0477 42.4139 23.9648 42.6134 23.9641 42.8216V45.1787H21.9999V33.7859H26.7141V35.7501C26.5078 35.7501 26.3034 35.7907 26.1127 35.8696C25.922 35.9486 25.7488 36.0643 25.6028 36.2103C25.4569 36.3562 25.3412 36.5295 25.2622 36.7201C25.1833 36.9108 25.1427 37.1152 25.1427 37.3216V42.0359ZM44.3927 45.1787H25.5356V43.6073H44.3927V45.1787Z" fill="#2D4356"/>
<path d="M59.2117 57.7504H48.2902C48.5676 57.2731 48.7139 56.731 48.7145 56.179V12.179C48.7134 11.3458 48.3819 10.547 47.7928 9.95788C47.2036 9.36872 46.4049 9.03724 45.5717 9.03613H20.4288C19.5956 9.03724 18.7969 9.36872 18.2077 9.95788C17.6185 10.547 17.2871 11.3458 17.2859 12.179V56.179C17.2865 56.731 17.4329 57.2731 17.7102 57.7504H6.7888C6.67698 57.7357 6.5633 57.7451 6.45537 57.7778C6.34744 57.8106 6.24775 57.866 6.16296 57.9404C6.07817 58.0148 6.01023 58.1064 5.96369 58.2091C5.91714 58.3118 5.89307 58.4233 5.89307 58.5361C5.89307 58.6489 5.91714 58.7604 5.96369 58.8631C6.01023 58.9659 6.07817 59.0575 6.16296 59.1319C6.24775 59.2063 6.34744 59.2617 6.45537 59.2944C6.5633 59.3272 6.67698 59.3365 6.7888 59.3218H59.2117C59.3235 59.3365 59.4372 59.3272 59.5451 59.2944C59.653 59.2617 59.7527 59.2063 59.8375 59.1319C59.9223 59.0575 59.9902 58.9659 60.0368 58.8631C60.0833 58.7604 60.1074 58.6489 60.1074 58.5361C60.1074 58.4233 60.0833 58.3118 60.0368 58.2091C59.9902 58.1064 59.9223 58.0148 59.8375 57.9404C59.7527 57.866 59.653 57.8106 59.5451 57.7778C59.4372 57.7451 59.3235 57.7357 59.2117 57.7504ZM45.5717 57.7504H20.4288C20.2224 57.7505 20.0181 57.7099 19.8274 57.6309C19.6367 57.552 19.4634 57.4362 19.3175 57.2903C19.1716 57.1444 19.0558 56.9711 18.9769 56.7804C18.8979 56.5897 18.8573 56.3854 18.8574 56.179H47.1431C47.1431 56.3854 47.1025 56.5897 47.0236 56.7804C46.9446 56.9711 46.8289 57.1444 46.683 57.2903C46.537 57.4362 46.3638 57.552 46.1731 57.6309C45.9824 57.7099 45.778 57.7505 45.5717 57.7504ZM47.1431 54.6076H18.8574V13.7504H47.1431V54.6076ZM18.8574 12.179C18.8573 11.9726 18.8979 11.7682 18.9769 11.5776C19.0558 11.3869 19.1716 11.2136 19.3175 11.0677C19.4634 10.9218 19.6367 10.806 19.8274 10.7271C20.0181 10.6481 20.2224 10.6075 20.4288 10.6076H45.5717C45.778 10.6075 45.9824 10.6481 46.1731 10.7271C46.3638 10.806 46.537 10.9218 46.683 11.0677C46.8289 11.2136 46.9446 11.3869 47.0236 11.5776C47.1025 11.7682 47.1431 11.9726 47.1431 12.179H18.8574Z" fill="#2D4356"/>
<path d="M28.0894 29.8576C28.0888 30.0658 28.0058 30.2653 27.8586 30.4125C27.7114 30.5597 27.5119 30.6427 27.3037 30.6433H25.9287V29.0718H27.3037C27.5119 29.0725 27.7114 29.1554 27.8586 29.3027C28.0058 29.4499 28.0888 29.6494 28.0894 29.8576ZM28.0894 26.7147C28.0888 26.9229 28.0058 27.1224 27.8586 27.2696C27.7114 27.4168 27.5119 27.4998 27.3037 27.5004H25.9287V25.929H27.3037C27.5119 25.9296 27.7114 26.0126 27.8586 26.1598C28.0058 26.307 28.0888 26.5065 28.0894 26.7147ZM28.0894 23.5718C28.0888 23.78 28.0058 23.9795 27.8586 24.1268C27.7114 24.274 27.5119 24.3569 27.3037 24.3576H25.9287V22.7861H27.3037C27.5119 22.7867 27.7114 22.8697 27.8586 23.0169C28.0058 23.1642 28.0888 23.3637 28.0894 23.5718Z" fill="#1E83E6"/>
<path d="M52.4463 28.4823C52.6794 28.4823 52.9073 28.4132 53.1011 28.2837C53.2949 28.1542 53.4459 27.9701 53.5351 27.7547C53.6243 27.5394 53.6477 27.3024 53.6022 27.0738C53.5567 26.8452 53.4445 26.6352 53.2797 26.4703C53.1148 26.3055 52.9048 26.1933 52.6762 26.1478C52.4476 26.1023 52.2106 26.1257 51.9953 26.2149C51.7799 26.3041 51.5958 26.4551 51.4663 26.6489C51.3368 26.8427 51.2677 27.0706 51.2677 27.3037C51.2681 27.6162 51.3924 27.9157 51.6133 28.1367C51.8343 28.3576 52.1338 28.4819 52.4463 28.4823ZM52.4463 26.7144C52.5628 26.7144 52.6768 26.749 52.7737 26.8137C52.8706 26.8785 52.9461 26.9705 52.9907 27.0782C53.0353 27.1859 53.047 27.3044 53.0243 27.4187C53.0015 27.533 52.9454 27.638 52.863 27.7204C52.7806 27.8028 52.6756 27.8589 52.5613 27.8817C52.4469 27.9044 52.3285 27.8927 52.2208 27.8481C52.1131 27.8035 52.0211 27.728 51.9563 27.6311C51.8916 27.5342 51.857 27.4203 51.857 27.3037C51.8572 27.1475 51.9193 26.9977 52.0298 26.8872C52.1403 26.7767 52.29 26.7146 52.4463 26.7144ZM62.9767 22.7859C62.8213 22.7859 62.6694 22.8319 62.5402 22.9183C62.411 23.0046 62.3103 23.1273 62.2508 23.2709C62.1913 23.4145 62.1758 23.5724 62.2061 23.7249C62.2364 23.8773 62.3112 24.0173 62.4211 24.1272C62.531 24.237 62.671 24.3119 62.8234 24.3422C62.9758 24.3725 63.1338 24.3569 63.2774 24.2975C63.421 24.238 63.5437 24.1373 63.63 24.0081C63.7163 23.8789 63.7624 23.727 63.7624 23.5716C63.7622 23.3633 63.6793 23.1635 63.532 23.0162C63.3847 22.8689 63.185 22.7861 62.9767 22.7859ZM62.9767 23.9644C62.899 23.9644 62.8231 23.9414 62.7585 23.8982C62.6938 23.855 62.6435 23.7937 62.6138 23.7219C62.584 23.6501 62.5762 23.5711 62.5914 23.4949C62.6066 23.4187 62.644 23.3487 62.6989 23.2938C62.7539 23.2388 62.8239 23.2014 62.9001 23.1863C62.9763 23.1711 63.0553 23.1789 63.127 23.2086C63.1988 23.2383 63.2602 23.2887 63.3034 23.3533C63.3465 23.4179 63.3696 23.4939 63.3696 23.5716C63.3695 23.6757 63.328 23.7756 63.2544 23.8492C63.1807 23.9229 63.0809 23.9643 62.9767 23.9644ZM5.107 1.96443C4.9516 1.96443 4.79969 2.01051 4.67048 2.09684C4.54127 2.18318 4.44057 2.30589 4.3811 2.44946C4.32163 2.59303 4.30607 2.75101 4.33639 2.90342C4.3667 3.05584 4.44154 3.19584 4.55142 3.30572C4.6613 3.41561 4.8013 3.49044 4.95372 3.52076C5.10613 3.55107 5.26411 3.53551 5.40768 3.47604C5.55125 3.41658 5.67397 3.31587 5.7603 3.18666C5.84664 3.05745 5.89272 2.90554 5.89272 2.75014C5.89248 2.54183 5.80962 2.34212 5.66232 2.19482C5.51503 2.04752 5.31532 1.96466 5.107 1.96443ZM5.107 3.143C5.0293 3.143 4.95335 3.11996 4.88874 3.07679C4.82414 3.03362 4.77379 2.97226 4.74405 2.90048C4.71432 2.82869 4.70654 2.7497 4.7217 2.6735C4.73685 2.59729 4.77427 2.52729 4.82921 2.47235C4.88415 2.41741 4.95415 2.37999 5.03036 2.36483C5.10657 2.34967 5.18556 2.35745 5.25734 2.38719C5.32913 2.41692 5.39048 2.46727 5.43365 2.53188C5.47682 2.59648 5.49986 2.67244 5.49986 2.75014C5.49976 2.8543 5.45833 2.95416 5.38468 3.02782C5.31103 3.10147 5.21116 3.14289 5.107 3.143ZM51.2677 1.17871C51.1123 1.17871 50.9604 1.22479 50.8312 1.31113C50.702 1.39746 50.6013 1.52017 50.5418 1.66375C50.4823 1.80732 50.4668 1.9653 50.4971 2.11771C50.5274 2.27012 50.6022 2.41013 50.7121 2.52001C50.822 2.62989 50.962 2.70473 51.1144 2.73504C51.2668 2.76536 51.4248 2.7498 51.5684 2.69033C51.712 2.63086 51.8347 2.53015 51.921 2.40094C52.0073 2.27173 52.0534 2.11982 52.0534 1.96443C52.0532 1.75611 51.9703 1.5564 51.823 1.4091C51.6757 1.26181 51.476 1.17895 51.2677 1.17871ZM51.2677 2.35728C51.19 2.35728 51.1141 2.33424 51.0495 2.29107C50.9849 2.24791 50.9345 2.18655 50.9048 2.11477C50.875 2.04298 50.8672 1.96399 50.8824 1.88778C50.8976 1.81158 50.935 1.74158 50.9899 1.68663C51.0449 1.63169 51.1149 1.59428 51.1911 1.57912C51.2673 1.56396 51.3463 1.57174 51.4181 1.60147C51.4898 1.63121 51.5512 1.68156 51.5944 1.74617C51.6375 1.81077 51.6606 1.88673 51.6606 1.96443C51.6605 2.06859 51.619 2.16845 51.5454 2.2421C51.4717 2.31575 51.3719 2.35718 51.2677 2.35728ZM13.8279 15.7144C13.8279 15.559 13.7818 15.4071 13.6955 15.2779C13.6091 15.1487 13.4864 15.048 13.3429 14.9885C13.1993 14.9291 13.0413 14.9135 12.8889 14.9438C12.7365 14.9741 12.5965 15.049 12.4866 15.1588C12.3767 15.2687 12.3019 15.4087 12.2716 15.5611C12.2413 15.7136 12.2568 15.8715 12.3163 16.0151C12.3757 16.1587 12.4765 16.2814 12.6057 16.3677C12.7349 16.4541 12.8868 16.5001 13.0422 16.5001C13.2505 16.4999 13.4502 16.417 13.5975 16.2697C13.7448 16.1224 13.8277 15.9227 13.8279 15.7144ZM12.6493 15.7144C12.6493 15.6367 12.6724 15.5608 12.7155 15.4962C12.7587 15.4316 12.8201 15.3812 12.8918 15.3515C12.9636 15.3217 13.0426 15.314 13.1188 15.3291C13.195 15.3443 13.265 15.3817 13.32 15.4366C13.3749 15.4916 13.4123 15.5616 13.4275 15.6378C13.4427 15.714 13.4349 15.793 13.4051 15.8648C13.3754 15.9366 13.325 15.9979 13.2604 16.0411C13.1958 16.0842 13.1199 16.1073 13.0422 16.1073C12.938 16.1072 12.8382 16.0658 12.7645 15.9921C12.6909 15.9184 12.6494 15.8186 12.6493 15.7144Z" fill="#2D4356"/>
<path d="M4.27734 26.7182L4.86152 25.9502L4.49263 25.7412L4.11745 26.6016H4.10527L3.7242 25.7471L3.34902 25.9624L3.92691 26.7124V26.7245L3.02295 26.6079V27.0259L3.93281 26.9092V26.9214L3.34902 27.6709L3.69906 27.8925L4.09898 27.0259H4.11116L4.48006 27.8862L4.86741 27.665L4.27734 26.9272V26.9151L5.20527 27.0259V26.6079L4.27734 26.7304V26.7182Z" fill="#1E83E6"/>
<path d="M12.3097 32.2744L11.9734 32.7061L12.175 32.8338L12.4052 32.3345H12.4123L12.6248 32.8303L12.8475 32.7026L12.5077 32.2779V32.2708L13.0424 32.3345V32.0941L12.5077 32.1648V32.1577L12.8444 31.7153L12.6319 31.5947L12.4158 32.0901H12.4087L12.1895 31.5983L11.9734 31.722L12.3062 32.1542V32.1612L11.7856 32.0941V32.3345L12.3097 32.2673V32.2744Z" fill="#1E83E6"/>
<path d="M62.8683 9.24036V8.83061L61.9581 8.95122V8.93904L62.5308 8.18554L62.169 7.98047L61.8013 8.82433H61.7891L61.4155 7.98636L61.0474 8.19772L61.6143 8.93315V8.94533L60.728 8.83061V9.24036L61.6202 9.12604V9.13822L61.0474 9.87365L61.3912 10.0909L61.7832 9.24036H61.795L62.1569 10.0846L62.5367 9.86775L61.9581 9.14411V9.13193L62.8683 9.24036Z" fill="#1E83E6"/>
<path d="M26.8521 3.05939L27.3463 2.40921L27.0344 2.23242L26.7174 2.96039H26.7068L26.3842 2.23753L26.0668 2.41981L26.5559 3.05428V3.06449L25.791 2.96589V3.31946L26.561 3.22085V3.23106L26.0668 3.86553L26.363 4.05292L26.7017 3.31946H26.7119L27.0238 4.04742L27.3514 3.86042L26.8521 3.23617V3.22596L27.6374 3.31946V2.96589L26.8521 3.0696V3.05939Z" fill="#1E83E6"/>
</g>
<defs>
<clipPath id="clip0_846_523">
<rect width="66" height="66" fill="white"/>
</clipPath>
</defs>
</svg>
