<svg width="58" height="58" viewBox="0 0 58 58" fill="none" xmlns="http://www.w3.org/2000/svg">
<g clip-path="url(#clip0_774_236)">
<path d="M46.2618 42.4639H42.1189C41.9358 42.4639 41.7602 42.5366 41.6307 42.6661C41.5012 42.7956 41.4285 42.9712 41.4285 43.1543C41.4285 43.3375 41.5012 43.5131 41.6307 43.6426C41.7602 43.7721 41.9358 43.8448 42.1189 43.8448H46.2618C46.4449 43.8448 46.6205 43.7721 46.75 43.6426C46.8795 43.5131 46.9523 43.3375 46.9523 43.1543C46.9523 42.9712 46.8795 42.7956 46.75 42.6661C46.6205 42.5366 46.4449 42.4639 46.2618 42.4639Z" fill="#1E83E6"/>
<path d="M46.2618 45.2266H42.1189C41.9358 45.2266 41.7602 45.2993 41.6307 45.4288C41.5012 45.5583 41.4285 45.7339 41.4285 45.917C41.4285 46.1002 41.5012 46.2758 41.6307 46.4053C41.7602 46.5348 41.9358 46.6075 42.1189 46.6075H46.2618C46.4449 46.6075 46.6205 46.5348 46.75 46.4053C46.8795 46.2758 46.9523 46.1002 46.9523 45.917C46.9523 45.7339 46.8795 45.5583 46.75 45.4288C46.6205 45.2993 46.4449 45.2266 46.2618 45.2266Z" fill="#2D4356"/>
<path d="M44.1905 33.4884C44.5718 33.4884 44.881 33.1792 44.881 32.7979C44.881 32.4166 44.5718 32.1074 44.1905 32.1074C43.8091 32.1074 43.5 32.4166 43.5 32.7979C43.5 33.1792 43.8091 33.4884 44.1905 33.4884Z" fill="#2D4356"/>
<path d="M4.58491 20.3077C4.58515 20.1038 4.66871 19.9082 4.81728 19.764C4.96584 19.6198 5.16726 19.5387 5.37736 19.5385H42.6226C42.8327 19.5387 43.0342 19.6198 43.1827 19.764C43.3313 19.9082 43.4149 20.1038 43.4151 20.3077V27.6154H45V20.3077C44.9993 19.6959 44.7486 19.1093 44.3029 18.6766C43.8572 18.244 43.2529 18.0007 42.6226 18H5.37736C4.74705 18.0007 4.14276 18.244 3.69707 18.6766C3.25138 19.1093 3.00069 19.6959 3 20.3077V42.6154C3.00069 43.2272 3.25138 43.8138 3.69707 44.2464C4.14276 44.6791 4.74705 44.9224 5.37736 44.9231H18.8491V46.4615H14.4906C14.2804 46.4615 14.0788 46.5426 13.9302 46.6868C13.7816 46.8311 13.6981 47.0268 13.6981 47.2308C13.6981 47.4348 13.7816 47.6304 13.9302 47.7747C14.0788 47.919 14.2804 48 14.4906 48H33.5094C33.7196 48 33.9212 47.919 34.0698 47.7747C34.2184 47.6304 34.3019 47.4348 34.3019 47.2308C34.3019 47.0268 34.2184 46.8311 34.0698 46.6868C33.9212 46.5426 33.7196 46.4615 33.5094 46.4615H29.1509V44.9231H36.283V43.3846H5.37736C5.16726 43.3844 4.96584 43.3033 4.81728 43.1591C4.66871 43.0148 4.58515 42.8193 4.58491 42.6154V41.8462H36.283V40.3077H4.58491V20.3077ZM20.434 44.9231H27.566V46.4615H20.434V44.9231Z" fill="#2D4356"/>
<path d="M0.690476 49.714C1.07182 49.714 1.38095 49.4048 1.38095 49.0235C1.38095 48.6421 1.07182 48.333 0.690476 48.333C0.309137 48.333 0 48.6421 0 49.0235C0 49.4048 0.309137 49.714 0.690476 49.714Z" fill="#2D4356"/>
<path d="M3.79772 48.333H2.76201C2.57888 48.333 2.40326 48.4058 2.27377 48.5352C2.14428 48.6647 2.07153 48.8404 2.07153 49.0235C2.07153 49.2066 2.14428 49.3822 2.27377 49.5117C2.40326 49.6412 2.57888 49.714 2.76201 49.714H3.79772C3.98085 49.714 4.15647 49.6412 4.28596 49.5117C4.41545 49.3822 4.4882 49.2066 4.4882 49.0235C4.4882 48.8404 4.41545 48.6647 4.28596 48.5352C4.15647 48.4058 3.98085 48.333 3.79772 48.333ZM55.2382 48.333H54.2025C54.0194 48.333 53.8437 48.4058 53.7142 48.5352C53.5848 48.6647 53.512 48.8404 53.512 49.0235C53.512 49.2066 53.5848 49.3822 53.7142 49.5117C53.8437 49.6412 54.0194 49.714 54.2025 49.714H55.2382C55.4213 49.714 55.597 49.6412 55.7264 49.5117C55.8559 49.3822 55.9287 49.2066 55.9287 49.0235C55.9287 48.8404 55.8559 48.6647 55.7264 48.5352C55.597 48.4058 55.4213 48.333 55.2382 48.333Z" fill="#2D4356"/>
<path d="M57.3096 49.714C57.691 49.714 58.0001 49.4048 58.0001 49.0235C58.0001 48.6421 57.691 48.333 57.3096 48.333C56.9283 48.333 56.6191 48.6421 56.6191 49.0235C56.6191 49.4048 56.9283 49.714 57.3096 49.714Z" fill="#2D4356"/>
<path d="M40.7913 51.0957H37.9232C37.7496 51.1096 37.5876 51.1884 37.4695 51.3163C37.3514 51.4443 37.2858 51.612 37.2858 51.7862C37.2858 51.9603 37.3514 52.1281 37.4695 52.256C37.5876 52.384 37.7496 52.4627 37.9232 52.4767H40.7913C40.9649 52.4627 41.1269 52.384 41.245 52.256C41.3631 52.1281 41.4287 51.9603 41.4287 51.7862C41.4287 51.612 41.3631 51.4443 41.245 51.3163C41.1269 51.1884 40.9649 51.1096 40.7913 51.0957ZM20.077 51.0957H17.2089C17.0353 51.1096 16.8733 51.1884 16.7552 51.3163C16.6371 51.4443 16.5715 51.612 16.5715 51.7862C16.5715 51.9603 16.6371 52.1281 16.7552 52.256C16.8733 52.384 17.0353 52.4627 17.2089 52.4767H20.077C20.2506 52.4627 20.4126 52.384 20.5307 52.256C20.6488 52.1281 20.7144 51.9603 20.7144 51.7862C20.7144 51.612 20.6488 51.4443 20.5307 51.3163C20.4126 51.1884 20.2506 51.1096 20.077 51.0957ZM35.9049 51.0957H22.0954C21.9122 51.0957 21.7366 51.1684 21.6071 51.2979C21.4776 51.4274 21.4049 51.6031 21.4049 51.7862C21.4049 51.9693 21.4776 52.1449 21.6071 52.2744C21.7366 52.4039 21.9122 52.4767 22.0954 52.4767H27.5985V53.1671H24.8573C24.6741 53.1671 24.4985 53.2399 24.369 53.3694C24.2395 53.4989 24.1668 53.6745 24.1668 53.8576C24.1668 54.0407 24.2395 54.2164 24.369 54.3458C24.4985 54.4753 24.6741 54.5481 24.8573 54.5481H33.4882C33.6713 54.5481 33.847 54.4753 33.9765 54.3458C34.1059 54.2164 34.1787 54.0407 34.1787 53.8576C34.1787 53.6745 34.1059 53.4989 33.9765 53.3694C33.847 53.2399 33.6713 53.1671 33.4882 53.1671H30.4018V52.4767H35.9049C36.088 52.4767 36.2636 52.4039 36.3931 52.2744C36.5226 52.1449 36.5954 51.9693 36.5954 51.7862C36.5954 51.6031 36.5226 51.4274 36.3931 51.2979C36.2636 51.1684 36.088 51.0957 35.9049 51.0957Z" fill="#1E83E6"/>
<path d="M52.2623 48.5313H51.1455C51.2292 48.2966 51.2722 48.0493 51.2727 47.8V31.3469C51.2721 30.7653 51.042 30.2077 50.633 29.7964C50.224 29.3851 49.6694 29.1538 49.0909 29.1531H38.9091C38.3306 29.1538 37.776 29.3851 37.367 29.7964C36.958 30.2077 36.7279 30.7653 36.7273 31.3469V47.8C36.7278 48.0493 36.7708 48.2966 36.8545 48.5313H3.73771C3.63424 48.5177 3.52908 48.5265 3.42926 48.557C3.32943 48.5875 3.23723 48.6391 3.15881 48.7083C3.08039 48.7775 3.01757 48.8628 2.97453 48.9583C2.93149 49.0539 2.90923 49.1576 2.90923 49.2625C2.90923 49.3675 2.93149 49.4712 2.97453 49.5667C3.01757 49.6623 3.08039 49.7475 3.15881 49.8168C3.23723 49.886 3.32943 49.9376 3.42926 49.9681C3.52908 49.9986 3.63424 50.0074 3.73771 49.9938H52.2623C52.3658 50.0074 52.4709 49.9986 52.5707 49.9681C52.6706 49.9376 52.7628 49.886 52.8412 49.8168C52.9196 49.7475 52.9824 49.6623 53.0255 49.5667C53.0685 49.4712 53.0908 49.3675 53.0908 49.2625C53.0908 49.1576 53.0685 49.0539 53.0255 48.9583C52.9824 48.8628 52.9196 48.7775 52.8412 48.7083C52.7628 48.6391 52.6706 48.5875 52.5707 48.557C52.4709 48.5265 52.3658 48.5177 52.2623 48.5313ZM38.9091 48.5313C38.7163 48.5311 38.5314 48.4539 38.3951 48.3169C38.2587 48.1798 38.182 47.9939 38.1818 47.8V31.3469C38.182 31.153 38.2587 30.9672 38.3951 30.8301C38.5314 30.693 38.7163 30.6159 38.9091 30.6156H49.0909C49.2837 30.6159 49.4686 30.693 49.6049 30.8301C49.7413 30.9672 49.818 31.153 49.8182 31.3469V47.8C49.818 47.9939 49.7413 48.1798 49.6049 48.3169C49.4686 48.4539 49.2837 48.5311 49.0909 48.5313H38.9091ZM41.4545 3.19375C41.6703 3.19375 41.8812 3.12942 42.0606 3.0089C42.24 2.88837 42.3798 2.71706 42.4624 2.51663C42.545 2.3162 42.5666 2.09566 42.5245 1.88289C42.4824 1.67011 42.3785 1.47467 42.2259 1.32127C42.0734 1.16787 41.879 1.0634 41.6674 1.02108C41.4558 0.978753 41.2364 1.00048 41.0371 1.0835C40.8377 1.16652 40.6674 1.3071 40.5475 1.48748C40.4276 1.66787 40.3636 1.87993 40.3636 2.09688C40.364 2.38768 40.479 2.66648 40.6835 2.87212C40.888 3.07775 41.1653 3.19342 41.4545 3.19375ZM41.4545 1.54844C41.5624 1.54844 41.6679 1.5806 41.7576 1.64087C41.8473 1.70113 41.9172 1.78678 41.9585 1.887C41.9998 1.98721 42.0106 2.09748 41.9895 2.20387C41.9685 2.31026 41.9165 2.40798 41.8402 2.48468C41.764 2.56138 41.6668 2.61361 41.561 2.63478C41.4552 2.65594 41.3455 2.64508 41.2458 2.60357C41.1461 2.56206 41.061 2.49176 41.001 2.40157C40.9411 2.31138 40.9091 2.20535 40.9091 2.09688C40.9092 1.95147 40.9668 1.81205 41.069 1.70923C41.1713 1.60641 41.3099 1.54858 41.4545 1.54844ZM12.3634 9.22886C12.2195 9.22886 12.0789 9.27175 11.9593 9.3521C11.8397 9.43245 11.7465 9.54666 11.6915 9.68027C11.6364 9.81389 11.622 9.96092 11.6501 10.1028C11.6782 10.2446 11.7474 10.3749 11.8491 10.4772C11.9508 10.5795 12.0804 10.6491 12.2215 10.6773C12.3626 10.7055 12.5088 10.691 12.6417 10.6357C12.7746 10.5804 12.8882 10.4866 12.9681 10.3664C13.048 10.2461 13.0907 10.1047 13.0907 9.96011C13.0904 9.76624 13.0137 9.58037 12.8774 9.44328C12.7411 9.3062 12.5562 9.22908 12.3634 9.22886ZM12.3634 10.3257C12.2915 10.3257 12.2212 10.3043 12.1614 10.2641C12.1016 10.2239 12.055 10.1668 12.0274 10.1C11.9999 10.0332 11.9927 9.95971 12.0067 9.88878C12.0208 9.81786 12.0554 9.75271 12.1063 9.70158C12.1571 9.65044 12.2219 9.61562 12.2924 9.60151C12.363 9.58741 12.4361 9.59464 12.5025 9.62232C12.569 9.64999 12.6258 9.69685 12.6657 9.75698C12.7057 9.81711 12.727 9.8878 12.727 9.96011C12.7269 10.0571 12.6886 10.15 12.6204 10.2185C12.5522 10.2871 12.4598 10.3256 12.3634 10.3257ZM15.2727 2.09688C15.1289 2.09688 14.9883 2.13976 14.8687 2.22011C14.7491 2.30047 14.6559 2.41467 14.6008 2.54829C14.5458 2.68191 14.5314 2.82894 14.5594 2.97079C14.5875 3.11264 14.6568 3.24293 14.7585 3.3452C14.8602 3.44747 14.9898 3.51711 15.1308 3.54533C15.2719 3.57354 15.4182 3.55906 15.551 3.50371C15.6839 3.44837 15.7975 3.35464 15.8774 3.23439C15.9573 3.11413 16 2.97275 16 2.82813C15.9998 2.63426 15.9231 2.44839 15.7867 2.3113C15.6504 2.17421 15.4655 2.0971 15.2727 2.09688ZM15.2727 3.19375C15.2008 3.19375 15.1305 3.17231 15.0707 3.13213C15.0109 3.09196 14.9643 3.03485 14.9368 2.96805C14.9092 2.90124 14.902 2.82772 14.9161 2.7568C14.9301 2.68587 14.9647 2.62072 15.0156 2.56959C15.0665 2.51846 15.1312 2.48363 15.2018 2.46953C15.2723 2.45542 15.3454 2.46266 15.4119 2.49033C15.4783 2.51801 15.5351 2.56487 15.5751 2.625C15.615 2.68512 15.6364 2.75581 15.6364 2.82813C15.6363 2.92507 15.5979 3.01801 15.5298 3.08656C15.4616 3.1551 15.3691 3.19366 15.2727 3.19375ZM55.2727 14.8938C55.1289 14.8938 54.9883 14.9366 54.8687 15.017C54.7491 15.0973 54.6559 15.2116 54.6008 15.3452C54.5458 15.4788 54.5314 15.6258 54.5594 15.7677C54.5875 15.9095 54.6568 16.0398 54.7585 16.1421C54.8602 16.2444 54.9898 16.314 55.1308 16.3422C55.2719 16.3704 55.4182 16.3559 55.551 16.3006C55.6839 16.2453 55.7975 16.1515 55.8774 16.0313C55.9573 15.911 56 15.7696 56 15.625C55.9998 15.4311 55.9231 15.2453 55.7867 15.1082C55.6504 14.9711 55.4655 14.894 55.2727 14.8938ZM55.2727 15.9906C55.2008 15.9906 55.1305 15.9692 55.0707 15.929C55.0109 15.8888 54.9643 15.8317 54.9368 15.7649C54.9093 15.6981 54.902 15.6246 54.9161 15.5537C54.9301 15.4828 54.9647 15.4176 55.0156 15.3665C55.0665 15.3153 55.1313 15.2805 55.2018 15.2664C55.2723 15.2523 55.3454 15.2595 55.4119 15.2872C55.4783 15.3149 55.5351 15.3618 55.5751 15.4219C55.615 15.482 55.6364 15.5527 55.6364 15.625C55.6363 15.722 55.5979 15.8149 55.5298 15.8834C55.4616 15.952 55.3691 15.9905 55.2727 15.9906ZM1.45455 5.02188C1.45455 4.87725 1.41189 4.73587 1.33198 4.61562C1.25206 4.49536 1.13848 4.40164 1.00559 4.34629C0.872697 4.29094 0.726466 4.27646 0.585389 4.30468C0.444312 4.33289 0.314725 4.40254 0.213014 4.50481C0.111303 4.60707 0.0420366 4.73737 0.0139747 4.87922C-0.0140873 5.02107 0.000315115 5.1681 0.0553607 5.30172C0.110406 5.43533 0.203623 5.54954 0.323222 5.62989C0.442822 5.71024 0.583432 5.75313 0.727273 5.75313C0.92009 5.75291 1.10495 5.67579 1.24129 5.53871C1.37763 5.40162 1.45433 5.21575 1.45455 5.02188ZM0.363637 5.02188C0.363637 4.94956 0.384964 4.87887 0.424921 4.81875C0.464877 4.75862 0.52167 4.71176 0.588115 4.68408C0.654561 4.65641 0.727677 4.64917 0.798215 4.66328C0.868754 4.67739 0.933547 4.71221 0.984403 4.76334C1.03526 4.81448 1.06989 4.87962 1.08392 4.95055C1.09795 5.02147 1.09075 5.09499 1.06323 5.1618C1.03571 5.22861 0.989099 5.28571 0.929299 5.32589C0.869499 5.36606 0.799194 5.3875 0.727273 5.3875C0.63086 5.38741 0.538424 5.34886 0.47025 5.28031C0.402075 5.21176 0.363733 5.11882 0.363637 5.02188Z" fill="#2D4356"/>
<path d="M29.5466 9.3254L30.06 8.65046L29.7358 8.4668L29.4064 9.22287H29.3954L29.0605 8.47198L28.7308 8.66117L29.2386 9.32022V9.33093L28.4446 9.22839V9.59572L29.2442 9.49319V9.50389L28.7308 10.1626L29.0387 10.3573L29.3902 9.59572H29.4005L29.7247 10.3518L30.0651 10.1574L29.5466 9.50907V9.49837L30.362 9.59572V9.22839L29.5466 9.33611V9.3254Z" fill="#1E83E6"/>
<path d="M3.75645 12.2848L3.46058 12.6642L3.63803 12.776L3.84034 12.3376H3.84655L4.03298 12.7729L4.22908 12.6611L3.93045 12.2875V12.2813L4.39997 12.3376V12.126L3.93045 12.1881V12.1819L4.22597 11.7931L4.03954 11.6875L3.84966 12.1228H3.84345L3.6508 11.6903L3.46058 11.7994L3.75334 12.1788V12.185L3.2959 12.126V12.3376L3.75645 12.2785V12.2848Z" fill="#1E83E6"/>
<path d="M45.5715 13.0203V12.6602L44.7716 12.7662V12.7555L45.2753 12.0933L44.9573 11.9131L44.6342 12.6547H44.6232L44.2948 11.9183L43.9714 12.104L44.4695 12.7503V12.761L43.6907 12.6602V13.0203L44.4747 12.9198V12.9305L43.9714 13.5768L44.2734 13.7677L44.618 13.0203H44.6283L44.9463 13.7622L45.2802 13.5716L44.7716 12.9357V12.925L45.5715 13.0203Z" fill="#1E83E6"/>
<path d="M54.3553 4.34489L54.7897 3.77352L54.5155 3.61816L54.2366 4.25789H54.2273L53.9442 3.62265L53.6652 3.78284L54.095 4.3404V4.34938L53.4229 4.26272V4.57344L54.0995 4.48644V4.49576L53.6652 5.05332L53.9255 5.218L54.2231 4.57344H54.2317L54.5062 5.21316L54.7941 5.04883L54.3553 4.50025V4.49093L55.0455 4.57344V4.26272L54.3553 4.35387V4.34489Z" fill="#1E83E6"/>
</g>
<defs>
<clipPath id="clip0_774_236">
<rect width="58" height="58" fill="white"/>
</clipPath>
</defs>
</svg>
