<svg width="59" height="59" viewBox="0 0 59 59" fill="none" xmlns="http://www.w3.org/2000/svg">
<path d="M35.8214 26.6904C34.2933 26.6904 32.7995 27.1436 31.529 27.9925C30.2584 28.8415 29.2681 30.0482 28.6833 31.4599C28.0986 32.8717 27.9456 34.4252 28.2437 35.9239C28.5418 37.4227 29.2776 38.7993 30.3582 39.8799C31.4387 40.9604 32.8154 41.6962 34.3141 41.9944C35.8128 42.2925 37.3663 42.1395 38.7781 41.5547C40.1899 40.9699 41.3965 39.9796 42.2455 38.7091C43.0945 37.4385 43.5476 35.9447 43.5476 34.4166C43.5477 33.402 43.3479 32.3973 42.9596 31.4599C42.5714 30.5224 42.0023 29.6707 41.2848 28.9532C40.5673 28.2358 39.7156 27.6667 38.7782 27.2784C37.8408 26.8902 36.836 26.6904 35.8214 26.6904ZM35.8214 40.738C34.5711 40.738 33.349 40.3673 32.3094 39.6727C31.2699 38.9781 30.4596 37.9908 29.9812 36.8357C29.5027 35.6806 29.3775 34.4096 29.6214 33.1834C29.8654 31.9571 30.4674 30.8308 31.3515 29.9467C32.2356 29.0626 33.3619 28.4606 34.5882 28.2167C35.8144 27.9727 37.0854 28.0979 38.2405 28.5764C39.3956 29.0548 40.3829 29.8651 41.0775 30.9046C41.7721 31.9442 42.1428 33.1664 42.1428 34.4166C42.1409 36.0926 41.4743 37.6993 40.2892 38.8844C39.1041 40.0695 37.4974 40.7361 35.8214 40.738Z" fill="#1E83E6"/>
<path d="M3.82374 23.8851L4.34596 23.1986L4.0162 23.0117L3.68081 23.7808H3.66992L3.32927 23.017L2.99388 23.2094L3.51048 23.8799V23.8907L2.70239 23.7864V24.1601L3.51575 24.0558V24.0667L2.99388 24.7368L3.30679 24.9348L3.6643 24.1601H3.67519L4.00496 24.9292L4.35123 24.7315L3.82374 24.072V24.0611L4.65326 24.1601V23.7864L3.82374 23.896V23.8851Z" fill="#1E83E6"/>
<path d="M14.6046 5.53806L14.9052 5.14262L14.7152 5.03516L14.5224 5.47801H14.5161L14.3198 5.03797L14.1266 5.14894L14.4241 5.5349V5.54122L13.9587 5.48117V5.69645L14.4272 5.63639V5.64272L14.1266 6.02867L14.3071 6.14246L14.5129 5.69645H14.5189L14.7089 6.1393L14.9084 6.02551L14.6046 5.64553V5.6392L15.0822 5.69645V5.48117L14.6046 5.54438V5.53806Z" fill="#1E83E6"/>
<path d="M54.4303 25.2671L54.9423 24.5935L54.6188 24.4102L54.2901 25.1645H54.2792L53.9453 24.4154L53.6162 24.6044L54.123 25.2618V25.2727L53.3303 25.1701V25.5364L54.1282 25.4342V25.4451L53.6162 26.1025L53.9235 26.2968L54.274 25.5364H54.2845L54.608 26.2911L54.9476 26.0973L54.4303 25.4504V25.4395L55.244 25.5364V25.1701L54.4303 25.2779V25.2671Z" fill="#1E83E6"/>
<path d="M57.7022 12.1907V11.8244L56.8885 11.9322V11.9214L57.4005 11.2478L57.0771 11.0645L56.7484 11.8188H56.7375L56.4035 11.0697L56.0744 11.2587L56.5812 11.9161V11.927L55.7886 11.8244V12.1907L56.5865 12.0885V12.0994L56.0744 12.7568L56.3817 12.951L56.7322 12.1907H56.7428L57.0662 12.9454L57.4058 12.7516L56.8885 12.1047V12.0938L57.7022 12.1907Z" fill="#1E83E6"/>
<path d="M43.108 2.66406L43.5498 2.08284L43.2706 1.9248L42.9872 2.57556H42.9777L42.6897 1.92937L42.4056 2.09232L42.8428 2.6595V2.66863L42.1594 2.58048V2.89655L42.8474 2.80805V2.81753L42.4056 3.3847L42.6708 3.55222L42.9731 2.89655H42.9823L43.2615 3.5473L43.5544 3.38014L43.108 2.8221V2.81261L43.8097 2.89655V2.58048L43.108 2.67319V2.66406Z" fill="#1E83E6"/>
<path d="M39.9187 49.0151C40.0364 48.9743 40.1523 48.9362 40.2706 48.8944C40.4073 48.8458 40.5257 48.7562 40.6094 48.6376C40.6931 48.5191 40.7381 48.3776 40.7381 48.2325V47.8288C40.4678 47.9307 40.1955 48.027 39.9187 48.1117V49.0151ZM23.8809 18.2623C33.1909 18.2623 40.7381 15.7467 40.7381 12.6432C40.7381 9.53945 33.1909 7.02418 23.8809 7.02418C14.571 7.02418 7.02379 9.53945 7.02379 12.6432C7.02379 15.7467 14.5709 18.2623 23.8809 18.2623ZM23.8809 8.42894C33.8792 8.42894 39.3333 11.2127 39.3333 12.6432C39.3333 14.0737 33.8792 16.8575 23.8809 16.8575C13.8827 16.8575 8.42855 14.0737 8.42855 12.6432C8.42855 11.2128 13.8826 8.42894 23.8809 8.42894ZM40.7381 21.423V20.2751C40.7433 20.1194 40.6867 19.9679 40.5805 19.854C40.4742 19.74 40.3272 19.6728 40.1715 19.667C40.1256 19.6676 40.0799 19.6741 40.0357 19.6866C40.0626 19.8351 40.0765 19.9856 40.0772 20.1366V21.1781C40.3005 21.2515 40.52 21.3348 40.7381 21.423ZM7.37086 25.9014C7.71521 26.1099 13.3143 29.3985 22.9234 29.5004C23.1034 29.0588 23.3058 28.6267 23.5297 28.2057L23.3778 28.0545C15.0988 28.028 9.78666 25.5852 8.44055 24.8872L8.43266 20.3667C8.43185 20.1805 8.35722 20.0023 8.22515 19.8712C8.09309 19.74 7.91438 19.6666 7.72825 19.667H7.72687C7.63457 19.6669 7.54316 19.685 7.45786 19.7203C7.37256 19.7556 7.29505 19.8073 7.22975 19.8725C7.16445 19.9377 7.11265 20.0152 7.07731 20.1005C7.04197 20.1857 7.02378 20.2771 7.02379 20.3694L7.0327 25.3039C7.03301 25.4242 7.06429 25.5423 7.12352 25.6469C7.18274 25.7516 7.26793 25.8392 7.37086 25.9014ZM7.37669 37.1374C7.73129 37.3483 13.5507 40.7093 23.5297 40.7385C23.3003 40.2655 23.0985 39.7796 22.9251 39.2833C14.9225 39.1241 9.79387 36.8006 8.4649 36.1236L8.45667 31.6044C8.4542 31.4168 8.37738 31.2377 8.24306 31.1066C8.10874 30.9755 7.9279 30.9031 7.74021 30.9051H7.73884C7.64579 30.9043 7.55348 30.9217 7.46718 30.9565C7.38088 30.9914 7.30228 31.0428 7.23588 31.108C7.16947 31.1732 7.11657 31.2508 7.08017 31.3365C7.04378 31.4221 7.02462 31.5141 7.02379 31.6072L7.0327 36.54C7.03335 36.6608 7.0654 36.7794 7.1257 36.8842C7.18601 36.9889 7.2725 37.0762 7.37669 37.1374ZM54.5415 3.51228C54.3331 3.51228 54.1294 3.57407 53.9562 3.68984C53.7829 3.8056 53.6479 3.97015 53.5681 4.16266C53.4884 4.35518 53.4675 4.56702 53.5082 4.77139C53.5488 4.97576 53.6492 5.16349 53.7965 5.31084C53.9439 5.45818 54.1316 5.55852 54.336 5.59918C54.5403 5.63983 54.7522 5.61896 54.9447 5.53922C55.1372 5.45948 55.3018 5.32444 55.4175 5.15118C55.5333 4.97792 55.5951 4.77423 55.5951 4.56585C55.5948 4.28652 55.4837 4.01873 55.2861 3.82121C55.0886 3.6237 54.8208 3.5126 54.5415 3.51228ZM54.5415 5.09263C54.4373 5.09263 54.3355 5.06174 54.2488 5.00386C54.1622 4.94597 54.0947 4.8637 54.0548 4.76744C54.0149 4.67118 54.0045 4.56526 54.0248 4.46308C54.0452 4.36089 54.0953 4.26703 54.169 4.19336C54.2427 4.11968 54.3365 4.06951 54.4387 4.04919C54.5409 4.02886 54.6468 4.03929 54.7431 4.07916C54.8394 4.11903 54.9216 4.18655 54.9795 4.27318C55.0374 4.35981 55.0683 4.46166 55.0683 4.56585C55.0682 4.70552 55.0126 4.83943 54.9138 4.93819C54.8151 5.03695 54.6812 5.0925 54.5415 5.09263ZM23.9879 2.45871C24.1963 2.45871 24.4 2.39691 24.5733 2.28115C24.7465 2.16538 24.8816 2.00083 24.9613 1.80832C25.041 1.6158 25.0619 1.40397 25.0213 1.19959C24.9806 0.99522 24.8803 0.807492 24.7329 0.660147C24.5856 0.512802 24.3978 0.412459 24.1935 0.371807C23.9891 0.331155 23.7773 0.352019 23.5847 0.431761C23.3922 0.511504 23.2277 0.646543 23.1119 0.819802C22.9962 0.993061 22.9344 1.19676 22.9344 1.40513C22.9347 1.68446 23.0458 1.95226 23.2433 2.14977C23.4408 2.34728 23.7086 2.45839 23.9879 2.45871ZM23.9879 0.878349C24.0921 0.878349 24.194 0.909244 24.2806 0.967128C24.3672 1.02501 24.4347 1.10728 24.4746 1.20354C24.5145 1.2998 24.5249 1.40572 24.5046 1.50791C24.4843 1.61009 24.4341 1.70396 24.3604 1.77763C24.2868 1.8513 24.1929 1.90147 24.0907 1.9218C23.9885 1.94212 23.8826 1.93169 23.7863 1.89182C23.6901 1.85195 23.6078 1.78443 23.5499 1.6978C23.492 1.61117 23.4611 1.50932 23.4611 1.40513C23.4613 1.26546 23.5168 1.13155 23.6156 1.03279C23.7144 0.934031 23.8483 0.878486 23.9879 0.878349ZM48.5713 15.4528C48.7102 15.4528 48.846 15.4116 48.9615 15.3344C49.077 15.2572 49.167 15.1475 49.2202 15.0192C49.2733 14.8908 49.2873 14.7496 49.2602 14.6133C49.2331 14.4771 49.1662 14.3519 49.0679 14.2537C48.9697 14.1555 48.8445 14.0886 48.7083 14.0615C48.572 14.0344 48.4308 14.0483 48.3025 14.1015C48.1741 14.1546 48.0644 14.2446 47.9873 14.3602C47.9101 14.4757 47.8689 14.6115 47.8689 14.7504C47.8691 14.9366 47.9432 15.1151 48.0748 15.2468C48.2065 15.3785 48.385 15.4525 48.5713 15.4528ZM48.5713 14.3992C48.6407 14.3992 48.7086 14.4198 48.7664 14.4584C48.8241 14.497 48.8691 14.5518 48.8957 14.616C48.9223 14.6802 48.9293 14.7508 48.9157 14.8189C48.9022 14.887 48.8687 14.9496 48.8196 14.9987C48.7705 15.0478 48.7079 15.0813 48.6398 15.0948C48.5717 15.1084 48.501 15.1014 48.4369 15.0748C48.3727 15.0482 48.3179 15.0032 48.2793 14.9455C48.2407 14.8877 48.2201 14.8198 48.2201 14.7504C48.2202 14.6573 48.2572 14.568 48.323 14.5021C48.3889 14.4363 48.4782 14.3993 48.5713 14.3992ZM34.5236 6.3218C34.6626 6.3218 34.7984 6.28061 34.9139 6.20343C35.0294 6.12625 35.1194 6.01655 35.1726 5.88821C35.2257 5.75987 35.2396 5.61864 35.2125 5.48239C35.1854 5.34614 35.1185 5.22099 35.0203 5.12276C34.9221 5.02453 34.7969 4.95764 34.6607 4.93054C34.5244 4.90343 34.3832 4.91734 34.2549 4.9705C34.1265 5.02367 34.0168 5.11369 33.9396 5.2292C33.8625 5.3447 33.8213 5.4805 33.8213 5.61942C33.8215 5.80564 33.8955 5.98417 34.0272 6.11584C34.1589 6.24752 34.3374 6.32159 34.5236 6.3218ZM34.5236 5.26823C34.5931 5.26823 34.661 5.28883 34.7188 5.32742C34.7765 5.36601 34.8215 5.42085 34.8481 5.48503C34.8747 5.5492 34.8816 5.61981 34.8681 5.68793C34.8545 5.75606 34.8211 5.81863 34.772 5.86775C34.7229 5.91686 34.6603 5.95031 34.5922 5.96386C34.524 5.97741 34.4534 5.97046 34.3893 5.94388C34.3251 5.9173 34.2702 5.87228 34.2316 5.81453C34.1931 5.75678 34.1725 5.68888 34.1725 5.61942C34.1726 5.52631 34.2096 5.43703 34.2754 5.37119C34.3413 5.30535 34.4305 5.26832 34.5236 5.26823ZM3.61889 7.02418C3.47997 7.02418 3.34417 7.06538 3.22866 7.14256C3.11316 7.21973 3.02313 7.32943 2.96997 7.45777C2.91681 7.58612 2.9029 7.72734 2.93 7.86359C2.9571 7.99984 3.024 8.12499 3.12223 8.22322C3.22046 8.32145 3.34561 8.38835 3.48186 8.41545C3.61811 8.44255 3.75933 8.42864 3.88767 8.37548C4.01602 8.32232 4.12572 8.23229 4.20289 8.11679C4.28007 8.00128 4.32127 7.86548 4.32127 7.72656C4.32105 7.54035 4.24698 7.36182 4.11531 7.23014C3.98363 7.09846 3.8051 7.0244 3.61889 7.02418ZM3.61889 8.07775C3.54943 8.07775 3.48153 8.05716 3.42377 8.01857C3.36602 7.97998 3.32101 7.92513 3.29443 7.86096C3.26785 7.79679 3.26089 7.72617 3.27444 7.65805C3.28799 7.58993 3.32144 7.52735 3.37056 7.47823C3.41967 7.42912 3.48225 7.39567 3.55037 7.38212C3.6185 7.36857 3.68911 7.37553 3.75328 7.40211C3.81745 7.42869 3.8723 7.4737 3.91089 7.53145C3.94948 7.58921 3.97008 7.6571 3.97008 7.72656C3.96998 7.81968 3.93295 7.90895 3.86711 7.97479C3.80127 8.04063 3.712 8.07766 3.61889 8.07775Z" fill="#2D4356"/>
<path d="M0.702381 51.9761C1.0903 51.9761 1.40476 51.6616 1.40476 51.2737C1.40476 50.8858 1.0903 50.5713 0.702381 50.5713C0.314467 50.5713 0 50.8858 0 51.2737C0 51.6616 0.314467 51.9761 0.702381 51.9761Z" fill="#2D4356"/>
<path d="M3.86313 50.5713H2.80956C2.62328 50.5713 2.44462 50.6453 2.3129 50.777C2.18118 50.9087 2.10718 51.0874 2.10718 51.2737C2.10718 51.46 2.18118 51.6386 2.3129 51.7703C2.44462 51.9021 2.62328 51.9761 2.80956 51.9761H3.86313C4.04941 51.9761 4.22807 51.9021 4.35979 51.7703C4.49151 51.6386 4.56551 51.46 4.56551 51.2737C4.56551 51.0874 4.49151 50.9087 4.35979 50.777C4.22807 50.6453 4.04941 50.5713 3.86313 50.5713ZM56.1905 50.5713H55.1369C54.9507 50.5713 54.772 50.6453 54.6403 50.777C54.5086 50.9087 54.4346 51.0874 54.4346 51.2737C54.4346 51.46 54.5086 51.6386 54.6403 51.7703C54.772 51.9021 54.9507 51.9761 55.1369 51.9761H56.1905C56.3768 51.9761 56.5555 51.9021 56.6872 51.7703C56.8189 51.6386 56.8929 51.46 56.8929 51.2737C56.8929 51.0874 56.8189 50.9087 56.6872 50.777C56.5555 50.6453 56.3768 50.5713 56.1905 50.5713Z" fill="#2D4356"/>
<path d="M58.2976 51.9761C58.6855 51.9761 59 51.6616 59 51.2737C59 50.8858 58.6855 50.5713 58.2976 50.5713C57.9097 50.5713 57.5952 50.8858 57.5952 51.2737C57.5952 51.6616 57.9097 51.9761 58.2976 51.9761Z" fill="#2D4356"/>
<path d="M52.932 50.5719H36.7183C37.1677 50.5967 37.6087 50.4429 37.9451 50.1439C38.2815 49.8449 38.486 49.425 38.5141 48.9758V46.6892C39.964 46.3723 41.3458 45.7994 42.5946 44.9975L44.2127 46.6162C44.3536 46.755 44.5206 46.8644 44.7041 46.9381C44.8876 47.0117 45.084 47.0482 45.2817 47.0453C45.7825 47.038 46.2601 46.833 46.6103 46.4749L47.8793 45.2056C48.2146 44.9057 48.4177 44.4852 48.4442 44.0361C48.4706 43.587 48.3184 43.1456 48.0206 42.8083L46.4018 41.1902C47.2038 39.9414 47.7766 38.5596 48.0936 37.1097H50.3801C50.8293 37.0817 51.2492 36.8771 51.5482 36.5407C51.8472 36.2043 52.0011 35.7634 51.9763 35.314V33.5203C52.0011 33.0709 51.8472 32.6299 51.5482 32.2935C51.2492 31.9572 50.8293 31.7526 50.3801 31.7246H48.0936C47.7766 30.2747 47.2037 28.8929 46.4018 27.644L48.0205 26.0259C48.3183 25.6886 48.4706 25.2472 48.4442 24.798C48.4177 24.3488 48.2146 23.9283 47.8793 23.6283L46.6103 22.3594C46.26 22.0014 45.7825 21.7964 45.2817 21.789C45.084 21.7861 44.8876 21.8225 44.7041 21.8962C44.5206 21.9699 44.3536 22.0793 44.2127 22.2181L42.5946 23.8368C41.3458 23.0349 39.964 22.462 38.5141 22.145V19.8585C38.486 19.4093 38.2815 18.9894 37.9451 18.6904C37.6087 18.3914 37.1677 18.2376 36.7183 18.2624H34.925C34.4756 18.2375 34.0345 18.3913 33.6981 18.6903C33.3616 18.9893 33.157 19.4092 33.1289 19.8585V22.145C31.679 22.462 30.2972 23.0349 29.0484 23.8368L27.4303 22.2181C27.2895 22.0793 27.1225 21.9699 26.9391 21.8963C26.7556 21.8226 26.5593 21.7862 26.3617 21.789C25.861 21.7963 25.3835 22.0013 25.0334 22.3594L23.7641 23.6283C23.4286 23.9282 23.2254 24.3487 23.1989 24.798C23.1725 25.2472 23.3248 25.6887 23.6228 26.0259L25.2412 27.644C24.4394 28.8929 23.8666 30.2747 23.5497 31.7246H21.2625C20.8134 31.7527 20.3936 31.9573 20.0947 32.2937C19.7957 32.63 19.6419 33.071 19.6667 33.5203V35.314C19.6419 35.7633 19.7957 36.2042 20.0947 36.5406C20.3936 36.877 20.8134 37.0816 21.2625 37.1097H23.5497C23.8666 38.5596 24.4394 39.9414 25.2412 41.1902L23.6228 42.8083C23.3248 43.1455 23.1725 43.5869 23.1989 44.0361C23.2254 44.4853 23.4286 44.9057 23.7641 45.2056L25.0334 46.4749C25.3835 46.833 25.861 47.038 26.3617 47.0452C26.5593 47.0481 26.7556 47.0117 26.9391 46.938C27.1225 46.8643 27.2895 46.755 27.4303 46.6162L29.0484 44.9975C30.2973 45.7994 31.679 46.3722 33.1289 46.6892V48.9758C33.157 49.425 33.3616 49.8449 33.6981 50.1439C34.0345 50.443 34.4756 50.5968 34.925 50.5719H31.9978C31.8653 50.3116 31.7739 50.0323 31.7269 49.744C18.6872 52.1732 10.1874 48.273 8.43449 47.3611L8.42658 42.8426C8.42617 42.6569 8.35208 42.479 8.22059 42.3479C8.08909 42.2168 7.91093 42.1432 7.72524 42.1433H7.72387C7.63181 42.1435 7.54067 42.1617 7.45567 42.1971C7.37067 42.2324 7.29346 42.2842 7.22846 42.3494C7.16346 42.4145 7.11194 42.4919 7.07684 42.577C7.04174 42.6621 7.02375 42.7533 7.02389 42.8454L7.03246 47.7775C7.03268 47.8976 7.06381 48.0157 7.12285 48.1203C7.1819 48.2249 7.26687 48.3126 7.3696 48.3749C9.08849 49.3306 10.9196 50.0686 12.8208 50.5719H6.06819C5.96827 50.5588 5.86671 50.5673 5.7703 50.5966C5.67389 50.6259 5.58484 50.6755 5.50911 50.7419C5.43338 50.8084 5.3727 50.8903 5.33114 50.9821C5.28957 51.0739 5.26807 51.1735 5.26807 51.2743C5.26807 51.3751 5.28957 51.4747 5.33114 51.5665C5.3727 51.6583 5.43338 51.7401 5.50911 51.8066C5.58484 51.8731 5.67389 51.9227 5.7703 51.952C5.86671 51.9813 5.96827 51.9897 6.06819 51.9767H52.932C53.0319 51.9897 53.1334 51.9813 53.2299 51.952C53.3263 51.9227 53.4153 51.8731 53.4911 51.8066C53.5668 51.7401 53.6275 51.6583 53.669 51.5665C53.7106 51.4747 53.7321 51.3751 53.7321 51.2743C53.7321 51.1735 53.7106 51.0739 53.669 50.9821C53.6275 50.8903 53.5668 50.8084 53.4911 50.7419C53.4153 50.6755 53.3263 50.6259 53.2299 50.5966C53.1334 50.5673 53.0319 50.5588 52.932 50.5719ZM34.5337 48.9758V45.5578L33.4283 45.3167C32.1413 45.0358 30.9148 44.5272 29.8067 43.8149L28.8546 43.2045L26.4367 45.623C26.3376 45.7218 26.09 45.5451 26.0266 45.4817L24.7576 44.2124C24.6894 44.1442 24.5148 43.903 24.616 43.8019L27.0342 41.384L26.4237 40.432C25.7115 39.3238 25.203 38.0973 24.9222 36.8103L24.6808 35.7049H21.2625C21.2149 35.7049 21.0715 35.5664 21.0715 35.314V33.5203C21.0715 33.2679 21.2149 33.1293 21.2625 33.1293H24.6808L24.9222 32.0239C25.203 30.7369 25.7115 29.5104 26.4237 28.4023L27.0342 27.4503C27.0342 27.4503 24.6236 25.0399 24.6156 25.0321C24.5169 24.9329 24.6935 24.6856 24.7573 24.6219L26.0266 23.3529C26.0948 23.2847 26.3356 23.1101 26.4367 23.2113L28.8546 25.6298L29.8067 25.0193C30.9148 24.3071 32.1413 23.7985 33.4283 23.5175L34.5337 23.2764V19.8585C34.5337 19.8108 34.6726 19.6671 34.925 19.6671H36.7184C36.9708 19.6671 37.1093 19.8108 37.1093 19.8585V23.2764L38.2147 23.5175C39.5017 23.7985 40.7282 24.3071 41.8364 25.0193L42.7884 25.6298C42.7884 25.6298 45.1922 23.2253 45.2063 23.2113C45.3054 23.1125 45.554 23.2895 45.6171 23.3526L46.8854 24.6208C47.0637 24.7998 47.061 24.9988 47.0274 25.0324L44.6088 27.4503L45.2193 28.4023C45.9316 29.5104 46.4402 30.7369 46.7211 32.0239L46.9622 33.1293H50.3801C50.4278 33.1293 50.5715 33.2679 50.5715 33.5203V35.314C50.5715 35.5664 50.4278 35.7049 50.3801 35.7049H46.9622L46.7211 36.8103C46.4402 38.0973 45.9316 39.3238 45.2193 40.432L44.6088 41.384L47.0274 43.8019C47.061 43.8355 47.0637 44.0344 46.8857 44.2124L45.6178 45.481C45.552 45.5469 45.3057 45.7252 45.2063 45.623L42.7884 43.2044L41.8364 43.8149C40.7282 44.5272 39.5017 45.0358 38.2147 45.3167L37.1093 45.5578V48.9758C37.1093 49.0234 36.9708 49.1671 36.7184 49.1671H34.925C34.6726 49.1671 34.5337 49.0234 34.5337 48.9758Z" fill="#2D4356"/>
<path d="M41.4946 53.7324H38.577C38.4004 53.7466 38.2356 53.8267 38.1155 53.9569C37.9953 54.087 37.9286 54.2577 37.9286 54.4348C37.9286 54.6119 37.9953 54.7826 38.1155 54.9127C38.2356 55.0429 38.4004 55.123 38.577 55.1372H41.4946C41.6711 55.123 41.8359 55.0429 41.956 54.9127C42.0762 54.7826 42.1429 54.6119 42.1429 54.4348C42.1429 54.2577 42.0762 54.087 41.956 53.9569C41.8359 53.8267 41.6711 53.7466 41.4946 53.7324ZM20.4231 53.7324H17.5055C17.329 53.7466 17.1642 53.8267 17.044 53.9569C16.9239 54.087 16.8572 54.2577 16.8572 54.4348C16.8572 54.6119 16.9239 54.7826 17.044 54.9127C17.1642 55.0429 17.329 55.123 17.5055 55.1372H20.4231C20.5997 55.123 20.7645 55.0429 20.8846 54.9127C21.0048 54.7826 21.0715 54.6119 21.0715 54.4348C21.0715 54.2577 21.0048 54.087 20.8846 53.9569C20.7645 53.8267 20.5997 53.7466 20.4231 53.7324ZM36.5239 53.7324H22.4762C22.29 53.7324 22.1113 53.8064 21.9796 53.9381C21.8479 54.0699 21.7739 54.2485 21.7739 54.4348C21.7739 54.6211 21.8479 54.7997 21.9796 54.9315C22.1113 55.0632 22.29 55.1372 22.4762 55.1372H28.0742V55.8396H25.2858C25.0995 55.8396 24.9208 55.9136 24.7891 56.0453C24.6574 56.177 24.5834 56.3557 24.5834 56.5419C24.5834 56.7282 24.6574 56.9069 24.7891 57.0386C24.9208 57.1703 25.0995 57.2443 25.2858 57.2443H34.0655C34.2518 57.2443 34.4305 57.1703 34.5622 57.0386C34.6939 56.9069 34.7679 56.7282 34.7679 56.5419C34.7679 56.3557 34.6939 56.177 34.5622 56.0453C34.4305 55.9136 34.2518 55.8396 34.0655 55.8396H30.9259V55.1372H36.5239C36.7101 55.1372 36.8888 55.0632 37.0205 54.9315C37.1522 54.7997 37.2262 54.6211 37.2262 54.4348C37.2262 54.2485 37.1522 54.0699 37.0205 53.9381C36.8888 53.8064 36.7101 53.7324 36.5239 53.7324Z" fill="#1E83E6"/>
</svg>
