<svg width="75" height="65" viewBox="0 0 75 65" fill="none" xmlns="http://www.w3.org/2000/svg">
<path d="M53.9784 60.0723H49.9998C49.759 60.0916 49.5344 60.2008 49.3705 60.3783C49.2067 60.5558 49.1157 60.7885 49.1157 61.0301C49.1157 61.2716 49.2067 61.5043 49.3705 61.6818C49.5344 61.8593 49.759 61.9686 49.9998 61.9879H53.9784C54.2192 61.9686 54.4438 61.8593 54.6077 61.6818C54.7715 61.5043 54.8625 61.2716 54.8625 61.0301C54.8625 60.7885 54.7715 60.5558 54.6077 60.3783C54.4438 60.2008 54.2192 60.0916 53.9784 60.0723ZM25.2445 60.0723H21.266C21.0252 60.0916 20.8005 60.2008 20.6367 60.3783C20.4728 60.5558 20.3818 60.7885 20.3818 61.0301C20.3818 61.2716 20.4728 61.5043 20.6367 61.6818C20.8005 61.8593 21.0252 61.9686 21.266 61.9879H25.2445C25.4853 61.9686 25.71 61.8593 25.8738 61.6818C26.0377 61.5043 26.1286 61.2716 26.1286 61.0301C26.1286 60.7885 26.0377 60.5558 25.8738 60.3783C25.71 60.2008 25.4853 60.0916 25.2445 60.0723ZM47.2001 60.0723H28.0442C27.7902 60.0723 27.5466 60.1732 27.3669 60.3528C27.1873 60.5324 27.0864 60.776 27.0864 61.0301C27.0864 61.2841 27.1873 61.5277 27.3669 61.7073C27.5466 61.8869 27.7902 61.9879 28.0442 61.9879H35.6778V62.9457H31.8754C31.6214 62.9457 31.3778 63.0466 31.1981 63.2262C31.0185 63.4058 30.9176 63.6494 30.9176 63.9034C30.9176 64.1575 31.0185 64.4011 31.1981 64.5807C31.3778 64.7603 31.6214 64.8612 31.8754 64.8612H43.8478C44.1019 64.8612 44.3455 64.7603 44.5251 64.5807C44.7047 64.4011 44.8056 64.1575 44.8056 63.9034C44.8056 63.6494 44.7047 63.4058 44.5251 63.2262C44.3455 63.0466 44.1019 62.9457 43.8478 62.9457H39.5665V61.9879H47.2001C47.4541 61.9879 47.6978 61.8869 47.8774 61.7073C48.057 61.5277 48.1579 61.2841 48.1579 61.0301C48.1579 60.776 48.057 60.5324 47.8774 60.3528C47.6978 60.1732 47.4541 60.0723 47.2001 60.0723Z" fill="#1E83E6"/>
<path d="M42.6898 7.1961C42.8059 7.24435 42.9305 7.26922 43.0563 7.26929C43.1821 7.26937 43.3066 7.24465 43.4229 7.19654C43.5391 7.14844 43.6447 7.0779 43.7337 6.98895C43.8226 6.9 43.8931 6.79439 43.9413 6.67816L45.493 2.93513C45.5412 2.81893 45.566 2.69438 45.566 2.56859C45.5661 2.4428 45.5414 2.31823 45.4933 2.20199C45.4452 2.08576 45.3746 1.98014 45.2857 1.89116C45.1968 1.80218 45.0912 1.73158 44.975 1.6834C44.8588 1.63522 44.7343 1.6104 44.6085 1.61035C44.4827 1.61031 44.3581 1.63504 44.2419 1.68313C44.1257 1.73123 44.0201 1.80175 43.9311 1.89066C43.8421 1.97958 43.7715 2.08515 43.7233 2.20135L42.1716 5.94437C42.0744 6.17908 42.0743 6.4428 42.1715 6.67753C42.2687 6.91226 42.4551 7.09879 42.6898 7.1961Z" fill="#1E83E6"/>
<path d="M50.3326 11.8987C50.4587 11.8989 50.5835 11.8741 50.6999 11.8257C50.8163 11.7774 50.9219 11.7065 51.0108 11.6171L53.8818 8.7379C53.9711 8.64896 54.042 8.54326 54.0904 8.42687C54.1388 8.31047 54.1637 8.18567 54.1638 8.05962C54.1638 7.93357 54.139 7.80875 54.0907 7.69232C54.0424 7.57589 53.9716 7.47014 53.8823 7.38113C53.7931 7.29213 53.6871 7.22161 53.5706 7.17364C53.454 7.12566 53.3291 7.10117 53.2031 7.10157C53.077 7.10196 52.9523 7.12724 52.836 7.17594C52.7198 7.22464 52.6143 7.29582 52.5256 7.38538L49.6545 10.2646C49.5209 10.3987 49.4299 10.5693 49.3932 10.755C49.3565 10.9407 49.3756 11.1332 49.4482 11.308C49.5207 11.4828 49.6435 11.6323 49.8009 11.7374C49.9583 11.8425 50.1433 11.8986 50.3326 11.8987Z" fill="#2D4356"/>
<path d="M55.2897 18.9169C55.4173 18.9168 55.5435 18.8912 55.661 18.8416L59.4216 17.2574C59.6553 17.1585 59.8402 16.9709 59.9358 16.7358C60.0313 16.5007 60.0296 16.2373 59.9311 16.0034C59.8326 15.7696 59.6453 15.5843 59.4104 15.4884C59.1754 15.3925 58.912 15.3938 58.678 15.4919L54.9174 17.0762C54.7137 17.1621 54.5459 17.3158 54.4426 17.5114C54.3393 17.7069 54.3068 17.9321 54.3507 18.1488C54.3945 18.3656 54.5119 18.5605 54.6831 18.7005C54.8543 18.8405 55.0686 18.9169 55.2897 18.9169ZM25.3123 6.67815C25.4096 6.91283 25.5961 7.09924 25.8309 7.19637C26.0656 7.2935 26.3293 7.29341 26.564 7.1961C26.7987 7.0988 26.9851 6.91225 27.0822 6.67751C27.1794 6.44276 27.1793 6.17905 27.082 5.94437L25.5302 2.20135C25.4329 1.96667 25.2464 1.78027 25.0116 1.68313C24.7769 1.586 24.5132 1.58609 24.2785 1.6834C24.0438 1.78071 23.8574 1.96725 23.7603 2.20199C23.6631 2.43674 23.6632 2.70046 23.7605 2.93513L25.3123 6.67815Z" fill="#1E83E6"/>
<path d="M18.243 11.6182C18.3317 11.7078 18.4372 11.779 18.5534 11.8277C18.6697 11.8764 18.7944 11.9016 18.9205 11.902C19.0465 11.9024 19.1714 11.8779 19.288 11.83C19.4045 11.782 19.5105 11.7115 19.5997 11.6225C19.689 11.5335 19.7598 11.4277 19.8081 11.3113C19.8564 11.1949 19.8812 11.07 19.8812 10.944C19.8811 10.8179 19.8562 10.6931 19.8078 10.5767C19.7594 10.4603 19.6885 10.3547 19.5992 10.2657L16.7282 7.38648C16.5486 7.20767 16.3055 7.10733 16.0521 7.10742C15.7986 7.10752 15.5556 7.20805 15.3762 7.38699C15.1967 7.56594 15.0955 7.80871 15.0947 8.06212C15.0939 8.31553 15.1936 8.55893 15.3719 8.73899L18.243 11.6182Z" fill="#2D4356"/>
<path d="M9.8317 17.2589L13.5923 18.8432C13.8264 18.9418 14.0901 18.9434 14.3253 18.8475C14.5606 18.7517 14.7482 18.5664 14.8468 18.3323C14.9454 18.0981 14.947 17.8344 14.8512 17.5992C14.7553 17.3639 14.57 17.1763 14.3359 17.0777L10.5753 15.4935C10.3413 15.3953 10.0779 15.3941 9.84292 15.49C9.60797 15.5859 9.42068 15.7711 9.32217 16.005C9.22367 16.2389 9.222 16.5023 9.31753 16.7374C9.41307 16.9725 9.598 17.1601 9.83172 17.2589L9.8317 17.2589Z" fill="#1E83E6"/>
<path d="M1.52912 32.0436L2.24124 31.1073L1.79156 30.8525L1.33421 31.9013H1.31936L0.854832 30.8597L0.397485 31.1222L1.10194 32.0364V32.0512L0 31.909V32.4185L1.10913 32.2763V32.2911L0.397485 33.2049L0.824183 33.475L1.3117 32.4185H1.32655L1.77623 33.4673L2.24843 33.1977L1.52912 32.2983V32.2835L2.66028 32.4185V31.909L1.52912 32.0584V32.0436Z" fill="#1E83E6"/>
<path d="M27.2326 0.828493L26.8227 1.3548L27.0688 1.50996L27.3495 0.901764H27.3576L27.6167 1.50565L27.8887 1.35049L27.4744 0.832324V0.823704L28.1257 0.901764V0.6082L27.4744 0.694402V0.685782L27.8844 0.146543L27.6258 0L27.3624 0.60389H27.3538L27.0861 0.00383113L26.8227 0.155163L27.2283 0.681472V0.690092L26.5938 0.6082V0.901764L27.2326 0.819873V0.828493Z" fill="#1E83E6"/>
<path d="M75.0001 13.7038V13.2043L73.8905 13.3513V13.3365L74.5888 12.418L74.1477 12.168L73.6995 13.1966H73.6846L73.2292 12.1752L72.7804 12.4328L73.4715 13.3293V13.3441L72.3906 13.2043V13.7038L73.4787 13.5644V13.5793L72.7804 14.4758L73.1995 14.7406L73.6774 13.7038H73.6918L74.1329 14.7329L74.5959 14.4686L73.8905 13.5865V13.5716L75.0001 13.7038Z" fill="#1E83E6"/>
<path d="M58.9302 13.1634L59.5327 12.3708L59.152 12.1553L58.7655 13.0427H58.7526L58.3599 12.1615L57.9724 12.3837L58.5687 13.1571V13.1696L57.6367 13.0494V13.4804L58.5749 13.3597V13.3726L57.9724 14.1461L58.334 14.3745L58.7463 13.4804H58.7588L59.1395 14.3678L59.5389 14.1398L58.9302 13.3789V13.3659L59.8871 13.4804V13.0494L58.9302 13.1758V13.1634Z" fill="#1E83E6"/>
<path d="M7.17722 57.4365C7.58629 57.4365 7.91791 57.1049 7.91791 56.6958C7.91791 56.2867 7.58629 55.9551 7.17722 55.9551C6.76814 55.9551 6.43652 56.2867 6.43652 56.6958C6.43652 57.1049 6.76814 57.4365 7.17722 57.4365Z" fill="#2D4356"/>
<path d="M10.5099 55.9551H9.3989C9.20245 55.9551 9.01406 56.0331 8.87515 56.172C8.73624 56.3109 8.6582 56.4993 8.6582 56.6958C8.6582 56.8922 8.73624 57.0806 8.87515 57.2195C9.01406 57.3584 9.20245 57.4365 9.3989 57.4365H10.5099C10.7064 57.4365 10.8948 57.3584 11.0337 57.2195C11.1726 57.0806 11.2506 56.8922 11.2506 56.6958C11.2506 56.4993 11.1726 56.3109 11.0337 56.172C10.8948 56.0331 10.7064 55.9551 10.5099 55.9551ZM65.6917 55.9551H64.5807C64.3843 55.9551 64.1959 56.0331 64.0569 56.172C63.918 56.3109 63.84 56.4993 63.84 56.6958C63.84 56.8922 63.918 57.0806 64.0569 57.2195C64.1959 57.3584 64.3843 57.4365 64.5807 57.4365H65.6917C65.8882 57.4365 66.0766 57.3584 66.2155 57.2195C66.3544 57.0806 66.4324 56.8922 66.4324 56.6958C66.4324 56.4993 66.3544 56.3109 66.2155 56.172C66.0766 56.0331 65.8882 55.9551 65.6917 55.9551Z" fill="#2D4356"/>
<path d="M67.9145 57.4365C68.3236 57.4365 68.6552 57.1049 68.6552 56.6958C68.6552 56.2867 68.3236 55.9551 67.9145 55.9551C67.5054 55.9551 67.1738 56.2867 67.1738 56.6958C67.1738 57.1049 67.5054 57.4365 67.9145 57.4365Z" fill="#2D4356"/>
<path d="M62.2561 55.9545H47.6503C47.9095 55.785 48.1304 55.563 48.2987 55.3029C48.467 55.0429 48.579 54.7504 48.6275 54.4445C50.7336 53.7438 52.6347 52.5352 54.1627 50.9254C55.6908 49.3156 56.7988 47.3541 57.3888 45.2144H58.1445C58.9488 45.2327 59.7275 44.9309 60.3095 44.3754C60.8915 43.8198 61.2292 43.056 61.2483 42.2517V36.3261C61.2292 35.5218 60.8915 34.7579 60.3095 34.2024C59.7275 33.6468 58.9488 33.345 58.1445 33.3633H57.8421C57.0067 22.8087 48.2273 14.4756 37.546 14.4756C26.8648 14.4756 18.0853 22.8087 17.25 33.3633H16.9476C16.1433 33.345 15.3645 33.6468 14.7826 34.2024C14.2006 34.7579 13.8629 35.5218 13.8438 36.3261V42.2517C13.8629 43.056 14.2006 43.8198 14.7826 44.3754C15.3645 44.9309 16.1433 45.2327 16.9476 45.2144H21.9914V33.3633H18.7337C19.5644 23.626 27.6815 15.957 37.546 15.957C47.4104 15.957 55.5277 23.626 56.3584 33.3633H53.1006V45.2144H55.861C55.3179 47.0134 54.3528 48.6566 53.0461 50.0072C51.7394 51.3577 50.1289 52.3765 48.3488 52.9786C48.1796 52.6903 47.9475 52.4439 47.6699 52.2578C47.3922 52.0717 47.0761 51.9506 46.7452 51.9037C46.4142 51.8567 46.0769 51.8851 45.7585 51.9866C45.44 52.0882 45.1486 52.2603 44.9059 52.4902C44.6632 52.7201 44.4755 53.0018 44.3569 53.3143C44.2382 53.6268 44.1916 53.9621 44.2206 54.2951C44.2496 54.6281 44.3533 54.9503 44.5241 55.2376C44.695 55.5249 44.9284 55.77 45.2072 55.9545H12.836C12.7306 55.9408 12.6235 55.9496 12.5218 55.9805C12.4201 56.0115 12.3262 56.0637 12.2464 56.1338C12.1665 56.2039 12.1025 56.2903 12.0587 56.3871C12.0149 56.4839 11.9922 56.5889 11.9922 56.6952C11.9922 56.8015 12.0149 56.9065 12.0587 57.0033C12.1025 57.1001 12.1665 57.1865 12.2464 57.2566C12.3262 57.3267 12.4201 57.379 12.5218 57.4099C12.6235 57.4408 12.7306 57.4497 12.836 57.4359H62.2561C62.3615 57.4497 62.4686 57.4408 62.5703 57.4099C62.6719 57.379 62.7658 57.3267 62.8457 57.2566C62.9256 57.1865 62.9896 57.1001 63.0334 57.0033C63.0772 56.9065 63.0999 56.8015 63.0999 56.6952C63.0999 56.5889 63.0772 56.4839 63.0334 56.3871C62.9896 56.2903 62.9256 56.2039 62.8457 56.1338C62.7658 56.0637 62.6719 56.0115 62.5703 55.9805C62.4686 55.9496 62.3615 55.9408 62.2561 55.9545ZM20.51 34.8447V43.733H16.9476C16.5364 43.7504 16.135 43.6043 15.831 43.3268C15.5271 43.0493 15.3452 42.6628 15.3252 42.2517V36.3261C15.3452 35.915 15.5271 35.5285 15.831 35.2509C16.135 34.9734 16.5364 34.8274 16.9476 34.8447H20.51ZM54.582 34.8447H58.1445C58.5557 34.8273 58.9571 34.9734 59.2611 35.2509C59.5651 35.5285 59.7469 35.915 59.7669 36.3261V42.2517C59.7469 42.6628 59.5651 43.0493 59.2611 43.3268C58.9571 43.6044 58.5557 43.7504 58.1445 43.733H54.582V34.8447Z" fill="#2D4356"/>
<path d="M25.2032 32.9179C24.7155 32.9766 24.2674 33.2156 23.9472 33.588C23.6269 33.9605 23.4576 34.4393 23.4726 34.9302V37.7219C23.4582 38.2144 23.629 38.6944 23.9512 39.0671C24.2735 39.4398 24.7237 39.6781 25.2131 39.735L26.8216 39.9693C26.9908 40.4702 27.1963 40.9581 27.4365 41.429C27.2236 41.7187 27.0112 42.0102 26.7992 42.3035L26.494 42.7216C26.1763 43.1137 26.0222 43.6133 26.0638 44.1162C26.1053 44.6191 26.3394 45.0865 26.7171 45.4211C27.205 45.9011 27.6939 46.3803 28.1839 46.8588L28.6765 47.3409C29.023 47.7043 29.4946 47.9227 29.9959 47.9517C30.4973 47.9807 30.9909 47.8182 31.377 47.4971L32.6432 46.5354C33.0514 46.7335 33.4719 46.9049 33.9022 47.0486C33.9546 47.4233 34.0096 47.7969 34.0646 48.1698L34.1367 48.6573C34.1943 49.145 34.4316 49.5937 34.8023 49.9158C35.173 50.2379 35.6505 50.4102 36.1414 50.3991H38.9509C39.4384 50.4121 39.9134 50.2433 40.2833 49.9255C40.6533 49.6077 40.8917 49.1637 40.9524 48.6797C41.0323 48.1329 41.1115 47.5911 41.1892 47.0486C41.6904 46.8801 42.1786 46.6753 42.65 46.436L43.9321 47.3727C44.2887 47.6501 44.7263 47.803 45.1781 47.8081C45.4568 47.8053 45.7319 47.7444 45.9858 47.6294C46.2398 47.5144 46.467 47.3477 46.653 47.1401C47.2819 46.4996 47.9173 45.8515 48.5521 45.2019C48.9193 44.8568 49.1411 44.3846 49.172 43.8816C49.2029 43.3786 49.0407 42.8827 48.7184 42.4952L47.755 41.2287C47.9525 40.8199 48.1246 40.3993 48.2703 39.9693C48.8092 39.8919 49.3503 39.8131 49.8895 39.7339C50.3748 39.6768 50.8212 39.4404 51.1411 39.0711C51.4611 38.7018 51.6315 38.2263 51.619 37.7379V34.9129C51.6309 34.424 51.4597 33.9484 51.139 33.5793C50.8183 33.2101 50.3712 32.9741 49.8855 32.9175L48.2685 32.6814C48.1006 32.1803 47.8957 31.6924 47.6555 31.2217L48.5973 29.9305C48.9129 29.5353 49.0647 29.0339 49.0213 28.53C48.978 28.026 48.7428 27.5579 48.3644 27.2224C47.7224 26.5905 47.07 25.9511 46.4154 25.3113C46.2298 25.1195 46.008 24.9664 45.7628 24.861C45.5177 24.7556 45.254 24.6999 44.9871 24.6972C44.5257 24.7021 44.0793 24.8618 43.7195 25.1507L43.6168 25.2285C43.232 25.5186 42.8414 25.8159 42.4489 26.1153C42.0401 25.9185 41.6194 25.7473 41.1893 25.6028C41.1242 25.1435 41.0562 24.6874 40.9889 24.2328L40.9531 23.9902C40.897 23.5024 40.6602 23.0535 40.2894 22.7318C39.9185 22.4102 39.4405 22.2392 38.9498 22.2527H36.1414C35.6537 22.2394 35.1784 22.4081 34.8081 22.7259C34.4378 23.0437 34.199 23.4879 34.1382 23.9721L34.0367 24.6701C33.9912 24.9815 33.9463 25.2925 33.9022 25.6032C33.4006 25.7716 32.912 25.9762 32.4401 26.2155C32.0305 25.9149 31.6002 25.6014 31.1396 25.2672C30.7766 24.9955 30.3352 24.8489 29.8817 24.8495L29.8484 24.8502C29.3297 24.8742 28.84 25.0963 28.4802 25.4708C28.0282 25.9254 27.5887 26.3754 27.15 26.8245L26.5376 27.4499C26.1716 27.7958 25.951 28.2681 25.9205 28.7708C25.89 29.2734 26.0519 29.7689 26.3734 30.1566L26.8036 30.7226C26.9802 30.9559 27.1579 31.1894 27.3365 31.4231C27.139 31.8313 26.967 32.2515 26.8217 32.681L25.2032 32.9179ZM29.2877 31.0991C28.9343 30.6423 28.5862 30.1855 28.2381 29.728L27.7584 29.0991C27.6213 28.919 27.6267 28.8311 27.7844 28.6708L28.3473 28.0951C28.801 27.6303 29.2547 27.1656 29.7103 26.7066C29.761 26.6456 29.8325 26.6054 29.911 26.5938C29.9869 26.6013 30.0587 26.6317 30.117 26.681C30.7969 27.1725 31.4743 27.6681 32.1492 28.1678C32.2082 28.2018 32.2755 28.2186 32.3436 28.2162C32.4011 28.2187 32.4582 28.2055 32.5089 28.1783C33.351 27.6511 34.273 27.2641 35.2391 27.0321C35.3104 27.0207 35.3756 26.985 35.4237 26.9311C35.4718 26.8772 35.4999 26.8084 35.5033 26.7363C35.6111 25.9699 35.721 25.2035 35.8331 24.4372L35.8633 24.2325C35.8892 24.0603 35.9644 23.9967 36.1415 23.9967H38.9498C39.131 23.9967 39.2012 24.0589 39.2279 24.2455L39.2514 24.4039C39.3665 25.1793 39.4815 25.9562 39.59 26.7338C39.5936 26.8083 39.6232 26.8792 39.6736 26.9343C39.724 26.9894 39.792 27.0251 39.8659 27.0354C40.7567 27.2492 41.6099 27.5967 42.3965 28.0661C42.4522 28.0927 42.5135 28.1053 42.5752 28.103C42.6547 28.1069 42.7336 28.0867 42.8016 28.0452C43.3723 27.6032 43.9491 27.1656 44.5227 26.7294L44.777 26.5366C44.8354 26.4837 44.9088 26.4503 44.9871 26.4412C45.0258 26.4412 45.0902 26.4531 45.198 26.5594C45.8497 27.1956 46.4989 27.8347 47.1532 28.4784C47.3166 28.6368 47.3231 28.7193 47.1893 28.9012L46.7466 29.5077C46.4002 29.9841 46.0525 30.4592 45.7036 30.9331C45.6611 30.9805 45.6364 31.0413 45.6337 31.105C45.6311 31.1687 45.6507 31.2313 45.6891 31.2821C46.2207 32.1271 46.6096 33.0537 46.8403 34.025C46.854 34.0959 46.8916 34.1599 46.947 34.2063C47.0023 34.2526 47.0719 34.2785 47.1441 34.2796L49.6317 34.6434C49.8089 34.6695 49.8743 34.744 49.8743 34.9139V37.7378C49.8743 37.9086 49.8092 37.9823 49.6338 38.008C48.8092 38.1295 47.9839 38.2492 47.1579 38.3672C47.0793 38.3698 47.0041 38.3999 46.9453 38.4521C46.8865 38.5044 46.8479 38.5755 46.836 38.6532C46.619 39.5524 46.2649 40.4127 45.786 41.2041C45.7487 41.2556 45.7302 41.3184 45.7337 41.3819C45.7371 41.4454 45.7622 41.5059 45.8048 41.5531C46.2439 42.1205 46.6757 42.6905 47.1076 43.2602L47.3311 43.5538C47.4696 43.7336 47.4649 43.8211 47.3072 43.981L47.2707 44.0179C46.6468 44.6558 46.0262 45.2898 45.3991 45.9275C45.2819 46.049 45.2164 46.0638 45.1781 46.0638C45.0974 46.054 45.0217 46.0193 44.9614 45.9647L44.2565 45.4501C43.8135 45.1267 43.3715 44.8041 42.9288 44.4772C42.8742 44.4443 42.811 44.4285 42.7473 44.4316C42.6941 44.4288 42.6412 44.4406 42.5943 44.466C41.7465 44.9993 40.8168 45.3896 39.8424 45.6215C39.7734 45.6341 39.7108 45.67 39.6651 45.7232C39.6194 45.7764 39.5934 45.8436 39.5914 45.9137C39.4709 46.7495 39.3498 47.5845 39.2279 48.4186C39.2284 48.4534 39.2213 48.4879 39.2069 48.5196C39.1926 48.5513 39.1715 48.5794 39.145 48.602C39.1186 48.6246 39.0874 48.6411 39.0539 48.6503C39.0203 48.6595 38.9852 48.6611 38.9509 48.6552H36.1414C35.9601 48.6552 35.8901 48.5929 35.8629 48.4056C35.7409 47.5778 35.621 46.7483 35.5033 45.9173C35.4989 45.843 35.4692 45.7725 35.419 45.7175C35.3688 45.6625 35.3013 45.6264 35.2277 45.6153C34.3376 45.4034 33.4853 45.0564 32.7003 44.5864C32.6435 44.5587 32.5807 44.5456 32.5175 44.5484C32.4378 44.5441 32.3586 44.564 32.2904 44.6056C31.6365 45.1123 30.9754 45.6132 30.3128 46.1155C30.1379 46.2493 30.0508 46.2436 29.8953 46.0924C29.2426 45.4555 28.5905 44.8171 27.939 44.1773C27.7759 44.016 27.7683 43.9325 27.9041 43.7495L28.2574 43.2634C28.6332 42.7455 29.0088 42.2298 29.3887 41.7191C29.4314 41.6717 29.4563 41.6109 29.4591 41.5472C29.4619 41.4835 29.4426 41.4208 29.4043 41.3697C28.8718 40.5241 28.4819 39.5967 28.2502 38.6246C28.2371 38.5538 28.1996 38.4897 28.1443 38.4435C28.0889 38.3973 28.0192 38.3718 27.9472 38.3715L25.4591 38.008C25.2775 37.9823 25.216 37.9096 25.216 37.7219V34.9302C25.216 34.7454 25.2799 34.6695 25.4587 34.6434L27.9457 34.2796C28.0181 34.2794 28.0881 34.254 28.1438 34.2077C28.1995 34.1615 28.2372 34.0972 28.2506 34.0261C28.4668 33.1167 28.8223 32.2463 29.3045 31.4456C29.3409 31.3943 29.359 31.3322 29.3559 31.2694C29.3529 31.2066 29.3288 31.1466 29.2877 31.0991Z" fill="#2D4356"/>
<path d="M64.5549 10.9941V10.7441L63.9993 10.8178V10.8104L64.349 10.3508L64.1282 10.2256L63.9038 10.7404H63.8964L63.6686 10.2293L63.4438 10.3578L63.7897 10.8067V10.8141L63.249 10.7441V10.9941L63.7934 10.9244V10.9318L63.4438 11.3803L63.6534 11.5129L63.8931 10.9941H63.9001L64.1208 11.5092L64.3527 11.3766L63.9993 10.9352V10.9281L64.5549 10.9941Z" fill="#2D4356"/>
<path d="M12.2698 23.7755L12.6176 23.3182L12.398 23.1934L12.1746 23.7059H12.1672L11.9402 23.1971L11.7165 23.3252L12.0609 23.7722V23.7792L11.5225 23.7096V23.9589L12.0646 23.8892V23.8966L11.7165 24.3433L11.9254 24.4751L12.1635 23.9589H12.1706L12.3906 24.4714L12.6213 24.3396L12.2698 23.9V23.8929L12.8224 23.9589V23.7096L12.2698 23.783V23.7755Z" fill="#2D4356"/>
<path d="M41.1669 11.9073L40.8495 12.3143L41.0399 12.4343L41.2569 11.964H41.2636L41.4635 12.431L41.6739 12.311L41.3536 11.9103V11.9036L41.8572 11.964V11.7369L41.3536 11.8036V11.7969L41.6706 11.3799L41.4706 11.2666L41.2669 11.7336H41.2602L41.0536 11.2696L40.8495 11.3866L41.1636 11.7936V11.8003L40.6729 11.7369V11.964L41.1669 11.9006V11.9073Z" fill="#2D4356"/>
<path d="M62.933 22.6325L63.2967 22.1544L63.0671 22.0244L62.8338 22.5599H62.826L62.589 22.0281L62.3553 22.1622L62.7149 22.6288V22.6366L62.1523 22.564V22.824L62.7186 22.7514V22.7592L62.3553 23.2258L62.5731 23.3636L62.8223 22.824H62.8297L63.0593 23.3595L63.3004 23.2221L62.933 22.7629V22.7551L63.5108 22.824V22.564L62.933 22.6403V22.6325Z" fill="#2D4356"/>
<path d="M33.7591 6.32104L33.381 6.80656L33.6077 6.94989L33.8669 6.38844H33.8747L34.1136 6.94581L34.3643 6.80249L33.9821 6.32474V6.31696L34.5832 6.38844V6.11772L33.9821 6.19734V6.18956L34.3606 5.69182L34.1217 5.55664L33.8788 6.11364H33.8706L33.624 5.56034L33.381 5.69997L33.7551 6.18549V6.19364L33.1699 6.11772V6.38844L33.7591 6.31289V6.32104Z" fill="#2D4356"/>
<path d="M37.5467 42.3863C38.7454 42.3862 39.9172 42.0306 40.9138 41.3646C41.9104 40.6986 42.6872 39.752 43.1458 38.6445C43.6044 37.537 43.7244 36.3184 43.4905 35.1427C43.2566 33.9671 42.6793 32.8872 41.8316 32.0396C40.984 31.1921 39.9041 30.6149 38.7284 30.3811C37.5527 30.1473 36.3341 30.2673 35.2267 30.7261C34.1192 31.1848 33.1727 31.9616 32.5067 32.9583C31.8408 33.955 31.4854 35.1268 31.4854 36.3255C31.4873 37.9324 32.1265 39.4729 33.2629 40.6092C34.3992 41.7454 35.9398 42.3845 37.5467 42.3863ZM37.5467 32.0097C38.4003 32.0097 39.2347 32.2628 39.9444 32.737C40.6542 33.2113 41.2073 33.8853 41.534 34.6739C41.8606 35.4625 41.9461 36.3303 41.7796 37.1674C41.613 38.0046 41.202 38.7736 40.5984 39.3772C39.9949 39.9808 39.2259 40.3918 38.3887 40.5583C37.5515 40.7249 36.6837 40.6394 35.8951 40.3127C35.1065 39.9861 34.4325 39.4329 33.9583 38.7232C33.4841 38.0135 33.2309 37.1791 33.2309 36.3255C33.2324 35.1813 33.6876 34.0844 34.4966 33.2754C35.3057 32.4664 36.4026 32.0112 37.5467 32.0097Z" fill="#1E83E6"/>
</svg>
