<svg width="59" height="59" viewBox="0 0 59 59" fill="none" xmlns="http://www.w3.org/2000/svg">
<path d="M39.6852 2.10691C39.8241 2.10691 39.9599 2.06572 40.0754 1.98854C40.1909 1.91136 40.2809 1.80166 40.3341 1.67332C40.3872 1.54498 40.4012 1.40375 40.3741 1.2675C40.347 1.13125 40.2801 1.0061 40.1818 0.907871C40.0836 0.809642 39.9584 0.742746 39.8222 0.715645C39.6859 0.688543 39.5447 0.702453 39.4164 0.755614C39.288 0.808776 39.1783 0.898802 39.1012 1.01431C39.024 1.12981 38.9828 1.26561 38.9828 1.40453C38.983 1.59075 39.0571 1.76928 39.1887 1.90095C39.3204 2.03263 39.499 2.1067 39.6852 2.10691ZM39.6852 1.05334C39.7546 1.05334 39.8225 1.07394 39.8803 1.11253C39.938 1.15111 39.983 1.20596 40.0096 1.27013C40.0362 1.33431 40.0432 1.40492 40.0296 1.47304C40.0161 1.54117 39.9826 1.60374 39.9335 1.65286C39.8844 1.70197 39.8218 1.73542 39.7537 1.74897C39.6856 1.76252 39.6149 1.75557 39.5508 1.72899C39.4866 1.70241 39.4318 1.65739 39.3932 1.59964C39.3546 1.54189 39.334 1.47399 39.334 1.40453C39.3341 1.31142 39.3711 1.22214 39.4369 1.1563C39.5028 1.09046 39.5921 1.05343 39.6852 1.05334ZM26.6911 4.91643C26.8995 4.91643 27.1032 4.85464 27.2765 4.73888C27.4497 4.62311 27.5848 4.45856 27.6645 4.26605C27.7442 4.07353 27.7651 3.86169 27.7244 3.65732C27.6838 3.45295 27.5835 3.26522 27.4361 3.11788C27.2888 2.97053 27.101 2.87019 26.8967 2.82954C26.6923 2.78888 26.4805 2.80975 26.2879 2.88949C26.0954 2.96923 25.9309 3.10427 25.8151 3.27753C25.6993 3.45079 25.6376 3.65449 25.6376 3.86286C25.6379 4.14219 25.749 4.40998 25.9465 4.6075C26.144 4.80501 26.4118 4.91611 26.6911 4.91643ZM26.6911 3.33608C26.7953 3.33608 26.8972 3.36697 26.9838 3.42486C27.0704 3.48274 27.1379 3.56501 27.1778 3.66127C27.2177 3.75753 27.2281 3.86345 27.2078 3.96563C27.1875 4.06782 27.1373 4.16168 27.0636 4.23536C26.9899 4.30903 26.8961 4.3592 26.7939 4.37953C26.6917 4.39985 26.5858 4.38942 26.4895 4.34955C26.3933 4.30968 26.311 4.24216 26.2531 4.15553C26.1952 4.0689 26.1643 3.96705 26.1643 3.86286C26.1645 3.72319 26.22 3.58928 26.3188 3.49052C26.4175 3.39176 26.5515 3.33621 26.6911 3.33608ZM55.8399 31.9581C55.8399 31.7497 55.7781 31.546 55.6624 31.3728C55.5466 31.1995 55.3821 31.0645 55.1895 30.9847C54.997 30.905 54.7852 30.8841 54.5808 30.9248C54.3764 30.9654 54.1887 31.0658 54.0414 31.2131C53.894 31.3605 53.7937 31.5482 53.753 31.7526C53.7124 31.9569 53.7332 32.1688 53.813 32.3613C53.8927 32.5538 54.0278 32.7183 54.201 32.8341C54.3743 32.9499 54.578 33.0117 54.7864 33.0117C55.0657 33.0113 55.3335 32.9002 55.531 32.7027C55.7285 32.5052 55.8396 32.2374 55.8399 31.9581ZM54.2596 31.9581C54.2596 31.8539 54.2905 31.7521 54.3484 31.6654C54.4062 31.5788 54.4885 31.5113 54.5848 31.4714C54.681 31.4315 54.7869 31.4211 54.8891 31.4414C54.9913 31.4618 55.0852 31.5119 55.1588 31.5856C55.2325 31.6593 55.2827 31.7531 55.303 31.8553C55.3233 31.9575 55.3129 32.0634 55.273 32.1597C55.2332 32.2559 55.1657 32.3382 55.079 32.3961C54.9924 32.454 54.8905 32.4849 54.7864 32.4849C54.6467 32.4847 54.5128 32.4292 54.414 32.3304C54.3153 32.2317 54.2597 32.0978 54.2596 31.9581ZM3.16137 16.1545C3.30028 16.1545 3.43608 16.1133 3.55159 16.0362C3.66709 15.959 3.75712 15.8493 3.81028 15.7209C3.86344 15.5926 3.87735 15.4514 3.85025 15.3151C3.82315 15.1789 3.75625 15.0537 3.65802 14.9555C3.55979 14.8573 3.43464 14.7904 3.29839 14.7633C3.16214 14.7362 3.02092 14.7501 2.89258 14.8032C2.76423 14.8564 2.65454 14.9464 2.57736 15.0619C2.50018 15.1774 2.45898 15.3132 2.45898 15.4521C2.4592 15.6384 2.53327 15.8169 2.66494 15.9486C2.79662 16.0802 2.97515 16.1543 3.16137 16.1545ZM3.16137 15.101C3.23082 15.101 3.29872 15.1216 3.35648 15.1601C3.41423 15.1987 3.45924 15.2536 3.48582 15.3178C3.5124 15.3819 3.51936 15.4525 3.50581 15.5207C3.49226 15.5888 3.45881 15.6514 3.40969 15.7005C3.36058 15.7496 3.298 15.783 3.22988 15.7966C3.16175 15.8101 3.09114 15.8032 3.02697 15.7766C2.9628 15.75 2.90795 15.705 2.86936 15.6473C2.83077 15.5895 2.81017 15.5216 2.81017 15.4521C2.81027 15.359 2.8473 15.2698 2.91314 15.2039C2.97898 15.1381 3.06825 15.101 3.16137 15.101Z" fill="#2D4356"/>
<path d="M0.702381 51.977C1.0903 51.977 1.40476 51.6626 1.40476 51.2746C1.40476 50.8867 1.0903 50.5723 0.702381 50.5723C0.314467 50.5723 0 50.8867 0 51.2746C0 51.6626 0.314467 51.977 0.702381 51.977Z" fill="#2D4356"/>
<path d="M3.8624 50.5723H2.80883C2.62254 50.5723 2.44389 50.6463 2.31217 50.778C2.18045 50.9097 2.10645 51.0884 2.10645 51.2746C2.10645 51.4609 2.18045 51.6396 2.31217 51.7713C2.44389 51.903 2.62254 51.977 2.80883 51.977H3.8624C4.04868 51.977 4.22733 51.903 4.35906 51.7713C4.49078 51.6396 4.56478 51.4609 4.56478 51.2746C4.56478 51.0884 4.49078 50.9097 4.35906 50.778C4.22733 50.6463 4.04868 50.5723 3.8624 50.5723ZM56.1898 50.5723H55.1362C54.9499 50.5723 54.7713 50.6463 54.6396 50.778C54.5078 50.9097 54.4338 51.0884 54.4338 51.2746C54.4338 51.4609 54.5078 51.6396 54.6396 51.7713C54.7713 51.903 54.9499 51.977 55.1362 51.977H56.1898C56.3761 51.977 56.5547 51.903 56.6864 51.7713C56.8182 51.6396 56.8922 51.4609 56.8922 51.2746C56.8922 51.0884 56.8182 50.9097 56.6864 50.778C56.5547 50.6463 56.3761 50.5723 56.1898 50.5723Z" fill="#2D4356"/>
<path d="M58.2971 51.977C58.685 51.977 58.9995 51.6626 58.9995 51.2746C58.9995 50.8867 58.685 50.5723 58.2971 50.5723C57.9092 50.5723 57.5947 50.8867 57.5947 51.2746C57.5947 51.6626 57.9092 51.977 58.2971 51.977Z" fill="#2D4356"/>
<path d="M9.27876 10.5739L9.27876 10.574L9.27876 17.337H32.5354H32.6644L32.6837 17.4645L32.8937 18.8471L32.9199 19.0196H32.7454H9.27876V10.5739ZM9.27876 10.5739C9.27914 10.2462 9.40717 9.9326 9.63396 9.70172C9.86069 9.47089 10.1675 9.34156 10.487 9.34122H48.5125C48.8319 9.34154 49.1388 9.47086 49.3655 9.70169C49.5923 9.93261 49.7204 10.2463 49.7207 10.574V17.337H41.0335H40.5034L40.9549 17.6148L41.0515 17.6742L41.0514 17.6743L41.0577 17.6778C41.5514 17.9501 41.9358 18.3911 42.1428 18.9239L42.18 19.0196H42.2826H49.7207V49.2873C49.7204 49.615 49.5923 49.9287 49.3655 50.1596C49.1388 50.3904 48.8319 50.5198 48.5125 50.5201H10.487C10.1675 50.5197 9.86069 50.3904 9.63396 50.1596C9.40718 49.9287 9.27914 49.6151 9.27876 49.2875C9.27876 49.2874 9.27876 49.2874 9.27876 49.2873L9.27876 10.5739ZM52.485 50.5511C52.3744 50.5169 52.2581 50.5063 52.1433 50.5201H51.1083C51.286 50.1353 51.3787 49.7145 51.3787 49.2875V10.5739C51.3787 9.80154 51.0774 9.06035 50.5402 8.51344C50.0029 7.96644 49.2736 7.65862 48.5126 7.65859H10.4868C9.7258 7.65859 8.99651 7.9664 8.45922 8.51341C7.92202 9.06032 7.6207 9.80154 7.6207 10.5739V49.2875C7.62067 49.7145 7.7134 50.1353 7.89112 50.5201H6.85618C6.74138 50.5063 6.625 50.5169 6.51441 50.5511C6.4005 50.5864 6.29548 50.6459 6.20632 50.7256C6.11716 50.8053 6.04591 50.9033 5.99716 51.0129C5.94841 51.1225 5.92324 51.2413 5.92324 51.3614C5.92324 51.4815 5.94841 51.6003 5.99716 51.7099C6.04591 51.8195 6.11716 51.9175 6.20632 51.9972C6.29548 52.0769 6.4005 52.1364 6.51441 52.1717C6.625 52.206 6.74138 52.2165 6.85619 52.2027H52.1432C52.258 52.2165 52.3744 52.206 52.485 52.1717C52.5989 52.1364 52.704 52.0769 52.7931 51.9972C52.8823 51.9175 52.9535 51.8196 53.0023 51.7099C53.051 51.6003 53.0762 51.4815 53.0762 51.3614C53.0762 51.2413 53.051 51.1225 53.0023 51.0129C52.9535 50.9033 52.8823 50.8053 52.7931 50.7256C52.704 50.6459 52.5989 50.5864 52.485 50.5511Z" fill="#2D4356" stroke="#2D4356" stroke-width="0.3"/>
<path d="M24.3928 29.0197C24.2653 28.884 24.0891 28.8045 23.9029 28.7986C23.7168 28.7928 23.5359 28.8611 23.4001 28.9885L16.3763 35.5816C16.3045 35.649 16.2476 35.7308 16.2095 35.8216C16.1713 35.9124 16.1527 36.0102 16.1548 36.1087C16.1569 36.2072 16.1797 36.3041 16.2217 36.3932C16.2637 36.4823 16.324 36.5616 16.3986 36.6259L23.4224 42.6757C23.4923 42.7359 23.5734 42.7817 23.661 42.8106C23.7486 42.8395 23.841 42.8508 23.933 42.8439C24.025 42.8371 24.1148 42.8121 24.1971 42.7706C24.2795 42.7291 24.3529 42.6717 24.413 42.6018C24.4732 42.5319 24.5191 42.4508 24.5479 42.3632C24.5768 42.2756 24.5881 42.1832 24.5813 42.0912C24.5744 41.9992 24.5495 41.9094 24.5079 41.8271C24.4664 41.7447 24.409 41.6714 24.3391 41.6112L17.9071 36.0714L24.3614 30.0126C24.4287 29.9495 24.4829 29.8737 24.5209 29.7897C24.5589 29.7056 24.5799 29.6149 24.5828 29.5227C24.5857 29.4305 24.5705 29.3386 24.5379 29.2523C24.5053 29.166 24.456 29.087 24.3928 29.0197ZM35.6604 28.9906C35.5934 28.9272 35.5146 28.8776 35.4285 28.8446C35.3424 28.8117 35.2506 28.796 35.1584 28.7985C35.0662 28.801 34.9754 28.8217 34.8912 28.8593C34.8069 28.8969 34.731 28.9507 34.6675 29.0177C34.6041 29.0847 34.5545 29.1635 34.5216 29.2496C34.4886 29.3357 34.4729 29.4275 34.4755 29.5197C34.478 29.6119 34.4986 29.7027 34.5362 29.7869C34.5738 29.8712 34.6277 29.9471 34.6946 30.0106L41.0949 36.0689L34.6603 41.6112C34.5192 41.7328 34.4321 41.9055 34.4183 42.0913C34.4044 42.2771 34.465 42.4608 34.5866 42.602C34.7082 42.7431 34.8809 42.8302 35.0667 42.844C35.2525 42.8579 35.4362 42.7973 35.5774 42.6757L42.6012 36.6259C42.6756 36.5617 42.7357 36.4827 42.7776 36.3939C42.8196 36.305 42.8424 36.2084 42.8447 36.1102C42.847 36.012 42.8287 35.9144 42.791 35.8237C42.7532 35.733 42.6969 35.6512 42.6256 35.5837L35.6604 28.9906ZM28.7974 11.9609H11.9403C11.8507 11.9609 11.7619 11.9786 11.6791 12.0129C11.5963 12.0472 11.5211 12.0975 11.4577 12.1608C11.3943 12.2242 11.3441 12.2994 11.3098 12.3822C11.2755 12.4651 11.2578 12.5538 11.2578 12.6434C11.2578 12.7331 11.2755 12.8218 11.3098 12.9046C11.3441 12.9874 11.3943 13.0626 11.4577 13.126C11.5211 13.1894 11.5963 13.2397 11.6791 13.274C11.7619 13.3083 11.8507 13.3259 11.9403 13.3259H28.7974C28.8871 13.3259 28.9758 13.3083 29.0586 13.274C29.1414 13.2397 29.2167 13.1894 29.28 13.126C29.3434 13.0626 29.3937 12.9874 29.428 12.9046C29.4623 12.8218 29.4799 12.7331 29.4799 12.6434C29.4799 12.5538 29.4623 12.4651 29.428 12.3822C29.3937 12.2994 29.3434 12.2242 29.28 12.1608C29.2167 12.0975 29.1414 12.0472 29.0586 12.0129C28.9758 11.9786 28.8871 11.9609 28.7974 11.9609ZM36.4818 22.3063L37.3354 20.9836L38.7714 22.8983C38.8832 23.0473 39.0496 23.1457 39.234 23.172C39.4184 23.1983 39.6057 23.1503 39.7547 23.0385C39.9036 22.9267 40.0021 22.7603 40.0284 22.576C40.0547 22.3916 40.0067 22.2043 39.8949 22.0553L38.4757 20.163L40.2766 19.6933C41.2805 19.3805 41.3655 18.6764 40.468 18.1201L35.4265 14.9982C34.529 14.4423 33.9312 14.8538 34.091 15.9176L34.9916 21.8903C35.1521 22.9545 35.8189 23.1404 36.4818 22.3063Z" fill="#2D4356"/>
<path d="M6.47323 5.65512L6.80475 5.21929L6.59544 5.10059L6.38262 5.58874H6.3756L6.15962 5.1041L5.94644 5.22596L6.27446 5.6516V5.65863L5.76172 5.59225V5.82931L6.27797 5.76328V5.77031L5.94644 6.1956L6.14522 6.32132L6.37244 5.82931H6.37911L6.58842 6.31781L6.80827 6.19209L6.47323 5.77347V5.76679L7.00002 5.82931V5.59225L6.47323 5.66214V5.65512Z" fill="#1E83E6"/>
<path d="M17.0267 2.31966L17.2353 2.80571L17.4541 2.68068L17.1208 2.26382V2.25715L17.6448 2.31966V2.08331L17.1208 2.15285V2.14582L17.4506 1.7121L17.2423 1.59375L17.0306 2.0798H17.0235L16.8083 1.59726L16.5961 1.71877L16.9227 2.14266V2.14933L16.4121 2.08331V2.31966L16.9263 2.25364V2.26066L16.5961 2.6842L16.7942 2.80922L17.02 2.31966H17.0267Z" fill="#1E83E6"/>
<path d="M4.66307 28.7168L4.96368 28.3213L4.77404 28.2139L4.58089 28.6567H4.57457L4.3786 28.2167L4.1851 28.3277L4.4829 28.7136V28.7199L4.01758 28.6599V28.8752L4.48607 28.8151V28.8214L4.1851 29.2074L4.36561 29.3212L4.57141 28.8752H4.57773L4.76737 29.318L4.96685 29.2042L4.66307 28.8242V28.8179L5.14068 28.8752V28.6599L4.66307 28.7231V28.7168Z" fill="#1E83E6"/>
<path d="M55.5265 17.0483V16.8017L54.9786 16.8741V16.8667L55.3235 16.4133L55.1057 16.29L54.8845 16.7979H54.8771L54.6523 16.2936L54.4307 16.4207L54.7717 16.8632V16.8706L54.2383 16.8017V17.0483L54.7753 16.9794V16.9868L54.4307 17.4293L54.6372 17.5599L54.8736 17.0483H54.8806L55.0984 17.5561L55.327 17.4258L54.9786 16.9903V16.9829L55.5265 17.0483Z" fill="#1E83E6"/>
<path d="M54.5779 5.01539L54.2155 4.56235V4.55498L54.7855 4.62276V4.36604L54.2155 4.44154V4.43417L54.5744 3.96217L54.3479 3.83398L54.1175 4.36217H54.1098L53.8759 3.8375L53.6455 3.9699L54.0002 4.43031V4.43803L53.4453 4.36604V4.62276L54.0041 4.55112V4.55884L53.6455 5.01925L53.8604 5.15516L54.1062 4.62276H54.1136L54.3401 5.1513L54.5779 5.01539Z" fill="#1E83E6"/>
<path d="M41.4938 53.7324H38.5762C38.3997 53.7465 38.2349 53.8267 38.1147 53.9568C37.9946 54.087 37.9279 54.2576 37.9279 54.4348C37.9279 54.6119 37.9946 54.7826 38.1147 54.9127C38.2349 55.0429 38.3997 55.123 38.5762 55.1372H41.4938C41.6704 55.123 41.8352 55.0429 41.9553 54.9127C42.0755 54.7826 42.1422 54.6119 42.1422 54.4348C42.1422 54.2576 42.0755 54.087 41.9553 53.9568C41.8352 53.8267 41.6704 53.7465 41.4938 53.7324ZM20.4224 53.7324H17.5048C17.3282 53.7465 17.1635 53.8267 17.0433 53.9568C16.9232 54.087 16.8564 54.2576 16.8564 54.4348C16.8564 54.6119 16.9232 54.7826 17.0433 54.9127C17.1635 55.0429 17.3282 55.123 17.5048 55.1372H20.4224C20.599 55.123 20.7637 55.0429 20.8839 54.9127C21.004 54.7826 21.0708 54.6119 21.0708 54.4348C21.0708 54.2576 21.004 54.087 20.8839 53.9568C20.7637 53.8267 20.599 53.7465 20.4224 53.7324ZM36.5231 53.7324H22.4755C22.2892 53.7324 22.1106 53.8064 21.9788 53.9381C21.8471 54.0698 21.7731 54.2485 21.7731 54.4348C21.7731 54.6211 21.8471 54.7997 21.9788 54.9314C22.1106 55.0632 22.2892 55.1372 22.4755 55.1372H28.0735V55.8395H25.285C25.0987 55.8395 24.9201 55.9135 24.7884 56.0453C24.6566 56.177 24.5826 56.3556 24.5826 56.5419C24.5826 56.7282 24.6566 56.9069 24.7884 57.0386C24.9201 57.1703 25.0987 57.2443 25.285 57.2443H34.0648C34.2511 57.2443 34.4297 57.1703 34.5615 57.0386C34.6932 56.9069 34.7672 56.7282 34.7672 56.5419C34.7672 56.3556 34.6932 56.177 34.5615 56.0453C34.4297 55.9135 34.2511 55.8395 34.0648 55.8395H30.9251V55.1372H36.5231C36.7094 55.1372 36.8881 55.0632 37.0198 54.9314C37.1515 54.7997 37.2255 54.6211 37.2255 54.4348C37.2255 54.2485 37.1515 54.0698 37.0198 53.9381C36.8881 53.8064 36.7094 53.7324 36.5231 53.7324ZM26.4044 42.7848C26.4887 42.8225 26.5796 42.8431 26.6718 42.8456C26.7641 42.8481 26.8559 42.8323 26.942 42.7992C27.0282 42.7661 27.1069 42.7163 27.1738 42.6527C27.2407 42.589 27.2943 42.5129 27.3316 42.4285L32.9505 29.7856C33.0259 29.6155 33.0307 29.4224 32.9638 29.2487C32.8969 29.075 32.7638 28.935 32.5938 28.8594C32.4238 28.7838 32.2307 28.7788 32.0569 28.8454C31.8832 28.9121 31.743 29.045 31.6672 29.2149L26.0479 41.8578C26.0105 41.942 25.9899 42.0329 25.9876 42.1251C25.9852 42.2173 26.001 42.309 26.0341 42.3951C26.0672 42.4812 26.117 42.5599 26.1805 42.6268C26.2441 42.6937 26.3202 42.7473 26.4044 42.7848Z" fill="#1E83E6"/>
<path d="M42.143 14.0478C42.9189 14.0478 43.5478 13.4189 43.5478 12.643C43.5478 11.8672 42.9189 11.2383 42.143 11.2383C41.3672 11.2383 40.7383 11.8672 40.7383 12.643C40.7383 13.4189 41.3672 14.0478 42.143 14.0478Z" fill="#1E83E6"/>
<path d="M46.3559 14.0478C47.1318 14.0478 47.7607 13.4189 47.7607 12.643C47.7607 11.8672 47.1318 11.2383 46.3559 11.2383C45.5801 11.2383 44.9512 11.8672 44.9512 12.643C44.9512 13.4189 45.5801 14.0478 46.3559 14.0478Z" fill="#1E83E6"/>
</svg>
