<svg width="49" height="49" viewBox="0 0 49 49" fill="none" xmlns="http://www.w3.org/2000/svg">
<path d="M32.9596 1.74967C33.075 1.74967 33.1878 1.71546 33.2837 1.65137C33.3796 1.58727 33.4544 1.49616 33.4986 1.38957C33.5427 1.28298 33.5543 1.16569 33.5318 1.05254C33.5092 0.939383 33.4537 0.835443 33.3721 0.753862C33.2905 0.672282 33.1866 0.616725 33.0734 0.594217C32.9603 0.571709 32.843 0.583261 32.7364 0.627412C32.6298 0.671563 32.5387 0.74633 32.4746 0.842259C32.4105 0.938187 32.3763 1.05097 32.3763 1.16634C32.3765 1.321 32.438 1.46927 32.5473 1.57863C32.6567 1.68798 32.805 1.7495 32.9596 1.74967ZM32.9596 0.874675C33.0173 0.874675 33.0737 0.891781 33.1217 0.923829C33.1696 0.955878 33.207 1.00143 33.2291 1.05473C33.2512 1.10802 33.2569 1.16666 33.2457 1.22324C33.2344 1.27982 33.2067 1.33179 33.1659 1.37258C33.1251 1.41337 33.0731 1.44115 33.0165 1.4524C32.96 1.46366 32.9013 1.45788 32.848 1.43581C32.7947 1.41373 32.7492 1.37635 32.7171 1.32838C32.6851 1.28042 32.668 1.22403 32.668 1.16634C32.668 1.08901 32.6988 1.01487 32.7535 0.960187C32.8082 0.905506 32.8823 0.874752 32.9596 0.874675ZM22.168 4.08301C22.341 4.08301 22.5102 4.03169 22.6541 3.93554C22.798 3.8394 22.9101 3.70274 22.9764 3.54286C23.0426 3.38297 23.0599 3.20704 23.0261 3.0373C22.9924 2.86757 22.9091 2.71166 22.7867 2.58929C22.6643 2.46692 22.5084 2.38358 22.3387 2.34982C22.1689 2.31606 21.993 2.33339 21.8331 2.39961C21.6732 2.46584 21.5366 2.57799 21.4404 2.72188C21.3443 2.86578 21.293 3.03495 21.293 3.20801C21.2932 3.43999 21.3855 3.6624 21.5495 3.82643C21.7136 3.99047 21.936 4.08274 22.168 4.08301ZM22.168 2.77051C22.2545 2.77051 22.3391 2.79617 22.411 2.84424C22.483 2.89231 22.539 2.96064 22.5722 3.04058C22.6053 3.12053 22.6139 3.20849 22.5971 3.29336C22.5802 3.37823 22.5385 3.45618 22.4773 3.51737C22.4161 3.57855 22.3382 3.62022 22.2533 3.6371C22.1684 3.65398 22.0805 3.64532 22.0005 3.61221C21.9206 3.57909 21.8523 3.52302 21.8042 3.45107C21.7561 3.37912 21.7305 3.29454 21.7305 3.20801C21.7306 3.09201 21.7767 2.9808 21.8587 2.89878C21.9408 2.81675 22.052 2.77062 22.168 2.77051ZM46.3763 26.5413C46.3763 26.3683 46.325 26.1991 46.2288 26.0552C46.1327 25.9113 45.996 25.7992 45.8361 25.7329C45.6763 25.6667 45.5003 25.6494 45.3306 25.6832C45.1609 25.7169 45.0049 25.8003 44.8826 25.9226C44.7602 26.045 44.6769 26.2009 44.6431 26.3706C44.6093 26.5404 44.6267 26.7163 44.6929 26.8762C44.7591 27.0361 44.8713 27.1727 45.0152 27.2689C45.1591 27.365 45.3282 27.4163 45.5013 27.4163C45.7333 27.4161 45.9557 27.3238 46.1197 27.1598C46.2838 26.9957 46.376 26.7733 46.3763 26.5413ZM45.0638 26.5413C45.0638 26.4548 45.0895 26.3702 45.1375 26.2983C45.1856 26.2263 45.2539 26.1703 45.3339 26.1371C45.4138 26.104 45.5018 26.0954 45.5866 26.1122C45.6715 26.1291 45.7495 26.1708 45.8106 26.232C45.8718 26.2932 45.9135 26.3711 45.9304 26.456C45.9473 26.5409 45.9386 26.6288 45.9055 26.7088C45.8724 26.7887 45.8163 26.857 45.7444 26.9051C45.6724 26.9532 45.5878 26.9788 45.5013 26.9788C45.3853 26.9787 45.2741 26.9326 45.1921 26.8506C45.11 26.7686 45.0639 26.6573 45.0638 26.5413ZM2.6263 13.4163C2.74167 13.4163 2.85446 13.3821 2.95038 13.318C3.04631 13.2539 3.12108 13.1628 3.16523 13.0562C3.20938 12.9496 3.22093 12.8324 3.19843 12.7192C3.17592 12.606 3.12036 12.5021 3.03878 12.4205C2.9572 12.3389 2.85326 12.2834 2.7401 12.2609C2.62695 12.2384 2.50966 12.2499 2.40307 12.2941C2.29648 12.3382 2.20538 12.413 2.14128 12.5089C2.07718 12.6049 2.04297 12.7176 2.04297 12.833C2.04315 12.9877 2.10466 13.1359 2.21402 13.2453C2.32338 13.3546 2.47165 13.4162 2.6263 13.4163ZM2.6263 12.5413C2.68399 12.5413 2.74038 12.5584 2.78834 12.5905C2.83631 12.6225 2.87369 12.6681 2.89577 12.7214C2.91784 12.7747 2.92362 12.8333 2.91236 12.8899C2.90111 12.9465 2.87333 12.9985 2.83254 13.0392C2.79175 13.08 2.73978 13.1078 2.6832 13.1191C2.62663 13.1303 2.56798 13.1245 2.51469 13.1025C2.46139 13.0804 2.41584 13.043 2.38379 12.995C2.35174 12.9471 2.33464 12.8907 2.33464 12.833C2.33471 12.7557 2.36547 12.6815 2.42015 12.6269C2.47483 12.5722 2.54897 12.5414 2.6263 12.5413Z" fill="#2D4356"/>
<path d="M0.583333 43.1667C0.9055 43.1667 1.16667 42.9055 1.16667 42.5833C1.16667 42.2612 0.9055 42 0.583333 42C0.261167 42 0 42.2612 0 42.5833C0 42.9055 0.261167 43.1667 0.583333 43.1667Z" fill="#2D4356"/>
<path d="M3.20833 42H2.33333C2.17862 42 2.03025 42.0615 1.92085 42.1709C1.81146 42.2803 1.75 42.4286 1.75 42.5833C1.75 42.738 1.81146 42.8864 1.92085 42.9958C2.03025 43.1052 2.17862 43.1667 2.33333 43.1667H3.20833C3.36304 43.1667 3.51142 43.1052 3.62081 42.9958C3.73021 42.8864 3.79167 42.738 3.79167 42.5833C3.79167 42.4286 3.73021 42.2803 3.62081 42.1709C3.51142 42.0615 3.36304 42 3.20833 42ZM46.6667 42H45.7917C45.637 42 45.4886 42.0615 45.3792 42.1709C45.2698 42.2803 45.2083 42.4286 45.2083 42.5833C45.2083 42.738 45.2698 42.8864 45.3792 42.9958C45.4886 43.1052 45.637 43.1667 45.7917 43.1667H46.6667C46.8214 43.1667 46.9698 43.1052 47.0791 42.9958C47.1885 42.8864 47.25 42.738 47.25 42.5833C47.25 42.4286 47.1885 42.2803 47.0791 42.1709C46.9698 42.0615 46.8214 42 46.6667 42Z" fill="#2D4356"/>
<path d="M48.4173 43.1667C48.7395 43.1667 49.0007 42.9055 49.0007 42.5833C49.0007 42.2612 48.7395 42 48.4173 42C48.0952 42 47.834 42.2612 47.834 42.5833C47.834 42.9055 48.0952 43.1667 48.4173 43.1667Z" fill="#2D4356"/>
<path d="M7.73256 8.78192L7.73256 8.78208L7.73256 14.3733H27.022H27.1509L27.1703 14.5008L27.3447 15.6491L27.3709 15.8216H27.1964H7.73256V8.78192ZM7.73256 8.78192C7.73287 8.5164 7.83663 8.26237 8.02026 8.07542C8.20384 7.88853 8.45216 7.78391 8.7106 7.78364H40.291C40.5495 7.78389 40.7978 7.8885 40.9814 8.0754C41.165 8.26239 41.2688 8.51649 41.2691 8.78206V14.3733H34.0797H33.5496L34.0012 14.6511L34.0814 14.7005L34.0813 14.7006L34.0875 14.704C34.4923 14.9273 34.8075 15.2889 34.9773 15.7259L35.0145 15.8216H35.1171H41.2691V40.9338C41.2688 41.1993 41.165 41.4534 40.9814 41.6404C40.7978 41.8273 40.5495 41.9319 40.291 41.9322H8.7106C8.45217 41.9319 8.20384 41.8273 8.02027 41.6404C7.83664 41.4534 7.73287 41.1994 7.73256 40.9339C7.73256 40.9338 7.73256 40.9338 7.73256 40.9337L7.73256 8.78192ZM43.5978 41.9591C43.5031 41.9297 43.4033 41.9206 43.305 41.9322H42.4863C42.6248 41.6191 42.6969 41.2789 42.6969 40.9339V8.78192C42.6969 8.13391 42.4441 7.51193 41.9932 7.05292C41.5423 6.59381 40.9301 6.33538 40.2912 6.33535H8.71044C8.07151 6.33535 7.45931 6.59378 7.00836 7.05289C6.55749 7.51191 6.30467 8.13391 6.30467 8.78192V40.9339C6.30465 41.2789 6.37679 41.6191 6.51529 41.9322H5.69666C5.59827 41.9206 5.49856 41.9297 5.40379 41.9591C5.30568 41.9895 5.21526 42.0407 5.1385 42.1093C5.06175 42.1779 5.00044 42.2622 4.9585 42.3565C4.91657 42.4508 4.89492 42.553 4.89492 42.6563C4.89492 42.7596 4.91657 42.8618 4.9585 42.9561C5.00044 43.0504 5.06175 43.1347 5.1385 43.2033C5.21526 43.2719 5.30568 43.3232 5.40379 43.3536C5.49856 43.3829 5.59827 43.3921 5.69666 43.3805H43.305C43.4033 43.3921 43.5031 43.3829 43.5978 43.3536C43.6959 43.3232 43.7864 43.2719 43.8631 43.2033C43.9399 43.1347 44.0012 43.0504 44.0431 42.9561C44.085 42.8618 44.1067 42.7596 44.1067 42.6563C44.1067 42.553 44.085 42.4508 44.0431 42.3565C44.0012 42.2622 43.9399 42.1779 43.8631 42.1093C43.7864 42.0407 43.6959 41.9895 43.5978 41.9591Z" fill="#2D4356" stroke="#2D4356" stroke-width="0.3"/>
<path d="M20.2583 24.1011C20.1524 23.9883 20.0061 23.9223 19.8515 23.9174C19.6969 23.9126 19.5467 23.9693 19.4339 24.0752L13.6006 29.5507C13.5409 29.6067 13.4937 29.6746 13.462 29.7501C13.4303 29.8255 13.4148 29.9067 13.4166 29.9885C13.4183 30.0703 13.4372 30.1508 13.4721 30.2248C13.507 30.2988 13.5571 30.3647 13.6191 30.4181L19.4524 35.4425C19.5105 35.4925 19.5778 35.5305 19.6506 35.5545C19.7233 35.5785 19.8001 35.5879 19.8765 35.5822C19.9529 35.5765 20.0274 35.5558 20.0958 35.5213C20.1642 35.4868 20.2252 35.4391 20.2751 35.3811C20.3251 35.323 20.3632 35.2557 20.3872 35.1829C20.4111 35.1102 20.4205 35.0334 20.4148 34.957C20.4091 34.8806 20.3885 34.8061 20.354 34.7377C20.3195 34.6693 20.2718 34.6083 20.2138 34.5584L14.8719 29.9575L20.2323 24.9257C20.2882 24.8732 20.3331 24.8103 20.3647 24.7405C20.3962 24.6707 20.4137 24.5953 20.4162 24.5188C20.4186 24.4422 20.4059 24.3659 20.3788 24.2942C20.3517 24.2226 20.3108 24.1569 20.2583 24.1011ZM29.6162 24.0769C29.5606 24.0242 29.4951 23.983 29.4236 23.9556C29.352 23.9283 29.2758 23.9153 29.1992 23.9173C29.1227 23.9194 29.0472 23.9366 28.9773 23.9678C28.9074 23.999 28.8443 24.0437 28.7916 24.0994C28.7389 24.155 28.6977 24.2204 28.6704 24.292C28.643 24.3635 28.63 24.4398 28.6321 24.5163C28.6342 24.5929 28.6513 24.6683 28.6825 24.7382C28.7138 24.8082 28.7585 24.8713 28.8141 24.924L34.1296 29.9555L28.7856 34.5584C28.6684 34.6594 28.596 34.8028 28.5846 34.9571C28.5731 35.1114 28.6234 35.264 28.7244 35.3812C28.8254 35.4985 28.9688 35.5708 29.1231 35.5823C29.2774 35.5938 29.43 35.5435 29.5472 35.4425L35.3806 30.4181C35.4423 30.3648 35.4923 30.2991 35.5271 30.2253C35.5619 30.1516 35.5809 30.0713 35.5828 29.9897C35.5847 29.9082 35.5695 29.8271 35.5382 29.7518C35.5068 29.6765 35.46 29.6086 35.4008 29.5525L29.6162 24.0769ZM23.9164 9.93359H9.91642C9.84199 9.93359 9.76828 9.94826 9.69951 9.97674C9.63074 10.0052 9.56826 10.047 9.51562 10.0996C9.46299 10.1522 9.42124 10.2147 9.39276 10.2835C9.36427 10.3523 9.34961 10.426 9.34961 10.5004C9.34961 10.5748 9.36427 10.6485 9.39276 10.7173C9.42124 10.7861 9.46299 10.8486 9.51562 10.9012C9.56826 10.9538 9.63074 10.9956 9.69951 11.0241C9.76828 11.0526 9.84199 11.0672 9.91642 11.0672H23.9164C23.9909 11.0672 24.0646 11.0526 24.1333 11.0241C24.2021 10.9956 24.2646 10.9538 24.3172 10.9012C24.3699 10.8486 24.4116 10.7861 24.4401 10.7173C24.4686 10.6485 24.4832 10.5748 24.4832 10.5004C24.4832 10.426 24.4686 10.3523 24.4401 10.2835C24.4116 10.2147 24.3699 10.1522 24.3172 10.0996C24.2646 10.047 24.2021 10.0052 24.1333 9.97674C24.0646 9.94826 23.9909 9.93359 23.9164 9.93359ZM30.2984 18.5255L31.0073 17.427L32.1999 19.0171C32.2927 19.1409 32.4309 19.2227 32.584 19.2445C32.7372 19.2664 32.8927 19.2265 33.0165 19.1336C33.1402 19.0408 33.222 18.9026 33.2439 18.7495C33.2657 18.5963 33.2258 18.4408 33.133 18.317L31.9543 16.7455L33.45 16.3554C34.2837 16.0956 34.3543 15.5109 33.6089 15.0489L29.4219 12.4561C28.6765 11.9943 28.1801 12.3361 28.3128 13.2197L29.0608 18.18C29.194 19.0639 29.7478 19.2182 30.2984 18.5255Z" fill="#2D4356"/>
<path d="M5.37607 4.69687L5.65141 4.33491L5.47757 4.23633L5.30082 4.64174H5.29499L5.11561 4.23924L4.93857 4.34045L5.21099 4.69395V4.69979L4.78516 4.64466V4.84154L5.21391 4.7867V4.79254L4.93857 5.14575L5.10366 5.25016L5.29236 4.84154H5.29791L5.47174 5.24724L5.65432 5.14283L5.37607 4.79516V4.78962L5.81357 4.84154V4.64466L5.37607 4.7027V4.69687Z" fill="#1E83E6"/>
<path d="M14.1413 1.92612L14.3145 2.32978L14.4962 2.22595L14.2194 1.87974V1.8742L14.6546 1.92612V1.72983L14.2194 1.78758V1.78174L14.4933 1.42153L14.3204 1.32324L14.1445 1.72691H14.1387L13.9599 1.32616L13.7837 1.42708L14.0549 1.77912V1.78466L13.6309 1.72983V1.92612L14.0579 1.87128V1.87712L13.7837 2.22887L13.9482 2.3327L14.1357 1.92612H14.1413Z" fill="#1E83E6"/>
<path d="M3.87397 23.8493L4.12364 23.5209L3.96614 23.4316L3.80572 23.7994H3.80047L3.63772 23.434L3.47702 23.5261L3.72435 23.8467V23.8519L3.33789 23.8021V23.9808L3.72697 23.931V23.9362L3.47702 24.2568L3.62693 24.3513L3.79785 23.9808H3.8031L3.9606 24.3486L4.12627 24.2541L3.87397 23.9386V23.9333L4.27064 23.9808V23.8021L3.87397 23.8546V23.8493Z" fill="#1E83E6"/>
<path d="M46.1148 14.158V13.9533L45.6598 14.0134V14.0072L45.9462 13.6307L45.7653 13.5283L45.5816 13.9501H45.5755L45.3888 13.5312L45.2048 13.6368L45.488 14.0043V14.0104L45.0449 13.9533V14.158L45.4909 14.1009V14.107L45.2048 14.4745L45.3763 14.583L45.5725 14.158H45.5784L45.7592 14.5798L45.9491 14.4716L45.6598 14.1099V14.1038L46.1148 14.158Z" fill="#1E83E6"/>
<path d="M45.3273 4.16574L45.0263 3.78949V3.78336L45.4997 3.83965V3.62645L45.0263 3.68915V3.68303L45.3244 3.29103L45.1363 3.18457L44.945 3.62324H44.9386L44.7443 3.18749L44.553 3.29745L44.8476 3.67982V3.68624L44.3867 3.62645V3.83965L44.8508 3.78015V3.78657L44.553 4.16895L44.7315 4.28182L44.9356 3.83965H44.9418L45.1299 4.27861L45.3273 4.16574Z" fill="#1E83E6"/>
<path d="M34.4616 44.6245H32.0385C31.8918 44.6363 31.755 44.7028 31.6552 44.8109C31.5554 44.919 31.5 45.0608 31.5 45.2079C31.5 45.355 31.5554 45.4967 31.6552 45.6048C31.755 45.7129 31.8918 45.7794 32.0385 45.7912H34.4616C34.6082 45.7794 34.745 45.7129 34.8448 45.6048C34.9446 45.4967 35 45.355 35 45.2079C35 45.0608 34.9446 44.919 34.8448 44.8109C34.745 44.7028 34.6082 44.6363 34.4616 44.6245ZM16.9616 44.6245H14.5385C14.3918 44.6363 14.255 44.7028 14.1552 44.8109C14.0554 44.919 14 45.0608 14 45.2079C14 45.355 14.0554 45.4967 14.1552 45.6048C14.255 45.7129 14.3918 45.7794 14.5385 45.7912H16.9616C17.1082 45.7794 17.245 45.7129 17.3448 45.6048C17.4446 45.4967 17.5 45.355 17.5 45.2079C17.5 45.0608 17.4446 44.919 17.3448 44.8109C17.245 44.7028 17.1082 44.6363 16.9616 44.6245ZM30.3333 44.6245H18.6667C18.512 44.6245 18.3636 44.686 18.2542 44.7954C18.1448 44.9048 18.0833 45.0532 18.0833 45.2079C18.0833 45.3626 18.1448 45.5109 18.2542 45.6203C18.3636 45.7297 18.512 45.7912 18.6667 45.7912H23.3158V46.3745H21C20.8453 46.3745 20.6969 46.436 20.5875 46.5454C20.4781 46.6548 20.4167 46.8032 20.4167 46.9579C20.4167 47.1126 20.4781 47.2609 20.5875 47.3703C20.6969 47.4797 20.8453 47.5412 21 47.5412H28.2917C28.4464 47.5412 28.5948 47.4797 28.7042 47.3703C28.8136 47.2609 28.875 47.1126 28.875 46.9579C28.875 46.8032 28.8136 46.6548 28.7042 46.5454C28.5948 46.436 28.4464 46.3745 28.2917 46.3745H25.6842V45.7912H30.3333C30.4881 45.7912 30.6364 45.7297 30.7458 45.6203C30.8552 45.5109 30.9167 45.3626 30.9167 45.2079C30.9167 45.0532 30.8552 44.9048 30.7458 44.7954C30.6364 44.686 30.4881 44.6245 30.3333 44.6245ZM21.9297 35.5325C21.9997 35.5637 22.0751 35.5809 22.1517 35.5829C22.2284 35.585 22.3046 35.5719 22.3762 35.5444C22.4477 35.5169 22.5131 35.4756 22.5687 35.4227C22.6242 35.3699 22.6687 35.3066 22.6997 35.2365L27.3663 24.7365C27.4289 24.5952 27.4328 24.4348 27.3773 24.2906C27.3218 24.1464 27.2112 24.0301 27.07 23.9673C26.9288 23.9045 26.7684 23.9003 26.6241 23.9557C26.4798 24.011 26.3634 24.1214 26.3004 24.2626L21.6336 34.7626C21.6025 34.8325 21.5854 34.908 21.5835 34.9846C21.5815 35.0611 21.5947 35.1373 21.6222 35.2088C21.6496 35.2803 21.691 35.3457 21.7437 35.4012C21.7965 35.4568 21.8597 35.5014 21.9297 35.5325Z" fill="#1E83E6"/>
<path d="M35.0007 11.6663C35.645 11.6663 36.1673 11.144 36.1673 10.4997C36.1673 9.85534 35.645 9.33301 35.0007 9.33301C34.3563 9.33301 33.834 9.85534 33.834 10.4997C33.834 11.144 34.3563 11.6663 35.0007 11.6663Z" fill="#1E83E6"/>
<path d="M38.4987 11.6663C39.143 11.6663 39.6654 11.144 39.6654 10.4997C39.6654 9.85534 39.143 9.33301 38.4987 9.33301C37.8544 9.33301 37.332 9.85534 37.332 10.4997C37.332 11.144 37.8544 11.6663 38.4987 11.6663Z" fill="#1E83E6"/>
</svg>
