<svg width="66" height="63" viewBox="0 0 66 63" fill="none" xmlns="http://www.w3.org/2000/svg">
<path d="M21.7266 2.89328C21.9597 2.89328 22.1875 2.82415 22.3813 2.69465C22.5752 2.56515 22.7262 2.38108 22.8154 2.16572C22.9046 1.95037 22.928 1.7134 22.8825 1.48478C22.837 1.25616 22.7248 1.04616 22.5599 0.881329C22.3951 0.716503 22.1851 0.604255 21.9565 0.558779C21.7279 0.513304 21.4909 0.536643 21.2755 0.625847C21.0602 0.71505 20.8761 0.86611 20.7466 1.05993C20.6171 1.25374 20.548 1.48161 20.548 1.7147C20.5483 2.02717 20.6726 2.32674 20.8936 2.54769C21.1145 2.76863 21.4141 2.89292 21.7266 2.89328ZM21.7266 1.12542C21.8431 1.12542 21.957 1.15998 22.054 1.22473C22.1509 1.28948 22.2264 1.38152 22.271 1.48919C22.3156 1.59687 22.3273 1.71536 22.3045 1.82967C22.2818 1.94398 22.2257 2.04898 22.1433 2.13139C22.0608 2.21381 21.9558 2.26993 21.8415 2.29267C21.7272 2.31541 21.6087 2.30374 21.5011 2.25913C21.3934 2.21453 21.3013 2.139 21.2366 2.04209C21.1718 1.94519 21.1373 1.83125 21.1373 1.7147C21.1374 1.55846 21.1996 1.40867 21.31 1.29819C21.4205 1.18771 21.5703 1.12557 21.7266 1.12542ZM52.3694 19.3933C52.214 19.3933 52.0621 19.4394 51.9329 19.5257C51.8037 19.612 51.703 19.7347 51.6435 19.8783C51.584 20.0219 51.5685 20.1799 51.5988 20.3323C51.6291 20.4847 51.704 20.6247 51.8138 20.7346C51.9237 20.8445 52.0637 20.9193 52.2161 20.9496C52.3685 20.9799 52.5265 20.9644 52.6701 20.9049C52.8137 20.8454 52.9364 20.7447 53.0227 20.6155C53.1091 20.4863 53.1551 20.3344 53.1551 20.179C53.1549 19.9707 53.072 19.771 52.9247 19.6237C52.7774 19.4764 52.5777 19.3935 52.3694 19.3933ZM52.3694 20.5718C52.2917 20.5718 52.2158 20.5488 52.1512 20.5056C52.0866 20.4625 52.0362 20.4011 52.0065 20.3293C51.9767 20.2575 51.969 20.1786 51.9841 20.1023C51.9993 20.0261 52.0367 19.9561 52.0916 19.9012C52.1466 19.8463 52.2166 19.8088 52.2928 19.7937C52.369 19.7785 52.448 19.7863 52.5198 19.816C52.5915 19.8458 52.6529 19.8961 52.6961 19.9607C52.7392 20.0253 52.7623 20.1013 52.7623 20.179C52.7622 20.2832 52.7207 20.383 52.6471 20.4567C52.5734 20.5303 52.4736 20.5717 52.3694 20.5718ZM38.6194 10.3576C38.464 10.3576 38.3121 10.4036 38.1829 10.49C38.0537 10.5763 37.953 10.699 37.8935 10.8426C37.834 10.9862 37.8185 11.1441 37.8488 11.2966C37.8791 11.449 37.9539 11.589 38.0638 11.6989C38.1737 11.8087 38.3137 11.8836 38.4661 11.9139C38.6185 11.9442 38.7765 11.9287 38.9201 11.8692C39.0637 11.8097 39.1864 11.709 39.2727 11.5798C39.3591 11.4506 39.4051 11.2987 39.4051 11.1433C39.4049 10.935 39.322 10.7353 39.1747 10.588C39.0274 10.4407 38.8277 10.3578 38.6194 10.3576ZM38.6194 11.5361C38.5417 11.5361 38.4658 11.5131 38.4012 11.4699C38.3366 11.4268 38.2862 11.3654 38.2565 11.2936C38.2267 11.2218 38.219 11.1428 38.2341 11.0666C38.2493 10.9904 38.2867 10.9204 38.3416 10.8655C38.3966 10.8105 38.4666 10.7731 38.5428 10.758C38.619 10.7428 38.698 10.7506 38.7698 10.7803C38.8415 10.8101 38.9029 10.8604 38.9461 10.925C38.9892 10.9896 39.0123 11.0656 39.0123 11.1433C39.0122 11.2474 38.9707 11.3473 38.8971 11.421C38.8234 11.4946 38.7236 11.536 38.6194 11.5361ZM62.1908 1.7147C62.0354 1.7147 61.8835 1.76079 61.7543 1.84712C61.6251 1.93346 61.5244 2.05617 61.4649 2.19974C61.4055 2.34331 61.3899 2.50129 61.4202 2.6537C61.4506 2.80612 61.5254 2.94612 61.6353 3.056C61.7452 3.16589 61.8852 3.24072 62.0376 3.27104C62.19 3.30135 62.348 3.28579 62.4915 3.22632C62.6351 3.16686 62.7578 3.06615 62.8441 2.93694C62.9305 2.80773 62.9766 2.65582 62.9766 2.50042C62.9763 2.29211 62.8935 2.0924 62.7462 1.9451C62.5989 1.7978 62.3992 1.71494 62.1908 1.7147ZM62.1908 2.89328C62.1131 2.89328 62.0372 2.87024 61.9726 2.82707C61.908 2.7839 61.8576 2.72254 61.8279 2.65076C61.7982 2.57897 61.7904 2.49998 61.8055 2.42378C61.8207 2.34757 61.8581 2.27757 61.9131 2.22263C61.968 2.16769 62.038 2.13027 62.1142 2.11511C62.1904 2.09995 62.2694 2.10773 62.3412 2.13747C62.413 2.1672 62.4743 2.21755 62.5175 2.28216C62.5607 2.34676 62.5837 2.42272 62.5837 2.50042C62.5836 2.60458 62.5422 2.70444 62.4685 2.7781C62.3949 2.85175 62.295 2.89317 62.1908 2.89328ZM6.79799 8.78613C6.79799 8.63073 6.75191 8.47882 6.66557 8.34961C6.57924 8.2204 6.45653 8.1197 6.31296 8.06023C6.16939 8.00076 6.01141 7.9852 5.85899 8.01552C5.70658 8.04583 5.56658 8.12067 5.45669 8.23055C5.34681 8.34043 5.27198 8.48043 5.24166 8.63285C5.21134 8.78526 5.2269 8.94324 5.28637 9.08681C5.34584 9.23038 5.44655 9.3531 5.57576 9.43943C5.70497 9.52577 5.85688 9.57185 6.01228 9.57185C6.22059 9.57161 6.4203 9.48875 6.5676 9.34145C6.7149 9.19416 6.79775 8.99444 6.79799 8.78613ZM5.61942 8.78613C5.61942 8.70843 5.64246 8.63248 5.68563 8.56787C5.7288 8.50327 5.79015 8.45292 5.86194 8.42318C5.93372 8.39345 6.01271 8.38567 6.08892 8.40083C6.16513 8.41598 6.23513 8.4534 6.29007 8.50834C6.34501 8.56328 6.38243 8.63328 6.39759 8.70949C6.41274 8.7857 6.40496 8.86469 6.37523 8.93647C6.3455 9.00826 6.29514 9.06962 6.23054 9.11278C6.16593 9.15595 6.08998 9.17899 6.01228 9.17899C5.90812 9.17889 5.80825 9.13746 5.7346 9.06381C5.66095 8.99016 5.61952 8.89029 5.61942 8.78613Z" fill="#2D4356"/>
<path d="M4.27783 24.8979L4.86201 24.1299L4.49312 23.9209L4.11794 24.7813H4.10576L3.72469 23.9268L3.34951 24.1421L3.9274 24.892V24.9042L3.02344 24.7875V25.2055L3.93329 25.0889V25.101L3.34951 25.8506L3.69954 26.0722L4.09947 25.2055H4.11165L4.48054 26.0659L4.8679 25.8447L4.27783 25.1069V25.0948L5.20576 25.2055V24.7875L4.27783 24.9101V24.8979Z" fill="#1E83E6"/>
<path d="M23.6041 11.5634L23.2679 11.9952L23.4698 12.1225L23.7 11.6235H23.7067L23.9192 12.1189L24.1424 11.9916L23.8025 11.5666V11.5595L24.3368 11.6235V11.3827L23.8025 11.4534V11.4464L24.1388 11.004L23.9267 10.8838L23.7106 11.3792H23.7035L23.4839 10.8869L23.2679 11.0111L23.6006 11.4428V11.4499L23.0801 11.3827V11.6235L23.6041 11.5564V11.5634Z" fill="#1E83E6"/>
<path d="M64.1553 18.8878V18.4781L63.2451 18.5987V18.5865L63.8179 17.833L63.456 17.6279L63.0883 18.4718H63.0761L62.7025 17.6338L62.3344 17.8452L62.9013 18.5806V18.5928L62.0146 18.4781V18.8878L62.9072 18.7735V18.7857L62.3344 19.5211L62.6782 19.7384L63.0703 18.8878H63.082L63.4439 19.7321L63.8238 19.5152L63.2451 18.7916V18.7794L64.1553 18.8878Z" fill="#1E83E6"/>
<path d="M45.0787 1.55255L45.5729 0.902372L45.2606 0.725586L44.9435 1.45355H44.9329L44.6108 0.730693L44.293 0.912979L44.7821 1.54744V1.55766L44.0176 1.45905V1.81262L44.7872 1.71362V1.72423L44.293 2.35869L44.5896 2.54609L44.9278 1.81262H44.938L45.2504 2.54059L45.578 2.35359L45.0787 1.72934V1.71873L45.8636 1.81262V1.45905L45.0787 1.56276V1.55255Z" fill="#1E83E6"/>
<path d="M46.4169 59.072H43.1531C42.9556 59.0878 42.7713 59.1775 42.6369 59.3231C42.5025 59.4687 42.4279 59.6595 42.4279 59.8577C42.4279 60.0559 42.5025 60.2467 42.6369 60.3923C42.7713 60.5379 42.9556 60.6276 43.1531 60.6434H46.4169C46.6144 60.6276 46.7987 60.5379 46.9331 60.3923C47.0675 60.2467 47.1422 60.0559 47.1422 59.8577C47.1422 59.6595 47.0675 59.4687 46.9331 59.3231C46.7987 59.1775 46.6144 59.0878 46.4169 59.072ZM22.8455 59.072H19.5817C19.3842 59.0878 19.1999 59.1775 19.0655 59.3231C18.9311 59.4687 18.8564 59.6595 18.8564 59.8577C18.8564 60.0559 18.9311 60.2467 19.0655 60.3923C19.1999 60.5379 19.3842 60.6276 19.5817 60.6434H22.8455C23.043 60.6276 23.2273 60.5379 23.3617 60.3923C23.4961 60.2467 23.5708 60.0559 23.5708 59.8577C23.5708 59.6595 23.4961 59.4687 23.3617 59.3231C23.2273 59.1775 23.043 59.0878 22.8455 59.072ZM40.8565 59.072H25.1422C24.9338 59.072 24.7339 59.1548 24.5866 59.3021C24.4392 59.4495 24.3565 59.6493 24.3565 59.8577C24.3565 60.0661 24.4392 60.2659 24.5866 60.4133C24.7339 60.5606 24.9338 60.6434 25.1422 60.6434H31.4043V61.4291H28.285C28.0766 61.4291 27.8768 61.5119 27.7294 61.6593C27.5821 61.8066 27.4993 62.0065 27.4993 62.2148C27.4993 62.4232 27.5821 62.6231 27.7294 62.7704C27.8768 62.9178 28.0766 63.0006 28.285 63.0006H38.1065C38.3148 63.0006 38.5147 62.9178 38.662 62.7704C38.8094 62.6231 38.8922 62.4232 38.8922 62.2148C38.8922 62.0065 38.8094 61.8066 38.662 61.6593C38.5147 61.5119 38.3148 61.4291 38.1065 61.4291H34.5943V60.6434H40.8565C41.0648 60.6434 41.2647 60.5606 41.412 60.4133C41.5594 60.2659 41.6422 60.0661 41.6422 59.8577C41.6422 59.6493 41.5594 59.4495 41.412 59.3021C41.2647 59.1548 41.0648 59.072 40.8565 59.072ZM51.0707 42.572C51.6923 42.572 52.3 42.3877 52.8168 42.0423C53.3337 41.697 53.7365 41.2061 53.9744 40.6318C54.2122 40.0576 54.2745 39.4256 54.1532 38.816C54.0319 38.2063 53.7326 37.6463 53.2931 37.2068C52.8535 36.7673 52.2935 36.4679 51.6839 36.3467C51.0742 36.2254 50.4423 36.2876 49.868 36.5255C49.2937 36.7634 48.8029 37.1662 48.4576 37.6831C48.1122 38.1999 47.9279 38.8075 47.9279 39.4291C47.9288 40.2624 48.2603 41.0612 48.8494 41.6504C49.4386 42.2396 50.2375 42.571 51.0707 42.572ZM51.0707 37.8577C51.3815 37.8577 51.6854 37.9499 51.9438 38.1225C52.2022 38.2952 52.4036 38.5406 52.5225 38.8278C52.6415 39.1149 52.6726 39.4309 52.612 39.7357C52.5513 40.0405 52.4017 40.3205 52.1819 40.5403C51.9621 40.7601 51.6821 40.9097 51.3773 40.9704C51.0725 41.031 50.7565 40.9999 50.4694 40.8809C50.1822 40.762 49.9368 40.5606 49.7641 40.3022C49.5915 40.0437 49.4993 39.7399 49.4993 39.4291C49.4993 39.0124 49.6649 38.6127 49.9596 38.318C50.2543 38.0233 50.654 37.8577 51.0707 37.8577ZM43.9993 41.7863C44.4655 41.7863 44.9212 41.648 45.3089 41.389C45.6965 41.13 45.9986 40.7619 46.177 40.3312C46.3554 39.9005 46.4021 39.4265 46.3112 38.9693C46.2202 38.512 45.9957 38.092 45.6661 37.7624C45.3364 37.4327 44.9164 37.2082 44.4592 37.1173C44.0019 37.0263 43.528 37.073 43.0973 37.2514C42.6666 37.4298 42.2984 37.7319 42.0394 38.1196C41.7804 38.5072 41.6422 38.9629 41.6422 39.4291C41.6429 40.0541 41.8914 40.6532 42.3333 41.0951C42.7752 41.537 43.3744 41.7856 43.9993 41.7863ZM43.9993 38.6434C44.1547 38.6434 44.3066 38.6895 44.4358 38.7758C44.565 38.8622 44.6657 38.9849 44.7252 39.1285C44.7847 39.272 44.8002 39.43 44.7699 39.5824C44.7396 39.7348 44.6648 39.8748 44.5549 39.9847C44.445 40.0946 44.305 40.1694 44.1526 40.1997C44.0002 40.2301 43.8422 40.2145 43.6986 40.155C43.5551 40.0956 43.4324 39.9949 43.346 39.8656C43.2597 39.7364 43.2136 39.5845 43.2136 39.4291C43.2136 39.2207 43.2964 39.0209 43.4437 38.8735C43.5911 38.7262 43.7909 38.6434 43.9993 38.6434ZM41.2493 18.2148H24.7493C24.5409 18.2148 24.3411 18.2976 24.1937 18.445C24.0464 18.5923 23.9636 18.7922 23.9636 19.0006C23.9636 19.2089 24.0464 19.4088 24.1937 19.5561C24.3411 19.7035 24.5409 19.7863 24.7493 19.7863H41.2493C41.4577 19.7863 41.6575 19.7035 41.8049 19.5561C41.9522 19.4088 42.035 19.2089 42.035 19.0006C42.035 18.7922 41.9522 18.5923 41.8049 18.445C41.6575 18.2976 41.4577 18.2148 41.2493 18.2148Z" fill="#1E83E6"/>
<path d="M41.2496 21.3574H24.7496C24.5412 21.3574 24.3413 21.4402 24.194 21.5876C24.0466 21.7349 23.9639 21.9348 23.9639 22.1431C23.9639 22.3515 24.0466 22.5514 24.194 22.6987C24.3413 22.8461 24.5412 22.9289 24.7496 22.9289H41.2496C41.458 22.9289 41.6578 22.8461 41.8052 22.6987C41.9525 22.5514 42.0353 22.3515 42.0353 22.1431C42.0353 21.9348 41.9525 21.7349 41.8052 21.5876C41.6578 21.4402 41.458 21.3574 41.2496 21.3574Z" fill="#2D4356"/>
<path d="M41.2496 24.5H24.7496C24.5412 24.5 24.3413 24.5828 24.194 24.7301C24.0466 24.8775 23.9639 25.0773 23.9639 25.2857C23.9639 25.4941 24.0466 25.6939 24.194 25.8413C24.3413 25.9886 24.5412 26.0714 24.7496 26.0714H41.2496C41.458 26.0714 41.6578 25.9886 41.8052 25.8413C41.9525 25.6939 42.0353 25.4941 42.0353 25.2857C42.0353 25.0773 41.9525 24.8775 41.8052 24.7301C41.6578 24.5828 41.458 24.5 41.2496 24.5Z" fill="#1E83E6"/>
<path d="M0.785714 57.5011C1.21965 57.5011 1.57143 57.1493 1.57143 56.7154C1.57143 56.2815 1.21965 55.9297 0.785714 55.9297C0.351776 55.9297 0 56.2815 0 56.7154C0 57.1493 0.351776 57.5011 0.785714 57.5011Z" fill="#2D4356"/>
<path d="M4.32171 55.9297H3.14314C2.93475 55.9297 2.7349 56.0125 2.58755 56.1598C2.4402 56.3072 2.35742 56.507 2.35742 56.7154C2.35742 56.9238 2.4402 57.1236 2.58755 57.271C2.7349 57.4183 2.93475 57.5011 3.14314 57.5011H4.32171C4.53009 57.5011 4.72994 57.4183 4.87729 57.271C5.02464 57.1236 5.10742 56.9238 5.10742 56.7154C5.10742 56.507 5.02464 56.3072 4.87729 56.1598C4.72994 56.0125 4.53009 55.9297 4.32171 55.9297ZM62.8574 55.9297H61.6789C61.4705 55.9297 61.2706 56.0125 61.1233 56.1598C60.9759 56.3072 60.8931 56.507 60.8931 56.7154C60.8931 56.9238 60.9759 57.1236 61.1233 57.271C61.2706 57.4183 61.4705 57.5011 61.6789 57.5011H62.8574C63.0658 57.5011 63.2657 57.4183 63.413 57.271C63.5604 57.1236 63.6431 56.9238 63.6431 56.7154C63.6431 56.507 63.5604 56.3072 63.413 56.1598C63.2657 56.0125 63.0658 55.9297 62.8574 55.9297Z" fill="#2D4356"/>
<path d="M65.2144 57.5011C65.6484 57.5011 66.0001 57.1493 66.0001 56.7154C66.0001 56.2815 65.6484 55.9297 65.2144 55.9297C64.7805 55.9297 64.4287 56.2815 64.4287 56.7154C64.4287 57.1493 64.7805 57.5011 65.2144 57.5011Z" fill="#2D4356"/>
<path d="M59.2115 55.9294H55.7853C56.4102 55.9287 57.0094 55.6801 57.4513 55.2382C57.8932 54.7963 58.1417 54.1972 58.1424 53.5723V34.3223C58.1417 33.6973 57.8932 33.0982 57.4513 32.6563C57.0094 32.2144 56.4102 31.9658 55.7853 31.9651H53.2082C53.1387 31.8393 53.0518 31.7238 52.9501 31.6222L49.3003 28.0864C49.0072 27.8025 48.6151 27.6437 48.2069 27.6437H46.3567V17.8223C46.3559 17.0932 46.0659 16.3942 45.5504 15.8786C45.0348 15.3631 44.3358 15.0731 43.6067 15.0723H22.3924C21.6633 15.0731 20.9643 15.3631 20.4488 15.8786C19.9333 16.3942 19.6433 17.0932 19.6424 17.8223V27.6437H17.7922C17.3841 27.6437 16.992 27.8025 16.6988 28.0864L13.049 31.6222C12.9473 31.7238 12.8605 31.8393 12.791 31.9651H10.2139C9.58893 31.9658 8.98979 32.2144 8.54789 32.6563C8.10599 33.0982 7.85743 33.6973 7.85672 34.3223V53.5723C7.85743 54.1972 8.10599 54.7963 8.54789 55.2382C8.98979 55.6801 9.58893 55.9287 10.2139 55.9294H6.78763C6.67586 55.9148 6.56225 55.9242 6.4544 55.957C6.34655 55.9898 6.24694 56.0453 6.16222 56.1196C6.0775 56.194 6.00963 56.2856 5.96313 56.3883C5.91663 56.491 5.89258 56.6024 5.89258 56.7151C5.89258 56.8279 5.91663 56.9393 5.96313 57.042C6.00963 57.1447 6.0775 57.2362 6.16222 57.3106C6.24694 57.385 6.34655 57.4404 6.4544 57.4732C6.56225 57.506 6.67586 57.5154 6.78763 57.5008H59.2115C59.3233 57.5154 59.4369 57.506 59.5448 57.4732C59.6526 57.4404 59.7522 57.385 59.8369 57.3106C59.9217 57.2362 59.9895 57.1447 60.036 57.042C60.0825 56.9393 60.1066 56.8279 60.1066 56.7151C60.1066 56.6024 60.0825 56.491 60.036 56.3883C59.9895 56.2856 59.9217 56.194 59.8369 56.1196C59.7522 56.0453 59.6526 55.9898 59.5448 55.957C59.4369 55.9242 59.3233 55.9148 59.2115 55.9294ZM21.2139 17.8223C21.2139 17.5097 21.338 17.2099 21.5591 16.9889C21.7801 16.7679 22.0799 16.6437 22.3924 16.6437H43.6067C43.9193 16.6437 44.2191 16.7679 44.4401 16.9889C44.6611 17.2099 44.7853 17.5097 44.7853 17.8223V27.6437H21.2139V17.8223ZM17.7922 29.2151H48.2069L51.0457 31.9651H14.9535L17.7922 29.2151ZM9.42815 53.5723V34.3223C9.42815 34.1139 9.51093 33.914 9.65828 33.7667C9.80563 33.6193 10.0055 33.5366 10.2139 33.5366H55.7853C55.9937 33.5366 56.1935 33.6193 56.3409 33.7667C56.4882 33.914 56.571 34.1139 56.571 34.3223V53.5723C56.571 53.7806 56.4882 53.9805 56.3409 54.1278C56.1935 54.2752 55.9937 54.358 55.7853 54.358H47.5353V46.108C47.5353 45.6912 47.3697 45.2915 47.075 44.9968C46.7803 44.7021 46.3806 44.5366 45.9639 44.5366H20.0353C19.6185 44.5366 19.2188 44.7021 18.9241 44.9968C18.6294 45.2915 18.4639 45.6912 18.4639 46.108V54.358H10.2139C10.0055 54.358 9.80563 54.2752 9.65828 54.1278C9.51093 53.9805 9.42815 53.7806 9.42815 53.5723ZM23.1782 55.9294V49.2508H42.821V55.9294H23.1782ZM44.3924 55.9294V49.2508C44.3924 48.8341 44.2269 48.4344 43.9322 48.1397C43.6375 47.845 43.2378 47.6794 42.821 47.6794H23.1782C22.7614 47.6794 22.3617 47.845 22.067 48.1397C21.7723 48.4344 21.6067 48.8341 21.6067 49.2508V55.9294H18.4639C18.8806 55.9294 19.2803 55.7638 19.575 55.4691C19.8697 55.1744 20.0353 54.7747 20.0353 54.358V46.108H45.9639V54.358C45.9639 54.7747 46.1294 55.1744 46.4241 55.4691C46.7188 55.7638 47.1185 55.9294 47.5353 55.9294H44.3924Z" fill="#2D4356"/>
</svg>
