<svg width="70" height="70" viewBox="0 0 70 70" fill="none" xmlns="http://www.w3.org/2000/svg">
<g clip-path="url(#clip0_503_5774)">
<path d="M23.4286 9.67414C23.6759 9.67414 23.9175 9.60083 24.1231 9.46348C24.3287 9.32613 24.4889 9.1309 24.5835 8.90249C24.6781 8.67409 24.7028 8.42275 24.6546 8.18028C24.6064 7.9378 24.4873 7.71507 24.3125 7.54026C24.1377 7.36544 23.915 7.24639 23.6725 7.19816C23.43 7.14993 23.1787 7.17468 22.9503 7.26929C22.7219 7.3639 22.5266 7.52412 22.3893 7.72968C22.2519 7.93524 22.1786 8.17691 22.1786 8.42414C22.179 8.75554 22.3108 9.07327 22.5452 9.30761C22.7795 9.54194 23.0972 9.67376 23.4286 9.67414ZM23.4286 7.79914C23.5522 7.79914 23.6731 7.8358 23.7759 7.90447C23.8786 7.97315 23.9587 8.07076 24.0061 8.18496C24.0534 8.29917 24.0657 8.42483 24.0416 8.54607C24.0175 8.66731 23.958 8.77867 23.8706 8.86608C23.7832 8.95349 23.6718 9.01302 23.5506 9.03713C23.4293 9.06125 23.3037 9.04887 23.1894 9.00157C23.0752 8.95426 22.9776 8.87415 22.909 8.77137C22.8403 8.66859 22.8036 8.54775 22.8036 8.42414C22.8038 8.25843 22.8697 8.09955 22.9869 7.98238C23.104 7.8652 23.2629 7.7993 23.4286 7.79914ZM68.3333 12.3825C68.1685 12.3825 68.0074 12.4313 67.8704 12.5229C67.7333 12.6145 67.6265 12.7446 67.5634 12.8969C67.5004 13.0492 67.4839 13.2167 67.516 13.3784C67.5482 13.54 67.6275 13.6885 67.7441 13.8051C67.8606 13.9216 68.0091 14.001 68.1708 14.0331C68.3324 14.0653 68.5 14.0488 68.6522 13.9857C68.8045 13.9226 68.9347 13.8158 69.0262 13.6788C69.1178 13.5417 69.1667 13.3806 69.1667 13.2158C69.1664 12.9949 69.0785 12.7831 68.9223 12.6268C68.7661 12.4706 68.5543 12.3827 68.3333 12.3825ZM68.3333 13.6325C68.2509 13.6325 68.1704 13.608 68.1018 13.5623C68.0333 13.5165 67.9799 13.4514 67.9484 13.3753C67.9169 13.2991 67.9086 13.2153 67.9247 13.1345C67.9408 13.0537 67.9804 12.9795 68.0387 12.9212C68.097 12.8629 68.1712 12.8232 68.2521 12.8071C68.3329 12.7911 68.4167 12.7993 68.4928 12.8309C68.5689 12.8624 68.634 12.9158 68.6798 12.9843C68.7256 13.0528 68.75 13.1334 68.75 13.2158C68.7499 13.3263 68.706 13.4322 68.6278 13.5103C68.5497 13.5884 68.4438 13.6324 68.3333 13.6325ZM58.6458 19.7887C58.481 19.7887 58.3199 19.8376 58.1829 19.9291C58.0458 20.0207 57.939 20.1508 57.8759 20.3031C57.8129 20.4554 57.7964 20.6229 57.8285 20.7846C57.8607 20.9462 57.94 21.0947 58.0566 21.2113C58.1731 21.3278 58.3216 21.4072 58.4833 21.4393C58.6449 21.4715 58.8125 21.455 58.9647 21.3919C59.117 21.3288 59.2472 21.222 59.3387 21.085C59.4303 20.948 59.4792 20.7868 59.4792 20.622C59.4789 20.4011 59.391 20.1893 59.2348 20.033C59.0786 19.8768 58.8668 19.7889 58.6458 19.7887ZM58.6458 21.0387C58.5634 21.0387 58.4829 21.0142 58.4143 20.9685C58.3458 20.9227 58.2924 20.8576 58.2609 20.7815C58.2294 20.7053 58.2211 20.6216 58.2372 20.5407C58.2533 20.4599 58.2929 20.3857 58.3512 20.3274C58.4095 20.2691 58.4837 20.2294 58.5646 20.2134C58.6454 20.1973 58.7292 20.2055 58.8053 20.2371C58.8814 20.2686 58.9465 20.322 58.9923 20.3905C59.0381 20.4591 59.0625 20.5396 59.0625 20.622C59.0624 20.7325 59.0185 20.8384 58.9403 20.9165C58.8622 20.9946 58.7563 21.0386 58.6458 21.0387ZM53.3168 1.22461C53.152 1.22461 52.9909 1.27348 52.8539 1.36505C52.7168 1.45662 52.61 1.58677 52.5469 1.73904C52.4839 1.89131 52.4674 2.05887 52.4995 2.22052C52.5317 2.38217 52.611 2.53065 52.7276 2.6472C52.8441 2.76374 52.9926 2.84311 53.1543 2.87526C53.3159 2.90742 53.4835 2.89092 53.6357 2.82784C53.788 2.76477 53.9182 2.65796 54.0097 2.52092C54.1013 2.38388 54.1502 2.22276 54.1502 2.05794C54.1499 1.83701 54.062 1.62519 53.9058 1.46897C53.7496 1.31274 53.5378 1.22486 53.3168 1.22461ZM53.3168 2.47461C53.2344 2.47461 53.1539 2.45017 53.0853 2.40439C53.0168 2.3586 52.9634 2.29353 52.9319 2.21739C52.9003 2.14126 52.8921 2.05748 52.9082 1.97666C52.9242 1.89583 52.9639 1.82159 53.0222 1.76332C53.0805 1.70504 53.1547 1.66536 53.2355 1.64928C53.3164 1.63321 53.4002 1.64146 53.4763 1.67299C53.5524 1.70453 53.6175 1.75793 53.6633 1.82646C53.7091 1.89498 53.7335 1.97553 53.7335 2.05794C53.7334 2.16842 53.6895 2.27433 53.6113 2.35245C53.5332 2.43057 53.4273 2.4745 53.3168 2.47461ZM4.79167 20.622C4.79167 20.4572 4.74279 20.2961 4.65123 20.159C4.55966 20.022 4.42951 19.9152 4.27724 19.8521C4.12496 19.789 3.95741 19.7725 3.79576 19.8047C3.63411 19.8369 3.48562 19.9162 3.36908 20.0328C3.25253 20.1493 3.17317 20.2978 3.14101 20.4594C3.10886 20.6211 3.12536 20.7886 3.18843 20.9409C3.25151 21.0932 3.35832 21.2233 3.49536 21.3149C3.6324 21.4065 3.79352 21.4554 3.95833 21.4554C4.17927 21.4551 4.39108 21.3672 4.54731 21.211C4.70354 21.0548 4.79141 20.843 4.79167 20.622ZM3.54167 20.622C3.54167 20.5396 3.5661 20.4591 3.61189 20.3905C3.65767 20.322 3.72275 20.2686 3.79888 20.2371C3.87502 20.2055 3.9588 20.1973 4.03962 20.2134C4.12045 20.2294 4.19469 20.2691 4.25296 20.3274C4.31123 20.3857 4.35092 20.4599 4.36699 20.5407C4.38307 20.6216 4.37482 20.7053 4.34328 20.7815C4.31175 20.8576 4.25834 20.9227 4.18982 20.9685C4.1213 21.0142 4.04074 21.0387 3.95833 21.0387C3.84786 21.0386 3.74194 20.9946 3.66383 20.9165C3.58571 20.8384 3.54178 20.7325 3.54167 20.622Z" fill="#2D4356"/>
<path d="M7.58042 4.02299L8.19958 3.20799L7.80833 2.98633L7.41083 3.89883H7.3975L6.99375 2.99299L6.59542 3.22091L7.20875 4.01633V4.02966L6.25 3.90549V4.34883L7.215 4.22508V4.23799L6.59542 5.03341L6.96708 5.26799L7.39125 4.34883H7.40417L7.795 5.26174L8.20625 5.02674L7.58042 4.24466V4.23133L8.56417 4.34883V3.90549L7.58042 4.03591V4.02299Z" fill="#1E83E6"/>
<path d="M35.3478 1.46497L34.9912 1.92289L35.2049 2.05789L35.4491 1.52872H35.4566L35.682 2.05414L35.9187 1.91914L35.5582 1.46872V1.46122L36.1249 1.52872V1.27331L35.5582 1.34831V1.34081L35.9149 0.871641L35.6895 0.744141L35.4603 1.26956H35.4528L35.2203 0.747891L34.9912 0.879141L35.3441 1.33706V1.34456L34.792 1.27331V1.52872L35.3478 1.45747V1.46497Z" fill="#1E83E6"/>
<path d="M56.1352 9.63215V9.19756L55.1698 9.32548V9.31257L55.7777 8.5134L55.394 8.2959L55.004 9.1909H54.9907L54.5948 8.30215L54.204 8.52631L54.8057 9.30631V9.31923L53.8652 9.19756V9.63215L54.8119 9.5109V9.52382L54.204 10.3038L54.5686 10.5342L54.9848 9.63215H54.9969L55.3806 10.5276L55.784 10.2976L55.1698 9.53006V9.51715L56.1352 9.63215Z" fill="#1E83E6"/>
<path d="M43.4174 7.08467L43.9416 6.39551L43.6107 6.20801L43.2741 6.97967H43.2628L42.9212 6.21342L42.5845 6.40634L43.1032 7.07926V7.09051L42.292 6.98551V7.36051L43.1087 7.25592V7.26676L42.5845 7.93967L42.8987 8.13842L43.2574 7.36051H43.2682L43.5995 8.13259L43.947 7.93426L43.4174 7.27217V7.26134L44.2503 7.36051V6.98551L43.4174 7.09592V7.08467Z" fill="#1E83E6"/>
<path d="M49.2308 65.0908H45.7692C45.5597 65.1076 45.3643 65.2027 45.2217 65.3571C45.0792 65.5115 45 65.714 45 65.9242C45 66.1343 45.0792 66.3368 45.2217 66.4912C45.3643 66.6456 45.5597 66.7407 45.7692 66.7575H49.2308C49.4403 66.7407 49.6358 66.6456 49.7783 66.4912C49.9209 66.3368 50 66.1343 50 65.9242C50 65.714 49.9209 65.5115 49.7783 65.3571C49.6358 65.2027 49.4403 65.1076 49.2308 65.0908ZM24.2308 65.0908H20.7692C20.5597 65.1076 20.3643 65.2027 20.2217 65.3571C20.0792 65.5115 20 65.714 20 65.9242C20 66.1343 20.0792 66.3368 20.2217 66.4912C20.3643 66.6456 20.5597 66.7407 20.7692 66.7575H24.2308C24.4403 66.7407 24.6358 66.6456 24.7783 66.4912C24.9209 66.3368 25 66.1343 25 65.9242C25 65.714 24.9209 65.5115 24.7783 65.3571C24.6358 65.2027 24.4403 65.1076 24.2308 65.0908ZM43.3334 65.0908H26.6667C26.4457 65.0908 26.2337 65.1786 26.0774 65.3349C25.9211 65.4912 25.8333 65.7031 25.8333 65.9242C25.8333 66.1452 25.9211 66.3571 26.0774 66.5134C26.2337 66.6697 26.4457 66.7575 26.6667 66.7575H33.3083V67.5908H30C29.779 67.5908 29.567 67.6786 29.4108 67.8349C29.2545 67.9912 29.1667 68.2031 29.1667 68.4242C29.1667 68.6452 29.2545 68.8571 29.4108 69.0134C29.567 69.1697 29.779 69.2575 30 69.2575H40.4167C40.6377 69.2575 40.8497 69.1697 41.0059 69.0134C41.1622 68.8571 41.25 68.6452 41.25 68.4242C41.25 68.2031 41.1622 67.9912 41.0059 67.8349C40.8497 67.6786 40.6377 67.5908 40.4167 67.5908H36.6917V66.7575H43.3334C43.5544 66.7575 43.7663 66.6697 43.9226 66.5134C44.0789 66.3571 44.1667 66.1452 44.1667 65.9242C44.1667 65.7031 44.0789 65.4912 43.9226 65.3349C43.7663 65.1786 43.5544 65.0908 43.3334 65.0908Z" fill="#1E83E6"/>
<path d="M35.6583 56.2622L34.792 54.5068L33.9258 56.2622L31.9883 56.5439L33.3904 57.9102L33.0591 59.8397L34.792 58.9285L36.5249 59.8397L36.1937 57.9102L37.5958 56.5439L35.6583 56.2622Z" fill="#1E83E6"/>
<path d="M28.5743 56.2622L27.708 54.5068L26.8418 56.2622L24.9043 56.5439L26.3064 57.9102L25.9751 59.8397L27.708 58.9285L29.441 59.8397L29.1097 57.9102L30.5118 56.5439L28.5743 56.2622Z" fill="#2D4356"/>
<path d="M21.4913 56.2622L20.625 54.5068L19.7588 56.2622L17.8213 56.5439L19.2234 57.9102L18.8921 59.8397L20.625 58.9285L22.358 59.8397L22.0267 57.9102L23.4288 56.5439L21.4913 56.2622Z" fill="#1E83E6"/>
<path d="M50.2413 56.2622L49.375 54.5068L48.5088 56.2622L46.5713 56.5439L47.9734 57.9102L47.6421 59.8397L49.375 58.9285L51.108 59.8397L50.7767 57.9102L52.1788 56.5439L50.2413 56.2622Z" fill="#1E83E6"/>
<path d="M43.1583 56.2622L42.292 54.5068L41.4258 56.2622L39.4883 56.5439L40.8904 57.9102L40.5591 59.8397L42.292 58.9285L44.025 59.8397L43.6937 57.9102L45.0958 56.5439L43.1583 56.2622Z" fill="#2D4356"/>
<path d="M34.9995 20.0899C35.2228 20.0876 35.436 19.9967 35.5923 19.8372C35.7485 19.6778 35.8351 19.4628 35.8329 19.2395V10.9402C35.8351 10.8294 35.8152 10.7192 35.7743 10.6161C35.7335 10.513 35.6724 10.4192 35.5948 10.34C35.5172 10.2608 35.4246 10.1979 35.3224 10.1549C35.2202 10.112 35.1104 10.0898 34.9995 10.0898C34.8886 10.0898 34.7789 10.112 34.6767 10.1549C34.5744 10.1979 34.4818 10.2608 34.4042 10.34C34.3266 10.4192 34.2656 10.513 34.2247 10.6161C34.1838 10.7192 34.1639 10.8294 34.1662 10.9402V19.2395C34.164 19.4628 34.2505 19.6778 34.4068 19.8372C34.563 19.9967 34.7763 20.0876 34.9995 20.0899Z" fill="#1E83E6"/>
<path d="M23.5145 24.0853C23.6708 24.2416 23.8827 24.3293 24.1037 24.3293C24.3247 24.3294 24.5366 24.2416 24.6929 24.0853C24.8492 23.929 24.937 23.7171 24.937 23.4961C24.937 23.2751 24.8492 23.0632 24.6929 22.9069L18.9428 17.157C18.7864 17.0012 18.5746 16.9139 18.3539 16.9141C18.1332 16.9143 17.9216 17.002 17.7655 17.1581C17.6095 17.3142 17.5217 17.5258 17.5215 17.7465C17.5213 17.9672 17.6086 18.179 17.7644 18.3354L23.5145 24.0853ZM45.8953 24.3294C46.0048 24.3296 46.1132 24.3081 46.2143 24.2662C46.3154 24.2243 46.4072 24.1628 46.4845 24.0853L52.2346 18.3354C52.3902 18.179 52.4774 17.9672 52.4771 17.7466C52.4768 17.526 52.389 17.3146 52.233 17.1586C52.0771 17.0026 51.8656 16.9148 51.645 16.9145C51.4244 16.9142 51.2126 17.0014 51.0562 17.157L45.3061 22.9069C45.1896 23.0235 45.1103 23.1719 45.0781 23.3336C45.046 23.4952 45.0625 23.6627 45.1255 23.815C45.1886 23.9672 45.2954 24.0974 45.4324 24.189C45.5694 24.2805 45.7305 24.3294 45.8953 24.3294V24.3294Z" fill="#2D4356"/>
<path d="M0.833333 63.4235C1.29357 63.4235 1.66667 63.0504 1.66667 62.5902C1.66667 62.1299 1.29357 61.7568 0.833333 61.7568C0.373096 61.7568 0 62.1299 0 62.5902C0 63.0504 0.373096 63.4235 0.833333 63.4235Z" fill="#2D4356"/>
<path d="M4.58333 61.7568H3.33333C3.11232 61.7568 2.90036 61.8446 2.74408 62.0009C2.5878 62.1572 2.5 62.3692 2.5 62.5902C2.5 62.8112 2.5878 63.0231 2.74408 63.1794C2.90036 63.3357 3.11232 63.4235 3.33333 63.4235H4.58333C4.80435 63.4235 5.01631 63.3357 5.17259 63.1794C5.32887 63.0231 5.41667 62.8112 5.41667 62.5902C5.41667 62.3692 5.32887 62.1572 5.17259 62.0009C5.01631 61.8446 4.80435 61.7568 4.58333 61.7568ZM66.6667 61.7568H65.4167C65.1956 61.7568 64.9837 61.8446 64.8274 62.0009C64.6711 62.1572 64.5833 62.3692 64.5833 62.5902C64.5833 62.8112 64.6711 63.0231 64.8274 63.1794C64.9837 63.3357 65.1956 63.4235 65.4167 63.4235H66.6667C66.8877 63.4235 67.0996 63.3357 67.2559 63.1794C67.4122 63.0231 67.5 62.8112 67.5 62.5902C67.5 62.3692 67.4122 62.1572 67.2559 62.0009C67.0996 61.8446 66.8877 61.7568 66.6667 61.7568Z" fill="#2D4356"/>
<path d="M69.1663 63.4235C69.6266 63.4235 69.9997 63.0504 69.9997 62.5902C69.9997 62.1299 69.6266 61.7568 69.1663 61.7568C68.7061 61.7568 68.333 62.1299 68.333 62.5902C68.333 63.0504 68.7061 63.4235 69.1663 63.4235Z" fill="#2D4356"/>
<path d="M62.8004 61.7562H54.9981C54.9982 61.7503 54.9999 61.7449 54.9999 61.739V52.4779C54.9993 52.0314 54.8217 51.6033 54.506 51.2877C54.1902 50.972 53.7621 50.7945 53.3156 50.794H47.9132C49.991 48.2671 51.3081 45.2017 51.7108 41.9551C52.1136 38.7084 51.5856 35.4142 50.1882 32.4561C48.7909 29.498 46.5817 26.9978 43.8182 25.2469C41.0546 23.496 37.8504 22.5664 34.5789 22.5664C31.3074 22.5664 28.1032 23.496 25.3396 25.2469C22.5761 26.9978 20.367 29.498 18.9696 32.4561C17.5722 35.4142 17.0442 38.7084 17.447 41.9551C17.8498 45.2017 19.1668 48.2671 21.2446 50.794H16.6841C16.2376 50.7945 15.8095 50.972 15.4937 51.2877C15.178 51.6033 15.0004 52.0314 14.9998 52.4779V61.7391C14.9998 61.745 15.0015 61.7503 15.0016 61.7562H7.1993C7.08075 61.7408 6.96026 61.7507 6.84587 61.7855C6.73148 61.8203 6.62584 61.8791 6.53598 61.958C6.44613 62.0369 6.37414 62.134 6.32483 62.2429C6.27551 62.3518 6.25 62.47 6.25 62.5896C6.25 62.7091 6.27551 62.8273 6.32483 62.9362C6.37414 63.0452 6.44613 63.1423 6.53598 63.2212C6.62584 63.3 6.73148 63.3588 6.84587 63.3936C6.96026 63.4284 7.08075 63.4384 7.1993 63.4229H62.8004C62.9189 63.4384 63.0394 63.4284 63.1538 63.3936C63.2682 63.3588 63.3739 63.3 63.4637 63.2212C63.5536 63.1423 63.6256 63.0452 63.6749 62.9362C63.7242 62.8273 63.7497 62.7091 63.7497 62.5896C63.7497 62.47 63.7242 62.3518 63.6749 62.2429C63.6256 62.134 63.5536 62.0369 63.4637 61.958C63.3739 61.8791 63.2682 61.8203 63.1538 61.7855C63.0394 61.7507 62.9189 61.7407 62.8004 61.7562ZM18.9998 39.849C18.9986 37.3216 19.6123 34.8318 20.7879 32.5945C21.9636 30.3572 23.666 28.4395 25.7481 27.0069C27.8303 25.5742 30.2297 24.6697 32.7395 24.3713C35.2492 24.0729 37.7938 24.3896 40.1539 25.2941C42.5139 26.1985 44.6185 27.6636 46.2859 29.5628C47.9534 31.4621 49.1338 33.7386 49.7252 36.1958C50.3167 38.6531 50.3013 41.2173 49.6807 43.6673C49.06 46.1173 47.8525 48.3795 46.1625 50.2587C44.6479 49.0861 42.8745 48.2934 40.9906 47.9468C39.1635 47.6175 38.9168 45.3372 38.9076 45.2434L38.8894 45.0427C40.2697 43.4403 41.2691 41.546 41.8123 39.5021C42.0278 38.7224 42.1378 37.9175 42.1394 37.1086C42.1383 36.7554 42.1134 36.4027 42.0648 36.0529C42.6643 34.7509 42.7823 33.2784 42.3978 31.8976C42.3039 31.5825 42.0999 31.3115 41.8229 31.1342C41.546 30.9569 41.2145 30.885 40.889 30.9315C39.977 31.0257 38.0037 30.4074 36.9675 29.993C32.6986 28.1616 29.6263 30.2376 28.441 31.7599C26.61 32.5645 26.313 34.8604 26.4235 36.793C26.4192 36.8982 26.4116 37.0031 26.4116 37.1086C26.468 40.08 27.5404 42.9425 29.4503 45.2196C29.5598 45.3447 29.6773 45.4575 29.7936 45.5721C29.6548 46.2343 29.193 47.6894 27.7827 47.9443C25.9934 48.2744 24.3004 49.0003 22.8277 50.0688C20.3519 47.2407 18.9911 43.6076 18.9998 39.849ZM30.6662 40.2963C30.7656 40.3044 30.8656 40.2948 30.9616 40.2679C31.3261 40.1652 31.5813 40.0936 32.5379 37.5633C33.456 38.1831 34.4927 38.6059 35.5824 38.8051C36.6721 39.0043 37.7913 38.9755 38.8693 38.7206C38.8985 38.7125 38.9272 38.7027 38.9552 38.6914C39.4661 38.4908 39.9525 38.2324 40.4048 37.9215C40.3617 38.3049 40.2893 38.6845 40.1882 39.0569C39.533 41.4457 38.2669 43.5472 36.7147 44.8229C34.963 46.2625 32.3288 45.9493 30.7172 44.1105C29.7855 43.0015 29.0825 41.7192 28.6488 40.3373L30.6662 40.2963ZM28.3642 38.6589C27.9865 36.7691 27.8105 33.7327 29.2421 33.2538C29.4141 33.1953 29.563 33.0836 29.6672 32.9348C30.1407 32.3196 30.7491 31.8213 31.4455 31.4784C32.1419 31.1354 32.9078 30.9569 33.6841 30.9566C34.591 30.9705 35.4854 31.1704 36.3119 31.5441C36.3181 31.5469 36.3245 31.5494 36.3309 31.5519C36.6298 31.6719 39.1921 32.6828 40.8389 32.6215C41.1129 33.942 41.0385 36.0188 38.3775 37.1086C37.3822 37.3303 36.3477 37.3047 35.3646 37.034C34.3815 36.7634 33.4797 36.2559 32.7381 35.5559C32.6368 35.4587 32.5128 35.3884 32.3773 35.3513C32.2419 35.3143 32.0993 35.3117 31.9626 35.3438C31.8259 35.3759 31.6994 35.4417 31.5947 35.5352C31.4899 35.6287 31.4102 35.7469 31.3627 35.8791C31.0003 36.8887 30.5352 38.0731 30.2758 38.6199L28.3642 38.6589ZM31.2159 46.7139C31.6353 46.9376 32.0811 47.1077 32.5428 47.2202C33.7461 47.51 35.001 47.5108 36.2046 47.2224C36.6693 47.1094 37.1179 46.9381 37.5397 46.7127C37.9316 47.8169 38.8025 49.2635 40.7085 49.6068C41.858 49.8271 42.9655 50.2278 43.9899 50.794H24.7707C25.8003 50.2282 26.9119 49.8267 28.0655 49.6039C29.9567 49.2623 30.8243 47.8173 31.2159 46.7139ZM16.6841 52.4779H53.3156L53.3167 61.739H16.6841L16.6841 52.4779Z" fill="#2D4356"/>
</g>
<defs>
<clipPath id="clip0_503_5774">
<rect width="70" height="70" fill="white"/>
</clipPath>
</defs>
</svg>
