<svg width="67" height="63" viewBox="0 0 67 63" fill="none" xmlns="http://www.w3.org/2000/svg">
<path d="M39.2864 21.9404C39.8496 22.1732 40.4552 22.2859 41.0644 22.2715C41.6737 22.2571 42.2732 22.1159 42.8248 21.8568C43.4411 21.5583 43.9895 21.1363 44.436 20.617C44.8824 20.0977 45.2174 19.4923 45.4201 18.8382L46.3127 16.0771C47.1752 13.4097 45.8913 10.4308 43.4514 9.43691L42.8264 9.1817C42.263 8.94905 41.6574 8.83638 41.0481 8.85085C40.4388 8.86532 39.8392 9.00662 39.2876 9.26574C38.6713 9.56425 38.1229 9.98623 37.6764 10.5055C37.23 11.0248 36.895 11.6302 36.6923 12.2843L35.7997 15.0454C34.9375 17.7129 36.2211 20.6914 38.6614 21.686L39.2864 21.9404ZM37.3026 15.5312L38.1952 12.7701C38.3309 12.3226 38.5569 11.9077 38.8594 11.5511C39.1619 11.1945 39.5344 10.9039 39.9538 10.6971C40.3282 10.5217 40.7365 10.4305 41.1499 10.43C41.5205 10.4307 41.8874 10.5034 42.2303 10.6439L42.8553 10.8991C44.5468 11.5881 45.4236 13.693 44.8097 15.5913L43.9171 18.3524C43.7815 18.7999 43.5555 19.2148 43.253 19.5714C42.9505 19.9279 42.578 20.2186 42.1585 20.4253C41.8037 20.5921 41.4179 20.6828 41.0259 20.6919C40.6339 20.7009 40.2443 20.628 39.8821 20.4778L39.2571 20.2233C37.5656 19.5344 36.6888 17.4291 37.3026 15.5312L37.3026 15.5312Z" fill="#1E83E6"/>
<path d="M33.1586 2.82926C33.3929 2.82926 33.6218 2.75979 33.8166 2.62966C34.0114 2.49952 34.1632 2.31455 34.2528 2.09814C34.3425 1.88173 34.3659 1.6436 34.3202 1.41386C34.2745 1.18412 34.1617 0.973092 33.9961 0.807459C33.8304 0.641827 33.6194 0.529029 33.3897 0.483331C33.1599 0.437633 32.9218 0.461087 32.7054 0.550727C32.489 0.640367 32.304 0.792167 32.1739 0.98693C32.0437 1.18169 31.9743 1.41067 31.9743 1.64491C31.9746 1.95891 32.0995 2.25994 32.3216 2.48197C32.5436 2.704 32.8446 2.8289 33.1586 2.82926ZM33.1586 1.05274C33.2757 1.05274 33.3902 1.08747 33.4876 1.15254C33.585 1.21761 33.6609 1.3101 33.7057 1.4183C33.7505 1.52651 33.7623 1.64557 33.7394 1.76044C33.7166 1.87531 33.6602 1.98083 33.5774 2.06364C33.4945 2.14646 33.389 2.20286 33.2742 2.22571C33.1593 2.24856 33.0402 2.23683 32.932 2.19201C32.8238 2.14719 32.7313 2.07129 32.6663 1.97391C32.6012 1.87652 32.5665 1.76204 32.5665 1.64491C32.5666 1.48791 32.6291 1.33738 32.7401 1.22636C32.8511 1.11534 33.0016 1.0529 33.1586 1.05274ZM14.4724 0C14.3162 0 14.1635 0.046307 14.0337 0.133065C13.9039 0.219823 13.8027 0.343136 13.7429 0.487409C13.6831 0.631682 13.6675 0.790436 13.698 0.943596C13.7284 1.09676 13.8036 1.23744 13.9141 1.34786C14.0245 1.45829 14.1652 1.53348 14.3183 1.56395C14.4715 1.59441 14.6302 1.57878 14.7745 1.51902C14.9188 1.45926 15.0421 1.35806 15.1289 1.22822C15.2156 1.09837 15.2619 0.945721 15.2619 0.78956C15.2617 0.580229 15.1784 0.379541 15.0304 0.231521C14.8824 0.0835017 14.6817 0.000239273 14.4724 0ZM14.4724 1.18434C14.3943 1.18434 14.318 1.16119 14.253 1.11781C14.1881 1.07443 14.1375 1.01277 14.1076 0.940636C14.0778 0.8685 14.0699 0.789122 14.0852 0.712543C14.1004 0.635963 14.138 0.56562 14.1932 0.510409C14.2484 0.455198 14.3188 0.417599 14.3953 0.402366C14.4719 0.387133 14.5513 0.394951 14.6234 0.424831C14.6956 0.454711 14.7572 0.505311 14.8006 0.570232C14.844 0.635154 14.8671 0.71148 14.8671 0.78956C14.867 0.89423 14.8254 0.994584 14.7514 1.0686C14.6774 1.14261 14.577 1.18424 14.4724 1.18434ZM54.1264 0.328982C53.9702 0.328982 53.8176 0.375289 53.6877 0.462047C53.5579 0.548805 53.4567 0.672118 53.3969 0.816391C53.3372 0.960664 53.3215 1.11942 53.352 1.27258C53.3825 1.42574 53.4577 1.56642 53.5681 1.67685C53.6785 1.78727 53.8192 1.86247 53.9723 1.89293C54.1255 1.9234 54.2843 1.90776 54.4285 1.848C54.5728 1.78824 54.6961 1.68704 54.7829 1.5572C54.8696 1.42736 54.9159 1.2747 54.9159 1.11854C54.9157 0.909212 54.8324 0.708523 54.6844 0.560503C54.5364 0.412484 54.3357 0.329221 54.1264 0.328982ZM54.1264 1.51332C54.0483 1.51332 53.972 1.49017 53.9071 1.44679C53.8421 1.40341 53.7915 1.34175 53.7617 1.26962C53.7318 1.19748 53.724 1.1181 53.7392 1.04152C53.7544 0.964945 53.792 0.894602 53.8472 0.839391C53.9024 0.78418 53.9728 0.746581 54.0494 0.731348C54.1259 0.716115 54.2053 0.723933 54.2775 0.753813C54.3496 0.783693 54.4113 0.834293 54.4546 0.899214C54.498 0.964136 54.5212 1.04046 54.5212 1.11854C54.5211 1.22321 54.4794 1.32357 54.4054 1.39758C54.3314 1.47159 54.2311 1.51322 54.1264 1.51332ZM45.3754 5.19343C45.2193 5.19343 45.0666 5.23974 44.9368 5.3265C44.8069 5.41325 44.7057 5.53657 44.646 5.68084C44.5862 5.82511 44.5706 5.98387 44.601 6.13703C44.6315 6.29019 44.7067 6.43087 44.8171 6.5413C44.9275 6.65172 45.0682 6.72692 45.2214 6.75738C45.3745 6.78785 45.5333 6.77221 45.6776 6.71245C45.8218 6.65269 45.9452 6.55149 46.0319 6.42165C46.1187 6.29181 46.165 6.13915 46.165 5.98299C46.1647 5.77366 46.0815 5.57297 45.9335 5.42495C45.7854 5.27693 45.5848 5.19367 45.3754 5.19343ZM45.3754 6.37777C45.2973 6.37777 45.221 6.35462 45.1561 6.31124C45.0912 6.26786 45.0406 6.2062 45.0107 6.13407C44.9808 6.06193 44.973 5.98255 44.9882 5.90597C45.0035 5.82939 45.0411 5.75905 45.0963 5.70384C45.1515 5.64863 45.2218 5.61103 45.2984 5.5958C45.375 5.58056 45.4544 5.58838 45.5265 5.61826C45.5986 5.64814 45.6603 5.69874 45.7037 5.76366C45.747 5.82859 45.7702 5.90491 45.7702 5.98299C45.7701 6.08766 45.7285 6.18802 45.6545 6.26203C45.5804 6.33604 45.4801 6.37767 45.3754 6.37777ZM9.8008 16.3176C9.8008 16.1614 9.75449 16.0088 9.66774 15.8789C9.58098 15.7491 9.45766 15.6479 9.31339 15.5881C9.16912 15.5284 9.01036 15.5127 8.8572 15.5432C8.70405 15.5737 8.56336 15.6489 8.45294 15.7593C8.34251 15.8697 8.26732 16.0104 8.23685 16.1635C8.20639 16.3167 8.22202 16.4755 8.28178 16.6197C8.34154 16.764 8.44274 16.8873 8.57258 16.9741C8.70243 17.0608 8.85508 17.1071 9.01124 17.1071C9.22057 17.1069 9.42126 17.0236 9.56928 16.8756C9.7173 16.7276 9.80056 16.5269 9.8008 16.3176ZM8.61646 16.3176C8.61646 16.2395 8.63961 16.1632 8.68299 16.0983C8.72637 16.0333 8.78803 15.9827 8.86016 15.9529C8.9323 15.923 9.01168 15.9152 9.08826 15.9304C9.16484 15.9456 9.23518 15.9832 9.29039 16.0384C9.3456 16.0936 9.3832 16.164 9.39843 16.2406C9.41367 16.3171 9.40585 16.3965 9.37597 16.4687C9.34609 16.5408 9.29549 16.6024 9.23057 16.6458C9.16565 16.6892 9.08932 16.7124 9.01124 16.7124C8.90657 16.7123 8.80622 16.6706 8.7322 16.5966C8.65819 16.5226 8.61656 16.4222 8.61646 16.3176Z" fill="#2D4356"/>
<path d="M22.8367 4.52909L23.4237 3.7569L23.053 3.54688L22.6764 4.41144H22.6638L22.2809 3.5528L21.9038 3.76914L22.4846 4.52277V4.5354L21.5762 4.41776V4.83781L22.4909 4.72056V4.73279L21.9038 5.48643L22.256 5.70869L22.6575 4.83781H22.6697L23.0404 5.70238L23.4297 5.48011L22.8367 4.73911V4.72648L23.7692 4.83781V4.41776L22.8367 4.54133V4.52909Z" fill="#1E83E6"/>
<path d="M3.1448 5.3109L2.80687 5.74476L3.00939 5.87307L3.24073 5.3713H3.24784L3.46141 5.86951L3.68526 5.74121L3.34416 5.31445V5.30735L3.88107 5.3713V5.1297L3.34416 5.20076V5.19365L3.6821 4.74913L3.46852 4.62793L3.25139 5.12575H3.24429L3.024 4.63148L2.80687 4.75623L3.14125 5.1901V5.1972L2.61816 5.1297V5.3713L3.1448 5.30379V5.3109Z" fill="#1E83E6"/>
<path d="M56.2762 15.4497V15.0375L55.3614 15.1587V15.1465L55.937 14.3893L55.5734 14.1836L55.2039 15.0316H55.1917L54.8163 14.1895L54.4463 14.4015L55.016 15.1405V15.1528L54.125 15.0375V15.4497L55.0219 15.3348V15.3466L54.4463 16.0856L54.7914 16.304L55.1858 15.4497H55.1976L55.5612 16.2976L55.943 16.0797L55.3614 15.3525V15.3407L56.2762 15.4497Z" fill="#1E83E6"/>
<path d="M64.0233 6.75875L64.52 6.10538L64.2065 5.92773L63.8879 6.65926H63.8773L63.5531 5.93287L63.2342 6.11604L63.7257 6.75361V6.76388L62.957 6.66479V7.02009L63.7308 6.921V6.93127L63.2342 7.56884L63.5318 7.75715L63.8721 7.02009H63.8824L64.1959 7.75162L64.5251 7.5637L64.0233 6.9364V6.92613L64.8125 7.02009V6.66479L64.0233 6.76901V6.75875Z" fill="#1E83E6"/>
<path d="M0.78956 57.4072C1.22562 57.4072 1.57912 57.0537 1.57912 56.6177C1.57912 56.1816 1.22562 55.8281 0.78956 55.8281C0.353498 55.8281 0 56.1816 0 56.6177C0 57.0537 0.353498 57.4072 0.78956 57.4072Z" fill="#2D4356"/>
<path d="M4.34304 55.8281H3.1587C2.9493 55.8281 2.74847 55.9113 2.6004 56.0594C2.45233 56.2075 2.36914 56.4083 2.36914 56.6177C2.36914 56.8271 2.45233 57.0279 2.6004 57.176C2.74847 57.3241 2.9493 57.4072 3.1587 57.4072H4.34304C4.55245 57.4072 4.75327 57.3241 4.90134 57.176C5.04942 57.0279 5.1326 56.8271 5.1326 56.6177C5.1326 56.4083 5.04942 56.2075 4.90134 56.0594C4.75327 55.9113 4.55245 55.8281 4.34304 55.8281ZM63.1653 55.8281H61.9809C61.7715 55.8281 61.5707 55.9113 61.4226 56.0594C61.2746 56.2075 61.1914 56.4083 61.1914 56.6177C61.1914 56.8271 61.2746 57.0279 61.4226 57.176C61.5707 57.3241 61.7715 57.4072 61.9809 57.4072H63.1653C63.3747 57.4072 63.5755 57.3241 63.7236 57.176C63.8717 57.0279 63.9548 56.8271 63.9548 56.6177C63.9548 56.4083 63.8717 56.2075 63.7236 56.0594C63.5755 55.9113 63.3747 55.8281 63.1653 55.8281Z" fill="#2D4356"/>
<path d="M65.5337 57.4072C65.9698 57.4072 66.3233 57.0537 66.3233 56.6177C66.3233 56.1816 65.9698 55.8281 65.5337 55.8281C65.0976 55.8281 64.7441 56.1816 64.7441 56.6177C64.7441 57.0537 65.0976 57.4072 65.5337 57.4072Z" fill="#2D4356"/>
<path d="M46.6456 58.9873H43.3658C43.1673 59.0032 42.9821 59.0933 42.8471 59.2396C42.712 59.3859 42.637 59.5777 42.637 59.7769C42.637 59.976 42.712 60.1678 42.8471 60.3141C42.9821 60.4604 43.1673 60.5505 43.3658 60.5664H46.6456C46.844 60.5505 47.0293 60.4604 47.1643 60.3141C47.2994 60.1678 47.3744 59.976 47.3744 59.7769C47.3744 59.5777 47.2994 59.3859 47.1643 59.2396C47.0293 59.0933 46.844 59.0032 46.6456 58.9873ZM22.9588 58.9873H19.679C19.4805 59.0032 19.2953 59.0933 19.1603 59.2396C19.0252 59.3859 18.9502 59.5777 18.9502 59.7769C18.9502 59.976 19.0252 60.1678 19.1603 60.3141C19.2953 60.4604 19.4805 60.5505 19.679 60.5664H22.9588C23.1572 60.5505 23.3425 60.4604 23.4775 60.3141C23.6126 60.1678 23.6876 59.976 23.6876 59.7769C23.6876 59.5777 23.6126 59.3859 23.4775 59.2396C23.3425 59.0933 23.1572 59.0032 22.9588 58.9873ZM41.0579 58.9873H25.2667C25.0573 58.9873 24.8565 59.0705 24.7084 59.2186C24.5603 59.3666 24.4771 59.5675 24.4771 59.7769C24.4771 59.9863 24.5603 60.1871 24.7084 60.3352C24.8565 60.4832 25.0573 60.5664 25.2667 60.5664H31.5595V61.356H28.4249C28.2155 61.356 28.0147 61.4392 27.8666 61.5872C27.7186 61.7353 27.6354 61.9361 27.6354 62.1455C27.6354 62.355 27.7186 62.5558 27.8666 62.7038C28.0147 62.8519 28.2155 62.9351 28.4249 62.9351H38.2944C38.5038 62.9351 38.7047 62.8519 38.8527 62.7038C39.0008 62.5558 39.084 62.355 39.084 62.1455C39.084 61.9361 39.0008 61.7353 38.8527 61.5872C38.7047 61.4392 38.5038 61.356 38.2944 61.356H34.7651V60.5664H41.0579C41.2673 60.5664 41.4681 60.4832 41.6162 60.3352C41.7643 60.1871 41.8475 59.9863 41.8475 59.7769C41.8475 59.5675 41.7643 59.3666 41.6162 59.2186C41.4681 59.0705 41.2673 58.9873 41.0579 58.9873Z" fill="#1E83E6"/>
<path d="M59.5008 55.8278H37.4315C37.9669 55.0768 38.206 54.1545 38.1029 53.238L36.5694 39.746L40.5863 30.9481L49.2486 36.9911C49.9362 37.4772 50.7831 37.6835 51.6172 37.5681C52.4514 37.4526 53.2104 37.0241 53.7402 36.3695C54.2699 35.7149 54.5308 34.8833 54.4698 34.0434C54.4088 33.2035 54.0305 32.4182 53.4117 31.8471L43.8969 23.0743C43.382 23.3637 42.8274 23.5761 42.2508 23.7046L52.3413 33.0083C52.5212 33.1735 52.6639 33.3751 52.76 33.5997C52.8562 33.8243 52.9035 34.0667 52.8988 34.311C52.8942 34.5552 52.8378 34.7957 52.7332 35.0165C52.6286 35.2372 52.4784 35.4333 52.2923 35.5916C51.9977 35.8437 51.6276 35.9907 51.2402 36.0097C50.8529 36.0286 50.4703 35.9183 50.1524 35.6961L40.7132 29.1111C40.6183 29.0448 40.51 29.0003 40.3959 28.9805C40.2818 28.9608 40.1648 28.9664 40.0532 28.9969C39.9415 29.0275 39.8379 29.0822 39.7497 29.1572C39.6616 29.2322 39.591 29.3257 39.543 29.431L35.0418 39.2899C34.9823 39.4202 34.9594 39.5643 34.9755 39.7066L36.5336 53.4161C36.5694 53.7184 36.5402 54.0249 36.4477 54.3149C36.3553 54.605 36.2018 54.8719 35.9976 55.0977C35.7919 55.3275 35.54 55.5113 35.2583 55.6371C34.9767 55.763 34.6717 55.8279 34.3632 55.8278H34.3625C33.8359 55.8277 33.3271 55.6377 32.9294 55.2926C32.5317 54.9475 32.2718 54.4705 32.1974 53.9492L30.3062 40.0482C30.2893 39.9232 30.2426 39.8041 30.17 39.7008C30.0975 39.5976 30.0012 39.5132 29.8894 39.4549L14.599 31.4677C14.0842 31.1943 13.6989 30.7276 13.5279 30.1703C13.3568 29.613 13.4141 29.0105 13.687 28.4953C13.9599 27.9802 14.4261 27.5944 14.9833 27.4228C15.5405 27.2512 16.143 27.3078 16.6584 27.5802L28.1928 33.5958C28.2901 33.6465 28.3969 33.6764 28.5063 33.6836C28.6158 33.6907 28.7255 33.675 28.8285 33.6375C28.9316 33.5999 29.0257 33.5413 29.1048 33.4653C29.184 33.3894 29.2464 33.2978 29.2882 33.1964L33.5643 22.8148C33.6229 22.6722 33.6386 22.5156 33.6093 22.3642C33.5801 22.2128 33.5072 22.0733 33.3996 21.9628L23.3315 11.6359C23.1452 11.4451 23.0056 11.2137 22.9238 10.9598C22.842 10.706 22.8201 10.4366 22.8599 10.1729C22.8997 9.90917 23 9.65825 23.1531 9.43985C23.3062 9.22145 23.5078 9.0415 23.7422 8.91414L24.1844 8.67128C24.5058 8.49436 24.8747 8.42299 25.2389 8.46727C25.603 8.51154 25.9441 8.66922 26.2137 8.91799L33.99 16.0879C34.0346 15.5688 34.1369 15.0562 34.2949 14.5597L34.3793 14.2988L27.2844 7.75722C26.7716 7.28383 26.1229 6.98372 25.4301 6.89938C24.7373 6.81504 24.0355 6.95074 23.4241 7.28726L22.9822 7.53014C22.5345 7.77461 22.1494 8.1194 21.8572 8.53752C21.565 8.95564 21.3735 9.43574 21.2978 9.9402C21.2221 10.4447 21.2643 10.9598 21.4209 11.4453C21.5775 11.9308 21.8444 12.3734 22.2006 12.7385L31.9063 22.6933L28.157 31.7962L17.3887 26.18C16.9495 25.9473 16.4687 25.8035 15.9738 25.757C15.4789 25.7104 14.9797 25.7619 14.5048 25.9085C14.0299 26.0552 13.5886 26.2941 13.2061 26.6116C12.8237 26.9291 12.5077 27.3189 12.2761 27.7587C12.0446 28.1985 11.902 28.6797 11.8568 29.1747C11.8115 29.6696 11.8643 30.1687 12.0121 30.6432C12.16 31.1178 12.4001 31.5585 12.7185 31.9401C13.037 32.3217 13.4276 32.6368 13.868 32.8672L28.7963 40.6654L30.6328 54.162C30.7157 54.7637 30.9451 55.3357 31.3008 55.8278H6.82033C6.70801 55.8132 6.59385 55.8226 6.48547 55.8556C6.37709 55.8885 6.27699 55.9443 6.19186 56.019C6.10673 56.0937 6.03852 56.1858 5.9918 56.289C5.94507 56.3921 5.9209 56.5041 5.9209 56.6174C5.9209 56.7307 5.94507 56.8427 5.9918 56.9459C6.03852 57.049 6.10673 57.1411 6.19186 57.2158C6.27699 57.2905 6.37709 57.3463 6.48547 57.3792C6.59385 57.4122 6.70801 57.4216 6.82033 57.407H59.5008C59.6132 57.4216 59.7273 57.4122 59.8357 57.3792C59.9441 57.3463 60.0442 57.2905 60.1293 57.2158C60.2144 57.1411 60.2826 57.049 60.3294 56.9459C60.3761 56.8427 60.4003 56.7307 60.4003 56.6174C60.4003 56.5041 60.3761 56.3921 60.3294 56.289C60.2826 56.1858 60.2144 56.0937 60.1293 56.019C60.0442 55.9443 59.9441 55.8885 59.8357 55.8556C59.7273 55.8226 59.6132 55.8132 59.5008 55.8278Z" fill="#2D4356"/>
</svg>
