<svg width="68" height="68" viewBox="0 0 68 68" fill="none" xmlns="http://www.w3.org/2000/svg">
<path d="M33.9998 31.8584C33.3594 31.8584 32.7333 32.0483 32.2008 32.4041C31.6683 32.7599 31.2533 33.2656 31.0082 33.8573C30.7631 34.449 30.699 35.1001 30.8239 35.7282C30.9489 36.3563 31.2573 36.9333 31.7101 37.3862C32.163 37.839 32.74 38.1474 33.3681 38.2724C33.9962 38.3973 34.6473 38.3332 35.239 38.0881C35.8307 37.843 36.3364 37.428 36.6922 36.8955C37.048 36.363 37.2379 35.7369 37.2379 35.0965C37.2369 34.238 36.8955 33.4149 36.2884 32.8079C35.6814 32.2009 34.8583 31.8594 33.9998 31.8584ZM33.9998 36.7155C33.6796 36.7155 33.3666 36.6206 33.1003 36.4427C32.8341 36.2648 32.6266 36.0119 32.504 35.7161C32.3815 35.4202 32.3494 35.0947 32.4119 34.7806C32.4743 34.4666 32.6285 34.1781 32.855 33.9517C33.0814 33.7252 33.3699 33.571 33.684 33.5086C33.998 33.4461 34.3236 33.4781 34.6194 33.6007C34.9152 33.7232 35.1681 33.9307 35.346 34.197C35.5239 34.4632 35.6189 34.7763 35.6189 35.0965C35.6184 35.5258 35.4477 35.9373 35.1442 36.2409C34.8406 36.5444 34.4291 36.7151 33.9998 36.7155Z" fill="#1E83E6"/>
<path d="M41.2384 35.9057H42.0957C42.3104 35.9057 42.5163 35.8204 42.6681 35.6686C42.8199 35.5168 42.9052 35.3109 42.9052 35.0962C42.9052 34.8815 42.8199 34.6756 42.6681 34.5237C42.5163 34.3719 42.3104 34.2866 42.0957 34.2866H41.2384C41.0526 32.6458 40.3156 31.1165 39.1479 29.9488C37.9802 28.7811 36.4509 28.044 34.81 27.8582V27.0009C34.81 26.7862 34.7247 26.5803 34.5729 26.4285C34.4211 26.2767 34.2152 26.1914 34.0005 26.1914C33.7858 26.1914 33.5799 26.2767 33.428 26.4285C33.2762 26.5803 33.1909 26.7862 33.1909 27.0009V27.8582C31.5501 28.044 30.0208 28.7811 28.8531 29.9488C27.6854 31.1165 26.9484 32.6458 26.7625 34.2866H25.9052C25.6905 34.2866 25.4846 34.3719 25.3328 34.5237C25.181 34.6756 25.0957 34.8815 25.0957 35.0962C25.0957 35.3109 25.181 35.5168 25.3328 35.6686C25.4846 35.8204 25.6905 35.9057 25.9052 35.9057H26.7625C26.9484 37.5466 27.6854 39.0758 28.8531 40.2435C30.0208 41.4112 31.5501 42.1482 33.1909 42.3341V43.1914C33.1909 43.4061 33.2762 43.612 33.428 43.7638C33.5799 43.9156 33.7858 44.0009 34.0005 44.0009C34.2152 44.0009 34.4211 43.9156 34.5729 43.7638C34.7247 43.612 34.81 43.4061 34.81 43.1914V42.3341C36.4508 42.1482 37.9801 41.4112 39.1478 40.2435C40.3155 39.0758 41.0525 37.5466 41.2384 35.9057ZM34.0005 40.7628C32.8797 40.7628 31.7841 40.4305 30.8522 39.8078C29.9204 39.1852 29.194 38.3002 28.7651 37.2647C28.3363 36.2293 28.224 35.0899 28.4427 33.9907C28.6613 32.8914 29.201 31.8817 29.9935 31.0892C30.786 30.2967 31.7957 29.757 32.895 29.5384C33.9942 29.3197 35.1336 29.432 36.169 29.8609C37.2044 30.2897 38.0895 31.0161 38.7121 31.9479C39.3348 32.8798 39.6671 33.9754 39.6671 35.0962C39.6654 36.5985 39.0679 38.0389 38.0055 39.1012C36.9432 40.1636 35.5028 40.7611 34.0005 40.7628Z" fill="#1E83E6"/>
<path d="M55.8048 10.7818C55.9103 10.7835 56.0151 10.7641 56.113 10.7249C56.211 10.6857 56.3001 10.6274 56.3753 10.5533C56.4505 10.4793 56.5102 10.3911 56.551 10.2938C56.5918 10.1964 56.6128 10.092 56.6128 9.98647C56.6128 9.88096 56.5918 9.7765 56.551 9.67918C56.5102 9.58186 56.4505 9.49362 56.3753 9.41961C56.3001 9.34559 56.211 9.28727 56.113 9.24805C56.0151 9.20883 55.9103 9.18949 55.8048 9.19115H52.6232C52.4111 9.1895 52.2069 9.27198 52.0555 9.42054C51.9041 9.5691 51.8177 9.77163 51.8153 9.98376L51.8151 10.0364C49.2748 9.5095 46.6893 9.23134 44.0951 9.2059L39.9209 9.19115C39.1716 9.18323 38.4488 9.46866 37.9071 9.98647C37.6914 10.1939 37.5197 10.4427 37.4021 10.7179C37.2845 10.9931 37.2235 11.2891 37.2226 11.5884C37.2251 11.8579 37.2788 12.1245 37.381 12.3739C36.676 12.3761 35.999 12.6504 35.4912 13.1394C35.2723 13.3507 35.0983 13.604 34.9793 13.884C34.8604 14.164 34.799 14.4651 34.7988 14.7693C34.801 15.0401 34.8537 15.3082 34.954 15.5599C34.2714 15.5817 33.622 15.8599 33.1353 16.3389C32.8935 16.5746 32.7017 16.8564 32.5711 17.1677C32.4405 17.479 32.3738 17.8134 32.3751 18.1509C32.3768 18.489 32.4477 18.8231 32.5835 19.1327H31.76C31.0669 19.1301 30.401 19.4027 29.9087 19.8907C29.6644 20.13 29.4707 20.416 29.3393 20.7317C29.2078 21.0474 29.1412 21.3864 29.1434 21.7283C29.152 22.4156 29.4319 23.0717 29.922 23.5536C30.4121 24.0355 31.0727 24.3043 31.76 24.3015H43.3258C43.3553 24.3026 43.3841 24.3102 43.4102 24.3238C43.4364 24.3375 43.4591 24.3568 43.4769 24.3803C43.4895 24.3935 43.4985 24.4097 43.5029 24.4274C43.5074 24.4451 43.5071 24.4637 43.5021 24.4813C43.4986 24.4941 43.495 24.5069 43.4923 24.5201L42.6055 28.2952C42.4973 28.6548 42.4635 29.0328 42.5062 29.4059C42.5489 29.779 42.6671 30.1396 42.8536 30.4656C43.0401 30.7916 43.2911 31.0761 43.5912 31.302C43.8913 31.5278 44.2342 31.6902 44.5991 31.7792C44.964 31.8682 45.3432 31.8819 45.7135 31.8196C46.0839 31.7573 46.4377 31.6202 46.7534 31.4167C47.069 31.2132 47.34 30.9476 47.5496 30.636C47.7593 30.3244 47.9033 29.9733 47.9729 29.6043C48.4008 27.4313 49.4291 23.9508 51.7653 23.4653L51.7652 23.5042C51.765 23.6092 51.7857 23.7131 51.8261 23.81C51.8666 23.9069 51.9259 23.9948 52.0007 24.0684C52.1534 24.2185 52.359 24.3024 52.5731 24.3022H55.8592C55.9647 24.3039 56.0695 24.2845 56.1675 24.2453C56.2654 24.2061 56.3546 24.1478 56.4298 24.0738C56.505 23.9998 56.5647 23.9115 56.6055 23.8142C56.6462 23.7169 56.6672 23.6124 56.6672 23.5069C56.6672 23.4014 56.6462 23.2969 56.6055 23.1996C56.5647 23.1023 56.505 23.014 56.4298 22.94C56.3546 22.866 56.2654 22.8077 56.1675 22.7685C56.0695 22.7293 55.9647 22.7099 55.8592 22.7116H53.3838L53.4284 10.7818L55.8048 10.7818ZM51.7713 21.8592C49.1832 22.1725 47.2799 24.7679 46.3867 29.3014C46.3345 29.5716 46.1904 29.8155 45.9788 29.9916C45.7673 30.1676 45.5013 30.265 45.2261 30.2672C45.0036 30.2672 44.7858 30.203 44.5988 30.0823C44.3922 29.9274 44.2394 29.7117 44.1617 29.4655C44.084 29.2193 44.0854 28.9549 44.1657 28.7095C44.1692 28.6971 44.1728 28.6843 44.1755 28.6711L45.0623 24.8949C45.1313 24.6433 45.1405 24.379 45.0891 24.1233C45.0378 23.8675 44.9273 23.6273 44.7665 23.4219C44.5964 23.2014 44.3782 23.0227 44.1285 22.8994C43.8788 22.7762 43.6042 22.7117 43.3258 22.7108H31.76C31.4964 22.7112 31.2434 22.6075 31.0559 22.4221C30.8685 22.2368 30.7618 21.9849 30.7592 21.7213C30.7582 21.5895 30.7838 21.4589 30.8345 21.3372C30.8851 21.2155 30.9597 21.1052 31.0539 21.013C31.2416 20.8267 31.4956 20.7225 31.76 20.7233H41.6701C41.7756 20.725 41.8804 20.7056 41.9783 20.6664C42.0763 20.6272 42.1655 20.5689 42.2407 20.4948C42.3158 20.4208 42.3756 20.3326 42.4163 20.2353C42.4571 20.138 42.4781 20.0335 42.4781 19.928C42.4781 19.8225 42.4571 19.718 42.4163 19.6207C42.3756 19.5234 42.3158 19.4351 42.2407 19.3611C42.1655 19.2871 42.0763 19.2288 41.9783 19.1896C41.8804 19.1503 41.7756 19.131 41.6701 19.1327H35.0588C34.7866 19.1404 34.5223 19.0412 34.3226 18.8561C34.1229 18.6711 34.0038 18.4151 33.9909 18.1432C33.991 18.0158 34.0167 17.8898 34.0665 17.7726C34.1162 17.6554 34.189 17.5494 34.2805 17.4608C34.4905 17.2556 34.7734 17.1421 35.0671 17.1451L43.3321 17.1444C43.4376 17.146 43.5424 17.1267 43.6403 17.0875C43.7383 17.0483 43.8274 16.9899 43.9026 16.9159C43.9778 16.8419 44.0376 16.7537 44.0783 16.6563C44.1191 16.559 44.1401 16.4546 44.1401 16.349C44.1401 16.2435 44.1191 16.1391 44.0783 16.0418C44.0376 15.9444 43.9778 15.8562 43.9026 15.7822C43.8274 15.7082 43.7383 15.6498 43.6403 15.6106C43.5424 15.5714 43.4376 15.5521 43.3321 15.5537H37.4108C37.1744 15.5766 36.9384 15.5068 36.7525 15.359C36.5667 15.2112 36.4455 14.997 36.4147 14.7615C36.4161 14.6675 36.4365 14.5748 36.4746 14.4888C36.5127 14.4029 36.5677 14.3255 36.6364 14.2613C36.8458 14.0648 37.1236 13.9578 37.4108 13.9631H43.686C43.7915 13.9647 43.8962 13.9454 43.9942 13.9062C44.0921 13.8669 44.1813 13.8086 44.2565 13.7346C44.3317 13.6606 44.3914 13.5724 44.4322 13.475C44.4729 13.3777 44.4939 13.2733 44.4939 13.1677C44.4939 13.0622 44.4729 12.9578 44.4322 12.8605C44.3914 12.7631 44.3317 12.6749 44.2565 12.6009C44.1813 12.5269 44.0921 12.4685 43.9942 12.4293C43.8962 12.3901 43.7915 12.3708 43.686 12.3724H39.9209C39.3363 12.3724 38.8408 12.0094 38.8384 11.5798C38.8409 11.4909 38.8611 11.4034 38.8979 11.3224C38.9347 11.2415 38.9873 11.1687 39.0527 11.1084C39.2878 10.8912 39.5982 10.7741 39.9182 10.7818L44.0919 10.7965C46.6868 10.8278 49.272 11.1184 51.8091 11.664L51.7713 21.8592ZM33.9971 4.23282C34.2373 4.23282 34.4721 4.16161 34.6718 4.02818C34.8715 3.89475 35.0271 3.70511 35.119 3.48322C35.2109 3.26134 35.235 3.01719 35.1881 2.78164C35.1412 2.54609 35.0256 2.32973 34.8558 2.15991C34.686 1.99009 34.4696 1.87444 34.234 1.82758C33.9985 1.78073 33.7543 1.80478 33.5325 1.89668C33.3106 1.98859 33.1209 2.14423 32.9875 2.34392C32.8541 2.5436 32.7829 2.77837 32.7829 3.01854C32.7832 3.34047 32.9113 3.64912 33.1389 3.87676C33.3666 4.1044 33.6752 4.23245 33.9971 4.23282ZM33.9971 2.41139C34.1172 2.41139 34.2346 2.447 34.3345 2.51372C34.4343 2.58043 34.5121 2.67525 34.5581 2.78619C34.604 2.89713 34.616 3.01921 34.5926 3.13698C34.5692 3.25476 34.5114 3.36294 34.4265 3.44785C34.3416 3.53276 34.2334 3.59059 34.1156 3.61401C33.9978 3.63744 33.8757 3.62542 33.7648 3.57946C33.6539 3.53351 33.559 3.45569 33.4923 3.35585C33.4256 3.256 33.39 3.13862 33.39 3.01854C33.3902 2.85756 33.4542 2.70322 33.568 2.5894C33.6818 2.47557 33.8362 2.41155 33.9971 2.41139ZM14.8384 1.33203C14.6783 1.33203 14.5218 1.37951 14.3887 1.46846C14.2555 1.55741 14.1518 1.68384 14.0905 1.83176C14.0292 1.97968 14.0132 2.14245 14.0444 2.29949C14.0757 2.45652 14.1528 2.60076 14.266 2.71397C14.3792 2.82719 14.5235 2.90429 14.6805 2.93552C14.8375 2.96676 15.0003 2.95073 15.1482 2.88946C15.2961 2.82819 15.4226 2.72443 15.5115 2.5913C15.6005 2.45818 15.6479 2.30166 15.6479 2.14155C15.6477 1.92693 15.5623 1.72117 15.4106 1.56941C15.2588 1.41764 15.053 1.33228 14.8384 1.33203ZM14.8384 2.54632C14.7584 2.54632 14.6801 2.52258 14.6135 2.4781C14.547 2.43363 14.4951 2.37041 14.4645 2.29645C14.4338 2.22249 14.4258 2.14111 14.4414 2.06259C14.457 1.98407 14.4956 1.91195 14.5522 1.85535C14.6088 1.79874 14.6809 1.76019 14.7594 1.74457C14.838 1.72895 14.9194 1.73697 14.9933 1.7676C15.0673 1.79824 15.1305 1.85012 15.175 1.91668C15.2194 1.98324 15.2432 2.0615 15.2432 2.14155C15.2431 2.24887 15.2004 2.35176 15.1245 2.42765C15.0486 2.50353 14.9457 2.54621 14.8384 2.54632ZM55.4951 1.66933C55.3349 1.66933 55.1784 1.71681 55.0453 1.80576C54.9122 1.89471 54.8084 2.02114 54.7471 2.16906C54.6859 2.31698 54.6698 2.47975 54.7011 2.63679C54.7323 2.79382 54.8094 2.93806 54.9226 3.05127C55.0358 3.16449 55.1801 3.24159 55.3371 3.27282C55.4942 3.30406 55.6569 3.28803 55.8048 3.22676C55.9528 3.16549 56.0792 3.06173 56.1681 2.9286C56.2571 2.79548 56.3046 2.63896 56.3046 2.47886C56.3043 2.26423 56.219 2.05847 56.0672 1.90671C55.9154 1.75494 55.7097 1.66958 55.4951 1.66933ZM55.4951 2.88362C55.415 2.88362 55.3367 2.85988 55.2702 2.8154C55.2036 2.77093 55.1517 2.70771 55.1211 2.63375C55.0905 2.55979 55.0824 2.47841 55.0981 2.39989C55.1137 2.32137 55.1522 2.24925 55.2088 2.19265C55.2654 2.13604 55.3376 2.09749 55.4161 2.08187C55.4946 2.06625 55.576 2.07427 55.6499 2.1049C55.7239 2.13554 55.7871 2.18742 55.8316 2.25398C55.8761 2.32054 55.8998 2.3988 55.8998 2.47886C55.8997 2.58617 55.857 2.68906 55.7811 2.76495C55.7053 2.84083 55.6024 2.88351 55.4951 2.88362ZM46.1433 4.92307C45.9832 4.92307 45.8267 4.97054 45.6936 5.0595C45.5605 5.14845 45.4567 5.27488 45.3954 5.4228C45.3342 5.57072 45.3181 5.73349 45.3494 5.89052C45.3806 6.04755 45.4577 6.1918 45.5709 6.30501C45.6841 6.41822 45.8284 6.49532 45.9854 6.52656C46.1424 6.55779 46.3052 6.54176 46.4531 6.48049C46.6011 6.41922 46.7275 6.31546 46.8164 6.18234C46.9054 6.04921 46.9529 5.8927 46.9529 5.73259C46.9526 5.51797 46.8673 5.3122 46.7155 5.16044C46.5637 5.00868 46.358 4.92331 46.1433 4.92307ZM46.1433 6.13735C46.0633 6.13735 45.985 6.11361 45.9185 6.06914C45.8519 6.02466 45.8 5.96145 45.7694 5.88749C45.7388 5.81353 45.7307 5.73214 45.7464 5.65363C45.762 5.57511 45.8005 5.50299 45.8571 5.44638C45.9137 5.38977 45.9859 5.35122 46.0644 5.33561C46.1429 5.31999 46.2243 5.328 46.2982 5.35864C46.3722 5.38927 46.4354 5.44115 46.4799 5.50772C46.5244 5.57428 46.5481 5.65254 46.5481 5.73259C46.548 5.83991 46.5053 5.9428 46.4294 6.01868C46.3535 6.09457 46.2507 6.13725 46.1433 6.13735ZM10.0487 18.0622C10.0487 17.9021 10.0013 17.7456 9.91231 17.6124C9.82335 17.4793 9.69692 17.3756 9.549 17.3143C9.40108 17.253 9.23831 17.237 9.08128 17.2682C8.92425 17.2995 8.78001 17.3766 8.66679 17.4898C8.55358 17.603 8.47648 17.7472 8.44524 17.9043C8.41401 18.0613 8.43004 18.2241 8.49131 18.372C8.55258 18.5199 8.65634 18.6463 8.78946 18.7353C8.92259 18.8242 9.0791 18.8717 9.23921 18.8717C9.45384 18.8715 9.6596 18.7861 9.81136 18.6343C9.96312 18.4826 10.0485 18.2768 10.0487 18.0622ZM8.83445 18.0622C8.83445 17.9821 8.85819 17.9039 8.90266 17.8373C8.94714 17.7708 9.01035 17.7189 9.08432 17.6882C9.15828 17.6576 9.23966 17.6496 9.31818 17.6652C9.39669 17.6808 9.46881 17.7194 9.52542 17.776C9.58203 17.8326 9.62058 17.9047 9.6362 17.9832C9.65181 18.0617 9.6438 18.1431 9.61316 18.2171C9.58253 18.291 9.53065 18.3543 9.46408 18.3987C9.39752 18.4432 9.31927 18.4669 9.23921 18.4669C9.1319 18.4668 9.029 18.4242 8.95312 18.3483C8.87724 18.2724 8.83456 18.1695 8.83445 18.0622Z" fill="#2D4356"/>
<path d="M24.1137 7.89336L24.7152 7.10205L24.3355 6.88672L23.949 7.77315H23.936L23.5438 6.89279L23.1572 7.1146L23.7526 7.88729V7.89984L22.8213 7.77962V8.20988L23.7587 8.08967V8.10262L23.1572 8.87491L23.5179 9.10319L23.9299 8.20988H23.9425L24.3225 9.09672L24.7216 8.86884L24.1137 8.10869V8.09615L25.0697 8.20988V7.77962L24.1137 7.90591V7.89336Z" fill="#1E83E6"/>
<path d="M3.2255 6.77641L2.87902 7.22124L3.08667 7.35279L3.32386 6.83834H3.33114L3.55012 7.34915L3.77962 7.2176L3.4299 6.78005V6.77277L3.98038 6.83834V6.59062L3.4299 6.66348V6.6562L3.77638 6.20043L3.5574 6.07617L3.33479 6.58658H3.3275L3.10164 6.07982L2.87902 6.20772L3.22186 6.65255V6.65984L2.68555 6.59062V6.83834L3.2255 6.76912V6.77641Z" fill="#1E83E6"/>
<path d="M63.8409 19.0823V18.6601L62.9031 18.7843V18.7718L63.4936 17.9955L63.1208 17.7842L62.742 18.6536H62.729L62.3445 17.7903L61.9648 18.008L62.5493 18.7657V18.7783L61.6357 18.6601V19.0823L62.5554 18.9645V18.977L61.9648 19.7347L62.319 19.9586L62.7233 19.0823H62.7351L63.1079 19.9521L63.4997 19.7287L62.9031 18.9831V18.9705L63.8409 19.0823Z" fill="#1E83E6"/>
<path d="M65.6421 8.26218L66.1513 7.5923L65.8299 7.41016L65.5032 8.16018H65.4923L65.16 7.41542L64.833 7.60323L65.3369 8.25692V8.26744L64.5488 8.16585V8.53013L65.3422 8.42854V8.43906L64.833 9.09275L65.1382 9.28582L65.4871 8.53013H65.4976L65.819 9.28016L66.1565 9.08749L65.6421 8.44432V8.4338L66.4512 8.53013V8.16585L65.6421 8.2727V8.26218Z" fill="#1E83E6"/>
<path d="M0.809524 61.0009C1.25661 61.0009 1.61905 60.6384 1.61905 60.1914C1.61905 59.7443 1.25661 59.3818 0.809524 59.3818C0.362436 59.3818 0 59.7443 0 60.1914C0 60.6384 0.362436 61.0009 0.809524 61.0009Z" fill="#2D4356"/>
<path d="M4.45252 59.3818H3.23823C3.02354 59.3818 2.81763 59.4671 2.66581 59.6189C2.514 59.7708 2.42871 59.9767 2.42871 60.1914C2.42871 60.4061 2.514 60.612 2.66581 60.7638C2.81763 60.9156 3.02354 61.0009 3.23823 61.0009H4.45252C4.66722 61.0009 4.87313 60.9156 5.02494 60.7638C5.17676 60.612 5.26204 60.4061 5.26204 60.1914C5.26204 59.9767 5.17676 59.7708 5.02494 59.6189C4.87313 59.4671 4.66722 59.3818 4.45252 59.3818ZM64.7621 59.3818H63.5478C63.3331 59.3818 63.1272 59.4671 62.9753 59.6189C62.8235 59.7708 62.7382 59.9767 62.7382 60.1914C62.7382 60.4061 62.8235 60.612 62.9753 60.7638C63.1272 60.9156 63.3331 61.0009 63.5478 61.0009H64.7621C64.9767 61.0009 65.1827 60.9156 65.3345 60.7638C65.4863 60.612 65.5716 60.4061 65.5716 60.1914C65.5716 59.9767 65.4863 59.7708 65.3345 59.6189C65.1827 59.4671 64.9767 59.3818 64.7621 59.3818Z" fill="#2D4356"/>
<path d="M67.1904 61.0009C67.6375 61.0009 67.9999 60.6384 67.9999 60.1914C67.9999 59.7443 67.6375 59.3818 67.1904 59.3818C66.7433 59.3818 66.3809 59.7443 66.3809 60.1914C66.3809 60.6384 66.7433 61.0009 67.1904 61.0009Z" fill="#2D4356"/>
<path d="M47.8243 62.6201H44.4617C44.2582 62.6364 44.0683 62.7288 43.9298 62.8788C43.7913 63.0288 43.7144 63.2255 43.7144 63.4296C43.7144 63.6338 43.7913 63.8305 43.9298 63.9805C44.0683 64.1305 44.2582 64.2229 44.4617 64.2392H47.8243C48.0278 64.2229 48.2177 64.1305 48.3562 63.9805C48.4947 63.8305 48.5716 63.6338 48.5716 63.4296C48.5716 63.2255 48.4947 63.0288 48.3562 62.8788C48.2177 62.7288 48.0278 62.6364 47.8243 62.6201ZM23.5386 62.6201H20.176C19.9725 62.6364 19.7826 62.7288 19.6441 62.8788C19.5056 63.0288 19.4287 63.2255 19.4287 63.4296C19.4287 63.6338 19.5056 63.8305 19.6441 63.9805C19.7826 64.1305 19.9725 64.2229 20.176 64.2392H23.5386C23.7421 64.2229 23.932 64.1305 24.0705 63.9805C24.209 63.8305 24.2859 63.6338 24.2859 63.4296C24.2859 63.2255 24.209 63.0288 24.0705 62.8788C23.932 62.7288 23.7421 62.6364 23.5386 62.6201ZM42.0954 62.6201H25.9049C25.6902 62.6201 25.4843 62.7054 25.3325 62.8572C25.1807 63.009 25.0954 63.2149 25.0954 63.4296C25.0954 63.6443 25.1807 63.8502 25.3325 64.0021C25.4843 64.1539 25.6902 64.2392 25.9049 64.2392H32.3568V65.0487H29.143C28.9283 65.0487 28.7224 65.134 28.5706 65.2858C28.4188 65.4376 28.3335 65.6435 28.3335 65.8582C28.3335 66.0729 28.4188 66.2788 28.5706 66.4306C28.7224 66.5825 28.9283 66.6677 29.143 66.6677H39.2621C39.4768 66.6677 39.6827 66.5825 39.8345 66.4306C39.9863 66.2788 40.0716 66.0729 40.0716 65.8582C40.0716 65.6435 39.9863 65.4376 39.8345 65.2858C39.6827 65.134 39.4768 65.0487 39.2621 65.0487H35.6435V64.2392H42.0954C42.3101 64.2392 42.516 64.1539 42.6678 64.0021C42.8196 63.8502 42.9049 63.6443 42.9049 63.4296C42.9049 63.2149 42.8196 63.009 42.6678 62.8572C42.516 62.7054 42.3101 62.6201 42.0954 62.6201Z" fill="#1E83E6"/>
<path d="M61.0069 59.3817H30.6339C30.8315 58.8783 30.8266 58.3179 30.6202 57.8181C31.3252 57.8158 32.0022 57.5416 32.51 57.0525C32.7288 56.8412 32.9029 56.588 33.0219 56.308C33.1408 56.028 33.2022 55.7269 33.2024 55.4227C33.2002 55.1518 33.1475 54.8837 33.0472 54.6321C33.7298 54.6102 34.3792 54.3321 34.8659 53.853C35.1077 53.6173 35.2995 53.3355 35.4301 53.0242C35.5607 52.7129 35.6274 52.3786 35.6261 52.041C35.6244 51.703 35.5534 51.3689 35.4177 51.0593H36.2411C36.9343 51.0618 37.6002 50.7892 38.0925 50.3012C38.3368 50.0619 38.5304 49.7759 38.6619 49.4602C38.7934 49.1445 38.86 48.8056 38.8578 48.4636C38.8492 47.7763 38.5693 47.1203 38.0792 46.6383C37.5891 46.1564 36.9285 45.8876 36.2411 45.8905H24.6754C24.6459 45.8894 24.6171 45.8817 24.5909 45.8681C24.5648 45.8545 24.542 45.8352 24.5243 45.8116C24.5116 45.7985 24.5027 45.7822 24.4982 45.7645C24.4938 45.7468 24.4941 45.7282 24.499 45.7107C24.5026 45.6978 24.5062 45.685 24.5089 45.6718L25.3957 41.8968C25.5039 41.5371 25.5376 41.1592 25.495 40.786C25.4523 40.4129 25.3341 40.0523 25.1476 39.7264C24.961 39.4004 24.7101 39.1158 24.41 38.89C24.1099 38.6641 23.767 38.5018 23.4021 38.4128C23.0372 38.3238 22.658 38.31 22.2876 38.3723C21.9173 38.4346 21.5635 38.5717 21.2478 38.7752C20.9321 38.9787 20.6612 39.2444 20.4515 39.556C20.2419 39.8676 20.0978 40.2186 20.0283 40.5877C19.6003 42.7606 18.5721 46.2411 16.2359 46.7266L16.236 46.6877C16.2362 46.5827 16.2155 46.4788 16.175 46.3819C16.1346 46.285 16.0753 46.1971 16.0005 46.1235C15.8477 45.9734 15.6421 45.8895 15.4281 45.8897H12.1419C12.0364 45.888 11.9316 45.9074 11.8337 45.9466C11.7357 45.9858 11.6466 46.0441 11.5714 46.1181C11.4962 46.1921 11.4365 46.2804 11.3957 46.3777C11.3549 46.475 11.3339 46.5795 11.3339 46.685C11.3339 46.7905 11.3549 46.895 11.3957 46.9923C11.4365 47.0896 11.4962 47.1779 11.5714 47.2519C11.6466 47.3259 11.7357 47.3842 11.8337 47.4234C11.9316 47.4627 12.0364 47.482 12.1419 47.4803H14.6174L14.5729 59.3818H6.99444C6.87928 59.3667 6.76223 59.3764 6.65111 59.4102C6.53999 59.444 6.43736 59.5011 6.35008 59.5777C6.26279 59.6544 6.19286 59.7487 6.14495 59.8545C6.09705 59.9603 6.07227 60.0751 6.07227 60.1913C6.07227 60.3074 6.09705 60.4222 6.14495 60.528C6.19286 60.6338 6.26279 60.7282 6.35008 60.8048C6.43736 60.8814 6.53999 60.9386 6.65111 60.9724C6.76223 61.0062 6.87928 61.0159 6.99444 61.0008H61.0069C61.1221 61.0159 61.2392 61.0062 61.3503 60.9724C61.4614 60.9386 61.564 60.8814 61.6513 60.8048C61.7386 60.7282 61.8085 60.6338 61.8564 60.528C61.9043 60.4222 61.9291 60.3074 61.9291 60.1913C61.9291 60.0751 61.9043 59.9603 61.8564 59.8545C61.8085 59.7487 61.7386 59.6544 61.6513 59.5777C61.564 59.5011 61.4614 59.444 61.3503 59.4102C61.2392 59.3764 61.1221 59.3667 61.0069 59.3818V59.3817ZM16.1921 58.5279L16.2299 48.3327C18.8179 48.0194 20.7213 45.4241 21.6145 40.8906C21.6667 40.6203 21.8108 40.3764 22.0223 40.2004C22.2339 40.0243 22.4999 39.9269 22.7751 39.9248C22.9976 39.9248 23.2154 39.989 23.4023 40.1096C23.6089 40.2645 23.7618 40.4802 23.8395 40.7264C23.9172 40.9726 23.9158 41.237 23.8355 41.4824C23.832 41.4948 23.8284 41.5076 23.8256 41.5208L22.9388 45.2971C22.8698 45.5487 22.8607 45.8129 22.912 46.0687C22.9634 46.3244 23.0739 46.5646 23.2347 46.7701C23.4048 46.9905 23.623 47.1692 23.8727 47.2925C24.1224 47.4157 24.3969 47.4802 24.6754 47.4811H36.2411C36.5047 47.4807 36.7578 47.5845 36.9453 47.7698C37.1327 47.9551 37.2394 48.207 37.242 48.4706C37.2429 48.6024 37.2173 48.7331 37.1667 48.8548C37.1161 48.9764 37.0414 49.0867 36.9473 49.1789C36.7596 49.3653 36.5056 49.4695 36.2411 49.4686H26.3311C26.2256 49.467 26.1208 49.4863 26.0228 49.5255C25.9249 49.5647 25.8357 49.6231 25.7605 49.6971C25.6853 49.7711 25.6256 49.8593 25.5848 49.9567C25.5441 50.054 25.5231 50.1584 25.5231 50.264C25.5231 50.3695 25.5441 50.4739 25.5848 50.5712C25.6256 50.6686 25.6853 50.7568 25.7605 50.8308C25.8357 50.9048 25.9249 50.9632 26.0228 51.0024C26.1208 51.0416 26.2256 51.061 26.3311 51.0593H32.9424C33.2145 51.0515 33.4789 51.1508 33.6785 51.3358C33.8782 51.5208 33.9973 51.7768 34.0103 52.0488C34.0102 52.1761 33.9845 52.3021 33.9347 52.4193C33.885 52.5365 33.8122 52.6425 33.7207 52.7311C33.5106 52.9363 33.2278 53.0498 32.9341 53.0468L24.6691 53.0476C24.5636 53.0459 24.4588 53.0653 24.3609 53.1045C24.2629 53.1437 24.1737 53.202 24.0985 53.2761C24.0233 53.3501 23.9636 53.4383 23.9229 53.5356C23.8821 53.6329 23.8611 53.7374 23.8611 53.8429C23.8611 53.9484 23.8821 54.0529 23.9229 54.1502C23.9636 54.2475 24.0233 54.3358 24.0985 54.4098C24.1737 54.4838 24.2629 54.5421 24.3609 54.5813C24.4588 54.6206 24.5636 54.6399 24.6691 54.6382H30.5904C30.8268 54.6153 31.0628 54.6851 31.2486 54.8329C31.4345 54.9808 31.5556 55.195 31.5865 55.4304C31.5851 55.5244 31.5647 55.6172 31.5266 55.7031C31.4885 55.7891 31.4335 55.8664 31.3648 55.9306C31.1554 56.1271 30.8775 56.2341 30.5904 56.2289H24.3152C24.2097 56.2272 24.1049 56.2465 24.007 56.2858C23.909 56.325 23.8199 56.3833 23.7447 56.4573C23.6695 56.5313 23.6098 56.6196 23.569 56.7169C23.5282 56.8142 23.5072 56.9187 23.5072 57.0242C23.5072 57.1297 23.5282 57.2342 23.569 57.3315C23.6098 57.4288 23.6695 57.517 23.7447 57.5911C23.8199 57.6651 23.909 57.7234 24.007 57.7626C24.1049 57.8018 24.2097 57.8212 24.3152 57.8195H28.0802C28.6649 57.8195 29.1604 58.1826 29.1627 58.6121C29.1603 58.701 29.1401 58.7885 29.1033 58.8695C29.0665 58.9505 29.0139 59.0233 28.9485 59.0836C28.7843 59.2387 28.5783 59.3423 28.356 59.3818H23.0749C20.7602 59.2967 18.4574 59.0111 16.1921 58.5279Z" fill="#2D4356"/>
</svg>
