<svg width="59" height="59" viewBox="0 0 59 59" fill="none" xmlns="http://www.w3.org/2000/svg">
<path d="M43.75 8.5H25.75C25.336 8.5 25 8.836 25 9.25V12.25V15.25H21.5605L18.7803 12.4698C18.64 12.3288 18.4488 12.25 18.25 12.25H16V13.75H17.9395L20.7197 16.5302C20.86 16.6712 21.0513 16.75 21.25 16.75H25V22.75H22.3105L21.0303 21.4697C20.89 21.3287 20.6987 21.25 20.5 21.25H13V22.75H20.1895L21.4697 24.0303C21.61 24.1713 21.8013 24.25 22 24.25H25V31.75H18.5605L16.5303 29.7197C16.39 29.5787 16.1988 29.5 16 29.5H10.75V31H15.6895L17.7197 33.0303C17.86 33.1713 18.0512 33.25 18.25 33.25H25V37.75H22C21.8013 37.75 21.61 37.8287 21.4697 37.9697L20.1895 39.25H13V40.75H20.5C20.6987 40.75 20.89 40.6712 21.0303 40.5303L22.3105 39.25H25V45.25H21.25C21.0513 45.25 20.86 45.3288 20.7197 45.4697L17.9395 48.25H16V49.75H18.25C18.4488 49.75 18.64 49.6712 18.7803 49.5303L21.5605 46.75H25V49.75V52.75C25 53.164 25.336 53.5 25.75 53.5H43.75C44.9905 53.5 46 52.4905 46 51.25V10.75C46 9.5095 44.9905 8.5 43.75 8.5ZM41.5 35.9395L37.5303 31.9697C37.237 31.6765 36.763 31.6765 36.4697 31.9697L33.25 35.1895L29.2803 31.2197C28.987 30.9265 28.513 30.9265 28.2197 31.2197L26.5 32.9395V13H41.5V35.9395ZM44.5 51.25C44.5 51.6632 44.1632 52 43.75 52H26.5V50.5H31.75V49H26.5V35.0605L28.75 32.8105L34.2197 38.2803L35.2803 37.2197L34.3105 36.25L37 33.5605L41.5 38.0605V49H36.25V50.5H42.25C42.664 50.5 43 50.164 43 49.75V12.25C43 11.836 42.664 11.5 42.25 11.5H26.5V10H43.75C44.1632 10 44.5 10.3368 44.5 10.75V51.25Z" fill="#2D4356"/>
<path d="M34.75 49H33.25V50.5H34.75V49Z" fill="#2D4356"/>
<path d="M34 28C36.4818 28 38.5 25.9818 38.5 23.5C38.5 21.0182 36.4818 19 34 19C31.5182 19 29.5 21.0182 29.5 23.5C29.5 25.9818 31.5182 28 34 28ZM34 20.5C35.6545 20.5 37 21.8455 37 23.5C37 25.1545 35.6545 26.5 34 26.5C32.3455 26.5 31 25.1545 31 23.5C31 21.8455 32.3455 20.5 34 20.5ZM12.25 15.25C13.4905 15.25 14.5 14.2405 14.5 13C14.5 11.7595 13.4905 10.75 12.25 10.75C11.0095 10.75 10 11.7595 10 13C10 14.2405 11.0095 15.25 12.25 15.25ZM12.25 12.25C12.6632 12.25 13 12.5868 13 13C13 13.4132 12.6632 13.75 12.25 13.75C11.8368 13.75 11.5 13.4132 11.5 13C11.5 12.5868 11.8368 12.25 12.25 12.25ZM9.25 24.25C10.4905 24.25 11.5 23.2405 11.5 22C11.5 20.7595 10.4905 19.75 9.25 19.75C8.0095 19.75 7 20.7595 7 22C7 23.2405 8.0095 24.25 9.25 24.25ZM9.25 21.25C9.66325 21.25 10 21.5868 10 22C10 22.4132 9.66325 22.75 9.25 22.75C8.83675 22.75 8.5 22.4132 8.5 22C8.5 21.5868 8.83675 21.25 9.25 21.25ZM8.5 30.25C8.5 29.0095 7.4905 28 6.25 28C5.0095 28 4 29.0095 4 30.25C4 31.4905 5.0095 32.5 6.25 32.5C7.4905 32.5 8.5 31.4905 8.5 30.25ZM6.25 31C5.83675 31 5.5 30.6632 5.5 30.25C5.5 29.8368 5.83675 29.5 6.25 29.5C6.66325 29.5 7 29.8368 7 30.25C7 30.6632 6.66325 31 6.25 31ZM12.25 46.75C11.0095 46.75 10 47.7595 10 49C10 50.2405 11.0095 51.25 12.25 51.25C13.4905 51.25 14.5 50.2405 14.5 49C14.5 47.7595 13.4905 46.75 12.25 46.75ZM12.25 49.75C11.8368 49.75 11.5 49.4132 11.5 49C11.5 48.5868 11.8368 48.25 12.25 48.25C12.6632 48.25 13 48.5868 13 49C13 49.4132 12.6632 49.75 12.25 49.75ZM11.5 40C11.5 38.7595 10.4905 37.75 9.25 37.75C8.0095 37.75 7 38.7595 7 40C7 41.2405 8.0095 42.25 9.25 42.25C10.4905 42.25 11.5 41.2405 11.5 40ZM9.25 40.75C8.83675 40.75 8.5 40.4132 8.5 40C8.5 39.5868 8.83675 39.25 9.25 39.25C9.66325 39.25 10 39.5868 10 40C10 40.4132 9.66325 40.75 9.25 40.75Z" fill="#1E83E6"/>
<path d="M0.47581 53.2915C0.738593 53.2915 0.951621 53.0784 0.951621 52.8157C0.951621 52.5529 0.738593 52.3398 0.47581 52.3398C0.213028 52.3398 0 52.5529 0 52.8157C0 53.0784 0.213028 53.2915 0.47581 53.2915Z" fill="#2D4356"/>
<path d="M3.5352 52.3398H3.12736C3.05525 52.3398 2.98609 52.39 2.9351 52.4792C2.88411 52.5684 2.85547 52.6895 2.85547 52.8157C2.85547 52.9418 2.88411 53.0629 2.9351 53.1521C2.98609 53.2413 3.05525 53.2915 3.12736 53.2915H3.5352C3.60731 53.2915 3.67646 53.2413 3.72745 53.1521C3.77844 53.0629 3.80709 52.9418 3.80709 52.8157C3.80709 52.6895 3.77844 52.5684 3.72745 52.4792C3.67646 52.39 3.60731 52.3398 3.5352 52.3398Z" fill="#2D4356"/>
<path d="M41.2366 55.1943H38.3818C38.209 55.2097 38.0478 55.2965 37.9302 55.4376C37.8126 55.5787 37.7473 55.7636 37.7473 55.9556C37.7473 56.1476 37.8126 56.3326 37.9302 56.4737C38.0478 56.6147 38.209 56.7016 38.3818 56.7169H41.2366C41.4094 56.7016 41.5706 56.6147 41.6882 56.4737C41.8058 56.3326 41.871 56.1476 41.871 55.9556C41.871 55.7636 41.8058 55.5787 41.6882 55.4376C41.5706 55.2965 41.4094 55.2097 41.2366 55.1943ZM20.6182 55.1943H17.7633C17.5905 55.2097 17.4293 55.2965 17.3118 55.4376C17.1942 55.5787 17.1289 55.7636 17.1289 55.9556C17.1289 56.1476 17.1942 56.3326 17.3118 56.4737C17.4293 56.6147 17.5905 56.7016 17.7633 56.7169H20.6182C20.791 56.7016 20.9522 56.6147 21.0698 56.4737C21.1873 56.3326 21.2526 56.1476 21.2526 55.9556C21.2526 55.7636 21.1873 55.5787 21.0698 55.4376C20.9522 55.2965 20.791 55.2097 20.6182 55.1943ZM36.3728 55.1943H22.6272C22.4449 55.1943 22.2701 55.2745 22.1412 55.4173C22.0123 55.5601 21.9399 55.7537 21.9399 55.9556C21.9399 56.1575 22.0123 56.3512 22.1412 56.494C22.2701 56.6367 22.4449 56.7169 22.6272 56.7169H28.1048V57.4782H25.3763C25.194 57.4782 25.0192 57.5584 24.8903 57.7012C24.7614 57.844 24.689 58.0376 24.689 58.2395C24.689 58.4414 24.7614 58.6351 24.8903 58.7778C25.0192 58.9206 25.194 59.0008 25.3763 59.0008H33.9673C34.1496 59.0008 34.3244 58.9206 34.4533 58.7778C34.5822 58.6351 34.6546 58.4414 34.6546 58.2395C34.6546 58.0376 34.5822 57.844 34.4533 57.7012C34.3244 57.5584 34.1496 57.4782 33.9673 57.4782H30.8952V56.7169H36.3728C36.5551 56.7169 36.7299 56.6367 36.8588 56.494C36.9877 56.3512 37.0601 56.1575 37.0601 55.9556C37.0601 55.7537 36.9877 55.5601 36.8588 55.4173C36.7299 55.2745 36.5551 55.1943 36.3728 55.1943Z" fill="#1E83E6"/>
<path d="M0.47581 53.2915C0.738593 53.2915 0.951621 53.0784 0.951621 52.8157C0.951621 52.5529 0.738593 52.3398 0.47581 52.3398C0.213028 52.3398 0 52.5529 0 52.8157C0 53.0784 0.213028 53.2915 0.47581 53.2915Z" fill="#2D4356"/>
<path d="M3.5352 52.3398H3.12736C3.05525 52.3398 2.98609 52.39 2.9351 52.4792C2.88411 52.5684 2.85547 52.6895 2.85547 52.8157C2.85547 52.9418 2.88411 53.0629 2.9351 53.1521C2.98609 53.2413 3.05525 53.2915 3.12736 53.2915H3.5352C3.60731 53.2915 3.67646 53.2413 3.72745 53.1521C3.77844 53.0629 3.80709 52.9418 3.80709 52.8157C3.80709 52.6895 3.77844 52.5684 3.72745 52.4792C3.67646 52.39 3.60731 52.3398 3.5352 52.3398Z" fill="#2D4356"/>
<path d="M41.2366 55.1943H38.3818C38.209 55.2097 38.0478 55.2965 37.9302 55.4376C37.8126 55.5787 37.7473 55.7636 37.7473 55.9556C37.7473 56.1476 37.8126 56.3326 37.9302 56.4737C38.0478 56.6147 38.209 56.7016 38.3818 56.7169H41.2366C41.4094 56.7016 41.5706 56.6147 41.6882 56.4737C41.8058 56.3326 41.871 56.1476 41.871 55.9556C41.871 55.7636 41.8058 55.5787 41.6882 55.4376C41.5706 55.2965 41.4094 55.2097 41.2366 55.1943ZM20.6182 55.1943H17.7633C17.5905 55.2097 17.4293 55.2965 17.3118 55.4376C17.1942 55.5787 17.1289 55.7636 17.1289 55.9556C17.1289 56.1476 17.1942 56.3326 17.3118 56.4737C17.4293 56.6147 17.5905 56.7016 17.7633 56.7169H20.6182C20.791 56.7016 20.9522 56.6147 21.0698 56.4737C21.1873 56.3326 21.2526 56.1476 21.2526 55.9556C21.2526 55.7636 21.1873 55.5787 21.0698 55.4376C20.9522 55.2965 20.791 55.2097 20.6182 55.1943ZM36.3728 55.1943H22.6272C22.4449 55.1943 22.2701 55.2745 22.1412 55.4173C22.0123 55.5601 21.9399 55.7537 21.9399 55.9556C21.9399 56.1575 22.0123 56.3512 22.1412 56.494C22.2701 56.6367 22.4449 56.7169 22.6272 56.7169H28.1048V57.4782H25.3763C25.194 57.4782 25.0192 57.5584 24.8903 57.7012C24.7614 57.844 24.689 58.0376 24.689 58.2395C24.689 58.4414 24.7614 58.6351 24.8903 58.7778C25.0192 58.9206 25.194 59.0008 25.3763 59.0008H33.9673C34.1496 59.0008 34.3244 58.9206 34.4533 58.7778C34.5822 58.6351 34.6546 58.4414 34.6546 58.2395C34.6546 58.0376 34.5822 57.844 34.4533 57.7012C34.3244 57.5584 34.1496 57.4782 33.9673 57.4782H30.8952V56.7169H36.3728C36.5551 56.7169 36.7299 56.6367 36.8588 56.494C36.9877 56.3512 37.0601 56.1575 37.0601 55.9556C37.0601 55.7537 36.9877 55.5601 36.8588 55.4173C36.7299 55.2745 36.5551 55.1943 36.3728 55.1943Z" fill="#1E83E6"/>
<path d="M55.8741 52.3398H55.4662C55.3941 52.3398 55.325 52.39 55.274 52.4792C55.223 52.5684 55.1943 52.6895 55.1943 52.8157C55.1943 52.9418 55.223 53.0629 55.274 53.1521C55.325 53.2413 55.3941 53.2915 55.4662 53.2915H55.8741C55.9462 53.2915 56.0153 53.2413 56.0663 53.1521C56.1173 53.0629 56.146 52.9418 56.146 52.8157C56.146 52.6895 56.1173 52.5684 56.0663 52.4792C56.0153 52.39 55.9462 52.3398 55.8741 52.3398Z" fill="#2D4356"/>
<path d="M58.5246 53.2915C58.7874 53.2915 59.0004 53.0784 59.0004 52.8157C59.0004 52.5529 58.7874 52.3398 58.5246 52.3398C58.2619 52.3398 58.0488 52.5529 58.0488 52.8157C58.0488 53.0784 58.2619 53.2915 58.5246 53.2915Z" fill="#2D4356"/>
<path d="M29.0949 4.67137L29.3496 3.99154L29.1887 3.80664L29.0252 4.5678H29.0197L28.8537 3.8122L28.6899 4.00232L28.9421 4.66581V4.67693L28.5479 4.57336V4.94316L28.9447 4.83994V4.85071L28.6899 5.51421L28.8427 5.70988L29.0172 4.94316H29.0225L29.1834 5.70467L29.3523 5.50864L29.0949 4.85627V4.84515L29.4995 4.94316V4.57336L29.0949 4.68215V4.67137Z" fill="#1E83E6"/>
<path d="M6.39683 8.04367L6.14219 8.70706L6.29509 8.90324L6.46941 8.13603H6.47447L6.63541 8.89781L6.80437 8.70223L6.54706 8.04911V8.03824L6.95162 8.13603V7.76661L6.54706 7.87526V7.8644L6.80169 7.18471L6.64076 7L6.47745 7.76117H6.47209L6.3058 7.00483L6.14219 7.19557L6.39415 7.85896V7.86983L6 7.76661V8.13603L6.39683 8.03281V8.04367Z" fill="#1E83E6"/>
<path d="M58.0492 14.0767V13.5218L56.8353 13.685V13.6685L57.5991 12.649L57.1166 12.3721L56.6262 13.5138H56.61L56.1117 12.38L55.6208 12.6655L56.3768 13.6605V13.677L55.1943 13.5218V14.0767L56.3847 13.9215V13.938L55.6208 14.933L56.0787 15.2269L56.6021 14.0767H56.6178L57.1004 15.2184L57.607 14.925L56.8353 13.9459V13.9295L58.0492 14.0767Z" fill="#1E83E6"/>
<path d="M38.7543 1.81688L39.5186 1.13701L39.0356 0.952148L38.5453 1.71336H38.5289L38.0307 0.957489L37.5392 1.14769L38.2956 1.81154V1.82223L37.1133 1.7187V2.08884L38.3035 1.98531V1.9964L37.5392 2.65944L37.9979 2.85539L38.521 2.08884H38.5368L39.0198 2.85005L39.5265 2.6541L38.7543 2.00175V1.99065L39.9681 2.08884V1.7187L38.7543 1.82757V1.81688Z" fill="#1E83E6"/>
</svg>
