<svg width="55" height="53" viewBox="0 0 55 53" fill="none" xmlns="http://www.w3.org/2000/svg">
<path d="M20.625 33.5382C20.6271 34.0474 20.8201 34.5372 21.1659 34.9108C21.5116 35.2845 21.985 35.5149 22.4924 35.5564C22.5921 36.0469 22.859 36.4876 23.2476 36.8031C23.6363 37.1186 24.1224 37.2893 24.6229 37.286C25.117 37.2922 25.5974 37.1241 25.9797 36.8112C26.3621 36.4983 26.6219 36.0606 26.7135 35.5751H26.9156C27.0076 36.0609 27.268 36.4987 27.6508 36.8116C28.0337 37.1245 28.5146 37.2925 29.009 37.286C29.569 37.2921 30.1093 37.08 30.5156 36.6945C30.9218 36.309 31.162 35.7806 31.1853 35.221C31.9275 34.9073 32.587 34.4261 33.1124 33.8151C33.6377 33.2041 34.0146 32.4798 34.2135 31.699C34.4124 30.9181 34.428 30.1018 34.259 29.3139C34.09 28.5261 33.741 27.788 33.2394 27.1574C33.741 26.5232 34.0898 25.7821 34.2588 24.9914C34.4277 24.2007 34.4123 23.3817 34.2136 22.598C34.015 21.8142 33.6385 21.0868 33.1133 20.472C32.5881 19.8573 31.9284 19.3717 31.1853 19.0531C31.1619 18.4937 30.9216 17.9653 30.5154 17.5799C30.1092 17.1945 29.5689 16.9824 29.009 16.9885C28.5146 16.9819 28.0337 17.1499 27.6509 17.4628C27.268 17.7756 27.0076 18.2134 26.9156 18.6992H26.7135C26.6219 18.2137 26.3621 17.7761 25.9797 17.4632C25.5974 17.1503 25.117 16.9822 24.6229 16.9885C24.1208 16.9842 23.6328 17.1545 23.2423 17.4702C22.8517 17.7858 22.583 18.2273 22.4819 18.7192C21.9686 18.7587 21.4901 18.9935 21.1448 19.3752C20.7995 19.757 20.6136 20.2566 20.6255 20.7712C20.6375 21.2858 20.8462 21.7762 21.2089 22.1416C21.5715 22.5069 22.0604 22.7193 22.5749 22.735V31.5391C22.0551 31.5576 21.5625 31.7756 21.1993 32.1479C20.8362 32.5202 20.6305 33.0182 20.625 33.5382ZM22.7914 21.4345C22.3137 21.4345 21.9345 21.1837 21.9345 20.7367C21.9408 20.6308 21.9686 20.5273 22.0162 20.4325C22.0638 20.3378 22.1303 20.2537 22.2116 20.1856C22.2929 20.1174 22.3872 20.0666 22.4888 20.0362C22.5904 20.0058 22.6972 19.9964 22.8025 20.0087H23.7543V19.1105C23.7626 18.8879 23.8586 18.6775 24.0213 18.5254C24.184 18.3732 24.4002 18.2914 24.6229 18.298C24.7306 18.2955 24.8377 18.3149 24.9378 18.3547C25.0378 18.3946 25.1288 18.4543 25.2053 18.5301C25.2818 18.606 25.3422 18.6964 25.3829 18.7962C25.4237 18.8959 25.4439 19.0028 25.4423 19.1105V20.0087H28.1867V19.1105C28.1856 19.0027 28.2061 18.8957 28.2472 18.7959C28.2882 18.6962 28.3489 18.6057 28.4256 18.5299C28.5024 18.4541 28.5935 18.3945 28.6938 18.3547C28.794 18.3148 28.9012 18.2956 29.009 18.298C29.2316 18.2915 29.4477 18.3732 29.6102 18.5255C29.7727 18.6777 29.8684 18.888 29.8764 19.1105V20.0047C30.7802 20.1797 31.5941 20.6658 32.1768 21.3786C32.7594 22.0913 33.0738 22.9857 33.0655 23.9063C33.0586 24.5431 32.9018 25.1694 32.6076 25.7343C32.3134 26.2991 31.8902 26.7867 31.3723 27.1574C31.8856 27.5233 32.306 28.0043 32.6 28.5619C32.8941 29.1194 33.0534 29.7381 33.0655 30.3683C33.0737 31.2889 32.7592 32.1832 32.1766 32.8959C31.594 33.6086 30.7801 34.0947 29.8764 34.2697V35.1638C29.8683 35.3863 29.7726 35.5966 29.6101 35.7489C29.4477 35.9011 29.2316 35.9829 29.009 35.9765C28.9012 35.9789 28.794 35.9596 28.6938 35.9197C28.5936 35.8798 28.5024 35.8202 28.4257 35.7444C28.349 35.6686 28.2883 35.5781 28.2472 35.4784C28.2062 35.3786 28.1856 35.2717 28.1867 35.1638V34.2656H25.4423V35.1638C25.4438 35.2715 25.4236 35.3784 25.3829 35.4781C25.3422 35.5779 25.2817 35.6684 25.2053 35.7442C25.1288 35.8201 25.0378 35.8797 24.9377 35.9196C24.8377 35.9596 24.7306 35.9789 24.6229 35.9765C24.5132 35.9795 24.404 35.9609 24.3015 35.9217C24.1989 35.8825 24.1051 35.8235 24.0255 35.748C23.9458 35.6725 23.8817 35.5821 23.837 35.4818C23.7923 35.3816 23.7678 35.2735 23.7648 35.1638V34.2656H22.8025C22.6972 34.2779 22.5905 34.2686 22.489 34.2382C22.3874 34.2078 22.2931 34.1571 22.2118 34.089C22.1305 34.0209 22.064 33.9369 22.0164 33.8422C21.9687 33.7475 21.9408 33.6441 21.9345 33.5382C21.9345 33.0911 22.3137 32.8397 22.7914 32.8397H23.8844V21.4345H22.7914Z" fill="#2D4356"/>
<path d="M31.2378 23.8776C31.2322 23.2255 30.9685 22.6023 30.5045 22.1442C30.0404 21.6861 29.4138 21.4305 28.7617 21.4334H25.4438V26.4234H28.7617C29.4265 26.4105 30.0593 26.1359 30.5229 25.6593C30.9865 25.1827 31.2434 24.5424 31.2378 23.8776ZM26.7533 22.7429H28.7617C29.0667 22.7391 29.3609 22.8564 29.5796 23.0691C29.7983 23.2818 29.9237 23.5725 29.9283 23.8776C29.9331 24.195 29.8139 24.5017 29.596 24.7326C29.3782 24.9634 29.0788 25.1002 28.7617 25.1139H26.7533L26.7533 22.7429ZM31.2378 30.4359C31.2375 29.7688 30.9798 29.1277 30.5186 28.6458C30.0574 28.1639 29.4281 27.8785 28.7617 27.8489H25.4438V32.8386H28.7617C29.0833 32.8482 29.4036 32.7932 29.7035 32.6768C30.0034 32.5604 30.277 32.3849 30.5079 32.1609C30.7388 31.9368 30.9223 31.6687 31.0477 31.3724C31.1731 31.0761 31.2378 30.7576 31.2378 30.4359ZM26.7533 29.1585H28.7617C29.0797 29.1893 29.375 29.337 29.5905 29.5729C29.806 29.8089 29.9264 30.1163 29.9283 30.4359C29.9285 30.5858 29.8978 30.7341 29.8383 30.8717C29.7787 31.0092 29.6916 31.1331 29.5822 31.2356C29.4728 31.3381 29.3436 31.417 29.2024 31.4675C29.0613 31.518 28.9113 31.539 28.7617 31.5291H26.7533L26.7533 29.1585ZM42.8883 3.23744C43.0825 3.23744 43.2724 3.17983 43.4339 3.07192C43.5954 2.964 43.7213 2.81061 43.7957 2.63115C43.87 2.45168 43.8894 2.25421 43.8515 2.06369C43.8136 1.87317 43.7201 1.69817 43.5828 1.56082C43.4454 1.42346 43.2704 1.32992 43.0799 1.29203C42.8894 1.25413 42.6919 1.27358 42.5124 1.34792C42.333 1.42225 42.1796 1.54814 42.0717 1.70965C41.9637 1.87116 41.9061 2.06105 41.9061 2.2553C41.9064 2.51568 42.01 2.76532 42.1941 2.94944C42.3783 3.13357 42.6279 3.23714 42.8883 3.23744ZM42.8883 1.76423C42.9854 1.76423 43.0803 1.79303 43.1611 1.84699C43.2419 1.90095 43.3048 1.97764 43.342 2.06737C43.3791 2.1571 43.3889 2.25584 43.3699 2.3511C43.351 2.44636 43.3042 2.53386 43.2355 2.60254C43.1668 2.67121 43.0793 2.71798 42.9841 2.73693C42.8888 2.75588 42.7901 2.74615 42.7004 2.70899C42.6106 2.67182 42.5339 2.60888 42.48 2.52812C42.426 2.44736 42.3972 2.35242 42.3972 2.2553C42.3973 2.1251 42.4491 2.00026 42.5412 1.9082C42.6332 1.81613 42.7581 1.76435 42.8883 1.76423ZM21.936 2.2553C22.1302 2.2553 22.3201 2.19769 22.4816 2.08978C22.6431 1.98186 22.769 1.82847 22.8433 1.649C22.9177 1.46954 22.9371 1.27207 22.8992 1.08155C22.8613 0.891034 22.7678 0.716033 22.6304 0.578678C22.4931 0.441324 22.3181 0.347784 22.1276 0.309888C21.937 0.271992 21.7396 0.291441 21.5601 0.365777C21.3806 0.440113 21.2273 0.565996 21.1193 0.727508C21.0114 0.889021 20.9538 1.07891 20.9538 1.27316C20.9541 1.53354 21.0577 1.78318 21.2418 1.9673C21.4259 2.15143 21.6756 2.255 21.936 2.2553ZM21.936 0.782086C22.0331 0.782086 22.128 0.810887 22.2088 0.864846C22.2895 0.918806 22.3525 0.995501 22.3896 1.08523C22.4268 1.17496 22.4365 1.2737 22.4176 1.36896C22.3986 1.46422 22.3519 1.55172 22.2832 1.6204C22.2145 1.68907 22.127 1.73584 22.0318 1.75479C21.9365 1.77374 21.8378 1.76401 21.748 1.72685C21.6583 1.68968 21.5816 1.62674 21.5276 1.54598C21.4737 1.46522 21.4449 1.37028 21.4449 1.27316C21.445 1.14296 21.4968 1.01812 21.5889 0.926059C21.6809 0.833993 21.8058 0.782214 21.936 0.782086ZM51.7275 9.45766C51.857 9.45766 51.9836 9.41926 52.0913 9.34731C52.199 9.27536 52.2829 9.17311 52.3325 9.05346C52.382 8.93382 52.395 8.80217 52.3697 8.67516C52.3445 8.54815 52.2821 8.43148 52.1905 8.33991C52.099 8.24834 51.9823 8.18598 51.8553 8.16072C51.7283 8.13545 51.5966 8.14842 51.477 8.19798C51.3573 8.24753 51.2551 8.33146 51.1831 8.43913C51.1112 8.54681 51.0728 8.6734 51.0728 8.8029C51.073 8.97649 51.142 9.14291 51.2648 9.26566C51.3875 9.38841 51.5539 9.45746 51.7275 9.45766ZM51.7275 8.47552C51.7923 8.47552 51.8556 8.49472 51.9094 8.53069C51.9633 8.56666 52.0052 8.61779 52.03 8.67761C52.0548 8.73744 52.0613 8.80326 52.0486 8.86677C52.036 8.93027 52.0048 8.98861 51.959 9.03439C51.9132 9.08017 51.8549 9.11135 51.7914 9.12399C51.7279 9.13662 51.6621 9.13014 51.6023 9.10536C51.5424 9.08058 51.4913 9.03862 51.4553 8.98478C51.4194 8.93094 51.4002 8.86765 51.4002 8.8029C51.4002 8.7161 51.4348 8.63288 51.4961 8.5715C51.5575 8.51012 51.6407 8.4756 51.7275 8.47552ZM26.5193 8.47552C26.6488 8.47552 26.7754 8.43712 26.883 8.36517C26.9907 8.29322 27.0746 8.19096 27.1242 8.07132C27.1737 7.95168 27.1867 7.82003 27.1615 7.69302C27.1362 7.56601 27.0738 7.44934 26.9823 7.35777C26.8907 7.2662 26.774 7.20384 26.647 7.17858C26.52 7.15331 26.3884 7.16628 26.2687 7.21584C26.1491 7.26539 26.0468 7.34932 25.9749 7.45699C25.9029 7.56467 25.8645 7.69126 25.8645 7.82076C25.8647 7.99435 25.9338 8.16077 26.0565 8.28352C26.1793 8.40627 26.3457 8.47532 26.5193 8.47552ZM26.5193 7.49338C26.584 7.49338 26.6473 7.51258 26.7012 7.54855C26.755 7.58452 26.797 7.63565 26.8217 7.69547C26.8465 7.7553 26.853 7.82112 26.8404 7.88463C26.8277 7.94813 26.7966 8.00646 26.7508 8.05225C26.705 8.09803 26.6466 8.12921 26.5831 8.14185C26.5196 8.15448 26.4538 8.148 26.394 8.12322C26.3342 8.09844 26.283 8.05648 26.2471 8.00264C26.2111 7.9488 26.1919 7.88551 26.1919 7.82076C26.192 7.73396 26.2265 7.65074 26.2879 7.58936C26.3493 7.52798 26.4325 7.49346 26.5193 7.49338ZM1.31101 4.54696C1.18151 4.54696 1.05492 4.58536 0.947245 4.6573C0.83957 4.72925 0.755648 4.83151 0.706091 4.95115C0.656534 5.07079 0.643567 5.20244 0.668831 5.32945C0.694095 5.45646 0.756455 5.57313 0.848025 5.6647C0.939595 5.75627 1.05626 5.81863 1.18327 5.8439C1.31028 5.86916 1.44193 5.85619 1.56158 5.80664C1.68122 5.75708 1.78348 5.67316 1.85542 5.56548C1.92737 5.45781 1.96577 5.33122 1.96577 5.20172C1.96557 5.02812 1.89652 4.8617 1.77378 4.73895C1.65103 4.6162 1.4846 4.54715 1.31101 4.54696ZM1.31101 5.5291C1.24626 5.5291 1.18297 5.5099 1.12913 5.47392C1.07529 5.43795 1.03333 5.38682 1.00855 5.327C0.983772 5.26718 0.977289 5.20135 0.989921 5.13785C1.00255 5.07434 1.03373 5.01601 1.07952 4.97022C1.1253 4.92444 1.18364 4.89326 1.24714 4.88063C1.31065 4.86799 1.37647 4.87448 1.43629 4.89926C1.49611 4.92404 1.54724 4.966 1.58322 5.01983C1.61919 5.07367 1.63839 5.13697 1.63839 5.20172C1.6383 5.28852 1.60378 5.37174 1.54241 5.43311C1.48103 5.49449 1.39781 5.52901 1.31101 5.5291Z" fill="#2D4356"/>
<path d="M0.65476 48.0888C1.01637 48.0888 1.30952 47.7957 1.30952 47.4341C1.30952 47.0724 1.01637 46.7793 0.65476 46.7793C0.293146 46.7793 0 47.0724 0 47.4341C0 47.7957 0.293146 48.0888 0.65476 48.0888Z" fill="#2D4356"/>
<path d="M3.60174 46.7793H2.6196C2.44595 46.7793 2.27941 46.8483 2.15662 46.9711C2.03383 47.0939 1.96484 47.2604 1.96484 47.4341C1.96484 47.6077 2.03383 47.7743 2.15662 47.897C2.27941 48.0198 2.44595 48.0888 2.6196 48.0888H3.60174C3.7754 48.0888 3.94194 48.0198 4.06473 47.897C4.18752 47.7743 4.2565 47.6077 4.2565 47.4341C4.2565 47.2604 4.18752 47.0939 4.06473 46.9711C3.94194 46.8483 3.7754 46.7793 3.60174 46.7793ZM52.3814 46.7793H51.3992C51.2256 46.7793 51.059 46.8483 50.9362 46.9711C50.8134 47.0939 50.7445 47.2604 50.7445 47.4341C50.7445 47.6077 50.8134 47.7743 50.9362 47.897C51.059 48.0198 51.2256 48.0888 51.3992 48.0888H52.3814C52.555 48.0888 52.7216 48.0198 52.8444 47.897C52.9671 47.7743 53.0361 47.6077 53.0361 47.4341C53.0361 47.2604 52.9671 47.0939 52.8444 46.9711C52.7216 46.8483 52.555 46.7793 52.3814 46.7793Z" fill="#2D4356"/>
<path d="M54.3462 48.0888C54.7078 48.0888 55.0009 47.7957 55.0009 47.4341C55.0009 47.0724 54.7078 46.7793 54.3462 46.7793C53.9846 46.7793 53.6914 47.0724 53.6914 47.4341C53.6914 47.7957 53.9846 48.0888 54.3462 48.0888Z" fill="#2D4356"/>
<path d="M49.3425 46.7797H48.0954C48.3283 46.3825 48.4512 45.9305 48.4516 45.4702V37.6131C48.4496 36.9191 48.173 36.2541 47.6823 35.7633C47.1915 35.2726 46.5265 34.996 45.8325 34.994H43.8683C43.8673 34.647 43.729 34.3145 43.4836 34.0691C43.2382 33.8238 42.9057 33.6855 42.5587 33.6845V20.5893C42.9057 20.5883 43.2382 20.45 43.4836 20.2046C43.729 19.9593 43.8673 19.6268 43.8683 19.2798H45.8325C46.5265 19.2778 47.1915 19.0012 47.6823 18.5104C48.173 18.0197 48.4496 17.3547 48.4516 16.6607V8.80361C48.4496 8.10962 48.173 7.44462 47.6823 6.9539C47.1915 6.46317 46.5265 6.18659 45.8325 6.18457H37.9754C37.2814 6.18658 36.6164 6.46316 36.1257 6.95389C35.635 7.44462 35.3584 8.10962 35.3564 8.80361V10.7679C35.0094 10.7689 34.6769 10.9072 34.4315 11.1525C34.1861 11.3979 34.0479 11.7304 34.0469 12.0774H20.9517C20.9507 11.7304 20.8124 11.3979 20.567 11.1525C20.3216 10.9072 19.9891 10.7689 19.6421 10.7679V8.80361C19.6401 8.10962 19.3635 7.44462 18.8728 6.9539C18.3821 6.46317 17.7171 6.18659 17.0231 6.18457H9.16598C8.47198 6.18659 7.80699 6.46317 7.31626 6.9539C6.82553 7.44462 6.54895 8.10962 6.54694 8.80361V16.6607C6.54895 17.3547 6.82553 18.0197 7.31626 18.5104C7.80699 19.0012 8.47198 19.2778 9.16598 19.2798H11.1303C11.1313 19.6268 11.2695 19.9593 11.5149 20.2046C11.7603 20.45 12.0928 20.5883 12.4398 20.5893V33.6845C12.0928 33.6855 11.7603 33.8238 11.5149 34.0691C11.2695 34.3145 11.1313 34.647 11.1303 34.994H9.16598C8.47198 34.996 7.80699 35.2726 7.31626 35.7633C6.82553 36.2541 6.54895 36.9191 6.54694 37.6131V45.4702C6.54732 45.9305 6.67025 46.3825 6.90309 46.7797H5.65603C5.56289 46.7675 5.46821 46.7754 5.37834 46.8027C5.28846 46.83 5.20545 46.8762 5.13486 46.9382C5.06426 47.0002 5.0077 47.0765 4.96895 47.1621C4.9302 47.2477 4.91016 47.3405 4.91016 47.4345C4.91016 47.5284 4.9302 47.6213 4.96895 47.7068C5.0077 47.7924 5.06426 47.8687 5.13486 47.9307C5.20545 47.9927 5.28846 48.0389 5.37834 48.0662C5.46821 48.0935 5.56289 48.1014 5.65603 48.0892H49.3425C49.4356 48.1014 49.5303 48.0935 49.6202 48.0662C49.7101 48.0389 49.7931 47.9927 49.8637 47.9307C49.9343 47.8687 49.9908 47.7924 50.0296 47.7068C50.0683 47.6213 50.0884 47.5284 50.0884 47.4345C50.0884 47.3405 50.0683 47.2477 50.0296 47.1621C49.9908 47.0765 49.9343 47.0002 49.8637 46.9382C49.7931 46.8762 49.7101 46.83 49.6202 46.8027C49.5303 46.7754 49.4356 46.7675 49.3425 46.7797ZM42.5587 19.2798H41.2492V17.9703H42.5587V19.2798ZM42.5587 34.994V36.3035H41.2492V34.994H42.5587ZM36.6659 8.80361C36.6663 8.45642 36.8043 8.12355 37.0499 7.87804C37.2954 7.63254 37.6282 7.49446 37.9754 7.49409H45.8325C46.1797 7.49446 46.5126 7.63254 46.7581 7.87804C47.0036 8.12355 47.1417 8.45642 47.1421 8.80361V16.6607C47.1417 17.0079 47.0036 17.3408 46.7581 17.5863C46.5126 17.8318 46.1797 17.9699 45.8325 17.9703H43.8683C43.8673 17.6233 43.729 17.2907 43.4836 17.0454C43.2382 16.8 42.9057 16.6617 42.5587 16.6607H41.2492C40.9022 16.6617 40.5697 16.8 40.3243 17.0454C40.079 17.2907 39.9407 17.6233 39.9397 17.9703H37.9754C37.6282 17.9699 37.2954 17.8318 37.0499 17.5863C36.8044 17.3408 36.6663 17.0079 36.6659 16.6607V14.6965C37.0129 14.6955 37.3454 14.5572 37.5908 14.3118C37.8361 14.0664 37.9744 13.7339 37.9754 13.3869V12.0774C37.9744 11.7304 37.8361 11.3979 37.5908 11.1525C37.3454 10.9072 37.0129 10.7689 36.6659 10.7679V8.80361ZM35.3564 12.0774H36.6659V13.3869H35.3564V12.0774ZM20.9517 13.3869H34.0469C34.0479 13.7339 34.1861 14.0664 34.4315 14.3118C34.6769 14.5572 35.0094 14.6955 35.3564 14.6965V16.6607C35.3584 17.3547 35.635 18.0197 36.1257 18.5105C36.6164 19.0012 37.2814 19.2778 37.9754 19.2798H39.9397C39.9407 19.6268 40.079 19.9593 40.3243 20.2046C40.5697 20.45 40.9022 20.5883 41.2492 20.5893V33.6845C40.9022 33.6855 40.5697 33.8238 40.3243 34.0691C40.079 34.3145 39.9407 34.647 39.9397 34.994H37.9754C37.2814 34.996 36.6164 35.2726 36.1257 35.7633C35.635 36.2541 35.3584 36.9191 35.3564 37.6131V39.5773C35.0094 39.5783 34.6769 39.7166 34.4315 39.962C34.1861 40.2073 34.0479 40.5398 34.0469 40.8869H20.9517C20.9507 40.5398 20.8124 40.2073 20.567 39.962C20.3216 39.7166 19.9891 39.5783 19.6421 39.5773V37.6131C19.6401 36.9191 19.3635 36.2541 18.8728 35.7633C18.3821 35.2726 17.7171 34.996 17.0231 34.994H15.0588C15.0578 34.647 14.9195 34.3145 14.6742 34.0691C14.4288 33.8238 14.0963 33.6855 13.7493 33.6845V20.5893C14.0963 20.5883 14.4288 20.45 14.6742 20.2046C14.9195 19.9593 15.0578 19.6268 15.0588 19.2798H17.0231C17.7171 19.2778 18.3821 19.0012 18.8728 18.5104C19.3635 18.0197 19.6401 17.3547 19.6421 16.6607V14.6965C19.9891 14.6955 20.3216 14.5572 20.567 14.3118C20.8124 14.0664 20.9507 13.7339 20.9517 13.3869ZM19.6421 45.4702V43.5059C19.9891 43.5049 20.3216 43.3666 20.567 43.1212C20.8124 42.8759 20.9507 42.5434 20.9517 42.1964H34.0469C34.0479 42.5434 34.1861 42.8759 34.4315 43.1212C34.6769 43.3666 35.0094 43.5049 35.3564 43.5059V45.4702C35.3568 45.9305 35.4797 46.3825 35.7125 46.7797H19.286C19.5188 46.3825 19.6418 45.9305 19.6421 45.4702ZM18.3326 42.1964V40.8869H19.6421V42.1964H18.3326ZM36.6659 40.8869V42.1964H35.3564V40.8869H36.6659ZM12.4398 19.2798V17.9703H13.7493V19.2798H12.4398ZM19.6421 12.0774V13.3869H18.3326V12.0774H19.6421ZM11.1303 17.9703H9.16598C8.81878 17.9699 8.48591 17.8318 8.24041 17.5863C7.99491 17.3408 7.85682 17.0079 7.85646 16.6607V8.80361C7.85682 8.45642 7.9949 8.12354 8.24041 7.87804C8.48591 7.63254 8.81878 7.49445 9.16598 7.49409H17.0231C17.3703 7.49446 17.7032 7.63254 17.9487 7.87804C18.1942 8.12355 18.3323 8.45642 18.3326 8.80361V10.7679C17.9856 10.7689 17.6531 10.9072 17.4077 11.1525C17.1624 11.3979 17.0241 11.7304 17.0231 12.0774V13.3869C17.0241 13.7339 17.1624 14.0664 17.4077 14.3118C17.6531 14.5572 17.9856 14.6955 18.3326 14.6965V16.6607C18.3322 17.0079 18.1942 17.3408 17.9487 17.5863C17.7032 17.8318 17.3703 17.9699 17.0231 17.9703H15.0588C15.0578 17.6233 14.9195 17.2907 14.6742 17.0454C14.4288 16.8 14.0963 16.6617 13.7493 16.6607H12.4398C12.0928 16.6617 11.7603 16.8 11.5149 17.0454C11.2695 17.2907 11.1313 17.6233 11.1303 17.9703ZM12.4398 34.994H13.7493V36.3035H12.4398V34.994ZM9.16598 46.7797C8.81878 46.7793 8.48591 46.6412 8.24041 46.3957C7.99491 46.1502 7.85682 45.8174 7.85646 45.4702V37.6131C7.85682 37.2659 7.9949 36.933 8.24041 36.6875C8.48591 36.442 8.81878 36.3039 9.16598 36.3035H11.1303C11.1313 36.6505 11.2695 36.983 11.5149 37.2284C11.7603 37.4738 12.0928 37.6121 12.4398 37.6131H13.7493C14.0963 37.6121 14.4288 37.4738 14.6742 37.2284C14.9195 36.983 15.0578 36.6505 15.0588 36.3035H17.0231C17.3703 36.3039 17.7032 36.442 17.9487 36.6875C18.1942 36.933 18.3323 37.2659 18.3326 37.6131V39.5773C17.9856 39.5783 17.6531 39.7166 17.4077 39.962C17.1624 40.2073 17.0241 40.5398 17.0231 40.8869V42.1964C17.0241 42.5434 17.1624 42.8759 17.4077 43.1212C17.6531 43.3666 17.9856 43.5049 18.3326 43.5059V45.4702C18.3322 45.8174 18.1942 46.1502 17.9487 46.3957C17.7032 46.6412 17.3703 46.7793 17.0231 46.7797H9.16598ZM37.9754 46.7797C37.6282 46.7793 37.2954 46.6412 37.0499 46.3957C36.8044 46.1502 36.6663 45.8174 36.6659 45.4702V43.5059C37.0129 43.5049 37.3454 43.3666 37.5908 43.1212C37.8361 42.8759 37.9744 42.5434 37.9754 42.1964V40.8869C37.9744 40.5398 37.8361 40.2073 37.5908 39.962C37.3454 39.7166 37.0129 39.5783 36.6659 39.5773V37.6131C36.6663 37.2659 36.8043 36.933 37.0499 36.6875C37.2954 36.442 37.6282 36.3039 37.9754 36.3035H39.9397C39.9407 36.6505 40.079 36.983 40.3243 37.2284C40.5697 37.4738 40.9022 37.6121 41.2492 37.6131H42.5587C42.9057 37.6121 43.2382 37.4738 43.4836 37.2284C43.729 36.983 43.8673 36.6505 43.8683 36.3035H45.8325C46.1797 36.3039 46.5126 36.442 46.7581 36.6875C47.0036 36.933 47.1417 37.2659 47.1421 37.6131V45.4702C47.1417 45.8174 47.0036 46.1502 46.7581 46.3957C46.5126 46.6412 46.1797 46.7793 45.8325 46.7797H37.9754Z" fill="#2D4356"/>
<path d="M11.8685 8.72168H9.65867C9.48502 8.72169 9.31848 8.79067 9.19569 8.91346C9.0729 9.03625 9.00391 9.20279 9.00391 9.37644V11.9136C9.00391 12.0873 9.07289 12.2538 9.19568 12.3766C9.31847 12.4994 9.48501 12.5684 9.65867 12.5684C9.83232 12.5684 9.99886 12.4994 10.1217 12.3766C10.2444 12.2538 10.3134 12.0873 10.3134 11.9136V10.0312H11.8685C12.0421 10.0312 12.2087 9.96222 12.3315 9.83942C12.4543 9.71663 12.5232 9.55009 12.5232 9.37644C12.5232 9.20279 12.4543 9.03625 12.3315 8.91345C12.2087 8.79066 12.0421 8.72168 11.8685 8.72168ZM45.2612 8.72168H43.0514C42.8778 8.72168 42.7112 8.79066 42.5884 8.91345C42.4657 9.03625 42.3967 9.20279 42.3967 9.37644C42.3967 9.55009 42.4657 9.71663 42.5884 9.83942C42.7112 9.96222 42.8778 10.0312 43.0514 10.0312H44.6065V11.9136C44.6065 12.0873 44.6755 12.2538 44.7983 12.3766C44.9211 12.4994 45.0876 12.5684 45.2612 12.5684C45.4349 12.5684 45.6014 12.4994 45.7242 12.3766C45.847 12.2538 45.916 12.0873 45.916 11.9136V9.37644C45.916 9.20279 45.847 9.03625 45.7242 8.91346C45.6014 8.79067 45.4349 8.72169 45.2612 8.72168ZM11.8685 44.3243H10.3134V42.4418C10.3134 42.2682 10.2444 42.1016 10.1217 41.9788C9.99886 41.856 9.83232 41.7871 9.65867 41.7871C9.48501 41.7871 9.31847 41.856 9.19568 41.9788C9.07289 42.1016 9.00391 42.2682 9.00391 42.4418V44.979C9.00391 45.1527 9.0729 45.3192 9.19569 45.442C9.31848 45.5648 9.48502 45.6338 9.65867 45.6338H11.8685C12.0421 45.6338 12.2087 45.5648 12.3315 45.442C12.4543 45.3192 12.5232 45.1527 12.5232 44.979C12.5232 44.8054 12.4543 44.6388 12.3315 44.516C12.2087 44.3932 12.0421 44.3243 11.8685 44.3243ZM45.2612 41.7871C45.0876 41.7871 44.9211 41.8561 44.7983 41.9788C44.6755 42.1016 44.6065 42.2682 44.6065 42.4418V44.3243H43.0514C42.8778 44.3243 42.7112 44.3932 42.5884 44.516C42.4657 44.6388 42.3967 44.8054 42.3967 44.979C42.3967 45.1527 42.4657 45.3192 42.5884 45.442C42.7112 45.5648 42.8778 45.6338 43.0514 45.6338H45.2612C45.4349 45.6338 45.6014 45.5648 45.7242 45.442C45.847 45.3192 45.916 45.1527 45.916 44.979V42.4418C45.916 42.2682 45.847 42.1016 45.7242 41.9788C45.6014 41.8561 45.4349 41.7871 45.2612 41.7871Z" fill="#1E83E6"/>
<path d="M5.10164 12.7361L5.58845 12.096L5.28104 11.9219L4.96872 12.6388H4.95825L4.64069 11.9268L4.32804 12.1062L4.80961 12.7312V12.7413L4.05664 12.6441V12.9924L4.81485 12.8952V12.9053L4.32804 13.53L4.62006 13.7146L4.95333 12.9924H4.96316L5.27057 13.7094L5.59336 13.5251L5.10164 12.9102V12.9001L5.87491 12.9924V12.6441L5.10164 12.7462V12.7361Z" fill="#1E83E6"/>
<path d="M30.7004 1.29586L30.4198 1.65565L30.5881 1.76172L30.7799 1.34595H30.7858L30.9626 1.75877L31.1486 1.6527L30.8654 1.29848V1.29259L31.3106 1.34595V1.14526L30.8654 1.20419V1.1983L31.1456 0.82967L30.9688 0.729492L30.7888 1.14232H30.7829L30.6002 0.732111L30.4198 0.835563L30.6974 1.19535V1.20125L30.2637 1.14526V1.34595L30.7004 1.28997V1.29586Z" fill="#1E83E6"/>
<path d="M54.0179 1.50694V1.16548L53.2594 1.26599V1.25584L53.737 0.627924L53.4352 0.457031L53.1291 1.16024H53.1186L52.8073 0.461942L52.5005 0.638072L52.9729 1.25093V1.26108L52.2344 1.16548V1.50694L52.9779 1.41167V1.42182L52.5005 2.03468L52.787 2.21572L53.1137 1.50694H53.1235L53.4251 2.21048L53.7416 2.02976L53.2594 1.42673V1.41658L54.0179 1.50694Z" fill="#1E83E6"/>
<path d="M8.98568 1.48299L9.23252 1.63915L9.51473 1.02793H9.52291L9.78318 1.63457L10.0562 1.47873L9.64011 0.958526V0.949687L10.2945 1.02793V0.733289L9.64011 0.819717V0.811205L10.052 0.269391L9.79202 0.12207L9.52749 0.728706H9.51898L9.2502 0.126326L8.98568 0.278231L9.39327 0.806949V0.815461L8.75586 0.733289V1.02793L9.39752 0.945431V0.95427L8.98568 1.48299Z" fill="#1E83E6"/>
<path d="M38.6818 49.7266H35.9621C35.7975 49.7398 35.6439 49.8144 35.5319 49.9358C35.4199 50.0571 35.3577 50.2162 35.3577 50.3813C35.3577 50.5465 35.4199 50.7055 35.5319 50.8269C35.6439 50.9482 35.7975 51.0229 35.9621 51.0361H38.6818C38.8464 51.0229 39 50.9482 39.112 50.8269C39.224 50.7055 39.2862 50.5465 39.2862 50.3813C39.2862 50.2162 39.224 50.0571 39.112 49.9358C39 49.8144 38.8464 49.7398 38.6818 49.7266ZM19.039 49.7266H16.3192C16.1546 49.7398 16.001 49.8144 15.889 49.9358C15.777 50.0571 15.7148 50.2162 15.7148 50.3813C15.7148 50.5465 15.777 50.7055 15.889 50.8269C16.001 50.9482 16.1546 51.0229 16.3192 51.0361H19.039C19.2036 51.0229 19.3572 50.9482 19.4692 50.8269C19.5812 50.7055 19.6434 50.5465 19.6434 50.3813C19.6434 50.2162 19.5812 50.0571 19.4692 49.9358C19.3572 49.8144 19.2036 49.7398 19.039 49.7266ZM34.0481 49.7266H20.9529C20.7793 49.7266 20.6127 49.7955 20.4899 49.9183C20.3672 50.0411 20.2982 50.2077 20.2982 50.3813C20.2982 50.555 20.3672 50.7215 20.4899 50.8443C20.6127 50.9671 20.7793 51.0361 20.9529 51.0361H26.1714V51.6908H23.572C23.3983 51.6908 23.2318 51.7598 23.109 51.8826C22.9862 52.0054 22.9172 52.1719 22.9172 52.3456C22.9172 52.5193 22.9862 52.6858 23.109 52.8086C23.2318 52.9314 23.3983 53.0004 23.572 53.0004H31.7565C31.9301 53.0004 32.0967 52.9314 32.2195 52.8086C32.3423 52.6858 32.4112 52.5193 32.4112 52.3456C32.4112 52.1719 32.3423 52.0054 32.2195 51.8826C32.0967 51.7598 31.9301 51.6908 31.7565 51.6908H28.8297V51.0361H34.0481C34.2218 51.0361 34.3883 50.9671 34.5111 50.8443C34.6339 50.7215 34.7029 50.555 34.7029 50.3813C34.7029 50.2077 34.6339 50.0411 34.5111 49.9183C34.3883 49.7955 34.2218 49.7266 34.0481 49.7266Z" fill="#1E83E6"/>
</svg>
