<svg width="59" height="59" viewBox="0 0 59 59" fill="none" xmlns="http://www.w3.org/2000/svg">
<mask id="mask0_365_1173" style="mask-type:alpha" maskUnits="userSpaceOnUse" x="0" y="0" width="57" height="11">
<rect y="0.499023" width="56.3186" height="10.0569" fill="#C4C4C4"/>
</mask>
<g mask="url(#mask0_365_1173)">
<path d="M32.1837 25.3212C32.1778 24.635 31.9002 23.9791 31.4119 23.497C30.9235 23.015 30.264 22.746 29.5778 22.749H26.0861V28.0004H29.5778C30.2774 27.9868 30.9434 27.6979 31.4313 27.1963C31.9191 26.6947 32.1895 26.0209 32.1837 25.3212ZM27.4642 24.1271H29.5778C29.8989 24.1231 30.2084 24.2465 30.4385 24.4704C30.6687 24.6942 30.8007 25.0002 30.8056 25.3212C30.8106 25.6552 30.6851 25.9781 30.4558 26.221C30.2266 26.464 29.9116 26.608 29.5778 26.6223H27.4642L27.4642 24.1271ZM32.1837 32.2231C32.1833 31.5211 31.9122 30.8464 31.4268 30.3392C30.9414 29.8321 30.2791 29.5318 29.5778 29.5006H26.0861V34.7517H29.5778C29.9163 34.7618 30.2533 34.7039 30.569 34.5814C30.8846 34.4589 31.1725 34.2743 31.4155 34.0385C31.6585 33.8027 31.8517 33.5205 31.9836 33.2087C32.1156 32.8968 32.1836 32.5617 32.1837 32.2231ZM27.4642 30.8788H29.5778C29.9125 30.9112 30.2233 31.0667 30.4501 31.315C30.6768 31.5633 30.8035 31.8868 30.8056 32.2231C30.8057 32.3809 30.7735 32.537 30.7108 32.6817C30.6481 32.8265 30.5564 32.9569 30.4413 33.0647C30.3262 33.1726 30.1902 33.2557 30.0416 33.3088C29.8931 33.3619 29.7352 33.384 29.5778 33.3736H27.4642L27.4642 30.8788ZM44.4445 3.5998C44.6489 3.5998 44.8487 3.53918 45.0187 3.42561C45.1887 3.31204 45.3211 3.15061 45.3994 2.96175C45.4776 2.77288 45.4981 2.56506 45.4582 2.36456C45.4183 2.16407 45.3199 1.9799 45.1753 1.83535C45.0308 1.6908 44.8466 1.59236 44.6461 1.55248C44.4456 1.51259 44.2378 1.53306 44.0489 1.61129C43.8601 1.68952 43.6986 1.822 43.5851 1.99198C43.4715 2.16195 43.4109 2.36178 43.4109 2.56621C43.4112 2.84024 43.5202 3.10295 43.7139 3.29672C43.9077 3.49049 44.1704 3.59949 44.4445 3.5998ZM44.4445 2.04941C44.5467 2.04941 44.6466 2.07972 44.7316 2.13651C44.8166 2.19329 44.8828 2.27401 44.9219 2.36844C44.961 2.46287 44.9713 2.56678 44.9513 2.66703C44.9314 2.76728 44.8822 2.85936 44.8099 2.93164C44.7376 3.00391 44.6455 3.05313 44.5453 3.07307C44.445 3.09301 44.3411 3.08278 44.2467 3.04367C44.1523 3.00455 44.0715 2.93831 44.0148 2.85332C43.958 2.76834 43.9277 2.66842 43.9277 2.56621C43.9278 2.42919 43.9823 2.29782 44.0792 2.20093C44.1761 2.10404 44.3074 2.04955 44.4445 2.04941ZM22.3945 2.56621C22.5989 2.56621 22.7988 2.50559 22.9687 2.39202C23.1387 2.27844 23.2712 2.11702 23.3494 1.92815C23.4276 1.73929 23.4481 1.53147 23.4082 1.33097C23.3683 1.13048 23.2699 0.946307 23.1254 0.801756C22.9808 0.657206 22.7966 0.558765 22.5961 0.518884C22.3956 0.479003 22.1878 0.499471 21.999 0.577701C21.8101 0.655932 21.6487 0.78841 21.5351 0.958383C21.4215 1.12836 21.3609 1.32819 21.3609 1.53262C21.3612 1.80665 21.4702 2.06936 21.664 2.26313C21.8577 2.4569 22.1205 2.56589 22.3945 2.56621ZM22.3945 1.01582C22.4967 1.01582 22.5966 1.04613 22.6816 1.10292C22.7666 1.1597 22.8328 1.24041 22.872 1.33485C22.9111 1.42928 22.9213 1.53319 22.9014 1.63344C22.8814 1.73369 22.8322 1.82577 22.7599 1.89805C22.6877 1.97032 22.5956 2.01954 22.4953 2.03948C22.3951 2.05942 22.2912 2.04919 22.1967 2.01007C22.1023 1.97096 22.0216 1.90472 21.9648 1.81973C21.908 1.73475 21.8777 1.63483 21.8777 1.53262C21.8778 1.39559 21.9323 1.26422 22.0292 1.16734C22.1261 1.07045 22.2575 1.01596 22.3945 1.01582ZM53.7468 10.1459C53.8831 10.1459 54.0163 10.1055 54.1296 10.0298C54.2429 9.95404 54.3312 9.84643 54.3834 9.72052C54.4356 9.59461 54.4492 9.45606 54.4226 9.32239C54.396 9.18873 54.3304 9.06595 54.234 8.96958C54.1377 8.87322 54.0149 8.80759 53.8812 8.781C53.7476 8.75441 53.609 8.76806 53.4831 8.82021C53.3572 8.87237 53.2496 8.96068 53.1739 9.074C53.0981 9.18732 53.0577 9.32054 53.0577 9.45682C53.0579 9.63951 53.1306 9.81465 53.2598 9.94383C53.389 10.073 53.5641 10.1457 53.7468 10.1459ZM53.7468 9.11229C53.8149 9.11229 53.8815 9.1325 53.9382 9.17036C53.9949 9.20821 54.039 9.26202 54.0651 9.32498C54.0912 9.38793 54.098 9.45721 54.0847 9.52404C54.0714 9.59087 54.0386 9.65226 53.9904 9.70044C53.9422 9.74863 53.8808 9.78144 53.814 9.79473C53.7472 9.80803 53.6779 9.8012 53.6149 9.77513C53.552 9.74905 53.4982 9.70489 53.4603 9.64823C53.4225 9.59158 53.4023 9.52497 53.4023 9.45682C53.4024 9.36548 53.4387 9.2779 53.5033 9.2133C53.5679 9.14871 53.6554 9.11238 53.7468 9.11229ZM27.2179 9.11229C27.3542 9.11229 27.4874 9.07188 27.6007 8.99616C27.7141 8.92045 27.8024 8.81283 27.8545 8.68692C27.9067 8.56101 27.9203 8.42247 27.8937 8.2888C27.8672 8.15514 27.8015 8.03236 27.7052 7.93599C27.6088 7.83962 27.486 7.774 27.3524 7.74741C27.2187 7.72082 27.0801 7.73447 26.9542 7.78662C26.8283 7.83877 26.7207 7.92709 26.645 8.04041C26.5693 8.15372 26.5289 8.28695 26.5289 8.42323C26.5291 8.60592 26.6017 8.78106 26.7309 8.91024C26.8601 9.03942 27.0352 9.11208 27.2179 9.11229ZM27.2179 8.0787C27.2861 8.0787 27.3527 8.09891 27.4093 8.13676C27.466 8.17462 27.5102 8.22843 27.5362 8.29138C27.5623 8.35434 27.5691 8.42361 27.5558 8.49045C27.5425 8.55728 27.5097 8.61867 27.4615 8.66685C27.4134 8.71503 27.352 8.74785 27.2851 8.76114C27.2183 8.77444 27.149 8.76761 27.0861 8.74154C27.0231 8.71546 26.9693 8.6713 26.9315 8.61464C26.8936 8.55798 26.8734 8.49137 26.8734 8.42323C26.8735 8.33188 26.9098 8.2443 26.9744 8.17971C27.039 8.11512 27.1266 8.07879 27.2179 8.0787ZM0.689062 4.97792C0.552778 4.97792 0.419555 5.01834 0.30624 5.09405C0.192924 5.16977 0.104605 5.27738 0.052452 5.40329C0.000298557 5.5292 -0.0133472 5.66775 0.0132404 5.80141C0.039828 5.93508 0.105455 6.05786 0.201822 6.15422C0.298189 6.25059 0.420968 6.31622 0.554632 6.34281C0.688297 6.36939 0.826845 6.35575 0.952754 6.3036C1.07866 6.25144 1.18628 6.16312 1.262 6.04981C1.33771 5.93649 1.37812 5.80327 1.37812 5.66698C1.37791 5.4843 1.30525 5.30915 1.17607 5.17998C1.04689 5.0508 0.871748 4.97813 0.689062 4.97792ZM0.689062 6.01152C0.62092 6.01152 0.554309 5.99131 0.497651 5.95345C0.440993 5.91559 0.396834 5.86179 0.370757 5.79883C0.34468 5.73588 0.337857 5.6666 0.351151 5.59977C0.364445 5.53294 0.397258 5.47155 0.445442 5.42336C0.493625 5.37518 0.555015 5.34237 0.621847 5.32907C0.68868 5.31578 0.757953 5.3226 0.820908 5.34868C0.883863 5.37476 0.937671 5.41892 0.975529 5.47557C1.01339 5.53223 1.03359 5.59884 1.03359 5.66698C1.0335 5.75833 0.997173 5.84591 0.932581 5.9105C0.867989 5.9751 0.780409 6.01142 0.689062 6.01152Z" fill="#2D4356"/>
</g>
<path d="M18.7394 36.9167H15.1327C14.9228 36.9209 14.7151 36.8736 14.5277 36.779C14.34 36.6842 14.1783 36.5449 14.0569 36.3732L14.0568 36.3731C13.9365 36.2025 13.8604 36.0048 13.8351 35.7977C13.8098 35.5906 13.8362 35.3805 13.9118 35.1861C13.9118 35.186 13.9118 35.1859 13.9119 35.1858L16.6561 27.9976C16.6576 27.4217 16.6642 25.3178 16.6796 25.0632C16.8951 21.1564 18.6102 17.4835 21.4674 14.8103C24.3246 12.137 28.1034 10.6698 32.016 10.7145C32.016 10.7145 32.0161 10.7145 32.0161 10.7145L18.7394 36.9167ZM18.7394 36.9167L18.7394 41.0663L18.7394 41.0666C18.7412 41.5874 18.8471 42.1026 19.0511 42.5818C19.2551 43.061 19.553 43.4945 19.9271 43.8568C20.3013 44.219 20.7442 44.5027 21.2297 44.6911C21.7153 44.8795 22.2336 44.9688 22.7542 44.9537L22.7544 44.9537C23.0052 44.946 26.1118 44.9322 28.0997 44.9245L29.5887 50.8196L29.5891 50.8209C29.6266 50.9616 29.7109 51.0853 29.828 51.1717C29.9447 51.2578 30.087 51.3018 30.2318 51.2966H43.7596C43.8587 51.3021 43.9577 51.284 44.0486 51.2439C44.1403 51.2034 44.2211 51.1415 44.2841 51.0634C44.3471 50.9853 44.3905 50.8933 44.4108 50.795C44.4309 50.6969 44.4274 50.5954 44.4005 50.499C44.3852 50.4414 43.8217 48.3039 43.3226 45.5157C42.8211 42.7139 42.3866 39.2653 42.6338 36.6099C42.7003 35.8955 43.0774 34.6694 43.4592 33.5711C43.8361 32.4869 44.2124 31.541 44.2827 31.3656C45.3915 29.2419 45.9425 26.8713 45.8839 24.4763C45.8253 22.0796 45.1582 19.7372 43.9454 17.6693L18.7394 36.9167ZM17.8768 28.121C17.8765 28.1889 17.8638 28.2562 17.8395 28.3195L17.8768 28.121ZM17.8768 28.121C17.8792 27.0633 17.8873 25.3178 17.8986 25.133L17.8768 28.121ZM15.1686 35.5962H19.4145C19.7914 35.5962 20.0599 35.9463 20.0599 36.2979L20.0599 41.0659C20.0599 41.0659 20.0599 41.066 20.0599 41.066C20.0613 41.411 20.1316 41.7522 20.2666 42.0697C20.4016 42.3872 20.5987 42.6745 20.8463 42.9149C21.0938 43.1552 21.3869 43.3437 21.7083 43.4692C22.0295 43.5948 22.3726 43.6549 22.7175 43.6461C23.0814 43.6349 28.3776 43.6266 28.613 43.6266C28.7563 43.6188 28.8979 43.6601 29.0146 43.7437C29.1321 43.8279 29.2171 43.9499 29.2555 44.0892L29.256 44.0912L30.7445 49.9761H42.9154C42.6991 49.1061 42.3489 47.5665 42.0274 45.776C41.3401 41.9485 41.1004 38.839 41.3188 36.4931C41.3986 35.6366 41.8228 34.2602 42.2306 33.0873C42.6398 31.9105 43.0373 30.9248 43.07 30.8441L43.0701 30.8439C43.078 30.8245 43.0869 30.8052 43.0967 30.7864L43.0969 30.7861C44.1097 28.8567 44.6142 26.7011 44.563 24.5226C44.5117 22.3441 43.9063 20.2147 42.8039 18.335L42.8037 18.3347C40.6032 14.5511 36.6991 12.1998 32.3597 12.0437C32.2407 12.0395 32.1212 12.0367 32.0012 12.0352L32.0008 12.0352C31.9493 12.0344 31.8971 12.0344 31.8444 12.0344C28.2986 12.034 24.8874 13.392 22.3121 15.8293C19.7367 18.2667 18.1931 21.598 17.9984 25.1385L17.9984 25.1391C17.9873 25.32 17.9792 27.0606 17.9768 28.1213L17.9768 28.1215C17.9764 28.2014 17.9615 28.2806 17.9329 28.3552L15.1686 35.5962ZM15.1686 35.5962L17.9328 28.3554L15.1686 35.5962Z" fill="#2D4356" stroke="#2D4356" stroke-width="0.2"/>
<path d="M27.6148 17.0651C27.7634 17.0651 27.9059 17.0061 28.011 16.901C28.116 16.7959 28.1751 16.6534 28.1751 16.5048V15.2468C28.1751 15.0982 28.116 14.9557 28.011 14.8506C27.9059 14.7456 27.7634 14.6865 27.6148 14.6865C27.4662 14.6865 27.3237 14.7456 27.2187 14.8506C27.1136 14.9557 27.0546 15.0982 27.0546 15.2468V16.5048C27.0546 16.6534 27.1136 16.7959 27.2187 16.901C27.3237 17.0061 27.4662 17.0651 27.6148 17.0651ZM34.5246 17.0651C34.6732 17.0651 34.8157 17.0061 34.9208 16.901C35.0259 16.7959 35.0849 16.6534 35.0849 16.5048V15.2468C35.0849 15.0982 35.0259 14.9557 34.9208 14.8506C34.8157 14.7456 34.6732 14.6865 34.5246 14.6865C34.376 14.6865 34.2335 14.7456 34.1285 14.8506C34.0234 14.9557 33.9644 15.0982 33.9644 15.2468V16.5048C33.9644 16.6534 34.0234 16.7959 34.1285 16.901C34.2335 17.0061 34.376 17.0651 34.5246 17.0651ZM27.0546 32.6639V33.922C27.0546 34.0705 27.1136 34.213 27.2187 34.3181C27.3237 34.4232 27.4662 34.4822 27.6148 34.4822C27.7634 34.4822 27.9059 34.4232 28.011 34.3181C28.116 34.213 28.1751 34.0705 28.1751 33.922V32.6639C28.1751 32.5153 28.116 32.3728 28.011 32.2677C27.9059 32.1627 27.7634 32.1036 27.6148 32.1036C27.4662 32.1036 27.3237 32.1627 27.2187 32.2677C27.1136 32.3728 27.0546 32.5153 27.0546 32.6639ZM33.9644 32.6639V33.922C33.9644 34.0705 34.0234 34.213 34.1285 34.3181C34.2335 34.4232 34.376 34.4822 34.5246 34.4822C34.6732 34.4822 34.8157 34.4232 34.9208 34.3181C35.0259 34.213 35.0849 34.0705 35.0849 33.922V32.6639C35.0849 32.5153 35.0259 32.3728 34.9208 32.2677C34.8157 32.1627 34.6732 32.1036 34.5246 32.1036C34.376 32.1036 34.2335 32.1627 34.1285 32.2677C34.0234 32.3728 33.9644 32.5153 33.9644 32.6639ZM40.4073 20.5692H39.1493C39.0007 20.5692 38.8582 20.6282 38.7531 20.7333C38.648 20.8384 38.589 20.9809 38.589 21.1295C38.589 21.278 38.648 21.4206 38.7531 21.5256C38.8582 21.6307 39.0007 21.6897 39.1493 21.6897H40.4073C40.5559 21.6897 40.6984 21.6307 40.8035 21.5256C40.9085 21.4206 40.9676 21.278 40.9676 21.1295C40.9676 20.9809 40.9085 20.8384 40.8035 20.7333C40.6984 20.6282 40.5559 20.5692 40.4073 20.5692ZM40.4073 27.479H39.1493C39.0007 27.479 38.8582 27.538 38.7531 27.6431C38.648 27.7482 38.589 27.8907 38.589 28.0393C38.589 28.1879 38.648 28.3304 38.7531 28.4354C38.8582 28.5405 39.0007 28.5995 39.1493 28.5995H40.4073C40.5559 28.5995 40.6984 28.5405 40.8035 28.4354C40.9085 28.3304 40.9676 28.1879 40.9676 28.0393C40.9676 27.8907 40.9085 27.7482 40.8035 27.6431C40.6984 27.538 40.5559 27.479 40.4073 27.479ZM21.7321 21.6897H22.9902C23.1388 21.6897 23.2813 21.6307 23.3863 21.5256C23.4914 21.4206 23.5504 21.278 23.5504 21.1295C23.5504 20.9809 23.4914 20.8384 23.3863 20.7333C23.2813 20.6282 23.1388 20.5692 22.9902 20.5692H21.7321C21.5835 20.5692 21.441 20.6282 21.336 20.7333C21.2309 20.8384 21.1719 20.9809 21.1719 21.1295C21.1719 21.278 21.2309 21.4206 21.336 21.5256C21.441 21.6307 21.5835 21.6897 21.7321 21.6897ZM21.7321 28.5995H22.9902C23.1388 28.5995 23.2813 28.5405 23.3863 28.4354C23.4914 28.3304 23.5504 28.1879 23.5504 28.0393C23.5504 27.8907 23.4914 27.7482 23.3863 27.6431C23.2813 27.538 23.1388 27.479 22.9902 27.479H21.7321C21.5835 27.479 21.441 27.538 21.336 27.6431C21.2309 27.7482 21.1719 27.8907 21.1719 28.0393C21.1719 28.1879 21.2309 28.3304 21.336 28.4354C21.441 28.5405 21.5835 28.5995 21.7321 28.5995ZM26.4009 29.8134H35.7385C35.8871 29.8134 36.0296 29.7544 36.1347 29.6493C36.2397 29.5443 36.2988 29.4018 36.2988 29.2532V19.9156C36.2988 19.767 36.2397 19.6245 36.1347 19.5194C36.0296 19.4143 35.8871 19.3553 35.7385 19.3553H26.4009C26.2523 19.3553 26.1098 19.4143 26.0048 19.5194C25.8997 19.6245 25.8407 19.767 25.8407 19.9156V29.2532C25.8407 29.4018 25.8997 29.5443 26.0048 29.6493C26.1098 29.7544 26.2523 29.8134 26.4009 29.8134ZM26.9612 20.4758H35.1783V28.6929H26.9612V20.4758Z" fill="#1E83E6"/>
<path d="M38.0747 19.4342C38.0747 18.9427 37.8795 18.4714 37.532 18.1238C37.1844 17.7763 36.7131 17.5811 36.2216 17.5811H25.9215C25.43 17.5811 24.9587 17.7763 24.6111 18.1238C24.2636 18.4714 24.0684 18.9427 24.0684 19.4342V29.7343C24.0684 30.2258 24.2636 30.6971 24.6111 31.0447C24.9587 31.3922 25.43 31.5874 25.9215 31.5874H36.2216C36.7131 31.5874 37.1844 31.3922 37.532 31.0447C37.8795 30.6971 38.0747 30.2258 38.0747 29.7343V19.4342ZM36.9542 29.7343C36.9542 29.9286 36.877 30.1149 36.7396 30.2523C36.6023 30.3897 36.4159 30.4669 36.2216 30.4669H25.9215C25.7272 30.4669 25.5408 30.3897 25.4035 30.2523C25.2661 30.1149 25.1889 29.9286 25.1889 29.7343V19.4342C25.1889 19.2399 25.2661 19.0535 25.4035 18.9161C25.5408 18.7788 25.7272 18.7016 25.9215 18.7016H36.2216C36.4159 18.7016 36.6023 18.7788 36.7396 18.9161C36.877 19.0535 36.9542 19.2399 36.9542 19.4342V29.7343Z" fill="#1E83E6"/>
<path d="M5.33987 53.2276C5.69693 53.2276 5.98638 52.9381 5.98638 52.5811C5.98638 52.224 5.69693 51.9346 5.33987 51.9346C4.98281 51.9346 4.69336 52.224 4.69336 52.5811C4.69336 52.9381 4.98281 53.2276 5.33987 53.2276Z" fill="#2D4356"/>
<path d="M8.24714 51.9346H7.27737C7.10591 51.9346 6.94146 52.0027 6.82022 52.1239C6.69897 52.2452 6.63086 52.4096 6.63086 52.5811C6.63086 52.7525 6.69897 52.917 6.82022 53.0382C6.94146 53.1595 7.10591 53.2276 7.27737 53.2276H8.24714C8.41861 53.2276 8.58305 53.1595 8.70429 53.0382C8.82554 52.917 8.89365 52.7525 8.89365 52.5811C8.89365 52.4096 8.82554 52.2452 8.70429 52.1239C8.58305 52.0027 8.41861 51.9346 8.24714 51.9346ZM56.4123 51.9346H55.4425C55.2711 51.9346 55.1066 52.0027 54.9854 52.1239C54.8641 52.2452 54.796 52.4096 54.796 52.5811C54.796 52.7525 54.8641 52.917 54.9854 53.0382C55.1066 53.1595 55.2711 53.2276 55.4425 53.2276H56.4123C56.5838 53.2276 56.7482 53.1595 56.8695 53.0382C56.9907 52.917 57.0588 52.7525 57.0588 52.5811C57.0588 52.4096 56.9907 52.2452 56.8695 52.1239C56.7482 52.0027 56.5838 51.9346 56.4123 51.9346Z" fill="#2D4356"/>
<path d="M58.3535 53.2276C58.7106 53.2276 59.0001 52.9381 59.0001 52.5811C59.0001 52.224 58.7106 51.9346 58.3535 51.9346C57.9965 51.9346 57.707 52.224 57.707 52.5811C57.707 52.9381 57.9965 53.2276 58.3535 53.2276Z" fill="#2D4356"/>
<path d="M9.73105 18.3196L10.2117 17.6876L9.9082 17.5156L9.59981 18.2236H9.58947L9.27591 17.5205L8.9672 17.6976L9.44271 18.3147V18.3247L8.69922 18.2287V18.5727L9.44788 18.4767V18.4867L8.9672 19.1035L9.25554 19.2858L9.58462 18.5727H9.59431L9.89785 19.2806L10.2166 19.0986L9.73105 18.4915V18.4815L10.4946 18.5727V18.2287L9.73105 18.3296V18.3196Z" fill="#1E83E6"/>
<path d="M35.0074 7.0231L34.7304 7.37836L34.8965 7.48309L35.0859 7.07256H35.0918L35.2663 7.48018L35.4499 7.37545L35.1703 7.02569V7.01987L35.6099 7.07256V6.8744L35.1703 6.93259V6.92677L35.447 6.56278L35.2725 6.46387L35.0947 6.87149H35.0889L34.9085 6.46645L34.7304 6.5686L35.0045 6.92386V6.92968L34.5762 6.8744V7.07256L35.0074 7.01728V7.0231Z" fill="#1E83E6"/>
<path d="M58.0306 7.23199V6.89484L57.2816 6.99408V6.98406L57.7533 6.36405L57.4552 6.19531L57.153 6.88967H57.1426L56.8352 6.20016L56.5323 6.37407L56.9988 6.97921V6.98923L56.2695 6.89484V7.23199L57.0036 7.13793V7.14795L56.5323 7.75308L56.8152 7.93184L57.1378 7.23199H57.1475L57.4452 7.92667L57.7578 7.74824L57.2816 7.1528V7.14278L58.0306 7.23199Z" fill="#1E83E6"/>
<path d="M13.5668 7.20803L13.8105 7.36223L14.0892 6.75871H14.0972L14.3542 7.3577L14.6238 7.20383L14.213 6.69018V6.68145L14.8591 6.75871V6.46778L14.213 6.55312V6.54471L14.6196 6.00972L14.3629 5.86426L14.1018 6.46325H14.0934L13.828 5.86846L13.5668 6.01845L13.9692 6.54051V6.54891L13.3398 6.46778V6.75871L13.9734 6.67725V6.68597L13.5668 7.20803Z" fill="#1E83E6"/>
<path d="M46.2441 54.9307H43.5586C43.3961 54.9437 43.2444 55.0174 43.1338 55.1373C43.0232 55.2571 42.9618 55.4141 42.9618 55.5772C42.9618 55.7402 43.0232 55.8973 43.1338 56.0171C43.2444 56.1369 43.3961 56.2107 43.5586 56.2237H46.2441C46.4066 56.2107 46.5583 56.1369 46.6688 56.0171C46.7794 55.8973 46.8409 55.7402 46.8409 55.5772C46.8409 55.4141 46.7794 55.2571 46.6688 55.1373C46.5583 55.0174 46.4066 54.9437 46.2441 54.9307ZM26.8487 54.9307H24.1632C24.0007 54.9437 23.849 55.0174 23.7384 55.1373C23.6278 55.2571 23.5664 55.4141 23.5664 55.5772C23.5664 55.7402 23.6278 55.8973 23.7384 56.0171C23.849 56.1369 24.0007 56.2107 24.1632 56.2237H26.8487C27.0112 56.2107 27.1629 56.1369 27.2735 56.0171C27.3841 55.8973 27.4455 55.7402 27.4455 55.5772C27.4455 55.4141 27.3841 55.2571 27.2735 55.1373C27.1629 55.0174 27.0112 54.9437 26.8487 54.9307ZM41.6688 54.9307H28.7385C28.567 54.9307 28.4026 54.9988 28.2814 55.12C28.1601 55.2413 28.092 55.4057 28.092 55.5772C28.092 55.7486 28.1601 55.9131 28.2814 56.0343C28.4026 56.1556 28.567 56.2237 28.7385 56.2237H33.8912V56.8702H31.3246C31.1531 56.8702 30.9887 56.9383 30.8674 57.0596C30.7462 57.1808 30.6781 57.3452 30.6781 57.5167C30.6781 57.6882 30.7462 57.8526 30.8674 57.9739C30.9887 58.0951 31.1531 58.1632 31.3246 58.1632H39.406C39.5774 58.1632 39.7419 58.0951 39.8631 57.9739C39.9844 57.8526 40.0525 57.6882 40.0525 57.5167C40.0525 57.3452 39.9844 57.1808 39.8631 57.0596C39.7419 56.9383 39.5774 56.8702 39.406 56.8702H36.5161V56.2237H41.6688C41.8402 56.2237 42.0047 56.1556 42.1259 56.0343C42.2472 55.9131 42.3153 55.7486 42.3153 55.5772C42.3153 55.4057 42.2472 55.2413 42.1259 55.12C42.0047 54.9988 41.8402 54.9307 41.6688 54.9307Z" fill="#1E83E6"/>
</svg>
