<svg width="65" height="62" viewBox="0 0 65 62" fill="none" xmlns="http://www.w3.org/2000/svg">
<path d="M12.2536 50.8955C12.0505 50.8955 11.8557 50.9762 11.7121 51.1198C11.5685 51.2635 11.4878 51.4582 11.4878 51.6614V53.1931C11.4878 53.3962 11.5685 53.591 11.7121 53.7346C11.8557 53.8782 12.0505 53.9589 12.2536 53.9589C12.4568 53.9589 12.6516 53.8782 12.7952 53.7346C12.9388 53.591 13.0195 53.3962 13.0195 53.1931V51.6614C13.0195 51.4582 12.9388 51.2635 12.7952 51.1198C12.6516 50.9762 12.4568 50.8955 12.2536 50.8955ZM15.3171 50.8955C15.114 50.8955 14.9192 50.9762 14.7755 51.1198C14.6319 51.2635 14.5512 51.4582 14.5512 51.6614V53.1931C14.5512 53.3962 14.6319 53.591 14.7755 53.7346C14.9192 53.8782 15.114 53.9589 15.3171 53.9589C15.5202 53.9589 15.715 53.8782 15.8586 53.7346C16.0022 53.591 16.0829 53.3962 16.0829 53.1931V51.6614C16.0829 51.4582 16.0022 51.2635 15.8586 51.1198C15.715 50.9762 15.5202 50.8955 15.3171 50.8955Z" fill="#1E83E6"/>
<path d="M18.3806 50.8955C18.1775 50.8955 17.9827 50.9762 17.8391 51.1198C17.6954 51.2635 17.6148 51.4582 17.6147 51.6614V53.1931C17.6147 53.3962 17.6954 53.591 17.8391 53.7346C17.9827 53.8782 18.1775 53.9589 18.3806 53.9589C18.5837 53.9589 18.7785 53.8782 18.9221 53.7346C19.0658 53.591 19.1465 53.3962 19.1465 53.1931V51.6614C19.1464 51.4582 19.0658 51.2635 18.9221 51.1198C18.7785 50.9762 18.5837 50.8955 18.3806 50.8955ZM21.444 50.8955C21.2409 50.8955 21.0461 50.9762 20.9025 51.1198C20.7589 51.2635 20.6782 51.4582 20.6782 51.6614V53.1931C20.6782 53.3962 20.7589 53.591 20.9025 53.7346C21.0461 53.8782 21.2409 53.9589 21.444 53.9589C21.6471 53.9589 21.8419 53.8782 21.9856 53.7346C22.1292 53.591 22.2099 53.3962 22.2099 53.1931V51.6614C22.2099 51.4582 22.1292 51.2635 21.9856 51.1198C21.8419 50.9762 21.6471 50.8955 21.444 50.8955Z" fill="#2D4356"/>
<path d="M24.5071 50.8955C24.304 50.8955 24.1092 50.9762 23.9655 51.1198C23.8219 51.2635 23.7412 51.4582 23.7412 51.6614V53.1931C23.7412 53.3962 23.8219 53.591 23.9655 53.7346C24.1092 53.8782 24.3039 53.9589 24.5071 53.9589C24.7102 53.9589 24.905 53.8782 25.0486 53.7346C25.1922 53.591 25.2729 53.3962 25.2729 53.1931V51.6614C25.2729 51.4582 25.1922 51.2635 25.0486 51.1198C24.905 50.9762 24.7102 50.8955 24.5071 50.8955ZM27.5705 50.8955C27.3674 50.8955 27.1726 50.9762 27.029 51.1198C26.8853 51.2635 26.8046 51.4582 26.8046 51.6614V53.1931C26.8046 53.3962 26.8853 53.591 27.029 53.7346C27.1726 53.8782 27.3674 53.9589 27.5705 53.9589C27.7736 53.9589 27.9684 53.8782 28.112 53.7346C28.2557 53.591 28.3364 53.3962 28.3364 53.1931V51.6614C28.3363 51.4582 28.2557 51.2635 28.112 51.1198C27.9684 50.9762 27.7736 50.8955 27.5705 50.8955Z" fill="#1E83E6"/>
<path d="M30.634 50.8955C30.4309 50.8955 30.2361 50.9762 30.0925 51.1198C29.9489 51.2635 29.8682 51.4582 29.8682 51.6614V53.1931C29.8682 53.3962 29.9489 53.591 30.0925 53.7346C30.2361 53.8782 30.4309 53.9589 30.634 53.9589C30.8371 53.9589 31.0319 53.8782 31.1756 53.7346C31.3192 53.591 31.3999 53.3962 31.3999 53.1931V51.6614C31.3999 51.4582 31.3192 51.2635 31.1756 51.1198C31.0319 50.9762 30.8371 50.8955 30.634 50.8955ZM33.6974 50.8955C33.4943 50.8955 33.2995 50.9762 33.1559 51.1198C33.0123 51.2635 32.9316 51.4582 32.9316 51.6614V53.1931C32.9316 53.3962 33.0123 53.591 33.1559 53.7346C33.2995 53.8782 33.4943 53.9589 33.6974 53.9589C33.9006 53.9589 34.0954 53.8782 34.239 53.7346C34.3826 53.591 34.4633 53.3962 34.4633 53.1931V51.6614C34.4633 51.4582 34.3826 51.2635 34.239 51.1198C34.0954 50.9762 33.9006 50.8955 33.6974 50.8955Z" fill="#2D4356"/>
<path d="M36.7615 50.8955C36.5583 50.8955 36.3636 50.9762 36.2199 51.1198C36.0763 51.2635 35.9956 51.4582 35.9956 51.6614V53.1931C35.9956 53.3962 36.0763 53.591 36.2199 53.7346C36.3635 53.8782 36.5583 53.9589 36.7615 53.9589C36.9646 53.9589 37.1594 53.8782 37.303 53.7346C37.4466 53.591 37.5273 53.3962 37.5273 53.1931V51.6614C37.5273 51.4582 37.4466 51.2635 37.303 51.1198C37.1594 50.9762 36.9646 50.8955 36.7615 50.8955ZM39.8249 50.8955C39.6218 50.8955 39.427 50.9762 39.2834 51.1198C39.1397 51.2635 39.059 51.4582 39.059 51.6614V53.1931C39.059 53.3962 39.1397 53.591 39.2833 53.7346C39.427 53.8782 39.6218 53.9589 39.8249 53.9589C40.028 53.9589 40.2228 53.8782 40.3664 53.7346C40.5101 53.591 40.5907 53.3962 40.5907 53.1931V51.6614C40.5907 51.4582 40.51 51.2635 40.3664 51.1198C40.2228 50.9762 40.028 50.8955 39.8249 50.8955Z" fill="#1E83E6"/>
<path d="M42.8879 50.8955C42.6848 50.8955 42.49 50.9762 42.3464 51.1198C42.2028 51.2635 42.1221 51.4582 42.1221 51.6614V53.1931C42.1221 53.3962 42.2028 53.591 42.3464 53.7346C42.49 53.8782 42.6848 53.9589 42.8879 53.9589C43.091 53.9589 43.2858 53.8782 43.4295 53.7346C43.5731 53.591 43.6538 53.3962 43.6538 53.1931V51.6614C43.6538 51.4582 43.5731 51.2635 43.4295 51.1198C43.2858 50.9762 43.091 50.8955 42.8879 50.8955ZM45.9514 50.8955C45.7482 50.8955 45.5534 50.9762 45.4098 51.1198C45.2662 51.2635 45.1855 51.4582 45.1855 51.6614V53.1931C45.1855 53.3962 45.2662 53.591 45.4098 53.7346C45.5534 53.8782 45.7482 53.9589 45.9514 53.9589C46.1545 53.9589 46.3493 53.8782 46.4929 53.7346C46.6365 53.591 46.7172 53.3962 46.7172 53.1931V51.6614C46.7172 51.4582 46.6365 51.2635 46.4929 51.1198C46.3493 50.9762 46.1545 50.8955 45.9514 50.8955Z" fill="#2D4356"/>
<path d="M49.0145 50.8953C48.8114 50.8953 48.6166 50.976 48.473 51.1196C48.3294 51.2632 48.2487 51.458 48.2487 51.6611V53.1928C48.2487 53.396 48.3294 53.5908 48.473 53.7344C48.6166 53.878 48.8114 53.9587 49.0145 53.9587C49.2177 53.9587 49.4125 53.878 49.5561 53.7344C49.6997 53.5908 49.7804 53.396 49.7804 53.1928V51.6611C49.7804 51.458 49.6997 51.2632 49.5561 51.1196C49.4124 50.976 49.2177 50.8953 49.0145 50.8953ZM52.078 50.8953C51.8748 50.8953 51.6801 50.976 51.5364 51.1196C51.3928 51.2632 51.3121 51.458 51.3121 51.6611V53.1928C51.3121 53.396 51.3928 53.5908 51.5364 53.7344C51.68 53.878 51.8748 53.9587 52.078 53.9587C52.2811 53.9587 52.4759 53.878 52.6195 53.7344C52.7631 53.5908 52.8438 53.396 52.8438 53.1928V51.6611C52.8438 51.458 52.7631 51.2632 52.6195 51.1196C52.4759 50.976 52.2811 50.8953 52.078 50.8953ZM32.1657 23.7073C33.226 23.7073 34.2625 23.3929 35.1441 22.8039C36.0257 22.2148 36.7128 21.3775 37.1186 20.3979C37.5244 19.4183 37.6305 18.3404 37.4237 17.3005C37.2168 16.2605 36.7062 15.3053 35.9565 14.5556C35.2067 13.8058 34.2515 13.2952 33.2116 13.0884C32.1716 12.8815 31.0937 12.9877 30.1141 13.3934C29.1345 13.7992 28.2973 14.4863 27.7082 15.3679C27.1191 16.2496 26.8047 17.286 26.8047 18.3464C26.8063 19.7677 27.3716 21.1303 28.3767 22.1354C29.3817 23.1404 30.7444 23.7057 32.1657 23.7073ZM32.1657 14.5171C32.923 14.5171 33.6634 14.7417 34.2931 15.1624C34.9228 15.5832 35.4137 16.1812 35.7035 16.8809C35.9933 17.5807 36.0691 18.3506 35.9214 19.0934C35.7736 19.8362 35.4089 20.5185 34.8734 21.0541C34.3379 21.5896 33.6556 21.9543 32.9127 22.1021C32.1699 22.2498 31.4 22.174 30.7003 21.8841C30.0006 21.5943 29.4025 21.1035 28.9818 20.4738C28.561 19.8441 28.3364 19.1037 28.3364 18.3464C28.3364 17.8435 28.4354 17.3455 28.6279 16.8809C28.8203 16.4164 29.1024 15.9942 29.458 15.6386C29.8136 15.2831 30.2357 15.001 30.7003 14.8086C31.1649 14.6161 31.6628 14.5171 32.1657 14.5171Z" fill="#1E83E6"/>
<path d="M32.1657 20.6436C32.6202 20.6436 33.0644 20.5088 33.4422 20.2564C33.82 20.0039 34.1145 19.6451 34.2884 19.2252C34.4623 18.8054 34.5078 18.3435 34.4192 17.8978C34.3305 17.4521 34.1117 17.0427 33.7904 16.7214C33.469 16.4001 33.0597 16.1812 32.614 16.0926C32.1683 16.0039 31.7063 16.0494 31.2865 16.2233C30.8667 16.3972 30.5078 16.6917 30.2554 17.0695C30.0029 17.4474 29.8682 17.8916 29.8682 18.346C29.8689 18.9551 30.1111 19.5391 30.5419 19.9699C30.9726 20.4006 31.5566 20.6429 32.1657 20.6436ZM32.1657 17.5801C32.3172 17.5801 32.4653 17.6251 32.5912 17.7092C32.7172 17.7934 32.8153 17.913 32.8733 18.0529C32.9313 18.1929 32.9464 18.3469 32.9169 18.4954C32.8873 18.644 32.8144 18.7804 32.7073 18.8875C32.6002 18.9947 32.4637 19.0676 32.3151 19.0971C32.1666 19.1267 32.0126 19.1115 31.8727 19.0536C31.7327 18.9956 31.6131 18.8974 31.5289 18.7715C31.4448 18.6455 31.3999 18.4975 31.3999 18.346C31.3999 18.1429 31.4806 17.9481 31.6242 17.8045C31.7678 17.6608 31.9626 17.5801 32.1657 17.5801ZM46.717 22.5582C47.5501 22.5582 48.3645 22.3112 49.0572 21.8483C49.7499 21.3855 50.2898 20.7276 50.6086 19.9579C50.9274 19.1883 51.0108 18.3413 50.8483 17.5242C50.6858 16.7072 50.2846 15.9566 49.6955 15.3675C49.1064 14.7784 48.3559 14.3773 47.5388 14.2147C46.7217 14.0522 45.8748 14.1356 45.1051 14.4544C44.3354 14.7732 43.6775 15.3131 43.2147 16.0058C42.7518 16.6985 42.5048 17.5129 42.5048 18.346C42.5061 19.4628 42.9503 20.5334 43.7399 21.3231C44.5296 22.1128 45.6003 22.557 46.717 22.5582ZM46.717 15.6655C47.2472 15.6655 47.7654 15.8227 48.2062 16.1172C48.647 16.4118 48.9906 16.8304 49.1935 17.3202C49.3964 17.81 49.4494 18.349 49.346 18.8689C49.2426 19.3889 48.9873 19.8665 48.6124 20.2414C48.2375 20.6163 47.7599 20.8716 47.24 20.975C46.72 21.0784 46.181 21.0253 45.6912 20.8225C45.2014 20.6196 44.7828 20.276 44.4883 19.8352C44.1937 19.3944 44.0365 18.8762 44.0365 18.346C44.0365 17.6351 44.3189 16.9533 44.8216 16.4506C45.3243 15.9479 46.0061 15.6655 46.717 15.6655Z" fill="#1E83E6"/>
<path d="M48.6316 43.2367C48.6316 43.4398 48.7123 43.6346 48.8559 43.7782C48.9995 43.9219 49.1943 44.0025 49.3974 44.0025C49.6006 44.0025 49.7954 43.9219 49.939 43.7782C50.0826 43.6346 50.1633 43.4398 50.1633 43.2367C50.1633 41.9697 51.0223 40.9391 52.0779 40.9391C53.1336 40.9391 53.9926 41.9697 53.9926 43.2367C53.9926 43.4398 54.0733 43.6346 54.2169 43.7782C54.3605 43.9219 54.5553 44.0025 54.7584 44.0025C54.9616 44.0025 55.1564 43.9219 55.3 43.7782C55.4436 43.6346 55.5243 43.4398 55.5243 43.2367C55.5304 42.6757 55.4182 42.1198 55.195 41.6051C54.9718 41.0904 54.6426 40.6285 54.2289 40.2496L54.3288 34.4336C53.8532 34.7328 53.33 34.9487 52.7818 35.072L52.6789 39.4696C52.2825 39.3867 51.8734 39.3867 51.477 39.4696L51.3767 35.1791C50.848 35.1466 50.3279 35.0293 49.8364 34.8317L49.9275 40.2492C49.5137 40.6281 49.1843 41.09 48.961 41.6048C48.7377 42.1195 48.6255 42.6756 48.6316 43.2367Z" fill="#2D4356"/>
<path d="M48.2493 30.2169C48.2493 30.8985 48.4515 31.5648 48.8302 32.1316C49.2088 32.6983 49.7471 33.14 50.3768 33.4009C51.0066 33.6617 51.6995 33.73 52.368 33.597C53.0366 33.464 53.6507 33.1358 54.1326 32.6538C54.6146 32.1718 54.9428 31.5577 55.0758 30.8892C55.2088 30.2207 55.1406 29.5277 54.8797 28.898C54.6189 28.2683 54.1771 27.73 53.6104 27.3513C53.0436 26.9726 52.3773 26.7705 51.6957 26.7705C50.782 26.7715 49.906 27.135 49.2599 27.7811C48.6138 28.4272 48.2504 29.3032 48.2493 30.2169ZM53.6103 30.2169C53.6103 30.5955 53.498 30.9657 53.2877 31.2806C53.0773 31.5954 52.7782 31.8408 52.4284 31.9858C52.0785 32.1307 51.6936 32.1686 51.3222 32.0947C50.9508 32.0208 50.6096 31.8385 50.3418 31.5707C50.0741 31.303 49.8917 30.9618 49.8178 30.5904C49.744 30.219 49.7819 29.834 49.9268 29.4842C50.0717 29.1343 50.3171 28.8353 50.632 28.6249C50.9468 28.4145 51.317 28.3022 51.6957 28.3022C52.2035 28.3022 52.6905 28.5039 53.0495 28.863C53.4086 29.2221 53.6103 29.7091 53.6103 30.2169ZM32.1663 35.5779C31.6362 35.5779 31.1179 35.7351 30.6771 36.0296C30.2363 36.3241 29.8928 36.7428 29.6899 37.2326C29.487 37.7224 29.4339 38.2613 29.5373 38.7813C29.6408 39.3013 29.8961 39.7789 30.2709 40.1538C30.6458 40.5286 31.1234 40.7839 31.6434 40.8874C32.1634 40.9908 32.7023 40.9377 33.1921 40.7348C33.6819 40.5319 34.1006 40.1884 34.3951 39.7476C34.6896 39.3068 34.8468 38.7885 34.8468 38.2584C34.846 37.5477 34.5633 36.8664 34.0608 36.3639C33.5583 35.8614 32.877 35.5787 32.1663 35.5779ZM32.1663 39.4071C31.9391 39.4071 31.717 39.3398 31.5281 39.2135C31.3392 39.0873 31.1919 38.9079 31.105 38.698C31.0181 38.4881 30.9953 38.2571 31.0396 38.0342C31.084 37.8114 31.1934 37.6067 31.354 37.446C31.5147 37.2854 31.7194 37.176 31.9422 37.1316C32.1651 37.0873 32.396 37.1101 32.606 37.197C32.8159 37.284 32.9953 37.4312 33.1215 37.6201C33.2477 37.809 33.3151 38.0312 33.3151 38.2584C33.3148 38.5629 33.1937 38.8549 32.9783 39.0703C32.7629 39.2857 32.4709 39.4068 32.1663 39.4071Z" fill="#1E83E6"/>
<path d="M41.4185 16.1299C41.6395 15.604 41.9376 15.114 42.3028 14.6758L37.6851 14.2344C38.0579 14.7327 38.3613 15.2793 38.5871 15.8593L41.4185 16.1299ZM41.4185 20.5611L38.5871 20.8318C38.3613 21.4117 38.0579 21.9584 37.6851 22.4567L42.3028 22.0153C41.9376 21.5771 41.6395 21.087 41.4185 20.5611ZM50.5635 22.5989L51.4815 25.2491C51.5529 25.246 51.623 25.2382 51.695 25.2382C52.1975 25.2379 52.6972 25.3138 53.1769 25.4636L51.6979 21.1941C51.3958 21.719 51.013 22.193 50.5635 22.5989ZM46.717 24.0895C46.254 24.0876 45.793 24.0296 45.344 23.9167L47.3477 27.7977C47.6227 27.3077 47.9782 26.8675 48.3993 26.4956L47.1458 24.0677C47.0037 24.0783 46.8617 24.0895 46.717 24.0895Z" fill="#2D4356"/>
<path d="M0.765857 56.6391C1.18883 56.6391 1.53171 56.2962 1.53171 55.8733C1.53171 55.4503 1.18883 55.1074 0.765857 55.1074C0.342886 55.1074 0 55.4503 0 55.8733C0 56.2962 0.342886 56.6391 0.765857 56.6391Z" fill="#2D4356"/>
<path d="M4.21249 55.1074H3.06371C2.86059 55.1074 2.66579 55.1881 2.52217 55.3317C2.37854 55.4754 2.29785 55.6702 2.29785 55.8733C2.29785 56.0764 2.37854 56.2712 2.52217 56.4148C2.66579 56.5584 2.86059 56.6391 3.06371 56.6391H4.21249C4.41561 56.6391 4.61041 56.5584 4.75404 56.4148C4.89766 56.2712 4.97835 56.0764 4.97835 55.8733C4.97835 55.6702 4.89766 55.4754 4.75404 55.3317C4.61041 55.1881 4.41561 55.1074 4.21249 55.1074Z" fill="#2D4356"/>
<path d="M45.2448 58.1709H42.0635C41.871 58.1863 41.6913 58.2737 41.5603 58.4156C41.4293 58.5575 41.3566 58.7436 41.3566 58.9368C41.3566 59.1299 41.4293 59.316 41.5603 59.4579C41.6913 59.5998 41.871 59.6872 42.0635 59.7026H45.2448C45.4373 59.6872 45.617 59.5998 45.748 59.4579C45.879 59.316 45.9517 59.1299 45.9517 58.9368C45.9517 58.7436 45.879 58.5575 45.748 58.4156C45.617 58.2737 45.4373 58.1863 45.2448 58.1709ZM22.2691 58.1709H19.0878C18.8953 58.1863 18.7156 58.2737 18.5846 58.4156C18.4536 58.5575 18.3809 58.7436 18.3809 58.9368C18.3809 59.1299 18.4536 59.316 18.5846 59.4579C18.7156 59.5998 18.8953 59.6872 19.0878 59.7026H22.2691C22.4616 59.6872 22.6413 59.5998 22.7723 59.4579C22.9033 59.316 22.976 59.1299 22.976 58.9368C22.976 58.7436 22.9033 58.5575 22.7723 58.4156C22.6413 58.2737 22.4616 58.1863 22.2691 58.1709ZM39.8249 58.1709H24.5077C24.3046 58.1709 24.1098 58.2516 23.9662 58.3952C23.8226 58.5388 23.7419 58.7336 23.7419 58.9368C23.7419 59.1399 23.8226 59.3347 23.9662 59.4783C24.1098 59.6219 24.3046 59.7026 24.5077 59.7026H30.6116V60.4685H27.5712C27.368 60.4685 27.1732 60.5492 27.0296 60.6928C26.886 60.8364 26.8053 61.0312 26.8053 61.2343C26.8053 61.4374 26.886 61.6322 27.0296 61.7759C27.1732 61.9195 27.368 62.0002 27.5712 62.0002H37.1444C37.3475 62.0002 37.5423 61.9195 37.6859 61.7759C37.8295 61.6322 37.9102 61.4374 37.9102 61.2343C37.9102 61.0312 37.8295 60.8364 37.6859 60.6928C37.5423 60.5492 37.3475 60.4685 37.1444 60.4685H33.721V59.7026H39.8249C40.028 59.7026 40.2228 59.6219 40.3664 59.4783C40.51 59.3347 40.5907 59.1399 40.5907 58.9368C40.5907 58.7336 40.51 58.5388 40.3664 58.3952C40.2228 58.2516 40.028 58.1709 39.8249 58.1709Z" fill="#1E83E6"/>
<path d="M61.2686 55.1074H60.1199C59.9167 55.1074 59.7219 55.1881 59.5783 55.3317C59.4347 55.4754 59.354 55.6702 59.354 55.8733C59.354 56.0764 59.4347 56.2712 59.5783 56.4148C59.7219 56.5584 59.9167 56.6391 60.1199 56.6391H61.2686C61.4718 56.6391 61.6666 56.5584 61.8102 56.4148C61.9538 56.2712 62.0345 56.0764 62.0345 55.8733C62.0345 55.6702 61.9538 55.4754 61.8102 55.3317C61.6666 55.1881 61.4718 55.1074 61.2686 55.1074Z" fill="#2D4356"/>
<path d="M63.5661 56.6391C63.9891 56.6391 64.332 56.2962 64.332 55.8733C64.332 55.4503 63.9891 55.1074 63.5661 55.1074C63.1432 55.1074 62.8003 55.4503 62.8003 55.8733C62.8003 56.2962 63.1432 56.6391 63.5661 56.6391Z" fill="#2D4356"/>
<path d="M57.7155 55.1071H56.2589C56.5302 54.6422 56.6733 54.1137 56.6734 53.5754V51.2778C56.6725 50.4656 56.3495 49.687 55.7752 49.1127C55.2009 48.5384 54.4222 48.2153 53.61 48.2144H45.948C45.9493 47.9013 45.8543 47.5953 45.6759 47.338L43.7673 44.6022C43.5554 44.2988 43.2735 44.0511 42.9455 43.8799C42.6174 43.7088 42.2529 43.6194 41.8829 43.6193H41.8409C41.8415 43.4981 41.8276 43.3772 41.7996 43.2593L39.349 33.1232C39.2449 32.6891 39.0163 32.2949 38.6912 31.989C38.366 31.6832 37.9586 31.479 37.519 31.4017C37.5233 31.3291 37.5223 31.2563 37.5162 31.1838L36.6107 23.6056C36.1738 23.9736 35.693 24.286 35.1792 24.5356L35.9953 31.3656H28.3367L29.1528 24.5356C28.639 24.286 28.1582 23.9736 27.7213 23.6056L26.8158 31.1838C26.8097 31.2563 26.8088 31.3291 26.8131 31.4017C26.3734 31.4791 25.966 31.6832 25.6409 31.989C25.3158 32.2949 25.0871 32.6891 24.9831 33.1232L24.6694 34.4203C22.8353 31.3953 22.2103 28.5973 22.8175 26.0859C23.3242 24.196 24.4185 22.516 25.9424 21.2887C25.7051 20.7953 25.528 20.2751 25.4151 19.7393C24.0357 20.7891 22.0553 22.7459 21.3329 25.7075C20.5328 28.9881 21.4927 32.6057 24.1754 36.4636L22.5324 43.2593C22.5044 43.3772 22.4905 43.4981 22.4911 43.6193H22.449C22.0791 43.6194 21.7146 43.7088 21.3865 43.8799C21.0585 44.051 20.7766 44.2988 20.5648 44.6022L18.6561 47.338C18.4777 47.5953 18.3827 47.9013 18.384 48.2144H10.722C9.90983 48.2153 9.13116 48.5384 8.55686 49.1127C7.98255 49.687 7.65951 50.4656 7.65859 51.2778V53.5754C7.65875 54.1137 7.80179 54.6422 8.0731 55.1071H6.61653C6.50757 55.0929 6.39684 55.1021 6.29171 55.134C6.18659 55.166 6.0895 55.22 6.00692 55.2925C5.92434 55.365 5.85818 55.4543 5.81286 55.5544C5.76754 55.6545 5.74409 55.7631 5.74409 55.873C5.74409 55.9829 5.76754 56.0915 5.81286 56.1916C5.85818 56.2917 5.92434 56.3809 6.00692 56.4534C6.0895 56.5259 6.18659 56.5799 6.29171 56.6119C6.39684 56.6439 6.50757 56.6531 6.61653 56.6388H57.7155C57.8244 56.6531 57.9352 56.6439 58.0403 56.6119C58.1454 56.5799 58.2425 56.5259 58.3251 56.4534C58.4077 56.3809 58.4738 56.2917 58.5192 56.1916C58.5645 56.0915 58.5879 55.9829 58.5879 55.873C58.5879 55.7631 58.5645 55.6545 58.5192 55.5544C58.4738 55.4543 58.4077 55.365 58.3251 55.2925C58.2425 55.22 58.1454 55.166 58.0403 55.134C57.9352 55.1021 57.8244 55.0929 57.7155 55.1071V55.1071ZM25.6903 36.7159C25.7593 36.5929 25.7931 36.4532 25.7879 36.3123L26.4719 33.4831C26.5123 33.3161 26.6076 33.1676 26.7426 33.0613C26.8777 32.955 27.0445 32.8973 27.2163 32.8973H37.1157C37.2875 32.8973 37.4543 32.955 37.5894 33.0613C37.7244 33.1676 37.8197 33.3161 37.8601 33.4831L40.3108 43.6192H24.0213L25.6903 36.7159ZM21.821 45.4786C21.8916 45.3775 21.9855 45.2949 22.0949 45.2378C22.2042 45.1808 22.3257 45.151 22.4491 45.151H25.2733V45.9168C25.2733 46.1199 25.354 46.3147 25.4976 46.4584C25.6412 46.602 25.836 46.6827 26.0392 46.6827C26.2423 46.6827 26.4371 46.602 26.5807 46.4584C26.7243 46.3147 26.805 46.1199 26.805 45.9168V45.151H28.3367V45.9168C28.3367 46.1199 28.4174 46.3147 28.561 46.4584C28.7047 46.602 28.8995 46.6827 29.1026 46.6827C29.3057 46.6827 29.5005 46.602 29.6441 46.4584C29.7878 46.3147 29.8684 46.1199 29.8684 45.9168V45.151H31.4002V45.9168C31.4002 46.1199 31.4808 46.3147 31.6245 46.4584C31.7681 46.602 31.9629 46.6827 32.166 46.6827C32.3691 46.6827 32.5639 46.602 32.7076 46.4584C32.8512 46.3147 32.9319 46.1199 32.9319 45.9168V45.151H34.4636V45.9168C34.4636 46.1199 34.5443 46.3147 34.6879 46.4584C34.8315 46.602 35.0263 46.6827 35.2294 46.6827C35.4326 46.6827 35.6274 46.602 35.771 46.4584C35.9146 46.3147 35.9953 46.1199 35.9953 45.9168V45.151H37.527V45.9168C37.527 46.1199 37.6077 46.3147 37.7513 46.4584C37.8949 46.602 38.0897 46.6827 38.2929 46.6827C38.496 46.6827 38.6908 46.602 38.8344 46.4584C38.978 46.3147 39.0587 46.1199 39.0587 45.9168V45.151H41.8829C42.0063 45.151 42.1278 45.1808 42.2372 45.2378C42.3465 45.2949 42.4405 45.3775 42.511 45.4786L44.4197 48.2144H19.9123L21.821 45.4786ZM55.1417 53.5754C55.1417 53.9816 54.9803 54.3712 54.6931 54.6585C54.4058 54.9457 54.0162 55.1071 53.61 55.1071H10.722C10.3158 55.1071 9.92619 54.9457 9.63894 54.6585C9.35168 54.3712 9.19031 53.9816 9.19031 53.5754V51.2778C9.19031 50.8716 9.35168 50.482 9.63894 50.1947C9.92619 49.9075 10.3158 49.7461 10.722 49.7461H53.61C54.0162 49.7461 54.4058 49.9075 54.6931 50.1947C54.9803 50.482 55.1417 50.8716 55.1417 51.2778V53.5754ZM44.4197 7.54659C44.6469 7.54659 44.869 7.47922 45.0579 7.35299C45.2469 7.22676 45.3941 7.04734 45.4811 6.83743C45.568 6.62752 45.5908 6.39653 45.5464 6.17369C45.5021 5.95085 45.3927 5.74616 45.232 5.5855C45.0714 5.42483 44.8667 5.31542 44.6438 5.2711C44.421 5.22677 44.19 5.24952 43.9801 5.33647C43.7702 5.42342 43.5908 5.57066 43.4645 5.75958C43.3383 5.94849 43.2709 6.1706 43.2709 6.39781C43.2713 6.70238 43.3924 6.99437 43.6078 7.20974C43.8232 7.4251 44.1152 7.54625 44.4197 7.54659ZM44.4197 5.82342C44.5333 5.82342 44.6444 5.8571 44.7388 5.92022C44.8333 5.98333 44.9069 6.07304 44.9504 6.178C44.9939 6.28295 45.0052 6.39845 44.9831 6.50987C44.9609 6.62129 44.9062 6.72364 44.8259 6.80397C44.7455 6.8843 44.6432 6.939 44.5318 6.96116C44.4204 6.98333 44.3049 6.97195 44.1999 6.92848C44.095 6.885 44.0052 6.81138 43.9421 6.71692C43.879 6.62247 43.8453 6.51141 43.8453 6.39781C43.8455 6.24552 43.906 6.0995 44.0137 5.99182C44.1214 5.88413 44.2674 5.82357 44.4197 5.82342ZM60.6194 25.2387C60.4679 25.2387 60.3199 25.2836 60.1939 25.3678C60.068 25.4519 59.9698 25.5715 59.9118 25.7115C59.8539 25.8514 59.8387 26.0054 59.8683 26.154C59.8978 26.3025 59.9707 26.439 60.0779 26.5461C60.185 26.6532 60.3214 26.7261 60.47 26.7557C60.6185 26.7852 60.7725 26.7701 60.9125 26.7121C61.0524 26.6541 61.172 26.556 61.2562 26.43C61.3403 26.3041 61.3853 26.156 61.3853 26.0046C61.385 25.8015 61.3043 25.6068 61.1607 25.4633C61.0171 25.3197 60.8224 25.2389 60.6194 25.2387ZM60.6194 26.3875C60.5437 26.3875 60.4696 26.365 60.4067 26.3229C60.3437 26.2809 60.2946 26.2211 60.2656 26.1511C60.2366 26.0811 60.229 26.0041 60.2438 25.9298C60.2586 25.8556 60.2951 25.7873 60.3486 25.7338C60.4022 25.6802 60.4704 25.6438 60.5447 25.629C60.619 25.6142 60.696 25.6218 60.7659 25.6508C60.8359 25.6798 60.8957 25.7288 60.9378 25.7918C60.9799 25.8548 61.0023 25.9288 61.0023 26.0046C61.0022 26.1061 60.9618 26.2034 60.8901 26.2752C60.8183 26.347 60.7209 26.3874 60.6194 26.3875ZM13.0196 30.2168C12.8681 30.2168 12.72 30.2617 12.5941 30.3458C12.4682 30.43 12.37 30.5496 12.312 30.6895C12.2541 30.8295 12.2389 30.9835 12.2684 31.132C12.298 31.2806 12.3709 31.4171 12.478 31.5242C12.5852 31.6313 12.7216 31.7042 12.8702 31.7338C13.0187 31.7633 13.1727 31.7481 13.3127 31.6902C13.4526 31.6322 13.5722 31.5341 13.6564 31.4081C13.7405 31.2822 13.7854 31.1341 13.7854 30.9826C13.7852 30.7796 13.7045 30.5849 13.5609 30.4413C13.4173 30.2978 13.2226 30.217 13.0196 30.2168ZM13.0196 31.3656C12.9439 31.3656 12.8698 31.3431 12.8068 31.301C12.7439 31.2589 12.6948 31.1991 12.6658 31.1292C12.6368 31.0592 12.6292 30.9822 12.644 30.9079C12.6588 30.8336 12.6953 30.7654 12.7488 30.7119C12.8024 30.6583 12.8706 30.6218 12.9449 30.6071C13.0192 30.5923 13.0962 30.5999 13.1661 30.6288C13.2361 30.6578 13.2959 30.7069 13.338 30.7699C13.3801 30.8329 13.4025 30.9069 13.4025 30.9826C13.4024 31.0842 13.362 31.1815 13.2902 31.2533C13.2185 31.3251 13.1211 31.3654 13.0196 31.3656ZM53.943 10.4334C53.7916 10.4334 53.6435 10.4783 53.5175 10.5625C53.3916 10.6466 53.2934 10.7662 53.2355 10.9062C53.1775 11.0461 53.1623 11.2001 53.1919 11.3487C53.2214 11.4972 53.2944 11.6337 53.4015 11.7408C53.5086 11.8479 53.6451 11.9208 53.7936 11.9504C53.9422 11.9799 54.0962 11.9648 54.2361 11.9068C54.3761 11.8488 54.4957 11.7507 54.5798 11.6247C54.664 11.4988 54.7089 11.3507 54.7089 11.1992C54.7087 10.9962 54.6279 10.8015 54.4843 10.658C54.3407 10.5144 54.1461 10.4336 53.943 10.4334ZM53.943 11.5822C53.8673 11.5822 53.7933 11.5597 53.7303 11.5176C53.6673 11.4756 53.6182 11.4158 53.5893 11.3458C53.5603 11.2758 53.5527 11.1988 53.5675 11.1245C53.5822 11.0503 53.6187 10.982 53.6723 10.9285C53.7258 10.8749 53.794 10.8384 53.8683 10.8237C53.9426 10.8089 54.0196 10.8165 54.0896 10.8455C54.1595 10.8744 54.2193 10.9235 54.2614 10.9865C54.3035 11.0495 54.326 11.1235 54.326 11.1992C54.3259 11.3008 54.2855 11.3981 54.2137 11.4699C54.1419 11.5417 54.0446 11.5821 53.943 11.5822ZM3.06345 19.7393C3.06345 19.5878 3.01854 19.4398 2.93438 19.3138C2.85023 19.1879 2.73062 19.0897 2.59068 19.0318C2.45073 18.9738 2.29675 18.9586 2.14818 18.9882C1.99962 19.0177 1.86316 19.0907 1.75605 19.1978C1.64895 19.3049 1.57601 19.4413 1.54645 19.5899C1.5169 19.7385 1.53207 19.8925 1.59004 20.0324C1.648 20.1723 1.74616 20.2919 1.87211 20.3761C1.99805 20.4603 2.14612 20.5052 2.2976 20.5052C2.50064 20.5049 2.69531 20.4242 2.83888 20.2806C2.98246 20.137 3.06322 19.9424 3.06345 19.7393ZM1.91467 19.7393C1.91467 19.6636 1.93713 19.5895 1.9792 19.5266C2.02128 19.4636 2.08108 19.4145 2.15106 19.3855C2.22103 19.3566 2.29802 19.349 2.3723 19.3637C2.44658 19.3785 2.51481 19.415 2.56837 19.4685C2.62192 19.5221 2.65839 19.5903 2.67317 19.6646C2.68794 19.7389 2.68036 19.8159 2.65138 19.8859C2.62239 19.9558 2.57331 20.0156 2.51034 20.0577C2.44737 20.0998 2.37333 20.1222 2.2976 20.1222C2.19607 20.1221 2.09873 20.0818 2.02694 20.01C1.95515 19.9382 1.91477 19.8408 1.91467 19.7393Z" fill="#2D4356"/>
<path d="M6.78568 6.30234L7.35509 5.55333L6.99552 5.34961L6.63021 6.18822H6.61796L6.24652 5.35574L5.88082 5.5652L6.44411 6.29621V6.30846L5.56299 6.19435V6.60179L6.45023 6.48806V6.49993L5.88082 7.23094L6.22239 7.44653L6.61183 6.60179H6.6237L6.98327 7.4404L7.36084 7.22481L6.78568 6.50605V6.4938L7.69016 6.60179V6.19435L6.78568 6.31421V6.30234Z" fill="#1E83E6"/>
<path d="M19.943 11.8617L19.6152 12.2825L19.812 12.407L20.0364 11.9203H20.0429L20.2501 12.4035L20.4676 12.2791L20.1363 11.8651V11.8582L20.6571 11.9203V11.6855L20.1363 11.7548V11.748L20.4641 11.3164L20.2573 11.1992L20.0467 11.6821H20.0398L19.8258 11.2027L19.6152 11.3233L19.9395 11.7445V11.7514L19.4321 11.6855V11.9203L19.943 11.8548V11.8617Z" fill="#1E83E6"/>
<path d="M62.4285 1.47024V1.07046L61.5412 1.18802V1.17615L62.0995 0.441693L61.7469 0.242188L61.3884 1.06472H61.3766L61.0124 0.247931L60.6536 0.453564L61.2062 1.17041V1.18228L60.3423 1.07046V1.47024L61.2119 1.35842V1.37029L60.6536 2.08714L60.9887 2.2989L61.3708 1.47024H61.3823L61.735 2.29277L62.1053 2.08139L61.5412 1.37604V1.36417L62.4285 1.47024Z" fill="#1E83E6"/>
<path d="M30.003 0.805681L30.4848 0.172318L30.1807 0L29.8717 0.709183H29.8614L29.547 0.00497807L29.2376 0.182274L29.7143 0.800703V0.811042L28.9688 0.714544V1.05918L29.7193 0.963065V0.973021L29.2376 1.59145L29.5263 1.77411L29.8564 1.05918H29.8663L30.1704 1.76875L30.4897 1.58647L30.003 0.977999V0.968043L30.7685 1.05918V0.714544L30.003 0.81602V0.805681Z" fill="#1E83E6"/>
</svg>
