<svg width="81" height="74" viewBox="0 0 81 74" fill="none" xmlns="http://www.w3.org/2000/svg">
<path d="M72.6693 64.3096H45.8037V59.9048H68.4644C69.2314 59.904 69.9667 59.6254 70.509 59.1299C71.0514 58.6344 71.3564 57.9626 71.3572 57.262V29.9524C71.3564 29.2517 71.0514 28.58 70.509 28.0845C69.9667 27.589 69.2314 27.3103 68.4644 27.3096H12.5358C11.7688 27.3103 11.0335 27.589 10.4912 28.0845C9.94885 28.58 9.6438 29.2517 9.64296 29.9524V57.262C9.6438 57.9626 9.94885 58.6344 10.4912 59.1299C11.0335 59.6254 11.7688 59.904 12.5358 59.9048H35.1965V64.3096H8.3309C8.19372 64.2932 8.05429 64.3038 7.92193 64.3405C7.78957 64.3773 7.66732 64.4395 7.56335 64.5228C7.45937 64.6062 7.37607 64.7089 7.31901 64.8241C7.26194 64.9392 7.23242 65.0641 7.23242 65.1905C7.23242 65.3169 7.26194 65.4419 7.31901 65.557C7.37607 65.6721 7.45937 65.7748 7.56335 65.8582C7.66732 65.9416 7.78957 66.0037 7.92193 66.0405C8.05429 66.0773 8.19372 66.0879 8.3309 66.0715H72.6693C72.8065 66.0879 72.9459 66.0773 73.0783 66.0405C73.2106 66.0037 73.3329 65.9416 73.4369 65.8582C73.5408 65.7748 73.6241 65.6721 73.6812 65.557C73.7383 65.4419 73.7678 65.3169 73.7678 65.1905C73.7678 65.0641 73.7383 64.9392 73.6812 64.8241C73.6241 64.7089 73.5408 64.6062 73.4369 64.5228C73.3329 64.4395 73.2106 64.3773 73.0783 64.3405C72.9459 64.3038 72.8065 64.2932 72.6693 64.3096ZM12.5358 58.1429C12.2802 58.1426 12.0351 58.0497 11.8543 57.8846C11.6735 57.7194 11.5718 57.4955 11.5715 57.262V29.9524C11.5718 29.7189 11.6735 29.4949 11.8543 29.3298C12.0351 29.1646 12.2802 29.0717 12.5358 29.0715H68.4644C68.72 29.0717 68.9651 29.1646 69.1459 29.3298C69.3267 29.4949 69.4284 29.7189 69.4287 29.9524V57.262C69.4284 57.4955 69.3267 57.7194 69.1459 57.8846C68.9651 58.0497 68.72 58.1426 68.4644 58.1429H12.5358ZM37.1251 64.3096V59.9048H43.8751V64.3096H37.1251Z" fill="#2D4356"/>
<path d="M62.5869 45.627V41.1275C63.0131 40.9936 63.4003 40.7729 63.7194 40.4821C64.0385 40.1913 64.2811 39.838 64.4287 39.449C64.5764 39.06 64.6253 38.6454 64.5717 38.2366C64.5182 37.8277 64.3636 37.4354 64.1197 37.0891C63.8757 36.7429 63.5488 36.4519 63.1636 36.2381C62.7784 36.0243 62.3451 35.8933 61.8963 35.855C61.4476 35.8167 60.9952 35.8721 60.5733 36.0171C60.1515 36.162 59.7712 36.3927 59.4613 36.6917L55.9701 34.9152C56.0503 34.5216 56.0347 34.1167 55.9242 33.7292C55.8138 33.3418 55.6114 32.9813 55.3313 32.6734C55.0512 32.3655 54.7003 32.1177 54.3036 31.9477C53.9069 31.7776 53.474 31.6895 53.0358 31.6895C52.5976 31.6895 52.1647 31.7776 51.768 31.9477C51.3713 32.1177 51.0204 32.3655 50.7403 32.6734C50.4602 32.9813 50.2578 33.3418 50.1474 33.7292C50.037 34.1167 50.0213 34.5216 50.1015 34.9152L46.6103 36.6917C46.3007 36.3904 45.9201 36.1576 45.4973 36.0109C45.0745 35.8641 44.6206 35.8074 44.1702 35.8449C43.7198 35.8824 43.2847 36.0133 42.8979 36.2274C42.5111 36.4416 42.1828 36.7335 41.938 37.0809C41.6932 37.4284 41.5383 37.8222 41.485 38.2325C41.4318 38.6429 41.4816 39.0589 41.6307 39.449C41.7799 39.8391 42.0243 40.193 42.3456 40.4838C42.6668 40.7747 43.0564 40.9948 43.4848 41.1275V45.627C43.0769 45.7549 42.7044 45.9623 42.393 46.2348C42.0816 46.5074 41.8389 46.8385 41.6817 47.2054C41.5244 47.5722 41.4564 47.9659 41.4824 48.3591C41.5084 48.7523 41.6277 49.1357 41.832 49.4826C42.0364 49.8295 42.3209 50.1316 42.6659 50.368C43.0108 50.6043 43.4079 50.7693 43.8297 50.8515C44.2514 50.9336 44.6876 50.9309 45.1081 50.8436C45.5286 50.7564 45.9233 50.5865 46.2647 50.3459L50.1015 52.2983C50.0213 52.6919 50.037 53.0968 50.1474 53.4842C50.2578 53.8717 50.4602 54.2322 50.7403 54.5401C51.0204 54.848 51.3713 55.0957 51.768 55.2658C52.1647 55.4359 52.5976 55.524 53.0358 55.524C53.474 55.524 53.9069 55.4359 54.3036 55.2658C54.7003 55.0957 55.0512 54.848 55.3313 54.5401C55.6114 54.2322 55.8138 53.8717 55.9242 53.4842C56.0346 53.0968 56.0503 52.6919 55.9701 52.2983L59.8069 50.3459C60.1483 50.5885 60.5435 50.7601 60.965 50.8488C61.3864 50.9375 61.824 50.9412 62.2472 50.8596C62.6703 50.778 63.0689 50.6131 63.4152 50.3763C63.7614 50.1395 64.047 49.8366 64.252 49.4887C64.457 49.1407 64.5764 48.7561 64.602 48.3617C64.6276 47.9673 64.5588 47.5725 64.4002 47.2049C64.2417 46.8372 63.9973 46.5056 63.6842 46.2331C63.371 45.9606 62.9965 45.7538 62.5868 45.627L62.5869 45.627ZM61.6225 36.7243C62.0194 36.7263 62.4067 36.8357 62.7355 37.0387C63.0644 37.2416 63.3201 37.529 63.4704 37.8645C63.6207 38.2 63.6588 38.5687 63.58 38.9241C63.5012 39.2794 63.309 39.6054 63.0276 39.8611C62.7462 40.1167 62.3882 40.2905 61.9988 40.3604C61.6094 40.4304 61.2061 40.3934 60.8396 40.2542C60.4732 40.115 60.1601 39.8797 59.9399 39.5782C59.7197 39.2766 59.6021 38.9221 59.6021 38.5596C59.6037 38.0714 59.8174 37.6038 60.1963 37.2597C60.5752 36.9155 61.0882 36.7229 61.6225 36.7243ZM53.0358 32.5948C53.4327 32.5969 53.8199 32.7063 54.1488 32.9092C54.4777 33.1121 54.7334 33.3995 54.8837 33.735C55.034 34.0706 55.0721 34.4393 54.9933 34.7946C54.9145 35.1499 54.7223 35.476 54.4408 35.7316C54.1594 35.9872 53.8014 36.161 53.4121 36.231C53.0227 36.3009 52.6193 36.264 52.2529 36.1248C51.8865 35.9855 51.5734 35.7503 51.3532 35.4487C51.1329 35.1471 51.0154 34.7927 51.0154 34.4301C51.0169 33.942 51.2307 33.4744 51.6096 33.1302C51.9885 32.786 52.5015 32.5934 53.0358 32.5948ZM47.4191 38.2968L51.0476 36.4503C51.5937 36.8984 52.3018 37.1462 53.0358 37.1462C53.7698 37.1462 54.4779 36.8984 55.024 36.4503L58.6526 38.2968C58.6434 38.3834 58.6379 38.471 58.6379 38.5597C58.6388 38.7955 58.6736 39.0301 58.7414 39.2576L55.0403 41.1412C54.4923 40.6848 53.7774 40.4317 53.0358 40.4317C52.2942 40.4317 51.5793 40.6848 51.0313 41.1412L47.3302 39.2576C47.398 39.0301 47.4328 38.7955 47.4337 38.5597C47.4337 38.471 47.4283 38.3834 47.4191 38.2968ZM55.0562 43.1479C55.0585 43.5134 54.9419 43.8713 54.7213 44.1762C54.5007 44.4812 54.1859 44.7194 53.817 44.8607C53.448 45.002 53.0414 45.0401 52.6487 44.97C52.256 44.9 51.8949 44.725 51.6112 44.4673C51.3275 44.2096 51.1339 43.8807 51.055 43.5224C50.9761 43.164 51.0155 42.7923 51.1681 42.4544C51.3206 42.1165 51.5796 41.8276 51.9121 41.6244C52.2446 41.4211 52.6357 41.3126 53.0358 41.3126C53.5701 41.3112 54.0832 41.5038 54.4621 41.8479C54.841 42.1921 55.0547 42.6597 55.0562 43.1479L55.0562 43.1479ZM42.4287 38.5596C42.4264 38.1941 42.543 37.8362 42.7636 37.5312C42.9842 37.2263 43.299 36.9881 43.6679 36.8468C44.0369 36.7054 44.4435 36.6674 44.8362 36.7374C45.2289 36.8075 45.59 36.9824 45.8737 37.2401C46.1574 37.4979 46.351 37.8267 46.4299 38.1851C46.5088 38.5434 46.4694 38.9151 46.3168 39.253C46.1643 39.5909 45.9053 39.8798 45.5728 40.0831C45.2403 40.2864 44.8492 40.3949 44.4491 40.3949C43.9148 40.3963 43.4017 40.2037 43.0228 39.8595C42.6439 39.5153 42.4302 39.0477 42.4287 38.5596ZM44.4491 50.0303C44.0523 50.0283 43.665 49.9189 43.3361 49.7159C43.0073 49.513 42.7515 49.2257 42.6012 48.8901C42.451 48.5546 42.4128 48.1859 42.4916 47.8305C42.5704 47.4752 42.7626 47.1492 43.0441 46.8935C43.3255 46.6379 43.6834 46.4641 44.0728 46.3942C44.4622 46.3242 44.8656 46.3612 45.232 46.5004C45.5984 46.6396 45.9115 46.8748 46.1317 47.1764C46.352 47.478 46.4695 47.8324 46.4695 48.195C46.468 48.6831 46.2543 49.1507 45.8754 49.4949C45.4965 49.8391 44.9834 50.0317 44.4491 50.0303V50.0303ZM47.3356 48.874C47.3998 48.6525 47.4328 48.4243 47.4337 48.1952C47.432 47.6281 47.2363 47.0757 46.8741 46.6152C46.5118 46.1548 46.0011 45.8093 45.4133 45.627V41.1275C45.7128 41.0339 45.9941 40.8973 46.2466 40.7229L46.4611 40.832L50.0981 42.683C49.9718 43.3209 50.102 43.979 50.4645 44.5363C50.8271 45.0935 51.3978 45.5124 52.0715 45.7159V50.2154C51.6936 50.3335 51.3454 50.5197 51.0477 50.7631L47.3356 48.874ZM53.0358 54.6186C52.639 54.6166 52.2517 54.5072 51.9228 54.3042C51.594 54.1013 51.3383 53.814 51.188 53.4784C51.0377 53.1429 50.9995 52.7742 51.0783 52.4188C51.1571 52.0635 51.3494 51.7374 51.6308 51.4818C51.9122 51.2262 52.2702 51.0524 52.6595 50.9825C53.0489 50.9125 53.4523 50.9494 53.8187 51.0887C54.1851 51.2279 54.4982 51.4631 54.7185 51.7647C54.9387 52.0663 55.0562 52.4207 55.0562 52.7833C55.0547 53.2714 54.841 53.739 54.4621 54.0832C54.0832 54.4274 53.5701 54.62 53.0358 54.6186ZM58.736 48.874L55.024 50.7631C54.7262 50.5197 54.3781 50.3335 54.0001 50.2154V45.7159C54.6739 45.5124 55.2445 45.0935 55.6071 44.5363C55.9697 43.979 56.0998 43.3209 55.9735 42.683L59.6105 40.832L59.8251 40.7229C60.0775 40.8973 60.3588 41.0339 60.6583 41.1275V45.627C60.0705 45.8093 59.5598 46.1548 59.1975 46.6152C58.8353 47.0757 58.6396 47.6281 58.6379 48.1952C58.6389 48.4243 58.6718 48.6524 58.736 48.874ZM61.6225 50.0303C61.2257 50.0283 60.8384 49.9189 60.5096 49.7159C60.1807 49.513 59.925 49.2256 59.7747 48.8901C59.6244 48.5546 59.5863 48.1859 59.6651 47.8305C59.7439 47.4752 59.9361 47.1492 60.2175 46.8935C60.4989 46.6379 60.8569 46.4641 61.2463 46.3942C61.6357 46.3242 62.039 46.3612 62.4054 46.5004C62.7719 46.6396 63.0849 46.8748 63.3052 47.1764C63.5254 47.478 63.643 47.8324 63.643 48.195C63.6414 48.6831 63.4277 49.1507 63.0488 49.4949C62.6699 49.8391 62.1569 50.0317 61.6225 50.0303Z" fill="#2D4356"/>
<path d="M22.1788 32.5957H18.3216C17.8103 32.5962 17.3201 32.782 16.9585 33.1123C16.597 33.4426 16.3936 33.8905 16.3931 34.3576V52.8576C16.3936 53.3247 16.597 53.7726 16.9585 54.1029C17.3201 54.4332 17.8103 54.619 18.3216 54.6195H22.1788C22.6901 54.619 23.1803 54.4332 23.5419 54.1029C23.9034 53.7726 24.1068 53.3247 24.1074 52.8576V34.3576C24.1068 33.8905 23.9034 33.4426 23.5419 33.1123C23.1803 32.782 22.6901 32.5962 22.1788 32.5957ZM18.3216 34.3576H22.1788L22.1791 38.7624H18.3216V34.3576ZM18.3216 52.8576V40.5243H22.1792L22.18 52.8576H18.3216ZM33.7502 32.5957H29.8931C29.3817 32.5962 28.8915 32.782 28.53 33.1123C28.1684 33.4426 27.965 33.8905 27.9645 34.3576V52.8576C27.965 53.3247 28.1684 53.7726 28.53 54.1029C28.8915 54.4332 29.3817 54.619 29.8931 54.6195H33.7502C34.2615 54.619 34.7518 54.4332 35.1133 54.1029C35.4749 53.7726 35.6782 53.3247 35.6788 52.8576V34.3576C35.6782 33.8905 35.4749 33.4426 35.1133 33.1123C34.7518 32.782 34.2615 32.5962 33.7502 32.5957ZM29.8931 34.3576H33.7502L33.7508 44.0481H29.8931V34.3576ZM29.8931 52.8576V45.81H33.7509L33.7514 52.8576H29.8931Z" fill="#1E83E6"/>
<path d="M0.964286 66.0715C1.49685 66.0715 1.92857 65.6771 1.92857 65.1905C1.92857 64.704 1.49685 64.3096 0.964286 64.3096C0.431725 64.3096 0 64.704 0 65.1905C0 65.6771 0.431725 66.0715 0.964286 66.0715Z" fill="#2D4356"/>
<path d="M5.30378 64.3096H3.85735C3.60161 64.3096 3.35634 64.4024 3.1755 64.5676C2.99466 64.7328 2.89307 64.9569 2.89307 65.1905C2.89307 65.4242 2.99466 65.6482 3.1755 65.8134C3.35634 65.9787 3.60161 66.0715 3.85735 66.0715H5.30378C5.55953 66.0715 5.8048 65.9787 5.98563 65.8134C6.16647 65.6482 6.26807 65.4242 6.26807 65.1905C6.26807 64.9569 6.16647 64.7328 5.98563 64.5676C5.8048 64.4024 5.55953 64.3096 5.30378 64.3096ZM77.1431 64.3096H75.6966C75.4409 64.3096 75.1956 64.4024 75.0148 64.5676C74.834 64.7328 74.7324 64.9569 74.7324 65.1905C74.7324 65.4242 74.834 65.6482 75.0148 65.8134C75.1956 65.9787 75.4409 66.0715 75.6966 66.0715H77.1431C77.3988 66.0715 77.6441 65.9787 77.8249 65.8134C78.0058 65.6482 78.1074 65.4242 78.1074 65.1905C78.1074 64.9569 78.0058 64.7328 77.8249 64.5676C77.6441 64.4024 77.3988 64.3096 77.1431 64.3096Z" fill="#2D4356"/>
<path d="M80.0356 66.0715C80.5681 66.0715 80.9999 65.6771 80.9999 65.1905C80.9999 64.704 80.5681 64.3096 80.0356 64.3096C79.503 64.3096 79.0713 64.704 79.0713 65.1905C79.0713 65.6771 79.503 66.0715 80.0356 66.0715Z" fill="#2D4356"/>
<path d="M56.9673 67.833H52.9618C52.7193 67.8508 52.4931 67.9513 52.3282 68.1145C52.1632 68.2778 52.0716 68.4918 52.0716 68.714C52.0716 68.9361 52.1632 69.1502 52.3282 69.3134C52.4931 69.4767 52.7193 69.5772 52.9618 69.5949H56.9673C57.2097 69.5772 57.4359 69.4767 57.6008 69.3134C57.7658 69.1502 57.8574 68.9361 57.8574 68.714C57.8574 68.4918 57.7658 68.2778 57.6008 68.1145C57.4359 67.9513 57.2097 67.8508 56.9673 67.833ZM28.0387 67.833H24.0332C23.7908 67.8508 23.5646 67.9513 23.3996 68.1145C23.2347 68.2778 23.1431 68.4918 23.1431 68.714C23.1431 68.9361 23.2347 69.1502 23.3996 69.3134C23.5646 69.4767 23.7908 69.5772 24.0332 69.5949H28.0387C28.2811 69.5772 28.5073 69.4767 28.6723 69.3134C28.8372 69.1502 28.9288 68.9361 28.9288 68.714C28.9288 68.4918 28.8372 68.2778 28.6723 68.1145C28.5073 67.9513 28.2811 67.8508 28.0387 67.833ZM50.1431 67.833H30.8574C30.6016 67.833 30.3564 67.9258 30.1755 68.091C29.9947 68.2562 29.8931 68.4803 29.8931 68.714C29.8931 68.9476 29.9947 69.1717 30.1755 69.3369C30.3564 69.5021 30.6016 69.5949 30.8574 69.5949H38.5427V70.4759H34.7145C34.4588 70.4759 34.2135 70.5687 34.0327 70.7339C33.8518 70.8991 33.7502 71.1232 33.7502 71.3568C33.7502 71.5905 33.8518 71.8145 34.0327 71.9797C34.2135 72.1449 34.4588 72.2378 34.7145 72.2378H46.7681C47.0238 72.2378 47.2691 72.1449 47.4499 71.9797C47.6308 71.8145 47.7324 71.5905 47.7324 71.3568C47.7324 71.1232 47.6308 70.8991 47.4499 70.7339C47.2691 70.5687 47.0238 70.4759 46.7681 70.4759H42.4577V69.5949H50.1431C50.3988 69.5949 50.6441 69.5021 50.8249 69.3369C51.0058 69.1717 51.1074 68.9476 51.1074 68.714C51.1074 68.4803 51.0058 68.2562 50.8249 68.091C50.6441 67.9258 50.3988 67.833 50.1431 67.833Z" fill="#1E83E6"/>
<path d="M36.7428 13.8334C37.0289 13.8334 37.3086 13.7559 37.5464 13.6107C37.7843 13.4655 37.9697 13.2591 38.0792 13.0176C38.1886 12.7762 38.2173 12.5105 38.1615 12.2542C38.1057 11.9978 37.9679 11.7624 37.7656 11.5776C37.5633 11.3928 37.3056 11.2669 37.025 11.2159C36.7444 11.1649 36.4536 11.1911 36.1893 11.2911C35.925 11.3911 35.6991 11.5605 35.5402 11.7778C35.3812 11.9951 35.2964 12.2506 35.2964 12.512C35.2968 12.8623 35.4494 13.1982 35.7205 13.4459C35.9917 13.6936 36.3593 13.833 36.7428 13.8334ZM36.7428 11.8512C36.8859 11.8512 37.0257 11.89 37.1446 11.9626C37.2636 12.0352 37.3563 12.1384 37.411 12.2591C37.4657 12.3798 37.4801 12.5127 37.4521 12.6409C37.4242 12.769 37.3554 12.8867 37.2542 12.9791C37.1531 13.0716 37.0242 13.1345 36.8839 13.16C36.7436 13.1855 36.5982 13.1724 36.4661 13.1224C36.3339 13.0724 36.221 12.9877 36.1415 12.879C36.062 12.7704 36.0196 12.6426 36.0196 12.512C36.0198 12.3368 36.0961 12.1688 36.2317 12.0449C36.3672 11.9211 36.5511 11.8514 36.7428 11.8512ZM6.70306 5.68457C6.51234 5.68457 6.3259 5.73624 6.16733 5.83304C6.00875 5.92984 5.88516 6.06742 5.81217 6.2284C5.73919 6.38937 5.72009 6.5665 5.7573 6.73739C5.79451 6.90828 5.88634 7.06525 6.0212 7.18845C6.15606 7.31165 6.32788 7.39556 6.51493 7.42955C6.70199 7.46354 6.89587 7.44609 7.07207 7.37942C7.24827 7.31274 7.39887 7.19983 7.50483 7.05495C7.61079 6.91008 7.66734 6.73976 7.66734 6.56552C7.66705 6.33196 7.56536 6.10804 7.38459 5.94289C7.20381 5.77774 6.95871 5.68484 6.70306 5.68457ZM6.70306 7.006C6.6077 7.006 6.51448 6.98017 6.43519 6.93177C6.3559 6.88337 6.29411 6.81457 6.25761 6.73409C6.22112 6.6536 6.21157 6.56503 6.23018 6.47959C6.24878 6.39415 6.2947 6.31566 6.36213 6.25406C6.42956 6.19246 6.51547 6.15051 6.60899 6.13351C6.70252 6.11651 6.79946 6.12524 6.88756 6.15858C6.97566 6.19191 7.05096 6.24837 7.10394 6.32081C7.15692 6.39324 7.1852 6.4784 7.1852 6.56552C7.18507 6.68231 7.13423 6.79428 7.04384 6.87686C6.95345 6.95944 6.83089 7.00588 6.70306 7.006ZM56.2551 18.5647C55.9941 18.5665 55.7396 18.6389 55.5236 18.7727C55.3075 18.9064 55.1397 19.0957 55.0412 19.3165C54.9427 19.5373 54.918 19.7798 54.9701 20.0134C55.0222 20.247 55.1489 20.4613 55.3342 20.6293C55.5194 20.7972 55.7549 20.9113 56.0111 20.9572C56.2672 21.003 56.5324 20.9786 56.7733 20.8869C57.0143 20.7952 57.2201 20.6405 57.3649 20.4421C57.5097 20.2437 57.587 20.0106 57.587 19.7722C57.5852 19.4508 57.444 19.1432 57.1943 18.9168C56.9447 18.6905 56.6069 18.5638 56.2551 18.5647ZM56.2551 20.3759C56.1246 20.375 55.9974 20.3388 55.8893 20.2719C55.7813 20.205 55.6974 20.1104 55.6482 20C55.5989 19.8896 55.5865 19.7684 55.6126 19.6516C55.6387 19.5347 55.702 19.4276 55.7946 19.3436C55.8873 19.2596 56.005 19.2026 56.1331 19.1797C56.2612 19.1568 56.3938 19.169 56.5142 19.2148C56.6347 19.2606 56.7376 19.338 56.81 19.4372C56.8824 19.5364 56.921 19.653 56.921 19.7722C56.9202 19.9329 56.8496 20.0867 56.7248 20.1999C56.5999 20.3131 56.431 20.3764 56.2551 20.3759V20.3759ZM75.77 12.0715C75.5793 12.0715 75.3929 12.1231 75.2343 12.2199C75.0757 12.3167 74.9521 12.4543 74.8792 12.6153C74.8062 12.7763 74.7871 12.9534 74.8243 13.1243C74.8615 13.2952 74.9533 13.4522 75.0882 13.5754C75.223 13.6986 75.3949 13.7825 75.5819 13.8165C75.769 13.8504 75.9628 13.833 76.139 13.7663C76.3152 13.6996 76.4659 13.5867 76.5718 13.4419C76.6778 13.297 76.7343 13.1267 76.7343 12.9524C76.734 12.7189 76.6323 12.4949 76.4516 12.3298C76.2708 12.1646 76.0257 12.0717 75.77 12.0715ZM75.77 13.3929C75.6747 13.3929 75.5815 13.3671 75.5022 13.3187C75.4229 13.2703 75.3611 13.2015 75.3246 13.121C75.2881 13.0405 75.2785 12.9519 75.2972 12.8665C75.3158 12.7811 75.3617 12.7026 75.4291 12.641C75.4965 12.5794 75.5824 12.5374 75.676 12.5204C75.7695 12.5034 75.8664 12.5121 75.9545 12.5455C76.0426 12.5788 76.1179 12.6353 76.1709 12.7077C76.2239 12.7801 76.2522 12.8653 76.2522 12.9524C76.252 13.0692 76.2012 13.1812 76.1108 13.2638C76.0204 13.3463 75.8979 13.3928 75.77 13.3929ZM20.4441 19.009C20.4441 18.8347 20.3876 18.6644 20.2816 18.5195C20.1757 18.3747 20.0251 18.2618 19.8489 18.1951C19.6727 18.1284 19.4788 18.111 19.2917 18.1449C19.1047 18.1789 18.9328 18.2628 18.798 18.386C18.6631 18.5093 18.5713 18.6662 18.5341 18.8371C18.4969 19.008 18.516 19.1851 18.589 19.3461C18.6619 19.5071 18.7855 19.6447 18.9441 19.7415C19.1027 19.8383 19.2891 19.8899 19.4798 19.8899C19.7355 19.8897 19.9806 19.7968 20.1614 19.6316C20.3421 19.4665 20.4438 19.2425 20.4441 19.009ZM18.9977 19.009C18.9977 18.9219 19.026 18.8367 19.079 18.7643C19.1319 18.6918 19.2072 18.6354 19.2953 18.602C19.3834 18.5687 19.4804 18.56 19.5739 18.577C19.6674 18.594 19.7533 18.6359 19.8208 18.6975C19.8882 18.7591 19.9341 18.8376 19.9527 18.923C19.9713 19.0085 19.9618 19.0971 19.9253 19.1775C19.8888 19.258 19.827 19.3268 19.7477 19.3752C19.6684 19.4236 19.5752 19.4495 19.4798 19.4495C19.352 19.4493 19.2294 19.4029 19.1391 19.3203C19.0487 19.2377 18.9978 19.1258 18.9977 19.009Z" fill="#2D4356"/>
<path d="M3.8764 19.2341L4.59335 18.373L4.14062 18.1387L3.68065 19.1033H3.66522L3.19755 18.1453L2.7371 18.3867L3.44633 19.2275V19.2412L2.3374 19.1104V19.5786L3.45405 19.4478V19.4619L2.7371 20.3023L3.16717 20.5507L3.65799 19.5786H3.67246L4.12519 20.5437L4.60058 20.2957L3.8764 19.4685V19.4548L5.01522 19.5786V19.1104L3.8764 19.2478V19.2341Z" fill="#1E83E6"/>
<path d="M20.2008 4.49347L19.7876 4.97755L20.0354 5.12071L20.318 4.56086H20.3266L20.587 5.11674L20.8608 4.97359L20.4438 4.49743V4.4895L21.1 4.56086V4.29129L20.4438 4.37058V4.36265L20.8565 3.86667L20.5962 3.73145L20.331 4.28689H20.3223L20.0533 3.73541L19.7876 3.8746L20.1965 4.35868V4.36661L19.5576 4.29129V4.56086L20.2008 4.48554V4.49347Z" fill="#1E83E6"/>
<path d="M70.2576 3.82374V3.36432L69.1404 3.49911V3.48589L69.8439 2.64106L69.3998 2.41113L68.9486 3.35728H68.9331L68.4751 2.41774L68.0228 2.65428L68.7191 3.47929V3.4925L67.6309 3.36432V3.82374L68.7263 3.69556V3.70878L68.0228 4.53335L68.4447 4.77693L68.9259 3.82374H68.9404L69.3844 4.77032L69.8511 4.52674L69.1404 3.71538V3.70217L70.2576 3.82374Z" fill="#1E83E6"/>
<path d="M46.7571 2.71403L47.4124 2.02116L47.0435 1.80136L46.5995 2.59378L46.5864 2.5929L46.247 1.76172L45.8439 1.9432L46.3946 2.6876L46.3936 2.69905L45.4645 2.5352L45.4375 2.93074L46.3883 2.87392L46.3873 2.88581L45.7335 3.56106L46.0821 3.79143L46.5527 2.99417L46.5652 2.99505L46.8916 3.83152L47.3077 3.6452L46.7436 2.9118L46.7446 2.90035L47.6992 3.0598L47.7262 2.66381L46.7566 2.72548L46.7571 2.71403Z" fill="#1E83E6"/>
<path d="M53.0357 45.8642C52.4482 45.8621 51.8745 45.701 51.3871 45.4013C50.8997 45.1016 50.5204 44.6767 50.2971 44.1802C50.0738 43.6837 50.0166 43.1379 50.1326 42.6117C50.2486 42.0855 50.5326 41.6025 50.9489 41.2237C51.3651 40.8449 51.8949 40.5872 52.4713 40.4832C53.0477 40.3792 53.6449 40.4336 54.1875 40.6395C54.7301 40.8453 55.1938 41.1935 55.52 41.6399C55.8462 42.0863 56.0203 42.611 56.0204 43.1478C56.018 43.8693 55.7024 44.5605 55.1428 45.0698C54.5833 45.579 53.8255 45.8647 53.0357 45.8642ZM53.0357 42.1937C52.8296 42.1958 52.6288 42.2535 52.4585 42.3596C52.2882 42.4658 52.1561 42.6155 52.0788 42.7901C52.0015 42.9647 51.9825 43.1562 52.0241 43.3407C52.0657 43.5251 52.1661 43.6942 52.3127 43.8266C52.4592 43.959 52.6454 44.0488 52.8478 44.0848C53.0501 44.1207 53.2596 44.1012 53.4498 44.0286C53.64 43.9561 53.8024 43.8337 53.9167 43.677C54.0309 43.5202 54.0919 43.3361 54.0918 43.1478C54.0899 42.8934 53.9777 42.6501 53.7797 42.4712C53.5817 42.2924 53.3142 42.1926 53.0357 42.1937ZM53.0357 55.4996C52.4482 55.4975 51.8745 55.3365 51.3871 55.0367C50.8997 54.737 50.5204 54.3121 50.2971 53.8156C50.0738 53.3191 50.0166 52.7733 50.1326 52.2471C50.2486 51.7209 50.5326 51.2379 50.9489 50.8591C51.3651 50.4803 51.8949 50.2226 52.4713 50.1186C53.0477 50.0147 53.6449 50.069 54.1875 50.2749C54.7301 50.4808 55.1938 50.8289 55.52 51.2753C55.8462 51.7217 56.0203 52.2464 56.0204 52.7832C56.018 53.5047 55.7024 54.1959 55.1428 54.7052C54.5833 55.2144 53.8255 55.5001 53.0357 55.4996ZM53.0357 51.8291C52.8296 51.8312 52.6288 51.8889 52.4585 51.995C52.2882 52.1012 52.1561 52.251 52.0788 52.4255C52.0015 52.6001 51.9825 52.7917 52.0241 52.9761C52.0657 53.1605 52.1661 53.3296 52.3127 53.462C52.4592 53.5944 52.6454 53.6843 52.8478 53.7202C53.0501 53.7562 53.2596 53.7366 53.4498 53.664C53.64 53.5915 53.8024 53.4691 53.9167 53.3124C54.0309 53.1556 54.0919 52.9715 54.0918 52.7832C54.0899 52.5288 53.9777 52.2855 53.7797 52.1066C53.5817 51.9278 53.3142 51.828 53.0357 51.8291ZM61.6225 41.2758C61.0349 41.2737 60.4612 41.1126 59.9738 40.8129C59.4864 40.5131 59.1071 40.0882 58.8838 39.5917C58.6606 39.0951 58.6033 38.5493 58.7194 38.0231C58.8354 37.4969 59.1195 37.0139 59.5358 36.6351C59.9521 36.2563 60.4819 35.9987 61.0583 35.8947C61.6348 35.7908 62.232 35.8452 62.7746 36.0512C63.3172 36.2571 63.7808 36.6053 64.107 37.0518C64.4331 37.4982 64.6072 38.023 64.6071 38.5598C64.6047 39.2813 64.2891 39.9724 63.7295 40.4816C63.17 40.9908 62.4122 41.2764 61.6225 41.2758ZM61.6225 37.6053C61.4164 37.6073 61.2156 37.6651 61.0453 37.7712C60.875 37.8773 60.7429 38.027 60.6656 38.2016C60.5883 38.3761 60.5692 38.5677 60.6108 38.7521C60.6524 38.9365 60.7527 39.1056 60.8993 39.238C61.0458 39.3704 61.2319 39.4603 61.4342 39.4963C61.6365 39.5323 61.846 39.5128 62.0362 39.4403C62.2264 39.3678 62.3889 39.2455 62.5032 39.0888C62.6175 38.9321 62.6785 38.7481 62.6786 38.5598C62.6768 38.3053 62.5646 38.0619 62.3666 37.883C62.1686 37.704 61.901 37.6041 61.6225 37.6053ZM61.6225 50.9112C61.0349 50.9091 60.4612 50.748 59.9738 50.4483C59.4864 50.1485 59.1071 49.7236 58.8838 49.2271C58.6606 48.7306 58.6033 48.1847 58.7194 47.6585C58.8354 47.1323 59.1195 46.6493 59.5358 46.2705C59.9521 45.8917 60.4819 45.6341 61.0583 45.5301C61.6348 45.4262 62.232 45.4807 62.7746 45.6866C63.3172 45.8925 63.7808 46.2407 64.107 46.6872C64.4331 47.1337 64.6072 47.6584 64.6071 48.1952C64.6047 48.9167 64.2891 49.6078 63.7295 50.117C63.17 50.6262 62.4122 50.9118 61.6225 50.9112ZM61.6225 47.2407C61.4164 47.2427 61.2156 47.3005 61.0453 47.4066C60.875 47.5127 60.7429 47.6624 60.6656 47.837C60.5883 48.0115 60.5692 48.2031 60.6108 48.3875C60.6524 48.5719 60.7527 48.741 60.8993 48.8734C61.0458 49.0058 61.2319 49.0957 61.4342 49.1317C61.6365 49.1677 61.846 49.1482 62.0362 49.0757C62.2264 49.0032 62.3889 48.8809 62.5032 48.7242C62.6175 48.5676 62.6785 48.3835 62.6786 48.1952C62.6768 47.9407 62.5646 47.6973 62.3666 47.5184C62.1686 47.3394 61.901 47.2396 61.6225 47.2407ZM44.449 50.9112C43.8614 50.9091 43.2877 50.748 42.8003 50.4483C42.3129 50.1485 41.9336 49.7236 41.7103 49.2271C41.4871 48.7306 41.4298 48.1847 41.5459 47.6585C41.6619 47.1323 41.946 46.6493 42.3623 46.2705C42.7786 45.8917 43.3084 45.6341 43.8848 45.5301C44.4613 45.4262 45.0585 45.4807 45.6011 45.6866C46.1437 45.8925 46.6073 46.2407 46.9335 46.6872C47.2596 47.1337 47.4337 47.6584 47.4336 48.1952C47.4312 48.9167 47.1156 49.6078 46.556 50.117C45.9965 50.6262 45.2387 50.9118 44.449 50.9112ZM44.449 47.2407C44.2429 47.2427 44.042 47.3005 43.8718 47.4066C43.7015 47.5127 43.5694 47.6624 43.4921 47.837C43.4148 48.0115 43.3957 48.2031 43.4373 48.3875C43.4789 48.5719 43.5792 48.741 43.7257 48.8734C43.8723 49.0058 44.0584 49.0957 44.2607 49.1317C44.463 49.1677 44.6725 49.1482 44.8627 49.0757C45.0529 49.0032 45.2154 48.8809 45.3297 48.7242C45.444 48.5676 45.505 48.3835 45.5051 48.1952C45.5033 47.9407 45.3911 47.6973 45.1931 47.5184C44.9951 47.3394 44.7275 47.2396 44.449 47.2407ZM44.449 41.2758C43.8614 41.2737 43.2877 41.1126 42.8003 40.8129C42.3129 40.5131 41.9336 40.0882 41.7103 39.5917C41.4871 39.0951 41.4298 38.5493 41.5459 38.0231C41.6619 37.4969 41.946 37.0139 42.3623 36.6351C42.7786 36.2563 43.3084 35.9987 43.8848 35.8947C44.4613 35.7908 45.0585 35.8452 45.6011 36.0512C46.1437 36.2571 46.6073 36.6053 46.9335 37.0518C47.2596 37.4982 47.4337 38.023 47.4336 38.5598C47.4312 39.2813 47.1156 39.9724 46.556 40.4816C45.9965 40.9908 45.2387 41.2764 44.449 41.2758ZM44.449 37.6053C44.2429 37.6073 44.042 37.6651 43.8718 37.7712C43.7015 37.8773 43.5694 38.027 43.4921 38.2016C43.4148 38.3761 43.3957 38.5677 43.4373 38.7521C43.4789 38.9365 43.5792 39.1056 43.7257 39.238C43.8723 39.3704 44.0584 39.4603 44.2607 39.4963C44.463 39.5323 44.6725 39.5128 44.8627 39.4403C45.0529 39.3678 45.2154 39.2455 45.3297 39.0888C45.444 38.9321 45.505 38.7481 45.5051 38.5598C45.5033 38.3053 45.3911 38.0619 45.1931 37.883C44.9951 37.704 44.7275 37.6041 44.449 37.6053ZM53.0357 37.1463C52.4482 37.1442 51.8745 36.9831 51.387 36.6834C50.8996 36.3837 50.5203 35.9587 50.2971 35.4622C50.0738 34.9657 50.0166 34.4199 50.1326 33.8937C50.2487 33.3674 50.5328 32.8844 50.949 32.5056C51.3653 32.1268 51.8951 31.8692 52.4716 31.7653C53.048 31.6613 53.6452 31.7158 54.1878 31.9217C54.7304 32.1276 55.1941 32.4758 55.5202 32.9223C55.8464 33.3688 56.0204 33.8935 56.0204 34.4303C56.0179 35.1518 55.7023 35.843 55.1428 36.3521C54.5832 36.8613 53.8255 37.1469 53.0357 37.1463ZM53.0357 33.4758C52.8296 33.4779 52.6288 33.5356 52.4585 33.6417C52.2883 33.7478 52.1562 33.8976 52.0788 34.0721C52.0015 34.2466 51.9825 34.4382 52.024 34.6226C52.0656 34.807 52.166 34.9761 52.3125 35.1085C52.459 35.241 52.6452 35.3308 52.8475 35.3668C53.0498 35.4028 53.2592 35.3834 53.4494 35.3108C53.6396 35.2383 53.8021 35.1161 53.9164 34.9594C54.0307 34.8027 54.0918 34.6186 54.0918 34.4303C54.09 34.1759 53.9778 33.9325 53.7798 33.7535C53.5819 33.5746 53.3142 33.4747 53.0357 33.4758Z" fill="#1E83E6"/>
</svg>
