<svg width="53" height="53" viewBox="0 0 53 53" fill="none" xmlns="http://www.w3.org/2000/svg">
<g clip-path="url(#clip0_774_314)">
<path d="M37.2748 49.372H34.6539C34.4953 49.3847 34.3473 49.4567 34.2393 49.5736C34.1314 49.6905 34.0715 49.8438 34.0715 50.0029C34.0715 50.1621 34.1314 50.3153 34.2393 50.4323C34.3473 50.5492 34.4953 50.6212 34.6539 50.6339H37.2748C37.4334 50.6212 37.5814 50.5492 37.6893 50.4323C37.7973 50.3153 37.8572 50.1621 37.8572 50.0029C37.8572 49.8438 37.7973 49.6905 37.6893 49.5736C37.5814 49.4567 37.4334 49.3847 37.2748 49.372ZM18.3462 49.372H15.7253C15.5667 49.3847 15.4187 49.4567 15.3108 49.5736C15.2028 49.6905 15.1429 49.8438 15.1429 50.0029C15.1429 50.1621 15.2028 50.3153 15.3108 50.4323C15.4187 50.5492 15.5667 50.6212 15.7253 50.6339H18.3462C18.5048 50.6212 18.6528 50.5492 18.7608 50.4323C18.8687 50.3153 18.9286 50.1621 18.9286 50.0029C18.9286 49.8438 18.8687 49.6905 18.7608 49.5736C18.6528 49.4567 18.5048 49.3847 18.3462 49.372ZM32.8096 49.372H20.1905C20.0232 49.372 19.8627 49.4385 19.7444 49.5568C19.626 49.6751 19.5596 49.8356 19.5596 50.0029C19.5596 50.1703 19.626 50.3308 19.7444 50.4491C19.8627 50.5674 20.0232 50.6339 20.1905 50.6339H25.2192V51.2648H22.7143C22.547 51.2648 22.3865 51.3313 22.2682 51.4496C22.1498 51.568 22.0834 51.7285 22.0834 51.8958C22.0834 52.0631 22.1498 52.2236 22.2682 52.3419C22.3865 52.4603 22.547 52.5267 22.7143 52.5267H30.6012C30.7686 52.5267 30.9291 52.4603 31.0474 52.3419C31.1657 52.2236 31.2322 52.0631 31.2322 51.8958C31.2322 51.7285 31.1657 51.568 31.0474 51.4496C30.9291 51.3313 30.7686 51.2648 30.6012 51.2648H27.7809V50.6339H32.8096C32.9769 50.6339 33.1374 50.5674 33.2557 50.4491C33.374 50.3308 33.4405 50.1703 33.4405 50.0029C33.4405 49.8356 33.374 49.6751 33.2557 49.5568C33.1374 49.4385 32.9769 49.372 32.8096 49.372ZM20.675 20.9086H21.7154C21.8827 20.9086 22.0432 20.8421 22.1615 20.7238C22.2798 20.6054 22.3463 20.445 22.3463 20.2776C22.3463 20.1103 22.2798 19.9498 22.1615 19.8315C22.0432 19.7131 21.8827 19.6467 21.7154 19.6467H17.3512V18.3695C17.3512 18.2022 17.2848 18.0417 17.1664 17.9234C17.0481 17.805 16.8876 17.7385 16.7203 17.7385C16.5529 17.7385 16.3925 17.805 16.2741 17.9234C16.1558 18.0417 16.0893 18.2022 16.0893 18.3695V19.6467H11.7252C11.5579 19.6467 11.3974 19.7131 11.279 19.8315C11.1607 19.9498 11.0942 20.1103 11.0942 20.2776C11.0942 20.4449 11.1607 20.6054 11.279 20.7238C11.3974 20.8421 11.5579 20.9086 11.7252 20.9086H12.7656C12.7575 21.9736 13.1275 24.0452 15.6403 26.1344C14.8436 26.6278 14.0105 27.0596 13.1481 27.426C12.9944 27.4923 12.8734 27.6169 12.8116 27.7724C12.7498 27.9279 12.7523 28.1016 12.8186 28.2552C12.8848 28.4089 13.0094 28.5299 13.1649 28.5917C13.3204 28.6535 13.4941 28.651 13.6478 28.5847C14.7204 28.1316 15.7489 27.5805 16.7203 26.9385C17.6917 27.5805 18.7202 28.1316 19.7928 28.5847C19.9464 28.651 20.1201 28.6535 20.2756 28.5917C20.4311 28.5299 20.5557 28.4089 20.622 28.2553C20.6883 28.1016 20.6908 27.9279 20.629 27.7724C20.5672 27.6169 20.4462 27.4923 20.2925 27.4261C19.43 27.0595 18.5965 26.628 17.7992 26.1354C20.3131 24.0458 20.683 21.9738 20.675 20.9086ZM16.7171 25.3864C14.2963 23.5051 14.0116 21.7059 14.0243 20.9086H19.4149C19.4238 21.6992 19.1347 23.5035 16.7171 25.3864ZM35.9646 35.5507C35.8313 35.551 35.7012 35.5911 35.5909 35.666C35.4806 35.7409 35.3953 35.8471 35.3459 35.9709L32.591 42.6831C32.5597 42.761 32.5439 42.8443 32.5443 42.9283C32.5462 43.1041 32.6169 43.2723 32.7413 43.3966C32.8656 43.521 33.0338 43.5917 33.2096 43.5936C33.347 43.591 33.4804 43.5474 33.5928 43.4684C33.7051 43.3894 33.7913 43.2785 33.8401 43.1501L34.5521 41.4574H37.377L38.0892 43.1501C38.138 43.2785 38.2241 43.3893 38.3364 43.4684C38.4487 43.5474 38.5822 43.591 38.7195 43.5936C38.8954 43.5917 39.0635 43.521 39.1879 43.3966C39.3123 43.2723 39.383 43.1042 39.3849 42.9283C39.3854 42.8443 39.3695 42.761 39.3383 42.6831L36.5833 35.9709C36.5339 35.8471 36.4486 35.7409 36.3383 35.666C36.2281 35.5911 36.0979 35.551 35.9646 35.5507ZM35.0074 40.2199L35.9646 37.7685L36.9219 40.2199H35.0074ZM43.1619 10.2529H41.713C41.5456 10.2529 41.3852 10.3194 41.2668 10.4377C41.1485 10.5561 41.082 10.7165 41.082 10.8839C41.082 11.0512 41.1485 11.2117 41.2668 11.33C41.3852 11.4484 41.5456 11.5148 41.713 11.5148H43.1619C43.3292 11.5148 43.4897 11.4484 43.608 11.33C43.7264 11.2117 43.7928 11.0512 43.7928 10.8839C43.7928 10.7165 43.7264 10.5561 43.608 10.4377C43.4897 10.3194 43.3292 10.2529 43.1619 10.2529Z" fill="#1E83E6"/>
<path d="M38.8152 10.2529H37.3663C37.199 10.2529 37.0385 10.3194 36.9202 10.4377C36.8018 10.5561 36.7354 10.7165 36.7354 10.8839C36.7354 11.0512 36.8018 11.2117 36.9202 11.33C37.0385 11.4484 37.199 11.5148 37.3663 11.5148H38.8152C38.9825 11.5148 39.143 11.4484 39.2614 11.33C39.3797 11.2117 39.4462 11.0512 39.4462 10.8839C39.4462 10.7165 39.3797 10.5561 39.2614 10.4377C39.143 10.3194 38.9825 10.2529 38.8152 10.2529Z" fill="#2D4356"/>
<path d="M46.0594 35.4912C45.8921 35.4912 45.7316 35.5577 45.6133 35.676C45.495 35.7943 45.4285 35.9548 45.4285 36.1222V37.3841C45.4285 37.5514 45.4949 37.7119 45.6133 37.8302C45.7316 37.9485 45.8921 38.015 46.0594 38.015C46.2268 38.015 46.3872 37.9485 46.5056 37.8302C46.6239 37.7119 46.6904 37.5514 46.6904 37.3841V36.1222C46.6904 35.9548 46.6239 35.7943 46.5056 35.676C46.3872 35.5577 46.2268 35.4912 46.0594 35.4912Z" fill="#1E83E6"/>
<path d="M23.9761 24.2919C24.1435 24.2918 24.3039 24.2254 24.4223 24.107C24.5406 23.9887 24.6071 23.8282 24.6071 23.6609V16.5627C24.6067 16.2281 24.4736 15.9074 24.237 15.6708C24.0005 15.4342 23.6797 15.3012 23.3452 15.3008H10.0952C9.7606 15.3012 9.43985 15.4342 9.20328 15.6708C8.96671 15.9074 8.83363 16.2281 8.83325 16.5627V29.8127C8.83363 30.1472 8.96671 30.468 9.20328 30.7046C9.43985 30.9411 9.7606 31.0742 10.0952 31.0746H23.3452C23.6797 31.0742 24.0005 30.9411 24.237 30.7046C24.4736 30.468 24.6067 30.1472 24.6071 29.8127V27.4466C24.6071 27.2793 24.5406 27.1188 24.4223 27.0005C24.3039 26.8821 24.1435 26.8157 23.9761 26.8157C23.8088 26.8157 23.6483 26.8821 23.53 27.0005C23.4116 27.1188 23.3452 27.2793 23.3452 27.4466V29.8127H10.0952V16.5627H23.3452V23.6609C23.3452 23.8282 23.4116 23.9887 23.53 24.107C23.6483 24.2254 23.8088 24.2918 23.9761 24.2919ZM36.5155 28.1047C36.3971 27.9867 36.2368 27.9206 36.0697 27.9207C35.9026 27.9209 35.7423 27.9874 35.6242 28.1055C35.506 28.2237 35.4396 28.3839 35.4394 28.551C35.4392 28.7181 35.5054 28.8785 35.6233 28.9969L37.411 30.7845C37.4992 30.8728 37.6116 30.9328 37.734 30.9572C37.8564 30.9815 37.9832 30.969 38.0985 30.9213C38.2138 30.8735 38.3123 30.7927 38.3817 30.6889C38.451 30.5852 38.488 30.4632 38.488 30.3384V21.5051C38.488 21.3378 38.4215 21.1773 38.3032 21.059C38.1849 20.9406 38.0244 20.8741 37.8571 20.8741H26.8154C26.6481 20.8741 26.4876 20.9406 26.3692 21.0589C26.2509 21.1773 26.1844 21.3378 26.1844 21.5051C26.1844 21.6724 26.2509 21.8329 26.3692 21.9512C26.4876 22.0696 26.6481 22.136 26.8154 22.136H37.2261V28.8151L36.5155 28.1047ZM15.1428 42.3265H26.1844C26.3518 42.3265 26.5123 42.26 26.6306 42.1417C26.7489 42.0234 26.8154 41.8629 26.8154 41.6956C26.8154 41.5282 26.7489 41.3677 26.6306 41.2494C26.5123 41.1311 26.3518 41.0646 26.1844 41.0646H15.7737V34.3855L16.4843 35.0961C16.6027 35.2141 16.7631 35.2802 16.9302 35.2801C17.0973 35.2799 17.2575 35.2135 17.3757 35.0953C17.4938 34.9771 17.5603 34.8169 17.5605 34.6498C17.5606 34.4827 17.4945 34.3223 17.3765 34.2039L15.5889 32.4161C15.5006 32.3279 15.3882 32.2678 15.2658 32.2435C15.1435 32.2191 15.0166 32.2316 14.9013 32.2794C14.786 32.3271 14.6875 32.408 14.6182 32.5117C14.5488 32.6155 14.5118 32.7375 14.5118 32.8622V41.6956C14.5118 41.8629 14.5783 42.0234 14.6966 42.1417C14.815 42.26 14.9754 42.3265 15.1428 42.3265Z" fill="#2D4356"/>
<path d="M0.630952 48.1105C0.979418 48.1105 1.2619 47.8281 1.2619 47.4796C1.2619 47.1311 0.979418 46.8486 0.630952 46.8486C0.282487 46.8486 0 47.1311 0 47.4796C0 47.8281 0.282487 48.1105 0.630952 48.1105Z" fill="#2D4356"/>
<path d="M3.4702 46.8486H2.52377C2.35644 46.8486 2.19595 46.9151 2.07762 47.0334C1.9593 47.1518 1.89282 47.3122 1.89282 47.4796C1.89282 47.6469 1.9593 47.8074 2.07762 47.9257C2.19595 48.0441 2.35644 48.1105 2.52377 48.1105H3.4702C3.63754 48.1105 3.79803 48.0441 3.91635 47.9257C4.03468 47.8074 4.10116 47.6469 4.10116 47.4796C4.10116 47.3122 4.03468 47.1518 3.91635 47.0334C3.79803 46.9151 3.63754 46.8486 3.4702 46.8486ZM50.4762 46.8486H49.5297C49.3624 46.8486 49.2019 46.9151 49.0836 47.0334C48.9652 47.1518 48.8988 47.3122 48.8988 47.4796C48.8988 47.6469 48.9652 47.8074 49.0836 47.9257C49.2019 48.0441 49.3624 48.1105 49.5297 48.1105H50.4762C50.6435 48.1105 50.804 48.0441 50.9223 47.9257C51.0406 47.8074 51.1071 47.6469 51.1071 47.4796C51.1071 47.3122 51.0406 47.1518 50.9223 47.0334C50.804 46.9151 50.6435 46.8486 50.4762 46.8486Z" fill="#2D4356"/>
<path d="M52.369 48.1105C52.7175 48.1105 52.9999 47.8281 52.9999 47.4796C52.9999 47.1311 52.7175 46.8486 52.369 46.8486C52.0205 46.8486 51.738 47.1311 51.738 47.4796C51.738 47.8281 52.0205 48.1105 52.369 48.1105Z" fill="#2D4356"/>
<path d="M47.5489 46.8486H43.8511V44.4826C43.8511 44.3152 43.7846 44.1547 43.6663 44.0364C43.548 43.9181 43.3875 43.8516 43.2202 43.8516C43.0528 43.8516 42.8923 43.9181 42.774 44.0364C42.6557 44.1547 42.5892 44.3152 42.5892 44.4826V46.8486H29.3392V33.5986H42.5892V40.6968C42.5892 40.8642 42.6557 41.0247 42.774 41.143C42.8923 41.2613 43.0528 41.3278 43.2202 41.3278C43.3875 41.3278 43.548 41.2613 43.6663 41.143C43.7846 41.0247 43.8511 40.8642 43.8511 40.6968V33.5986C43.8507 33.2641 43.7177 32.9433 43.4811 32.7067C43.2445 32.4702 42.9238 32.3371 42.5892 32.3367H29.3392C29.0047 32.3371 28.6839 32.4702 28.4473 32.7067C28.2108 32.9433 28.0777 33.2641 28.0773 33.5986V46.8486H7.57136V14.0391H45.4285V33.5986C45.4285 33.766 45.495 33.9265 45.6133 34.0448C45.7316 34.1631 45.8921 34.2296 46.0595 34.2296C46.2268 34.2296 46.3873 34.1631 46.5056 34.0448C46.6239 33.9265 46.6904 33.766 46.6904 33.5986V8.36054C46.6904 8.1932 46.6239 8.03272 46.5056 7.9144C46.3873 7.79607 46.2268 7.72959 46.0595 7.72958H6.94041C6.77307 7.72959 6.61259 7.79607 6.49427 7.9144C6.37594 8.03272 6.30947 8.1932 6.30946 8.36054V46.8486H5.45095C5.36119 46.8369 5.26996 46.8445 5.18335 46.8708C5.09674 46.8971 5.01675 46.9417 4.94872 47.0014C4.88069 47.0611 4.82619 47.1346 4.78885 47.2171C4.75151 47.2996 4.73219 47.3891 4.73219 47.4796C4.73219 47.5701 4.75151 47.6596 4.78885 47.7421C4.82619 47.8245 4.88069 47.8981 4.94872 47.9578C5.01675 48.0175 5.09674 48.062 5.18335 48.0884C5.26996 48.1147 5.36119 48.1223 5.45095 48.1105H47.5489C47.6387 48.1223 47.7299 48.1147 47.8165 48.0884C47.9031 48.062 47.9831 48.0175 48.0511 47.9578C48.1192 47.8981 48.1737 47.8245 48.211 47.7421C48.2484 47.6596 48.2677 47.5701 48.2677 47.4796C48.2677 47.3891 48.2484 47.2996 48.211 47.2171C48.1737 47.1346 48.1192 47.0611 48.0511 47.0014C47.9831 46.9417 47.9031 46.8971 47.8165 46.8708C47.7299 46.8445 47.6387 46.8369 47.5489 46.8486ZM7.57136 8.99149H45.4285V12.7772H7.57136V8.99149ZM28.1734 2.36649C28.3606 2.36649 28.5436 2.31098 28.6992 2.20699C28.8549 2.10299 28.9762 1.95518 29.0478 1.78224C29.1195 1.60931 29.1382 1.41901 29.1017 1.23542C29.0652 1.05183 28.975 0.883196 28.8427 0.750836C28.7103 0.618475 28.5417 0.528337 28.3581 0.491819C28.1745 0.4553 27.9842 0.474043 27.8113 0.545676C27.6383 0.617309 27.4905 0.738615 27.3865 0.894254C27.2825 1.04989 27.227 1.23288 27.227 1.42006C27.2273 1.67098 27.3271 1.91154 27.5045 2.08897C27.682 2.2664 27.9225 2.3662 28.1734 2.36649ZM28.1734 0.946847C28.267 0.946847 28.3585 0.974601 28.4363 1.0266C28.5142 1.0786 28.5748 1.1525 28.6106 1.23897C28.6464 1.32544 28.6558 1.42059 28.6376 1.51238C28.6193 1.60418 28.5742 1.68849 28.5081 1.75467C28.4419 1.82085 28.3576 1.86592 28.2658 1.88418C28.174 1.90244 28.0788 1.89307 27.9923 1.85725C27.9059 1.82144 27.832 1.76079 27.78 1.68297C27.728 1.60515 27.7002 1.51365 27.7002 1.42006C27.7003 1.2946 27.7502 1.1743 27.839 1.08559C27.9277 0.996867 28.048 0.946971 28.1734 0.946847ZM50.8877 1.10459C50.7629 1.10459 50.6409 1.14159 50.5372 1.21092C50.4334 1.28025 50.3526 1.37879 50.3048 1.49408C50.257 1.60937 50.2445 1.73624 50.2689 1.85863C50.2932 1.98102 50.3533 2.09345 50.4416 2.18169C50.5298 2.26993 50.6422 2.33002 50.7646 2.35437C50.887 2.37871 51.0139 2.36622 51.1292 2.31846C51.2445 2.27071 51.343 2.18984 51.4123 2.08608C51.4817 1.98232 51.5187 1.86033 51.5187 1.73554C51.5185 1.56826 51.452 1.40788 51.3337 1.2896C51.2154 1.17131 51.055 1.10478 50.8877 1.10459ZM50.8877 2.05101C50.8253 2.05101 50.7643 2.03251 50.7125 1.99785C50.6606 1.96318 50.6201 1.91391 50.5963 1.85627C50.5724 1.79862 50.5661 1.73519 50.5783 1.67399C50.5905 1.6128 50.6205 1.55658 50.6646 1.51246C50.7088 1.46834 50.765 1.4383 50.8262 1.42612C50.8874 1.41395 50.9508 1.4202 51.0084 1.44408C51.0661 1.46795 51.1154 1.50839 51.15 1.56027C51.1847 1.61215 51.2032 1.67314 51.2032 1.73554C51.2031 1.81918 51.1698 1.89938 51.1107 1.95852C51.0516 2.01767 50.9714 2.05093 50.8877 2.05101ZM12.7151 0.473633C12.5903 0.473633 12.4683 0.510638 12.3646 0.579968C12.2608 0.649298 12.1799 0.747839 12.1322 0.863131C12.0844 0.978422 12.0719 1.10529 12.0963 1.22768C12.1206 1.35007 12.1807 1.4625 12.269 1.55074C12.3572 1.63898 12.4696 1.69907 12.592 1.72341C12.7144 1.74776 12.8413 1.73526 12.9566 1.68751C13.0719 1.63975 13.1704 1.55888 13.2397 1.45512C13.3091 1.35136 13.3461 1.22938 13.3461 1.10459C13.3459 0.937305 13.2793 0.776931 13.161 0.658646C13.0428 0.540361 12.8824 0.473824 12.7151 0.473633ZM12.7151 1.42006C12.6527 1.42006 12.5917 1.40156 12.5398 1.36689C12.488 1.33223 12.4475 1.28296 12.4236 1.22531C12.3998 1.16767 12.3935 1.10424 12.4057 1.04304C12.4179 0.981843 12.4479 0.92563 12.492 0.88151C12.5362 0.83739 12.5924 0.807344 12.6536 0.795171C12.7148 0.782998 12.7782 0.789246 12.8358 0.813124C12.8935 0.837001 12.9428 0.877437 12.9774 0.929316C13.0121 0.981196 13.0306 1.04219 13.0306 1.10459C13.0305 1.18823 12.9972 1.26842 12.9381 1.32757C12.8789 1.38671 12.7988 1.41998 12.7151 1.42006ZM47.102 5.20578C46.9772 5.20578 46.8552 5.24278 46.7515 5.31211C46.6477 5.38144 46.5668 5.47998 46.5191 5.59527C46.4713 5.71056 46.4588 5.83743 46.4832 5.95982C46.5075 6.08221 46.5676 6.19464 46.6559 6.28288C46.7441 6.37112 46.8565 6.43121 46.9789 6.45556C47.1013 6.4799 47.2282 6.46741 47.3435 6.41965C47.4588 6.3719 47.5573 6.29103 47.6266 6.18727C47.696 6.08351 47.733 5.96152 47.733 5.83673C47.7328 5.66945 47.6662 5.50907 47.548 5.39079C47.4297 5.2725 47.2693 5.20597 47.102 5.20578ZM47.102 6.1522C47.0396 6.1522 46.9786 6.1337 46.9267 6.09904C46.8749 6.06437 46.8344 6.0151 46.8105 5.95746C46.7867 5.89981 46.7804 5.83638 46.7926 5.77518C46.8048 5.71398 46.8348 5.65777 46.8789 5.61365C46.9231 5.56953 46.9793 5.53949 47.0405 5.52731C47.1017 5.51514 47.1651 5.52139 47.2227 5.54527C47.2804 5.56914 47.3297 5.60958 47.3643 5.66146C47.399 5.71334 47.4175 5.77433 47.4175 5.83673C47.4174 5.92037 47.3841 6.00057 47.325 6.05971C47.2658 6.11886 47.1856 6.15212 47.102 6.1522ZM3.88178 15.6165C3.88178 15.4917 3.84477 15.3697 3.77544 15.2659C3.70611 15.1622 3.60757 15.0813 3.49228 15.0336C3.37699 14.9858 3.25013 14.9733 3.12773 14.9977C3.00534 15.022 2.89292 15.0821 2.80467 15.1703C2.71643 15.2586 2.65634 15.371 2.632 15.4934C2.60765 15.6158 2.62015 15.7427 2.6679 15.8579C2.71566 15.9732 2.79653 16.0718 2.90029 16.1411C3.00405 16.2104 3.12604 16.2474 3.25083 16.2474C3.41811 16.2472 3.57848 16.1807 3.69676 16.0624C3.81505 15.9441 3.88159 15.7838 3.88178 15.6165ZM2.93535 15.6165C2.93535 15.5541 2.95385 15.4931 2.98852 15.4412C3.02318 15.3893 3.07245 15.3489 3.1301 15.325C3.18774 15.3011 3.25118 15.2949 3.31237 15.3071C3.37357 15.3192 3.42978 15.3493 3.4739 15.3934C3.51802 15.4375 3.54807 15.4937 3.56024 15.5549C3.57241 15.6161 3.56616 15.6796 3.54229 15.7372C3.51841 15.7949 3.47797 15.8441 3.42609 15.8788C3.37421 15.9135 3.31322 15.932 3.25083 15.932C3.16718 15.9319 3.08699 15.8986 3.02784 15.8395C2.9687 15.7803 2.93543 15.7001 2.93535 15.6165Z" fill="#2D4356"/>
<path d="M2.17309 4.89299L2.6422 4.27623L2.34597 4.1084L2.04469 4.79929H2.03491L1.7289 4.11313L1.42762 4.28601L1.89168 4.88826V4.89804L1.16577 4.80434V5.14001L1.89641 5.04631V5.05609L1.42762 5.65802L1.70871 5.83595L2.02986 5.14001H2.03964L2.33587 5.8309L2.64693 5.65328L2.17309 5.06082V5.05104L2.91824 5.14001V4.80434L2.17309 4.90277V4.89299Z" fill="#1E83E6"/>
<path d="M19.2695 5.54187L18.9994 5.88858L19.1616 5.99079L19.3465 5.59014H19.3518L19.5225 5.98795L19.7017 5.88574L19.4288 5.54439V5.53871L19.8578 5.59014V5.39675L19.4288 5.45354V5.44786L19.6988 5.09263L19.5285 4.99609L19.355 5.39391H19.3493L19.1729 4.99862L18.9994 5.09831L19.2666 5.44502V5.4507L18.8486 5.39675V5.59014L19.2695 5.53619V5.54187Z" fill="#1E83E6"/>
<path d="M50.888 13.6328V13.3038L50.157 13.4006V13.3909L50.617 12.7858L50.3264 12.6211L50.0311 13.2987H50.0214L49.7213 12.6258L49.4257 12.7956L49.881 13.3861V13.3959L49.1689 13.3038V13.6328L49.8857 13.541V13.5508L49.4257 14.1414L49.7018 14.3158L50.0166 13.6328H50.0261L50.3166 14.3108L50.6217 14.1366L50.157 13.5555V13.5458L50.888 13.6328Z" fill="#1E83E6"/>
<path d="M36.8311 6.33693L37.228 5.81482L36.9772 5.67285L36.7226 6.25743H36.7141L36.4554 5.67695L36.2002 5.82333L36.5929 6.33283V6.34103L35.979 6.26185V6.54577L36.597 6.46627V6.47479L36.2002 6.98429L36.4383 7.13477L36.71 6.54577H36.7182L36.969 7.13035L37.2321 6.98019L36.8311 6.47889V6.47038L37.4614 6.54577V6.26185L36.8311 6.34513V6.33693Z" fill="#1E83E6"/>
</g>
<defs>
<clipPath id="clip0_774_314">
<rect width="53" height="53" fill="white"/>
</clipPath>
</defs>
</svg>
