<svg width="69" height="65" viewBox="0 0 69 65" fill="none" xmlns="http://www.w3.org/2000/svg">
<path d="M17.1418 22.4758C17.2005 22.4206 17.2785 22.3904 17.3592 22.3917C17.3651 22.3921 17.3711 22.3921 17.377 22.3917C22.1495 22.3917 26.2884 20.0705 28.9208 18.1217C29.0066 18.0582 29.079 17.9785 29.1339 17.887C29.1888 17.7956 29.2252 17.6942 29.241 17.5886C29.2567 17.4831 29.2515 17.3755 29.2257 17.272C29.1999 17.1685 29.1539 17.0711 29.0904 16.9853C29.0269 16.8996 28.9472 16.8271 28.8557 16.7722C28.7643 16.7173 28.6629 16.6809 28.5573 16.6651C28.4518 16.6494 28.3442 16.6546 28.2407 16.6804C28.1372 16.7063 28.0398 16.7522 27.954 16.8157C25.5181 18.6188 21.7067 20.7667 17.382 20.7667H17.3542C16.8562 20.7654 16.377 20.9574 16.0176 21.3023C15.8359 21.4742 15.6908 21.6812 15.5911 21.9107C15.4915 22.1402 15.4393 22.3875 15.4376 22.6377C15.519 26.7967 16.2066 30.9217 17.4788 34.8823C18.8685 39.1733 20.8897 42.793 23.4861 45.6411C23.6314 45.7997 23.8338 45.8942 24.0487 45.9039C24.2636 45.9135 24.4736 45.8375 24.6326 45.6925C24.7915 45.5476 24.8865 45.3455 24.8967 45.1306C24.9069 44.9157 24.8315 44.7055 24.6869 44.5462C22.2477 41.8706 20.3426 38.4508 19.0249 34.3816C17.8033 30.5873 17.1422 26.6349 17.0626 22.6496C17.0636 22.6168 17.0711 22.5845 17.0847 22.5547C17.0983 22.5249 17.1177 22.4981 17.1418 22.4758ZM45.5012 24.7812H45.4999C42.0523 24.7814 38.746 26.1511 36.3083 28.589C33.8706 31.0269 32.5012 34.3333 32.5013 37.7808C32.5014 41.2284 33.871 44.5347 36.3088 46.9725C38.7466 49.4103 42.053 50.7798 45.5006 50.7798C48.9481 50.7798 52.2545 49.4103 54.6923 46.9725C57.1302 44.5347 58.4998 41.2284 58.4998 37.7808C58.4999 34.3333 57.1305 31.0269 54.6928 28.589C52.2551 26.1511 48.9488 24.7814 45.5012 24.7812ZM54.359 38.5937H56.5737C56.6669 38.5927 56.7591 38.5757 56.8465 38.5433C56.6813 41.0278 55.7018 43.3885 54.0597 45.2603C54.0212 45.1776 53.9689 45.1021 53.9051 45.037L52.3383 43.4711C52.2628 43.3954 52.1732 43.3353 52.0746 43.2943C51.9759 43.2533 51.8701 43.2321 51.7632 43.232C51.6564 43.232 51.5505 43.253 51.4518 43.2939C51.3531 43.3348 51.2634 43.3947 51.1879 43.4703C51.1123 43.5459 51.0525 43.6357 51.0117 43.7344C50.9709 43.8332 50.95 43.9391 50.9502 44.0459C50.9503 44.1528 50.9716 44.2586 51.0127 44.3572C51.0538 44.4558 51.114 44.5454 51.1897 44.6207L52.7566 46.1866C52.8216 46.2501 52.8968 46.3022 52.9792 46.3405C51.1075 47.9828 48.7467 48.9623 46.2622 49.1276C46.2945 49.0405 46.3115 48.9484 46.3124 48.8554V46.6409C46.3124 46.4254 46.2268 46.2187 46.0744 46.0664C45.922 45.914 45.7154 45.8284 45.4999 45.8284C45.2844 45.8284 45.0777 45.914 44.9254 46.0664C44.773 46.2187 44.6874 46.4254 44.6874 46.6409V48.8554C44.6882 48.9484 44.7052 49.0405 44.7375 49.1276C42.253 48.9623 39.8923 47.9828 38.0206 46.3405C38.1032 46.3022 38.1786 46.25 38.2435 46.1863L39.8096 44.6196C39.9618 44.4671 40.0472 44.2605 40.047 44.0451C40.0469 43.8297 39.9613 43.6232 39.809 43.4709C39.6566 43.3186 39.4501 43.2331 39.2347 43.233C39.0193 43.233 38.8127 43.3184 38.6603 43.4706L37.0942 45.0373C37.0306 45.1022 36.9785 45.1775 36.9401 45.2599C35.298 43.3883 34.3185 41.0277 34.1532 38.5433C34.2405 38.5757 34.3327 38.5927 34.4258 38.5937H36.6404C36.8558 38.5937 37.0625 38.5081 37.2149 38.3557C37.3672 38.2033 37.4529 37.9967 37.4529 37.7812C37.4529 37.5657 37.3672 37.359 37.2149 37.2066C37.0625 37.0543 36.8558 36.9687 36.6404 36.9687H34.4258C34.3327 36.9696 34.2404 36.9867 34.153 37.019C34.3125 34.5322 35.2917 32.1682 36.9373 30.2969C36.9761 30.3816 37.0293 30.4589 37.0946 30.5254L38.6611 32.0909C38.8136 32.2432 39.0203 32.3287 39.2358 32.3286C39.4513 32.3285 39.6579 32.2428 39.8102 32.0903C39.9625 31.9379 40.048 31.7311 40.0479 31.5156C40.0478 31.3001 39.9621 31.0935 39.8096 30.9412L38.2431 29.3757C38.1768 29.3107 38.0997 29.2577 38.0152 29.219C39.8866 27.5731 42.2507 26.5938 44.7378 26.4344C44.7053 26.5216 44.6883 26.6138 44.6874 26.7069V28.9219C44.6874 29.1374 44.773 29.344 44.9254 29.4964C45.0777 29.6488 45.2844 29.7344 45.4999 29.7344C45.7154 29.7344 45.922 29.6488 46.0744 29.4964C46.2268 29.344 46.3124 29.1374 46.3124 28.9219V26.7069C46.3115 26.6138 46.2945 26.5216 46.262 26.4343C48.8398 26.5992 51.2828 27.6441 53.1825 29.3943L45.7234 36.2101L42.1824 33.1188C42.0201 32.9773 41.8081 32.906 41.5932 32.9207C41.3783 32.9354 41.1781 33.0348 41.0364 33.197C40.8947 33.3593 40.8233 33.5711 40.8378 33.7861C40.8523 34.001 40.9515 34.2013 41.1136 34.3431L45.2013 37.9117C45.3517 38.043 45.5452 38.1143 45.7449 38.112C45.9446 38.1097 46.1364 38.034 46.2838 37.8994L54.3013 30.5734C55.8058 32.4012 56.6965 34.6564 56.8469 37.019C56.7594 36.9867 56.667 36.9696 56.5737 36.9687H54.359C54.1435 36.9687 53.9368 37.0543 53.7845 37.2066C53.6321 37.359 53.5465 37.5657 53.5465 37.7812C53.5465 37.9967 53.6321 38.2033 53.7845 38.3557C53.9368 38.5081 54.1435 38.5937 54.359 38.5937ZM56.0624 2.4375C56.3034 2.4375 56.5391 2.36602 56.7395 2.2321C56.9399 2.09818 57.0961 1.90784 57.1884 1.68514C57.2806 1.46245 57.3047 1.2174 57.2577 0.980982C57.2107 0.744568 57.0946 0.527408 56.9242 0.356963C56.7537 0.186519 56.5366 0.0704441 56.3001 0.0234184C56.0637 -0.0236072 55.8187 0.000528066 55.596 0.0927722C55.3733 0.185016 55.1829 0.341226 55.049 0.541648C54.9151 0.74207 54.8436 0.977702 54.8436 1.21875C54.844 1.54187 54.9725 1.85164 55.201 2.08012C55.4295 2.3086 55.7393 2.43713 56.0624 2.4375ZM56.0624 0.609374C56.1829 0.609374 56.3007 0.645113 56.4009 0.712072C56.5011 0.779031 56.5792 0.874202 56.6254 0.985551C56.6715 1.0969 56.6836 1.21942 56.66 1.33763C56.6365 1.45584 56.5785 1.56442 56.4933 1.64964C56.408 1.73486 56.2995 1.7929 56.1813 1.81641C56.0631 1.83993 55.9405 1.82786 55.8292 1.78174C55.7178 1.73561 55.6227 1.65751 55.5557 1.5573C55.4887 1.45709 55.453 1.33927 55.453 1.21875C55.4532 1.05718 55.5174 0.902277 55.6317 0.788032C55.7459 0.673786 55.9008 0.609533 56.0624 0.609374ZM27.6249 7.31249C27.866 7.31249 28.1016 7.24101 28.302 7.10709C28.5025 6.97317 28.6587 6.78283 28.7509 6.56013C28.8432 6.33744 28.8673 6.09239 28.8203 5.85597C28.7732 5.61956 28.6572 5.4024 28.4867 5.23195C28.3163 5.06151 28.0991 4.94543 27.8627 4.89841C27.6263 4.85138 27.3812 4.87552 27.1585 4.96776C26.9359 5.06001 26.7455 5.21622 26.6116 5.41664C26.4777 5.61706 26.4062 5.85269 26.4062 6.09374C26.4066 6.41686 26.5351 6.72663 26.7636 6.95511C26.992 7.18359 27.3018 7.31212 27.6249 7.31249ZM27.6249 5.48436C27.7455 5.48436 27.8633 5.5201 27.9635 5.58706C28.0637 5.65402 28.1418 5.74919 28.1879 5.86054C28.2341 5.97189 28.2461 6.09441 28.2226 6.21262C28.1991 6.33083 28.1411 6.43941 28.0558 6.52463C27.9706 6.60985 27.862 6.66789 27.7438 6.6914C27.6256 6.71492 27.5031 6.70285 27.3917 6.65673C27.2804 6.6106 27.1852 6.5325 27.1183 6.43229C27.0513 6.33208 27.0156 6.21426 27.0156 6.09374C27.0157 5.93217 27.08 5.77727 27.1942 5.66302C27.3085 5.54878 27.4634 5.48452 27.6249 5.48436ZM60.5311 8.12498C60.6918 8.12498 60.8489 8.07733 60.9825 7.98805C61.1161 7.89877 61.2203 7.77188 61.2818 7.62341C61.3433 7.47495 61.3594 7.31158 61.328 7.15397C61.2966 6.99637 61.2193 6.85159 61.1056 6.73796C60.992 6.62433 60.8472 6.54695 60.6896 6.5156C60.532 6.48425 60.3687 6.50034 60.2202 6.56183C60.0717 6.62333 59.9448 6.72747 59.8556 6.86108C59.7663 6.9947 59.7186 7.15179 59.7186 7.31249C59.7189 7.5279 59.8045 7.73442 59.9569 7.88674C60.1092 8.03906 60.3157 8.12474 60.5311 8.12498ZM60.5311 6.90624C60.6115 6.90624 60.69 6.93006 60.7568 6.9747C60.8236 7.01934 60.8757 7.08279 60.9064 7.15702C60.9372 7.23125 60.9452 7.31294 60.9296 7.39174C60.9139 7.47055 60.8752 7.54293 60.8184 7.59975C60.7616 7.65656 60.6892 7.69525 60.6104 7.71093C60.5316 7.7266 60.4499 7.71856 60.3757 7.68781C60.3014 7.65706 60.238 7.60499 60.1933 7.53819C60.1487 7.47138 60.1249 7.39283 60.1249 7.31249C60.125 7.20477 60.1678 7.10151 60.244 7.02534C60.3201 6.94918 60.4234 6.90634 60.5311 6.90624ZM37.3749 1.625C37.5356 1.625 37.6927 1.57734 37.8263 1.48807C37.9599 1.39879 38.0641 1.27189 38.1256 1.12343C38.1871 0.974964 38.2032 0.811598 38.1718 0.653988C38.1405 0.496379 38.0631 0.351606 37.9494 0.237976C37.8358 0.124346 37.691 0.0469629 37.5334 0.0156125C37.3758 -0.0157379 37.2125 0.000352264 37.064 0.0618483C36.9155 0.123344 36.7886 0.227484 36.6994 0.361099C36.6101 0.494714 36.5624 0.651802 36.5624 0.812499C36.5627 1.02791 36.6483 1.23443 36.8007 1.38675C36.953 1.53907 37.1595 1.62475 37.3749 1.625ZM37.3749 0.40625C37.4553 0.40625 37.5338 0.430076 37.6006 0.474715C37.6674 0.519354 37.7195 0.582802 37.7502 0.657034C37.781 0.731266 37.789 0.812949 37.7734 0.891754C37.7577 0.970559 37.719 1.04295 37.6622 1.09976C37.6054 1.15658 37.533 1.19527 37.4542 1.21094C37.3754 1.22662 37.2937 1.21857 37.2195 1.18782C37.1452 1.15708 37.0818 1.10501 37.0371 1.0382C36.9925 0.971391 36.9687 0.892847 36.9687 0.812499C36.9688 0.704788 37.0116 0.601519 37.0878 0.525356C37.1639 0.449193 37.2672 0.406357 37.3749 0.40625ZM1.625 12.1875C1.4643 12.1875 1.30721 12.2351 1.1736 12.3244C1.03998 12.4137 0.935844 12.5406 0.874348 12.689C0.812852 12.8375 0.796762 13.0009 0.828112 13.1585C0.859463 13.3161 0.936846 13.4609 1.05048 13.5745C1.16411 13.6881 1.30888 13.7655 1.46649 13.7969C1.6241 13.8282 1.78746 13.8121 1.93593 13.7506C2.08439 13.6891 2.21129 13.585 2.30057 13.4514C2.38984 13.3178 2.4375 13.1607 2.4375 13C2.43725 12.7846 2.35157 12.578 2.19925 12.4257C2.04693 12.2734 1.84041 12.1877 1.625 12.1875ZM1.625 13.4062C1.54465 13.4062 1.46611 13.3824 1.3993 13.3378C1.33249 13.2931 1.28042 13.2297 1.24967 13.1554C1.21893 13.0812 1.21088 12.9995 1.22656 12.9207C1.24223 12.8419 1.28092 12.7695 1.33774 12.7127C1.39455 12.6559 1.46694 12.6172 1.54574 12.6015C1.62455 12.5859 1.70623 12.5939 1.78046 12.6246C1.8547 12.6554 1.91814 12.7075 1.96278 12.7743C2.00742 12.8411 2.03125 12.9196 2.03125 13C2.03114 13.1077 1.9883 13.211 1.91214 13.2871C1.83598 13.3633 1.73271 13.4061 1.625 13.4062Z" fill="#2D4356"/>
<path d="M0.812498 58.9053C1.26123 58.9053 1.625 58.5415 1.625 58.0928C1.625 57.644 1.26123 57.2803 0.812498 57.2803C0.363768 57.2803 0 57.644 0 58.0928C0 58.5415 0.363768 58.9053 0.812498 58.9053Z" fill="#2D4356"/>
<path d="M4.46875 57.2803H3.25C3.03451 57.2803 2.82785 57.3659 2.67548 57.5182C2.5231 57.6706 2.4375 57.8773 2.4375 58.0928C2.4375 58.3083 2.5231 58.5149 2.67548 58.6673C2.82785 58.8197 3.03451 58.9053 3.25 58.9053H4.46875C4.68423 58.9053 4.8909 58.8197 5.04327 58.6673C5.19564 58.5149 5.28124 58.3083 5.28124 58.0928C5.28124 57.8773 5.19564 57.6706 5.04327 57.5182C4.8909 57.3659 4.68423 57.2803 4.46875 57.2803ZM64.9999 57.2803H63.7811C63.5656 57.2803 63.359 57.3659 63.2066 57.5182C63.0542 57.6706 62.9686 57.8773 62.9686 58.0928C62.9686 58.3083 63.0542 58.5149 63.2066 58.6673C63.359 58.8197 63.5656 58.9053 63.7811 58.9053H64.9999C65.2154 58.9053 65.422 58.8197 65.5744 58.6673C65.7268 58.5149 65.8124 58.3083 65.8124 58.0928C65.8124 57.8773 65.7268 57.6706 65.5744 57.5182C65.422 57.3659 65.2154 57.2803 64.9999 57.2803Z" fill="#2D4356"/>
<path d="M67.4375 58.9053C67.8862 58.9053 68.25 58.5415 68.25 58.0928C68.25 57.644 67.8862 57.2803 67.4375 57.2803C66.9888 57.2803 66.625 57.644 66.625 58.0928C66.625 58.5415 66.9888 58.9053 67.4375 58.9053Z" fill="#2D4356"/>
<path d="M61.2303 57.2802H36.7397C39.2611 55.9473 41.5812 54.2645 43.6311 52.2818C42.9661 52.197 42.3077 52.0661 41.6608 51.8902C36.9501 56.0761 32.6666 57.2425 32.5368 57.2802H32.5272C23.2474 53.8116 16.652 45.8686 13.4543 34.3104C11.9833 28.9306 11.2899 23.3678 11.3954 17.7915C11.6789 17.8026 11.9664 17.8085 12.251 17.8085C23.4772 17.8085 32.2784 9.18327 32.9175 8.54136C39.8588 16.2232 53.4509 18.3937 54.4352 18.5413C54.3885 20.9744 54.2142 23.4033 53.9132 25.8181C54.4308 26.1831 54.9243 26.581 55.3908 27.0095C55.7876 24.1811 56.0117 21.3311 56.0618 18.4754C56.0639 18.0997 55.9284 17.7361 55.6809 17.4533C55.4333 17.1706 55.0909 16.9881 54.7181 16.9405C54.5804 16.9215 40.8322 14.9065 34.1006 7.42698C33.9546 7.26646 33.7774 7.13746 33.5798 7.04789C33.3822 6.95831 33.1684 6.91006 32.9514 6.90609C32.9346 6.90527 32.9175 6.90527 32.9007 6.90527C32.4797 6.90875 32.0772 7.0791 31.7817 7.37896C31.6948 7.46706 23.0277 16.1836 12.251 16.1836C11.9723 16.1836 11.694 16.1776 11.4125 16.1657C11.3865 16.1645 11.3604 16.1637 11.3346 16.1637C10.9391 16.1604 10.5574 16.3085 10.2678 16.5777C9.97809 16.8469 9.80243 17.2168 9.7768 17.6114C9.64563 23.3943 10.3569 29.1656 11.8882 34.7437C14.8284 45.3715 20.5543 53.0867 28.5531 57.2802H7.01932C6.90373 57.2651 6.78625 57.2748 6.67472 57.3087C6.56319 57.3426 6.46019 57.4 6.37258 57.4769C6.28498 57.5538 6.21479 57.6485 6.16671 57.7547C6.11862 57.8609 6.09375 57.9761 6.09375 58.0927C6.09375 58.2092 6.11862 58.3245 6.16671 58.4306C6.21479 58.5368 6.28498 58.6315 6.37258 58.7085C6.46019 58.7854 6.56319 58.8427 6.67472 58.8766C6.78625 58.9105 6.90373 58.9203 7.01932 58.9052H61.2303C61.3458 58.9203 61.4633 58.9105 61.5749 58.8766C61.6864 58.8427 61.7894 58.7854 61.877 58.7085C61.9646 58.6315 62.0348 58.5368 62.0829 58.4306C62.131 58.3245 62.1558 58.2092 62.1558 58.0927C62.1558 57.9761 62.131 57.8609 62.0829 57.7547C62.0348 57.6485 61.9646 57.5538 61.877 57.4769C61.7894 57.4 61.6864 57.3426 61.5749 57.3087C61.4633 57.2748 61.3458 57.2651 61.2303 57.2802Z" fill="#2D4356"/>
<path d="M26.4062 48.3437C26.855 48.3437 27.2187 47.98 27.2187 47.5312C27.2187 47.0825 26.855 46.7188 26.4062 46.7188C25.9575 46.7188 25.5938 47.0825 25.5938 47.5312C25.5938 47.98 25.9575 48.3437 26.4062 48.3437Z" fill="#1E83E6"/>
<path d="M10.8007 3.66073L11.4047 2.86651L11.0233 2.65039L10.6357 3.54008H10.6227L10.2287 2.65648L9.84069 2.87911L10.4383 3.65464V3.66723L9.50391 3.54658V3.97882L10.4448 3.85817V3.87076L9.84069 4.64589L10.2031 4.87501L10.6166 3.97882H10.6288L11.0103 4.86851L11.4108 4.63979L10.8007 3.87686V3.86426L11.7602 3.97882V3.54658L10.8007 3.67333V3.66073Z" fill="#1E83E6"/>
<path d="M21.8466 12.6208L21.4985 13.0672L21.7073 13.1989L21.9453 12.6829H21.9527L22.172 13.1952L22.4028 13.0636L22.0514 12.624V12.6167L22.6039 12.6829V12.4339L22.0514 12.507V12.4997L22.3991 12.0423L22.1797 11.918L21.9563 12.4302H21.949L21.7223 11.9212L21.4985 12.0496L21.843 12.4961V12.5034L21.3047 12.4339V12.6829L21.8466 12.6135V12.6208Z" fill="#1E83E6"/>
<path d="M60.9379 21.4151V20.9914L59.9966 21.1161V21.1036L60.5893 20.3244L60.2151 20.1123L59.8349 20.9849H59.8219L59.4355 20.1184L59.0549 20.337L59.6411 21.0975V21.1101L58.7246 20.9914V21.4151L59.6472 21.2969V21.3095L59.0549 22.07L59.4104 22.2947L59.8158 21.4151H59.828L60.2021 22.2882L60.595 22.0639L59.9966 21.3156V21.303L60.9379 21.4151Z" fill="#1E83E6"/>
<path d="M43.6494 11.6341L43.9558 11.8279L44.3059 11.0694H44.3161L44.6391 11.8222L44.9779 11.6288L44.4615 10.9833V10.9723L45.2736 11.0694V10.7038L44.4615 10.811V10.8005L44.9726 10.1281L44.65 9.94531L44.3218 10.6981H44.3112L43.9777 9.95059L43.6494 10.1391L44.1552 10.7952V10.8057L43.3643 10.7038V11.0694L44.1605 10.967V10.978L43.6494 11.6341Z" fill="#1E83E6"/>
<path d="M48.0009 60.9375H44.6259C44.4217 60.9539 44.2311 61.0466 44.0921 61.1971C43.9531 61.3477 43.8759 61.5451 43.8759 61.75C43.8759 61.9549 43.9531 62.1523 44.0921 62.3029C44.2311 62.4534 44.4217 62.5461 44.6259 62.5625H48.0009C48.2052 62.5461 48.3958 62.4534 48.5348 62.3029C48.6738 62.1523 48.7509 61.9549 48.7509 61.75C48.7509 61.5451 48.6738 61.3477 48.5348 61.1971C48.3958 61.0466 48.2052 60.9539 48.0009 60.9375ZM23.626 60.9375H20.251C20.0467 60.9539 19.8561 61.0466 19.7171 61.1971C19.5782 61.3477 19.501 61.5451 19.501 61.75C19.501 61.9549 19.5782 62.1523 19.7171 62.3029C19.8561 62.4534 20.0467 62.5461 20.251 62.5625H23.626C23.8302 62.5461 24.0208 62.4534 24.1598 62.3029C24.2988 62.1523 24.376 61.9549 24.376 61.75C24.376 61.5451 24.2988 61.3477 24.1598 61.1971C24.0208 61.0466 23.8302 60.9539 23.626 60.9375ZM42.2509 60.9375H26.001C25.7855 60.9375 25.5788 61.0231 25.4264 61.1755C25.2741 61.3278 25.1885 61.5345 25.1885 61.75C25.1885 61.9655 25.2741 62.1721 25.4264 62.3245C25.5788 62.4769 25.7855 62.5625 26.001 62.5625H32.4766V63.375H29.251C29.0355 63.375 28.8288 63.4606 28.6764 63.613C28.5241 63.7653 28.4385 63.972 28.4385 64.1875C28.4385 64.403 28.5241 64.6096 28.6764 64.762C28.8288 64.9144 29.0355 65 29.251 65H39.4072C39.6227 65 39.8293 64.9144 39.9817 64.762C40.1341 64.6096 40.2197 64.403 40.2197 64.1875C40.2197 63.972 40.1341 63.7653 39.9817 63.613C39.8293 63.4606 39.6227 63.375 39.4072 63.375H35.7753V62.5625H42.2509C42.4664 62.5625 42.6731 62.4769 42.8255 62.3245C42.9778 62.1721 43.0634 61.9655 43.0634 61.75C43.0634 61.5345 42.9778 61.3278 42.8255 61.1755C42.6731 61.0231 42.4664 60.9375 42.2509 60.9375Z" fill="#1E83E6"/>
</svg>
