<svg width="54" height="54" viewBox="0 0 54 54" fill="none" xmlns="http://www.w3.org/2000/svg">
<g clip-path="url(#clip0_371_3498)">
<path d="M41.4647 5.23521C41.6554 5.23521 41.8418 5.17866 42.0004 5.0727C42.159 4.96674 42.2826 4.81614 42.3556 4.63994C42.4286 4.46374 42.4476 4.26986 42.4104 4.0828C42.3732 3.89575 42.2814 3.72393 42.1465 3.58907C42.0117 3.45421 41.8399 3.36238 41.6528 3.32517C41.4658 3.28796 41.2719 3.30706 41.0957 3.38004C40.9195 3.45303 40.7689 3.57662 40.6629 3.7352C40.557 3.89377 40.5004 4.08021 40.5004 4.27093C40.5007 4.52658 40.6024 4.77168 40.7832 4.95246C40.9639 5.13323 41.209 5.23492 41.4647 5.23521ZM41.4647 3.78878C41.56 3.78878 41.6533 3.81706 41.7325 3.87004C41.8118 3.92302 41.8736 3.99832 41.9101 4.08642C41.9466 4.17452 41.9562 4.27146 41.9376 4.36499C41.919 4.45851 41.873 4.54442 41.8056 4.61185C41.7382 4.67928 41.6523 4.7252 41.5587 4.7438C41.4652 4.76241 41.3683 4.75286 41.2802 4.71637C41.1921 4.67988 41.1168 4.61808 41.0638 4.53879C41.0108 4.4595 40.9825 4.36628 40.9825 4.27093C40.9827 4.14309 41.0335 4.02053 41.1239 3.93014C41.2143 3.83975 41.3368 3.78891 41.4647 3.78878ZM50.8839 16.8066C50.7568 16.8066 50.6325 16.8443 50.5268 16.915C50.4211 16.9856 50.3387 17.086 50.29 17.2035C50.2414 17.321 50.2286 17.4502 50.2534 17.5749C50.2782 17.6996 50.3395 17.8142 50.4294 17.9041C50.5193 17.994 50.6338 18.0552 50.7585 18.08C50.8832 18.1048 51.0125 18.0921 51.1299 18.0434C51.2474 17.9948 51.3478 17.9124 51.4185 17.8067C51.4891 17.7009 51.5268 17.5766 51.5268 17.4495C51.5266 17.2791 51.4588 17.1157 51.3383 16.9951C51.2178 16.8746 51.0544 16.8068 50.8839 16.8066ZM50.8839 17.7709C50.8204 17.7709 50.7582 17.7521 50.7054 17.7168C50.6525 17.6814 50.6113 17.6312 50.587 17.5725C50.5626 17.5138 50.5563 17.4491 50.5687 17.3868C50.5811 17.3244 50.6117 17.2672 50.6567 17.2222C50.7016 17.1773 50.7589 17.1466 50.8212 17.1342C50.8836 17.1218 50.9482 17.1282 51.0069 17.1525C51.0657 17.1769 51.1159 17.2181 51.1512 17.2709C51.1865 17.3238 51.2054 17.3859 51.2054 17.4495C51.2053 17.5347 51.1714 17.6164 51.1111 17.6767C51.0509 17.7369 50.9692 17.7708 50.8839 17.7709ZM23.4646 0.549805C23.3374 0.549805 23.2131 0.587508 23.1074 0.658146C23.0017 0.728784 22.9193 0.829184 22.8706 0.946651C22.822 1.06412 22.8093 1.19337 22.8341 1.31808C22.8589 1.44278 22.9201 1.55733 23.01 1.64723C23.0999 1.73714 23.2144 1.79836 23.3391 1.82317C23.4639 1.84797 23.5931 1.83524 23.7106 1.78658C23.828 1.73793 23.9284 1.65553 23.9991 1.54981C24.0697 1.4441 24.1074 1.31981 24.1074 1.19266C24.1072 1.02223 24.0394 0.858825 23.9189 0.738308C23.7984 0.617791 23.635 0.55 23.4646 0.549805ZM23.4646 1.51409C23.401 1.51409 23.3388 1.49524 23.286 1.45992C23.2331 1.4246 23.1919 1.3744 23.1676 1.31567C23.1433 1.25693 23.1369 1.19231 23.1493 1.12995C23.1617 1.0676 23.1923 1.01033 23.2373 0.965377C23.2822 0.920425 23.3395 0.889812 23.4019 0.877409C23.4642 0.865007 23.5288 0.871372 23.5876 0.895701C23.6463 0.920029 23.6965 0.961227 23.7318 1.01409C23.7671 1.06694 23.786 1.12909 23.786 1.19266C23.7859 1.27788 23.752 1.35959 23.6918 1.41985C23.6315 1.48011 23.5498 1.51401 23.4646 1.51409ZM52.0717 2.66378C51.9446 2.66378 51.8203 2.70149 51.7146 2.77212C51.6088 2.84276 51.5264 2.94316 51.4778 3.06063C51.4291 3.1781 51.4164 3.30735 51.4412 3.43205C51.466 3.55676 51.5272 3.6713 51.6171 3.76121C51.707 3.85111 51.8216 3.91234 51.9463 3.93714C52.071 3.96195 52.2002 3.94922 52.3177 3.90056C52.4352 3.85191 52.5356 3.76951 52.6062 3.66379C52.6769 3.55807 52.7146 3.43378 52.7146 3.30664C52.7144 3.1362 52.6466 2.9728 52.5261 2.85229C52.4055 2.73177 52.2421 2.66398 52.0717 2.66378ZM52.0717 3.62807C52.0081 3.62807 51.946 3.60922 51.8931 3.5739C51.8403 3.53858 51.7991 3.48838 51.7747 3.42965C51.7504 3.37091 51.7441 3.30628 51.7565 3.24393C51.7689 3.18158 51.7995 3.12431 51.8444 3.07936C51.8894 3.0344 51.9467 3.00379 52.009 2.99139C52.0714 2.97898 52.136 2.98535 52.1947 3.00968C52.2534 3.03401 52.3036 3.0752 52.339 3.12806C52.3743 3.18092 52.3931 3.24307 52.3931 3.30664C52.3931 3.39186 52.3592 3.47357 52.2989 3.53383C52.2386 3.59409 52.1569 3.62798 52.0717 3.62807ZM11.8931 8.4495C11.8931 8.32235 11.8554 8.19806 11.7848 8.09234C11.7142 7.98663 11.6138 7.90423 11.4963 7.85557C11.3788 7.80692 11.2496 7.79419 11.1249 7.81899C11.0002 7.8438 10.8856 7.90502 10.7957 7.99493C10.7058 8.08483 10.6446 8.19938 10.6198 8.32408C10.595 8.44878 10.6077 8.57804 10.6564 8.69551C10.705 8.81297 10.7874 8.91337 10.8931 8.98401C10.9988 9.05465 11.1231 9.09235 11.2503 9.09235C11.4207 9.09216 11.5841 9.02437 11.7046 8.90385C11.8251 8.78333 11.8929 8.61993 11.8931 8.4495ZM10.9289 8.4495C10.9289 8.38592 10.9477 8.32378 10.983 8.27092C11.0183 8.21806 11.0685 8.17686 11.1273 8.15254C11.186 8.12821 11.2506 8.12184 11.313 8.13424C11.3753 8.14665 11.4326 8.17726 11.4776 8.22221C11.5225 8.26716 11.5531 8.32444 11.5655 8.38679C11.5779 8.44914 11.5716 8.51377 11.5472 8.5725C11.5229 8.63124 11.4817 8.68144 11.4289 8.71675C11.376 8.75207 11.3139 8.77093 11.2503 8.77093C11.1651 8.77084 11.0834 8.73695 11.0231 8.67669C10.9628 8.61643 10.9289 8.53472 10.9289 8.4495Z" fill="#2D4356"/>
<path d="M2.06116 14.7978L2.53912 14.169L2.2373 13.998L1.93066 14.702H1.92037L1.60891 14.0032L1.30162 14.179L1.77476 14.7926V14.8029L1.03516 14.7071V15.0491L1.77958 14.9537V14.9636L1.30162 15.5772L1.58833 15.7582L1.91555 15.0491H1.92519L2.22701 15.7534L2.54394 15.5721L2.06116 14.9688V14.9585L2.82037 15.0491V14.7071L2.06116 14.8077V14.7978Z" fill="#1E83E6"/>
<path d="M7.19636 1.74943L6.92122 2.10268L7.08611 2.20682L7.27447 1.79861H7.28026L7.45415 2.20393L7.63672 2.09979L7.35869 1.752V1.74622L7.79583 1.79861V1.60157L7.35869 1.65943V1.65365L7.63383 1.29172L7.45994 1.19336L7.28315 1.59868H7.27736L7.09801 1.19593L6.92122 1.2975L7.19347 1.65075V1.65654L6.76758 1.60157V1.79861L7.19636 1.74365V1.74943Z" fill="#1E83E6"/>
<path d="M47.1613 10.6011V10.2659L46.4165 10.3646V10.3546L46.8855 9.7381L46.5895 9.57031L46.2886 10.2607H46.2783L45.973 9.57513L45.6715 9.74806L46.1356 10.3498V10.3597L45.4102 10.2659V10.6011L46.1404 10.5076V10.5176L45.6715 11.1193L45.9527 11.297L46.2738 10.6011H46.2832L46.5792 11.2919L46.8903 11.1145L46.4165 10.5224V10.5124L47.1613 10.6011Z" fill="#1E83E6"/>
<path d="M29.7979 7.73879L30.2022 7.20714L29.947 7.0625L29.6873 7.65811H29.6786L29.415 7.06668L29.1553 7.2155L29.5555 7.73461V7.74329L28.9297 7.66229V7.95157L29.5597 7.87089V7.87925L29.1553 8.39836L29.3977 8.55168L29.6744 7.95157H29.6828L29.9383 8.5475L30.2064 8.39418L29.7979 7.88343V7.87507L30.4404 7.95157V7.66229L29.7979 7.74746V7.73879Z" fill="#1E83E6"/>
<path d="M0.642857 48.9498C0.997897 48.9498 1.28571 48.662 1.28571 48.3069C1.28571 47.9519 0.997897 47.6641 0.642857 47.6641C0.287817 47.6641 0 47.9519 0 48.3069C0 48.662 0.287817 48.9498 0.642857 48.9498Z" fill="#2D4356"/>
<path d="M3.53683 47.6641H2.57254C2.40205 47.6641 2.23854 47.7318 2.11798 47.8523C1.99742 47.9729 1.92969 48.1364 1.92969 48.3069C1.92969 48.4774 1.99742 48.6409 2.11798 48.7615C2.23854 48.882 2.40205 48.9498 2.57254 48.9498H3.53683C3.70733 48.9498 3.87084 48.882 3.9914 48.7615C4.11196 48.6409 4.17969 48.4774 4.17969 48.3069C4.17969 48.1364 4.11196 47.9729 3.9914 47.8523C3.87084 47.7318 3.70733 47.6641 3.53683 47.6641ZM51.4297 47.6641H50.4654C50.2949 47.6641 50.1314 47.7318 50.0108 47.8523C49.8903 47.9729 49.8225 48.1364 49.8225 48.3069C49.8225 48.4774 49.8903 48.6409 50.0108 48.7615C50.1314 48.882 50.2949 48.9498 50.4654 48.9498H51.4297C51.6002 48.9498 51.7637 48.882 51.8843 48.7615C52.0048 48.6409 52.0725 48.4774 52.0725 48.3069C52.0725 48.1364 52.0048 47.9729 51.8843 47.8523C51.7637 47.7318 51.6002 47.6641 51.4297 47.6641Z" fill="#2D4356"/>
<path d="M53.3567 48.9498C53.7118 48.9498 53.9996 48.662 53.9996 48.3069C53.9996 47.9519 53.7118 47.6641 53.3567 47.6641C53.0017 47.6641 52.7139 47.9519 52.7139 48.3069C52.7139 48.662 53.0017 48.9498 53.3567 48.9498Z" fill="#2D4356"/>
<path d="M37.9792 50.2354H35.3088C35.1472 50.2483 34.9964 50.3216 34.8864 50.4408C34.7765 50.5599 34.7154 50.7161 34.7154 50.8782C34.7154 51.0403 34.7765 51.1965 34.8864 51.3156C34.9964 51.4348 35.1472 51.5081 35.3088 51.5211H37.9792C38.1408 51.5081 38.2916 51.4348 38.4015 51.3156C38.5115 51.1965 38.5726 51.0403 38.5726 50.8782C38.5726 50.7161 38.5115 50.5599 38.4015 50.4408C38.2916 50.3216 38.1408 50.2483 37.9792 50.2354ZM18.6934 50.2354H16.0231C15.8615 50.2483 15.7107 50.3216 15.6007 50.4408C15.4908 50.5599 15.4297 50.7161 15.4297 50.8782C15.4297 51.0403 15.4908 51.1965 15.6007 51.3156C15.7107 51.4348 15.8615 51.5081 16.0231 51.5211H18.6934C18.855 51.5081 19.0059 51.4348 19.1158 51.3156C19.2258 51.1965 19.2868 51.0403 19.2868 50.8782C19.2868 50.7161 19.2258 50.5599 19.1158 50.4408C19.0059 50.3216 18.855 50.2483 18.6934 50.2354ZM33.4297 50.2354H20.5726C20.4021 50.2354 20.2385 50.3031 20.118 50.4236C19.9974 50.5442 19.9297 50.7077 19.9297 50.8782C19.9297 51.0487 19.9974 51.2122 20.118 51.3328C20.2385 51.4533 20.4021 51.5211 20.5726 51.5211H25.6961V52.1639H23.144C22.9735 52.1639 22.81 52.2317 22.6894 52.3522C22.5689 52.4728 22.5011 52.6363 22.5011 52.8068C22.5011 52.9773 22.5689 53.1408 22.6894 53.2614C22.81 53.3819 22.9735 53.4496 23.144 53.4496H31.1797C31.3502 53.4496 31.5137 53.3819 31.6343 53.2614C31.7548 53.1408 31.8226 52.9773 31.8226 52.8068C31.8226 52.6363 31.7548 52.4728 31.6343 52.3522C31.5137 52.2317 31.3502 52.1639 31.1797 52.1639H28.3061V51.5211H33.4297C33.6002 51.5211 33.7637 51.4533 33.8843 51.3328C34.0048 51.2122 34.0726 51.0487 34.0726 50.8782C34.0726 50.7077 34.0048 50.5442 33.8843 50.4236C33.7637 50.3031 33.6002 50.2354 33.4297 50.2354Z" fill="#1E83E6"/>
<path d="M0.642857 48.9498C0.997897 48.9498 1.28571 48.662 1.28571 48.3069C1.28571 47.9519 0.997897 47.6641 0.642857 47.6641C0.287817 47.6641 0 47.9519 0 48.3069C0 48.662 0.287817 48.9498 0.642857 48.9498Z" fill="#2D4356"/>
<path d="M3.53683 47.6641H2.57254C2.40205 47.6641 2.23854 47.7318 2.11798 47.8523C1.99742 47.9729 1.92969 48.1364 1.92969 48.3069C1.92969 48.4774 1.99742 48.6409 2.11798 48.7615C2.23854 48.882 2.40205 48.9498 2.57254 48.9498H3.53683C3.70733 48.9498 3.87084 48.882 3.9914 48.7615C4.11196 48.6409 4.17969 48.4774 4.17969 48.3069C4.17969 48.1364 4.11196 47.9729 3.9914 47.8523C3.87084 47.7318 3.70733 47.6641 3.53683 47.6641ZM51.4297 47.6641H50.4654C50.2949 47.6641 50.1314 47.7318 50.0108 47.8523C49.8903 47.9729 49.8225 48.1364 49.8225 48.3069C49.8225 48.4774 49.8903 48.6409 50.0108 48.7615C50.1314 48.882 50.2949 48.9498 50.4654 48.9498H51.4297C51.6002 48.9498 51.7637 48.882 51.8843 48.7615C52.0048 48.6409 52.0725 48.4774 52.0725 48.3069C52.0725 48.1364 52.0048 47.9729 51.8843 47.8523C51.7637 47.7318 51.6002 47.6641 51.4297 47.6641Z" fill="#2D4356"/>
<path d="M53.3567 48.9498C53.7118 48.9498 53.9996 48.662 53.9996 48.3069C53.9996 47.9519 53.7118 47.6641 53.3567 47.6641C53.0017 47.6641 52.7139 47.9519 52.7139 48.3069C52.7139 48.662 53.0017 48.9498 53.3567 48.9498Z" fill="#2D4356"/>
<path d="M37.9792 50.2354H35.3088C35.1472 50.2483 34.9964 50.3216 34.8864 50.4408C34.7765 50.5599 34.7154 50.7161 34.7154 50.8782C34.7154 51.0403 34.7765 51.1965 34.8864 51.3156C34.9964 51.4348 35.1472 51.5081 35.3088 51.5211H37.9792C38.1408 51.5081 38.2916 51.4348 38.4015 51.3156C38.5115 51.1965 38.5726 51.0403 38.5726 50.8782C38.5726 50.7161 38.5115 50.5599 38.4015 50.4408C38.2916 50.3216 38.1408 50.2483 37.9792 50.2354ZM18.6934 50.2354H16.0231C15.8615 50.2483 15.7107 50.3216 15.6007 50.4408C15.4908 50.5599 15.4297 50.7161 15.4297 50.8782C15.4297 51.0403 15.4908 51.1965 15.6007 51.3156C15.7107 51.4348 15.8615 51.5081 16.0231 51.5211H18.6934C18.855 51.5081 19.0059 51.4348 19.1158 51.3156C19.2258 51.1965 19.2868 51.0403 19.2868 50.8782C19.2868 50.7161 19.2258 50.5599 19.1158 50.4408C19.0059 50.3216 18.855 50.2483 18.6934 50.2354ZM33.4297 50.2354H20.5726C20.4021 50.2354 20.2385 50.3031 20.118 50.4236C19.9974 50.5442 19.9297 50.7077 19.9297 50.8782C19.9297 51.0487 19.9974 51.2122 20.118 51.3328C20.2385 51.4533 20.4021 51.5211 20.5726 51.5211H25.6961V52.1639H23.144C22.9735 52.1639 22.81 52.2317 22.6894 52.3522C22.5689 52.4728 22.5011 52.6363 22.5011 52.8068C22.5011 52.9773 22.5689 53.1408 22.6894 53.2614C22.81 53.3819 22.9735 53.4496 23.144 53.4496H31.1797C31.3502 53.4496 31.5137 53.3819 31.6343 53.2614C31.7548 53.1408 31.8226 52.9773 31.8226 52.8068C31.8226 52.6363 31.7548 52.4728 31.6343 52.3522C31.5137 52.2317 31.3502 52.1639 31.1797 52.1639H28.3061V51.5211H33.4297C33.6002 51.5211 33.7637 51.4533 33.8843 51.3328C34.0048 51.2122 34.0726 51.0487 34.0726 50.8782C34.0726 50.7077 34.0048 50.5442 33.8843 50.4236C33.7637 50.3031 33.6002 50.2354 33.4297 50.2354Z" fill="#1E83E6"/>
<path d="M12.5357 41.2358H41.4643C41.8052 41.2354 42.132 41.0998 42.373 40.8588C42.6141 40.6178 42.7496 40.2909 42.75 39.9501V12.3072C42.7496 11.9663 42.6141 11.6395 42.373 11.3985C42.132 11.1574 41.8052 11.0218 41.4643 11.0215H12.5357C12.1948 11.0218 11.868 11.1574 11.627 11.3985C11.3859 11.6395 11.2504 11.9663 11.25 12.3072V39.9501C11.2504 40.2909 11.3859 40.6178 11.627 40.8588C11.868 41.0998 12.1948 41.2354 12.5357 41.2358ZM12.5357 12.3072H41.4643L41.4644 16.1643H12.5357V12.3072ZM12.5357 17.4501H41.4644L41.4651 39.9501H12.5357V17.4501Z" fill="#2D4356"/>
<path d="M39.5346 13.5928H38.2489C38.0784 13.5928 37.9149 13.6605 37.7943 13.7811C37.6738 13.9016 37.606 14.0651 37.606 14.2356C37.606 14.4061 37.6738 14.5696 37.7943 14.6902C37.9149 14.8108 38.0784 14.8785 38.2489 14.8785H39.5346C39.7051 14.8785 39.8686 14.8108 39.9892 14.6902C40.1097 14.5696 40.1775 14.4061 40.1775 14.2356C40.1775 14.0651 40.1097 13.9016 39.9892 13.7811C39.8686 13.6605 39.7051 13.5928 39.5346 13.5928ZM35.6775 13.5928H34.3917C34.2212 13.5928 34.0577 13.6605 33.9372 13.7811C33.8166 13.9016 33.7489 14.0651 33.7489 14.2356C33.7489 14.4061 33.8166 14.5696 33.9372 14.6902C34.0577 14.8108 34.2212 14.8785 34.3917 14.8785H35.6775C35.8479 14.8785 36.0115 14.8108 36.132 14.6902C36.2526 14.5696 36.3203 14.4061 36.3203 14.2356C36.3203 14.0651 36.2526 13.9016 36.132 13.7811C36.0115 13.6605 35.8479 13.5928 35.6775 13.5928ZM14.4632 22.5928H20.8917C21.0622 22.5928 21.2258 22.525 21.3463 22.4045C21.4669 22.2839 21.5346 22.1204 21.5346 21.9499C21.5346 21.7794 21.4669 21.6159 21.3463 21.4953C21.2258 21.3748 21.0622 21.3071 20.8917 21.3071H14.4632C14.2927 21.3071 14.1292 21.3748 14.0086 21.4953C13.888 21.6159 13.8203 21.7794 13.8203 21.9499C13.8203 22.1204 13.888 22.2839 14.0086 22.4045C14.1292 22.525 14.2927 22.5928 14.4632 22.5928Z" fill="#1E83E6"/>
<path d="M27.9632 31.5931H14.4632C14.2927 31.5931 14.1292 31.6608 14.0086 31.7813C13.888 31.9019 13.8203 32.0654 13.8203 32.2359C13.8203 32.4064 13.888 32.5699 14.0086 32.6905C14.1292 32.811 14.2927 32.8788 14.4632 32.8788H27.9632C28.1337 32.8788 28.2972 32.811 28.4177 32.6905C28.5383 32.5699 28.606 32.4064 28.606 32.2359C28.606 32.0654 28.5383 31.9019 28.4177 31.7813C28.2972 31.6608 28.1337 31.5931 27.9632 31.5931ZM27.9632 36.7359H14.4632C14.2927 36.7359 14.1292 36.8036 14.0086 36.9242C13.888 37.0448 13.8203 37.2083 13.8203 37.3788C13.8203 37.5493 13.888 37.7128 14.0086 37.8333C14.1292 37.9539 14.2927 38.0216 14.4632 38.0216H27.9632C28.1337 38.0216 28.2972 37.9539 28.4177 37.8333C28.5383 37.7128 28.606 37.5493 28.606 37.3788C28.606 37.2083 28.5383 37.0448 28.4177 36.9242C28.2972 36.8036 28.1337 36.7359 27.9632 36.7359ZM36.9632 26.4502H14.4632C14.2927 26.4502 14.1292 26.5179 14.0086 26.6385C13.888 26.759 13.8203 26.9226 13.8203 27.0931C13.8203 27.2635 13.888 27.4271 14.0086 27.5476C14.1292 27.6682 14.2927 27.7359 14.4632 27.7359H36.9632C37.1337 27.7359 37.2972 27.6682 37.4177 27.5476C37.5383 27.4271 37.606 27.2635 37.606 27.0931C37.606 26.9226 37.5383 26.759 37.4177 26.6385C37.2972 26.5179 37.1337 26.4502 36.9632 26.4502Z" fill="#1E83E6"/>
<path d="M36.9632 29.0215H14.4632C14.2927 29.0215 14.1292 29.0892 14.0086 29.2098C13.888 29.3303 13.8203 29.4938 13.8203 29.6643C13.8203 29.8348 13.888 29.9984 14.0086 30.1189C14.1292 30.2395 14.2927 30.3072 14.4632 30.3072H36.9632C37.1337 30.3072 37.2972 30.2395 37.4177 30.1189C37.5383 29.9984 37.606 29.8348 37.606 29.6643C37.606 29.4938 37.5383 29.3303 37.4177 29.2098C37.2972 29.0892 37.1337 29.0215 36.9632 29.0215Z" fill="#2D4356"/>
<path d="M23.4632 47.6646V46.3789H30.5346V47.6646H23.4632ZM48.4446 47.6646H31.8203V46.3789H44.9989C45.6806 46.378 46.3341 46.1068 46.8162 45.6248C47.2982 45.1427 47.5694 44.4892 47.5703 43.8075V21.9503C47.5694 21.2686 47.2982 20.6151 46.8162 20.1331C46.3341 19.651 45.6806 19.3798 44.9989 19.3789H44.0346V20.6646H44.9989C45.1678 20.6646 45.335 20.6978 45.491 20.7624C45.647 20.827 45.7887 20.9217 45.9081 21.0411C46.0275 21.1605 46.1222 21.3022 46.1868 21.4583C46.2514 21.6143 46.2847 21.7815 46.2846 21.9503V43.8075C46.2847 43.9763 46.2514 44.1435 46.1868 44.2996C46.1222 44.4556 46.0275 44.5973 45.9081 44.7167C45.7887 44.8361 45.647 44.9308 45.491 44.9954C45.335 45.06 45.1678 45.0932 44.9989 45.0932H8.9989C8.83005 45.0932 8.66284 45.06 8.50683 44.9954C8.35082 44.9308 8.20906 44.8361 8.08966 44.7167C7.97026 44.5973 7.87556 44.4556 7.81096 44.2996C7.74637 44.1435 7.71314 43.9763 7.71319 43.8075V21.9503C7.71314 21.7815 7.74637 21.6143 7.81096 21.4583C7.87556 21.3022 7.97026 21.1605 8.08966 21.0411C8.20906 20.9217 8.35081 20.827 8.50683 20.7624C8.66284 20.6978 8.83005 20.6646 8.9989 20.6646H9.96319V19.3789H8.9989C8.3172 19.3798 7.66367 19.651 7.18163 20.1331C6.69959 20.6151 6.42838 21.2686 6.42747 21.9503V43.8075C6.42838 44.4892 6.69959 45.1427 7.18163 45.6248C7.66367 46.1068 8.3172 46.378 8.9989 46.3789H22.1775V47.6646H5.55319C5.46169 47.6526 5.36868 47.6602 5.28038 47.687C5.19208 47.7139 5.11051 47.7592 5.04113 47.82C4.97176 47.8809 4.91617 47.9559 4.87809 48.0399C4.84001 48.124 4.82031 48.2152 4.82031 48.3075C4.82031 48.3998 4.84001 48.491 4.87809 48.575C4.91617 48.6591 4.97176 48.7341 5.04113 48.7949C5.11051 48.8558 5.19208 48.9011 5.28038 48.9279C5.36868 48.9547 5.46169 48.9624 5.55319 48.9503H48.4446C48.5361 48.9624 48.6291 48.9547 48.7174 48.9279C48.8057 48.9011 48.8873 48.8558 48.9567 48.7949C49.0261 48.7341 49.0816 48.6591 49.1197 48.575C49.1578 48.491 49.1775 48.3998 49.1775 48.3075C49.1775 48.2152 49.1578 48.124 49.1197 48.0399C49.0816 47.9559 49.0261 47.8809 48.9567 47.82C48.8873 47.7592 48.8057 47.7139 48.7174 47.687C48.6291 47.6602 48.5361 47.6526 48.4446 47.6646Z" fill="#2D4356"/>
<path d="M46.2843 42.5215H7.71289V43.8072H46.2843V42.5215Z" fill="#1E83E6"/>
</g>
<defs>
<clipPath id="clip0_371_3498">
<rect width="54" height="54" fill="white"/>
</clipPath>
</defs>
</svg>
