<svg width="66" height="63" viewBox="0 0 66 63" fill="none" xmlns="http://www.w3.org/2000/svg">
<path d="M30.6075 49.6815C31.3809 50.1874 32.274 50.455 33.191 50.455C33.5235 50.455 33.857 50.4198 34.1817 50.3515C34.4517 50.2938 34.6246 50.0292 34.5674 49.7587C34.5103 49.4882 34.2442 49.3192 33.9747 49.373C33.0142 49.578 31.9869 49.3886 31.1568 48.8466L31.0606 48.7831C30.8301 48.6288 30.5206 48.6942 30.3677 48.9247C30.2159 49.1552 30.2794 49.4657 30.5098 49.6171L30.6075 49.6815ZM36.6456 17.1552C34.7188 16.8769 32.7383 17.5116 31.3443 18.8564C31.1456 19.0487 31.1397 19.3651 31.3316 19.5634C31.4297 19.6659 31.5606 19.7167 31.6915 19.7167C31.8165 19.7167 31.9415 19.6698 32.0386 19.5771C33.212 18.4452 34.8785 17.9081 36.502 18.1454C36.772 18.1747 37.0284 17.995 37.0684 17.7226C37.1085 17.4491 36.919 17.1952 36.6456 17.1552ZM59.4473 26.5868C59.1919 26.6913 59.0694 26.9833 59.1739 27.2392L59.5337 28.119C59.6128 28.3124 59.7998 28.4296 59.9966 28.4296C60.0596 28.4296 60.1241 28.4179 60.1861 28.3925C60.4414 28.288 60.564 27.996 60.4595 27.7401L60.0997 26.8603C59.9952 26.6044 59.7027 26.4804 59.4473 26.5868ZM60.9937 29.0858C60.8736 28.8456 60.5967 28.7655 60.3506 28.8739C60.106 28.9843 60.0025 29.288 60.1031 29.537C60.6084 30.788 60.0416 32.2011 58.8116 32.7538C58.5601 32.8671 58.4473 33.163 58.5606 33.415C58.6436 33.6005 58.8262 33.7099 59.0171 33.7099C59.0855 33.7099 59.1548 33.6962 59.2217 33.6659C60.9434 32.8925 61.7378 30.914 61.0137 29.1259L60.9937 29.0858ZM58.6299 23.2226L58.2896 22.3798C58.2325 22.1679 58.0377 22.0146 57.8067 22.0146C57.5303 22.0146 57.3067 22.2431 57.3067 22.5194C57.3067 22.5839 57.3189 22.6474 57.3433 22.7069L57.7032 23.5976C57.7818 23.7919 57.9688 23.9101 58.1666 23.9101C58.2291 23.9101 58.2925 23.8984 58.3541 23.8739C58.6099 23.7704 58.7335 23.4784 58.6299 23.2226ZM58.6133 25.8573C58.6919 26.0517 58.879 26.1698 59.0767 26.1698C59.1392 26.1698 59.2027 26.1581 59.2642 26.1337C59.5201 26.0302 59.6436 25.7382 59.5401 25.4823L59.1797 24.5917C59.0762 24.3358 58.7847 24.2148 58.5289 24.3153C58.273 24.4189 58.1495 24.7108 58.253 24.9667L58.6133 25.8573Z" fill="#1E83E6"/>
<path d="M46.7372 37.606C46.7226 37.4847 46.6858 37.3694 46.6567 37.2518C46.8206 37.2814 46.9869 37.3003 47.1561 37.3003C47.9027 37.3003 48.6132 37.0083 49.16 36.4741C49.8769 35.7569 50.1323 34.7234 49.8915 33.7707C49.9678 33.7637 50.0522 33.7655 50.1254 33.7554L52.5152 33.4228C52.7968 33.6965 53.1728 33.8501 53.5585 33.8501C53.7645 33.8501 53.9725 33.8071 54.1683 33.7173L58.4008 31.8462C59.139 31.5151 59.4818 30.6665 59.1796 29.9126L53.7611 16.5269C53.6098 16.144 53.3183 15.8481 52.9408 15.6938C52.56 15.5386 52.1434 15.5464 51.7631 15.7134L47.5429 17.5894C46.8525 17.8793 46.5011 18.6476 46.6942 19.36L45.4892 20.0356C45.0897 20.2622 44.6088 20.3491 44.1396 20.2856L36.3583 19.1353C35.038 18.9468 33.6825 19.3794 32.7304 20.3003L32.1249 20.8804H27.7563C27.5312 20.8804 27.309 20.7983 27.142 20.6509L26.6748 20.2495C26.965 19.6257 26.8307 18.883 26.2758 18.4478L23.0072 15.8687C22.6879 15.6147 22.286 15.5015 21.8798 15.5601C21.4779 15.6138 21.1108 15.8306 20.8734 16.1548L13.0155 26.8315C12.5326 27.48 12.6503 28.3882 13.2865 28.9028L16.5399 31.4751C16.8114 31.686 17.1352 31.7974 17.4696 31.7974C17.539 31.7974 17.6083 31.7925 17.6776 31.7837C18.08 31.728 18.4355 31.5161 18.6806 31.1841L18.7826 31.0457L19.352 31.4741C19.6552 31.6948 19.8363 32.0601 19.8363 32.4507V34.434L18.6005 36.0249C17.5556 37.3784 17.7973 39.3296 19.1386 40.3735C19.6904 40.8052 20.3549 41.0337 21.0419 41.0337C21.1698 41.0337 21.2983 41.0259 21.4267 41.0093C21.6239 40.9849 21.8152 40.9402 22.0002 40.8807C21.9911 40.974 21.9765 41.0665 21.9765 41.1607C21.9765 42.0493 22.3754 42.8833 23.0742 43.4507C23.6157 43.8833 24.2656 44.0943 24.9121 44.0943C25.378 44.0943 25.8378 43.9754 26.2576 43.7608C26.2614 43.8321 26.2548 43.9025 26.2641 43.9741C26.3598 44.7027 26.7377 45.3452 27.2963 45.7564L27.4086 45.8521C27.8915 46.2105 28.4555 46.3833 29.0151 46.3833C29.4987 46.3833 29.9709 46.239 30.391 45.9888C30.3978 46.0413 30.3944 46.0935 30.4042 46.146C30.5444 46.8941 30.9746 47.5347 31.6074 47.9448L31.7031 48.0093C32.1528 48.3032 32.6679 48.4546 33.1938 48.4546C33.3847 48.4546 33.5776 48.4351 33.769 48.3941C34.4926 48.2417 35.1132 47.814 35.5175 47.19L35.7099 46.8908L35.8134 46.9673C36.3051 47.3423 36.8974 47.5405 37.5263 47.5405C38.2675 47.5405 38.9946 47.2388 39.52 46.7134C40.0976 46.1362 40.3984 45.3384 40.3456 44.5269C40.3383 44.4141 40.3087 44.3067 40.2882 44.1969C40.4751 44.2373 40.664 44.2652 40.854 44.2652C41.5415 44.2652 42.2255 44.0025 42.7402 43.4868C43.2953 42.9312 43.5766 42.1626 43.5117 41.3794C43.4988 41.2239 43.4723 41.0712 43.4335 40.9228C43.544 40.9351 43.6547 40.9478 43.7656 40.9478C44.621 40.9478 45.4701 40.5855 46.0551 39.8921C46.5878 39.2603 46.8363 38.4272 46.7372 37.606ZM23.7021 42.6724C23.2406 42.2974 22.9765 41.7466 22.9765 41.1606C22.9765 40.7329 23.1225 40.3149 23.4037 39.9604L23.9066 39.3042C23.9066 39.3042 23.9077 39.3022 23.9085 39.3014L23.9506 39.2476C23.9559 39.2407 23.9568 39.2322 23.9618 39.2252C23.9921 39.1824 24.0157 39.1373 24.0315 39.0857C24.0366 39.069 24.0385 39.0525 24.0418 39.0354C24.048 39.0034 24.0614 38.9739 24.0614 38.9399C24.0615 38.9216 24.0542 38.9061 24.052 38.8886C24.051 38.879 24.0485 38.8702 24.0469 38.8607C24.0394 38.8221 24.0288 38.7857 24.0115 38.7518C23.9797 38.674 23.9352 38.6008 23.8641 38.5454C23.6886 38.4086 23.4561 38.4125 23.282 38.529C23.2374 38.5549 23.1964 38.5886 23.162 38.6323L22.702 39.2222C22.3568 39.6665 21.8602 39.9487 21.3041 40.0171C20.747 40.0835 20.1976 39.9321 19.7533 39.5854C18.8451 38.8784 18.683 37.5552 19.392 36.6362L21.7211 33.6382C22.0653 33.1958 22.5619 32.9136 23.1205 32.8432C23.6761 32.7729 24.2284 32.9214 24.6674 33.2632C25.1815 33.6684 25.4764 34.2759 25.4764 34.9302C25.4764 35.3989 25.3221 35.8462 25.0282 36.227L24.4208 37.0141C24.2518 37.2319 24.2919 37.5464 24.5101 37.7153C24.7294 37.8843 25.0433 37.8452 25.2118 37.6255L25.723 36.9653C26.0404 36.5522 26.5009 36.2905 27.0194 36.23C27.5448 36.1694 28.0531 36.3179 28.5121 36.6889C29.3412 37.3598 29.473 38.5845 28.8065 39.4165L26.4276 42.3755C25.7558 43.2046 24.5326 43.3355 23.7021 42.6724ZM33.5619 47.4165C33.1024 47.5122 32.6386 47.4253 32.2558 47.1753L32.1581 47.1099C31.7504 46.8462 31.4765 46.438 31.3871 45.9614C31.2982 45.4858 31.4066 45.0073 31.6918 44.6128C31.7125 44.5842 31.72 44.5513 31.7338 44.5203C31.7465 44.4919 31.7651 44.4655 31.7722 44.4359C31.7792 44.4063 31.7752 44.3763 31.7767 44.3463C31.7785 44.3121 31.7852 44.2782 31.78 44.2444C31.7757 44.2166 31.7613 44.1918 31.7524 44.165C31.7411 44.1309 31.7341 44.0956 31.7155 44.0642C31.7004 44.0388 31.6754 44.0198 31.6557 43.9971C31.6328 43.9709 31.6153 43.9412 31.5863 43.9194C31.585 43.9184 31.5835 43.9184 31.5822 43.9175C31.5811 43.9167 31.5806 43.9153 31.5795 43.9145C31.5582 43.8993 31.5335 43.8951 31.5109 43.8836C31.4748 43.8651 31.44 43.8431 31.4016 43.8342C31.378 43.8286 31.3542 43.8327 31.3303 43.8307C31.2903 43.8273 31.2505 43.8208 31.211 43.8269C31.181 43.8315 31.1542 43.8467 31.1255 43.8566C31.0939 43.8676 31.061 43.8736 31.0318 43.8909C30.9996 43.9099 30.9746 43.94 30.9468 43.9665C30.9272 43.9852 30.9035 43.9976 30.8866 44.02L30.882 44.0261C30.8818 44.0264 30.8815 44.0265 30.8815 44.0265C30.8809 44.0273 30.8808 44.0278 30.8804 44.0283L30.3749 44.7026C30.1068 45.064 29.7118 45.2983 29.2626 45.3647C28.8129 45.4263 28.3661 45.3179 28.0365 45.0747L27.9237 44.978C27.5531 44.7036 27.3158 44.3013 27.2558 43.8442C27.1947 43.3804 27.3231 42.9214 27.6166 42.5532L29.3778 40.3706C29.9394 39.6636 30.9848 39.5317 31.7084 40.0718C32.1396 40.3911 32.3866 40.8862 32.3866 41.4302C32.3866 41.6072 32.3567 41.7803 32.3047 41.9469C32.2501 42.1155 32.1672 42.2846 32.0507 42.4585L31.8705 42.7085C31.8538 42.7316 31.8486 42.7584 31.8364 42.7832C31.8274 42.8017 31.8187 42.8185 31.8117 42.8375C31.8056 42.8549 31.7932 42.8704 31.7891 42.8881C31.7846 42.9076 31.789 42.9274 31.7869 42.9472C31.7867 42.949 31.7869 42.9508 31.7867 42.9526C31.7848 42.9685 31.7763 42.9849 31.7763 43.0005C31.7763 43.0132 31.7826 43.0237 31.7835 43.0362C31.7845 43.0502 31.7805 43.0643 31.7827 43.0782C31.7861 43.0994 31.798 43.1182 31.8041 43.1388C31.8127 43.1681 31.8206 43.1962 31.8342 43.2229C31.8398 43.234 31.8413 43.2463 31.8477 43.2571C31.8577 43.2739 31.8751 43.286 31.8872 43.3016C31.9077 43.328 31.9276 43.3527 31.9528 43.3744C31.962 43.3824 31.9666 43.3935 31.9764 43.4009C31.978 43.402 31.9799 43.4021 31.9814 43.4033C31.9824 43.4039 31.9828 43.4051 31.9838 43.4058C31.9986 43.4166 32.0161 43.4186 32.0316 43.4275C32.0599 43.4438 32.0876 43.4582 32.119 43.4688C32.1326 43.4733 32.1448 43.4822 32.1586 43.4855C32.1806 43.4908 32.2025 43.4878 32.2248 43.4901C32.2425 43.492 32.258 43.5005 32.2762 43.5005C32.2862 43.5005 32.294 43.4942 32.3038 43.4936C32.3188 43.4929 32.3336 43.4961 32.3486 43.4939C32.3788 43.4894 32.4059 43.4749 32.435 43.465C32.4501 43.4598 32.4654 43.4564 32.48 43.4499C32.4913 43.4447 32.5042 43.4441 32.5151 43.4382C32.5198 43.4356 32.5241 43.4329 32.5287 43.4302C32.5536 43.4156 32.5724 43.3923 32.5948 43.3732C32.6202 43.3516 32.649 43.3354 32.6703 43.3081C32.8031 43.1377 32.9622 43.0007 33.1362 42.8943C33.2687 42.8166 33.4084 42.7552 33.5531 42.7145C33.5621 42.7119 33.5713 42.7098 33.5804 42.7073C33.8853 42.6269 34.2064 42.6297 34.5087 42.7127C34.5271 42.7179 34.5454 42.7234 34.5637 42.7293C34.7107 42.7749 34.8539 42.8364 34.9862 42.9214C35.4872 43.2427 35.7865 43.7954 35.7865 44.3999C35.7865 44.7485 35.6903 45.0796 35.5062 45.3589L35.1566 45.8989C35.1545 45.9022 35.1544 45.9061 35.1524 45.9094L34.6771 46.6489C34.4198 47.0454 34.0233 47.3188 33.5619 47.4165ZM45.2904 39.2476C44.6283 40.0327 43.454 40.1792 42.6195 39.5835L42.4091 39.4321C42.4062 39.4302 42.4037 39.4282 42.3998 39.4263L37.6415 36.0239C37.4169 35.8618 37.1044 35.9145 36.9438 36.1392C36.7831 36.3638 36.8349 36.6763 37.0595 36.8364L41.8319 40.2495C42.226 40.5347 42.475 40.9761 42.515 41.4624C42.5561 41.9526 42.3798 42.4321 42.0326 42.7798C41.4457 43.3696 40.5043 43.4311 39.8432 42.9243L39.2108 42.4394L35.1439 39.2661C34.9257 39.0952 34.6117 39.1362 34.4423 39.353C34.2724 39.5708 34.3109 39.8852 34.5287 40.0552L37.0445 42.0179C37.0628 42.0373 37.0747 42.0608 37.0966 42.0776L38.5202 43.1694L38.6318 43.2563C39.0527 43.5796 39.3134 44.0659 39.3476 44.5923C39.3818 45.1167 39.1869 45.6323 38.8129 46.0063C38.184 46.6362 37.1122 46.7007 36.414 46.1675L36.2518 46.0477L36.3437 45.9048C36.6337 45.4653 36.7865 44.9448 36.7865 44.3999C36.7865 44.1633 36.7571 43.9316 36.7006 43.7093C36.5311 43.0422 36.1182 42.459 35.5268 42.0796C35.3146 41.9432 35.0895 41.8503 34.8606 41.7773C34.8267 41.7668 34.7932 41.7591 34.759 41.7499C34.5338 41.6875 34.3065 41.6523 34.0778 41.6488C34.071 41.6487 34.0646 41.6478 34.0578 41.6477C33.8261 41.6459 33.5954 41.663 33.3715 41.7202C33.3817 41.6245 33.3866 41.5278 33.3866 41.4302C33.3866 40.5659 32.9921 39.7788 32.3056 39.27C32.1516 39.1549 31.989 39.061 31.8219 38.983C31.7715 38.9595 31.719 38.9468 31.6678 38.9268C31.5484 38.8798 31.4291 38.8348 31.3063 38.8058C31.2447 38.7913 31.1828 38.7864 31.1208 38.7764C31.0066 38.7577 30.893 38.7407 30.7782 38.737C30.7084 38.7347 30.6397 38.7408 30.5702 38.7438C30.4657 38.7486 30.3623 38.755 30.2592 38.772C30.2306 38.7766 30.2012 38.7743 30.1728 38.7798C30.1802 38.7416 30.1735 38.7025 30.1794 38.6642C30.2081 38.4778 30.2187 38.2913 30.2113 38.1034C30.2092 38.0502 30.2132 37.9981 30.2083 37.9451C30.1866 37.712 30.1371 37.4825 30.0605 37.2585C30.0429 37.2069 30.017 37.159 29.9964 37.1082C29.9249 36.9312 29.836 36.7613 29.7296 36.5975C29.6917 36.5394 29.6552 36.4823 29.6131 36.4263C29.4632 36.227 29.2957 36.0371 29.0912 35.8716C28.4721 35.3687 27.6957 35.145 26.9027 35.2368C26.7489 35.2544 26.598 35.2847 26.4516 35.3257C26.4682 35.1948 26.4765 35.063 26.4765 34.9302C26.4765 33.9673 26.0424 33.0737 25.2836 32.4761C24.6313 31.9683 23.8129 31.7495 22.995 31.8511C22.1723 31.9546 21.4398 32.3716 20.9325 33.023L20.8363 33.146V32.4507C20.8363 31.7417 20.5014 31.0737 19.9467 30.6704L19.3759 30.2407L20.3583 28.9077C20.5228 28.6851 20.476 28.3726 20.2538 28.2075C20.0321 28.0444 19.7186 28.0923 19.5546 28.312L18.2743 30.0425C18.2697 30.0487 18.2692 30.0562 18.2649 30.0626L17.8739 30.5933C17.7924 30.7036 17.6742 30.7739 17.5414 30.7925C17.4027 30.813 17.267 30.7739 17.1566 30.688L13.911 28.1216C13.6976 27.9487 13.6566 27.645 13.8192 27.4263L21.6796 16.7466C21.7587 16.6382 21.8769 16.5689 22.0126 16.5513C22.1459 16.5288 22.2802 16.5679 22.3866 16.6528L25.6576 19.2339C25.8671 19.3979 25.9042 19.7026 25.7533 19.9106L25.6551 20.0439C25.6489 20.0513 25.6395 20.0552 25.6337 20.063L21.1576 26.144C21.0673 26.2349 21.0116 26.3608 21.0116 26.5005C21.0116 26.7769 21.2401 27.0005 21.5165 27.0005C21.6757 27.0005 21.8251 26.9253 21.9193 26.7974L26.1197 21.0905L26.4847 21.4038C26.8314 21.7114 27.2831 21.8804 27.7562 21.8804H31.0812L29.1293 23.7505C28.747 24.1196 28.5365 24.6128 28.5365 25.1401C28.5365 25.8989 28.9603 26.5698 29.6405 26.8911C30.475 27.2905 31.3822 27.4897 32.288 27.4897C33.2743 27.4897 34.2592 27.2534 35.1469 26.7837L35.8993 26.3931C36.6527 25.9956 37.5683 26.0845 38.2367 26.6226L38.6166 26.9224C38.8339 27.0933 39.1483 27.0561 39.3187 26.8393C39.4896 26.6225 39.4525 26.3081 39.2357 26.1372L38.8597 25.8403C37.8851 25.0552 36.5404 24.9253 35.4359 25.5073L34.6825 25.8979C33.2548 26.6528 31.5311 26.688 30.0697 25.9878C29.7406 25.8325 29.5365 25.5073 29.5365 25.1401C29.5365 24.9604 29.5863 24.6987 29.8221 24.4712L32.6722 21.7417C32.6732 21.7407 32.6732 21.7392 32.6741 21.7383L33.4237 21.02C34.1571 20.313 35.202 19.9819 36.2132 20.1245L43.9969 21.2749C44.6869 21.3696 45.3924 21.2397 45.9808 20.9067L47.0575 20.3032L47.6634 21.7885C47.7679 22.0444 48.0594 22.1675 48.3153 22.063C48.5707 21.9585 48.6937 21.6665 48.5892 21.4116L47.6708 19.1547C47.5697 18.9018 47.6859 18.6137 47.9393 18.5073L52.1688 16.6274C52.2953 16.5717 52.4354 16.5678 52.5619 16.6196C52.6854 16.6704 52.7811 16.768 52.8329 16.8979L58.2518 30.2856C58.3529 30.5385 58.2387 30.8227 57.994 30.9331L53.7587 32.8051C53.5336 32.9057 53.2689 32.8266 53.1454 32.6333C53.1454 32.6333 53.1 32.5424 53.1 32.5415L49.5697 23.8413C49.4657 23.5864 49.1718 23.4624 48.9183 23.5669C48.6625 23.6704 48.539 23.9614 48.643 24.2182L51.9988 32.4848L49.9882 32.7651C49.747 32.7973 49.4784 32.8081 49.1762 32.8003C49.0512 32.8003 48.9257 32.7924 48.765 32.771C48.6229 32.7622 48.4887 32.7368 48.3246 32.7065C48.2177 32.6899 48.1102 32.6645 47.975 32.6245C47.8724 32.5991 47.7709 32.5649 47.6742 32.5297C47.5438 32.4829 47.4032 32.4262 47.2792 32.3735C46.9081 32.2094 46.5399 31.9848 46.1889 31.7104L41.2987 27.7905C41.0849 27.6167 40.7689 27.6538 40.5961 27.8676C40.4232 28.0825 40.4579 28.3979 40.6737 28.5698L45.5678 32.4936C45.9882 32.8227 46.4276 33.0903 46.8803 33.2905C47.0292 33.354 47.1894 33.4184 47.3358 33.4702C47.4623 33.5161 47.6 33.562 47.7089 33.5874C47.8622 33.6352 48.0155 33.6704 48.1747 33.6958C48.348 33.728 48.5228 33.7583 48.664 33.7651C48.727 33.7739 48.7914 33.7817 48.8573 33.7866C49.1254 34.4624 48.975 35.2446 48.4574 35.7632C47.8183 36.3862 46.7909 36.4663 46.0839 35.9477L40.3139 31.6782C40.0917 31.5151 39.7782 31.562 39.6147 31.7827C39.4501 32.0053 39.497 32.3178 39.7191 32.4829L41.064 33.4779C41.0967 33.5298 41.1377 33.5775 41.1903 33.6157L44.9433 36.3589C45.393 36.687 45.6776 37.1723 45.7445 37.7261C45.8114 38.2808 45.6498 38.8208 45.2904 39.2476Z" fill="#2D4356"/>
<path d="M21.7266 2.35714C21.9597 2.35714 22.1875 2.28802 22.3813 2.15852C22.5752 2.02902 22.7262 1.84495 22.8154 1.62959C22.9046 1.41424 22.928 1.17726 22.8825 0.948644C22.837 0.720024 22.7248 0.510022 22.5599 0.345196C22.3951 0.18037 22.1851 0.0681219 21.9565 0.0226465C21.7279 -0.022829 21.4909 0.000510659 21.2755 0.0897139C21.0602 0.178917 20.8761 0.329978 20.7466 0.523793C20.6171 0.717608 20.548 0.945473 20.548 1.17857C20.5483 1.49104 20.6726 1.79061 20.8936 2.01155C21.1145 2.2325 21.4141 2.35679 21.7266 2.35714ZM21.7266 0.589286C21.8431 0.589286 21.957 0.623847 22.054 0.688599C22.1509 0.75335 22.2264 0.845384 22.271 0.953062C22.3156 1.06074 22.3273 1.17923 22.3045 1.29354C22.2818 1.40785 22.2257 1.51285 22.1433 1.59526C22.0608 1.67767 21.9558 1.7338 21.8415 1.75653C21.7272 1.77927 21.6087 1.7676 21.5011 1.723C21.3934 1.6784 21.3013 1.60287 21.2366 1.50596C21.1718 1.40905 21.1373 1.29512 21.1373 1.17857C21.1374 1.02233 21.1996 0.872533 21.31 0.762054C21.4205 0.651575 21.5703 0.58944 21.7266 0.589286ZM52.3694 18.8571C52.214 18.8571 52.0621 18.9032 51.9329 18.9896C51.8037 19.0759 51.703 19.1986 51.6435 19.3422C51.584 19.4858 51.5685 19.6437 51.5988 19.7961C51.6291 19.9486 51.704 20.0886 51.8138 20.1984C51.9237 20.3083 52.0637 20.3832 52.2161 20.4135C52.3685 20.4438 52.5265 20.4282 52.6701 20.3688C52.8137 20.3093 52.9364 20.2086 53.0227 20.0794C53.1091 19.9502 53.1551 19.7983 53.1551 19.6429C53.1549 19.4345 53.072 19.2348 52.9247 19.0875C52.7774 18.9402 52.5777 18.8574 52.3694 18.8571ZM52.3694 20.0357C52.2917 20.0357 52.2158 20.0127 52.1512 19.9695C52.0866 19.9263 52.0362 19.865 52.0065 19.7932C51.9767 19.7214 51.969 19.6424 51.9841 19.5662C51.9993 19.49 52.0367 19.42 52.0916 19.3651C52.1466 19.3101 52.2166 19.2727 52.2928 19.2575C52.369 19.2424 52.448 19.2502 52.5198 19.2799C52.5915 19.3096 52.6529 19.36 52.6961 19.4246C52.7392 19.4892 52.7623 19.5652 52.7623 19.6429C52.7622 19.747 52.7207 19.8469 52.6471 19.9205C52.5734 19.9942 52.4736 20.0356 52.3694 20.0357ZM38.6194 9.82143C38.464 9.82143 38.3121 9.86751 38.1829 9.95385C38.0537 10.0402 37.953 10.1629 37.8935 10.3065C37.834 10.45 37.8185 10.608 37.8488 10.7604C37.8791 10.9128 37.9539 11.0528 38.0638 11.1627C38.1737 11.2726 38.3137 11.3474 38.4661 11.3778C38.6185 11.4081 38.7765 11.3925 38.9201 11.333C39.0637 11.2736 39.1864 11.1729 39.2727 11.0437C39.3591 10.9145 39.4051 10.7625 39.4051 10.6071C39.4049 10.3988 39.322 10.1991 39.1747 10.0518C39.0274 9.90452 38.8277 9.82167 38.6194 9.82143ZM38.6194 11C38.5417 11 38.4658 10.977 38.4012 10.9338C38.3366 10.8906 38.2862 10.8293 38.2565 10.7575C38.2267 10.6857 38.219 10.6067 38.2341 10.5305C38.2493 10.4543 38.2867 10.3843 38.3416 10.3294C38.3966 10.2744 38.4666 10.237 38.5428 10.2218C38.619 10.2067 38.698 10.2145 38.7698 10.2442C38.8415 10.2739 38.9029 10.3243 38.9461 10.3889C38.9892 10.4535 39.0123 10.5294 39.0123 10.6071C39.0122 10.7113 38.9707 10.8112 38.8971 10.8848C38.8234 10.9585 38.7236 10.9999 38.6194 11ZM62.1908 1.17857C62.0354 1.17857 61.8835 1.22465 61.7543 1.31099C61.6251 1.39732 61.5244 1.52004 61.4649 1.66361C61.4055 1.80718 61.3899 1.96516 61.4202 2.11757C61.4506 2.26999 61.5254 2.40999 61.6353 2.51987C61.7452 2.62975 61.8852 2.70459 62.0376 2.7349C62.19 2.76522 62.348 2.74966 62.4915 2.69019C62.6351 2.63072 62.7578 2.53002 62.8441 2.40081C62.9305 2.2716 62.9766 2.11969 62.9766 1.96429C62.9763 1.75597 62.8935 1.55626 62.7462 1.40897C62.5989 1.26167 62.3992 1.17881 62.1908 1.17857ZM62.1908 2.35714C62.1131 2.35714 62.0372 2.3341 61.9726 2.29094C61.908 2.24777 61.8576 2.18641 61.8279 2.11463C61.7982 2.04284 61.7904 1.96385 61.8055 1.88764C61.8207 1.81144 61.8581 1.74144 61.9131 1.68649C61.968 1.63155 62.038 1.59414 62.1142 1.57898C62.1904 1.56382 62.2694 1.5716 62.3412 1.60133C62.413 1.63107 62.4743 1.68142 62.5175 1.74603C62.5607 1.81063 62.5837 1.88659 62.5837 1.96429C62.5836 2.06845 62.5422 2.16831 62.4685 2.24196C62.3949 2.31562 62.295 2.35704 62.1908 2.35714ZM6.79799 8.25C6.79799 8.0946 6.75191 7.94269 6.66557 7.81348C6.57924 7.68427 6.45653 7.58356 6.31296 7.5241C6.16939 7.46463 6.01141 7.44907 5.85899 7.47938C5.70658 7.5097 5.56658 7.58453 5.45669 7.69442C5.34681 7.8043 5.27198 7.9443 5.24166 8.09672C5.21134 8.24913 5.2269 8.40711 5.28637 8.55068C5.34584 8.69425 5.44655 8.81696 5.57576 8.9033C5.70497 8.98963 5.85688 9.03572 6.01228 9.03572C6.22059 9.03548 6.4203 8.95262 6.5676 8.80532C6.7149 8.65802 6.79775 8.45831 6.79799 8.25ZM5.61942 8.25C5.61942 8.1723 5.64246 8.09635 5.68563 8.03174C5.7288 7.96714 5.79015 7.91678 5.86194 7.88705C5.93372 7.85731 6.01271 7.84953 6.08892 7.86469C6.16513 7.87985 6.23513 7.91727 6.29007 7.97221C6.34501 8.02715 6.38243 8.09715 6.39759 8.17336C6.41274 8.24957 6.40496 8.32856 6.37523 8.40034C6.3455 8.47213 6.29514 8.53348 6.23054 8.57665C6.16593 8.61982 6.08998 8.64286 6.01228 8.64286C5.90812 8.64275 5.80825 8.60133 5.7346 8.52768C5.66095 8.45403 5.61952 8.35416 5.61942 8.25Z" fill="#2D4356"/>
<path d="M4.27783 24.3618L4.86201 23.5938L4.49312 23.3848L4.11794 24.2451H4.10576L3.72469 23.3907L3.34951 23.6059L3.9274 24.3559V24.3681L3.02344 24.2514V24.6694L3.93329 24.5527V24.5649L3.34951 25.3145L3.69954 25.5361L4.09947 24.6694H4.11165L4.48054 25.5298L4.8679 25.3086L4.27783 24.5708V24.5586L5.20576 24.6694V24.2514L4.27783 24.374V24.3618Z" fill="#1E83E6"/>
<path d="M23.6041 11.0273L23.2679 11.459L23.4698 11.5863L23.7 11.0874H23.7067L23.9192 11.5828L24.1424 11.4555L23.8025 11.0304V11.0234L24.3368 11.0874V10.8466L23.8025 10.9173V10.9102L24.1388 10.4679L23.9267 10.3477L23.7106 10.843H23.7035L23.4839 10.3508L23.2679 10.4749L23.6006 10.9067V10.9138L23.0801 10.8466V11.0874L23.6041 11.0202V11.0273Z" fill="#1E83E6"/>
<path d="M64.1553 18.3517V17.9419L63.2451 18.0625V18.0504L63.8179 17.2969L63.456 17.0918L63.0883 17.9357H63.0761L62.7025 17.0977L62.3344 17.309L62.9013 18.0445V18.0567L62.0146 17.9419V18.3517L62.9072 18.2374V18.2495L62.3344 18.985L62.6782 19.2022L63.0703 18.3517H63.082L63.4439 19.1959L63.8238 18.9791L63.2451 18.2554V18.2433L64.1553 18.3517Z" fill="#1E83E6"/>
<path d="M45.0787 1.01642L45.5729 0.366239L45.2606 0.189453L44.9435 0.917417H44.9329L44.6108 0.19456L44.293 0.376846L44.7821 1.01131V1.02152L44.0176 0.922917V1.27649L44.7872 1.17749V1.1881L44.293 1.82256L44.5896 2.00995L44.9278 1.27649H44.938L45.2504 2.00445L45.578 1.81745L45.0787 1.1932V1.1826L45.8636 1.27649V0.922917L45.0787 1.02663V1.01642Z" fill="#1E83E6"/>
<path d="M0.785714 55.965C1.21965 55.965 1.57143 55.6132 1.57143 55.1793C1.57143 54.7453 1.21965 54.3936 0.785714 54.3936C0.351776 54.3936 0 54.7453 0 55.1793C0 55.6132 0.351776 55.965 0.785714 55.965Z" fill="#2D4356"/>
<path d="M4.32171 54.3936H3.14314C2.93475 54.3936 2.7349 54.4763 2.58755 54.6237C2.4402 54.771 2.35742 54.9709 2.35742 55.1793C2.35742 55.3877 2.4402 55.5875 2.58755 55.7349C2.7349 55.8822 2.93475 55.965 3.14314 55.965H4.32171C4.53009 55.965 4.72994 55.8822 4.87729 55.7349C5.02464 55.5875 5.10742 55.3877 5.10742 55.1793C5.10742 54.9709 5.02464 54.771 4.87729 54.6237C4.72994 54.4763 4.53009 54.3936 4.32171 54.3936ZM62.8574 54.3936H61.6789C61.4705 54.3936 61.2706 54.4763 61.1233 54.6237C60.9759 54.771 60.8931 54.9709 60.8931 55.1793C60.8931 55.3877 60.9759 55.5875 61.1233 55.7349C61.2706 55.8822 61.4705 55.965 61.6789 55.965H62.8574C63.0658 55.965 63.2657 55.8822 63.413 55.7349C63.5604 55.5875 63.6431 55.3877 63.6431 55.1793C63.6431 54.9709 63.5604 54.771 63.413 54.6237C63.2657 54.4763 63.0658 54.3936 62.8574 54.3936Z" fill="#2D4356"/>
<path d="M65.2144 55.965C65.6484 55.965 66.0001 55.6132 66.0001 55.1793C66.0001 54.7453 65.6484 54.3936 65.2144 54.3936C64.7805 54.3936 64.4287 54.7453 64.4287 55.1793C64.4287 55.6132 64.7805 55.965 65.2144 55.965Z" fill="#2D4356"/>
<rect x="7" y="55" width="52" height="1.2" rx="0.6" fill="#2D4356"/>
<rect x="7" y="55" width="52" height="1.2" rx="0.6" fill="#2D4356"/>
<path d="M45.7253 58.2861H42.5604C42.3689 58.3015 42.1902 58.3884 42.0598 58.5296C41.9295 58.6708 41.8571 58.8559 41.8571 59.048C41.8571 59.2402 41.9295 59.4253 42.0598 59.5665C42.1902 59.7077 42.3689 59.7946 42.5604 59.8099H45.7253C45.9168 59.7946 46.0956 59.7077 46.2259 59.5665C46.3562 59.4253 46.4286 59.2402 46.4286 59.048C46.4286 58.8559 46.3562 58.6708 46.2259 58.5296C46.0956 58.3884 45.9168 58.3015 45.7253 58.2861ZM22.8682 58.2861H19.7033C19.5118 58.3015 19.333 58.3884 19.2027 58.5296C19.0724 58.6708 19 58.8559 19 59.048C19 59.2402 19.0724 59.4253 19.2027 59.5665C19.333 59.7077 19.5118 59.7946 19.7033 59.8099H22.8682C23.0597 59.7946 23.2384 59.7077 23.3687 59.5665C23.4991 59.4253 23.5714 59.2402 23.5714 59.048C23.5714 58.8559 23.4991 58.6708 23.3687 58.5296C23.2384 58.3884 23.0597 58.3015 22.8682 58.2861ZM40.3333 58.2861H25.0952C24.8932 58.2861 24.6994 58.3664 24.5565 58.5093C24.4136 58.6522 24.3333 58.846 24.3333 59.048C24.3333 59.2501 24.4136 59.4439 24.5565 59.5868C24.6994 59.7297 24.8932 59.8099 25.0952 59.8099H31.1676V60.5718H28.1429C27.9408 60.5718 27.747 60.6521 27.6041 60.795C27.4612 60.9379 27.381 61.1317 27.381 61.3338C27.381 61.5358 27.4612 61.7296 27.6041 61.8725C27.747 62.0154 27.9408 62.0957 28.1429 62.0957H37.6667C37.8687 62.0957 38.0625 62.0154 38.2054 61.8725C38.3483 61.7296 38.4286 61.5358 38.4286 61.3338C38.4286 61.1317 38.3483 60.9379 38.2054 60.795C38.0625 60.6521 37.8687 60.5718 37.6667 60.5718H34.261V59.8099H40.3333C40.5354 59.8099 40.7292 59.7297 40.8721 59.5868C41.015 59.4439 41.0953 59.2501 41.0953 59.048C41.0953 58.846 41.015 58.6522 40.8721 58.5093C40.7292 58.3664 40.5354 58.2861 40.3333 58.2861Z" fill="#1E83E6"/>
</svg>
