<svg width="55" height="55" viewBox="0 0 55 55" fill="none" xmlns="http://www.w3.org/2000/svg">
<g clip-path="url(#clip0_774_1236)">
<path d="M33.7061 18.0028C33.6306 17.9616 33.5478 17.9357 33.4623 17.9265C33.3768 17.9174 33.2903 17.9252 33.2078 17.9495C33.1253 17.9738 33.0484 18.0141 32.9815 18.0682C32.9146 18.1222 32.8591 18.1889 32.818 18.2644L28.9307 25.399C28.3875 25.1845 27.8033 25.0943 27.2208 25.1348C26.6383 25.1754 26.0723 25.3457 25.5641 25.6333C25.0559 25.921 24.6186 26.3187 24.284 26.7972C23.9494 27.2758 23.7262 27.8231 23.6305 28.3992H20.2976C20.1239 28.3992 19.9574 28.4682 19.8346 28.591C19.7118 28.7137 19.6428 28.8803 19.6428 29.0539C19.6428 29.2276 19.7118 29.3941 19.8346 29.5169C19.9574 29.6397 20.1239 29.7087 20.2976 29.7087H23.6305C23.735 30.331 23.9879 30.919 24.3678 31.4228C24.7477 31.9266 25.2435 32.3314 25.8131 32.6029C26.3827 32.8744 27.0094 33.0046 27.64 32.9825C28.2706 32.9604 28.8866 32.7866 29.4358 32.4759C29.985 32.1652 30.4512 31.7267 30.7949 31.1975C31.1386 30.6683 31.3498 30.0641 31.4104 29.436C31.471 28.8079 31.3793 28.1745 31.1432 27.5893C30.907 27.0042 30.5332 26.4846 30.0536 26.0746L33.9677 18.8911C34.0088 18.8156 34.0347 18.7327 34.0439 18.6472C34.053 18.5617 34.0452 18.4752 34.0209 18.3927C33.9966 18.3102 33.9563 18.2333 33.9023 18.1664C33.8483 18.0995 33.7816 18.0439 33.7061 18.0028ZM30.119 29.0539C30.119 29.5719 29.9654 30.0783 29.6776 30.509C29.3898 30.9397 28.9808 31.2754 28.5022 31.4736C28.0237 31.6719 27.4971 31.7237 26.989 31.6227C26.481 31.5216 26.0143 31.2722 25.648 30.9059C25.2817 30.5396 25.0323 30.0729 24.9312 29.5649C24.8302 29.0568 24.8821 28.5302 25.0803 28.0517C25.2785 27.5731 25.6142 27.1641 26.0449 26.8763C26.4756 26.5885 26.982 26.4349 27.5 26.4349C28.1943 26.4357 28.86 26.7119 29.351 27.2029C29.842 27.6939 30.1182 28.3596 30.119 29.0539ZM39.9404 9.41109H42.5595C42.7331 9.41109 42.8997 9.3421 43.0225 9.21931C43.1453 9.09652 43.2142 8.92998 43.2142 8.75632C43.2142 8.58267 43.1453 8.41613 43.0225 8.29334C42.8997 8.17055 42.7331 8.10156 42.5595 8.10156H39.9404C39.7668 8.10156 39.6002 8.17055 39.4775 8.29334C39.3547 8.41613 39.2857 8.58267 39.2857 8.75632C39.2857 8.92998 39.3547 9.09652 39.4775 9.21931C39.6002 9.3421 39.7668 9.41109 39.9404 9.41109Z" fill="#1E83E6"/>
<path d="M45.1787 9.41108H47.7977C47.9714 9.41108 48.1379 9.3421 48.2607 9.21931C48.3835 9.09652 48.4525 8.92998 48.4525 8.75632C48.4525 8.58267 48.3835 8.41613 48.2607 8.29334C48.1379 8.17055 47.9714 8.10156 47.7977 8.10156H45.1787C45.005 8.10156 44.8385 8.17055 44.7157 8.29334C44.5929 8.41613 44.5239 8.58267 44.5239 8.75632C44.5239 8.92998 44.5929 9.09652 44.7157 9.21931C44.8385 9.3421 45.005 9.41108 45.1787 9.41108Z" fill="#2D4356"/>
<path d="M47.7976 10.7207C47.6239 10.7207 47.4574 10.7897 47.3346 10.9125C47.2118 11.0353 47.1428 11.2018 47.1428 11.3755V13.9945C47.1428 14.1682 47.2118 14.3347 47.3346 14.4575C47.4574 14.5803 47.6239 14.6493 47.7976 14.6493C47.9712 14.6493 48.1378 14.5803 48.2606 14.4575C48.3834 14.3347 48.4523 14.1682 48.4523 13.9945V11.3755C48.4523 11.2018 48.3834 11.0353 48.2606 10.9125C48.1378 10.7897 47.9712 10.7207 47.7976 10.7207Z" fill="#1E83E6"/>
<path d="M7.20237 12.0301C7.37602 12.0301 7.54256 11.9611 7.66534 11.8383C7.78813 11.7156 7.85712 11.549 7.85713 11.3754V8.75632C7.85713 8.58267 7.78815 8.41613 7.66535 8.29334C7.54256 8.17055 7.37602 8.10156 7.20237 8.10156C7.02872 8.10156 6.86217 8.17055 6.73938 8.29334C6.61659 8.41613 6.54761 8.58267 6.54761 8.75632V11.3754C6.54762 11.549 6.6166 11.7156 6.73939 11.8383C6.86218 11.9611 7.02872 12.0301 7.20237 12.0301Z" fill="#2D4356"/>
<path d="M7.20237 17.2682C7.37602 17.2682 7.54256 17.1992 7.66535 17.0764C7.78814 16.9537 7.85712 16.7871 7.85713 16.6135V13.9944C7.85713 13.8208 7.78815 13.6542 7.66536 13.5314C7.54256 13.4086 7.37602 13.3397 7.20237 13.3397C7.02872 13.3397 6.86217 13.4086 6.73938 13.5314C6.61659 13.6542 6.54761 13.8208 6.54761 13.9944V16.6135C6.54762 16.7871 6.6166 16.9537 6.73939 17.0764C6.86218 17.1992 7.02872 17.2682 7.20237 17.2682ZM9.82142 9.41109H12.4405C12.6141 9.41109 12.7807 9.3421 12.9035 9.21931C13.0262 9.09652 13.0952 8.92998 13.0952 8.75632C13.0952 8.58267 13.0262 8.41613 12.9035 8.29334C12.7807 8.17055 12.6141 8.10156 12.4405 8.10156H9.82142C9.64776 8.10156 9.48122 8.17055 9.35843 8.29334C9.23564 8.41613 9.16666 8.58267 9.16666 8.75632C9.16666 8.92998 9.23564 9.09652 9.35843 9.21931C9.48122 9.3421 9.64776 9.41109 9.82142 9.41109ZM7.20237 40.8397C7.02872 40.8397 6.86218 40.9086 6.73939 41.0314C6.6166 41.1542 6.54762 41.3208 6.54761 41.4944V44.1135C6.54761 44.2871 6.61659 44.4537 6.73938 44.5765C6.86217 44.6992 7.02872 44.7682 7.20237 44.7682C7.37602 44.7682 7.54256 44.6992 7.66536 44.5765C7.78815 44.4537 7.85713 44.2871 7.85713 44.1135V41.4944C7.85712 41.3208 7.78814 41.1542 7.66535 41.0314C7.54256 40.9086 7.37602 40.8397 7.20237 40.8397ZM47.7976 40.8397C47.624 40.8397 47.4574 40.9086 47.3346 41.0314C47.2118 41.1542 47.1429 41.3208 47.1428 41.4944V44.1135C47.1428 44.2871 47.2118 44.4537 47.3346 44.5765C47.4574 44.6992 47.624 44.7682 47.7976 44.7682C47.9713 44.7682 48.1378 44.6992 48.2606 44.5765C48.3834 44.4537 48.4524 44.2871 48.4524 44.1135V41.4944C48.4524 41.3208 48.3834 41.1542 48.2606 41.0314C48.1378 40.9086 47.9713 40.8397 47.7976 40.8397ZM38.6813 51.3158H35.9615C35.7969 51.329 35.6433 51.4037 35.5313 51.5251C35.4193 51.6464 35.3571 51.8055 35.3571 51.9706C35.3571 52.1357 35.4193 52.2948 35.5313 52.4161C35.6433 52.5375 35.7969 52.6122 35.9615 52.6254H38.6813C38.8459 52.6122 38.9995 52.5375 39.1115 52.4161C39.2235 52.2948 39.2857 52.1357 39.2857 51.9706C39.2857 51.8055 39.2235 51.6464 39.1115 51.5251C38.9995 51.4037 38.8459 51.329 38.6813 51.3158ZM19.0385 51.3158H16.3187C16.1541 51.329 16.0005 51.4037 15.8885 51.5251C15.7765 51.6464 15.7143 51.8055 15.7143 51.9706C15.7143 52.1357 15.7765 52.2948 15.8885 52.4161C16.0005 52.5375 16.1541 52.6122 16.3187 52.6254H19.0385C19.2031 52.6122 19.3567 52.5375 19.4687 52.4161C19.5807 52.2948 19.6429 52.1357 19.6429 51.9706C19.6429 51.8055 19.5807 51.6464 19.4687 51.5251C19.3567 51.4037 19.2031 51.329 19.0385 51.3158ZM34.0476 51.3158H20.9524C20.7787 51.3158 20.6122 51.3848 20.4894 51.5076C20.3666 51.6304 20.2976 51.797 20.2976 51.9706C20.2976 52.1443 20.3666 52.3108 20.4894 52.4336C20.6122 52.5564 20.7787 52.6254 20.9524 52.6254H26.1708V53.2801H23.5714C23.3978 53.2801 23.2312 53.3491 23.1084 53.4719C22.9856 53.5947 22.9167 53.7612 22.9167 53.9349C22.9167 54.1085 22.9856 54.2751 23.1084 54.3979C23.2312 54.5207 23.3978 54.5897 23.5714 54.5897H31.7559C31.9296 54.5897 32.0961 54.5207 32.2189 54.3979C32.3417 54.2751 32.4107 54.1085 32.4107 53.9349C32.4107 53.7612 32.3417 53.5947 32.2189 53.4719C32.0961 53.3491 31.9296 53.2801 31.7559 53.2801H28.8292V52.6254H34.0476C34.2213 52.6254 34.3878 52.5564 34.5106 52.4336C34.6334 52.3108 34.7024 52.1443 34.7024 51.9706C34.7024 51.797 34.6334 51.6304 34.5106 51.5076C34.3878 51.3848 34.2213 51.3158 34.0476 51.3158Z" fill="#1E83E6"/>
<path d="M0.654762 50.0068C1.01638 50.0068 1.30952 49.7136 1.30952 49.352C1.30952 48.9904 1.01638 48.6973 0.654762 48.6973C0.293147 48.6973 0 48.9904 0 49.352C0 49.7136 0.293147 50.0068 0.654762 50.0068Z" fill="#2D4356"/>
<path d="M3.60126 48.6973H2.61912C2.44546 48.6973 2.27892 48.7662 2.15613 48.889C2.03334 49.0118 1.96436 49.1784 1.96436 49.352C1.96436 49.5257 2.03334 49.6922 2.15613 49.815C2.27892 49.9378 2.44546 50.0068 2.61912 50.0068H3.60126C3.77491 50.0068 3.94146 49.9378 4.06425 49.815C4.18704 49.6922 4.25602 49.5257 4.25602 49.352C4.25602 49.1784 4.18704 49.0118 4.06425 48.889C3.94146 48.7662 3.77491 48.6973 3.60126 48.6973ZM52.381 48.6973H51.3989C51.2252 48.6973 51.0587 48.7662 50.9359 48.889C50.8131 49.0118 50.7441 49.1784 50.7441 49.352C50.7441 49.5257 50.8131 49.6922 50.9359 49.815C51.0587 49.9378 51.2252 50.0068 51.3989 50.0068H52.381C52.5547 50.0068 52.7212 49.9378 52.844 49.815C52.9668 49.6922 53.0358 49.5257 53.0358 49.352C53.0358 49.1784 52.9668 49.0118 52.844 48.889C52.7212 48.7662 52.5547 48.6973 52.381 48.6973Z" fill="#2D4356"/>
<path d="M54.3452 50.0068C54.7068 50.0068 55 49.7136 55 49.352C55 48.9904 54.7068 48.6973 54.3452 48.6973C53.9836 48.6973 53.6904 48.9904 53.6904 49.352C53.6904 49.7136 53.9836 50.0068 54.3452 50.0068Z" fill="#2D4356"/>
<path d="M49.3432 48.6968H48.4523V46.7325C48.4523 46.5589 48.3834 46.3923 48.2606 46.2695C48.1378 46.1467 47.9712 46.0777 47.7976 46.0777C47.6239 46.0777 47.4574 46.1467 47.3346 46.2695C47.2118 46.3923 47.1428 46.5589 47.1428 46.7325V48.6968H34.788C39.3959 46.9872 43.2562 43.7122 45.6938 39.4445C48.1314 35.1768 48.9911 30.188 48.1227 25.3505C47.2542 20.5131 44.7128 16.1348 40.943 12.9815C37.1731 9.82817 32.4148 8.10043 27.5 8.10043C22.5851 8.10043 17.8268 9.82817 14.0569 12.9815C10.2871 16.1348 7.7457 20.5131 6.87726 25.3505C6.00881 30.188 6.86856 35.1768 9.30614 39.4445C11.7437 43.7122 15.604 46.9872 20.2119 48.6968H7.85709V46.7325C7.85709 46.5589 7.78811 46.3923 7.66531 46.2695C7.54252 46.1467 7.37598 46.0777 7.20233 46.0777C7.02867 46.0777 6.86213 46.1467 6.73934 46.2695C6.61655 46.3923 6.54757 46.5589 6.54757 46.7325V48.6968H5.65666C5.56351 48.6846 5.46884 48.6925 5.37896 48.7198C5.28909 48.7471 5.20608 48.7933 5.13548 48.8553C5.06489 48.9173 5.00832 48.9936 4.96957 49.0792C4.93083 49.1648 4.91078 49.2576 4.91078 49.3516C4.91078 49.4455 4.93083 49.5384 4.96957 49.6239C5.00832 49.7095 5.06489 49.7858 5.13548 49.8478C5.20608 49.9098 5.28909 49.956 5.37896 49.9833C5.46884 50.0106 5.56351 50.0185 5.65666 50.0063H49.3432C49.4364 50.0185 49.5311 50.0106 49.6209 49.9833C49.7108 49.956 49.7938 49.9098 49.8644 49.8478C49.935 49.7858 49.9916 49.7095 50.0303 49.6239C50.0691 49.5384 50.0891 49.4455 50.0891 49.3516C50.0891 49.2576 50.0691 49.1648 50.0303 49.0792C49.9916 48.9936 49.935 48.9173 49.8644 48.8553C49.7938 48.7933 49.7108 48.7471 49.6209 48.7198C49.5311 48.6925 49.4364 48.6846 49.3432 48.6968ZM16.8511 39.7026C16.7903 39.6418 16.7182 39.5936 16.6387 39.5606C16.5593 39.5277 16.4742 39.5108 16.3882 39.5108C16.3022 39.5108 16.2171 39.5277 16.1376 39.5606C16.0582 39.5936 15.986 39.6418 15.9252 39.7026L13.1649 42.463C9.90964 38.9959 8.02869 34.4619 7.87373 29.7087H11.7857C11.9593 29.7087 12.1259 29.6397 12.2486 29.5169C12.3714 29.3941 12.4404 29.2276 12.4404 29.0539C12.4404 28.8803 12.3714 28.7137 12.2486 28.591C12.1259 28.4682 11.9593 28.3992 11.7857 28.3992H7.87371C8.02867 23.646 9.90962 19.1119 13.1648 15.6449L15.9252 18.4053C16.0492 18.5259 16.2152 18.5933 16.3882 18.5933C16.5611 18.5933 16.7272 18.5259 16.8511 18.4053C16.9119 18.3445 16.9602 18.2723 16.9931 18.1929C17.026 18.1134 17.0429 18.0283 17.0429 17.9423C17.0429 17.8563 17.026 17.7712 16.9931 17.6918C16.9602 17.6123 16.9119 17.5402 16.8511 17.4794L14.0907 14.719C17.5578 11.4637 22.0919 9.58268 26.8452 9.42771V13.3397C26.8452 13.5133 26.9142 13.6799 27.037 13.8026C27.1598 13.9254 27.3263 13.9944 27.5 13.9944C27.6736 13.9944 27.8401 13.9254 27.9629 13.8026C28.0857 13.6799 28.1547 13.5133 28.1547 13.3397V9.42771C32.908 9.58269 37.4421 11.4637 40.9091 14.719L38.1488 17.4794C38.088 17.5402 38.0397 17.6123 38.0068 17.6918C37.9739 17.7712 37.9569 17.8563 37.9569 17.9423C37.9569 18.0283 37.9739 18.1135 38.0068 18.1929C38.0397 18.2723 38.088 18.3445 38.1488 18.4053C38.2726 18.526 38.4387 18.5936 38.6117 18.5936C38.7847 18.5936 38.9508 18.526 39.0746 18.4053L41.835 15.6449C45.0903 19.1119 46.9712 23.646 47.1262 28.3992H43.2142C43.0406 28.3992 42.874 28.4682 42.7513 28.591C42.6285 28.7137 42.5595 28.8803 42.5595 29.0539C42.5595 29.2276 42.6285 29.3941 42.7513 29.5169C42.874 29.6397 43.0406 29.7087 43.2142 29.7087H47.1262C46.9712 34.4619 45.0903 38.9959 41.8351 42.463L39.0747 39.7026C38.9518 39.5802 38.7854 39.5116 38.612 39.5117C38.4386 39.5119 38.2723 39.5809 38.1497 39.7035C38.0271 39.8261 37.9581 39.9924 37.9579 40.1658C37.9578 40.3392 38.0264 40.5056 38.1488 40.6285L40.9092 43.3889C37.4421 46.6442 32.908 48.5252 28.1547 48.6802V44.7682C28.1547 44.5946 28.0857 44.428 27.9629 44.3052C27.8401 44.1824 27.6736 44.1135 27.5 44.1135C27.3263 44.1135 27.1598 44.1824 27.037 44.3052C26.9142 44.428 26.8452 44.5946 26.8452 44.7682V48.6802C22.0919 48.5252 17.5578 46.6442 14.0908 43.3889L16.8511 40.6285C16.9119 40.5677 16.9602 40.4955 16.9931 40.4161C17.026 40.3367 17.043 40.2515 17.0429 40.1655C17.0429 40.0796 17.026 39.9944 16.9931 39.915C16.9602 39.8356 16.9119 39.7634 16.8511 39.7026ZM29.564 6.13728C29.7582 6.13728 29.9481 6.07967 30.1096 5.97176C30.2712 5.86384 30.397 5.71045 30.4714 5.53098C30.5457 5.35152 30.5652 5.15404 30.5273 4.96353C30.4894 4.77301 30.3958 4.59801 30.2585 4.46065C30.1211 4.3233 29.9461 4.22976 29.7556 4.19186C29.5651 4.15397 29.3676 4.17342 29.1881 4.24775C29.0087 4.32209 28.8553 4.44797 28.7474 4.60948C28.6395 4.771 28.5819 4.96088 28.5819 5.15513C28.5821 5.41552 28.6857 5.66516 28.8698 5.84928C29.054 6.03341 29.3036 6.13698 29.564 6.13728ZM29.564 4.66406C29.6611 4.66406 29.7561 4.69286 29.8368 4.74682C29.9176 4.80078 29.9805 4.87748 30.0177 4.96721C30.0549 5.05694 30.0646 5.15568 30.0456 5.25094C30.0267 5.34619 29.9799 5.4337 29.9112 5.50237C29.8426 5.57105 29.7551 5.61782 29.6598 5.63677C29.5645 5.65572 29.4658 5.64599 29.3761 5.60882C29.2863 5.57166 29.2096 5.50871 29.1557 5.42796C29.1017 5.3472 29.0729 5.25226 29.0729 5.15513C29.073 5.02493 29.1248 4.9001 29.2169 4.80804C29.309 4.71597 29.4338 4.66419 29.564 4.66406ZM53.4628 13.3397C53.3333 13.3397 53.2067 13.3781 53.099 13.45C52.9914 13.5219 52.9074 13.6242 52.8579 13.7439C52.8083 13.8635 52.7954 13.9951 52.8206 14.1222C52.8459 14.2492 52.9083 14.3658 52.9998 14.4574C53.0914 14.549 53.2081 14.6113 53.3351 14.6366C53.4621 14.6619 53.5937 14.6489 53.7134 14.5993C53.833 14.5498 53.9353 14.4659 54.0072 14.3582C54.0792 14.2505 54.1176 14.1239 54.1176 13.9944C54.1174 13.8208 54.0483 13.6544 53.9256 13.5317C53.8028 13.4089 53.6364 13.3399 53.4628 13.3397ZM53.4628 14.3218C53.3981 14.3218 53.3348 14.3026 53.2809 14.2666C53.2271 14.2307 53.1851 14.1795 53.1603 14.1197C53.1356 14.0599 53.1291 13.9941 53.1417 13.9305C53.1544 13.867 53.1855 13.8087 53.2313 13.7629C53.2771 13.7171 53.3354 13.686 53.3989 13.6733C53.4624 13.6607 53.5283 13.6672 53.5881 13.692C53.6479 13.7167 53.699 13.7587 53.735 13.8125C53.771 13.8664 53.7902 13.9297 53.7902 13.9944C53.7901 14.0812 53.7556 14.1644 53.6942 14.2258C53.6328 14.2872 53.5496 14.3217 53.4628 14.3218ZM3.37351 1.22656C3.24401 1.22656 3.11742 1.26496 3.00975 1.33691C2.90207 1.40886 2.81815 1.51112 2.76859 1.63076C2.71903 1.7504 2.70607 1.88205 2.73133 2.00906C2.7566 2.13607 2.81896 2.25274 2.91053 2.34431C3.0021 2.43588 3.11876 2.49824 3.24577 2.52351C3.37279 2.54877 3.50444 2.5358 3.62408 2.48625C3.74372 2.43669 3.84598 2.35277 3.91793 2.24509C3.98987 2.13742 4.02827 2.01082 4.02827 1.88132C4.02808 1.70773 3.95903 1.54131 3.83628 1.41856C3.71353 1.29581 3.54711 1.22676 3.37351 1.22656ZM3.37351 2.20871C3.30876 2.20871 3.24547 2.1895 3.19163 2.15353C3.13779 2.11756 3.09583 2.06643 3.07105 2.00661C3.04627 1.94679 3.03979 1.88096 3.05242 1.81746C3.06505 1.75395 3.09623 1.69562 3.14202 1.64983C3.1878 1.60405 3.24614 1.57287 3.30964 1.56023C3.37315 1.5476 3.43897 1.55409 3.4988 1.57886C3.55862 1.60364 3.60975 1.6456 3.64572 1.69944C3.68169 1.75328 3.70089 1.81657 3.70089 1.88132C3.70081 1.96812 3.66629 2.05134 3.60491 2.11272C3.54353 2.1741 3.46031 2.20862 3.37351 2.20871ZM49.2069 5.15513C49.0774 5.15513 48.9508 5.19353 48.8431 5.26548C48.7354 5.33743 48.6515 5.43969 48.6019 5.55933C48.5524 5.67897 48.5394 5.81062 48.5647 5.93763C48.5899 6.06464 48.6523 6.18131 48.7439 6.27288C48.8354 6.36445 48.9521 6.42681 49.0791 6.45208C49.2061 6.47734 49.3378 6.46437 49.4574 6.41482C49.5771 6.36526 49.6793 6.28134 49.7513 6.17366C49.8232 6.06599 49.8616 5.93939 49.8616 5.8099C49.8614 5.6363 49.7924 5.46988 49.6696 5.34713C49.5469 5.22438 49.3804 5.15533 49.2069 5.15513ZM49.2069 6.13728C49.1421 6.13728 49.0788 6.11808 49.025 6.0821C48.9711 6.04613 48.9292 5.995 48.9044 5.93518C48.8796 5.87536 48.8731 5.80953 48.8858 5.74603C48.8984 5.68252 48.9296 5.62419 48.9754 5.5784C49.0211 5.53262 49.0795 5.50144 49.143 5.4888C49.2065 5.47617 49.2723 5.48266 49.3321 5.50743C49.392 5.53221 49.4431 5.57417 49.4791 5.62801C49.515 5.68185 49.5342 5.74515 49.5342 5.8099C49.5341 5.8967 49.4996 5.97992 49.4383 6.04129C49.3769 6.10267 49.2937 6.13719 49.2069 6.13728ZM12.5402 5.8099C12.5402 5.6804 12.5018 5.5538 12.4298 5.44613C12.3579 5.33845 12.2556 5.25453 12.136 5.20497C12.0163 5.15542 11.8847 5.14245 11.7577 5.16771C11.6307 5.19298 11.514 5.25534 11.4224 5.34691C11.3309 5.43848 11.2685 5.55515 11.2432 5.68216C11.218 5.80917 11.2309 5.94082 11.2805 6.06046C11.3301 6.1801 11.414 6.28236 11.5217 6.35431C11.6293 6.42626 11.7559 6.46466 11.8854 6.46466C12.059 6.46446 12.2254 6.39541 12.3482 6.27266C12.4709 6.14991 12.54 5.98349 12.5402 5.8099ZM11.558 5.8099C11.558 5.74515 11.5772 5.68185 11.6132 5.62801C11.6492 5.57417 11.7003 5.53221 11.7601 5.50743C11.82 5.48266 11.8858 5.47617 11.9493 5.4888C12.0128 5.50144 12.0711 5.53262 12.1169 5.5784C12.1627 5.62419 12.1939 5.68252 12.2065 5.74603C12.2191 5.80953 12.2127 5.87536 12.1879 5.93518C12.1631 5.995 12.1211 6.04613 12.0673 6.0821C12.0135 6.11808 11.9502 6.13728 11.8854 6.13728C11.7986 6.13719 11.7154 6.10267 11.654 6.04129C11.5926 5.97992 11.5581 5.8967 11.558 5.8099Z" fill="#2D4356"/>
<path d="M2.25504 11.3786L2.74186 10.7386L2.43445 10.5645L2.1218 11.2814H2.11165L1.79409 10.5694L1.48144 10.7488L1.96302 11.3737V11.3839L1.20972 11.2867V11.6347L1.96793 11.5378V11.5479L1.48144 12.1725L1.77314 12.3572L2.10641 11.6347H2.11656L2.42397 12.352L2.74677 12.1676L2.25504 11.5528V11.5427L3.02832 11.6347V11.2867L2.25504 11.3888V11.3786Z" fill="#1E83E6"/>
<path d="M19.9968 1.57613L19.7165 1.93593L19.8848 2.04233L20.0767 1.62622H20.0822L20.2593 2.03938L20.4453 1.93331L20.1621 1.57908V1.57319L20.6074 1.62622V1.42587L20.1621 1.4848V1.4789L20.4424 1.11027L20.2656 1.00977L20.0855 1.42292H20.0796L19.8966 1.01271L19.7165 1.11616L19.9938 1.47596V1.48185L19.5601 1.42587V1.62622L19.9968 1.57024V1.57613Z" fill="#1E83E6"/>
<path d="M53.7902 1.46007V1.11861L53.0317 1.21911V1.20897L53.509 0.581049L53.2075 0.410156L52.9011 1.11337H52.8909L52.5796 0.415067L52.2728 0.59087L52.7452 1.20405V1.2142L52.0063 1.11861V1.46007L52.7502 1.3648V1.37495L52.2728 1.9878L52.5593 2.16885L52.886 1.46007H52.8958L53.1974 2.16361L53.5139 1.98289L53.0317 1.37986V1.36971L53.7902 1.46007Z" fill="#1E83E6"/>
<path d="M39.8579 1.41863L40.2697 0.876814L40.0095 0.729492L39.7453 1.33613H39.7364L39.468 0.733748L39.2031 0.885326L39.6107 1.41437V1.42289L38.9736 1.34039V1.63536L39.615 1.55286V1.56169L39.2031 2.09009L39.4503 2.24625L39.7322 1.63536H39.7407L40.001 2.24199L40.274 2.08616L39.8579 1.56595V1.55711L40.512 1.63536V1.34039L39.8579 1.42714V1.41863Z" fill="#1E83E6"/>
</g>
<defs>
<clipPath id="clip0_774_1236">
<rect width="55" height="55" fill="white"/>
</clipPath>
</defs>
</svg>
