<svg width="73" height="70" viewBox="0 0 73 70" fill="none" xmlns="http://www.w3.org/2000/svg">
<path d="M0.86285 63.1241C1.33939 63.1241 1.7257 62.7378 1.7257 62.2613C1.7257 61.7847 1.33939 61.3984 0.86285 61.3984C0.386311 61.3984 0 61.7847 0 62.2613C0 62.7378 0.386311 63.1241 0.86285 63.1241Z" fill="#2D4356"/>
<path d="M4.7455 61.3984H3.45123C3.22239 61.3984 3.00292 61.4893 2.8411 61.6512C2.67929 61.813 2.58838 62.0324 2.58838 62.2613C2.58838 62.4901 2.67929 62.7096 2.8411 62.8714C3.00292 63.0332 3.22239 63.1241 3.45123 63.1241H4.7455C4.97435 63.1241 5.19381 63.0332 5.35563 62.8714C5.51745 62.7096 5.60835 62.4901 5.60835 62.2613C5.60835 62.0324 5.51745 61.813 5.35563 61.6512C5.19381 61.4893 4.97435 61.3984 4.7455 61.3984Z" fill="#2D4356"/>
<path d="M50.9741 64.8496H47.39C47.1731 64.867 46.9707 64.9654 46.8231 65.1253C46.6755 65.2852 46.5935 65.4949 46.5935 65.7125C46.5935 65.9301 46.6755 66.1397 46.8231 66.2996C46.9707 66.4595 47.1731 66.5579 47.39 66.5753H50.9741C51.1911 66.5579 51.3935 66.4595 51.5411 66.2996C51.6887 66.1397 51.7706 65.9301 51.7706 65.7125C51.7706 65.4949 51.6887 65.2852 51.5411 65.1253C51.3935 64.9654 51.1911 64.867 50.9741 64.8496ZM25.0887 64.8496H21.5045C21.2876 64.867 21.0852 64.9654 20.9376 65.1253C20.79 65.2852 20.708 65.4949 20.708 65.7125C20.708 65.9301 20.79 66.1397 20.9376 66.2996C21.0852 66.4595 21.2876 66.5579 21.5045 66.5753H25.0887C25.3056 66.5579 25.508 66.4595 25.6556 66.2996C25.8032 66.1397 25.8851 65.9301 25.8851 65.7125C25.8851 65.4949 25.8032 65.2852 25.6556 65.1253C25.508 64.9654 25.3056 64.867 25.0887 64.8496ZM44.8678 64.8496H27.6108C27.382 64.8496 27.1625 64.9405 27.0007 65.1023C26.8389 65.2641 26.748 65.4836 26.748 65.7125C26.748 65.9413 26.8389 66.1608 27.0007 66.3226C27.1625 66.4844 27.382 66.5753 27.6108 66.5753H34.4877V67.4382H31.0622C30.8334 67.4382 30.6139 67.5291 30.4521 67.6909C30.2903 67.8527 30.1994 68.0722 30.1994 68.301C30.1994 68.5299 30.2903 68.7493 30.4521 68.9111C30.6139 69.073 30.8334 69.1639 31.0622 69.1639H41.8478C42.0767 69.1639 42.2962 69.073 42.458 68.9111C42.6198 68.7493 42.7107 68.5299 42.7107 68.301C42.7107 68.0722 42.6198 67.8527 42.458 67.6909C42.2962 67.5291 42.0767 67.4382 41.8478 67.4382H37.9909V66.5753H44.8678C45.0967 66.5753 45.3161 66.4844 45.4779 66.3226C45.6398 66.1608 45.7307 65.9413 45.7307 65.7125C45.7307 65.4836 45.6398 65.2641 45.4779 65.1023C45.3161 64.9405 45.0967 64.8496 44.8678 64.8496Z" fill="#1E83E6"/>
<path d="M0.86285 63.1241C1.33939 63.1241 1.7257 62.7378 1.7257 62.2613C1.7257 61.7847 1.33939 61.3984 0.86285 61.3984C0.386311 61.3984 0 61.7847 0 62.2613C0 62.7378 0.386311 63.1241 0.86285 63.1241Z" fill="#2D4356"/>
<path d="M4.7455 61.3984H3.45123C3.22239 61.3984 3.00292 61.4893 2.8411 61.6512C2.67929 61.813 2.58838 62.0324 2.58838 62.2613C2.58838 62.4901 2.67929 62.7096 2.8411 62.8714C3.00292 63.0332 3.22239 63.1241 3.45123 63.1241H4.7455C4.97435 63.1241 5.19381 63.0332 5.35563 62.8714C5.51745 62.7096 5.60835 62.4901 5.60835 62.2613C5.60835 62.0324 5.51745 61.813 5.35563 61.6512C5.19381 61.4893 4.97435 61.3984 4.7455 61.3984Z" fill="#2D4356"/>
<path d="M50.9741 64.8496H47.39C47.1731 64.867 46.9707 64.9654 46.8231 65.1253C46.6755 65.2852 46.5935 65.4949 46.5935 65.7125C46.5935 65.9301 46.6755 66.1397 46.8231 66.2996C46.9707 66.4595 47.1731 66.5579 47.39 66.5753H50.9741C51.1911 66.5579 51.3935 66.4595 51.5411 66.2996C51.6887 66.1397 51.7706 65.9301 51.7706 65.7125C51.7706 65.4949 51.6887 65.2852 51.5411 65.1253C51.3935 64.9654 51.1911 64.867 50.9741 64.8496ZM25.0887 64.8496H21.5045C21.2876 64.867 21.0852 64.9654 20.9376 65.1253C20.79 65.2852 20.708 65.4949 20.708 65.7125C20.708 65.9301 20.79 66.1397 20.9376 66.2996C21.0852 66.4595 21.2876 66.5579 21.5045 66.5753H25.0887C25.3056 66.5579 25.508 66.4595 25.6556 66.2996C25.8032 66.1397 25.8851 65.9301 25.8851 65.7125C25.8851 65.4949 25.8032 65.2852 25.6556 65.1253C25.508 64.9654 25.3056 64.867 25.0887 64.8496ZM44.8678 64.8496H27.6108C27.382 64.8496 27.1625 64.9405 27.0007 65.1023C26.8389 65.2641 26.748 65.4836 26.748 65.7125C26.748 65.9413 26.8389 66.1608 27.0007 66.3226C27.1625 66.4844 27.382 66.5753 27.6108 66.5753H34.4877V67.4382H31.0622C30.8334 67.4382 30.6139 67.5291 30.4521 67.6909C30.2903 67.8527 30.1994 68.0722 30.1994 68.301C30.1994 68.5299 30.2903 68.7493 30.4521 68.9111C30.6139 69.073 30.8334 69.1639 31.0622 69.1639H41.8478C42.0767 69.1639 42.2962 69.073 42.458 68.9111C42.6198 68.7493 42.7107 68.5299 42.7107 68.301C42.7107 68.0722 42.6198 67.8527 42.458 67.6909C42.2962 67.5291 42.0767 67.4382 41.8478 67.4382H37.9909V66.5753H44.8678C45.0967 66.5753 45.3161 66.4844 45.4779 66.3226C45.6398 66.1608 45.7307 65.9413 45.7307 65.7125C45.7307 65.4836 45.6398 65.2641 45.4779 65.1023C45.3161 64.9405 45.0967 64.8496 44.8678 64.8496Z" fill="#1E83E6"/>
<path d="M0.86285 63.1241C1.33939 63.1241 1.7257 62.7378 1.7257 62.2613C1.7257 61.7847 1.33939 61.3984 0.86285 61.3984C0.386311 61.3984 0 61.7847 0 62.2613C0 62.7378 0.386311 63.1241 0.86285 63.1241Z" fill="#2D4356"/>
<path d="M4.7455 61.3984H3.45123C3.22239 61.3984 3.00292 61.4893 2.8411 61.6512C2.67929 61.813 2.58838 62.0324 2.58838 62.2613C2.58838 62.4901 2.67929 62.7096 2.8411 62.8714C3.00292 63.0332 3.22239 63.1241 3.45123 63.1241H4.7455C4.97435 63.1241 5.19381 63.0332 5.35563 62.8714C5.51745 62.7096 5.60835 62.4901 5.60835 62.2613C5.60835 62.0324 5.51745 61.813 5.35563 61.6512C5.19381 61.4893 4.97435 61.3984 4.7455 61.3984Z" fill="#2D4356"/>
<path d="M50.9741 64.8496H47.39C47.1731 64.867 46.9707 64.9654 46.8231 65.1253C46.6755 65.2852 46.5935 65.4949 46.5935 65.7125C46.5935 65.9301 46.6755 66.1397 46.8231 66.2996C46.9707 66.4595 47.1731 66.5579 47.39 66.5753H50.9741C51.1911 66.5579 51.3935 66.4595 51.5411 66.2996C51.6887 66.1397 51.7706 65.9301 51.7706 65.7125C51.7706 65.4949 51.6887 65.2852 51.5411 65.1253C51.3935 64.9654 51.1911 64.867 50.9741 64.8496ZM25.0887 64.8496H21.5045C21.2876 64.867 21.0852 64.9654 20.9376 65.1253C20.79 65.2852 20.708 65.4949 20.708 65.7125C20.708 65.9301 20.79 66.1397 20.9376 66.2996C21.0852 66.4595 21.2876 66.5579 21.5045 66.5753H25.0887C25.3056 66.5579 25.508 66.4595 25.6556 66.2996C25.8032 66.1397 25.8851 65.9301 25.8851 65.7125C25.8851 65.4949 25.8032 65.2852 25.6556 65.1253C25.508 64.9654 25.3056 64.867 25.0887 64.8496ZM44.8678 64.8496H27.6108C27.382 64.8496 27.1625 64.9405 27.0007 65.1023C26.8389 65.2641 26.748 65.4836 26.748 65.7125C26.748 65.9413 26.8389 66.1608 27.0007 66.3226C27.1625 66.4844 27.382 66.5753 27.6108 66.5753H34.4877V67.4382H31.0622C30.8334 67.4382 30.6139 67.5291 30.4521 67.6909C30.2903 67.8527 30.1994 68.0722 30.1994 68.301C30.1994 68.5299 30.2903 68.7493 30.4521 68.9111C30.6139 69.073 30.8334 69.1639 31.0622 69.1639H41.8478C42.0767 69.1639 42.2962 69.073 42.458 68.9111C42.6198 68.7493 42.7107 68.5299 42.7107 68.301C42.7107 68.0722 42.6198 67.8527 42.458 67.6909C42.2962 67.5291 42.0767 67.4382 41.8478 67.4382H37.9909V66.5753H44.8678C45.0967 66.5753 45.3161 66.4844 45.4779 66.3226C45.6398 66.1608 45.7307 65.9413 45.7307 65.7125C45.7307 65.4836 45.6398 65.2641 45.4779 65.1023C45.3161 64.9405 45.0967 64.8496 44.8678 64.8496Z" fill="#1E83E6"/>
<path d="M39.5165 47.9928C39.7294 47.9926 39.9348 47.9137 40.093 47.7712C40.2513 47.6288 40.3513 47.4329 40.3738 47.2212C40.3964 47.0094 40.3398 46.7969 40.2151 46.6243C40.0903 46.4518 39.9062 46.3314 39.6981 46.2864C39.1559 46.1693 38.7952 46.1213 38.7801 46.1192C38.5537 46.0905 38.3252 46.1526 38.1445 46.2919C37.9638 46.4312 37.8457 46.6365 37.816 46.8627C37.7862 47.0889 37.8473 47.3177 37.9858 47.499C38.1243 47.6803 38.329 47.7993 38.5551 47.8301C38.558 47.8306 38.8664 47.8723 39.3332 47.9734C39.3935 47.9862 39.4549 47.9927 39.5165 47.9928ZM44.7787 52.6453C44.6786 52.5921 44.569 52.5592 44.4561 52.5485C44.3433 52.5377 44.2294 52.5493 44.121 52.5826C44.0127 52.6159 43.912 52.6703 43.8246 52.7426C43.7373 52.8148 43.6651 52.9036 43.6121 53.0039C43.3342 53.5117 43.0057 53.9902 42.6317 54.4321C42.5592 54.5193 42.5045 54.62 42.471 54.7283C42.4374 54.8367 42.4255 54.9506 42.436 55.0636C42.4465 55.1765 42.4792 55.2863 42.5321 55.3866C42.5851 55.4869 42.6574 55.5758 42.7447 55.6481C42.8321 55.7205 42.9329 55.7749 43.0413 55.8083C43.1497 55.8416 43.2637 55.8533 43.3766 55.8425C43.4895 55.8318 43.5992 55.7989 43.6994 55.7457C43.7996 55.6925 43.8884 55.6201 43.9605 55.5326C44.4098 55.0002 44.8041 54.4237 45.1373 53.8119C45.2443 53.6097 45.2666 53.3732 45.1994 53.1544C45.1322 52.9357 44.9809 52.7526 44.7787 52.6453Z" fill="#2D4356"/>
<path d="M39.0544 59.6848C39.24 59.685 39.4207 59.625 39.5693 59.5138C40.1199 59.103 40.6377 58.6973 41.1087 58.308C41.2841 58.1618 41.3943 57.952 41.4153 57.7247C41.4363 57.4973 41.3663 57.2709 41.2208 57.0951C41.0752 56.9192 40.8659 56.8081 40.6386 56.7863C40.4114 56.7644 40.1847 56.8335 40.0083 56.9784C39.56 57.3495 39.065 57.7371 38.5379 58.1302C38.3925 58.2386 38.2849 58.3901 38.2305 58.5631C38.1761 58.7362 38.1775 58.9219 38.2347 59.0941C38.2919 59.2662 38.4019 59.4159 38.5491 59.522C38.6962 59.6281 38.873 59.685 39.0544 59.6849L39.0544 59.6848ZM42.6099 49.2114C43.0545 49.4765 43.4385 49.832 43.7369 50.255C43.8628 50.4455 44.0592 50.5784 44.2829 50.6244C44.5066 50.6704 44.7394 50.6259 44.9303 50.5005C45.1212 50.3752 45.2546 50.1792 45.3013 49.9557C45.348 49.7321 45.3042 49.4992 45.1795 49.3079C44.7476 48.68 44.1874 48.1508 43.5359 47.7554C43.4403 47.6943 43.3336 47.6526 43.2219 47.6328C43.1101 47.613 42.9956 47.6154 42.8848 47.6399C42.774 47.6645 42.6692 47.7106 42.5762 47.7757C42.4833 47.8408 42.4041 47.9236 42.3432 48.0193C42.2824 48.1151 42.2409 48.2219 42.2214 48.3337C42.2018 48.4454 42.2045 48.5599 42.2293 48.6707C42.254 48.7814 42.3004 48.8862 42.3657 48.979C42.431 49.0717 42.514 49.1507 42.6099 49.2114L42.6099 49.2114ZM43.5619 16.5926C42.833 16.1327 41.9988 15.8663 41.1383 15.8184C40.62 15.8119 40.1115 15.9603 39.678 16.2444L37.1771 17.9241L33.3701 15.6104C33.0341 15.4062 32.6383 15.3228 32.2485 15.3742C31.8586 15.4255 31.4979 15.6085 31.2262 15.8928C30.9545 16.1771 30.7881 16.5456 30.7544 16.9375C30.7208 17.3293 30.822 17.7208 31.0412 18.0473L32.9952 20.9565L31.9649 21.7568C31.0673 21.5895 30.1398 21.7813 29.3822 22.2911C29.1941 22.4175 29.0327 22.5796 28.9072 22.7684C28.7818 22.9571 28.6947 23.1687 28.651 23.3911C28.6073 23.6134 28.6079 23.8422 28.6526 24.0644C28.6973 24.2866 28.7854 24.4977 28.9118 24.6859L31.3225 28.2753C31.4488 28.4634 31.611 28.6248 31.7997 28.7503C31.9884 28.8757 32.2 28.9628 32.4224 29.0065C32.6448 29.0501 32.8736 29.0496 33.0958 29.0049C33.3179 28.9601 33.5291 28.8721 33.7172 28.7457C34.4764 28.2374 35.0053 27.4511 35.1899 26.5564L36.3194 25.9061L38.2733 28.8154C38.4925 29.1419 38.8167 29.3837 39.1921 29.5007C39.5675 29.6178 39.9717 29.6031 40.3376 29.4592C40.7036 29.3152 41.0094 29.0506 41.2044 28.7091C41.3994 28.3677 41.472 27.9698 41.4101 27.5815L40.7085 23.1822L43.2094 21.5025C43.7313 21.152 44.366 20.4276 44.4257 18.9673C44.4409 18.5688 44.4177 18.1696 44.3564 17.7755C44.3158 17.5331 44.224 17.3022 44.087 17.0982C43.9499 16.8942 43.7709 16.7218 43.5619 16.5926ZM42.7014 18.8968C42.717 19.1138 42.6843 19.3315 42.6058 19.5343C42.5272 19.7371 42.4048 19.92 42.2472 20.07L38.8306 22.3646L39.7059 27.8533L36.8541 23.607L33.5043 25.5356C33.5672 25.8727 33.5298 26.2208 33.3966 26.5369C33.2634 26.8529 33.0403 27.1228 32.7551 27.3131L30.3444 23.7237C30.7287 23.4646 31.1998 23.3678 31.6551 23.4545C31.8754 23.4958 32.0855 23.5801 32.2732 23.7026L35.3257 21.3313L32.4739 17.0851L37.2234 19.9717L40.6401 17.677C40.7892 17.584 40.9627 17.5377 41.1383 17.5441C41.6761 17.5998 42.1944 17.7762 42.6544 18.0603C42.6957 18.3371 42.7115 18.6171 42.7014 18.8968Z" fill="#1E83E6"/>
<path d="M69.0282 61.3984H67.7339C67.5051 61.3984 67.2856 61.4893 67.1238 61.6512C66.962 61.813 66.8711 62.0324 66.8711 62.2613C66.8711 62.4901 66.962 62.7096 67.1238 62.8714C67.2856 63.0332 67.5051 63.1241 67.7339 63.1241H69.0282C69.2571 63.1241 69.4765 63.0332 69.6383 62.8714C69.8002 62.7096 69.8911 62.4901 69.8911 62.2613C69.8911 62.0324 69.8002 61.813 69.6383 61.6512C69.4765 61.4893 69.2571 61.3984 69.0282 61.3984Z" fill="#2D4356"/>
<path d="M71.6168 63.1241C72.0933 63.1241 72.4796 62.7378 72.4796 62.2613C72.4796 61.7847 72.0933 61.3984 71.6168 61.3984C71.1402 61.3984 70.7539 61.7847 70.7539 62.2613C70.7539 62.7378 71.1402 63.1241 71.6168 63.1241Z" fill="#2D4356"/>
<path d="M65.0247 61.4004H63.066C64.2697 58.1604 64.0885 55.2828 62.5181 52.8409C62.03 52.093 61.447 51.4114 60.7838 50.8132C62.6778 47.1345 63.7205 43.077 63.8349 38.9409C63.9493 34.8048 63.1324 30.6959 61.4446 26.9181C59.7568 23.1404 57.2413 19.7903 54.0842 17.1158C50.9271 14.4413 47.2091 12.5108 43.2053 11.467C39.2014 10.4232 35.0141 10.2928 30.9531 11.0856C26.8921 11.8784 23.0612 13.5739 19.7439 16.0469C16.4266 18.5199 13.7076 21.707 11.7881 25.3725C9.86867 29.038 8.79779 33.0881 8.65472 37.2233C8.62811 37.3322 8.62517 37.4455 8.64609 37.5555C8.6418 37.7669 8.62883 37.974 8.62883 38.1854C8.62436 44.4586 10.7681 50.5441 14.7033 55.4295L9.24577 57.0387C9.02608 57.1039 8.8413 57.2537 8.73207 57.4552C8.62285 57.6567 8.59812 57.8932 8.66334 58.1129C8.72856 58.3326 8.87838 58.5174 9.07985 58.6266C9.28131 58.7359 9.5179 58.7606 9.73759 58.6954L26.3863 53.7728C33.6601 51.6459 35.7353 50.0927 36.1796 48.8546C37.1158 49.4456 37.2884 49.959 37.3013 50.2351C37.4178 53.3716 24.9971 58.6263 16.1399 61.3573C16.1054 61.3702 16.0709 61.3875 16.0407 61.4004H7.45536C7.33255 61.3843 7.20771 61.3945 7.08919 61.4305C6.97066 61.4665 6.86119 61.5273 6.76807 61.609C6.67495 61.6907 6.60035 61.7913 6.54923 61.9041C6.49812 62.0169 6.47168 62.1394 6.47168 62.2632C6.47168 62.3871 6.49812 62.5095 6.54923 62.6224C6.60035 62.7352 6.67495 62.8358 6.76807 62.9175C6.86119 62.9992 6.97066 63.06 7.08919 63.096C7.20771 63.132 7.33255 63.1422 7.45536 63.1261H65.0247C65.1475 63.1422 65.2723 63.132 65.3909 63.096C65.5094 63.06 65.6189 62.9992 65.712 62.9175C65.8051 62.8358 65.8797 62.7352 65.9308 62.6224C65.9819 62.5095 66.0084 62.3871 66.0084 62.2632C66.0084 62.1394 65.9819 62.0169 65.9308 61.9041C65.8797 61.7913 65.8051 61.6907 65.712 61.609C65.6189 61.5273 65.5094 61.4665 65.3909 61.4305C65.2723 61.3945 65.1475 61.3843 65.0247 61.4004ZM25.8988 52.1204L16.4894 54.8988C12.5224 50.2342 10.3474 44.3088 10.3545 38.1854C10.3545 38.0689 10.3632 37.9525 10.3632 37.8403L14.3797 34.8505L16.0407 33.6166L22.1799 29.0478L27.4433 33.7072L28.9144 35.0101L37.1288 42.2796C37.2849 42.4208 37.4877 42.4992 37.6982 42.4997C37.8733 42.4993 38.0441 42.4457 38.1881 42.3462C38.3321 42.2466 38.4425 42.1057 38.5046 41.9421C38.5668 41.7784 38.5779 41.5998 38.5363 41.4297C38.4948 41.2597 38.4027 41.1062 38.272 40.9897L35.4635 38.5003L39.6224 35.3725L41.2273 34.1645L45.6149 30.8641L50.5935 34.2594L52.3063 35.4286L58.7086 39.7946C58.851 39.8921 59.0193 39.9447 59.1918 39.9456C59.3761 39.9446 59.5553 39.8848 59.7033 39.775C59.8513 39.6652 59.9604 39.511 60.0147 39.3349C60.0691 39.1588 60.0659 38.97 60.0056 38.7958C59.9453 38.6217 59.831 38.4713 59.6793 38.3666L46.0765 29.091C45.9274 28.9899 45.7506 28.9377 45.5705 28.9416C45.3904 28.9455 45.2159 29.0052 45.0713 29.1125L34.1433 37.3355L22.8011 27.2919C22.6528 27.1607 22.4639 27.0843 22.2659 27.0757C22.068 27.067 21.8732 27.1266 21.714 27.2445L10.484 35.5969C10.8637 31.8221 12.0685 28.1771 14.0131 24.9196C15.9577 21.6621 18.5945 18.8718 21.7369 16.7464C24.8793 14.6209 28.4506 13.2121 32.1978 12.6197C35.945 12.0273 39.7766 12.2658 43.4215 13.3184C47.0663 14.3709 50.4352 16.2117 53.2898 18.7105C56.1443 21.2093 58.4148 24.3051 59.9403 27.7786C61.4659 31.2521 62.2094 35.0184 62.118 38.8111C62.0267 42.6037 61.1029 46.33 59.4119 49.726C54.0665 45.9899 44.8858 44.6395 37.3962 44.2038C35.9251 44.1175 30.5409 43.932 25.2775 44.2038C25.1528 44.2143 25.0317 44.2515 24.9226 44.3127C24.8134 44.374 24.7186 44.4579 24.6446 44.5589C24.5706 44.6599 24.5191 44.7756 24.4936 44.8981C24.4681 45.0207 24.4691 45.1473 24.4966 45.2694C24.5318 45.4279 24.612 45.5729 24.7275 45.6869C24.8431 45.8009 24.9891 45.8792 25.1481 45.9122L31.6238 47.2238C32.5807 47.4331 33.5232 47.704 34.4453 48.0348C34.496 48.0859 34.5343 48.1478 34.5574 48.216C34.5532 48.229 34.4367 49.6225 25.8988 52.1204ZM50.4167 61.4004H36.6499C36.7229 61.2662 36.7582 61.1147 36.7521 60.9621C36.746 60.8094 36.6988 60.6612 36.6154 60.5332C36.5544 60.4378 36.4751 60.3554 36.3822 60.2908C36.2892 60.2261 36.1844 60.1804 36.0738 60.1564C35.9631 60.1323 35.8488 60.1303 35.7374 60.1506C35.626 60.1709 35.5197 60.2129 35.4246 60.2744C35.1874 60.4254 34.9501 60.5764 34.7042 60.7317C34.5898 60.8042 34.494 60.9024 34.4243 61.0185C34.3546 61.1346 34.3131 61.2654 34.3029 61.4004H21.4724C28.332 58.9585 39.1823 54.4199 39.0227 50.1747C38.9666 48.6432 37.681 47.4179 35.1097 46.4472C34.7224 46.1972 34.3122 45.9848 33.8844 45.813C35.4807 45.8432 36.7103 45.8907 37.297 45.9252C40.7182 46.1279 44.0833 46.348 47.3449 47.474C49.8342 48.3282 52.6601 49.5491 54.2952 51.7149C54.6667 52.1934 54.9408 52.7401 55.1019 53.3241C55.6887 55.6107 54.1096 58.3287 50.4167 61.4004ZM61.3792 60.9905C61.3305 61.1213 61.3128 61.2616 61.3274 61.4004H53.0095C56.1762 58.3588 57.4446 55.5028 56.7759 52.8927C56.3487 51.2403 55.1796 49.89 53.7171 48.8071C57.2763 50.0971 59.7786 51.771 61.0685 53.7728C62.3758 55.8091 62.475 58.169 61.3792 60.9905Z" fill="#2D4356"/>
<path d="M28.9141 35.0103L26.9597 35.7135C26.7717 35.7826 26.5653 35.7826 26.3773 35.7135L24.2677 34.9543L22.158 35.7135C21.97 35.7826 21.7636 35.7826 21.5756 35.7135L19.4659 34.9543L17.3605 35.7135C17.1711 35.7826 16.9633 35.7826 16.7738 35.7135L14.3794 34.8507L16.0404 33.6168L17.0672 33.9835L19.1768 33.2285C19.3648 33.1595 19.5713 33.1595 19.7593 33.2285L21.8646 33.9835L23.9743 33.2285C24.1623 33.1595 24.3687 33.1595 24.5567 33.2285L26.6664 33.9835L27.4429 33.7074L28.9141 35.0103ZM52.306 35.4288L50.5803 36.132C50.3702 36.2183 50.1346 36.2183 49.9245 36.132L48.1384 35.4029L46.3523 36.132C46.1422 36.2183 45.9066 36.2183 45.6965 36.132L43.9147 35.4029L42.1286 36.132C41.9201 36.2183 41.6858 36.2183 41.4772 36.132L39.6221 35.3727L41.227 34.1647L41.8008 34.402L43.5869 33.6729C43.7954 33.5866 44.0297 33.5866 44.2383 33.6729L46.0244 34.402L47.8105 33.6729C48.0206 33.5866 48.2562 33.5866 48.4663 33.6729L50.2524 34.402L50.5932 34.2597L52.306 35.4288Z" fill="#1E83E6"/>
<path d="M23.2969 8.84817C23.5529 8.84817 23.8031 8.77226 24.016 8.63004C24.2288 8.48783 24.3947 8.28569 24.4927 8.04919C24.5906 7.81269 24.6163 7.55246 24.5663 7.30139C24.5164 7.05033 24.3931 6.81971 24.2121 6.6387C24.0311 6.4577 23.8005 6.33443 23.5494 6.28449C23.2984 6.23455 23.0381 6.26018 22.8016 6.35814C22.5651 6.4561 22.363 6.62199 22.2208 6.83483C22.0786 7.04768 22.0027 7.29791 22.0027 7.55389C22.003 7.89704 22.1395 8.22601 22.3822 8.46865C22.6248 8.71129 22.9538 8.84778 23.2969 8.84817ZM23.2969 6.90676C23.4249 6.90676 23.55 6.94471 23.6565 7.01582C23.7629 7.08693 23.8458 7.188 23.8948 7.30625C23.9438 7.42449 23.9566 7.55461 23.9316 7.68014C23.9067 7.80568 23.845 7.92099 23.7545 8.01149C23.664 8.10199 23.5487 8.16363 23.4232 8.1886C23.2976 8.21357 23.1675 8.20075 23.0493 8.15177C22.931 8.10279 22.83 8.01985 22.7589 7.91342C22.6877 7.807 22.6498 7.68189 22.6498 7.55389C22.65 7.38231 22.7182 7.21781 22.8395 7.09649C22.9608 6.97516 23.1253 6.90693 23.2969 6.90676ZM57.5702 14.0403C57.3995 14.0403 57.2327 14.0909 57.0908 14.1857C56.9489 14.2805 56.8383 14.4153 56.773 14.5729C56.7077 14.7306 56.6906 14.9041 56.7239 15.0715C56.7572 15.2388 56.8394 15.3926 56.9601 15.5133C57.0807 15.6339 57.2345 15.7161 57.4019 15.7494C57.5692 15.7827 57.7427 15.7656 57.9004 15.7003C58.058 15.635 58.1928 15.5244 58.2876 15.3825C58.3824 15.2406 58.433 15.0738 58.433 14.9031C58.4328 14.6744 58.3418 14.4551 58.18 14.2933C58.0183 14.1315 57.7989 14.0406 57.5702 14.0403ZM57.5702 15.3346C57.4849 15.3346 57.4014 15.3093 57.3305 15.2619C57.2596 15.2145 57.2043 15.1471 57.1716 15.0682C57.139 14.9894 57.1304 14.9027 57.147 14.819C57.1637 14.7353 57.2048 14.6584 57.2651 14.5981C57.3255 14.5377 57.4023 14.4967 57.486 14.48C57.5697 14.4634 57.6564 14.4719 57.7353 14.5046C57.8141 14.5372 57.8815 14.5925 57.9289 14.6635C57.9763 14.7344 58.0016 14.8178 58.0016 14.9031C58.0015 15.0175 57.956 15.1272 57.8751 15.2081C57.7942 15.289 57.6846 15.3345 57.5702 15.3346ZM8.32851 0.137695C8.15786 0.137695 7.99103 0.188301 7.84914 0.283112C7.70724 0.377923 7.59665 0.512682 7.53134 0.670347C7.46604 0.828012 7.44895 1.0015 7.48224 1.16888C7.51553 1.33626 7.59771 1.49 7.71839 1.61067C7.83906 1.73134 7.9928 1.81352 8.16018 1.84682C8.32755 1.88011 8.50104 1.86302 8.65871 1.79771C8.81637 1.73241 8.95113 1.62181 9.04595 1.47992C9.14076 1.33802 9.19136 1.1712 9.19136 1.00055C9.1911 0.771783 9.10011 0.552466 8.93835 0.390707C8.77659 0.228948 8.55727 0.137957 8.32851 0.137695ZM8.32851 1.43197C8.24318 1.43197 8.15977 1.40667 8.08882 1.35926C8.01788 1.31186 7.96258 1.24448 7.92993 1.16564C7.89727 1.08681 7.88873 1.00007 7.90538 0.916378C7.92202 0.83269 7.96311 0.755818 8.02345 0.695482C8.08378 0.635146 8.16066 0.594057 8.24434 0.57741C8.32803 0.560763 8.41478 0.569307 8.49361 0.60196C8.57244 0.634614 8.63982 0.689911 8.68723 0.760858C8.73463 0.831806 8.75994 0.915217 8.75994 1.00055C8.75982 1.11493 8.71433 1.2246 8.63345 1.30548C8.55257 1.38637 8.4429 1.43186 8.32851 1.43197ZM68.2966 1.86339C68.1259 1.86339 67.9591 1.914 67.8172 2.00881C67.6753 2.10362 67.5647 2.23838 67.4994 2.39605C67.4341 2.55371 67.417 2.7272 67.4503 2.89458C67.4836 3.06196 67.5658 3.2157 67.6865 3.33637C67.8071 3.45704 67.9609 3.53922 68.1283 3.57252C68.2956 3.60581 68.4691 3.58872 68.6268 3.52341C68.7844 3.45811 68.9192 3.34751 69.014 3.20562C69.1088 3.06372 69.1594 2.8969 69.1594 2.72624C69.1592 2.49748 69.0682 2.27817 68.9064 2.11641C68.7447 1.95465 68.5253 1.86366 68.2966 1.86339ZM68.2966 3.15767C68.2113 3.15767 68.1278 3.13237 68.0569 3.08496C67.986 3.03756 67.9306 2.97018 67.898 2.89134C67.8653 2.81251 67.8568 2.72577 67.8734 2.64208C67.8901 2.55839 67.9312 2.48152 67.9915 2.42118C68.0519 2.36085 68.1287 2.31976 68.2124 2.30311C68.2961 2.28646 68.3828 2.29501 68.4617 2.32766C68.5405 2.36031 68.6079 2.41561 68.6553 2.48656C68.7027 2.55751 68.728 2.64092 68.728 2.72624C68.7279 2.84063 68.6824 2.9503 68.6015 3.03118C68.5206 3.11207 68.411 3.15756 68.2966 3.15767ZM7.89709 24.7461C7.89709 24.5754 7.84648 24.4086 7.75167 24.2667C7.65686 24.1248 7.5221 24.0142 7.36443 23.9489C7.20677 23.8836 7.03328 23.8665 6.8659 23.8998C6.69853 23.9331 6.54478 24.0153 6.42411 24.1359C6.30344 24.2566 6.22126 24.4104 6.18797 24.5777C6.15467 24.7451 6.17176 24.9186 6.23707 25.0763C6.30237 25.2339 6.41297 25.3687 6.55486 25.4635C6.69676 25.5583 6.86358 25.6089 7.03424 25.6089C7.263 25.6087 7.48232 25.5177 7.64408 25.3559C7.80583 25.1941 7.89683 24.9748 7.89709 24.7461ZM6.60281 24.7461C6.60281 24.6607 6.62811 24.5773 6.67552 24.5064C6.72293 24.4354 6.79031 24.3801 6.86914 24.3475C6.94797 24.3148 7.03472 24.3063 7.1184 24.3229C7.20209 24.3396 7.27896 24.3807 7.3393 24.441C7.39964 24.5013 7.44073 24.5782 7.45737 24.6619C7.47402 24.7456 7.46548 24.8323 7.43282 24.9112C7.40017 24.99 7.34487 25.0574 7.27392 25.1048C7.20298 25.1522 7.11956 25.1775 7.03424 25.1775C6.91985 25.1774 6.81018 25.1319 6.7293 25.051C6.64842 24.9701 6.60293 24.8604 6.60281 24.7461Z" fill="#2D4356"/>
<path d="M2.76773 13.613L3.40926 12.7696L3.00415 12.54L2.59257 13.4849H2.57877L2.16072 12.5465L1.74828 12.7829L2.38333 13.6065V13.6199L1.39062 13.4918V13.9508L2.38981 13.8227V13.836L1.74828 14.6592L2.13311 14.9025L2.5723 13.9508H2.58524L2.99035 14.8956L3.41573 14.6527L2.76773 13.8425V13.8291L3.78676 13.9508V13.4918L2.76773 13.6268V13.613Z" fill="#1E83E6"/>
<path d="M35.3275 1.49734L34.9582 1.97148L35.1795 2.11126L35.4327 1.56292H35.4401L35.6735 2.10738L35.9185 1.96759L35.5453 1.50079V1.49303L36.1321 1.56292V1.29889L35.5453 1.37654V1.36878L35.9146 0.882993L35.6812 0.750977L35.4444 1.295H35.4362L35.1955 0.754428L34.9582 0.890758L35.3236 1.36489V1.37266L34.752 1.29889V1.56292L35.3275 1.48958V1.49734Z" fill="#1E83E6"/>
<path d="M69.472 25.8328V25.3828L68.4724 25.5153V25.5019L69.1014 24.6744L68.704 24.4492L68.3002 25.3759H68.2869L67.8766 24.4557L67.4723 24.6878L68.0949 25.4954V25.5088L67.1216 25.3828V25.8328L68.1014 25.7073V25.7206L67.4723 26.5283L67.8498 26.7668L68.2804 25.8328H68.2933L68.6907 26.7599L69.1079 26.5218L68.4724 25.7271V25.7137L69.472 25.8328Z" fill="#1E83E6"/>
<path d="M54.1746 0.907718L54.7173 0.194141L54.3747 0L54.0261 0.79943H54.0145L53.6607 0.00560853L53.3121 0.205358L53.8493 0.90211V0.913758L53.0093 0.805039V1.19332L53.8549 1.08503V1.09625L53.3121 1.793L53.6374 1.99879L54.0089 1.19332H54.0201L54.3631 1.99318L54.7229 1.78739L54.1746 1.10186V1.09064L55.037 1.19332V0.805039L54.1746 0.919367V0.907718Z" fill="#1E83E6"/>
</svg>
