<svg width="64" height="58" viewBox="0 0 64 58" fill="none" xmlns="http://www.w3.org/2000/svg">
<path d="M42.807 31.0132C42.4728 29.9052 41.7981 28.9307 40.8787 28.2278C39.9593 27.5249 38.8418 27.1294 37.685 27.0975C37.2666 26.076 36.5518 25.2032 35.6327 24.5918C34.7137 23.9803 33.6325 23.6581 32.5287 23.6668C31.4248 23.6755 30.3489 24.0147 29.4396 24.6406C28.5303 25.2664 27.8294 26.1504 27.4271 27.1783C26.0989 26.9451 24.7313 27.2065 23.5827 27.9131C22.4341 28.6197 21.5841 29.7226 21.1933 31.0132C19.8504 31.2843 18.6561 32.0446 17.8423 33.1467C17.0285 34.2488 16.6533 35.614 16.7894 36.9772C16.9256 38.3404 17.5634 39.6044 18.5791 40.5238C19.5948 41.4431 20.9159 41.9523 22.2859 41.9524H26.6668V40.4286H22.2859C21.225 40.4286 20.2076 40.0071 19.4575 39.257C18.7073 38.5068 18.2859 37.4894 18.2859 36.4286C18.2859 35.3677 18.7073 34.3503 19.4575 33.6001C20.2076 32.85 21.225 32.4286 22.2859 32.4286C22.3533 32.4286 22.4189 32.4353 22.4855 32.4386C22.5152 31.7428 22.7265 31.0669 23.0984 30.4781C23.4704 29.8893 23.9899 29.4081 24.6055 29.0824C25.221 28.7566 25.9111 28.5977 26.6072 28.6213C27.3032 28.645 27.9809 28.8504 28.5729 29.2172C28.5729 29.2082 28.5716 29.1995 28.5716 29.1905C28.5714 28.1683 28.9626 27.1849 29.6649 26.4422C30.3671 25.6995 31.3271 25.2538 32.3476 25.1968C33.3682 25.1397 34.3718 25.4756 35.1525 26.1354C35.9331 26.7952 36.4315 27.7289 36.5453 28.7447C37.1202 28.5967 37.721 28.5792 38.3035 28.6934C38.8861 28.8077 39.4357 29.0508 39.9122 29.4049C40.3886 29.7591 40.7798 30.2153 41.0571 30.7402C41.3344 31.2652 41.4908 31.8455 41.5148 32.4386C41.5814 32.4353 41.647 32.4286 41.7144 32.4286C42.7753 32.4286 43.7927 32.85 44.5428 33.6001C45.293 34.3503 45.7144 35.3677 45.7144 36.4286C45.7144 37.4894 45.293 38.5068 44.5428 39.257C43.7927 40.0071 42.7753 40.4286 41.7144 40.4286H37.3335V41.9524H41.7144C43.0844 41.9523 44.4055 41.4431 45.4212 40.5238C46.4369 39.6044 47.0748 38.3404 47.2109 36.9772C47.3471 35.614 46.9718 34.2488 46.158 33.1467C45.3442 32.0446 44.1499 31.2843 42.807 31.0132Z" fill="#1E83E6"/>
<path d="M0.761905 52.2387C1.18269 52.2387 1.52381 51.8975 1.52381 51.4768C1.52381 51.056 1.18269 50.7149 0.761905 50.7149C0.341116 50.7149 0 51.056 0 51.4768C0 51.8975 0.341116 52.2387 0.761905 52.2387Z" fill="#2D4356"/>
<path d="M4.19091 50.7149H3.04805C2.84598 50.7149 2.65219 50.7951 2.5093 50.938C2.36642 51.0809 2.28614 51.2747 2.28614 51.4768C2.28614 51.6788 2.36642 51.8726 2.5093 52.0155C2.65219 52.1584 2.84598 52.2387 3.04805 52.2387H4.19091C4.39298 52.2387 4.58677 52.1584 4.72965 52.0155C4.87254 51.8726 4.95281 51.6788 4.95281 51.4768C4.95281 51.2747 4.87254 51.0809 4.72965 50.938C4.58677 50.7951 4.39298 50.7149 4.19091 50.7149ZM60.9528 50.7149H59.81C59.6079 50.7149 59.4141 50.7951 59.2712 50.938C59.1283 51.0809 59.048 51.2747 59.048 51.4768C59.048 51.6788 59.1283 51.8726 59.2712 52.0155C59.4141 52.1584 59.6079 52.2387 59.81 52.2387H60.9528C61.1549 52.2387 61.3487 52.1584 61.4916 52.0155C61.6344 51.8726 61.7147 51.6788 61.7147 51.4768C61.7147 51.2747 61.6344 51.0809 61.4916 50.938C61.3487 50.7951 61.1549 50.7149 60.9528 50.7149Z" fill="#2D4356"/>
<path d="M63.2378 52.2387C63.6586 52.2387 63.9997 51.8975 63.9997 51.4768C63.9997 51.056 63.6586 50.7149 63.2378 50.7149C62.817 50.7149 62.4759 51.056 62.4759 51.4768C62.4759 51.8975 62.817 52.2387 63.2378 52.2387Z" fill="#2D4356"/>
<path d="M45.0114 53.7623H41.8466C41.6551 53.7776 41.4763 53.8646 41.346 54.0058C41.2157 54.1469 41.1433 54.3321 41.1433 54.5242C41.1433 54.7164 41.2157 54.9015 41.346 55.0426C41.4763 55.1838 41.6551 55.2708 41.8466 55.2861H45.0114C45.203 55.2708 45.3817 55.1838 45.512 55.0426C45.6424 54.9015 45.7147 54.7164 45.7147 54.5242C45.7147 54.3321 45.6424 54.1469 45.512 54.0058C45.3817 53.8646 45.203 53.7776 45.0114 53.7623ZM22.1543 53.7623H18.9894C18.7979 53.7776 18.6192 53.8646 18.4888 54.0058C18.3585 54.1469 18.2861 54.3321 18.2861 54.5242C18.2861 54.7164 18.3585 54.9015 18.4888 55.0426C18.6192 55.1838 18.7979 55.2708 18.9894 55.2861H22.1543C22.3458 55.2708 22.5246 55.1838 22.6549 55.0426C22.7852 54.9015 22.8576 54.7164 22.8576 54.5242C22.8576 54.3321 22.7852 54.1469 22.6549 54.0058C22.5246 53.8646 22.3458 53.7776 22.1543 53.7623ZM39.6195 53.7623H24.3814C24.1793 53.7623 23.9855 53.8426 23.8426 53.9855C23.6998 54.1283 23.6195 54.3221 23.6195 54.5242C23.6195 54.7263 23.6998 54.9201 23.8426 55.0629C23.9855 55.2058 24.1793 55.2861 24.3814 55.2861H30.4538V56.048H27.429C27.2269 56.048 27.0332 56.1283 26.8903 56.2712C26.7474 56.414 26.6671 56.6078 26.6671 56.8099C26.6671 57.012 26.7474 57.2058 26.8903 57.3487C27.0332 57.4915 27.2269 57.5718 27.429 57.5718H36.9528C37.1549 57.5718 37.3487 57.4915 37.4916 57.3487C37.6345 57.2058 37.7147 57.012 37.7147 56.8099C37.7147 56.6078 37.6345 56.414 37.4916 56.2712C37.3487 56.1283 37.1549 56.048 36.9528 56.048H33.5471V55.2861H39.6195C39.8216 55.2861 40.0154 55.2058 40.1582 55.0629C40.3011 54.9201 40.3814 54.7263 40.3814 54.5242C40.3814 54.3221 40.3011 54.1283 40.1582 53.9855C40.0154 53.8426 39.8216 53.7623 39.6195 53.7623Z" fill="#1E83E6"/>
<path d="M57.417 50.7144H37.7136V49.1906H54.0946C54.7006 49.19 55.2816 48.9489 55.7101 48.5204C56.1386 48.0919 56.3796 47.5109 56.3803 46.9049V22.5239C56.3796 21.9179 56.1386 21.3369 55.7101 20.9084C55.2816 20.4799 54.7006 20.2389 54.0946 20.2382H9.90407C9.29807 20.2389 8.71707 20.4799 8.28856 20.9084C7.86005 21.3369 7.61902 21.9179 7.61836 22.5239V46.9049C7.61902 47.5109 7.86005 48.0919 8.28856 48.5204C8.71707 48.9489 9.29807 49.19 9.90407 49.1906H26.285V50.7144H6.58167C6.47328 50.7003 6.36311 50.7094 6.25853 50.7412C6.15395 50.773 6.05736 50.8268 5.97521 50.8989C5.89306 50.971 5.82724 51.0598 5.78215 51.1594C5.73706 51.259 5.71374 51.367 5.71374 51.4763C5.71374 51.5856 5.73706 51.6937 5.78215 51.7933C5.82724 51.8929 5.89306 51.9817 5.97521 52.0538C6.05736 52.1259 6.15395 52.1797 6.25853 52.2115C6.36311 52.2433 6.47328 52.2524 6.58167 52.2382H57.417C57.5253 52.2524 57.6355 52.2433 57.7401 52.2115C57.8447 52.1797 57.9413 52.1259 58.0234 52.0538C58.1056 51.9817 58.1714 51.8929 58.2165 51.7933C58.2616 51.6937 58.2849 51.5856 58.2849 51.4763C58.2849 51.367 58.2616 51.259 58.2165 51.1594C58.1714 51.0598 58.1056 50.971 58.0234 50.8989C57.9413 50.8268 57.8447 50.773 57.7401 50.7412C57.6355 50.7094 57.5253 50.7003 57.417 50.7144ZM9.14217 22.5239C9.1424 22.322 9.22274 22.1283 9.36558 21.9855C9.50841 21.8426 9.70207 21.7623 9.90407 21.762H54.0946C54.2966 21.7623 54.4902 21.8426 54.633 21.9855C54.7759 22.1283 54.8562 22.322 54.8565 22.5239V44.6192H35.8088V38.7353L37.0728 37.518C37.5562 37.7606 38.1098 37.8244 38.6357 37.6982C39.1617 37.572 39.626 37.2638 39.9466 36.8283C40.2672 36.3927 40.4235 35.8578 40.3878 35.3181C40.352 34.7784 40.1266 34.2688 39.7513 33.8793C39.3761 33.4898 38.8751 33.2456 38.3372 33.1898C37.7992 33.134 37.2588 33.2703 36.8116 33.5745C36.3645 33.8787 36.0393 34.3313 35.8936 34.8521C35.7479 35.373 35.791 35.9286 36.0155 36.4207L34.5183 37.8625C34.4445 37.9335 34.3858 38.0188 34.3457 38.1131C34.3056 38.2074 34.285 38.3088 34.285 38.4112V44.6192H32.7612V34.5811C33.2696 34.4014 33.698 34.0477 33.9708 33.5826C34.2437 33.1176 34.3433 32.571 34.2521 32.0396C34.1609 31.5082 33.8848 31.0261 33.4726 30.6785C33.0603 30.331 32.5385 30.1404 31.9993 30.1404C31.4601 30.1404 30.9383 30.331 30.526 30.6785C30.1138 31.0261 29.8377 31.5082 29.7465 32.0396C29.6553 32.571 29.755 33.1176 30.0278 33.5826C30.3006 34.0477 30.7291 34.4014 31.2374 34.5811V44.6192H29.7136V38.4112C29.7136 38.3088 29.693 38.2074 29.6529 38.1131C29.6129 38.0188 29.5541 37.9335 29.4803 37.8625L27.9831 36.4207C28.208 35.9282 28.2514 35.372 28.1056 34.8506C27.9599 34.3291 27.6345 33.876 27.1869 33.5715C26.7393 33.2669 26.1984 33.1304 25.6598 33.1862C25.1213 33.242 24.6199 33.4864 24.2442 33.8763C23.8686 34.2662 23.6429 34.7764 23.6072 35.3166C23.5715 35.8568 23.7279 36.3923 24.049 36.8283C24.37 37.2642 24.8349 37.5726 25.3613 37.6988C25.8878 37.8251 26.442 37.761 26.9258 37.518L28.1898 38.7353V44.6192H9.14217V22.5239ZM37.3326 35.4763C37.3326 35.3256 37.3773 35.1783 37.461 35.053C37.5448 34.9277 37.6638 34.8301 37.803 34.7724C37.9422 34.7148 38.0954 34.6997 38.2432 34.7291C38.391 34.7585 38.5267 34.831 38.6333 34.9376C38.7399 35.0441 38.8124 35.1799 38.8418 35.3277C38.8712 35.4755 38.8561 35.6287 38.7985 35.7679C38.7408 35.9071 38.6431 36.0261 38.5178 36.1098C38.3925 36.1936 38.2452 36.2382 38.0946 36.2382C37.8926 36.238 37.6989 36.1577 37.5561 36.0148C37.4132 35.872 37.3329 35.6783 37.3326 35.4763ZM31.9993 33.1906C31.8486 33.1906 31.7013 33.1459 31.576 33.0622C31.4507 32.9785 31.3531 32.8595 31.2954 32.7203C31.2377 32.5811 31.2226 32.4279 31.252 32.2801C31.2814 32.1323 31.354 31.9965 31.4606 31.89C31.5671 31.7834 31.7029 31.7108 31.8507 31.6814C31.9985 31.652 32.1517 31.6671 32.2909 31.7248C32.4301 31.7825 32.5491 31.8801 32.6328 32.0054C32.7165 32.1307 32.7612 32.278 32.7612 32.4287C32.761 32.6307 32.6806 32.8244 32.5378 32.9672C32.395 33.11 32.2013 33.1904 31.9993 33.1906ZM26.666 35.4763C26.666 35.627 26.6213 35.7743 26.5376 35.8996C26.4539 36.0249 26.3349 36.1226 26.1956 36.1802C26.0564 36.2379 25.9032 36.253 25.7554 36.2236C25.6076 36.1942 25.4719 36.1216 25.3653 36.0151C25.2588 35.9085 25.1862 35.7728 25.1568 35.625C25.1274 35.4772 25.1425 35.324 25.2002 35.1848C25.2578 35.0455 25.3555 34.9265 25.4808 34.8428C25.6061 34.7591 25.7534 34.7144 25.9041 34.7144C26.1061 34.7147 26.2997 34.795 26.4426 34.9378C26.5854 35.0807 26.6657 35.2743 26.666 35.4763ZM9.90407 47.6668C9.70208 47.6665 9.50844 47.5862 9.36561 47.4434C9.22279 47.3005 9.14243 47.1069 9.14217 46.9049V46.143H54.8565V46.9049C54.8562 47.1069 54.7758 47.3005 54.633 47.4434C54.4902 47.5862 54.2965 47.6665 54.0946 47.6668H9.90407ZM27.8088 50.7144V49.1906H36.1898V50.7144H27.8088ZM26.0202 2.71443C26.2462 2.71443 26.4671 2.6474 26.6551 2.52182C26.843 2.39624 26.9895 2.21775 27.076 2.00892C27.1625 1.80009 27.1851 1.5703 27.141 1.34861C27.097 1.12692 26.9881 0.923278 26.8283 0.763447C26.6684 0.603615 26.4648 0.494769 26.2431 0.450671C26.0214 0.406574 25.7916 0.429206 25.5828 0.515706C25.374 0.602206 25.1955 0.748689 25.0699 0.936631C24.9443 1.12457 24.8773 1.34553 24.8773 1.57157C24.8776 1.87457 24.9982 2.16506 25.2124 2.37931C25.4267 2.59356 25.7172 2.71408 26.0202 2.71443ZM26.0202 1.00014C26.1332 1.00014 26.2437 1.03365 26.3376 1.09644C26.4316 1.15923 26.5048 1.24848 26.5481 1.35289C26.5913 1.45731 26.6026 1.5722 26.5806 1.68305C26.5586 1.7939 26.5041 1.89571 26.4242 1.97563C26.3443 2.05555 26.2425 2.10997 26.1316 2.13202C26.0208 2.15407 25.9059 2.14275 25.8015 2.0995C25.6971 2.05625 25.6078 1.98301 25.545 1.88904C25.4822 1.79507 25.4487 1.68459 25.4487 1.57157C25.4489 1.42006 25.5091 1.2748 25.6163 1.16767C25.7234 1.06054 25.8686 1.00029 26.0202 1.00014ZM60.3059 25.9525C60.1552 25.9525 60.0079 25.9972 59.8826 26.0809C59.7573 26.1646 59.6596 26.2836 59.602 26.4229C59.5443 26.5621 59.5292 26.7153 59.5586 26.8631C59.588 27.0109 59.6606 27.1466 59.7671 27.2532C59.8737 27.3597 60.0094 27.4323 60.1572 27.4617C60.305 27.4911 60.4582 27.476 60.5974 27.4183C60.7367 27.3607 60.8557 27.263 60.9394 27.1377C61.0231 27.0124 61.0678 26.8651 61.0678 26.7144C61.0675 26.5124 60.9872 26.3188 60.8444 26.1759C60.7015 26.0331 60.5079 25.9528 60.3059 25.9525ZM60.3059 27.0954C60.2305 27.0954 60.1569 27.073 60.0942 27.0312C60.0316 26.9893 59.9827 26.9298 59.9539 26.8602C59.9251 26.7906 59.9175 26.714 59.9322 26.6401C59.9469 26.5662 59.9832 26.4983 60.0365 26.4451C60.0898 26.3918 60.1577 26.3555 60.2316 26.3408C60.3054 26.3261 60.382 26.3336 60.4517 26.3625C60.5213 26.3913 60.5808 26.4401 60.6226 26.5028C60.6645 26.5654 60.6868 26.6391 60.6868 26.7144C60.6867 26.8154 60.6466 26.9123 60.5751 26.9837C60.5037 27.0551 60.4069 27.0953 60.3059 27.0954ZM37.4487 14.9049C37.298 14.9049 37.1507 14.9496 37.0254 15.0333C36.9001 15.117 36.8025 15.236 36.7448 15.3752C36.6871 15.5145 36.6721 15.6677 36.7015 15.8154C36.7309 15.9632 36.8034 16.099 36.91 16.2056C37.0165 16.3121 37.1523 16.3847 37.3001 16.4141C37.4479 16.4435 37.6011 16.4284 37.7403 16.3707C37.8795 16.313 37.9985 16.2154 38.0822 16.0901C38.1659 15.9648 38.2106 15.8175 38.2106 15.6668C38.2104 15.4648 38.1301 15.2711 37.9872 15.1283C37.8444 14.9855 37.6507 14.9051 37.4487 14.9049ZM37.4487 16.0478C37.3734 16.0478 37.2997 16.0254 37.2371 15.9836C37.1744 15.9417 37.1256 15.8822 37.0968 15.8126C37.0679 15.743 37.0604 15.6664 37.0751 15.5925C37.0898 15.5186 37.1261 15.4507 37.1794 15.3974C37.2326 15.3442 37.3005 15.3079 37.3744 15.2932C37.4483 15.2785 37.5249 15.286 37.5945 15.3149C37.6641 15.3437 37.7236 15.3925 37.7655 15.4552C37.8073 15.5178 37.8297 15.5915 37.8297 15.6668C37.8296 15.7678 37.7894 15.8646 37.718 15.9361C37.6466 16.0075 37.5497 16.0477 37.4487 16.0478ZM60.3059 3.47633C60.1552 3.47633 60.0079 3.52102 59.8826 3.60473C59.7573 3.68845 59.6596 3.80745 59.602 3.94667C59.5443 4.08589 59.5292 4.23908 59.5586 4.38688C59.588 4.53467 59.6606 4.67043 59.7671 4.77698C59.8737 4.88354 60.0094 4.9561 60.1572 4.9855C60.305 5.0149 60.4582 4.99981 60.5974 4.94214C60.7367 4.88448 60.8557 4.78682 60.9394 4.66153C61.0231 4.53623 61.0678 4.38893 61.0678 4.23824C61.0675 4.03624 60.9872 3.84258 60.8444 3.69974C60.7015 3.55691 60.5079 3.47656 60.3059 3.47633ZM60.3059 4.61919C60.2305 4.61919 60.1569 4.59685 60.0942 4.55499C60.0316 4.51313 59.9827 4.45363 59.9539 4.38402C59.9251 4.31441 59.9175 4.23781 59.9322 4.16392C59.9469 4.09002 59.9832 4.02214 60.0365 3.96886C60.0898 3.91558 60.1577 3.8793 60.2316 3.8646C60.3054 3.8499 60.382 3.85745 60.4517 3.88628C60.5213 3.91511 60.5808 3.96394 60.6226 4.02659C60.6645 4.08924 60.6868 4.16289 60.6868 4.23824C60.6867 4.33924 60.6466 4.43608 60.5751 4.5075C60.5037 4.57892 60.4069 4.61909 60.3059 4.61919ZM6.59158 10.3335C6.59158 10.1828 6.5469 10.0355 6.46318 9.91018C6.37946 9.78489 6.26046 9.68723 6.12124 9.62957C5.98202 9.5719 5.82883 9.55681 5.68104 9.58621C5.53324 9.61561 5.39748 9.68817 5.29093 9.79473C5.18437 9.90128 5.11181 10.037 5.08241 10.1848C5.05301 10.3326 5.0681 10.4858 5.12577 10.625C5.18343 10.7643 5.28109 10.8833 5.40638 10.967C5.53168 11.0507 5.67899 11.0954 5.82968 11.0954C6.03167 11.0951 6.22533 11.0148 6.36817 10.872C6.511 10.7291 6.59135 10.5355 6.59158 10.3335ZM5.44872 10.3335C5.44872 10.2581 5.47107 10.1845 5.51293 10.1218C5.55479 10.0592 5.61428 10.0104 5.68389 9.98152C5.7535 9.95269 5.8301 9.94514 5.904 9.95984C5.97789 9.97454 6.04577 10.0108 6.09905 10.0641C6.15233 10.1174 6.18861 10.1853 6.20331 10.2592C6.21801 10.3331 6.21046 10.4096 6.18163 10.4793C6.1528 10.5489 6.10397 10.6084 6.04132 10.6502C5.97867 10.6921 5.90502 10.7144 5.82968 10.7144C5.72867 10.7143 5.63183 10.6742 5.56041 10.6027C5.48899 10.5313 5.44882 10.4345 5.44872 10.3335Z" fill="#2D4356"/>
<path d="M4.1471 25.9567L4.71358 25.212L4.35587 25.0093L3.99206 25.8436H3.98025L3.61072 25.015L3.24691 25.2238L3.80729 25.951V25.9628L2.93072 25.8497V26.255L3.81301 26.1419V26.1537L3.24691 26.8805L3.58634 27.0954L3.97415 26.255H3.98596L4.34368 27.0893L4.71929 26.8748L4.1471 26.1594V26.1476L5.04691 26.255V25.8497L4.1471 25.9685V25.9567Z" fill="#1E83E6"/>
<path d="M19.841 12.645L19.5149 13.0637L19.7107 13.1871L19.934 12.7033H19.9404L20.1465 13.1837L20.3629 13.0602L20.0334 12.648V12.6412L20.5515 12.7033V12.4698L20.0334 12.5383V12.5315L20.3595 12.1025L20.1538 11.9859L19.9443 12.4663H19.9374L19.7245 11.989L19.5149 12.1094L19.8376 12.528V12.5349L19.3328 12.4698V12.7033L19.841 12.6381V12.645Z" fill="#1E83E6"/>
<path d="M59.1632 17.8432V17.4459L58.2805 17.5628V17.551L58.8359 16.8203L58.4851 16.6215L58.1285 17.4398H58.1167L57.7544 16.6272L57.3974 16.8321L57.9472 17.5453V17.5571L57.0873 17.4459V17.8432L57.9529 17.7323V17.7441L57.3974 18.4573L57.7308 18.668L58.111 17.8432H58.1224L58.4733 18.6619L58.8416 18.4516L58.2805 17.7499V17.7381L59.1632 17.8432Z" fill="#1E83E6"/>
<path d="M44.4747 7.12821L44.954 6.49773L44.6511 6.3263L44.3437 7.03221H44.3334L44.021 6.33125L43.7128 6.50802L44.1871 7.12325V7.13316L43.4458 7.03754V7.3804L44.1921 7.2844V7.29468L43.7128 7.90992L44.0005 8.09163L44.3284 7.3804H44.3384L44.6412 8.0863L44.9589 7.90497L44.4747 7.29963V7.28935L45.2359 7.3804V7.03754L44.4747 7.13811V7.12821Z" fill="#1E83E6"/>
</svg>
