<svg width="92" height="92" viewBox="0 0 92 92" fill="none" xmlns="http://www.w3.org/2000/svg">
<path d="M86.1775 27.5625C86.3941 27.5625 86.6058 27.4983 86.7859 27.378C86.966 27.2576 87.1064 27.0866 87.1893 26.8864C87.2722 26.6863 87.2939 26.4661 87.2516 26.2536C87.2094 26.0412 87.1051 25.846 86.9519 25.6929C86.7987 25.5397 86.6036 25.4354 86.3911 25.3931C86.1787 25.3509 85.9584 25.3725 85.7583 25.4554C85.5582 25.5383 85.3871 25.6787 85.2668 25.8588C85.1464 26.0389 85.0822 26.2507 85.0822 26.4673C85.0825 26.7577 85.198 27.0361 85.4034 27.2414C85.6087 27.4467 85.8871 27.5622 86.1775 27.5625ZM86.1775 25.9197C86.2858 25.9197 86.3916 25.9518 86.4817 26.012C86.5717 26.0722 86.6419 26.1577 86.6834 26.2577C86.7248 26.3578 86.7357 26.4679 86.7145 26.5741C86.6934 26.6804 86.6413 26.7779 86.5647 26.8545C86.4881 26.9311 86.3905 26.9833 86.2843 27.0044C86.1781 27.0255 86.0679 27.0147 85.9679 26.9732C85.8678 26.9318 85.7823 26.8616 85.7221 26.7716C85.6619 26.6815 85.6298 26.5756 85.6298 26.4673C85.63 26.3221 85.6877 26.1829 85.7904 26.0802C85.8931 25.9776 86.0323 25.9198 86.1775 25.9197ZM10.0584 22.634C10.3833 22.634 10.7009 22.5376 10.9711 22.3571C11.2413 22.1766 11.4518 21.92 11.5762 21.6198C11.7005 21.3196 11.7331 20.9893 11.6697 20.6706C11.6063 20.3519 11.4498 20.0592 11.2201 19.8294C10.9903 19.5997 10.6976 19.4432 10.3789 19.3798C10.0602 19.3164 9.72988 19.349 9.42969 19.4733C9.1295 19.5977 8.87292 19.8082 8.6924 20.0784C8.51188 20.3486 8.41553 20.6662 8.41553 20.9911C8.41603 21.4267 8.58927 21.8443 8.89726 22.1522C9.20525 22.4602 9.62283 22.6335 10.0584 22.634ZM10.0584 20.1697C10.2208 20.1697 10.3797 20.2179 10.5147 20.3081C10.6498 20.3984 10.7551 20.5267 10.8173 20.6768C10.8795 20.8269 10.8957 20.992 10.864 21.1514C10.8323 21.3107 10.7541 21.4571 10.6392 21.572C10.5243 21.6868 10.378 21.7651 10.2186 21.7968C10.0593 21.8285 9.89413 21.8122 9.74404 21.75C9.59394 21.6878 9.46565 21.5826 9.37539 21.4475C9.28513 21.3124 9.23696 21.1536 9.23696 20.9911C9.23717 20.7733 9.32378 20.5645 9.47778 20.4105C9.63178 20.2565 9.84059 20.1699 10.0584 20.1697ZM89.4632 39.6786C89.2601 39.6786 89.0616 39.7388 88.8927 39.8517C88.7239 39.9645 88.5923 40.1248 88.5145 40.3125C88.4368 40.5001 88.4165 40.7065 88.4561 40.9057C88.4957 41.1049 88.5935 41.2879 88.7371 41.4314C88.8807 41.575 89.0637 41.6728 89.2629 41.7125C89.462 41.7521 89.6685 41.7317 89.8561 41.654C90.0437 41.5763 90.2041 41.4447 90.3169 41.2759C90.4297 41.107 90.49 40.9085 90.49 40.7054C90.4896 40.4332 90.3814 40.1722 90.1889 39.9797C89.9964 39.7872 89.7354 39.6789 89.4632 39.6786ZM89.4632 41.2188C89.3616 41.2188 89.2624 41.1887 89.1779 41.1323C89.0935 41.0759 89.0277 40.9957 88.9888 40.9019C88.95 40.8081 88.9398 40.7048 88.9596 40.6052C88.9794 40.5057 89.0283 40.4142 89.1001 40.3424C89.1719 40.2706 89.2634 40.2217 89.363 40.2019C89.4626 40.1821 89.5658 40.1922 89.6596 40.2311C89.7534 40.2699 89.8336 40.3358 89.89 40.4202C89.9464 40.5046 89.9766 40.6039 89.9766 40.7054C89.9764 40.8415 89.9223 40.972 89.826 41.0683C89.7298 41.1645 89.5993 41.2187 89.4632 41.2188ZM74.1298 13.8721C73.9132 13.8721 73.7015 13.9363 73.5213 14.0567C73.3412 14.177 73.2009 14.3481 73.118 14.5482C73.0351 14.7483 73.0134 14.9685 73.0556 15.181C73.0979 15.3934 73.2022 15.5886 73.3554 15.7418C73.5086 15.8949 73.7037 15.9992 73.9162 16.0415C74.1286 16.0838 74.3488 16.0621 74.549 15.9792C74.7491 15.8963 74.9201 15.7559 75.0405 15.5758C75.1608 15.3957 75.2251 15.1839 75.2251 14.9673C75.2247 14.6769 75.1092 14.3986 74.9039 14.1932C74.6986 13.9879 74.4202 13.8724 74.1298 13.8721ZM74.1298 15.5149C74.0215 15.5149 73.9156 15.4828 73.8256 15.4226C73.7355 15.3625 73.6653 15.2769 73.6239 15.1769C73.5824 15.0768 73.5716 14.9667 73.5927 14.8605C73.6139 14.7542 73.666 14.6567 73.7426 14.5801C73.8192 14.5035 73.9168 14.4513 74.023 14.4302C74.1292 14.4091 74.2393 14.4199 74.3394 14.4614C74.4395 14.5028 74.525 14.573 74.5852 14.6631C74.6453 14.7531 74.6774 14.859 74.6774 14.9673C74.6773 15.1125 74.6196 15.2517 74.5169 15.3544C74.4142 15.457 74.275 15.5148 74.1298 15.5149ZM33.0584 29.753C33.0584 29.5364 32.9942 29.3247 32.8738 29.1445C32.7535 28.9644 32.5824 28.8241 32.3823 28.7412C32.1822 28.6583 31.9619 28.6366 31.7495 28.6788C31.537 28.7211 31.3419 28.8254 31.1887 28.9786C31.0355 29.1317 30.9312 29.3269 30.889 29.5394C30.8467 29.7518 30.8684 29.972 30.9513 30.1722C31.0342 30.3723 31.1746 30.5433 31.3547 30.6637C31.5348 30.784 31.7465 30.8483 31.9632 30.8483C32.2535 30.8479 32.5319 30.7324 32.7372 30.5271C32.9426 30.3218 33.0581 30.0434 33.0584 29.753ZM31.4155 29.753C31.4155 29.6447 31.4476 29.5388 31.5078 29.4488C31.568 29.3587 31.6535 29.2885 31.7536 29.2471C31.8537 29.2056 31.9638 29.1948 32.07 29.2159C32.1762 29.2371 32.2738 29.2892 32.3504 29.3658C32.427 29.4424 32.4791 29.54 32.5002 29.6462C32.5214 29.7524 32.5105 29.8625 32.4691 29.9626C32.4276 30.0627 32.3574 30.1482 32.2674 30.2084C32.1773 30.2685 32.0715 30.3006 31.9632 30.3006C31.818 30.3005 31.6788 30.2428 31.5761 30.1401C31.4734 30.0374 31.4157 29.8982 31.4155 29.753Z" fill="#2D4356"/>
<path d="M5.99653 46.1881L6.81084 45.117L6.29663 44.8262L5.7742 46.0255H5.75668L5.22604 44.8344L4.70251 45.1345L5.50861 46.1799V46.1969L4.24854 46.0337V46.6163L5.51682 46.4537V46.4712L4.70251 47.5161L5.19099 47.8249L5.74846 46.6163H5.76489L6.27911 47.8162L6.81906 47.5079L5.99653 46.4794V46.4625L7.29001 46.6163V46.0337L5.99653 46.2051V46.1881Z" fill="#1E83E6"/>
<path d="M37.8643 14.4562L37.3956 15.058L37.6765 15.236L37.9974 14.54H38.0072L38.3035 15.2311L38.6146 15.0531L38.1409 14.4611V14.4512L38.8856 14.54V14.2048L38.1409 14.3034V14.2935L38.6096 13.6769L38.3134 13.5088L38.0122 14.1993H38.0023L37.6967 13.5137L37.3956 13.6868L37.8594 14.2886V14.2985L37.1338 14.2048V14.54L37.8643 14.4463V14.4562Z" fill="#1E83E6"/>
<path d="M74.1294 32.8822V32.311L72.8606 32.4786V32.4622L73.6596 31.4118L73.1552 31.126L72.6426 32.3023H72.6257L72.1049 31.1342L71.5912 31.4283L72.382 32.454V32.4704L71.146 32.311V32.8822L72.3902 32.7228V32.7398L71.5912 33.7644L72.0704 34.0672L72.6175 32.8822H72.6339L73.1382 34.059L73.6678 33.7562L72.8606 32.748V32.731L74.1294 32.8822Z" fill="#1E83E6"/>
<path d="M56.8483 24.0497L57.5372 23.1439L57.1024 22.8975L56.6604 23.9122H56.6456L56.196 22.9046L55.7536 23.1581L56.4354 24.0431V24.0573L55.3691 23.9193V24.4122L56.4425 24.2747V24.2895L55.7536 25.1734L56.1665 25.4346L56.6385 24.4122H56.6528L57.0876 25.4275L57.5443 25.1662L56.8483 24.2966V24.2818L57.9429 24.4122V23.9193L56.8483 24.0644V24.0497Z" fill="#1E83E6"/>
<path d="M78.3641 66.4887C78.4364 66.4884 78.5079 66.4738 78.5745 66.4459C78.6411 66.418 78.7016 66.3772 78.7524 66.3259C78.8033 66.2746 78.8435 66.2137 78.8709 66.1469C78.8982 66.08 78.9121 66.0084 78.9118 65.9362V44.4229C78.9118 44.2777 78.8541 44.1384 78.7514 44.0357C78.6487 43.933 78.5094 43.8753 78.3641 43.8753C78.2189 43.8753 78.0796 43.933 77.9769 44.0357C77.8742 44.1384 77.8165 44.2777 77.8165 44.4229V65.9362C77.8162 66.0084 77.8301 66.08 77.8574 66.1469C77.8848 66.2137 77.925 66.2746 77.9759 66.3259C78.0267 66.3772 78.0872 66.418 78.1538 66.4459C78.2204 66.4738 78.2919 66.4884 78.3641 66.4887ZM75.8453 40.7097C75.8456 40.6375 75.8317 40.5659 75.8044 40.499C75.7771 40.4322 75.7368 40.3713 75.686 40.32C75.6351 40.2687 75.5747 40.2279 75.508 40.2C75.4414 40.1721 75.3699 40.1575 75.2977 40.1572H53.2603L52.1549 41.2622H75.2977C75.3699 41.2619 75.4414 41.2474 75.508 41.2195C75.5746 41.1915 75.6351 41.1507 75.686 41.0994C75.7368 41.0481 75.7771 40.9873 75.8044 40.9204C75.8317 40.8536 75.8456 40.782 75.8453 40.7097ZM40.9402 40.1572H16.7025C16.5572 40.1592 16.4186 40.2182 16.3165 40.3216C16.2145 40.425 16.1573 40.5645 16.1573 40.7097C16.1573 40.855 16.2145 40.9944 16.3165 41.0978C16.4186 41.2012 16.5572 41.2603 16.7025 41.2622H39.8349L40.9402 40.1572ZM38.2313 69.2986C38.2582 69.3655 38.2981 69.4263 38.3486 69.4777C38.3992 69.5291 38.4594 69.5699 38.5258 69.5979C38.5922 69.6259 38.6635 69.6405 38.7356 69.6409C38.8076 69.6412 38.8791 69.6273 38.9457 69.6C40.464 68.9711 43.8021 65.4236 44.1647 65.0348C44.8856 64.3143 45.8623 63.9084 46.8815 63.9058C47.9007 63.9033 48.8795 64.3042 49.604 65.0211C49.9794 65.4236 53.3175 68.9711 54.8363 69.6C54.903 69.6276 54.9744 69.6417 55.0466 69.6415C55.1187 69.6413 55.1901 69.6268 55.2566 69.5987C55.323 69.5707 55.3833 69.5297 55.4338 69.4782C55.4843 69.4267 55.5241 69.3656 55.5508 69.2986C55.6062 69.1634 55.6059 69.0117 55.55 68.8767C55.4941 68.7416 55.3871 68.6341 55.2524 68.5775C54.1507 68.1216 51.3768 65.3089 50.388 64.2498C49.4568 63.3227 48.1955 62.8034 46.8815 62.806C45.5675 62.8085 44.3083 63.3328 43.3807 64.2635C42.4047 65.3089 39.6308 68.1216 38.5297 68.5775C38.3949 68.6341 38.2879 68.7416 38.2321 68.8767C38.1762 69.0117 38.1759 69.1634 38.2313 69.2986ZM13.636 43.8704C13.5638 43.8707 13.4923 43.8852 13.4257 43.9132C13.359 43.9411 13.2986 43.9819 13.2477 44.0332C13.1969 44.0845 13.1566 44.1453 13.1293 44.2122C13.1019 44.2791 13.088 44.3507 13.0884 44.4229V65.9362C13.0884 66.0814 13.1461 66.2207 13.2488 66.3234C13.3515 66.4261 13.4908 66.4838 13.636 66.4838C13.7812 66.4838 13.9205 66.4261 14.0232 66.3234C14.1259 66.2207 14.1836 66.0814 14.1836 65.9362V44.4229C14.184 44.3507 14.1701 44.2791 14.1427 44.2122C14.1154 44.1453 14.0751 44.0845 14.0243 44.0332C13.9734 43.9819 13.913 43.9411 13.8463 43.9132C13.7797 43.8852 13.7082 43.8707 13.636 43.8704ZM62.3037 60.8531C61.4954 60.6673 60.7393 60.3017 60.0917 59.7834C60.0381 59.7403 59.9764 59.7084 59.9103 59.6896C59.8442 59.6708 59.7749 59.6654 59.7067 59.6738C59.6384 59.6822 59.5726 59.7041 59.513 59.7384C59.4533 59.7727 59.4012 59.8185 59.3596 59.8733C59.274 59.9847 59.2353 60.1252 59.2517 60.2648C59.2682 60.4044 59.3385 60.5321 59.4478 60.6205C60.2173 61.2366 61.1158 61.6711 62.0765 61.8919C62.1439 61.9071 62.2137 61.9087 62.2818 61.8965C62.3498 61.8844 62.4148 61.8588 62.4728 61.8212C62.5308 61.7836 62.5807 61.7348 62.6195 61.6776C62.6584 61.6205 62.6854 61.5561 62.6991 61.4884C62.7301 61.3517 62.706 61.2084 62.632 61.0894C62.558 60.9705 62.44 60.8856 62.3037 60.8531ZM66.9647 59.7769C66.3181 60.2963 65.5627 60.6633 64.7547 60.8507C64.6186 60.8836 64.5009 60.9687 64.4271 61.0877C64.3533 61.2067 64.3294 61.35 64.3604 61.4865C64.3852 61.6033 64.4491 61.7082 64.5415 61.7837C64.634 61.8593 64.7495 61.901 64.8689 61.902C64.9076 61.902 64.9462 61.8976 64.984 61.889C65.9444 61.6663 66.8422 61.23 67.6107 60.6125C67.7196 60.5238 67.7896 60.396 67.8058 60.2565C67.822 60.1169 67.7831 59.9765 67.6973 59.8652C67.6556 59.8106 67.6033 59.7649 67.5436 59.7308C67.4838 59.6967 67.4179 59.6749 67.3496 59.6666C67.2814 59.6584 67.2121 59.6639 67.146 59.6829C67.0799 59.7018 67.0183 59.7338 66.9647 59.7769ZM69.5736 54.8631C69.4326 54.8672 69.2989 54.9266 69.2014 55.0284C69.1038 55.1303 69.0501 55.2664 69.0519 55.4074C69.0546 56.2479 68.867 57.0781 68.5032 57.8358C68.4423 57.9621 68.4332 58.1074 68.4779 58.2404C68.5227 58.3734 68.6177 58.4836 68.7427 58.5474C68.8137 58.5829 68.892 58.6014 68.9714 58.6015C69.0699 58.6011 69.1662 58.5729 69.2492 58.52C69.3322 58.4672 69.3986 58.3919 69.4406 58.3029C69.8745 57.3995 70.0983 56.4096 70.0953 55.4074V55.383C70.0958 55.3144 70.0826 55.2465 70.0565 55.183C70.0304 55.1196 69.992 55.0621 69.9435 55.0137C69.8949 54.9653 69.8372 54.927 69.7737 54.9012C69.7102 54.8753 69.6422 54.8624 69.5736 54.8631ZM65.3559 49.5543C65.3865 49.4176 65.362 49.2743 65.2877 49.1555C65.2134 49.0368 65.0953 48.9521 64.959 48.9198C64.0011 48.7061 63.0076 48.7092 62.0511 48.9286C61.915 48.9618 61.7974 49.0472 61.7238 49.1664C61.6502 49.2856 61.6265 49.4289 61.6578 49.5655C61.6828 49.682 61.7469 49.7865 61.8393 49.8618C61.9317 49.9371 62.047 49.9786 62.1662 49.9796C62.2053 49.9797 62.2443 49.9752 62.2824 49.9663C63.0888 49.7817 63.9263 49.7792 64.7338 49.9591C64.8013 49.9736 64.8709 49.9747 64.9388 49.9622C65.0066 49.9497 65.0713 49.9238 65.1292 49.8862C65.187 49.8486 65.2368 49.7999 65.2757 49.7429C65.3146 49.6859 65.3419 49.6218 65.3559 49.5543ZM57.9958 55.4186C57.997 55.279 57.9427 55.1446 57.8449 55.045C57.7471 54.9453 57.6137 54.8886 57.4741 54.8872H57.4731C57.3334 54.8889 57.2001 54.946 57.1025 55.0459C57.0048 55.1458 56.9509 55.2804 56.9525 55.4201C56.9512 56.4224 57.1769 57.412 57.6127 58.3146C57.6548 58.4033 57.7212 58.4783 57.8041 58.531C57.8871 58.5836 57.9832 58.6117 58.0814 58.6121C58.1612 58.612 58.2399 58.5933 58.3112 58.5575C58.436 58.4934 58.5307 58.3829 58.5752 58.2499C58.6196 58.1168 58.6103 57.9716 58.5491 57.8453C58.184 57.0885 57.9949 56.2589 57.9958 55.4186ZM57.8425 53.235C57.9132 53.2702 57.9912 53.2885 58.0702 53.2885C58.1688 53.2882 58.2653 53.2599 58.3484 53.2069C58.4315 53.1539 58.498 53.0784 58.5399 52.9892C58.9006 52.2351 59.4248 51.5709 60.0744 51.0449C60.1831 50.9559 60.2528 50.828 60.2687 50.6884C60.2846 50.5488 60.2454 50.4085 60.1594 50.2974C60.1176 50.2428 60.0652 50.1971 60.0054 50.1631C59.9456 50.1291 59.8796 50.1073 59.8113 50.0992C59.7429 50.0911 59.6737 50.0968 59.6076 50.1159C59.5415 50.1349 59.4799 50.1671 59.4264 50.2103C58.6538 50.8363 58.0304 51.6265 57.6015 52.5236C57.5408 52.6501 57.5321 52.7954 57.5771 52.9284C57.6221 53.0613 57.7174 53.1713 57.8425 53.235ZM68.4936 52.9593C68.5357 53.0479 68.602 53.1227 68.6849 53.1752C68.7677 53.2277 68.8637 53.2557 68.9618 53.256C69.0418 53.2559 69.1206 53.2372 69.1921 53.2012C69.3169 53.1369 69.4116 53.0264 69.4559 52.8932C69.5001 52.7599 69.4905 52.6147 69.4289 52.4885C68.9949 51.5941 68.367 50.8077 67.5908 50.1864C67.5372 50.1434 67.4754 50.1115 67.4091 50.0927C67.3429 50.0739 67.2736 50.0687 67.2053 50.0772C67.137 50.0857 67.0711 50.1078 67.0114 50.1422C66.9518 50.1766 66.8997 50.2227 66.8583 50.2776C66.773 50.3893 66.7347 50.5298 66.7515 50.6693C66.7682 50.8088 66.8387 50.9363 66.9479 51.0246C67.6005 51.5466 68.1286 52.2075 68.4936 52.9593Z" fill="#2D4356"/>
<path d="M63.5239 44.9287C61.4661 44.9287 59.4544 45.5389 57.7434 46.6822C56.0323 47.8255 54.6987 49.4505 53.9112 51.3517C53.1237 53.253 52.9176 55.345 53.3191 57.3633C53.7206 59.3817 54.7115 61.2356 56.1666 62.6908C57.6218 64.1459 59.4757 65.1368 61.4941 65.5383C63.5124 65.9398 65.6044 65.7337 67.5057 64.9462C69.4069 64.1587 71.0319 62.8251 72.1752 61.114C73.3185 59.403 73.9287 57.3913 73.9287 55.3335C73.9256 52.5749 72.8283 49.9303 70.8777 47.9797C68.9272 46.0291 66.2825 44.9318 63.5239 44.9287ZM63.5239 64.643C61.6827 64.643 59.8828 64.097 58.3518 63.0741C56.8209 62.0511 55.6277 60.5972 54.923 58.8961C54.2184 57.195 54.0341 55.3231 54.3933 53.5173C54.7525 51.7114 55.6391 50.0526 56.9411 48.7506C58.2431 47.4487 59.9019 46.562 61.7077 46.2028C63.5136 45.8436 65.3854 46.028 67.0865 46.7326C68.7876 47.4372 70.2416 48.6304 71.2645 50.1614C72.2875 51.6923 72.8334 53.4922 72.8334 55.3335C72.8307 57.8017 71.849 60.168 70.1037 61.9133C68.3584 63.6585 65.9921 64.6402 63.5239 64.643ZM38.3335 55.3335C38.3335 53.2756 37.7232 51.264 36.5799 49.5529C35.4366 47.8418 33.8116 46.5082 31.9104 45.7207C30.0092 44.9332 27.9172 44.7272 25.8988 45.1286C23.8805 45.5301 22.0265 46.5211 20.5714 47.9762C19.1163 49.4313 18.1253 51.2853 17.7239 53.3036C17.3224 55.3219 17.5284 57.414 18.3159 59.3152C19.1035 61.2164 20.4371 62.8414 22.1481 63.9847C23.8592 65.128 25.8708 65.7382 27.9287 65.7382C30.6872 65.7351 33.3319 64.6379 35.2825 62.6873C37.2331 60.7367 38.3303 58.092 38.3335 55.3335ZM18.6192 55.3335C18.6192 53.4922 19.1652 51.6923 20.1881 50.1614C21.2111 48.6304 22.665 47.4372 24.3661 46.7326C26.0672 46.028 27.939 45.8436 29.7449 46.2028C31.5508 46.562 33.2096 47.4487 34.5115 48.7506C35.8135 50.0526 36.7001 51.7114 37.0593 53.5173C37.4185 55.3231 37.2342 57.195 36.5296 58.8961C35.825 60.5972 34.6317 62.0511 33.1008 63.0741C31.5698 64.097 29.7699 64.643 27.9287 64.643C25.4605 64.6402 23.0942 63.6585 21.3489 61.9133C19.6036 60.168 18.6219 57.8017 18.6192 55.3335Z" fill="#1E83E6"/>
<path d="M32.8981 52.9593C32.9402 53.0478 33.0065 53.1227 33.0894 53.1752C33.1722 53.2277 33.2682 53.2557 33.3663 53.256C33.4463 53.2559 33.5251 53.2371 33.5966 53.2012C33.7214 53.1369 33.8161 53.0263 33.8604 52.8931C33.9047 52.7599 33.895 52.6146 33.8335 52.4885C33.3994 51.5941 32.7715 50.8076 31.9954 50.1864C31.9417 50.1433 31.8799 50.1115 31.8137 50.0927C31.7474 50.0739 31.6781 50.0686 31.6098 50.0771C31.5415 50.0856 31.4756 50.1077 31.416 50.1422C31.3564 50.1766 31.3043 50.2227 31.2628 50.2776C31.1776 50.3893 31.1393 50.5298 31.156 50.6693C31.1727 50.8088 31.2432 50.9363 31.3524 51.0246C32.005 51.5466 32.5331 52.2075 32.8981 52.9593ZM22.247 53.235C22.3177 53.2701 22.3957 53.2884 22.4747 53.2885C22.5733 53.2881 22.6698 53.2598 22.7529 53.2069C22.8361 53.1539 22.9025 53.0784 22.9444 52.9892C23.3051 52.2351 23.8293 51.5709 24.4789 51.0449C24.5876 50.9559 24.6573 50.828 24.6732 50.6884C24.6891 50.5488 24.6499 50.4085 24.564 50.2973C24.5221 50.2427 24.4697 50.1971 24.4099 50.163C24.3501 50.129 24.2841 50.1073 24.2158 50.0992C24.1475 50.0911 24.0782 50.0967 24.0121 50.1158C23.946 50.1349 23.8844 50.167 23.8309 50.2103C23.0583 50.8363 22.4349 51.6265 22.006 52.5235C21.9453 52.6501 21.9366 52.7954 21.9816 52.9283C22.0266 53.0613 22.1219 53.1713 22.247 53.235ZM29.7604 49.5543C29.791 49.4176 29.7665 49.2743 29.6922 49.1555C29.618 49.0367 29.4998 48.952 29.3635 48.9197C28.4056 48.7061 27.4121 48.7091 26.4556 48.9286C26.3195 48.9618 26.2019 49.0472 26.1283 49.1663C26.0547 49.2855 26.031 49.4289 26.0623 49.5654C26.0874 49.682 26.1514 49.7865 26.2438 49.8618C26.3362 49.937 26.4515 49.9786 26.5707 49.9796C26.6098 49.9796 26.6488 49.9752 26.6869 49.9663C27.4933 49.7817 28.3308 49.7792 29.1384 49.9591C29.2058 49.9737 29.2755 49.9748 29.3433 49.9623C29.4112 49.9498 29.4759 49.924 29.5338 49.8864C29.5916 49.8487 29.6414 49.8 29.6803 49.743C29.7192 49.686 29.7464 49.6218 29.7604 49.5543ZM33.4565 55.4073C33.4591 56.2478 33.2715 57.078 32.9078 57.8357C32.8468 57.9621 32.8377 58.1073 32.8825 58.2403C32.9272 58.3733 33.0222 58.4835 33.1472 58.5474C33.2182 58.5828 33.2965 58.6013 33.376 58.6014C33.4744 58.6011 33.5707 58.5728 33.6537 58.52C33.7368 58.4671 33.8031 58.3919 33.8452 58.3029C34.279 57.3994 34.5028 56.4095 34.4998 55.4073V55.3829C34.5003 55.3144 34.4871 55.2464 34.461 55.183C34.435 55.1196 34.3965 55.062 34.348 55.0136C34.2994 54.9652 34.2417 54.927 34.1782 54.9011C34.1147 54.8753 34.0467 54.8623 33.9781 54.863C33.8372 54.8672 33.7035 54.9266 33.6059 55.0284C33.5083 55.1302 33.4546 55.2663 33.4565 55.4073ZM31.3692 59.7769C30.7226 60.2963 29.9672 60.6633 29.1592 60.8507C29.0231 60.8836 28.9054 60.9687 28.8317 61.0877C28.7579 61.2067 28.7339 61.35 28.765 61.4865C28.7897 61.6033 28.8536 61.7082 28.946 61.7837C29.0385 61.8593 29.154 61.901 29.2734 61.902C29.3121 61.902 29.3507 61.8976 29.3885 61.889C30.3489 61.6663 31.2467 61.2299 32.0152 60.6125C32.1242 60.5237 32.1942 60.396 32.2103 60.2564C32.2265 60.1169 32.1876 59.9765 32.1018 59.8652C32.0601 59.8106 32.0078 59.7649 31.9481 59.7308C31.8884 59.6967 31.8224 59.6749 31.7542 59.6666C31.6859 59.6584 31.6167 59.6639 31.5506 59.6828C31.4844 59.7018 31.4228 59.7337 31.3692 59.7769ZM26.7083 60.8531C25.8999 60.6673 25.1438 60.3017 24.4962 59.7834C24.4426 59.7403 24.3809 59.7084 24.3148 59.6896C24.2487 59.6708 24.1794 59.6654 24.1112 59.6738C24.043 59.6822 23.9771 59.7041 23.9175 59.7384C23.8579 59.7727 23.8057 59.8185 23.7641 59.8733C23.6785 59.9847 23.6398 60.1252 23.6562 60.2648C23.6727 60.4044 23.743 60.532 23.8523 60.6205C24.6218 61.2366 25.5203 61.6711 26.481 61.8918C26.5485 61.9071 26.6182 61.9087 26.6863 61.8965C26.7543 61.8844 26.8193 61.8588 26.8773 61.8212C26.9353 61.7836 26.9852 61.7348 27.024 61.6776C27.0629 61.6205 27.09 61.5561 27.1036 61.4883C27.1347 61.3517 27.1106 61.2084 27.0365 61.0894C26.9625 60.9705 26.8445 60.8855 26.7083 60.8531ZM22.4003 55.4185C22.4015 55.2789 22.3472 55.1446 22.2494 55.0449C22.1516 54.9453 22.0183 54.8886 21.8786 54.8872H21.8776C21.7379 54.8888 21.6046 54.9459 21.507 55.0459C21.4094 55.1458 21.3554 55.2804 21.357 55.4201C21.3557 56.4224 21.5815 57.4119 22.0172 58.3146C22.0593 58.4033 22.1257 58.4783 22.2086 58.531C22.2916 58.5836 22.3877 58.6117 22.4859 58.612C22.5657 58.612 22.6444 58.5933 22.7157 58.5575C22.8405 58.4933 22.9352 58.3829 22.9797 58.2498C23.0241 58.1168 23.0148 57.9716 22.9536 57.8453C22.5885 57.0884 22.3994 56.2588 22.4003 55.4185Z" fill="#2D4356"/>
<path d="M74.9697 37.8178V37.8178C76.634 37.8329 78.2244 38.5076 79.392 39.6937C80.5593 40.8796 81.2087 42.48 81.1978 44.144C81.1978 44.1443 81.1978 44.1447 81.1978 44.145M74.9697 37.8178L81.0478 44.144L81.1978 44.145M74.9697 37.8178H74.9684L17.032 37.8178L17.0306 37.8178C15.3663 37.8329 13.776 38.5076 12.6084 39.6937C11.441 40.8798 10.7915 42.4804 10.8026 44.1446M74.9697 37.8178L10.9526 44.144M81.1978 44.145L81.1978 65.8708M81.1978 44.145L81.1978 65.8708M81.1978 65.8708C81.204 67.3166 80.7138 68.7208 79.8089 69.8486C79.1184 70.7093 78.2183 71.3693 77.2026 71.7701M81.1978 65.8708L77.2026 71.7701M77.2026 71.7701L83.0883 71.7701H83.2383C83.4233 71.7701 83.6007 71.8436 83.7316 71.9745C83.8624 72.1053 83.9359 72.2827 83.9359 72.4678C83.9359 72.6528 83.8624 72.8302 83.7316 72.9611C83.6007 73.0919 83.4233 73.1654 83.2383 73.1654H8.76209C8.57707 73.1654 8.39963 73.0919 8.2688 72.9611L8.37487 72.855L8.2688 72.9611C8.13797 72.8302 8.06447 72.6528 8.06447 72.4678C8.06447 72.2827 8.13797 72.1053 8.2688 71.9745C8.39963 71.8436 8.57707 71.7701 8.76209 71.7701H14.7946C14.1126 71.502 13.481 71.1139 12.9308 70.6216C12.9076 70.6075 12.8853 70.5919 12.8639 70.575L12.8565 70.5692L12.8498 70.5624C12.831 70.5432 12.8192 70.5231 12.8137 70.5131C12.1808 69.9209 11.6758 69.2054 11.3299 68.4105C10.9813 67.6094 10.8018 66.745 10.8026 65.8713M77.2026 71.7701L10.9526 65.8714M10.8026 65.8713L10.9526 65.8714M10.8026 65.8713V65.8714H10.9526M10.8026 65.8713V44.1446M10.9526 65.8714V44.144M10.8026 44.1446C10.8026 44.1447 10.8026 44.1448 10.8026 44.145L10.9526 44.144M10.8026 44.1446V44.144H10.9526M74.9684 70.9427L74.9669 70.7927C74.9671 70.7927 74.9673 70.7927 74.9675 70.7927C76.2605 70.7798 77.4956 70.2546 78.402 69.3324C79.3085 68.41 79.8122 67.1658 79.8026 65.8725L79.8026 65.8714V44.144V44.1429C79.8122 42.8496 79.3085 41.6054 78.402 40.683C77.4956 39.7609 76.2606 39.2357 74.9676 39.2228H52.8593L39.2341 52.8431L39.0424 53.0347L38.9818 52.7706C38.8892 52.367 38.7747 51.9688 38.6388 51.5777L38.6079 51.4888L38.6744 51.4223L50.8784 39.2228H49.0259L38.205 50.0397L38.0606 50.1841L37.966 50.0031C37.7921 49.6702 37.6028 49.3476 37.3982 49.0354L37.3314 48.9333L37.4176 48.8471L47.0452 39.2228H45.1926L36.6418 47.7709L36.5285 47.8842L36.4229 47.7636C36.184 47.4909 35.9327 47.2301 35.6692 46.9813L35.5569 46.8753L35.6661 46.7661L43.2118 39.2228H17.0327C15.7398 39.2357 14.5048 39.7608 13.5984 40.683C12.6919 41.6054 12.1882 42.8496 12.1978 44.1429L12.1978 44.144L12.1978 65.8714V65.8716C12.1968 67.0409 12.6103 68.171 13.3618 69.0624L19.3647 63.0614L19.4758 62.9503L19.5816 63.0665C19.8257 63.3345 20.0819 63.5903 20.3502 63.8341L20.4667 63.9399L20.3554 64.0512L14.407 69.9978L74.8816 70.7982M74.9684 70.9427C74.9457 70.9426 74.923 70.9441 74.9005 70.947M74.9684 70.9427C76.3013 70.9295 77.5746 70.3882 78.509 69.4375C79.4433 68.4869 79.9625 67.2044 79.9526 65.8714M74.9684 70.9427L79.9526 65.8714M74.9005 70.947L74.8816 70.7982M74.9005 70.947L74.8811 70.7983C74.8813 70.7982 74.8814 70.7982 74.8816 70.7982M74.9005 70.947C74.7432 70.967 59.1661 72.9069 54.6033 70.9853L54.6615 70.8471C55.7752 71.3161 57.5803 71.5549 59.6838 71.6429C61.7814 71.7307 64.1559 71.668 66.3957 71.5445C70.8749 71.2975 74.8046 70.808 74.8816 70.7982M79.9526 44.144C79.9625 42.811 79.4433 41.5286 78.5089 40.5779C77.5746 39.6272 76.3013 39.0859 74.9684 39.0728H52.7972L39.2529 52.6122C39.2601 52.6426 39.2672 52.673 39.2742 52.7035L39.128 52.737L39.022 52.6309L39.0873 52.5656C39.0013 52.2153 38.8989 51.8692 38.7805 51.5284L51.0906 39.2228L79.9526 44.144ZM79.9526 44.144V65.8714M79.9526 44.144V65.8714M35.8783 46.7661L43.424 39.2228L35.8783 46.7661ZM35.8783 46.7661C35.8772 46.7651 35.8762 46.7641 35.8751 46.7631L35.7722 46.8722M35.8783 46.7661L35.7722 46.8722M35.7722 46.8722L35.8782 46.9783L35.8806 46.9759M35.7722 46.8722L35.8806 46.9759M35.8806 46.9759C36.0723 47.1617 36.2575 47.3538 36.436 47.5524L36.4297 47.5587L36.5357 47.6648L36.6486 47.566C36.6464 47.5635 36.6442 47.561 36.642 47.5585L45.1305 39.0728L35.8806 46.9759ZM37.5237 48.9532C37.7025 49.226 37.8697 49.5067 38.0254 49.7951L37.9929 49.8276L38.099 49.9336L38.2319 49.8642C38.2247 49.8503 38.2174 49.8364 38.2101 49.8226L48.9638 39.0728L37.5237 48.9532ZM42.5196 69.6358C43.3881 68.6668 44.1159 67.7342 44.3195 67.4697C44.6553 67.1341 45.0538 66.8676 45.4923 66.6854C45.9337 66.5019 46.407 66.4075 46.885 66.4075C47.363 66.4075 47.8363 66.5019 48.2777 66.6854C48.7162 66.8676 49.1147 67.1341 49.4505 67.4697C49.6542 67.7343 50.382 68.6669 51.2504 69.6359C51.6888 70.1252 52.1645 70.6254 52.6277 71.0541C52.9221 71.3266 53.2146 71.5732 53.4916 71.7701H40.2783C40.5553 71.5732 40.8477 71.3266 41.1421 71.0541C41.6054 70.6253 42.0811 70.1251 42.5196 69.6358ZM6.024 71.7701H3.2859C3.10088 71.7701 2.92344 71.8436 2.79261 71.9745C2.66178 72.1053 2.58828 72.2827 2.58828 72.4678C2.58828 72.6528 2.66178 72.8302 2.79261 72.9611C2.92344 73.0919 3.10088 73.1654 3.2859 73.1654H6.024C6.20901 73.1654 6.38646 73.0919 6.51729 72.9611C6.64812 72.8302 6.72161 72.6528 6.72161 72.4678C6.72161 72.2827 6.64812 72.1053 6.51729 71.9745C6.38646 71.8436 6.20901 71.7701 6.024 71.7701Z" fill="#2D4356" stroke="#2D4356" stroke-width="0.3"/>
<path d="M0.547619 73.0152C0.850061 73.0152 1.09524 72.77 1.09524 72.4675C1.09524 72.1651 0.850061 71.9199 0.547619 71.9199C0.245177 71.9199 0 72.1651 0 72.4675C0 72.77 0.245177 73.0152 0.547619 73.0152Z" fill="#2D4356"/>
<path d="M88.7144 71.9199H85.9763C85.8311 71.9199 85.6918 71.9776 85.5891 72.0803C85.4864 72.183 85.4287 72.3223 85.4287 72.4675C85.4287 72.6128 85.4864 72.7521 85.5891 72.8548C85.6918 72.9575 85.8311 73.0152 85.9763 73.0152H88.7144C88.8597 73.0152 88.999 72.9575 89.1017 72.8548C89.2044 72.7521 89.2621 72.6128 89.2621 72.4675C89.2621 72.3223 89.2044 72.183 89.1017 72.0803C88.999 71.9776 88.8597 71.9199 88.7144 71.9199Z" fill="#2D4356"/>
<path d="M91.4524 73.0152C91.7548 73.0152 92 72.77 92 72.4675C92 72.1651 91.7548 71.9199 91.4524 71.9199C91.15 71.9199 90.9048 72.1651 90.9048 72.4675C90.9048 72.77 91.15 73.0152 91.4524 73.0152Z" fill="#2D4356"/>
<path d="M57.4999 75.2051H34.4999C34.3547 75.2051 34.2154 75.2628 34.1127 75.3655C34.01 75.4682 33.9523 75.6075 33.9523 75.7527C33.9523 75.8979 34.01 76.0372 34.1127 76.1399C34.2154 76.2426 34.3547 76.3003 34.4999 76.3003H44.3571V77.3956H38.8809C38.7356 77.3956 38.5964 77.4532 38.4937 77.5559C38.391 77.6586 38.3333 77.7979 38.3333 77.9432C38.3333 78.0884 38.391 78.2277 38.4937 78.3304C38.5964 78.4331 38.7356 78.4908 38.8809 78.4908H53.6666C53.8118 78.4908 53.9511 78.4331 54.0538 78.3304C54.1565 78.2277 54.2142 78.0884 54.2142 77.9432C54.2142 77.7979 54.1565 77.6586 54.0538 77.5559C53.9511 77.4532 53.8118 77.3956 53.6666 77.3956H47.6428V76.3003H57.4999C57.6452 76.3003 57.7845 76.2426 57.8872 76.1399C57.9899 76.0372 58.0476 75.8979 58.0476 75.7527C58.0476 75.6075 57.9899 75.4682 57.8872 75.3655C57.7845 75.2628 57.6452 75.2051 57.4999 75.2051ZM65.1666 76.3003H59.6904C59.5452 76.3003 59.4059 76.2426 59.3032 76.1399C59.2005 76.0372 59.1428 75.8979 59.1428 75.7527C59.1428 75.6075 59.2005 75.4682 59.3032 75.3655C59.4059 75.2628 59.5452 75.2051 59.6904 75.2051H65.1666C65.3118 75.2051 65.4511 75.2628 65.5538 75.3655C65.6565 75.4682 65.7142 75.6075 65.7142 75.7527C65.7142 75.8979 65.6565 76.0372 65.5538 76.1399C65.4511 76.2426 65.3118 76.3003 65.1666 76.3003ZM32.3095 76.3003H26.8333C26.688 76.3003 26.5487 76.2426 26.446 76.1399C26.3433 76.0372 26.2856 75.8979 26.2856 75.7527C26.2856 75.6075 26.3433 75.4682 26.446 75.3655C26.5487 75.2628 26.688 75.2051 26.8333 75.2051H32.3095C32.4547 75.2051 32.594 75.2628 32.6967 75.3655C32.7994 75.4682 32.8571 75.6075 32.8571 75.7527C32.8571 75.8979 32.7994 76.0372 32.6967 76.1399C32.594 76.2426 32.4547 76.3003 32.3095 76.3003Z" fill="#1E83E6"/>
</svg>
